<svg width="165" height="56" viewBox="0 0 165 56" fill="none" xmlns="http://www.w3.org/2000/svg">
<rect width="165" height="56" rx="8" fill="url(#paint0_linear_3_372)"/>
<rect x="1.05" y="1.05" width="162.9" height="53.9" rx="6.95" stroke="white" stroke-opacity="0.15" stroke-width="2.1"/>
<path fill-rule="evenodd" clip-rule="evenodd" d="M35.1376 29.6572H35.1368C35.0622 29.6572 34.9963 29.6818 34.9344 29.7318C34.8883 29.7684 34.8566 29.8176 34.8312 29.8724H34.8343C34.8597 29.8176 34.8915 29.7684 34.9367 29.7318C34.9987 29.6818 35.0646 29.658 35.1376 29.6572Z" fill="#BD0000"/>
<path fill-rule="evenodd" clip-rule="evenodd" d="M35.14 29.6572C35.1392 29.6572 35.1384 29.6572 35.1376 29.6572C35.2146 29.658 35.2654 29.6842 35.2996 29.7406C35.3146 29.7644 35.3226 29.8001 35.3226 29.8454C35.3226 29.8533 35.321 29.8636 35.3202 29.8724H35.3234C35.3234 29.8636 35.325 29.8533 35.325 29.8454C35.325 29.8001 35.3178 29.7644 35.3027 29.7406C35.2686 29.6834 35.217 29.6572 35.14 29.6572Z" fill="#BD0000"/>
<path fill-rule="evenodd" clip-rule="evenodd" d="M12 36.2179H12.5922L12.8582 35.1065H13.8204L13.9442 34.6301H12.9781L13.1384 33.9157H14.1665L14.2903 33.3599H12.6668L12 36.2179Z" fill="#663366"/>
<path fill-rule="evenodd" clip-rule="evenodd" d="M14.6563 36.2179L14.8342 35.4716C14.9278 35.0676 15.1255 34.7095 15.4994 34.7095C15.5328 34.7095 15.5653 34.7262 15.5899 34.7302L15.7344 34.1578C15.7011 34.1578 15.6645 34.1538 15.6233 34.1538C15.3478 34.1538 15.1168 34.3475 14.9628 34.6254H14.9469C14.9699 34.4896 14.9898 34.361 15.0048 34.2332H14.4944C14.465 34.3983 14.4197 34.7214 14.3507 35.0128L14.0601 36.2179H14.6563Z" fill="#663366"/>
<path fill-rule="evenodd" clip-rule="evenodd" d="M17.2904 35.682C17.1261 35.7622 16.9387 35.7416 16.7204 35.7416C16.5481 35.7416 16.4148 35.7114 16.3417 35.6527C16.3036 35.5884 16.2878 35.4883 16.2909 35.424C17.0951 35.4455 17.6024 35.2597 17.6278 34.7516C17.6469 34.3682 17.3666 34.1538 16.9594 34.1538C16.2322 34.1538 15.7559 34.7953 15.7249 35.4129C15.6979 35.952 15.9774 36.2179 16.5537 36.2179C16.7752 36.2179 17.0689 36.1925 17.3095 36.1203L17.2904 35.682ZM17.0729 34.7516C17.0634 34.9406 16.83 34.9517 16.3703 34.9477C16.4203 34.7818 16.5886 34.6302 16.8641 34.6302C16.9999 34.6302 17.0777 34.6818 17.0729 34.7516Z" fill="#663366"/>
<path fill-rule="evenodd" clip-rule="evenodd" d="M19.395 35.682C19.2307 35.7622 19.0433 35.7416 18.8258 35.7416C18.6527 35.7416 18.5201 35.7114 18.4471 35.6527C18.409 35.5884 18.3923 35.4883 18.3955 35.424C19.2005 35.4455 19.707 35.2597 19.7332 34.7516C19.7522 34.3682 19.472 34.1538 19.0647 34.1538C18.3368 34.1538 17.8604 34.7953 17.8295 35.4129C17.8033 35.952 18.0827 36.2179 18.6583 36.2179C18.8806 36.2179 19.1743 36.1925 19.4148 36.1203L19.395 35.682ZM19.1783 34.7516C19.1687 34.9406 18.9353 34.9517 18.4749 34.9477C18.5257 34.7818 18.6932 34.6302 18.9687 34.6302C19.1044 34.6302 19.183 34.6818 19.1783 34.7516Z" fill="#663366"/>
<path fill-rule="evenodd" clip-rule="evenodd" d="M22.4593 36.2179C22.4641 35.9662 22.5244 35.5709 22.5872 35.3113L22.842 34.2332C22.68 34.1784 22.4276 34.1538 22.1847 34.1538C21.1987 34.1538 20.7096 34.8842 20.6755 35.5685C20.6541 35.998 20.8867 36.2179 21.2487 36.2179C21.4829 36.2179 21.7472 36.1044 21.9528 35.763H21.9616C21.9457 35.9273 21.9266 36.0869 21.9163 36.2179H22.4593ZM22.0521 35.0842C21.9362 35.5892 21.6996 35.7416 21.5234 35.7416C21.359 35.7416 21.2876 35.6249 21.2971 35.455C21.3162 35.0715 21.6194 34.6302 22.0021 34.6302C22.064 34.6302 22.1124 34.619 22.1577 34.6079L22.0521 35.0842Z" fill="#663366"/>
<path fill-rule="evenodd" clip-rule="evenodd" d="M22.8475 36.1242C22.9619 36.2131 23.2016 36.2139 23.4517 36.2179C23.986 36.2219 24.3893 35.9885 24.4131 35.5598C24.4266 35.274 24.2051 35.1049 23.9884 34.9914C23.832 34.9159 23.7534 34.8437 23.7573 34.7595C23.7629 34.646 23.8693 34.6301 24.0257 34.6301C24.2019 34.6301 24.3432 34.6516 24.4242 34.6674L24.5846 34.2372C24.4933 34.1824 24.3107 34.1538 24.0765 34.1538C23.5581 34.1538 23.1786 34.4277 23.1572 34.8437C23.1445 35.1009 23.3294 35.274 23.5533 35.3915C23.7343 35.4843 23.7962 35.5558 23.7915 35.6566C23.7859 35.7582 23.6954 35.7416 23.5311 35.7416C23.3382 35.7416 23.1246 35.7162 23.0119 35.6987L22.8475 36.1242Z" fill="#663366"/>
<path fill-rule="evenodd" clip-rule="evenodd" d="M26.0151 36.2179L26.4954 34.2332H25.9072L25.4237 36.2179H26.0151ZM26.2906 33.995C26.4923 33.995 26.6717 33.8283 26.6828 33.5425C26.6923 33.3488 26.5669 33.2805 26.3819 33.2805C26.189 33.2805 26.0127 33.406 26.0024 33.5933C25.9929 33.7823 26.1183 33.995 26.2906 33.995Z" fill="#663366"/>
<path fill-rule="evenodd" clip-rule="evenodd" d="M27.1504 36.2179L27.36 35.324C27.4687 34.8691 27.7029 34.7095 27.8958 34.7095C28.0482 34.7095 28.0927 34.7746 28.0856 34.8691C28.0816 34.9453 28.0697 35.0255 28.0538 35.0969L27.7871 36.2179H28.3793L28.6603 35.0422C28.6818 34.9405 28.7056 34.7889 28.7103 34.6968C28.7278 34.3388 28.5492 34.2086 28.2205 34.2086C27.9569 34.2086 27.7005 34.3308 27.4981 34.596H27.4901L27.5441 34.2332H27.0218C26.9876 34.4031 26.944 34.6087 26.882 34.8485L26.5581 36.2179H27.1504Z" fill="#663366"/>
<path fill-rule="evenodd" clip-rule="evenodd" d="M29.6987 36.2179H30.2909L30.5577 35.1065H31.5191L31.6429 34.6301H30.6768L30.8371 33.9157H31.8652L31.9891 33.3599H30.3656L29.6987 36.2179Z" fill="#663366"/>
<path fill-rule="evenodd" clip-rule="evenodd" d="M32.355 36.2179L32.5329 35.4716C32.6265 35.0676 32.8242 34.7095 33.1981 34.7095C33.2315 34.7095 33.264 34.7262 33.2886 34.7302L33.4331 34.1578C33.3998 34.1578 33.3633 34.1538 33.322 34.1538C33.0465 34.1538 32.8155 34.3475 32.6615 34.6254H32.6456C32.6686 34.4896 32.6885 34.361 32.7035 34.2332H32.1931C32.1645 34.3983 32.1185 34.7214 32.0494 35.0128L31.7588 36.2179H32.355Z" fill="#663366"/>
<path fill-rule="evenodd" clip-rule="evenodd" d="M34.9891 35.682C34.8248 35.7622 34.6374 35.7416 34.4191 35.7416C34.2468 35.7416 34.1135 35.7114 34.0404 35.6527C34.0023 35.5884 33.9864 35.4883 33.9896 35.424C34.7938 35.4455 35.3011 35.2597 35.3265 34.7516C35.3456 34.3682 35.0653 34.1538 34.6581 34.1538C33.9309 34.1538 33.4545 34.7953 33.4236 35.4129C33.3966 35.952 33.6768 36.2179 34.2524 36.2179C34.4739 36.2179 34.7684 36.1925 35.0082 36.1203L34.9891 35.682ZM34.7716 34.7516C34.7621 34.9406 34.5287 34.9517 34.069 34.9477C34.119 34.7818 34.2873 34.6302 34.5628 34.6302C34.6986 34.6302 34.7764 34.6818 34.7716 34.7516Z" fill="#663366"/>
<path fill-rule="evenodd" clip-rule="evenodd" d="M37.0937 35.682C36.9294 35.7622 36.742 35.7416 36.5245 35.7416C36.3514 35.7416 36.2189 35.7114 36.1458 35.6527C36.1077 35.5884 36.091 35.4883 36.0942 35.424C36.8992 35.4455 37.4057 35.2597 37.4319 34.7516C37.451 34.3682 37.1707 34.1538 36.7635 34.1538C36.0355 34.1538 35.5591 34.7953 35.5282 35.4129C35.502 35.952 35.7814 36.2179 36.357 36.2179C36.5793 36.2179 36.873 36.1925 37.1136 36.1203L37.0937 35.682ZM36.877 34.7516C36.8675 34.9406 36.6341 34.9517 36.1736 34.9477C36.2244 34.7818 36.3919 34.6302 36.6674 34.6302C36.8032 34.6302 36.8817 34.6818 36.877 34.7516Z" fill="#663366"/>
<path fill-rule="evenodd" clip-rule="evenodd" d="M39.4467 33.2805L39.2236 34.1824C39.1427 34.149 39.0371 34.1538 38.9545 34.1538C38.194 34.1538 37.6557 34.8048 37.62 35.5097C37.5962 36.0067 37.8613 36.2179 38.2027 36.2179C38.4417 36.2179 38.6933 36.1123 38.8839 35.8392H38.8918L38.8465 36.2179H39.3848C39.4094 35.9797 39.461 35.6963 39.519 35.4375L40.0342 33.2805H39.4467ZM38.9831 35.2192C38.8902 35.6106 38.6711 35.7416 38.498 35.7416C38.3258 35.7416 38.2297 35.6217 38.2416 35.4081C38.2615 35.0128 38.533 34.6301 38.8862 34.6301C38.9855 34.6301 39.0704 34.6452 39.1173 34.6674L38.9831 35.2192Z" fill="#663366"/>
<path fill-rule="evenodd" clip-rule="evenodd" d="M40.7971 36.2179C41.4878 36.2179 42.0205 35.6947 42.0578 34.9826C42.0808 34.5111 41.7871 34.1538 41.2449 34.1538C40.5288 34.1538 40.0152 34.7334 39.9794 35.4336C39.9548 35.9432 40.2835 36.2179 40.7971 36.2179ZM40.89 35.7416C40.6884 35.7416 40.5772 35.613 40.5891 35.4209C40.605 35.1009 40.8027 34.6302 41.1433 34.6302C41.3782 34.6302 41.4505 34.8104 41.441 34.9874C41.4235 35.3367 41.2107 35.7416 40.89 35.7416Z" fill="#663366"/>
<path fill-rule="evenodd" clip-rule="evenodd" d="M42.7937 36.2179L43.0081 35.3113C43.0978 34.9072 43.3217 34.6301 43.5225 34.6301C43.667 34.6301 43.7067 34.7357 43.6996 34.8739C43.6956 34.9453 43.6797 35.0255 43.663 35.1049L43.3979 36.2179H43.9695L44.1838 35.3073C44.2823 34.8905 44.4934 34.6301 44.6903 34.6301C44.8261 34.6301 44.8824 34.727 44.8761 34.8651C44.8721 34.9453 44.8554 35.0334 44.8348 35.1136L44.5776 36.2179H45.1532L45.4302 35.0422C45.4516 34.9366 45.4763 34.7722 45.4802 34.6881C45.4977 34.3388 45.327 34.1538 45.019 34.1538C44.7554 34.1538 44.499 34.2729 44.3045 34.5238C44.2974 34.3428 44.1679 34.1538 43.8472 34.1538C43.5876 34.1538 43.3399 34.2713 43.1415 34.5373H43.1335L43.1867 34.2332H42.677C42.6437 34.4031 42.6032 34.6087 42.5413 34.8485L42.2222 36.2179H42.7937Z" fill="#663366"/>
<path d="M37.164 30.8913C37.1963 30.9742 37.2285 31.0569 37.2621 31.1378C37.3138 31.2477 37.3735 31.3529 37.4453 31.4511C37.8334 31.9787 38.4833 32.2675 39.3085 32.3394H40.1961C40.4767 32.3175 40.7708 32.2767 41.0756 32.2171C41.6013 32.1143 42.1586 31.9564 42.7373 31.7453C43.1757 31.5855 43.6262 31.3964 44.0834 31.1766C45.0791 30.6992 46.1077 30.0837 47.1168 29.3408C47.4492 29.0963 47.7681 28.8455 48.0742 28.5904C48.3549 28.3569 48.6241 28.1197 48.8813 27.88C49.599 27.1883 50.1408 26.4858 50.4476 25.869C50.7672 25.2267 50.831 24.6775 50.5691 24.3315C50.4087 24.1192 50.1401 24.0053 49.7944 23.9786C51.352 22.8098 52.2597 21.392 51.9341 20.4981C51.8307 20.2128 51.6031 20 51.2768 19.8823C51.1318 19.8301 50.9686 19.7971 50.7907 19.7821H50.3113C49.642 19.8303 48.6685 20.07 47.8427 20.4747" stroke="#663266" stroke-width="0.5"/>
<path fill-rule="evenodd" clip-rule="evenodd" d="M15.4673 20.0926L12.7061 32.1397C12.7069 32.1397 19.9697 32.1397 19.9713 32.1397C23.1654 32.1397 32.7452 32.1397 32.7452 32.1397H39.389C38.5975 32.0706 37.9726 31.7928 37.6003 31.2863C37.5313 31.1926 37.4742 31.0917 37.4242 30.9861C37.3924 30.9083 37.3626 30.8298 37.3324 30.7504C37.253 30.498 37.2213 30.2178 37.2356 29.9193C37.2753 29.0873 37.6657 28.0977 38.3421 27.0614C39.0606 25.96 40.1018 24.8057 41.3911 23.7345C41.6801 23.4946 41.9789 23.2577 42.2916 23.0275C42.6783 22.743 43.0679 22.4811 43.4576 22.2361C44.8938 21.3319 46.3263 20.6993 47.5957 20.3779C46.3827 20.7736 45.0199 21.4455 43.6735 22.3601C43.6251 22.3928 43.5772 22.4263 43.5296 22.4594C42.7826 22.977 42.1058 23.5267 41.5151 24.0818C39.6146 25.8689 38.61 27.7206 39.0665 28.8054C39.0991 28.88 39.1379 28.9513 39.1831 29.0188C39.6737 29.7404 40.8896 29.8651 42.4306 29.4777C42.5354 29.4515 42.6402 29.4219 42.7481 29.3909C43.2403 29.2488 43.7629 29.0569 44.3011 28.8203C44.4305 28.7631 44.5613 28.7044 44.6931 28.6417C44.7066 28.6353 44.7193 28.629 44.7328 28.6218C46.4317 27.7777 47.7374 26.8064 48.02 26.2228C48.0819 26.0959 48.0968 25.9877 48.0547 25.9028C47.853 25.4939 46.442 25.7702 44.7328 26.5106C44.5955 26.5702 44.4565 26.6314 44.316 26.6967C44.4303 26.5905 44.5493 26.484 44.6708 26.3791C44.8645 26.2122 45.0651 26.0491 45.2786 25.8879C45.6128 25.6348 45.9507 25.406 46.2834 25.2032C47.8409 24.0281 48.6284 22.9165 48.464 22.504C48.4331 22.4263 48.3672 22.3728 48.2656 22.3403C47.9409 22.237 47.3482 22.3603 46.6282 22.6553C46.0344 22.8989 45.3523 23.2601 44.6609 23.7097L44.5666 23.7717L44.5492 23.7817L44.2168 24.0025L44.4078 23.6527C44.6912 23.1338 45.1529 22.5925 45.7276 22.0897C46.1492 21.722 46.6308 21.3757 47.1492 21.0725C47.3453 20.9577 47.5411 20.8511 47.7371 20.755C47.938 20.6569 48.1389 20.5697 48.335 20.492C48.9047 20.2667 49.5306 19.9822 50.0048 19.945C49.9616 19.945 48.5906 20.0926 48.5906 20.0926H44.1002H24.3004H15.4673ZM36.9751 20.11C36.8973 21.2974 37.1276 23.0366 37.6499 24.9675C37.7428 25.3111 37.8439 25.6608 37.9551 26.0144C38.0241 26.2328 38.0954 26.4478 38.1684 26.6595C38.1256 26.7225 38.0824 26.7851 38.0419 26.848C37.3901 27.8469 37.0092 28.7908 36.9131 29.6117C36.6376 28.6892 36.4302 27.6788 36.3127 26.6074C36.2794 26.3004 36.2533 25.9968 36.2358 25.6969C36.1072 23.5182 36.3916 21.5433 36.9751 20.11ZM23.9679 21.6555C23.9828 21.6552 23.9975 21.6555 24.0126 21.6555H26.9475C27.1983 21.6555 27.3923 21.7026 27.5305 21.797C27.6678 21.8919 27.7193 22.0147 27.6868 22.1641L27.337 23.7444H26.3024L26.6423 22.2063H24.0523L23.117 26.4337L22.7796 27.9644H25.3671L25.3696 27.9545L25.8881 25.6125H24.6725L24.7891 25.0841H27.0393L26.3942 28.0066C26.3855 28.0482 26.3702 28.0859 26.3496 28.1232C26.2964 28.22 26.2036 28.303 26.0742 28.3713C25.8948 28.4657 25.68 28.5127 25.4292 28.5127H22.4968C22.2459 28.5127 22.0519 28.4657 21.9138 28.3713C21.7764 28.2768 21.7241 28.1561 21.7575 28.0066L23.05 22.1641C23.0834 22.0147 23.1874 21.8919 23.3676 21.797C23.3739 21.7935 23.3811 21.7928 23.3874 21.7895C23.5519 21.7071 23.7449 21.6608 23.9679 21.6555ZM28.5675 21.6555H32.2615C32.5092 21.6555 32.7039 21.7026 32.842 21.797C32.9809 21.8919 33.0341 22.0147 33.0008 22.1641L32.3111 25.2801C32.2786 25.4286 32.1721 25.5497 31.9911 25.6448C31.8101 25.7402 31.597 25.7887 31.3485 25.7887H28.6642L28.1457 28.1281L28.0614 28.5127H27.0492L27.1261 28.1653L28.5675 21.6555ZM33.6706 21.6555H34.6828L33.5367 26.8331L33.2861 27.9644H35.7074C35.7328 28.1501 35.7625 28.3325 35.7942 28.5127H32.1523L32.4401 27.2127L33.6706 21.6555ZM29.4581 22.2063L28.7858 25.2379H31.3088L31.9787 22.2063H29.4581ZM24.0781 29.3615C24.088 29.3611 24.0979 29.3615 24.1078 29.3615C24.2253 29.3615 24.3279 29.3821 24.4105 29.421C24.4986 29.4623 24.5616 29.5236 24.5966 29.6046C24.6307 29.6832 24.6396 29.7724 24.6214 29.87L24.6139 29.9072H24.3237L24.3261 29.8725C24.3336 29.8043 24.3252 29.7506 24.2989 29.7137C24.2954 29.7091 24.2904 29.703 24.2864 29.6988C24.2799 29.6922 24.2701 29.6845 24.2617 29.679C24.221 29.6534 24.1575 29.6393 24.0756 29.6393C23.9668 29.6393 23.8855 29.6583 23.83 29.6964C23.776 29.7337 23.7418 29.7754 23.7307 29.8254C23.7196 29.8762 23.7379 29.9029 23.7506 29.9172C23.751 29.9176 23.7526 29.9192 23.7531 29.9196C23.7692 29.9333 23.825 29.9655 23.9987 30.0065C24.1559 30.0446 24.26 30.0788 24.3187 30.1082C24.4076 30.1534 24.4697 30.2121 24.5023 30.2843C24.5348 30.3558 24.542 30.4394 24.5221 30.5299C24.5023 30.6181 24.4573 30.6993 24.3906 30.7755C24.3248 30.8517 24.2409 30.9121 24.1401 30.9542C24.0401 30.9955 23.9303 31.0187 23.8176 31.0187C23.6747 31.0187 23.5599 30.997 23.4702 30.9542C23.3766 30.9097 23.309 30.8395 23.2693 30.7482C23.2312 30.6593 23.2231 30.5584 23.2445 30.4481L23.2519 30.4133H23.5372L23.5348 30.4481C23.5276 30.514 23.5347 30.5671 23.5521 30.6068C23.5688 30.645 23.6005 30.6765 23.6513 30.7011C23.7053 30.7273 23.7728 30.7408 23.8498 30.7408C23.9189 30.7408 23.982 30.7292 24.0384 30.7086C24.0939 30.6887 24.1381 30.6625 24.1699 30.6292C24.2008 30.5958 24.219 30.5606 24.2269 30.5225C24.2349 30.4884 24.233 30.4595 24.2195 30.4357C24.2044 30.4103 24.1745 30.3877 24.1277 30.3687L23.8845 30.2967C23.7488 30.2626 23.6574 30.23 23.6042 30.1975C23.532 30.1546 23.4799 30.0996 23.4529 30.0338C23.4259 29.9687 23.423 29.8965 23.4405 29.8179C23.4587 29.7338 23.4993 29.6537 23.562 29.5822C23.6256 29.51 23.7075 29.4533 23.8052 29.416C23.8915 29.3837 23.9824 29.3647 24.0781 29.3615ZM26.683 29.3664C26.6987 29.3652 26.7134 29.3664 26.7301 29.3664L26.9087 29.3862L26.9683 29.3912L26.8814 29.612L26.8641 29.6467L26.7276 29.6343C26.6873 29.6343 26.6577 29.6406 26.6383 29.6542C26.637 29.6552 26.6345 29.6581 26.6334 29.6591C26.6307 29.6614 26.6264 29.6654 26.6234 29.6691C26.6115 29.6847 26.5969 29.7127 26.5862 29.7633C26.5862 29.7633 26.5811 29.7848 26.5763 29.803C26.639 29.803 26.7896 29.803 26.7896 29.803L26.7351 30.0487C26.7351 30.0487 26.5791 30.0487 26.5267 30.0487C26.5108 30.1201 26.3158 30.9939 26.3158 30.9939H26.028C26.028 30.9939 26.2151 30.1542 26.2389 30.0487C26.1905 30.0487 26.0727 30.0487 26.0727 30.0487L26.1273 29.803C26.1273 29.803 26.2457 29.803 26.291 29.803C26.2989 29.7689 26.3108 29.7261 26.3108 29.7261C26.3283 29.6467 26.3466 29.5897 26.3704 29.55C26.4029 29.4952 26.4489 29.4494 26.5068 29.416C26.5546 29.3883 26.6149 29.3717 26.683 29.3664ZM27.3702 29.3788C27.3702 29.3788 27.2949 29.7173 27.2759 29.803C27.3315 29.803 27.462 29.803 27.462 29.803L27.4074 30.0487C27.4074 30.0487 27.2705 30.0487 27.2213 30.0487C27.2062 30.1169 27.0874 30.6465 27.0874 30.6465C27.0874 30.6465 27.0774 30.7102 27.0774 30.7284C27.0774 30.729 27.0774 30.7304 27.0774 30.7309V30.7334H27.0799L27.1097 30.7358L27.2461 30.7259L27.2312 30.9467L27.2337 30.9864L27.0377 31.0087C26.9599 31.0087 26.9029 30.996 26.8616 30.969C26.8179 30.9405 26.7925 30.9026 26.7822 30.8549C26.7806 30.8462 26.7772 30.8335 26.7772 30.8152C26.7772 30.7795 26.784 30.7191 26.807 30.6143C26.807 30.6143 26.9113 30.1471 26.9335 30.0487C26.8962 30.0487 26.7971 30.0487 26.7971 30.0487L26.8517 29.803C26.8517 29.803 26.9484 29.803 26.9881 29.803C27.0008 29.7459 27.0452 29.55 27.0452 29.55L27.2759 29.4284L27.3702 29.3788ZM18.2282 29.3887H19.3446L19.2825 29.6666C19.2825 29.6666 18.5378 29.6666 18.4663 29.6666C18.4536 29.723 18.4027 29.9512 18.3845 30.0338C18.4877 30.0338 19.0915 30.0338 19.0915 30.0338L19.0295 30.3116C19.0295 30.3116 18.3939 30.3116 18.3224 30.3116C18.3074 30.3807 18.1711 30.9939 18.1711 30.9939H17.8709L18.2282 29.3887ZM19.7241 29.7807C19.7353 29.7793 19.7476 29.7807 19.7589 29.7807C19.8303 29.7807 19.8963 29.8025 19.9598 29.8477L19.9995 29.875L19.8457 30.128L19.8035 30.0983C19.7726 30.0784 19.7392 30.0685 19.7043 30.0685C19.6741 30.0685 19.646 30.0792 19.6175 30.0983C19.5873 30.1181 19.5621 30.1444 19.543 30.1801C19.5097 30.2413 19.4853 30.3097 19.4686 30.3836L19.3346 30.9939H19.0469L19.3123 29.803H19.5802C19.5802 29.803 19.571 29.8392 19.5678 29.8526C19.5805 29.8431 19.5939 29.83 19.6051 29.8229C19.6435 29.7999 19.6841 29.7856 19.7241 29.7807ZM20.5776 29.7807C20.5949 29.7794 20.6119 29.7807 20.6297 29.7807C20.7916 29.7807 20.9142 29.8375 20.9943 29.9494C21.0444 30.0216 21.0712 30.111 21.0712 30.2173C21.0712 30.2761 21.064 30.3393 21.0489 30.4084L21.0266 30.4952C21.0266 30.4952 20.2988 30.4952 20.2178 30.4952C20.2162 30.5119 20.2153 30.5297 20.2153 30.5448C20.2153 30.6067 20.228 30.6555 20.255 30.6912C20.2679 30.7087 20.2827 30.7244 20.2997 30.7358C20.3317 30.7567 20.3729 30.7681 20.4213 30.7681C20.48 30.7681 20.5316 30.7519 20.58 30.721C20.6261 30.6916 20.6701 30.6446 20.709 30.5795H21.0167L20.9894 30.6391C20.9306 30.7582 20.8487 30.8511 20.7463 30.917C20.6438 30.9828 20.5215 31.0187 20.3865 31.0187C20.2111 31.0187 20.0805 30.9619 19.9995 30.85C19.9193 30.7404 19.9021 30.589 19.9449 30.3984C19.9878 30.2047 20.0733 30.0499 20.198 29.942C20.3097 29.8451 20.4365 29.7914 20.5776 29.7807ZM21.8701 29.7807C21.8874 29.7794 21.9045 29.7807 21.9222 29.7807C22.0841 29.7807 22.2067 29.8375 22.2869 29.9494C22.3369 30.0216 22.3638 30.111 22.3638 30.2173C22.3638 30.2753 22.3565 30.3376 22.3414 30.4059L22.3191 30.4952C22.3191 30.4952 21.5913 30.4952 21.5104 30.4952C21.5096 30.5063 21.5087 30.5163 21.5079 30.5274C21.5073 30.5316 21.5081 30.5379 21.5079 30.5423C21.5079 30.5431 21.5079 30.5441 21.5079 30.5448C21.5079 30.5567 21.5096 30.5684 21.5104 30.5795C21.5143 30.6248 21.5261 30.6626 21.5476 30.6912C21.5517 30.6968 21.5555 30.7036 21.56 30.7086C21.5963 30.7475 21.6478 30.7681 21.7138 30.7681C21.7725 30.7681 21.8249 30.7519 21.8726 30.721C21.9186 30.6916 21.9627 30.6446 22.0016 30.5795H22.3117L22.2819 30.6391C22.2232 30.7582 22.1412 30.8511 22.0388 30.917C21.9364 30.9828 21.814 31.0187 21.6791 31.0187C21.5036 31.0187 21.373 30.9619 21.292 30.85C21.2396 30.7785 21.2151 30.6875 21.2151 30.5795C21.2151 30.5629 21.216 30.5449 21.2176 30.5274C21.2208 30.4862 21.2271 30.4445 21.2375 30.3984C21.2803 30.2055 21.3634 30.0499 21.488 29.942C21.5997 29.8451 21.729 29.7914 21.8701 29.7807ZM25.3904 29.7807C25.4082 29.7794 25.4245 29.7807 25.4425 29.7807C25.6077 29.7807 25.7346 29.8366 25.8171 29.9469C25.8989 30.0573 25.9188 30.2061 25.8767 30.3935C25.8441 30.5396 25.7971 30.6576 25.7328 30.7433C25.6685 30.829 25.5865 30.8991 25.4897 30.9467C25.3936 30.9943 25.2919 31.0187 25.1895 31.0187C25.0212 31.0187 24.8959 30.9611 24.8149 30.85C24.7625 30.7793 24.7355 30.6883 24.7355 30.5795C24.7355 30.5208 24.7419 30.4584 24.7578 30.3885C24.8054 30.1758 24.9027 30.0137 25.0456 29.9097C25.1505 29.834 25.2663 29.7903 25.3904 29.7807ZM29.7493 29.7807C29.7703 29.7794 29.7896 29.7807 29.8114 29.7807C29.9114 29.7807 29.99 29.7908 30.0495 29.8155C30.113 29.8409 30.1581 29.8768 30.1835 29.9196C30.2081 29.9601 30.2207 30.0099 30.2207 30.071L30.1909 30.2521L30.1363 30.4977C30.0895 30.7073 30.0792 30.7859 30.0768 30.8152C30.0744 30.8549 30.0781 30.8936 30.0892 30.9294L30.109 30.9939H29.8163L29.8039 30.9566C29.7991 30.9392 29.8005 30.917 29.7989 30.8971C29.7434 30.9312 29.6877 30.9615 29.6377 30.979C29.5639 31.0044 29.4872 31.0187 29.4094 31.0187C29.2745 31.0187 29.1746 30.9835 29.1142 30.9145C29.0682 30.8637 29.0472 30.8015 29.0472 30.7309C29.0472 30.7039 29.0508 30.6759 29.0572 30.6465C29.0707 30.5862 29.0952 30.5303 29.1341 30.4803C29.1722 30.4311 29.2172 30.3906 29.268 30.3612C29.3173 30.3319 29.3721 30.311 29.4293 30.2967L29.6054 30.267C29.7412 30.2511 29.8425 30.2313 29.9155 30.2099C29.9171 30.202 29.9205 30.1925 29.9205 30.1925C29.932 30.1415 29.9306 30.1031 29.918 30.0834C29.9171 30.0821 29.9141 30.0795 29.9131 30.0784C29.9104 30.0756 29.9063 30.0711 29.9031 30.0685C29.8733 30.0449 29.8224 30.0338 29.7543 30.0338C29.6773 30.0338 29.6203 30.0464 29.5806 30.071C29.5417 30.0956 29.5057 30.1406 29.4739 30.2049H29.1738L29.201 30.1454C29.2368 30.0628 29.2794 29.9944 29.3325 29.942C29.3857 29.8896 29.4576 29.849 29.5409 29.8204C29.6048 29.7993 29.6746 29.7853 29.7493 29.7807ZM31.0071 29.7807C31.0183 29.7793 31.0306 29.7807 31.0419 29.7807C31.1141 29.7807 31.1818 29.8025 31.2453 29.8477L31.2825 29.875L31.1287 30.128L31.0865 30.0983C31.0556 30.0784 31.0239 30.0685 30.9898 30.0685C30.9596 30.0685 30.9298 30.0792 30.9005 30.0983C30.8703 30.1181 30.8484 30.1444 30.8285 30.1801C30.796 30.2413 30.7708 30.3097 30.7541 30.3836L30.6176 30.9939H30.3298L30.5953 29.803H30.8632C30.8632 29.803 30.8565 29.8392 30.8533 29.8526C30.866 29.8431 30.8786 29.83 30.8905 29.8229C30.9284 29.7999 30.9671 29.7856 31.0071 29.7807ZM31.8581 29.7807C31.8754 29.7794 31.8925 29.7807 31.9102 29.7807C32.0721 29.7807 32.1955 29.8375 32.2749 29.9494C32.3257 30.0216 32.3518 30.111 32.3518 30.2173C32.3518 30.2761 32.342 30.3393 32.3269 30.4084L32.3071 30.4952C32.3071 30.4952 31.5785 30.4952 31.4983 30.4952C31.4968 30.5119 31.4934 30.5297 31.4934 30.5448C31.4934 30.6067 31.5069 30.6555 31.5331 30.6912C31.5372 30.6968 31.5435 30.7036 31.548 30.7086C31.5506 30.7113 31.5551 30.7159 31.5579 30.7185C31.5934 30.7507 31.6417 30.7681 31.7018 30.7681C31.7605 30.7681 31.8121 30.7519 31.8605 30.721C31.9066 30.6916 31.9499 30.6446 31.9896 30.5795H32.2997L32.2699 30.6391C32.2111 30.7582 32.1284 30.8511 32.0268 30.917C31.9236 30.9828 31.8028 31.0187 31.667 31.0187C31.4916 31.0187 31.3635 30.9619 31.2825 30.85C31.2023 30.7404 31.1834 30.589 31.2254 30.3984C31.2683 30.2047 31.3514 30.0499 31.476 29.942C31.5884 29.8451 31.7171 29.7914 31.8581 29.7807ZM27.5141 29.803H27.8093C27.8093 29.803 27.8457 30.5097 27.8465 30.52C27.8584 30.4947 27.8677 30.4734 27.8688 30.4704L28.1938 29.803H28.4642C28.4642 29.803 28.4891 30.5011 28.4891 30.5051C28.497 30.4908 28.8587 29.803 28.8587 29.803H29.1514L28.5064 30.9939H28.241C28.241 30.9939 28.2153 30.3481 28.2137 30.3116C28.1041 30.5363 27.8812 30.9939 27.8812 30.9939H27.6083L27.5141 29.803ZM20.5825 30.0288C20.5141 30.0317 20.452 30.0563 20.394 30.1032C20.3479 30.1397 20.3169 30.1899 20.2923 30.2446H20.781C20.7818 30.2359 20.7835 30.2253 20.7835 30.2173C20.7835 30.1721 20.7754 30.137 20.7611 30.1131C20.7262 30.056 20.6744 30.0288 20.5974 30.0288C20.5928 30.0288 20.5871 30.0286 20.5825 30.0288ZM21.875 30.0288C21.8067 30.0317 21.7446 30.0563 21.6865 30.1032C21.6405 30.1397 21.6102 30.1899 21.5848 30.2446H22.0735C22.0743 30.2359 22.076 30.2253 22.076 30.2173C22.076 30.1721 22.0688 30.137 22.0537 30.1131C22.0467 30.1015 22.0374 30.09 22.0289 30.0809C21.9957 30.0467 21.9501 30.0288 21.8899 30.0288C21.8853 30.0288 21.8796 30.0286 21.875 30.0288ZM31.873 30.0288C31.8026 30.031 31.7369 30.0548 31.677 30.1032C31.6317 30.1397 31.6007 30.1899 31.5752 30.2446H32.0615C32.0623 30.2359 32.064 30.2253 32.064 30.2173C32.064 30.1721 32.0567 30.137 32.0417 30.1131C32.0075 30.0568 31.9549 30.0296 31.8779 30.0288C31.8756 30.0288 31.8752 30.0287 31.873 30.0288ZM25.3731 30.0338C25.3075 30.0415 25.2464 30.0715 25.1895 30.1231C25.1212 30.185 25.0717 30.2822 25.0431 30.4108C25.0312 30.4648 25.0258 30.511 25.0258 30.5523C25.0258 30.6086 25.0366 30.6529 25.058 30.6862C25.0637 30.6948 25.0713 30.7038 25.0779 30.711C25.1131 30.7485 25.1624 30.7681 25.2242 30.7681C25.3044 30.7681 25.3751 30.7382 25.4425 30.6763C25.5108 30.6136 25.5595 30.5153 25.5889 30.3836C25.6159 30.2629 25.6121 30.1728 25.574 30.1156C25.5375 30.0601 25.4841 30.0338 25.4103 30.0338C25.3978 30.0338 25.3852 30.0323 25.3731 30.0338ZM29.856 30.4679C29.7885 30.4862 29.7129 30.5015 29.6129 30.5151C29.5383 30.5262 29.4851 30.5379 29.4541 30.5498C29.4271 30.5609 29.4054 30.5763 29.3871 30.5969C29.3697 30.6168 29.3579 30.6376 29.3524 30.6614C29.3508 30.6709 29.3499 30.6808 29.3499 30.6887C29.3499 30.6894 29.3499 30.6906 29.3499 30.6912C29.35 30.6931 29.3497 30.6968 29.3499 30.6986C29.3504 30.7022 29.3514 30.7077 29.3524 30.711C29.3527 30.7121 29.3545 30.7149 29.3549 30.716C29.3557 30.7181 29.3563 30.7214 29.3574 30.7234C29.3585 30.7254 29.361 30.729 29.3623 30.7309C29.3644 30.7337 29.3672 30.7381 29.3698 30.7408C29.3896 30.763 29.4292 30.7731 29.4864 30.7731C29.5491 30.7731 29.6094 30.7611 29.665 30.7334C29.7198 30.7064 29.7639 30.6661 29.7965 30.6192C29.8203 30.5859 29.8393 30.5346 29.856 30.4679ZM14.7025 28.4788L21.3606 21.6043H22.4479L20.8403 28.4788H19.946L20.4024 26.4999H17.6112L15.7145 28.4788H14.7025ZM18.2895 25.7918H20.5724L20.9936 24.0662C21.1636 23.3816 21.3272 22.811 21.4845 22.3546C21.1702 22.7485 20.7544 23.2159 20.2371 23.7567L18.2895 25.7918Z" fill="#663366"/>
<g filter="url(#filter0_d_3_372)">
<path d="M61.2784 24.5V12.8636H63.034V22.9886H68.3068V24.5H61.2784ZM70.1732 24.5V15.7727H71.8721V24.5H70.1732ZM71.0312 14.4261C70.7357 14.4261 70.482 14.3276 70.2698 14.1307C70.0615 13.9299 69.9573 13.6913 69.9573 13.4148C69.9573 13.1345 70.0615 12.8958 70.2698 12.6989C70.482 12.4981 70.7357 12.3977 71.0312 12.3977C71.3267 12.3977 71.5785 12.4981 71.7869 12.6989C71.999 12.8958 72.1051 13.1345 72.1051 13.4148C72.1051 13.6913 71.999 13.9299 71.7869 14.1307C71.5785 14.3276 71.3267 14.4261 71.0312 14.4261ZM77.8338 24.6761C76.9891 24.6761 76.2618 24.4848 75.6519 24.1023C75.0459 23.7159 74.58 23.1837 74.2542 22.5057C73.9285 21.8276 73.7656 21.0511 73.7656 20.1761C73.7656 19.2898 73.9322 18.5076 74.2656 17.8295C74.5989 17.1477 75.0686 16.6155 75.6747 16.233C76.2807 15.8504 76.9947 15.6591 77.8167 15.6591C78.4796 15.6591 79.0705 15.7822 79.5894 16.0284C80.1084 16.2708 80.5269 16.6117 80.8451 17.0511C81.1671 17.4905 81.3584 18.0038 81.419 18.5909H79.7656C79.6747 18.1818 79.4663 17.8295 79.1406 17.5341C78.8186 17.2386 78.3868 17.0909 77.8451 17.0909C77.3716 17.0909 76.9569 17.2159 76.6008 17.4659C76.2485 17.7121 75.9739 18.0644 75.7769 18.5227C75.58 18.9773 75.4815 19.5151 75.4815 20.1364C75.4815 20.7727 75.5781 21.322 75.7713 21.7841C75.9644 22.2462 76.2372 22.6042 76.5894 22.858C76.9455 23.1117 77.3641 23.2386 77.8451 23.2386C78.1671 23.2386 78.4588 23.1799 78.7201 23.0625C78.9853 22.9413 79.2069 22.7689 79.3849 22.5455C79.5667 22.322 79.6936 22.053 79.7656 21.7386H81.419C81.3584 22.303 81.1747 22.8068 80.8678 23.25C80.561 23.6932 80.15 24.0417 79.6349 24.2955C79.1235 24.5492 78.5231 24.6761 77.8338 24.6761ZM86.9971 24.6761C86.1373 24.6761 85.3967 24.4924 84.7755 24.125C84.1581 23.7538 83.6808 23.233 83.3437 22.5625C83.0104 21.8883 82.8437 21.0985 82.8437 20.1932C82.8437 19.2992 83.0104 18.5114 83.3437 17.8295C83.6808 17.1477 84.1505 16.6155 84.7528 16.233C85.3588 15.8504 86.0672 15.6591 86.8778 15.6591C87.3702 15.6591 87.8475 15.7405 88.3096 15.9034C88.7717 16.0663 89.1865 16.322 89.5539 16.6705C89.9213 17.0189 90.2111 17.4716 90.4232 18.0284C90.6354 18.5814 90.7414 19.2538 90.7414 20.0455V20.6477H83.8039V19.375H89.0767C89.0767 18.928 88.9857 18.5322 88.8039 18.1875C88.6221 17.839 88.3664 17.5644 88.0369 17.3636C87.7111 17.1629 87.3285 17.0625 86.8892 17.0625C86.4119 17.0625 85.9952 17.1799 85.6392 17.4148C85.2869 17.6458 85.0142 17.9489 84.821 18.3239C84.6316 18.6951 84.5369 19.0985 84.5369 19.5341V20.5284C84.5369 21.1117 84.6392 21.608 84.8437 22.017C85.052 22.4261 85.3418 22.7386 85.713 22.9545C86.0842 23.1667 86.5179 23.2727 87.0142 23.2727C87.3361 23.2727 87.6297 23.2273 87.8948 23.1364C88.16 23.0417 88.3892 22.9015 88.5823 22.7159C88.7755 22.5303 88.9232 22.3011 89.0255 22.0284L90.6335 22.3182C90.5047 22.7917 90.2736 23.2064 89.9403 23.5625C89.6107 23.9148 89.196 24.1894 88.696 24.3864C88.1998 24.5795 87.6335 24.6761 86.9971 24.6761ZM94.3252 19.3182V24.5H92.6264V15.7727H94.257V17.1932H94.365C94.5658 16.7311 94.8802 16.3598 95.3082 16.0795C95.74 15.7992 96.2836 15.6591 96.9389 15.6591C97.5336 15.6591 98.0544 15.7841 98.5014 16.0341C98.9483 16.2803 99.2949 16.6477 99.5411 17.1364C99.7873 17.625 99.9105 18.2292 99.9105 18.9489V24.5H98.2116V19.1534C98.2116 18.5208 98.0468 18.0265 97.7173 17.6705C97.3877 17.3106 96.9351 17.1307 96.3593 17.1307C95.9654 17.1307 95.615 17.2159 95.3082 17.3864C95.0052 17.5568 94.7646 17.8068 94.5866 18.1364C94.4123 18.4621 94.3252 18.8561 94.3252 19.3182ZM108.729 17.9034L107.189 18.1761C107.124 17.9792 107.022 17.7917 106.882 17.6136C106.746 17.4356 106.56 17.2898 106.325 17.1761C106.09 17.0625 105.797 17.0057 105.445 17.0057C104.963 17.0057 104.562 17.1136 104.24 17.3295C103.918 17.5417 103.757 17.8163 103.757 18.1534C103.757 18.4451 103.865 18.6799 104.081 18.858C104.297 19.036 104.645 19.1818 105.126 19.2955L106.513 19.6136C107.316 19.7992 107.914 20.0852 108.308 20.4716C108.702 20.858 108.899 21.3598 108.899 21.9773C108.899 22.5 108.748 22.9659 108.445 23.375C108.145 23.7803 107.727 24.0985 107.189 24.3295C106.655 24.5606 106.035 24.6761 105.331 24.6761C104.354 24.6761 103.556 24.4678 102.939 24.0511C102.321 23.6307 101.943 23.0341 101.802 22.2614L103.445 22.0114C103.547 22.4394 103.757 22.7633 104.075 22.983C104.393 23.1989 104.808 23.3068 105.32 23.3068C105.876 23.3068 106.321 23.1913 106.655 22.9602C106.988 22.7254 107.155 22.4394 107.155 22.1023C107.155 21.8295 107.052 21.6004 106.848 21.4148C106.647 21.2292 106.338 21.089 105.922 20.9943L104.445 20.6705C103.63 20.4848 103.028 20.1894 102.638 19.7841C102.251 19.3788 102.058 18.8655 102.058 18.2443C102.058 17.7292 102.202 17.2784 102.49 16.892C102.778 16.5057 103.176 16.2045 103.683 15.9886C104.191 15.7689 104.772 15.6591 105.427 15.6591C106.371 15.6591 107.113 15.8636 107.655 16.2727C108.196 16.678 108.554 17.2216 108.729 17.9034ZM114.528 24.6761C113.668 24.6761 112.928 24.4924 112.307 24.125C111.689 23.7538 111.212 23.233 110.875 22.5625C110.542 21.8883 110.375 21.0985 110.375 20.1932C110.375 19.2992 110.542 18.5114 110.875 17.8295C111.212 17.1477 111.682 16.6155 112.284 16.233C112.89 15.8504 113.598 15.6591 114.409 15.6591C114.901 15.6591 115.379 15.7405 115.841 15.9034C116.303 16.0663 116.718 16.322 117.085 16.6705C117.453 17.0189 117.742 17.4716 117.954 18.0284C118.167 18.5814 118.273 19.2538 118.273 20.0455V20.6477H111.335V19.375H116.608C116.608 18.928 116.517 18.5322 116.335 18.1875C116.153 17.839 115.898 17.5644 115.568 17.3636C115.242 17.1629 114.86 17.0625 114.42 17.0625C113.943 17.0625 113.526 17.1799 113.17 17.4148C112.818 17.6458 112.545 17.9489 112.352 18.3239C112.163 18.6951 112.068 19.0985 112.068 19.5341V20.5284C112.068 21.1117 112.17 21.608 112.375 22.017C112.583 22.4261 112.873 22.7386 113.244 22.9545C113.615 23.1667 114.049 23.2727 114.545 23.2727C114.867 23.2727 115.161 23.2273 115.426 23.1364C115.691 23.0417 115.92 22.9015 116.114 22.7159C116.307 22.5303 116.454 22.3011 116.557 22.0284L118.165 22.3182C118.036 22.7917 117.805 23.2064 117.472 23.5625C117.142 23.9148 116.727 24.1894 116.227 24.3864C115.731 24.5795 115.165 24.6761 114.528 24.6761ZM123.425 24.6705C122.72 24.6705 122.091 24.4905 121.538 24.1307C120.989 23.767 120.557 23.25 120.243 22.5795C119.932 21.9053 119.777 21.0966 119.777 20.1534C119.777 19.2102 119.934 18.4034 120.249 17.733C120.567 17.0625 121.002 16.5492 121.555 16.1932C122.108 15.8371 122.735 15.6591 123.436 15.6591C123.978 15.6591 124.413 15.75 124.743 15.9318C125.076 16.1098 125.334 16.3182 125.516 16.5568C125.701 16.7955 125.845 17.0057 125.947 17.1875H126.05V12.8636H127.749V24.5H126.089V23.142H125.947C125.845 23.3276 125.697 23.5398 125.504 23.7784C125.315 24.017 125.053 24.2254 124.72 24.4034C124.387 24.5814 123.955 24.6705 123.425 24.6705ZM123.8 23.2216C124.288 23.2216 124.701 23.0928 125.038 22.8352C125.379 22.5739 125.637 22.2121 125.811 21.75C125.989 21.2879 126.078 20.75 126.078 20.1364C126.078 19.5303 125.991 19 125.817 18.5455C125.642 18.0909 125.387 17.7367 125.05 17.483C124.713 17.2292 124.296 17.1023 123.8 17.1023C123.288 17.1023 122.862 17.2348 122.521 17.5C122.18 17.7651 121.923 18.1269 121.749 18.5852C121.578 19.0436 121.493 19.5606 121.493 20.1364C121.493 20.7197 121.58 21.2443 121.754 21.7102C121.928 22.1761 122.186 22.5455 122.527 22.8182C122.872 23.0871 123.296 23.2216 123.8 23.2216ZM134.544 24.5V12.8636H136.243V17.1875H136.345C136.444 17.0057 136.586 16.7955 136.771 16.5568C136.957 16.3182 137.214 16.1098 137.544 15.9318C137.874 15.75 138.309 15.6591 138.851 15.6591C139.555 15.6591 140.184 15.8371 140.737 16.1932C141.29 16.5492 141.724 17.0625 142.038 17.733C142.356 18.4034 142.516 19.2102 142.516 20.1534C142.516 21.0966 142.358 21.9053 142.044 22.5795C141.73 23.25 141.298 23.767 140.749 24.1307C140.199 24.4905 139.572 24.6705 138.868 24.6705C138.338 24.6705 137.904 24.5814 137.567 24.4034C137.233 24.2254 136.972 24.017 136.783 23.7784C136.593 23.5398 136.447 23.3276 136.345 23.142H136.203V24.5H134.544ZM136.209 20.1364C136.209 20.75 136.298 21.2879 136.476 21.75C136.654 22.2121 136.911 22.5739 137.249 22.8352C137.586 23.0928 137.999 23.2216 138.487 23.2216C138.995 23.2216 139.419 23.0871 139.76 22.8182C140.101 22.5455 140.358 22.1761 140.533 21.7102C140.711 21.2443 140.8 20.7197 140.8 20.1364C140.8 19.5606 140.713 19.0436 140.538 18.5852C140.368 18.1269 140.11 17.7651 139.766 17.5C139.425 17.2348 138.999 17.1023 138.487 17.1023C137.995 17.1023 137.578 17.2292 137.237 17.483C136.9 17.7367 136.644 18.0909 136.47 18.5455C136.296 19 136.209 19.5303 136.209 20.1364ZM145.2 27.7727C144.946 27.7727 144.715 27.7519 144.507 27.7102C144.299 27.6723 144.143 27.6307 144.041 27.5852L144.45 26.1932C144.761 26.2765 145.037 26.3125 145.28 26.3011C145.522 26.2898 145.736 26.1989 145.922 26.0284C146.111 25.8579 146.278 25.5795 146.422 25.1932L146.632 24.6136L143.439 15.7727H145.257L147.467 22.5455H147.558L149.768 15.7727H151.592L147.996 25.6648C147.829 26.1193 147.617 26.5038 147.359 26.8182C147.102 27.1364 146.795 27.375 146.439 27.5341C146.083 27.6932 145.67 27.7727 145.2 27.7727Z" fill="#E8E8E8"/>
<path d="M63.61 43.5H60.3984L64.5699 31.1364H68.5482L72.7198 43.5H69.5081L66.6044 34.2514H66.5078L63.61 43.5ZM63.1814 38.6342H69.8945V40.9041H63.1814V38.6342ZM81.5835 35.1751C81.5151 34.9215 81.4145 34.6982 81.2816 34.505C81.1488 34.3078 80.9858 34.1407 80.7927 34.0039C80.5995 33.8671 80.3781 33.7644 80.1286 33.696C79.8791 33.6236 79.6054 33.5874 79.3076 33.5874C78.7079 33.5874 78.1887 33.7322 77.75 34.022C77.3154 34.3118 76.9793 34.7344 76.7419 35.2898C76.5044 35.8411 76.3857 36.5112 76.3857 37.3001C76.3857 38.0929 76.5004 38.7691 76.7298 39.3285C76.9592 39.8879 77.2912 40.3145 77.7259 40.6083C78.1605 40.9021 78.6878 41.049 79.3076 41.049C79.8549 41.049 80.3177 40.9605 80.6961 40.7834C81.0784 40.6023 81.3682 40.3467 81.5654 40.0167C81.7626 39.6867 81.8612 39.2983 81.8612 38.8516L82.4166 38.918H79.4102V36.7386H84.7408V38.3746C84.7408 39.4814 84.5054 40.4292 84.0345 41.218C83.5676 42.0069 82.9237 42.6126 82.1027 43.0352C81.2857 43.4577 80.3459 43.669 79.2834 43.669C78.1042 43.669 77.0679 43.4135 76.1744 42.9023C75.2809 42.3912 74.5847 41.6628 74.0856 40.717C73.5866 39.7672 73.337 38.6403 73.337 37.3363C73.337 36.3221 73.488 35.4226 73.7898 34.6378C74.0917 33.849 74.5122 33.1809 75.0515 32.6335C75.5949 32.0862 76.2227 31.6716 76.9351 31.3899C77.6514 31.1082 78.4221 30.9673 79.2472 30.9673C79.9636 30.9673 80.6297 31.07 81.2454 31.2752C81.8652 31.4805 82.4126 31.7702 82.8875 32.1445C83.3664 32.5188 83.7548 32.9635 84.0526 33.4787C84.3504 33.9938 84.5355 34.5593 84.608 35.1751H81.5835ZM86.5021 43.5V31.1364H91.6093C92.535 31.1364 93.3339 31.3175 94.006 31.6797C94.6821 32.0379 95.2033 32.5389 95.5695 33.1829C95.9358 33.8228 96.1189 34.5674 96.1189 35.4165C96.1189 36.2698 95.9318 37.0163 95.5575 37.6562C95.1872 38.2921 94.658 38.7852 93.9698 39.1353C93.2815 39.4854 92.4646 39.6605 91.5188 39.6605H88.3675V37.3061H90.9634C91.4141 37.3061 91.7904 37.2276 92.0923 37.0707C92.3981 36.9137 92.6296 36.6944 92.7865 36.4126C92.9435 36.1269 93.022 35.7949 93.022 35.4165C93.022 35.0342 92.9435 34.7042 92.7865 34.4265C92.6296 34.1448 92.3981 33.9274 92.0923 33.7745C91.7864 33.6216 91.4101 33.5451 90.9634 33.5451H89.4904V43.5H86.5021ZM97.5919 43.5V31.1364H100.58V41.0731H105.724V43.5H97.5919ZM119.918 34.2273L116.737 43.5H113.356L110.18 34.2273H113.289L114.998 40.6143H115.094L116.809 34.2273H119.918ZM125.729 43.669C124.787 43.669 123.952 43.508 123.223 43.1861C122.499 42.8601 121.927 42.4113 121.509 41.8398C121.09 41.2683 120.877 40.6103 120.869 39.8658H123.875C123.887 40.1354 123.974 40.3749 124.135 40.5842C124.296 40.7894 124.515 40.9504 124.793 41.0671C125.071 41.1838 125.386 41.2422 125.741 41.2422C126.095 41.2422 126.407 41.1798 126.676 41.055C126.95 40.9263 127.163 40.7512 127.316 40.5298C127.469 40.3044 127.544 40.0469 127.54 39.7571C127.544 39.4673 127.461 39.2098 127.292 38.9844C127.123 38.759 126.884 38.5839 126.574 38.4592C126.268 38.3344 125.906 38.272 125.487 38.272H124.286V36.147H125.487C125.853 36.147 126.175 36.0866 126.453 35.9659C126.735 35.8452 126.954 35.6761 127.111 35.4588C127.268 35.2375 127.344 34.9839 127.34 34.6982C127.344 34.4205 127.278 34.177 127.141 33.9677C127.008 33.7544 126.821 33.5894 126.58 33.4727C126.342 33.3559 126.067 33.2976 125.753 33.2976C125.423 33.2976 125.123 33.3559 124.853 33.4727C124.588 33.5894 124.376 33.7544 124.219 33.9677C124.062 34.181 123.98 34.4285 123.972 34.7102H121.116C121.124 33.9737 121.33 33.3258 121.732 32.7663C122.135 32.2029 122.682 31.7622 123.374 31.4442C124.07 31.1263 124.863 30.9673 125.753 30.9673C126.638 30.9673 127.417 31.1223 128.089 31.4322C128.761 31.7421 129.284 32.1647 129.659 32.6999C130.033 33.2312 130.22 33.8329 130.22 34.505C130.224 35.2012 129.997 35.7747 129.538 36.2255C129.083 36.6763 128.497 36.954 127.781 37.0586V37.1552C128.739 37.2679 129.461 37.5778 129.948 38.0849C130.439 38.592 130.683 39.2258 130.679 39.9865C130.679 40.7029 130.468 41.3388 130.045 41.8942C129.626 42.4455 129.043 42.8802 128.294 43.1981C127.55 43.5121 126.694 43.669 125.729 43.669Z" fill="#663366"/>
</g>
<defs>
<filter id="filter0_d_3_372" x="54.4" y="3.9" width="104.2" height="48.2" filterUnits="userSpaceOnUse" color-interpolation-filters="sRGB">
<feFlood flood-opacity="0" result="BackgroundImageFix"/>
<feColorMatrix in="SourceAlpha" type="matrix" values="0 0 0 0 0 0 0 0 0 0 0 0 0 0 0 0 0 0 127 0" result="hardAlpha"/>
<feOffset/>
<feGaussianBlur stdDeviation="2.8"/>
<feComposite in2="hardAlpha" operator="out"/>
<feColorMatrix type="matrix" values="0 0 0 0 0 0 0 0 0 0 0 0 0 0 0 0 0 0 0.25 0"/>
<feBlend mode="normal" in2="BackgroundImageFix" result="effect1_dropShadow_3_372"/>
<feBlend mode="normal" in="SourceGraphic" in2="effect1_dropShadow_3_372" result="shape"/>
</filter>
<linearGradient id="paint0_linear_3_372" x1="82.5" y1="0" x2="82.5" y2="56" gradientUnits="userSpaceOnUse">
<stop stop-color="#2A142A"/>
<stop offset="1" stop-color="#140A14"/>
</linearGradient>
</defs>
</svg>
