<svg width="165" height="53" viewBox="0 0 165 53" fill="none" xmlns="http://www.w3.org/2000/svg">
<rect width="165" height="53" rx="8" fill="url(#paint0_linear_3_372)"/>
<rect x="1.05" y="1.05" width="162.9" height="50.9" rx="6.95" stroke="white" stroke-opacity="0.15" stroke-width="2.1"/>
<path fill-rule="evenodd" clip-rule="evenodd" d="M35.1376 28.1572H35.1368C35.0622 28.1572 34.9963 28.1818 34.9344 28.2318C34.8883 28.2684 34.8566 28.3176 34.8312 28.3724H34.8343C34.8597 28.3176 34.8915 28.2684 34.9367 28.2318C34.9987 28.1818 35.0646 28.158 35.1376 28.1572Z" fill="#BD0000"/>
<path fill-rule="evenodd" clip-rule="evenodd" d="M35.14 28.1572C35.1392 28.1572 35.1384 28.1572 35.1376 28.1572C35.2146 28.158 35.2654 28.1842 35.2996 28.2406C35.3146 28.2644 35.3226 28.3001 35.3226 28.3454C35.3226 28.3533 35.321 28.3636 35.3202 28.3724H35.3234C35.3234 28.3636 35.325 28.3533 35.325 28.3454C35.325 28.3001 35.3178 28.2644 35.3027 28.2406C35.2686 28.1834 35.217 28.1572 35.14 28.1572Z" fill="#BD0000"/>
<path fill-rule="evenodd" clip-rule="evenodd" d="M12 34.7179H12.5922L12.8582 33.6065H13.8204L13.9442 33.1301H12.9781L13.1384 32.4157H14.1665L14.2903 31.8599H12.6668L12 34.7179Z" fill="#663366"/>
<path fill-rule="evenodd" clip-rule="evenodd" d="M14.6563 34.7179L14.8342 33.9716C14.9278 33.5676 15.1255 33.2095 15.4994 33.2095C15.5328 33.2095 15.5653 33.2262 15.5899 33.2302L15.7344 32.6578C15.7011 32.6578 15.6645 32.6538 15.6233 32.6538C15.3478 32.6538 15.1168 32.8475 14.9628 33.1254H14.9469C14.9699 32.9896 14.9898 32.861 15.0048 32.7332H14.4944C14.465 32.8983 14.4197 33.2214 14.3507 33.5128L14.0601 34.7179H14.6563Z" fill="#663366"/>
<path fill-rule="evenodd" clip-rule="evenodd" d="M17.2904 34.182C17.1261 34.2622 16.9387 34.2416 16.7204 34.2416C16.5481 34.2416 16.4148 34.2114 16.3417 34.1527C16.3036 34.0884 16.2878 33.9883 16.2909 33.924C17.0951 33.9455 17.6024 33.7597 17.6278 33.2516C17.6469 32.8682 17.3666 32.6538 16.9594 32.6538C16.2322 32.6538 15.7559 33.2953 15.7249 33.9129C15.6979 34.452 15.9774 34.7179 16.5537 34.7179C16.7752 34.7179 17.0689 34.6925 17.3095 34.6203L17.2904 34.182ZM17.0729 33.2516C17.0634 33.4406 16.83 33.4517 16.3703 33.4477C16.4203 33.2818 16.5886 33.1302 16.8641 33.1302C16.9999 33.1302 17.0777 33.1818 17.0729 33.2516Z" fill="#663366"/>
<path fill-rule="evenodd" clip-rule="evenodd" d="M19.395 34.182C19.2307 34.2622 19.0433 34.2416 18.8258 34.2416C18.6527 34.2416 18.5201 34.2114 18.4471 34.1527C18.409 34.0884 18.3923 33.9883 18.3955 33.924C19.2005 33.9455 19.707 33.7597 19.7332 33.2516C19.7522 32.8682 19.472 32.6538 19.0647 32.6538C18.3368 32.6538 17.8604 33.2953 17.8295 33.9129C17.8033 34.452 18.0827 34.7179 18.6583 34.7179C18.8806 34.7179 19.1743 34.6925 19.4148 34.6203L19.395 34.182ZM19.1783 33.2516C19.1687 33.4406 18.9353 33.4517 18.4749 33.4477C18.5257 33.2818 18.6932 33.1302 18.9687 33.1302C19.1044 33.1302 19.183 33.1818 19.1783 33.2516Z" fill="#663366"/>
<path fill-rule="evenodd" clip-rule="evenodd" d="M22.4593 34.7179C22.4641 34.4662 22.5244 34.0709 22.5872 33.8113L22.842 32.7332C22.68 32.6784 22.4276 32.6538 22.1847 32.6538C21.1987 32.6538 20.7096 33.3842 20.6755 34.0685C20.6541 34.498 20.8867 34.7179 21.2487 34.7179C21.4829 34.7179 21.7472 34.6044 21.9528 34.263H21.9616C21.9457 34.4273 21.9266 34.5869 21.9163 34.7179H22.4593ZM22.0521 33.5842C21.9362 34.0892 21.6996 34.2416 21.5234 34.2416C21.359 34.2416 21.2876 34.1249 21.2971 33.955C21.3162 33.5715 21.6194 33.1302 22.0021 33.1302C22.064 33.1302 22.1124 33.119 22.1577 33.1079L22.0521 33.5842Z" fill="#663366"/>
<path fill-rule="evenodd" clip-rule="evenodd" d="M22.8475 34.6242C22.9619 34.7131 23.2016 34.7139 23.4517 34.7179C23.986 34.7219 24.3893 34.4885 24.4131 34.0598C24.4266 33.774 24.2051 33.6049 23.9884 33.4914C23.832 33.4159 23.7534 33.3437 23.7573 33.2595C23.7629 33.146 23.8693 33.1301 24.0257 33.1301C24.2019 33.1301 24.3432 33.1516 24.4242 33.1674L24.5846 32.7372C24.4933 32.6824 24.3107 32.6538 24.0765 32.6538C23.5581 32.6538 23.1786 32.9277 23.1572 33.3437C23.1445 33.6009 23.3294 33.774 23.5533 33.8915C23.7343 33.9843 23.7962 34.0558 23.7915 34.1566C23.7859 34.2582 23.6954 34.2416 23.5311 34.2416C23.3382 34.2416 23.1246 34.2162 23.0119 34.1987L22.8475 34.6242Z" fill="#663366"/>
<path fill-rule="evenodd" clip-rule="evenodd" d="M26.0151 34.7179L26.4954 32.7332H25.9072L25.4237 34.7179H26.0151ZM26.2906 32.495C26.4923 32.495 26.6717 32.3283 26.6828 32.0425C26.6923 31.8488 26.5669 31.7805 26.3819 31.7805C26.189 31.7805 26.0127 31.906 26.0024 32.0933C25.9929 32.2823 26.1183 32.495 26.2906 32.495Z" fill="#663366"/>
<path fill-rule="evenodd" clip-rule="evenodd" d="M27.1504 34.7179L27.36 33.824C27.4687 33.3691 27.7029 33.2095 27.8958 33.2095C28.0482 33.2095 28.0927 33.2746 28.0856 33.3691C28.0816 33.4453 28.0697 33.5255 28.0538 33.5969L27.7871 34.7179H28.3793L28.6603 33.5422C28.6818 33.4405 28.7056 33.2889 28.7103 33.1968C28.7278 32.8388 28.5492 32.7086 28.2205 32.7086C27.9569 32.7086 27.7005 32.8308 27.4981 33.096H27.4901L27.5441 32.7332H27.0218C26.9876 32.9031 26.944 33.1087 26.882 33.3485L26.5581 34.7179H27.1504Z" fill="#663366"/>
<path fill-rule="evenodd" clip-rule="evenodd" d="M29.6987 34.7179H30.2909L30.5577 33.6065H31.5191L31.6429 33.1301H30.6768L30.8371 32.4157H31.8652L31.9891 31.8599H30.3656L29.6987 34.7179Z" fill="#663366"/>
<path fill-rule="evenodd" clip-rule="evenodd" d="M32.355 34.7179L32.5329 33.9716C32.6265 33.5676 32.8242 33.2095 33.1981 33.2095C33.2315 33.2095 33.264 33.2262 33.2886 33.2302L33.4331 32.6578C33.3998 32.6578 33.3633 32.6538 33.322 32.6538C33.0465 32.6538 32.8155 32.8475 32.6615 33.1254H32.6456C32.6686 32.9896 32.6885 32.861 32.7035 32.7332H32.1931C32.1645 32.8983 32.1185 33.2214 32.0494 33.5128L31.7588 34.7179H32.355Z" fill="#663366"/>
<path fill-rule="evenodd" clip-rule="evenodd" d="M34.9891 34.182C34.8248 34.2622 34.6374 34.2416 34.4191 34.2416C34.2468 34.2416 34.1135 34.2114 34.0404 34.1527C34.0023 34.0884 33.9864 33.9883 33.9896 33.924C34.7938 33.9455 35.3011 33.7597 35.3265 33.2516C35.3456 32.8682 35.0653 32.6538 34.6581 32.6538C33.9309 32.6538 33.4545 33.2953 33.4236 33.9129C33.3966 34.452 33.6768 34.7179 34.2524 34.7179C34.4739 34.7179 34.7684 34.6925 35.0082 34.6203L34.9891 34.182ZM34.7716 33.2516C34.7621 33.4406 34.5287 33.4517 34.069 33.4477C34.119 33.2818 34.2873 33.1302 34.5628 33.1302C34.6986 33.1302 34.7764 33.1818 34.7716 33.2516Z" fill="#663366"/>
<path fill-rule="evenodd" clip-rule="evenodd" d="M37.0937 34.182C36.9294 34.2622 36.742 34.2416 36.5245 34.2416C36.3514 34.2416 36.2189 34.2114 36.1458 34.1527C36.1077 34.0884 36.091 33.9883 36.0942 33.924C36.8992 33.9455 37.4057 33.7597 37.4319 33.2516C37.451 32.8682 37.1707 32.6538 36.7635 32.6538C36.0355 32.6538 35.5591 33.2953 35.5282 33.9129C35.502 34.452 35.7814 34.7179 36.357 34.7179C36.5793 34.7179 36.873 34.6925 37.1136 34.6203L37.0937 34.182ZM36.877 33.2516C36.8675 33.4406 36.6341 33.4517 36.1736 33.4477C36.2244 33.2818 36.3919 33.1302 36.6674 33.1302C36.8032 33.1302 36.8817 33.1818 36.877 33.2516Z" fill="#663366"/>
<path fill-rule="evenodd" clip-rule="evenodd" d="M39.4467 31.7805L39.2236 32.6824C39.1427 32.649 39.0371 32.6538 38.9545 32.6538C38.194 32.6538 37.6557 33.3048 37.62 34.0097C37.5962 34.5067 37.8613 34.7179 38.2027 34.7179C38.4417 34.7179 38.6933 34.6123 38.8839 34.3392H38.8918L38.8465 34.7179H39.3848C39.4094 34.4797 39.461 34.1963 39.519 33.9375L40.0342 31.7805H39.4467ZM38.9831 33.7192C38.8902 34.1106 38.6711 34.2416 38.498 34.2416C38.3258 34.2416 38.2297 34.1217 38.2416 33.9081C38.2615 33.5128 38.533 33.1301 38.8862 33.1301C38.9855 33.1301 39.0704 33.1452 39.1173 33.1674L38.9831 33.7192Z" fill="#663366"/>
<path fill-rule="evenodd" clip-rule="evenodd" d="M40.7971 34.7179C41.4878 34.7179 42.0205 34.1947 42.0578 33.4826C42.0808 33.0111 41.7871 32.6538 41.2449 32.6538C40.5288 32.6538 40.0152 33.2334 39.9794 33.9336C39.9548 34.4432 40.2835 34.7179 40.7971 34.7179ZM40.89 34.2416C40.6884 34.2416 40.5772 34.113 40.5891 33.9209C40.605 33.6009 40.8027 33.1302 41.1433 33.1302C41.3782 33.1302 41.4505 33.3104 41.441 33.4874C41.4235 33.8367 41.2107 34.2416 40.89 34.2416Z" fill="#663366"/>
<path fill-rule="evenodd" clip-rule="evenodd" d="M42.7937 34.7179L43.0081 33.8113C43.0978 33.4072 43.3217 33.1301 43.5225 33.1301C43.667 33.1301 43.7067 33.2357 43.6996 33.3739C43.6956 33.4453 43.6797 33.5255 43.663 33.6049L43.3979 34.7179H43.9695L44.1838 33.8073C44.2823 33.3905 44.4934 33.1301 44.6903 33.1301C44.8261 33.1301 44.8824 33.227 44.8761 33.3651C44.8721 33.4453 44.8554 33.5334 44.8348 33.6136L44.5776 34.7179H45.1532L45.4302 33.5422C45.4516 33.4366 45.4763 33.2722 45.4802 33.1881C45.4977 32.8388 45.327 32.6538 45.019 32.6538C44.7554 32.6538 44.499 32.7729 44.3045 33.0238C44.2974 32.8428 44.1679 32.6538 43.8472 32.6538C43.5876 32.6538 43.3399 32.7713 43.1415 33.0373H43.1335L43.1867 32.7332H42.677C42.6437 32.9031 42.6032 33.1087 42.5413 33.3485L42.2222 34.7179H42.7937Z" fill="#663366"/>
<path d="M37.164 29.3913C37.1963 29.4742 37.2285 29.5569 37.2621 29.6378C37.3138 29.7477 37.3735 29.8529 37.4453 29.9511C37.8334 30.4787 38.4833 30.7675 39.3085 30.8394H40.1961C40.4767 30.8175 40.7708 30.7767 41.0756 30.7171C41.6013 30.6143 42.1586 30.4564 42.7373 30.2453C43.1757 30.0855 43.6262 29.8964 44.0834 29.6766C45.0791 29.1992 46.1077 28.5837 47.1168 27.8408C47.4492 27.5963 47.7681 27.3455 48.0742 27.0904C48.3549 26.8569 48.6241 26.6197 48.8813 26.38C49.599 25.6883 50.1408 24.9858 50.4476 24.369C50.7672 23.7267 50.831 23.1775 50.5691 22.8315C50.4087 22.6192 50.1401 22.5053 49.7944 22.4786C51.352 21.3098 52.2597 19.892 51.9341 18.9981C51.8307 18.7128 51.6031 18.5 51.2768 18.3823C51.1318 18.3301 50.9686 18.2971 50.7907 18.2821H50.3113C49.642 18.3303 48.6685 18.57 47.8427 18.9747" stroke="#663266" stroke-width="0.5"/>
<path fill-rule="evenodd" clip-rule="evenodd" d="M15.4673 18.5926L12.7061 30.6397C12.7069 30.6397 19.9697 30.6397 19.9713 30.6397C23.1654 30.6397 32.7452 30.6397 32.7452 30.6397H39.389C38.5975 30.5706 37.9726 30.2928 37.6003 29.7863C37.5313 29.6926 37.4742 29.5917 37.4242 29.4861C37.3924 29.4083 37.3626 29.3298 37.3324 29.2504C37.253 28.998 37.2213 28.7178 37.2356 28.4193C37.2753 27.5873 37.6657 26.5977 38.3421 25.5614C39.0606 24.46 40.1018 23.3057 41.3911 22.2345C41.6801 21.9946 41.9789 21.7577 42.2916 21.5275C42.6783 21.243 43.0679 20.9811 43.4576 20.7361C44.8938 19.8319 46.3263 19.1993 47.5957 18.8779C46.3827 19.2736 45.0199 19.9455 43.6735 20.8601C43.6251 20.8928 43.5772 20.9263 43.5296 20.9594C42.7826 21.477 42.1058 22.0267 41.5151 22.5818C39.6146 24.3689 38.61 26.2206 39.0665 27.3054C39.0991 27.38 39.1379 27.4513 39.1831 27.5188C39.6737 28.2404 40.8896 28.3651 42.4306 27.9777C42.5354 27.9515 42.6402 27.9219 42.7481 27.8909C43.2403 27.7488 43.7629 27.5569 44.3011 27.3203C44.4305 27.2631 44.5613 27.2044 44.6931 27.1417C44.7066 27.1353 44.7193 27.129 44.7328 27.1218C46.4317 26.2777 47.7374 25.3064 48.02 24.7228C48.0819 24.5959 48.0968 24.4877 48.0547 24.4028C47.853 23.9939 46.442 24.2702 44.7328 25.0106C44.5955 25.0702 44.4565 25.1314 44.316 25.1967C44.4303 25.0905 44.5493 24.984 44.6708 24.8791C44.8645 24.7122 45.0651 24.5491 45.2786 24.3879C45.6128 24.1348 45.9507 23.906 46.2834 23.7032C47.8409 22.5281 48.6284 21.4165 48.464 21.004C48.4331 20.9263 48.3672 20.8728 48.2656 20.8403C47.9409 20.737 47.3482 20.8603 46.6282 21.1553C46.0344 21.3989 45.3523 21.7601 44.6609 22.2097L44.5666 22.2717L44.5492 22.2817L44.2168 22.5025L44.4078 22.1527C44.6912 21.6338 45.1529 21.0925 45.7276 20.5897C46.1492 20.222 46.6308 19.8757 47.1492 19.5725C47.3453 19.4577 47.5411 19.3511 47.7371 19.255C47.938 19.1569 48.1389 19.0697 48.335 18.992C48.9047 18.7667 49.5306 18.4822 50.0048 18.445C49.9616 18.445 48.5906 18.5926 48.5906 18.5926H44.1002H24.3004H15.4673ZM36.9751 18.61C36.8973 19.7974 37.1276 21.5366 37.6499 23.4675C37.7428 23.8111 37.8439 24.1608 37.9551 24.5144C38.0241 24.7328 38.0954 24.9478 38.1684 25.1595C38.1256 25.2225 38.0824 25.2851 38.0419 25.348C37.3901 26.3469 37.0092 27.2908 36.9131 28.1117C36.6376 27.1892 36.4302 26.1788 36.3127 25.1074C36.2794 24.8004 36.2533 24.4968 36.2358 24.1969C36.1072 22.0182 36.3916 20.0433 36.9751 18.61ZM23.9679 20.1555C23.9828 20.1552 23.9975 20.1555 24.0126 20.1555H26.9475C27.1983 20.1555 27.3923 20.2026 27.5305 20.297C27.6678 20.3919 27.7193 20.5147 27.6868 20.6641L27.337 22.2444H26.3024L26.6423 20.7063H24.0523L23.117 24.9337L22.7796 26.4644H25.3671L25.3696 26.4545L25.8881 24.1125H24.6725L24.7891 23.5841H27.0393L26.3942 26.5066C26.3855 26.5482 26.3702 26.5859 26.3496 26.6232C26.2964 26.72 26.2036 26.803 26.0742 26.8713C25.8948 26.9657 25.68 27.0127 25.4292 27.0127H22.4968C22.2459 27.0127 22.0519 26.9657 21.9138 26.8713C21.7764 26.7768 21.7241 26.6561 21.7575 26.5066L23.05 20.6641C23.0834 20.5147 23.1874 20.3919 23.3676 20.297C23.3739 20.2935 23.3811 20.2928 23.3874 20.2895C23.5519 20.2071 23.7449 20.1608 23.9679 20.1555ZM28.5675 20.1555H32.2615C32.5092 20.1555 32.7039 20.2026 32.842 20.297C32.9809 20.3919 33.0341 20.5147 33.0008 20.6641L32.3111 23.7801C32.2786 23.9286 32.1721 24.0497 31.9911 24.1448C31.8101 24.2402 31.597 24.2887 31.3485 24.2887H28.6642L28.1457 26.6281L28.0614 27.0127H27.0492L27.1261 26.6653L28.5675 20.1555ZM33.6706 20.1555H34.6828L33.5367 25.3331L33.2861 26.4644H35.7074C35.7328 26.6501 35.7625 26.8325 35.7942 27.0127H32.1523L32.4401 25.7127L33.6706 20.1555ZM29.4581 20.7063L28.7858 23.7379H31.3088L31.9787 20.7063H29.4581ZM24.0781 27.8615C24.088 27.8611 24.0979 27.8615 24.1078 27.8615C24.2253 27.8615 24.3279 27.8821 24.4105 27.921C24.4986 27.9623 24.5616 28.0236 24.5966 28.1046C24.6307 28.1832 24.6396 28.2724 24.6214 28.37L24.6139 28.4072H24.3237L24.3261 28.3725C24.3336 28.3043 24.3252 28.2506 24.2989 28.2137C24.2954 28.2091 24.2904 28.203 24.2864 28.1988C24.2799 28.1922 24.2701 28.1845 24.2617 28.179C24.221 28.1534 24.1575 28.1393 24.0756 28.1393C23.9668 28.1393 23.8855 28.1583 23.83 28.1964C23.776 28.2337 23.7418 28.2754 23.7307 28.3254C23.7196 28.3762 23.7379 28.4029 23.7506 28.4172C23.751 28.4176 23.7526 28.4192 23.7531 28.4196C23.7692 28.4333 23.825 28.4655 23.9987 28.5065C24.1559 28.5446 24.26 28.5788 24.3187 28.6082C24.4076 28.6534 24.4697 28.7121 24.5023 28.7843C24.5348 28.8558 24.542 28.9394 24.5221 29.0299C24.5023 29.1181 24.4573 29.1993 24.3906 29.2755C24.3248 29.3517 24.2409 29.4121 24.1401 29.4542C24.0401 29.4955 23.9303 29.5187 23.8176 29.5187C23.6747 29.5187 23.5599 29.497 23.4702 29.4542C23.3766 29.4097 23.309 29.3395 23.2693 29.2482C23.2312 29.1593 23.2231 29.0584 23.2445 28.9481L23.2519 28.9133H23.5372L23.5348 28.9481C23.5276 29.014 23.5347 29.0671 23.5521 29.1068C23.5688 29.145 23.6005 29.1765 23.6513 29.2011C23.7053 29.2273 23.7728 29.2408 23.8498 29.2408C23.9189 29.2408 23.982 29.2292 24.0384 29.2086C24.0939 29.1887 24.1381 29.1625 24.1699 29.1292C24.2008 29.0958 24.219 29.0606 24.2269 29.0225C24.2349 28.9884 24.233 28.9595 24.2195 28.9357C24.2044 28.9103 24.1745 28.8877 24.1277 28.8687L23.8845 28.7967C23.7488 28.7626 23.6574 28.73 23.6042 28.6975C23.532 28.6546 23.4799 28.5996 23.4529 28.5338C23.4259 28.4687 23.423 28.3965 23.4405 28.3179C23.4587 28.2338 23.4993 28.1537 23.562 28.0822C23.6256 28.01 23.7075 27.9533 23.8052 27.916C23.8915 27.8837 23.9824 27.8647 24.0781 27.8615ZM26.683 27.8664C26.6987 27.8652 26.7134 27.8664 26.7301 27.8664L26.9087 27.8862L26.9683 27.8912L26.8814 28.112L26.8641 28.1467L26.7276 28.1343C26.6873 28.1343 26.6577 28.1406 26.6383 28.1542C26.637 28.1552 26.6345 28.1581 26.6334 28.1591C26.6307 28.1614 26.6264 28.1654 26.6234 28.1691C26.6115 28.1847 26.5969 28.2127 26.5862 28.2633C26.5862 28.2633 26.5811 28.2848 26.5763 28.303C26.639 28.303 26.7896 28.303 26.7896 28.303L26.7351 28.5487C26.7351 28.5487 26.5791 28.5487 26.5267 28.5487C26.5108 28.6201 26.3158 29.4939 26.3158 29.4939H26.028C26.028 29.4939 26.2151 28.6542 26.2389 28.5487C26.1905 28.5487 26.0727 28.5487 26.0727 28.5487L26.1273 28.303C26.1273 28.303 26.2457 28.303 26.291 28.303C26.2989 28.2689 26.3108 28.2261 26.3108 28.2261C26.3283 28.1467 26.3466 28.0897 26.3704 28.05C26.4029 27.9952 26.4489 27.9494 26.5068 27.916C26.5546 27.8883 26.6149 27.8717 26.683 27.8664ZM27.3702 27.8788C27.3702 27.8788 27.2949 28.2173 27.2759 28.303C27.3315 28.303 27.462 28.303 27.462 28.303L27.4074 28.5487C27.4074 28.5487 27.2705 28.5487 27.2213 28.5487C27.2062 28.6169 27.0874 29.1465 27.0874 29.1465C27.0874 29.1465 27.0774 29.2102 27.0774 29.2284C27.0774 29.229 27.0774 29.2304 27.0774 29.2309V29.2334H27.0799L27.1097 29.2358L27.2461 29.2259L27.2312 29.4467L27.2337 29.4864L27.0377 29.5087C26.9599 29.5087 26.9029 29.496 26.8616 29.469C26.8179 29.4405 26.7925 29.4026 26.7822 29.3549C26.7806 29.3462 26.7772 29.3335 26.7772 29.3152C26.7772 29.2795 26.784 29.2191 26.807 29.1143C26.807 29.1143 26.9113 28.6471 26.9335 28.5487C26.8962 28.5487 26.7971 28.5487 26.7971 28.5487L26.8517 28.303C26.8517 28.303 26.9484 28.303 26.9881 28.303C27.0008 28.2459 27.0452 28.05 27.0452 28.05L27.2759 27.9284L27.3702 27.8788ZM18.2282 27.8887H19.3446L19.2825 28.1666C19.2825 28.1666 18.5378 28.1666 18.4663 28.1666C18.4536 28.223 18.4027 28.4512 18.3845 28.5338C18.4877 28.5338 19.0915 28.5338 19.0915 28.5338L19.0295 28.8116C19.0295 28.8116 18.3939 28.8116 18.3224 28.8116C18.3074 28.8807 18.1711 29.4939 18.1711 29.4939H17.8709L18.2282 27.8887ZM19.7241 28.2807C19.7353 28.2793 19.7476 28.2807 19.7589 28.2807C19.8303 28.2807 19.8963 28.3025 19.9598 28.3477L19.9995 28.375L19.8457 28.628L19.8035 28.5983C19.7726 28.5784 19.7392 28.5685 19.7043 28.5685C19.6741 28.5685 19.646 28.5792 19.6175 28.5983C19.5873 28.6181 19.5621 28.6444 19.543 28.6801C19.5097 28.7413 19.4853 28.8097 19.4686 28.8836L19.3346 29.4939H19.0469L19.3123 28.303H19.5802C19.5802 28.303 19.571 28.3392 19.5678 28.3526C19.5805 28.3431 19.5939 28.33 19.6051 28.3229C19.6435 28.2999 19.6841 28.2856 19.7241 28.2807ZM20.5776 28.2807C20.5949 28.2794 20.6119 28.2807 20.6297 28.2807C20.7916 28.2807 20.9142 28.3375 20.9943 28.4494C21.0444 28.5216 21.0712 28.611 21.0712 28.7173C21.0712 28.7761 21.064 28.8393 21.0489 28.9084L21.0266 28.9952C21.0266 28.9952 20.2988 28.9952 20.2178 28.9952C20.2162 29.0119 20.2153 29.0297 20.2153 29.0448C20.2153 29.1067 20.228 29.1555 20.255 29.1912C20.2679 29.2087 20.2827 29.2244 20.2997 29.2358C20.3317 29.2567 20.3729 29.2681 20.4213 29.2681C20.48 29.2681 20.5316 29.2519 20.58 29.221C20.6261 29.1916 20.6701 29.1446 20.709 29.0795H21.0167L20.9894 29.1391C20.9306 29.2582 20.8487 29.3511 20.7463 29.417C20.6438 29.4828 20.5215 29.5187 20.3865 29.5187C20.2111 29.5187 20.0805 29.4619 19.9995 29.35C19.9193 29.2404 19.9021 29.089 19.9449 28.8984C19.9878 28.7047 20.0733 28.5499 20.198 28.442C20.3097 28.3451 20.4365 28.2914 20.5776 28.2807ZM21.8701 28.2807C21.8874 28.2794 21.9045 28.2807 21.9222 28.2807C22.0841 28.2807 22.2067 28.3375 22.2869 28.4494C22.3369 28.5216 22.3638 28.611 22.3638 28.7173C22.3638 28.7753 22.3565 28.8376 22.3414 28.9059L22.3191 28.9952C22.3191 28.9952 21.5913 28.9952 21.5104 28.9952C21.5096 29.0063 21.5087 29.0163 21.5079 29.0274C21.5073 29.0316 21.5081 29.0379 21.5079 29.0423C21.5079 29.0431 21.5079 29.0441 21.5079 29.0448C21.5079 29.0567 21.5096 29.0684 21.5104 29.0795C21.5143 29.1248 21.5261 29.1626 21.5476 29.1912C21.5517 29.1968 21.5555 29.2036 21.56 29.2086C21.5963 29.2475 21.6478 29.2681 21.7138 29.2681C21.7725 29.2681 21.8249 29.2519 21.8726 29.221C21.9186 29.1916 21.9627 29.1446 22.0016 29.0795H22.3117L22.2819 29.1391C22.2232 29.2582 22.1412 29.3511 22.0388 29.417C21.9364 29.4828 21.814 29.5187 21.6791 29.5187C21.5036 29.5187 21.373 29.4619 21.292 29.35C21.2396 29.2785 21.2151 29.1875 21.2151 29.0795C21.2151 29.0629 21.216 29.0449 21.2176 29.0274C21.2208 28.9862 21.2271 28.9445 21.2375 28.8984C21.2803 28.7055 21.3634 28.5499 21.488 28.442C21.5997 28.3451 21.729 28.2914 21.8701 28.2807ZM25.3904 28.2807C25.4082 28.2794 25.4245 28.2807 25.4425 28.2807C25.6077 28.2807 25.7346 28.3366 25.8171 28.4469C25.8989 28.5573 25.9188 28.7061 25.8767 28.8935C25.8441 29.0396 25.7971 29.1576 25.7328 29.2433C25.6685 29.329 25.5865 29.3991 25.4897 29.4467C25.3936 29.4943 25.2919 29.5187 25.1895 29.5187C25.0212 29.5187 24.8959 29.4611 24.8149 29.35C24.7625 29.2793 24.7355 29.1883 24.7355 29.0795C24.7355 29.0208 24.7419 28.9584 24.7578 28.8885C24.8054 28.6758 24.9027 28.5137 25.0456 28.4097C25.1505 28.334 25.2663 28.2903 25.3904 28.2807ZM29.7493 28.2807C29.7703 28.2794 29.7896 28.2807 29.8114 28.2807C29.9114 28.2807 29.99 28.2908 30.0495 28.3155C30.113 28.3409 30.1581 28.3768 30.1835 28.4196C30.2081 28.4601 30.2207 28.5099 30.2207 28.571L30.1909 28.7521L30.1363 28.9977C30.0895 29.2073 30.0792 29.2859 30.0768 29.3152C30.0744 29.3549 30.0781 29.3936 30.0892 29.4294L30.109 29.4939H29.8163L29.8039 29.4566C29.7991 29.4392 29.8005 29.417 29.7989 29.3971C29.7434 29.4312 29.6877 29.4615 29.6377 29.479C29.5639 29.5044 29.4872 29.5187 29.4094 29.5187C29.2745 29.5187 29.1746 29.4835 29.1142 29.4145C29.0682 29.3637 29.0472 29.3015 29.0472 29.2309C29.0472 29.2039 29.0508 29.1759 29.0572 29.1465C29.0707 29.0862 29.0952 29.0303 29.1341 28.9803C29.1722 28.9311 29.2172 28.8906 29.268 28.8612C29.3173 28.8319 29.3721 28.811 29.4293 28.7967L29.6054 28.767C29.7412 28.7511 29.8425 28.7313 29.9155 28.7099C29.9171 28.702 29.9205 28.6925 29.9205 28.6925C29.932 28.6415 29.9306 28.6031 29.918 28.5834C29.9171 28.5821 29.9141 28.5795 29.9131 28.5784C29.9104 28.5756 29.9063 28.5711 29.9031 28.5685C29.8733 28.5449 29.8224 28.5338 29.7543 28.5338C29.6773 28.5338 29.6203 28.5464 29.5806 28.571C29.5417 28.5956 29.5057 28.6406 29.4739 28.7049H29.1738L29.201 28.6454C29.2368 28.5628 29.2794 28.4944 29.3325 28.442C29.3857 28.3896 29.4576 28.349 29.5409 28.3204C29.6048 28.2993 29.6746 28.2853 29.7493 28.2807ZM31.0071 28.2807C31.0183 28.2793 31.0306 28.2807 31.0419 28.2807C31.1141 28.2807 31.1818 28.3025 31.2453 28.3477L31.2825 28.375L31.1287 28.628L31.0865 28.5983C31.0556 28.5784 31.0239 28.5685 30.9898 28.5685C30.9596 28.5685 30.9298 28.5792 30.9005 28.5983C30.8703 28.6181 30.8484 28.6444 30.8285 28.6801C30.796 28.7413 30.7708 28.8097 30.7541 28.8836L30.6176 29.4939H30.3298L30.5953 28.303H30.8632C30.8632 28.303 30.8565 28.3392 30.8533 28.3526C30.866 28.3431 30.8786 28.33 30.8905 28.3229C30.9284 28.2999 30.9671 28.2856 31.0071 28.2807ZM31.8581 28.2807C31.8754 28.2794 31.8925 28.2807 31.9102 28.2807C32.0721 28.2807 32.1955 28.3375 32.2749 28.4494C32.3257 28.5216 32.3518 28.611 32.3518 28.7173C32.3518 28.7761 32.342 28.8393 32.3269 28.9084L32.3071 28.9952C32.3071 28.9952 31.5785 28.9952 31.4983 28.9952C31.4968 29.0119 31.4934 29.0297 31.4934 29.0448C31.4934 29.1067 31.5069 29.1555 31.5331 29.1912C31.5372 29.1968 31.5435 29.2036 31.548 29.2086C31.5506 29.2113 31.5551 29.2159 31.5579 29.2185C31.5934 29.2507 31.6417 29.2681 31.7018 29.2681C31.7605 29.2681 31.8121 29.2519 31.8605 29.221C31.9066 29.1916 31.9499 29.1446 31.9896 29.0795H32.2997L32.2699 29.1391C32.2111 29.2582 32.1284 29.3511 32.0268 29.417C31.9236 29.4828 31.8028 29.5187 31.667 29.5187C31.4916 29.5187 31.3635 29.4619 31.2825 29.35C31.2023 29.2404 31.1834 29.089 31.2254 28.8984C31.2683 28.7047 31.3514 28.5499 31.476 28.442C31.5884 28.3451 31.7171 28.2914 31.8581 28.2807ZM27.5141 28.303H27.8093C27.8093 28.303 27.8457 29.0097 27.8465 29.02C27.8584 28.9947 27.8677 28.9734 27.8688 28.9704L28.1938 28.303H28.4642C28.4642 28.303 28.4891 29.0011 28.4891 29.0051C28.497 28.9908 28.8587 28.303 28.8587 28.303H29.1514L28.5064 29.4939H28.241C28.241 29.4939 28.2153 28.8481 28.2137 28.8116C28.1041 29.0363 27.8812 29.4939 27.8812 29.4939H27.6083L27.5141 28.303ZM20.5825 28.5288C20.5141 28.5317 20.452 28.5563 20.394 28.6032C20.3479 28.6397 20.3169 28.6899 20.2923 28.7446H20.781C20.7818 28.7359 20.7835 28.7253 20.7835 28.7173C20.7835 28.6721 20.7754 28.637 20.7611 28.6131C20.7262 28.556 20.6744 28.5288 20.5974 28.5288C20.5928 28.5288 20.5871 28.5286 20.5825 28.5288ZM21.875 28.5288C21.8067 28.5317 21.7446 28.5563 21.6865 28.6032C21.6405 28.6397 21.6102 28.6899 21.5848 28.7446H22.0735C22.0743 28.7359 22.076 28.7253 22.076 28.7173C22.076 28.6721 22.0688 28.637 22.0537 28.6131C22.0467 28.6015 22.0374 28.59 22.0289 28.5809C21.9957 28.5467 21.9501 28.5288 21.8899 28.5288C21.8853 28.5288 21.8796 28.5286 21.875 28.5288ZM31.873 28.5288C31.8026 28.531 31.7369 28.5548 31.677 28.6032C31.6317 28.6397 31.6007 28.6899 31.5752 28.7446H32.0615C32.0623 28.7359 32.064 28.7253 32.064 28.7173C32.064 28.6721 32.0567 28.637 32.0417 28.6131C32.0075 28.5568 31.9549 28.5296 31.8779 28.5288C31.8756 28.5288 31.8752 28.5287 31.873 28.5288ZM25.3731 28.5338C25.3075 28.5415 25.2464 28.5715 25.1895 28.6231C25.1212 28.685 25.0717 28.7822 25.0431 28.9108C25.0312 28.9648 25.0258 29.011 25.0258 29.0523C25.0258 29.1086 25.0366 29.1529 25.058 29.1862C25.0637 29.1948 25.0713 29.2038 25.0779 29.211C25.1131 29.2485 25.1624 29.2681 25.2242 29.2681C25.3044 29.2681 25.3751 29.2382 25.4425 29.1763C25.5108 29.1136 25.5595 29.0153 25.5889 28.8836C25.6159 28.7629 25.6121 28.6728 25.574 28.6156C25.5375 28.5601 25.4841 28.5338 25.4103 28.5338C25.3978 28.5338 25.3852 28.5323 25.3731 28.5338ZM29.856 28.9679C29.7885 28.9862 29.7129 29.0015 29.6129 29.0151C29.5383 29.0262 29.4851 29.0379 29.4541 29.0498C29.4271 29.0609 29.4054 29.0763 29.3871 29.0969C29.3697 29.1168 29.3579 29.1376 29.3524 29.1614C29.3508 29.1709 29.3499 29.1808 29.3499 29.1887C29.3499 29.1894 29.3499 29.1906 29.3499 29.1912C29.35 29.1931 29.3497 29.1968 29.3499 29.1986C29.3504 29.2022 29.3514 29.2077 29.3524 29.211C29.3527 29.2121 29.3545 29.2149 29.3549 29.216C29.3557 29.2181 29.3563 29.2214 29.3574 29.2234C29.3585 29.2254 29.361 29.229 29.3623 29.2309C29.3644 29.2337 29.3672 29.2381 29.3698 29.2408C29.3896 29.263 29.4292 29.2731 29.4864 29.2731C29.5491 29.2731 29.6094 29.2611 29.665 29.2334C29.7198 29.2064 29.7639 29.1661 29.7965 29.1192C29.8203 29.0859 29.8393 29.0346 29.856 28.9679ZM14.7025 26.9788L21.3606 20.1043H22.4479L20.8403 26.9788H19.946L20.4024 24.9999H17.6112L15.7145 26.9788H14.7025ZM18.2895 24.2918H20.5724L20.9936 22.5662C21.1636 21.8816 21.3272 21.311 21.4845 20.8546C21.1702 21.2485 20.7544 21.7159 20.2371 22.2567L18.2895 24.2918Z" fill="#663366"/>
<g filter="url(#filter0_d_3_372)">
<path d="M61.2784 23V11.3636H63.034V21.4886H68.3068V23H61.2784ZM70.1732 23V14.2727H71.8721V23H70.1732ZM71.0312 12.9261C70.7357 12.9261 70.482 12.8276 70.2698 12.6307C70.0615 12.4299 69.9573 12.1913 69.9573 11.9148C69.9573 11.6345 70.0615 11.3958 70.2698 11.1989C70.482 10.9981 70.7357 10.8977 71.0312 10.8977C71.3267 10.8977 71.5785 10.9981 71.7869 11.1989C71.999 11.3958 72.1051 11.6345 72.1051 11.9148C72.1051 12.1913 71.999 12.4299 71.7869 12.6307C71.5785 12.8276 71.3267 12.9261 71.0312 12.9261ZM77.8338 23.1761C76.9891 23.1761 76.2618 22.9848 75.6519 22.6023C75.0459 22.2159 74.58 21.6837 74.2542 21.0057C73.9285 20.3276 73.7656 19.5511 73.7656 18.6761C73.7656 17.7898 73.9322 17.0076 74.2656 16.3295C74.5989 15.6477 75.0686 15.1155 75.6747 14.733C76.2807 14.3504 76.9947 14.1591 77.8167 14.1591C78.4796 14.1591 79.0705 14.2822 79.5894 14.5284C80.1084 14.7708 80.5269 15.1117 80.8451 15.5511C81.1671 15.9905 81.3584 16.5038 81.419 17.0909H79.7656C79.6747 16.6818 79.4663 16.3295 79.1406 16.0341C78.8186 15.7386 78.3868 15.5909 77.8451 15.5909C77.3716 15.5909 76.9569 15.7159 76.6008 15.9659C76.2485 16.2121 75.9739 16.5644 75.7769 17.0227C75.58 17.4773 75.4815 18.0151 75.4815 18.6364C75.4815 19.2727 75.5781 19.822 75.7713 20.2841C75.9644 20.7462 76.2372 21.1042 76.5894 21.358C76.9455 21.6117 77.3641 21.7386 77.8451 21.7386C78.1671 21.7386 78.4588 21.6799 78.7201 21.5625C78.9853 21.4413 79.2069 21.2689 79.3849 21.0455C79.5667 20.822 79.6936 20.553 79.7656 20.2386H81.419C81.3584 20.803 81.1747 21.3068 80.8678 21.75C80.561 22.1932 80.15 22.5417 79.6349 22.7955C79.1235 23.0492 78.5231 23.1761 77.8338 23.1761ZM86.9971 23.1761C86.1373 23.1761 85.3967 22.9924 84.7755 22.625C84.1581 22.2538 83.6808 21.733 83.3437 21.0625C83.0104 20.3883 82.8437 19.5985 82.8437 18.6932C82.8437 17.7992 83.0104 17.0114 83.3437 16.3295C83.6808 15.6477 84.1505 15.1155 84.7528 14.733C85.3588 14.3504 86.0672 14.1591 86.8778 14.1591C87.3702 14.1591 87.8475 14.2405 88.3096 14.4034C88.7717 14.5663 89.1865 14.822 89.5539 15.1705C89.9213 15.5189 90.2111 15.9716 90.4232 16.5284C90.6354 17.0814 90.7414 17.7538 90.7414 18.5455V19.1477H83.8039V17.875H89.0767C89.0767 17.428 88.9857 17.0322 88.8039 16.6875C88.6221 16.339 88.3664 16.0644 88.0369 15.8636C87.7111 15.6629 87.3285 15.5625 86.8892 15.5625C86.4119 15.5625 85.9952 15.6799 85.6392 15.9148C85.2869 16.1458 85.0142 16.4489 84.821 16.8239C84.6316 17.1951 84.5369 17.5985 84.5369 18.0341V19.0284C84.5369 19.6117 84.6392 20.108 84.8437 20.517C85.052 20.9261 85.3418 21.2386 85.713 21.4545C86.0842 21.6667 86.5179 21.7727 87.0142 21.7727C87.3361 21.7727 87.6297 21.7273 87.8948 21.6364C88.16 21.5417 88.3892 21.4015 88.5823 21.2159C88.7755 21.0303 88.9232 20.8011 89.0255 20.5284L90.6335 20.8182C90.5047 21.2917 90.2736 21.7064 89.9403 22.0625C89.6107 22.4148 89.196 22.6894 88.696 22.8864C88.1998 23.0795 87.6335 23.1761 86.9971 23.1761ZM94.3252 17.8182V23H92.6264V14.2727H94.257V15.6932H94.365C94.5658 15.2311 94.8802 14.8598 95.3082 14.5795C95.74 14.2992 96.2836 14.1591 96.9389 14.1591C97.5336 14.1591 98.0544 14.2841 98.5014 14.5341C98.9483 14.7803 99.2949 15.1477 99.5411 15.6364C99.7873 16.125 99.9105 16.7292 99.9105 17.4489V23H98.2116V17.6534C98.2116 17.0208 98.0468 16.5265 97.7173 16.1705C97.3877 15.8106 96.9351 15.6307 96.3593 15.6307C95.9654 15.6307 95.615 15.7159 95.3082 15.8864C95.0052 16.0568 94.7646 16.3068 94.5866 16.6364C94.4123 16.9621 94.3252 17.3561 94.3252 17.8182ZM108.729 16.4034L107.189 16.6761C107.124 16.4792 107.022 16.2917 106.882 16.1136C106.746 15.9356 106.56 15.7898 106.325 15.6761C106.09 15.5625 105.797 15.5057 105.445 15.5057C104.963 15.5057 104.562 15.6136 104.24 15.8295C103.918 16.0417 103.757 16.3163 103.757 16.6534C103.757 16.9451 103.865 17.1799 104.081 17.358C104.297 17.536 104.645 17.6818 105.126 17.7955L106.513 18.1136C107.316 18.2992 107.914 18.5852 108.308 18.9716C108.702 19.358 108.899 19.8598 108.899 20.4773C108.899 21 108.748 21.4659 108.445 21.875C108.145 22.2803 107.727 22.5985 107.189 22.8295C106.655 23.0606 106.035 23.1761 105.331 23.1761C104.354 23.1761 103.556 22.9678 102.939 22.5511C102.321 22.1307 101.943 21.5341 101.802 20.7614L103.445 20.5114C103.547 20.9394 103.757 21.2633 104.075 21.483C104.393 21.6989 104.808 21.8068 105.32 21.8068C105.876 21.8068 106.321 21.6913 106.655 21.4602C106.988 21.2254 107.155 20.9394 107.155 20.6023C107.155 20.3295 107.052 20.1004 106.848 19.9148C106.647 19.7292 106.338 19.589 105.922 19.4943L104.445 19.1705C103.63 18.9848 103.028 18.6894 102.638 18.2841C102.251 17.8788 102.058 17.3655 102.058 16.7443C102.058 16.2292 102.202 15.7784 102.49 15.392C102.778 15.0057 103.176 14.7045 103.683 14.4886C104.191 14.2689 104.772 14.1591 105.427 14.1591C106.371 14.1591 107.113 14.3636 107.655 14.7727C108.196 15.178 108.554 15.7216 108.729 16.4034ZM114.528 23.1761C113.668 23.1761 112.928 22.9924 112.307 22.625C111.689 22.2538 111.212 21.733 110.875 21.0625C110.542 20.3883 110.375 19.5985 110.375 18.6932C110.375 17.7992 110.542 17.0114 110.875 16.3295C111.212 15.6477 111.682 15.1155 112.284 14.733C112.89 14.3504 113.598 14.1591 114.409 14.1591C114.901 14.1591 115.379 14.2405 115.841 14.4034C116.303 14.5663 116.718 14.822 117.085 15.1705C117.453 15.5189 117.742 15.9716 117.954 16.5284C118.167 17.0814 118.273 17.7538 118.273 18.5455V19.1477H111.335V17.875H116.608C116.608 17.428 116.517 17.0322 116.335 16.6875C116.153 16.339 115.898 16.0644 115.568 15.8636C115.242 15.6629 114.86 15.5625 114.42 15.5625C113.943 15.5625 113.526 15.6799 113.17 15.9148C112.818 16.1458 112.545 16.4489 112.352 16.8239C112.163 17.1951 112.068 17.5985 112.068 18.0341V19.0284C112.068 19.6117 112.17 20.108 112.375 20.517C112.583 20.9261 112.873 21.2386 113.244 21.4545C113.615 21.6667 114.049 21.7727 114.545 21.7727C114.867 21.7727 115.161 21.7273 115.426 21.6364C115.691 21.5417 115.92 21.4015 116.114 21.2159C116.307 21.0303 116.454 20.8011 116.557 20.5284L118.165 20.8182C118.036 21.2917 117.805 21.7064 117.472 22.0625C117.142 22.4148 116.727 22.6894 116.227 22.8864C115.731 23.0795 115.165 23.1761 114.528 23.1761ZM123.425 23.1705C122.72 23.1705 122.091 22.9905 121.538 22.6307C120.989 22.267 120.557 21.75 120.243 21.0795C119.932 20.4053 119.777 19.5966 119.777 18.6534C119.777 17.7102 119.934 16.9034 120.249 16.233C120.567 15.5625 121.002 15.0492 121.555 14.6932C122.108 14.3371 122.735 14.1591 123.436 14.1591C123.978 14.1591 124.413 14.25 124.743 14.4318C125.076 14.6098 125.334 14.8182 125.516 15.0568C125.701 15.2955 125.845 15.5057 125.947 15.6875H126.05V11.3636H127.749V23H126.089V21.642H125.947C125.845 21.8276 125.697 22.0398 125.504 22.2784C125.315 22.517 125.053 22.7254 124.72 22.9034C124.387 23.0814 123.955 23.1705 123.425 23.1705ZM123.8 21.7216C124.288 21.7216 124.701 21.5928 125.038 21.3352C125.379 21.0739 125.637 20.7121 125.811 20.25C125.989 19.7879 126.078 19.25 126.078 18.6364C126.078 18.0303 125.991 17.5 125.817 17.0455C125.642 16.5909 125.387 16.2367 125.05 15.983C124.713 15.7292 124.296 15.6023 123.8 15.6023C123.288 15.6023 122.862 15.7348 122.521 16C122.18 16.2651 121.923 16.6269 121.749 17.0852C121.578 17.5436 121.493 18.0606 121.493 18.6364C121.493 19.2197 121.58 19.7443 121.754 20.2102C121.928 20.6761 122.186 21.0455 122.527 21.3182C122.872 21.5871 123.296 21.7216 123.8 21.7216ZM134.544 23V11.3636H136.243V15.6875H136.345C136.444 15.5057 136.586 15.2955 136.771 15.0568C136.957 14.8182 137.214 14.6098 137.544 14.4318C137.874 14.25 138.309 14.1591 138.851 14.1591C139.555 14.1591 140.184 14.3371 140.737 14.6932C141.29 15.0492 141.724 15.5625 142.038 16.233C142.356 16.9034 142.516 17.7102 142.516 18.6534C142.516 19.5966 142.358 20.4053 142.044 21.0795C141.73 21.75 141.298 22.267 140.749 22.6307C140.199 22.9905 139.572 23.1705 138.868 23.1705C138.338 23.1705 137.904 23.0814 137.567 22.9034C137.233 22.7254 136.972 22.517 136.783 22.2784C136.593 22.0398 136.447 21.8276 136.345 21.642H136.203V23H134.544ZM136.209 18.6364C136.209 19.25 136.298 19.7879 136.476 20.25C136.654 20.7121 136.911 21.0739 137.249 21.3352C137.586 21.5928 137.999 21.7216 138.487 21.7216C138.995 21.7216 139.419 21.5871 139.76 21.3182C140.101 21.0455 140.358 20.6761 140.533 20.2102C140.711 19.7443 140.8 19.2197 140.8 18.6364C140.8 18.0606 140.713 17.5436 140.538 17.0852C140.368 16.6269 140.11 16.2651 139.766 16C139.425 15.7348 138.999 15.6023 138.487 15.6023C137.995 15.6023 137.578 15.7292 137.237 15.983C136.9 16.2367 136.644 16.5909 136.47 17.0455C136.296 17.5 136.209 18.0303 136.209 18.6364ZM145.2 26.2727C144.946 26.2727 144.715 26.2519 144.507 26.2102C144.299 26.1723 144.143 26.1307 144.041 26.0852L144.45 24.6932C144.761 24.7765 145.037 24.8125 145.28 24.8011C145.522 24.7898 145.736 24.6989 145.922 24.5284C146.111 24.3579 146.278 24.0795 146.422 23.6932L146.632 23.1136L143.439 14.2727H145.257L147.467 21.0455H147.558L149.768 14.2727H151.592L147.996 24.1648C147.829 24.6193 147.617 25.0038 147.359 25.3182C147.102 25.6364 146.795 25.875 146.439 26.0341C146.083 26.1932 145.67 26.2727 145.2 26.2727Z" fill="#E8E8E8"/>
<path d="M63.61 42H60.3984L64.5699 29.6364H68.5482L72.7198 42H69.5081L66.6044 32.7514H66.5078L63.61 42ZM63.1814 37.1342H69.8945V39.4041H63.1814V37.1342ZM81.5835 33.6751C81.5151 33.4215 81.4145 33.1982 81.2816 33.005C81.1488 32.8078 80.9858 32.6407 80.7927 32.5039C80.5995 32.3671 80.3781 32.2644 80.1286 32.196C79.8791 32.1236 79.6054 32.0874 79.3076 32.0874C78.7079 32.0874 78.1887 32.2322 77.75 32.522C77.3154 32.8118 76.9793 33.2344 76.7419 33.7898C76.5044 34.3411 76.3857 35.0112 76.3857 35.8001C76.3857 36.5929 76.5004 37.2691 76.7298 37.8285C76.9592 38.3879 77.2912 38.8145 77.7259 39.1083C78.1605 39.4021 78.6878 39.549 79.3076 39.549C79.8549 39.549 80.3177 39.4605 80.6961 39.2834C81.0784 39.1023 81.3682 38.8467 81.5654 38.5167C81.7626 38.1867 81.8612 37.7983 81.8612 37.3516L82.4166 37.418H79.4102V35.2386H84.7408V36.8746C84.7408 37.9814 84.5054 38.9292 84.0345 39.718C83.5676 40.5069 82.9237 41.1126 82.1027 41.5352C81.2857 41.9577 80.3459 42.169 79.2834 42.169C78.1042 42.169 77.0679 41.9135 76.1744 41.4023C75.2809 40.8912 74.5847 40.1628 74.0856 39.217C73.5866 38.2672 73.337 37.1403 73.337 35.8363C73.337 34.8221 73.488 33.9226 73.7898 33.1378C74.0917 32.349 74.5122 31.6809 75.0515 31.1335C75.5949 30.5862 76.2227 30.1716 76.9351 29.8899C77.6514 29.6082 78.4221 29.4673 79.2472 29.4673C79.9636 29.4673 80.6297 29.57 81.2454 29.7752C81.8652 29.9805 82.4126 30.2702 82.8875 30.6445C83.3664 31.0188 83.7548 31.4635 84.0526 31.9787C84.3504 32.4938 84.5355 33.0593 84.608 33.6751H81.5835ZM86.5021 42V29.6364H91.6093C92.535 29.6364 93.3339 29.8175 94.006 30.1797C94.6821 30.5379 95.2033 31.0389 95.5695 31.6829C95.9358 32.3228 96.1189 33.0674 96.1189 33.9165C96.1189 34.7698 95.9318 35.5163 95.5575 36.1562C95.1872 36.7921 94.658 37.2852 93.9698 37.6353C93.2815 37.9854 92.4646 38.1605 91.5188 38.1605H88.3675V35.8061H90.9634C91.4141 35.8061 91.7904 35.7276 92.0923 35.5707C92.3981 35.4137 92.6296 35.1944 92.7865 34.9126C92.9435 34.6269 93.022 34.2949 93.022 33.9165C93.022 33.5342 92.9435 33.2042 92.7865 32.9265C92.6296 32.6448 92.3981 32.4274 92.0923 32.2745C91.7864 32.1216 91.4101 32.0451 90.9634 32.0451H89.4904V42H86.5021ZM97.5919 42V29.6364H100.58V39.5731H105.724V42H97.5919ZM119.918 32.7273L116.737 42H113.356L110.18 32.7273H113.289L114.998 39.1143H115.094L116.809 32.7273H119.918ZM125.729 42.169C124.787 42.169 123.952 42.008 123.223 41.6861C122.499 41.3601 121.927 40.9113 121.509 40.3398C121.09 39.7683 120.877 39.1103 120.869 38.3658H123.875C123.887 38.6354 123.974 38.8749 124.135 39.0842C124.296 39.2894 124.515 39.4504 124.793 39.5671C125.071 39.6838 125.386 39.7422 125.741 39.7422C126.095 39.7422 126.407 39.6798 126.676 39.555C126.95 39.4263 127.163 39.2512 127.316 39.0298C127.469 38.8044 127.544 38.5469 127.54 38.2571C127.544 37.9673 127.461 37.7098 127.292 37.4844C127.123 37.259 126.884 37.0839 126.574 36.9592C126.268 36.8344 125.906 36.772 125.487 36.772H124.286V34.647H125.487C125.853 34.647 126.175 34.5866 126.453 34.4659C126.735 34.3452 126.954 34.1761 127.111 33.9588C127.268 33.7375 127.344 33.4839 127.34 33.1982C127.344 32.9205 127.278 32.677 127.141 32.4677C127.008 32.2544 126.821 32.0894 126.58 31.9727C126.342 31.8559 126.067 31.7976 125.753 31.7976C125.423 31.7976 125.123 31.8559 124.853 31.9727C124.588 32.0894 124.376 32.2544 124.219 32.4677C124.062 32.681 123.98 32.9285 123.972 33.2102H121.116C121.124 32.4737 121.33 31.8258 121.732 31.2663C122.135 30.7029 122.682 30.2622 123.374 29.9442C124.07 29.6263 124.863 29.4673 125.753 29.4673C126.638 29.4673 127.417 29.6223 128.089 29.9322C128.761 30.2421 129.284 30.6647 129.659 31.1999C130.033 31.7312 130.22 32.3329 130.22 33.005C130.224 33.7012 129.997 34.2747 129.538 34.7255C129.083 35.1763 128.497 35.454 127.781 35.5586V35.6552C128.739 35.7679 129.461 36.0778 129.948 36.5849C130.439 37.092 130.683 37.7258 130.679 38.4865C130.679 39.2029 130.468 39.8388 130.045 40.3942C129.626 40.9455 129.043 41.3802 128.294 41.6981C127.55 42.0121 126.694 42.169 125.729 42.169Z" fill="#663366"/>
</g>
<defs>
<filter id="filter0_d_3_372" x="54.4" y="2.4" width="104.2" height="48.2" filterUnits="userSpaceOnUse" color-interpolation-filters="sRGB">
<feFlood flood-opacity="0" result="BackgroundImageFix"/>
<feColorMatrix in="SourceAlpha" type="matrix" values="0 0 0 0 0 0 0 0 0 0 0 0 0 0 0 0 0 0 127 0" result="hardAlpha"/>
<feOffset/>
<feGaussianBlur stdDeviation="2.8"/>
<feComposite in2="hardAlpha" operator="out"/>
<feColorMatrix type="matrix" values="0 0 0 0 0 0 0 0 0 0 0 0 0 0 0 0 0 0 0.25 0"/>
<feBlend mode="normal" in2="BackgroundImageFix" result="effect1_dropShadow_3_372"/>
<feBlend mode="normal" in="SourceGraphic" in2="effect1_dropShadow_3_372" result="shape"/>
</filter>
<linearGradient id="paint0_linear_3_372" x1="82.5" y1="0" x2="82.5" y2="53" gradientUnits="userSpaceOnUse">
<stop stop-color="#2A142A"/>
<stop offset="1" stop-color="#140A14"/>
</linearGradient>
</defs>
</svg>
