<svg width="228" height="56" viewBox="0 0 228 56" fill="none" xmlns="http://www.w3.org/2000/svg">
<rect width="228" height="55.9961" rx="8" fill="url(#paint0_linear_4_412)"/>
<rect x="1.05" y="1.05" width="225.9" height="53.8961" rx="6.95" stroke="white" stroke-opacity="0.15" stroke-width="2.1"/>
<path d="M31.9996 8C20.9725 8 12 16.968 12 27.998C12 39.0236 20.9725 47.9961 31.9996 47.9961C43.0281 47.9961 52 39.0236 52 27.998C52 16.968 43.0281 8 31.9996 8ZM31.9996 43.5406C23.4282 43.5406 16.4556 36.5683 16.4556 27.9981C16.4556 19.4242 23.4282 12.452 31.9996 12.452C40.572 12.452 47.5446 19.4243 47.5446 27.9981C47.5445 36.5683 40.5719 43.5406 31.9996 43.5406Z" fill="black"/>
<path d="M38.5641 31.6208C37.2865 33.8132 34.9108 35.1732 32.3643 35.1732C28.4097 35.1732 25.1885 31.9528 25.1885 27.9981C25.1885 24.0402 28.4097 20.8187 32.3643 20.8187C34.9109 20.8187 37.2865 22.1837 38.5641 24.3718L38.7292 24.6578H43.5493L43.2599 23.8817C42.4212 21.6597 40.9495 19.7705 39.0014 18.422C37.0483 17.07 34.7542 16.3528 32.3643 16.3528C25.944 16.3528 20.7228 21.5784 20.7228 27.9981C20.7228 34.4183 25.944 39.639 32.3643 39.639C34.7542 39.639 37.0482 38.9242 39.0014 37.5702C40.9495 36.2214 42.4212 34.3328 43.2599 32.1107L43.5493 31.3343H38.7292L38.5641 31.6208Z" fill="black"/>
<g filter="url(#filter0_d_4_412)">
<path d="M61.2784 24.498V12.8617H63.0341V22.9867H68.3068V24.498H61.2784ZM70.1733 24.498V15.7708H71.8722V24.498H70.1733ZM71.0312 14.4242C70.7358 14.4242 70.482 14.3257 70.2699 14.1287C70.0616 13.928 69.9574 13.6893 69.9574 13.4128C69.9574 13.1325 70.0616 12.8939 70.2699 12.6969C70.482 12.4962 70.7358 12.3958 71.0312 12.3958C71.3267 12.3958 71.5786 12.4962 71.7869 12.6969C71.999 12.8939 72.1051 13.1325 72.1051 13.4128C72.1051 13.6893 71.999 13.928 71.7869 14.1287C71.5786 14.3257 71.3267 14.4242 71.0312 14.4242ZM77.8338 24.6742C76.9891 24.6742 76.2618 24.4829 75.652 24.1003C75.0459 23.714 74.58 23.1818 74.2543 22.5037C73.9285 21.8257 73.7656 21.0492 73.7656 20.1742C73.7656 19.2878 73.9323 18.5056 74.2656 17.8276C74.599 17.1458 75.0687 16.6136 75.6747 16.231C76.2808 15.8484 76.9948 15.6571 77.8168 15.6571C78.4796 15.6571 79.0705 15.7802 79.5895 16.0265C80.1084 16.2689 80.527 16.6098 80.8452 17.0492C81.1671 17.4886 81.3584 18.0018 81.419 18.589H79.7656C79.6747 18.1799 79.4664 17.8276 79.1406 17.5321C78.8186 17.2367 78.3868 17.089 77.8452 17.089C77.3717 17.089 76.9569 17.214 76.6008 17.464C76.2486 17.7102 75.974 18.0624 75.777 18.5208C75.58 18.9753 75.4815 19.5132 75.4815 20.1344C75.4815 20.7708 75.5781 21.32 75.7713 21.7821C75.9645 22.2443 76.2372 22.6022 76.5895 22.856C76.9455 23.1098 77.3641 23.2367 77.8452 23.2367C78.1671 23.2367 78.4588 23.178 78.7202 23.0605C78.9853 22.9393 79.2069 22.767 79.3849 22.5435C79.5668 22.32 79.6936 22.0511 79.7656 21.7367H81.419C81.3584 22.3011 81.1747 22.8049 80.8679 23.248C80.5611 23.6912 80.1501 24.0397 79.6349 24.2935C79.1236 24.5473 78.5232 24.6742 77.8338 24.6742ZM86.9972 24.6742C86.1373 24.6742 85.3968 24.4905 84.7756 24.123C84.1581 23.7518 83.6809 23.231 83.3437 22.5605C83.0104 21.8863 82.8437 21.0965 82.8437 20.1912C82.8437 19.2973 83.0104 18.5094 83.3437 17.8276C83.6809 17.1458 84.1506 16.6136 84.7528 16.231C85.3589 15.8484 86.0672 15.6571 86.8778 15.6571C87.3703 15.6571 87.8475 15.7386 88.3097 15.9015C88.7718 16.0643 89.1865 16.32 89.554 16.6685C89.9214 17.017 90.2112 17.4696 90.4233 18.0265C90.6354 18.5795 90.7415 19.2518 90.7415 20.0435V20.6458H83.804V19.373H89.0767C89.0767 18.9261 88.9858 18.5302 88.804 18.1855C88.6222 17.8371 88.3665 17.5624 88.0369 17.3617C87.7112 17.1609 87.3286 17.0605 86.8892 17.0605C86.4119 17.0605 85.9953 17.178 85.6392 17.4128C85.2869 17.6439 85.0142 17.9469 84.821 18.3219C84.6316 18.6931 84.5369 19.0965 84.5369 19.5321V20.5265C84.5369 21.1098 84.6392 21.606 84.8437 22.0151C85.0521 22.4242 85.3418 22.7367 85.7131 22.9526C86.0843 23.1647 86.518 23.2708 87.0142 23.2708C87.3362 23.2708 87.6297 23.2253 87.8949 23.1344C88.16 23.0397 88.3892 22.8996 88.5824 22.714C88.7756 22.5283 88.9233 22.2992 89.0256 22.0265L90.6335 22.3162C90.5047 22.7897 90.2737 23.2045 89.9403 23.5605C89.6108 23.9128 89.196 24.1874 88.696 24.3844C88.1998 24.5776 87.6335 24.6742 86.9972 24.6742ZM94.3253 19.3162V24.498H92.6264V15.7708H94.2571V17.1912H94.365C94.5658 16.7291 94.8802 16.3579 95.3082 16.0776C95.74 15.7973 96.2836 15.6571 96.9389 15.6571C97.5336 15.6571 98.0544 15.7821 98.5014 16.0321C98.9484 16.2783 99.295 16.6458 99.5412 17.1344C99.7874 17.623 99.9105 18.2272 99.9105 18.9469V24.498H98.2116V19.1515C98.2116 18.5189 98.0469 18.0246 97.7173 17.6685C97.3878 17.3086 96.9351 17.1287 96.3594 17.1287C95.9654 17.1287 95.615 17.214 95.3082 17.3844C95.0052 17.5549 94.7647 17.8049 94.5866 18.1344C94.4124 18.4602 94.3253 18.8541 94.3253 19.3162ZM108.729 17.9015L107.189 18.1742C107.125 17.9772 107.022 17.7897 106.882 17.6117C106.746 17.4336 106.56 17.2878 106.325 17.1742C106.09 17.0605 105.797 17.0037 105.445 17.0037C104.964 17.0037 104.562 17.1117 104.24 17.3276C103.918 17.5397 103.757 17.8143 103.757 18.1515C103.757 18.4431 103.865 18.678 104.081 18.856C104.297 19.034 104.645 19.1799 105.126 19.2935L106.513 19.6117C107.316 19.7973 107.914 20.0833 108.308 20.4696C108.702 20.856 108.899 21.3579 108.899 21.9753C108.899 22.498 108.748 22.964 108.445 23.373C108.145 23.7783 107.727 24.0965 107.189 24.3276C106.655 24.5586 106.035 24.6742 105.331 24.6742C104.354 24.6742 103.556 24.4658 102.939 24.0492C102.321 23.6287 101.943 23.0321 101.803 22.2594L103.445 22.0094C103.547 22.4374 103.757 22.7613 104.075 22.981C104.393 23.1969 104.808 23.3049 105.32 23.3049C105.876 23.3049 106.321 23.1893 106.655 22.9583C106.988 22.7234 107.155 22.4374 107.155 22.1003C107.155 21.8276 107.053 21.5984 106.848 21.4128C106.647 21.2272 106.339 21.0871 105.922 20.9924L104.445 20.6685C103.63 20.4829 103.028 20.1874 102.638 19.7821C102.251 19.3768 102.058 18.8636 102.058 18.2424C102.058 17.7272 102.202 17.2765 102.49 16.8901C102.778 16.5037 103.176 16.2026 103.683 15.9867C104.191 15.767 104.772 15.6571 105.428 15.6571C106.371 15.6571 107.113 15.8617 107.655 16.2708C108.196 16.6761 108.554 17.2196 108.729 17.9015ZM114.528 24.6742C113.669 24.6742 112.928 24.4905 112.307 24.123C111.689 23.7518 111.212 23.231 110.875 22.5605C110.542 21.8863 110.375 21.0965 110.375 20.1912C110.375 19.2973 110.542 18.5094 110.875 17.8276C111.212 17.1458 111.682 16.6136 112.284 16.231C112.89 15.8484 113.598 15.6571 114.409 15.6571C114.901 15.6571 115.379 15.7386 115.841 15.9015C116.303 16.0643 116.718 16.32 117.085 16.6685C117.453 17.017 117.742 17.4696 117.955 18.0265C118.167 18.5795 118.273 19.2518 118.273 20.0435V20.6458H111.335V19.373H116.608C116.608 18.9261 116.517 18.5302 116.335 18.1855C116.153 17.8371 115.898 17.5624 115.568 17.3617C115.242 17.1609 114.86 17.0605 114.42 17.0605C113.943 17.0605 113.526 17.178 113.17 17.4128C112.818 17.6439 112.545 17.9469 112.352 18.3219C112.163 18.6931 112.068 19.0965 112.068 19.5321V20.5265C112.068 21.1098 112.17 21.606 112.375 22.0151C112.583 22.4242 112.873 22.7367 113.244 22.9526C113.616 23.1647 114.049 23.2708 114.545 23.2708C114.867 23.2708 115.161 23.2253 115.426 23.1344C115.691 23.0397 115.92 22.8996 116.114 22.714C116.307 22.5283 116.455 22.2992 116.557 22.0265L118.165 22.3162C118.036 22.7897 117.805 23.2045 117.472 23.5605C117.142 23.9128 116.727 24.1874 116.227 24.3844C115.731 24.5776 115.165 24.6742 114.528 24.6742ZM123.425 24.6685C122.72 24.6685 122.091 24.4886 121.538 24.1287C120.989 23.7651 120.557 23.248 120.243 22.5776C119.932 21.9033 119.777 21.0946 119.777 20.1515C119.777 19.2083 119.934 18.4015 120.249 17.731C120.567 17.0605 121.002 16.5473 121.555 16.1912C122.108 15.8352 122.735 15.6571 123.436 15.6571C123.978 15.6571 124.413 15.748 124.743 15.9299C125.076 16.1079 125.334 16.3162 125.516 16.5549C125.701 16.7935 125.845 17.0037 125.947 17.1855H126.05V12.8617H127.749V24.498H126.089V23.1401H125.947C125.845 23.3257 125.697 23.5378 125.504 23.7765C125.315 24.0151 125.053 24.2234 124.72 24.4015C124.387 24.5795 123.955 24.6685 123.425 24.6685ZM123.8 23.2196C124.288 23.2196 124.701 23.0908 125.038 22.8333C125.379 22.5719 125.637 22.2102 125.811 21.748C125.989 21.2859 126.078 20.748 126.078 20.1344C126.078 19.5283 125.991 18.998 125.817 18.5435C125.642 18.089 125.387 17.7348 125.05 17.481C124.713 17.2272 124.296 17.1003 123.8 17.1003C123.288 17.1003 122.862 17.2329 122.521 17.498C122.18 17.7632 121.923 18.1249 121.749 18.5833C121.578 19.0416 121.493 19.5586 121.493 20.1344C121.493 20.7177 121.58 21.2424 121.754 21.7083C121.928 22.1742 122.186 22.5435 122.527 22.8162C122.872 23.0852 123.296 23.2196 123.8 23.2196ZM134.544 24.498V12.8617H136.243V17.1855H136.345C136.444 17.0037 136.586 16.7935 136.771 16.5549C136.957 16.3162 137.214 16.1079 137.544 15.9299C137.874 15.748 138.309 15.6571 138.851 15.6571C139.555 15.6571 140.184 15.8352 140.737 16.1912C141.29 16.5473 141.724 17.0605 142.038 17.731C142.357 18.4015 142.516 19.2083 142.516 20.1515C142.516 21.0946 142.358 21.9033 142.044 22.5776C141.73 23.248 141.298 23.7651 140.749 24.1287C140.199 24.4886 139.572 24.6685 138.868 24.6685C138.338 24.6685 137.904 24.5795 137.567 24.4015C137.233 24.2234 136.972 24.0151 136.783 23.7765C136.593 23.5378 136.447 23.3257 136.345 23.1401H136.203V24.498H134.544ZM136.209 20.1344C136.209 20.748 136.298 21.2859 136.476 21.748C136.654 22.2102 136.911 22.5719 137.249 22.8333C137.586 23.0908 137.999 23.2196 138.487 23.2196C138.995 23.2196 139.419 23.0852 139.76 22.8162C140.101 22.5435 140.358 22.1742 140.533 21.7083C140.711 21.2424 140.8 20.7177 140.8 20.1344C140.8 19.5586 140.713 19.0416 140.538 18.5833C140.368 18.1249 140.11 17.7632 139.766 17.498C139.425 17.2329 138.999 17.1003 138.487 17.1003C137.995 17.1003 137.578 17.2272 137.237 17.481C136.9 17.7348 136.644 18.089 136.47 18.5435C136.296 18.998 136.209 19.5283 136.209 20.1344ZM145.2 27.7708C144.946 27.7708 144.715 27.7499 144.507 27.7083C144.299 27.6704 144.143 27.6287 144.041 27.5833L144.45 26.1912C144.761 26.2746 145.037 26.3105 145.28 26.2992C145.522 26.2878 145.736 26.1969 145.922 26.0265C146.111 25.856 146.278 25.5776 146.422 25.1912L146.632 24.6117L143.439 15.7708H145.257L147.467 22.5435H147.558L149.768 15.7708H151.592L147.996 25.6628C147.829 26.1174 147.617 26.5018 147.359 26.8162C147.102 27.1344 146.795 27.373 146.439 27.5321C146.083 27.6912 145.67 27.7708 145.2 27.7708Z" fill="#E8E8E8"/>
<path d="M63.6101 43.498H60.3984L64.57 31.1344H68.5483L72.7198 43.498H69.5082L66.6044 34.2495H66.5078L63.6101 43.498ZM63.1815 38.6323H69.8945V40.9022H63.1815V38.6323ZM77.003 31.1344V43.498H74.051V31.1344H77.003ZM81.8341 31.1344V43.498H78.882V31.1344H81.8341ZM87.3654 43.498V34.2253H90.2329V35.9157H90.3295C90.4986 35.3039 90.7743 34.8491 91.1566 34.5513C91.5389 34.2495 91.9837 34.0985 92.4908 34.0985C92.6276 34.0985 92.7685 34.1086 92.9133 34.1287C93.0582 34.1448 93.1931 34.171 93.3178 34.2072V36.7729C93.177 36.7246 92.9918 36.6864 92.7624 36.6582C92.537 36.63 92.3358 36.6159 92.1587 36.6159C91.8086 36.6159 91.4927 36.6944 91.2109 36.8514C90.9332 37.0043 90.7139 37.2196 90.5529 37.4973C90.3959 37.771 90.3175 38.093 90.3175 38.4632V43.498H87.3654ZM94.5207 43.498V34.2253H97.4727V43.498H94.5207ZM95.9997 33.1447C95.5852 33.1447 95.229 33.0079 94.9312 32.7342C94.6334 32.4565 94.4845 32.1224 94.4845 31.7321C94.4845 31.3457 94.6334 31.0157 94.9312 30.742C95.229 30.4643 95.5852 30.3255 95.9997 30.3255C96.4183 30.3255 96.7745 30.4643 97.0683 30.742C97.3661 31.0157 97.515 31.3457 97.515 31.7321C97.515 32.1224 97.3661 32.4565 97.0683 32.7342C96.7745 33.0079 96.4183 33.1447 95.9997 33.1447ZM103.674 47.1685C102.793 47.1685 102.038 47.0457 101.41 46.8002C100.782 46.5547 100.289 46.2187 99.9313 45.7921C99.5731 45.3655 99.3578 44.8825 99.2853 44.3432L102.08 44.1862C102.133 44.3754 102.229 44.5404 102.37 44.6813C102.515 44.8221 102.702 44.9308 102.932 45.0073C103.165 45.0837 103.439 45.122 103.753 45.122C104.248 45.122 104.656 45.0012 104.978 44.7598C105.304 44.5223 105.467 44.1058 105.467 43.5101V41.8801H105.365C105.248 42.1659 105.071 42.4215 104.833 42.6468C104.596 42.8722 104.3 43.0493 103.946 43.1781C103.596 43.3069 103.193 43.3713 102.738 43.3713C102.062 43.3713 101.443 43.2143 100.879 42.9004C100.32 42.5824 99.8709 42.0914 99.5328 41.4274C99.1988 40.7593 99.0318 39.9 99.0318 38.8496C99.0318 37.767 99.2048 36.8755 99.5509 36.1752C99.8971 35.4709 100.35 34.9497 100.909 34.6117C101.473 34.2736 102.078 34.1046 102.726 34.1046C103.213 34.1046 103.63 34.1891 103.976 34.3581C104.326 34.5231 104.614 34.7364 104.839 34.998C105.065 35.2596 105.236 35.5313 105.352 35.813H105.437V34.2253H108.377V43.5343C108.377 44.3191 108.18 44.9811 107.785 45.5204C107.391 46.0597 106.84 46.4682 106.131 46.7459C105.423 47.0276 104.604 47.1685 103.674 47.1685ZM103.765 41.2221C104.123 41.2221 104.429 41.1275 104.682 40.9384C104.936 40.7492 105.131 40.4776 105.268 40.1234C105.405 39.7692 105.473 39.3446 105.473 38.8496C105.473 38.3465 105.405 37.9139 105.268 37.5517C105.135 37.1854 104.94 36.9037 104.682 36.7065C104.429 36.5093 104.123 36.4107 103.765 36.4107C103.398 36.4107 103.089 36.5113 102.835 36.7125C102.581 36.9138 102.388 37.1975 102.255 37.5637C102.127 37.9259 102.062 38.3546 102.062 38.8496C102.062 39.3446 102.129 39.7692 102.262 40.1234C102.394 40.4776 102.586 40.7492 102.835 40.9384C103.089 41.1275 103.398 41.2221 103.765 41.2221ZM113.211 38.2097V43.498H110.259V31.1344H113.114V35.9277H113.217C113.426 35.3562 113.768 34.9095 114.243 34.5875C114.722 34.2656 115.308 34.1046 116 34.1046C116.652 34.1046 117.22 34.2495 117.702 34.5392C118.185 34.825 118.56 35.2295 118.825 35.7527C119.095 36.2759 119.228 36.8876 119.224 37.5879V43.498H116.272V38.1674C116.276 37.6523 116.147 37.2498 115.885 36.96C115.624 36.6703 115.256 36.5254 114.781 36.5254C114.471 36.5254 114.197 36.5938 113.96 36.7306C113.726 36.8635 113.543 37.0546 113.41 37.3041C113.281 37.5537 113.215 37.8555 113.211 38.2097ZM126.301 34.2253V36.3986H120.451V34.2253H126.301ZM121.676 32.0037H124.628V40.5822C124.628 40.7633 124.657 40.9102 124.713 41.0229C124.773 41.1316 124.86 41.21 124.972 41.2583C125.085 41.3026 125.22 41.3247 125.377 41.3247C125.49 41.3247 125.608 41.3147 125.733 41.2946C125.862 41.2704 125.958 41.2503 126.023 41.2342L126.47 43.3652C126.329 43.4055 126.13 43.4558 125.872 43.5161C125.618 43.5765 125.315 43.6148 124.96 43.6308C124.268 43.663 123.675 43.5826 123.179 43.3894C122.688 43.1922 122.312 42.8863 122.051 42.4718C121.793 42.0572 121.668 41.536 121.676 40.9082V32.0037ZM135.786 37.0566L133.076 37.1291C133.047 36.9359 132.971 36.7648 132.846 36.6159C132.721 36.463 132.558 36.3443 132.357 36.2598C132.16 36.1712 131.931 36.1269 131.669 36.1269C131.327 36.1269 131.035 36.1954 130.794 36.3322C130.556 36.469 130.439 36.6542 130.443 36.8876C130.439 37.0687 130.512 37.2257 130.661 37.3585C130.814 37.4913 131.085 37.5979 131.476 37.6784L133.263 38.0165C134.188 38.1936 134.877 38.4874 135.327 38.8979C135.782 39.3084 136.011 39.8517 136.016 40.5279C136.011 41.1638 135.822 41.7171 135.448 42.188C135.078 42.6589 134.571 43.0251 133.927 43.2867C133.283 43.5443 132.546 43.6731 131.717 43.6731C130.393 43.6731 129.349 43.4014 128.584 42.8581C127.823 42.3108 127.389 41.5783 127.28 40.6607L130.196 40.5882C130.26 40.9263 130.427 41.1839 130.697 41.361C130.967 41.538 131.311 41.6266 131.729 41.6266C132.108 41.6266 132.415 41.5562 132.653 41.4153C132.89 41.2744 133.011 41.0873 133.015 40.8539C133.011 40.6446 132.919 40.4776 132.737 40.3528C132.556 40.224 132.273 40.1234 131.886 40.0509L130.268 39.7431C129.339 39.574 128.646 39.2621 128.192 38.8073C127.737 38.3485 127.511 37.765 127.516 37.0566C127.511 36.4368 127.677 35.9076 128.011 35.4689C128.345 35.0262 128.819 34.6881 129.435 34.4547C130.051 34.2213 130.777 34.1046 131.615 34.1046C132.87 34.1046 133.86 34.3682 134.585 34.8954C135.309 35.4186 135.71 36.139 135.786 37.0566ZM141.121 43.498V34.2253H143.989V35.9157H144.085C144.254 35.3039 144.53 34.8491 144.912 34.5513C145.295 34.2495 145.739 34.0985 146.247 34.0985C146.383 34.0985 146.524 34.1086 146.669 34.1287C146.814 34.1448 146.949 34.171 147.074 34.2072V36.7729C146.933 36.7246 146.748 36.6864 146.518 36.6582C146.293 36.63 146.092 36.6159 145.915 36.6159C145.564 36.6159 145.248 36.6944 144.967 36.8514C144.689 37.0043 144.47 37.2196 144.309 37.4973C144.152 37.771 144.073 38.093 144.073 38.4632V43.498H141.121ZM152.13 43.6731C151.16 43.6731 150.323 43.4819 149.618 43.0996C148.918 42.7132 148.379 42.1639 148 41.4515C147.626 40.7351 147.439 39.8839 147.439 38.8979C147.439 37.94 147.628 37.1029 148.006 36.3865C148.385 35.6661 148.918 35.1067 149.606 34.7083C150.294 34.3058 151.105 34.1046 152.039 34.1046C152.699 34.1046 153.303 34.2072 153.85 34.4125C154.397 34.6177 154.87 34.9216 155.269 35.324C155.667 35.7265 155.977 36.2235 156.198 36.8152C156.42 37.4027 156.531 38.0769 156.531 38.8375V39.574H148.471V37.8595H153.784C153.78 37.5456 153.705 37.2659 153.56 37.0204C153.415 36.7749 153.216 36.5837 152.963 36.4469C152.713 36.306 152.425 36.2356 152.099 36.2356C151.769 36.2356 151.474 36.3101 151.212 36.459C150.95 36.6039 150.743 36.8031 150.59 37.0566C150.437 37.3062 150.357 37.5899 150.349 37.9078V39.6525C150.349 40.0308 150.423 40.3629 150.572 40.6486C150.721 40.9303 150.932 41.1497 151.206 41.3066C151.48 41.4636 151.806 41.5421 152.184 41.5421C152.446 41.5421 152.683 41.5058 152.896 41.4334C153.11 41.361 153.293 41.2543 153.446 41.1134C153.599 40.9726 153.713 40.7995 153.79 40.5943L156.5 40.6728C156.388 41.2805 156.14 41.8097 155.758 42.2605C155.379 42.7072 154.882 43.0553 154.267 43.3049C153.651 43.5504 152.939 43.6731 152.13 43.6731ZM166.134 37.0566L163.423 37.1291C163.395 36.9359 163.319 36.7648 163.194 36.6159C163.069 36.463 162.906 36.3443 162.705 36.2598C162.508 36.1712 162.278 36.1269 162.017 36.1269C161.674 36.1269 161.383 36.1954 161.141 36.3322C160.904 36.469 160.787 36.6542 160.791 36.8876C160.787 37.0687 160.859 37.2257 161.008 37.3585C161.161 37.4913 161.433 37.5979 161.823 37.6784L163.61 38.0165C164.536 38.1936 165.224 38.4874 165.675 38.8979C166.13 39.3084 166.359 39.8517 166.363 40.5279C166.359 41.1638 166.17 41.7171 165.796 42.188C165.425 42.6589 164.918 43.0251 164.274 43.2867C163.63 43.5443 162.894 43.6731 162.065 43.6731C160.741 43.6731 159.696 43.4014 158.932 42.8581C158.171 42.3108 157.736 41.5783 157.628 40.6607L160.544 40.5882C160.608 40.9263 160.775 41.1839 161.045 41.361C161.314 41.538 161.658 41.6266 162.077 41.6266C162.455 41.6266 162.763 41.5562 163.001 41.4153C163.238 41.2744 163.359 41.0873 163.363 40.8539C163.359 40.6446 163.266 40.4776 163.085 40.3528C162.904 40.224 162.62 40.1234 162.234 40.0509L160.616 39.7431C159.686 39.574 158.994 39.2621 158.539 38.8073C158.085 38.3485 157.859 37.765 157.863 37.0566C157.859 36.4368 158.024 35.9076 158.358 35.4689C158.692 35.0262 159.167 34.6881 159.783 34.4547C160.399 34.2213 161.125 34.1046 161.962 34.1046C163.218 34.1046 164.208 34.3682 164.932 34.8954C165.657 35.4186 166.057 36.139 166.134 37.0566ZM172.151 43.6731C171.181 43.6731 170.344 43.4819 169.64 43.0996C168.939 42.7132 168.4 42.1639 168.022 41.4515C167.648 40.7351 167.46 39.8839 167.46 38.8979C167.46 37.94 167.65 37.1029 168.028 36.3865C168.406 35.6661 168.939 35.1067 169.628 34.7083C170.316 34.3058 171.127 34.1046 172.061 34.1046C172.721 34.1046 173.324 34.2072 173.872 34.4125C174.419 34.6177 174.892 34.9216 175.29 35.324C175.689 35.7265 175.999 36.2235 176.22 36.8152C176.441 37.4027 176.552 38.0769 176.552 38.8375V39.574H168.493V37.8595H173.805C173.801 37.5456 173.727 37.2659 173.582 37.0204C173.437 36.7749 173.238 36.5837 172.984 36.4469C172.735 36.306 172.447 36.2356 172.121 36.2356C171.791 36.2356 171.495 36.3101 171.233 36.459C170.972 36.6039 170.765 36.8031 170.612 37.0566C170.459 37.3062 170.378 37.5899 170.37 37.9078V39.6525C170.37 40.0308 170.445 40.3629 170.594 40.6486C170.742 40.9303 170.954 41.1497 171.227 41.3066C171.501 41.4636 171.827 41.5421 172.205 41.5421C172.467 41.5421 172.704 41.5058 172.918 41.4334C173.131 41.361 173.314 41.2543 173.467 41.1134C173.62 40.9726 173.735 40.7995 173.811 40.5943L176.522 40.6728C176.409 41.2805 176.162 41.8097 175.779 42.2605C175.401 42.7072 174.904 43.0553 174.288 43.3049C173.672 43.5504 172.96 43.6731 172.151 43.6731ZM178.06 43.498V34.2253H180.927V35.9157H181.024C181.193 35.3039 181.469 34.8491 181.851 34.5513C182.233 34.2495 182.678 34.0985 183.185 34.0985C183.322 34.0985 183.463 34.1086 183.608 34.1287C183.753 34.1448 183.887 34.171 184.012 34.2072V36.7729C183.871 36.7246 183.686 36.6864 183.457 36.6582C183.231 36.63 183.03 36.6159 182.853 36.6159C182.503 36.6159 182.187 36.6944 181.905 36.8514C181.628 37.0043 181.408 37.2196 181.247 37.4973C181.09 37.771 181.012 38.093 181.012 38.4632V43.498H178.06ZM194.492 34.2253L191.311 43.498H187.93L184.755 34.2253H187.864L189.572 40.6124H189.669L191.383 34.2253H194.492ZM199.66 43.6731C198.69 43.6731 197.853 43.4819 197.148 43.0996C196.448 42.7132 195.909 42.1639 195.531 41.4515C195.156 40.7351 194.969 39.8839 194.969 38.8979C194.969 37.94 195.158 37.1029 195.537 36.3865C195.915 35.6661 196.448 35.1067 197.136 34.7083C197.825 34.3058 198.636 34.1046 199.569 34.1046C200.229 34.1046 200.833 34.2072 201.38 34.4125C201.928 34.6177 202.401 34.9216 202.799 35.324C203.197 35.7265 203.507 36.2235 203.729 36.8152C203.95 37.4027 204.061 38.0769 204.061 38.8375V39.574H196.001V37.8595H201.314C201.31 37.5456 201.235 37.2659 201.091 37.0204C200.946 36.7749 200.746 36.5837 200.493 36.4469C200.243 36.306 199.956 36.2356 199.63 36.2356C199.3 36.2356 199.004 36.3101 198.742 36.459C198.481 36.6039 198.273 36.8031 198.12 37.0566C197.967 37.3062 197.887 37.5899 197.879 37.9078V39.6525C197.879 40.0308 197.953 40.3629 198.102 40.6486C198.251 40.9303 198.463 41.1497 198.736 41.3066C199.01 41.4636 199.336 41.5421 199.714 41.5421C199.976 41.5421 200.213 41.5058 200.427 41.4334C200.64 41.361 200.823 41.2543 200.976 41.1134C201.129 40.9726 201.244 40.7995 201.32 40.5943L204.031 40.6728C203.918 41.2805 203.67 41.8097 203.288 42.2605C202.91 42.7072 202.413 43.0553 201.797 43.3049C201.181 43.5504 200.469 43.6731 199.66 43.6731ZM208.955 43.6308C208.271 43.6308 207.649 43.4538 207.09 43.0996C206.53 42.7454 206.084 42.2142 205.75 41.5058C205.416 40.7975 205.249 39.9181 205.249 38.8677C205.249 37.777 205.422 36.8795 205.768 36.1752C206.114 35.4709 206.567 34.9497 207.126 34.6117C207.689 34.2736 208.295 34.1046 208.943 34.1046C209.43 34.1046 209.847 34.1891 210.193 34.3581C210.539 34.5231 210.825 34.7364 211.05 34.998C211.275 35.2596 211.446 35.5313 211.563 35.813H211.624V31.1344H214.576V43.498H211.654V41.9948H211.563C211.438 42.2806 211.261 42.5482 211.032 42.7978C210.803 43.0473 210.515 43.2485 210.169 43.4014C209.827 43.5544 209.422 43.6308 208.955 43.6308ZM209.981 41.3308C210.34 41.3308 210.646 41.2302 210.899 41.0289C211.153 40.8237 211.348 40.5359 211.485 40.1657C211.622 39.7954 211.69 39.3607 211.69 38.8617C211.69 38.3546 211.622 37.9179 211.485 37.5517C211.352 37.1854 211.157 36.9037 210.899 36.7065C210.646 36.5093 210.34 36.4107 209.981 36.4107C209.615 36.4107 209.305 36.5113 209.052 36.7125C208.798 36.9138 208.605 37.1975 208.472 37.5637C208.343 37.93 208.279 38.3626 208.279 38.8617C208.279 39.3607 208.345 39.7954 208.478 40.1657C208.611 40.5359 208.802 40.8237 209.052 41.0289C209.305 41.2302 209.615 41.3308 209.981 41.3308Z" fill="black"/>
</g>
<defs>
<filter id="filter0_d_4_412" x="54.4" y="3.89805" width="167.2" height="48.8704" filterUnits="userSpaceOnUse" color-interpolation-filters="sRGB">
<feFlood flood-opacity="0" result="BackgroundImageFix"/>
<feColorMatrix in="SourceAlpha" type="matrix" values="0 0 0 0 0 0 0 0 0 0 0 0 0 0 0 0 0 0 127 0" result="hardAlpha"/>
<feOffset/>
<feGaussianBlur stdDeviation="2.8"/>
<feComposite in2="hardAlpha" operator="out"/>
<feColorMatrix type="matrix" values="0 0 0 0 0 0 0 0 0 0 0 0 0 0 0 0 0 0 0.25 0"/>
<feBlend mode="normal" in2="BackgroundImageFix" result="effect1_dropShadow_4_412"/>
<feBlend mode="normal" in="SourceGraphic" in2="effect1_dropShadow_4_412" result="shape"/>
</filter>
<linearGradient id="paint0_linear_4_412" x1="114" y1="0" x2="114" y2="55.9961" gradientUnits="userSpaceOnUse">
<stop stop-color="#AEAEAE"/>
<stop offset="1" stop-color="#5D5D5D"/>
</linearGradient>
</defs>
</svg>
