<svg width="165" height="56" viewBox="0 0 165 56" fill="none" xmlns="http://www.w3.org/2000/svg">
<rect width="165" height="56" rx="8" fill="url(#paint0_linear_5_6)"/>
<rect x="1.05" y="1.05" width="162.9" height="53.9" rx="6.95" stroke="white" stroke-opacity="0.15" stroke-width="2.1"/>
<path d="M31.9634 8C37.5579 8 42.3211 9.95316 46.2493 13.8576C48.1293 15.7382 49.5587 17.8877 50.535 20.3039C51.5106 22.7209 52 25.2859 52 28.0003C52 30.7385 51.5169 33.3041 50.5537 35.6961C49.5893 38.0886 48.1662 40.2024 46.2862 42.0355C44.3343 43.9637 42.1198 45.4406 39.6429 46.4644C37.1673 47.4881 34.6072 48 31.9647 48C29.3221 48 26.7921 47.495 24.3752 46.4819C21.9589 45.4706 19.792 44.0062 17.8751 42.0899C15.9582 40.1736 14.5 38.0123 13.5 35.6073C12.5 33.2023 12 30.6672 12 28.0003C12 25.3571 12.5056 22.8159 13.5175 20.3752C14.5294 17.9345 16.0001 15.7501 17.9282 13.8213C21.7377 9.94128 26.4159 8 31.9634 8ZM32.0359 11.6076C27.4646 11.6076 23.6189 13.2032 20.4995 16.3933C18.9276 17.9889 17.7195 19.7802 16.8745 21.7683C16.0282 23.7565 15.6063 25.834 15.6063 28.0009C15.6063 30.1441 16.0282 32.2098 16.8745 34.1967C17.7201 36.1861 18.9276 37.9598 20.4995 39.5192C22.0708 41.0793 23.8439 42.2687 25.8215 43.0912C27.7971 43.9124 29.869 44.3231 32.0359 44.3231C34.1785 44.3231 36.2548 43.9074 38.2692 43.0737C40.2811 42.2393 42.0948 41.038 43.7149 39.4667C46.8337 36.4192 48.3924 32.5979 48.3924 28.0016C48.3924 25.7872 47.9874 23.6921 47.1781 21.7158C46.3699 19.7396 45.1905 17.9783 43.6442 16.4295C40.4279 13.2151 36.5598 11.6076 32.0359 11.6076ZM31.7853 24.6796L29.1059 26.0728C28.8196 25.4784 28.469 25.0609 28.0528 24.8228C27.6359 24.5853 27.249 24.4659 26.8915 24.4659C25.1065 24.4659 24.2127 25.644 24.2127 28.0016C24.2127 29.0728 24.4389 29.9291 24.8908 30.5722C25.3433 31.2154 26.0102 31.5372 26.8915 31.5372C28.0584 31.5372 28.8796 30.9654 29.3565 29.8228L31.8203 31.0729C31.2966 32.0498 30.5703 32.8173 29.6415 33.3766C28.714 33.9367 27.6896 34.216 26.5702 34.216C24.7846 34.216 23.3433 33.6692 22.2483 32.5729C21.1533 31.4779 20.6058 29.9541 20.6058 28.0022C20.6058 26.0972 21.1595 24.5859 22.2664 23.4665C23.3733 22.3477 24.7721 21.7877 26.4634 21.7877C28.9403 21.7865 30.7134 22.7509 31.7853 24.6796ZM43.3211 24.6796L40.6779 26.0728C40.3923 25.4784 40.0404 25.0609 39.6242 24.8228C39.2067 24.5853 38.8073 24.4659 38.4279 24.4659C36.6423 24.4659 35.7485 25.644 35.7485 28.0016C35.7485 29.0728 35.9754 29.9291 36.4273 30.5722C36.8791 31.2154 37.5454 31.5372 38.4279 31.5372C39.5936 31.5372 40.4154 30.9654 40.8911 29.8228L43.3911 31.0729C42.8442 32.0498 42.1055 32.8173 41.178 33.3766C40.2492 33.9367 39.2373 34.216 38.1423 34.216C36.3323 34.216 34.8866 33.6692 33.8041 32.5729C32.7191 31.4779 32.1778 29.9541 32.1778 28.0022C32.1778 26.0972 32.731 24.5859 33.8391 23.4665C34.9454 22.3477 36.3441 21.7877 38.0348 21.7877C40.5111 21.7865 42.2742 22.7509 43.3211 24.6796Z" fill="black"/>
<g filter="url(#filter0_d_5_6)">
<path d="M61.2784 24.5V12.8636H63.0341V22.9886H68.3068V24.5H61.2784ZM70.1733 24.5V15.7727H71.8722V24.5H70.1733ZM71.0312 14.4261C70.7358 14.4261 70.482 14.3276 70.2699 14.1307C70.0616 13.9299 69.9574 13.6913 69.9574 13.4148C69.9574 13.1345 70.0616 12.8958 70.2699 12.6989C70.482 12.4981 70.7358 12.3977 71.0312 12.3977C71.3267 12.3977 71.5786 12.4981 71.7869 12.6989C71.999 12.8958 72.1051 13.1345 72.1051 13.4148C72.1051 13.6913 71.999 13.9299 71.7869 14.1307C71.5786 14.3276 71.3267 14.4261 71.0312 14.4261ZM77.8338 24.6761C76.9891 24.6761 76.2618 24.4848 75.652 24.1023C75.0459 23.7159 74.58 23.1837 74.2543 22.5057C73.9285 21.8276 73.7656 21.0511 73.7656 20.1761C73.7656 19.2898 73.9323 18.5076 74.2656 17.8295C74.599 17.1477 75.0687 16.6155 75.6747 16.233C76.2808 15.8504 76.9948 15.6591 77.8168 15.6591C78.4796 15.6591 79.0705 15.7822 79.5895 16.0284C80.1084 16.2708 80.527 16.6117 80.8452 17.0511C81.1671 17.4905 81.3584 18.0038 81.419 18.5909H79.7656C79.6747 18.1818 79.4664 17.8295 79.1406 17.5341C78.8186 17.2386 78.3868 17.0909 77.8452 17.0909C77.3717 17.0909 76.9569 17.2159 76.6008 17.4659C76.2486 17.7121 75.974 18.0644 75.777 18.5227C75.58 18.9773 75.4815 19.5151 75.4815 20.1364C75.4815 20.7727 75.5781 21.322 75.7713 21.7841C75.9645 22.2462 76.2372 22.6042 76.5895 22.858C76.9455 23.1117 77.3641 23.2386 77.8452 23.2386C78.1671 23.2386 78.4588 23.1799 78.7202 23.0625C78.9853 22.9413 79.2069 22.7689 79.3849 22.5455C79.5668 22.322 79.6936 22.053 79.7656 21.7386H81.419C81.3584 22.303 81.1747 22.8068 80.8679 23.25C80.5611 23.6932 80.1501 24.0417 79.6349 24.2955C79.1236 24.5492 78.5232 24.6761 77.8338 24.6761ZM86.9972 24.6761C86.1373 24.6761 85.3968 24.4924 84.7756 24.125C84.1581 23.7538 83.6809 23.233 83.3437 22.5625C83.0104 21.8883 82.8437 21.0985 82.8437 20.1932C82.8437 19.2992 83.0104 18.5114 83.3437 17.8295C83.6809 17.1477 84.1506 16.6155 84.7528 16.233C85.3589 15.8504 86.0672 15.6591 86.8778 15.6591C87.3703 15.6591 87.8475 15.7405 88.3097 15.9034C88.7718 16.0663 89.1865 16.322 89.554 16.6705C89.9214 17.0189 90.2112 17.4716 90.4233 18.0284C90.6354 18.5814 90.7415 19.2538 90.7415 20.0455V20.6477H83.804V19.375H89.0767C89.0767 18.928 88.9858 18.5322 88.804 18.1875C88.6222 17.839 88.3665 17.5644 88.0369 17.3636C87.7112 17.1629 87.3286 17.0625 86.8892 17.0625C86.4119 17.0625 85.9953 17.1799 85.6392 17.4148C85.2869 17.6458 85.0142 17.9489 84.821 18.3239C84.6316 18.6951 84.5369 19.0985 84.5369 19.5341V20.5284C84.5369 21.1117 84.6392 21.608 84.8437 22.017C85.0521 22.4261 85.3418 22.7386 85.7131 22.9545C86.0843 23.1667 86.518 23.2727 87.0142 23.2727C87.3362 23.2727 87.6297 23.2273 87.8949 23.1364C88.16 23.0417 88.3892 22.9015 88.5824 22.7159C88.7756 22.5303 88.9233 22.3011 89.0256 22.0284L90.6335 22.3182C90.5047 22.7917 90.2737 23.2064 89.9403 23.5625C89.6108 23.9148 89.196 24.1894 88.696 24.3864C88.1998 24.5795 87.6335 24.6761 86.9972 24.6761ZM94.3253 19.3182V24.5H92.6264V15.7727H94.2571V17.1932H94.365C94.5658 16.7311 94.8802 16.3598 95.3082 16.0795C95.74 15.7992 96.2836 15.6591 96.9389 15.6591C97.5336 15.6591 98.0544 15.7841 98.5014 16.0341C98.9484 16.2803 99.295 16.6477 99.5412 17.1364C99.7874 17.625 99.9105 18.2292 99.9105 18.9489V24.5H98.2116V19.1534C98.2116 18.5208 98.0469 18.0265 97.7173 17.6705C97.3878 17.3106 96.9351 17.1307 96.3594 17.1307C95.9654 17.1307 95.615 17.2159 95.3082 17.3864C95.0052 17.5568 94.7647 17.8068 94.5866 18.1364C94.4124 18.4621 94.3253 18.8561 94.3253 19.3182ZM108.729 17.9034L107.189 18.1761C107.125 17.9792 107.022 17.7917 106.882 17.6136C106.746 17.4356 106.56 17.2898 106.325 17.1761C106.09 17.0625 105.797 17.0057 105.445 17.0057C104.964 17.0057 104.562 17.1136 104.24 17.3295C103.918 17.5417 103.757 17.8163 103.757 18.1534C103.757 18.4451 103.865 18.6799 104.081 18.858C104.297 19.036 104.645 19.1818 105.126 19.2955L106.513 19.6136C107.316 19.7992 107.914 20.0852 108.308 20.4716C108.702 20.858 108.899 21.3598 108.899 21.9773C108.899 22.5 108.748 22.9659 108.445 23.375C108.145 23.7803 107.727 24.0985 107.189 24.3295C106.655 24.5606 106.035 24.6761 105.331 24.6761C104.354 24.6761 103.556 24.4678 102.939 24.0511C102.321 23.6307 101.943 23.0341 101.803 22.2614L103.445 22.0114C103.547 22.4394 103.757 22.7633 104.075 22.983C104.393 23.1989 104.808 23.3068 105.32 23.3068C105.876 23.3068 106.321 23.1913 106.655 22.9602C106.988 22.7254 107.155 22.4394 107.155 22.1023C107.155 21.8295 107.053 21.6004 106.848 21.4148C106.647 21.2292 106.339 21.089 105.922 20.9943L104.445 20.6705C103.63 20.4848 103.028 20.1894 102.638 19.7841C102.251 19.3788 102.058 18.8655 102.058 18.2443C102.058 17.7292 102.202 17.2784 102.49 16.892C102.778 16.5057 103.176 16.2045 103.683 15.9886C104.191 15.7689 104.772 15.6591 105.428 15.6591C106.371 15.6591 107.113 15.8636 107.655 16.2727C108.196 16.678 108.554 17.2216 108.729 17.9034ZM114.528 24.6761C113.669 24.6761 112.928 24.4924 112.307 24.125C111.689 23.7538 111.212 23.233 110.875 22.5625C110.542 21.8883 110.375 21.0985 110.375 20.1932C110.375 19.2992 110.542 18.5114 110.875 17.8295C111.212 17.1477 111.682 16.6155 112.284 16.233C112.89 15.8504 113.598 15.6591 114.409 15.6591C114.901 15.6591 115.379 15.7405 115.841 15.9034C116.303 16.0663 116.718 16.322 117.085 16.6705C117.453 17.0189 117.742 17.4716 117.955 18.0284C118.167 18.5814 118.273 19.2538 118.273 20.0455V20.6477H111.335V19.375H116.608C116.608 18.928 116.517 18.5322 116.335 18.1875C116.153 17.839 115.898 17.5644 115.568 17.3636C115.242 17.1629 114.86 17.0625 114.42 17.0625C113.943 17.0625 113.526 17.1799 113.17 17.4148C112.818 17.6458 112.545 17.9489 112.352 18.3239C112.163 18.6951 112.068 19.0985 112.068 19.5341V20.5284C112.068 21.1117 112.17 21.608 112.375 22.017C112.583 22.4261 112.873 22.7386 113.244 22.9545C113.616 23.1667 114.049 23.2727 114.545 23.2727C114.867 23.2727 115.161 23.2273 115.426 23.1364C115.691 23.0417 115.92 22.9015 116.114 22.7159C116.307 22.5303 116.455 22.3011 116.557 22.0284L118.165 22.3182C118.036 22.7917 117.805 23.2064 117.472 23.5625C117.142 23.9148 116.727 24.1894 116.227 24.3864C115.731 24.5795 115.165 24.6761 114.528 24.6761ZM123.425 24.6705C122.72 24.6705 122.091 24.4905 121.538 24.1307C120.989 23.767 120.557 23.25 120.243 22.5795C119.932 21.9053 119.777 21.0966 119.777 20.1534C119.777 19.2102 119.934 18.4034 120.249 17.733C120.567 17.0625 121.002 16.5492 121.555 16.1932C122.108 15.8371 122.735 15.6591 123.436 15.6591C123.978 15.6591 124.413 15.75 124.743 15.9318C125.076 16.1098 125.334 16.3182 125.516 16.5568C125.701 16.7955 125.845 17.0057 125.947 17.1875H126.05V12.8636H127.749V24.5H126.089V23.142H125.947C125.845 23.3276 125.697 23.5398 125.504 23.7784C125.315 24.017 125.053 24.2254 124.72 24.4034C124.387 24.5814 123.955 24.6705 123.425 24.6705ZM123.8 23.2216C124.288 23.2216 124.701 23.0928 125.038 22.8352C125.379 22.5739 125.637 22.2121 125.811 21.75C125.989 21.2879 126.078 20.75 126.078 20.1364C126.078 19.5303 125.991 19 125.817 18.5455C125.642 18.0909 125.387 17.7367 125.05 17.483C124.713 17.2292 124.296 17.1023 123.8 17.1023C123.288 17.1023 122.862 17.2348 122.521 17.5C122.18 17.7651 121.923 18.1269 121.749 18.5852C121.578 19.0436 121.493 19.5606 121.493 20.1364C121.493 20.7197 121.58 21.2443 121.754 21.7102C121.928 22.1761 122.186 22.5455 122.527 22.8182C122.872 23.0871 123.296 23.2216 123.8 23.2216ZM134.544 24.5V12.8636H136.243V17.1875H136.345C136.444 17.0057 136.586 16.7955 136.771 16.5568C136.957 16.3182 137.214 16.1098 137.544 15.9318C137.874 15.75 138.309 15.6591 138.851 15.6591C139.555 15.6591 140.184 15.8371 140.737 16.1932C141.29 16.5492 141.724 17.0625 142.038 17.733C142.357 18.4034 142.516 19.2102 142.516 20.1534C142.516 21.0966 142.358 21.9053 142.044 22.5795C141.73 23.25 141.298 23.767 140.749 24.1307C140.199 24.4905 139.572 24.6705 138.868 24.6705C138.338 24.6705 137.904 24.5814 137.567 24.4034C137.233 24.2254 136.972 24.017 136.783 23.7784C136.593 23.5398 136.447 23.3276 136.345 23.142H136.203V24.5H134.544ZM136.209 20.1364C136.209 20.75 136.298 21.2879 136.476 21.75C136.654 22.2121 136.911 22.5739 137.249 22.8352C137.586 23.0928 137.999 23.2216 138.487 23.2216C138.995 23.2216 139.419 23.0871 139.76 22.8182C140.101 22.5455 140.358 22.1761 140.533 21.7102C140.711 21.2443 140.8 20.7197 140.8 20.1364C140.8 19.5606 140.713 19.0436 140.538 18.5852C140.368 18.1269 140.11 17.7651 139.766 17.5C139.425 17.2348 138.999 17.1023 138.487 17.1023C137.995 17.1023 137.578 17.2292 137.237 17.483C136.9 17.7367 136.644 18.0909 136.47 18.5455C136.296 19 136.209 19.5303 136.209 20.1364ZM145.2 27.7727C144.946 27.7727 144.715 27.7519 144.507 27.7102C144.299 27.6723 144.143 27.6307 144.041 27.5852L144.45 26.1932C144.761 26.2765 145.037 26.3125 145.28 26.3011C145.522 26.2898 145.736 26.1989 145.922 26.0284C146.111 25.8579 146.278 25.5795 146.422 25.1932L146.632 24.6136L143.439 15.7727H145.257L147.467 22.5455H147.558L149.768 15.7727H151.592L147.996 25.6648C147.829 26.1193 147.617 26.5038 147.359 26.8182C147.102 27.1364 146.795 27.375 146.439 27.5341C146.083 27.6932 145.67 27.7727 145.2 27.7727Z" fill="#E8E8E8"/>
<path d="M72.1584 35.6158H69.1399C69.0997 35.3059 69.0172 35.0262 68.8924 34.7766C68.7676 34.5271 68.6026 34.3138 68.3974 34.1367C68.1921 33.9596 67.9486 33.8248 67.6669 33.7322C67.3892 33.6357 67.0813 33.5874 66.7433 33.5874C66.1436 33.5874 65.6264 33.7343 65.1918 34.0281C64.7611 34.3218 64.4291 34.7464 64.1957 35.3018C63.9663 35.8572 63.8516 36.5294 63.8516 37.3182C63.8516 38.1392 63.9683 38.8274 64.2017 39.3828C64.4392 39.9342 64.7712 40.3507 65.1978 40.6325C65.6284 40.9102 66.1375 41.049 66.7251 41.049C67.0552 41.049 67.355 41.0067 67.6246 40.9222C67.8983 40.8377 68.1378 40.715 68.343 40.554C68.5523 40.389 68.7234 40.1897 68.8562 39.9563C68.993 39.7189 69.0876 39.4512 69.1399 39.1534L72.1584 39.1715C72.1061 39.7189 71.9471 40.2582 71.6815 40.7894C71.4199 41.3207 71.0597 41.8056 70.6008 42.2443C70.142 42.679 69.5826 43.0251 68.9226 43.2827C68.2666 43.5402 67.514 43.669 66.6648 43.669C65.5459 43.669 64.5438 43.4235 63.6584 42.9325C62.777 42.4375 62.0807 41.7171 61.5696 40.7713C61.0585 39.8255 60.8029 38.6745 60.8029 37.3182C60.8029 35.9579 61.0625 34.8048 61.5817 33.859C62.1009 32.9132 62.8031 32.1948 63.6886 31.7038C64.574 31.2128 65.566 30.9673 66.6648 30.9673C67.4134 30.9673 68.1056 31.072 68.7415 31.2812C69.3774 31.4865 69.9368 31.7884 70.4197 32.1868C70.9027 32.5812 71.2951 33.0662 71.5969 33.6417C71.8988 34.2172 72.0859 34.8752 72.1584 35.6158ZM85.091 35.6158H82.0725C82.0323 35.3059 81.9498 35.0262 81.825 34.7766C81.7002 34.5271 81.5352 34.3138 81.33 34.1367C81.1247 33.9596 80.8812 33.8248 80.5995 33.7322C80.3218 33.6357 80.0139 33.5874 79.6759 33.5874C79.0762 33.5874 78.559 33.7343 78.1244 34.0281C77.6937 34.3218 77.3617 34.7464 77.1283 35.3018C76.8989 35.8572 76.7842 36.5294 76.7842 37.3182C76.7842 38.1392 76.9009 38.8274 77.1343 39.3828C77.3718 39.9342 77.7038 40.3507 78.1304 40.6325C78.561 40.9102 79.0702 41.049 79.6578 41.049C79.9878 41.049 80.2876 41.0067 80.5573 40.9222C80.8309 40.8377 81.0704 40.715 81.2757 40.554C81.4849 40.389 81.656 40.1897 81.7888 39.9563C81.9256 39.7189 82.0202 39.4512 82.0725 39.1534L85.091 39.1715C85.0387 39.7189 84.8797 40.2582 84.6141 40.7894C84.3525 41.3207 83.9923 41.8056 83.5335 42.2443C83.0747 42.679 82.5152 43.0251 81.8552 43.2827C81.1992 43.5402 80.4466 43.669 79.5974 43.669C78.4785 43.669 77.4764 43.4235 76.591 42.9325C75.7096 42.4375 75.0133 41.7171 74.5022 40.7713C73.9911 39.8255 73.7355 38.6745 73.7355 37.3182C73.7355 35.9579 73.9951 34.8048 74.5143 33.859C75.0335 32.9132 75.7358 32.1948 76.6212 31.7038C77.5066 31.2128 78.4987 30.9673 79.5974 30.9673C80.346 30.9673 81.0382 31.072 81.6741 31.2812C82.31 31.4865 82.8694 31.7884 83.3524 32.1868C83.8353 32.5812 84.2277 33.0662 84.5296 33.6417C84.8314 34.2172 85.0185 34.8752 85.091 35.6158ZM91.8901 43.8018C90.8115 43.8018 89.8818 43.5463 89.101 43.0352C88.3202 42.52 87.7186 41.7815 87.296 40.8196C86.8734 39.8537 86.6641 38.6926 86.6681 37.3363C86.6722 35.98 86.8835 34.829 87.302 33.8832C87.7246 32.9334 88.3243 32.2109 89.101 31.7159C89.8818 31.2169 90.8115 30.9673 91.8901 30.9673C92.9687 30.9673 93.8984 31.2169 94.6791 31.7159C95.4639 32.2109 96.0676 32.9334 96.4902 33.8832C96.9128 34.833 97.1221 35.984 97.1181 37.3363C97.1181 38.6966 96.9068 39.8597 96.4842 40.8256C96.0616 41.7915 95.4599 42.5301 94.6791 43.0412C93.9024 43.5483 92.9727 43.8018 91.8901 43.8018ZM91.8901 41.3569C92.534 41.3569 93.0552 41.0289 93.4536 40.3729C93.8521 39.7128 94.0493 38.7006 94.0453 37.3363C94.0453 36.4428 93.9547 35.7063 93.7736 35.1268C93.5925 34.5432 93.341 34.1085 93.019 33.8228C92.697 33.537 92.3207 33.3942 91.8901 33.3942C91.2502 33.3942 90.733 33.7182 90.3386 34.3661C89.9442 35.0101 89.745 36.0001 89.7409 37.3363C89.7369 38.2418 89.8234 38.9924 90.0005 39.5881C90.1816 40.1837 90.4352 40.6284 90.7612 40.9222C91.0872 41.212 91.4635 41.3569 91.8901 41.3569Z" fill="black"/>
</g>
<defs>
<filter id="filter0_d_5_6" x="54.4" y="3.9" width="104.2" height="48.2" filterUnits="userSpaceOnUse" color-interpolation-filters="sRGB">
<feFlood flood-opacity="0" result="BackgroundImageFix"/>
<feColorMatrix in="SourceAlpha" type="matrix" values="0 0 0 0 0 0 0 0 0 0 0 0 0 0 0 0 0 0 127 0" result="hardAlpha"/>
<feOffset/>
<feGaussianBlur stdDeviation="2.8"/>
<feComposite in2="hardAlpha" operator="out"/>
<feColorMatrix type="matrix" values="0 0 0 0 0 0 0 0 0 0 0 0 0 0 0 0 0 0 0.25 0"/>
<feBlend mode="normal" in2="BackgroundImageFix" result="effect1_dropShadow_5_6"/>
<feBlend mode="normal" in="SourceGraphic" in2="effect1_dropShadow_5_6" result="shape"/>
</filter>
<linearGradient id="paint0_linear_5_6" x1="82.5" y1="0" x2="82.5" y2="56" gradientUnits="userSpaceOnUse">
<stop stop-color="#AEAEAE"/>
<stop offset="1" stop-color="#5D5D5D"/>
</linearGradient>
</defs>
</svg>
