<svg width="165" height="56" viewBox="0 0 165 56" fill="none" xmlns="http://www.w3.org/2000/svg">
<rect width="165" height="56" rx="8" fill="url(#paint0_linear_1_50)"/>
<rect x="1.05" y="1.05" width="162.9" height="53.9" rx="6.95" stroke="white" stroke-opacity="0.15" stroke-width="2.1"/>
<path fill-rule="evenodd" clip-rule="evenodd" d="M31.2994 29.9798H31.2984C31.2093 29.9798 31.1305 30.0092 31.0566 30.069C31.0016 30.1126 30.9636 30.1714 30.9333 30.2369H30.9371C30.9674 30.1714 31.0054 30.1126 31.0594 30.069C31.1334 30.0092 31.2121 29.9808 31.2994 29.9798Z" fill="#BD0000"/>
<path fill-rule="evenodd" clip-rule="evenodd" d="M16.4761 18.5531L13.1773 32.9457C13.1783 32.9457 13.1784 32.9457 13.1803 32.9457H28.4413H36.3785C35.4329 32.8631 34.6864 32.5312 34.2416 31.9261C34.1591 31.8142 34.0909 31.6936 34.0311 31.5675C33.9932 31.4745 33.9575 31.3807 33.9215 31.2859C33.8266 30.9843 33.7888 30.6496 33.8059 30.293C33.8533 29.299 34.3197 28.1167 35.1278 26.8786C35.9861 25.5628 37.2301 24.1838 38.7704 22.9041C39.1156 22.6174 39.4726 22.3344 39.8463 22.0593C40.3081 21.7195 40.7736 21.4066 41.2393 21.1139C42.955 20.0337 44.6665 19.2779 46.183 18.8939C44.7338 19.3667 43.1057 20.1694 41.4971 21.2621C41.4393 21.3011 41.3821 21.3412 41.3252 21.3806C40.4327 21.999 39.6242 22.6557 38.9186 23.319C36.648 25.4539 35.4479 27.6662 35.9932 28.9622C36.0321 29.0514 36.0785 29.1365 36.1325 29.2171C36.7187 30.0792 38.1713 30.2283 40.0122 29.7654C40.1374 29.7341 40.2626 29.6987 40.3916 29.6617C40.9796 29.4919 41.6039 29.2626 42.247 28.98C42.4016 28.9117 42.5578 28.8415 42.7153 28.7666C42.7314 28.759 42.7466 28.7514 42.7627 28.7429C44.7924 27.7344 46.3522 26.574 46.6898 25.8768C46.7638 25.7252 46.7816 25.5959 46.7313 25.4945C46.4904 25.006 44.8047 25.336 42.7627 26.2206C42.5986 26.2918 42.4326 26.365 42.2648 26.4429C42.4013 26.3161 42.5435 26.1888 42.6886 26.0635C42.92 25.8642 43.1596 25.6692 43.4148 25.4767C43.814 25.1743 44.2177 24.901 44.6151 24.6587C46.476 23.2548 47.4167 21.9268 47.2204 21.434C47.1834 21.3411 47.1047 21.2772 46.9833 21.2384C46.5953 21.115 45.8873 21.2622 45.0271 21.6148C44.3177 21.9057 43.5028 22.3373 42.6767 22.8744L42.5641 22.9485L42.5434 22.9604L42.1462 23.2241L42.3744 22.8062C42.713 22.1864 43.2645 21.5397 43.9512 20.939C44.4548 20.4998 45.0302 20.0859 45.6495 19.7238C45.8838 19.5867 46.1177 19.4593 46.352 19.3444C46.5919 19.2272 46.832 19.123 47.0662 19.0303C47.7469 18.7611 48.3965 18.5976 48.9631 18.5531C48.9115 18.5531 47.3715 18.5531 47.3715 18.5531H42.0069H18.3522H16.4761ZM33.4947 18.5738C33.4017 19.9924 33.6768 22.0702 34.3008 24.3771C34.4118 24.7876 34.5326 25.2053 34.6654 25.6279C34.7479 25.8888 34.833 26.1456 34.9203 26.3985C34.8691 26.4738 34.8175 26.5486 34.7691 26.6237C33.9905 27.817 33.5353 28.9448 33.4206 29.9255C33.0915 28.8234 32.8437 27.6162 32.7033 26.3362C32.6635 25.9695 32.6323 25.6068 32.6114 25.2485C32.4578 22.6457 32.7976 20.2862 33.4947 18.5738ZM17.9551 20.4203C17.9728 20.4199 17.9904 20.4203 18.0084 20.4203H21.5147C21.8144 20.4203 22.0462 20.4765 22.2112 20.5893C22.3753 20.7027 22.4368 20.8494 22.3979 21.0279L21.98 22.9159H20.7441L21.1501 21.0783H18.0559L16.9385 26.1287L16.5354 27.9575H19.6267L19.6297 27.9456L20.2491 25.1477H18.7968L18.9361 24.5164H21.6244L20.8538 28.0078C20.8433 28.0575 20.8251 28.1026 20.8004 28.1471C20.7369 28.2629 20.626 28.362 20.4714 28.4435C20.2571 28.5564 20.0005 28.6125 19.7008 28.6125H16.1975C15.8978 28.6125 15.666 28.5564 15.501 28.4435C15.3369 28.3307 15.2744 28.1865 15.3143 28.0078L16.8585 21.0279C16.8983 20.8494 17.0225 20.7027 17.2378 20.5893C17.2454 20.5852 17.254 20.5843 17.2615 20.5804C17.458 20.4819 17.6887 20.4266 17.9551 20.4203ZM23.4501 20.4203H27.8633C28.1592 20.4203 28.3918 20.4765 28.5569 20.5893C28.7228 20.7027 28.7864 20.8494 28.7465 21.0279L27.9226 24.7505C27.8837 24.9279 27.7565 25.0726 27.5402 25.1862C27.324 25.3002 27.0695 25.3581 26.7726 25.3581H23.5657L22.9462 28.1531L22.8455 28.6125H21.6362L21.7281 28.1975L23.4501 20.4203ZM29.5468 20.4203H30.7561L29.3867 26.6059L29.0874 27.9575H31.9801C32.0105 28.1793 32.0459 28.3972 32.0839 28.6125H27.7329L28.0767 27.0594L29.5468 20.4203ZM24.5141 21.0783L23.7109 24.7002H26.7252L27.5254 21.0783H24.5141ZM21.98 29.1815C21.9919 29.1811 22.0037 29.1815 22.0156 29.1815C22.156 29.1815 22.2785 29.2062 22.3772 29.2527C22.4825 29.302 22.5577 29.3753 22.5995 29.472C22.6403 29.5659 22.6509 29.6725 22.6291 29.7891L22.6202 29.8336H22.2734L22.2764 29.7921C22.2854 29.7106 22.2753 29.6465 22.2438 29.6024C22.2397 29.5969 22.2338 29.5896 22.229 29.5846C22.2212 29.5766 22.2094 29.5675 22.1994 29.5609C22.1508 29.5303 22.0749 29.5135 21.9771 29.5135C21.8471 29.5135 21.75 29.5361 21.6836 29.5817C21.6191 29.6262 21.5784 29.676 21.5651 29.7358C21.5518 29.7965 21.5736 29.8284 21.5888 29.8454C21.5893 29.8459 21.5912 29.8479 21.5918 29.8484C21.611 29.8648 21.6777 29.9032 21.8852 29.9521C22.073 29.9977 22.1973 30.0386 22.2675 30.0737C22.3737 30.1277 22.448 30.1978 22.4868 30.2841C22.5257 30.3695 22.5343 30.4694 22.5106 30.5775C22.4868 30.6828 22.4331 30.7799 22.3535 30.8709C22.2748 30.962 22.1746 31.0341 22.0541 31.0843C21.9346 31.1337 21.8035 31.1614 21.6688 31.1614C21.4981 31.1614 21.3611 31.1356 21.2539 31.0843C21.142 31.0312 21.0612 30.9474 21.0138 30.8383C20.9683 30.7321 20.9586 30.6115 20.9842 30.4797L20.9931 30.4382H21.3339L21.3309 30.4797C21.3224 30.5584 21.3308 30.622 21.3517 30.6694C21.3716 30.7149 21.4095 30.7526 21.4702 30.782C21.5347 30.8133 21.6153 30.8294 21.7073 30.8294C21.7899 30.8294 21.8653 30.8156 21.9326 30.7909C21.999 30.7672 22.0518 30.7359 22.0897 30.6961C22.1267 30.6562 22.1484 30.6142 22.1579 30.5686C22.1673 30.5278 22.1651 30.4933 22.149 30.4649C22.1309 30.4345 22.0953 30.4076 22.0393 30.3849L21.7488 30.2989C21.5867 30.2581 21.4775 30.2192 21.4139 30.1804C21.3276 30.1291 21.2654 30.0635 21.2331 29.9847C21.2009 29.907 21.1974 29.8208 21.2183 29.7269C21.2401 29.6264 21.2886 29.5307 21.3635 29.4453C21.4394 29.359 21.5373 29.2913 21.654 29.2467C21.7571 29.2081 21.8657 29.1854 21.98 29.1815ZM25.0921 29.1875C25.1108 29.186 25.1285 29.1875 25.1484 29.1875L25.3618 29.2112L25.4329 29.2171L25.3292 29.4809L25.3085 29.5224L25.1454 29.5076C25.0973 29.5076 25.0619 29.515 25.0387 29.5313C25.0372 29.5324 25.0342 29.536 25.0328 29.5372C25.0297 29.5399 25.0245 29.5447 25.021 29.5491C25.0067 29.5678 24.9893 29.6012 24.9765 29.6617C24.9765 29.6617 24.9703 29.6873 24.9646 29.7091C25.0396 29.7091 25.2195 29.7091 25.2195 29.7091L25.1543 30.0025C25.1543 30.0025 24.968 30.0025 24.9054 30.0025C24.8864 30.0879 24.6534 31.1318 24.6534 31.1318H24.3096C24.3096 31.1318 24.5331 30.1287 24.5616 30.0025C24.5037 30.0025 24.363 30.0025 24.363 30.0025L24.4282 29.7091C24.4282 29.7091 24.5697 29.7091 24.6238 29.7091C24.6333 29.6683 24.6475 29.6172 24.6475 29.6172C24.6684 29.5224 24.6902 29.4542 24.7186 29.4068C24.7575 29.3413 24.8124 29.2866 24.8817 29.2467C24.9387 29.2136 25.0108 29.1938 25.0921 29.1875ZM25.9131 29.2023C25.9131 29.2023 25.8232 29.6067 25.8005 29.7091C25.8668 29.7091 26.0227 29.7091 26.0227 29.7091L25.9575 30.0025C25.9575 30.0025 25.7941 30.0025 25.7353 30.0025C25.7172 30.0841 25.5752 30.7168 25.5752 30.7168C25.5752 30.7168 25.5633 30.7928 25.5633 30.8146C25.5634 30.8154 25.5633 30.8171 25.5633 30.8176C25.5634 30.8178 25.5633 30.8204 25.5633 30.8206C25.5634 30.8207 25.5662 30.8204 25.5663 30.8206L25.6019 30.8235L25.7649 30.8117L25.7471 31.0754L25.7501 31.1229L25.5159 31.1495C25.423 31.1495 25.3548 31.1344 25.3055 31.1021C25.2533 31.068 25.223 31.0227 25.2106 30.9658C25.2087 30.9554 25.2047 30.9402 25.2047 30.9184C25.2047 30.8757 25.2128 30.8035 25.2403 30.6783C25.2403 30.6783 25.3649 30.1201 25.3914 30.0025C25.3469 30.0025 25.2284 30.0025 25.2284 30.0025L25.2936 29.7091C25.2936 29.7091 25.4092 29.7091 25.4566 29.7091C25.4718 29.6408 25.5248 29.4068 25.5248 29.4068L25.8005 29.2616L25.9131 29.2023ZM14.9912 29.2141H16.325L16.2509 29.5461C16.2509 29.5461 15.3611 29.5461 15.2757 29.5461C15.2606 29.6134 15.1998 29.8861 15.1779 29.9847C15.3012 29.9847 16.0226 29.9847 16.0226 29.9847L15.9485 30.3167C15.9485 30.3167 15.1892 30.3167 15.1038 30.3167C15.0858 30.3992 14.923 31.1318 14.923 31.1318H14.5644L14.9912 29.2141ZM16.7784 29.6824C16.7918 29.6808 16.8064 29.6824 16.8199 29.6824C16.9053 29.6824 16.9841 29.7084 17.06 29.7625L17.1074 29.7951L16.9237 30.0974L16.8733 30.0618C16.8363 30.0381 16.7964 30.0262 16.7547 30.0262C16.7187 30.0262 16.6851 30.039 16.651 30.0618C16.6149 30.0855 16.5848 30.1169 16.5621 30.1596C16.5222 30.2326 16.4931 30.3144 16.4731 30.4026L16.3131 31.1318H15.9693L16.2864 29.7091H16.6065C16.6065 29.7091 16.5955 29.7523 16.5917 29.7684C16.6069 29.757 16.6229 29.7414 16.6362 29.7328C16.6821 29.7054 16.7306 29.6883 16.7784 29.6824ZM17.798 29.6824C17.8187 29.6809 17.8391 29.6824 17.8602 29.6824C18.0537 29.6824 18.2001 29.7502 18.2959 29.884C18.3557 29.9703 18.3878 30.077 18.3878 30.2041C18.3878 30.2743 18.3792 30.3498 18.3611 30.4323L18.3345 30.536C18.3345 30.536 17.465 30.536 17.3682 30.536C17.3663 30.5559 17.3653 30.5773 17.3653 30.5953C17.3653 30.6693 17.3804 30.7275 17.4127 30.7702C17.428 30.791 17.4458 30.8098 17.466 30.8235C17.5042 30.8484 17.5536 30.862 17.6113 30.862C17.6815 30.862 17.7431 30.8427 17.801 30.8057C17.856 30.7706 17.9086 30.7146 17.9551 30.6368H18.3226L18.29 30.7079C18.2198 30.8502 18.1219 30.9612 17.9995 31.0399C17.8772 31.1186 17.731 31.1614 17.5698 31.1614C17.3602 31.1614 17.2042 31.0936 17.1074 30.9599C17.0116 30.829 16.991 30.6481 17.0422 30.4204C17.0934 30.189 17.1956 30.0041 17.3445 29.8751C17.478 29.7594 17.6294 29.6952 17.798 29.6824ZM19.3422 29.6824C19.3629 29.6809 19.3833 29.6824 19.4044 29.6824C19.5979 29.6824 19.7443 29.7502 19.8401 29.884C19.8999 29.9703 19.932 30.077 19.932 30.2041C19.932 30.2733 19.9233 30.3478 19.9053 30.4293L19.8786 30.536C19.8786 30.536 19.0092 30.536 18.9124 30.536C18.9115 30.5493 18.9104 30.5613 18.9095 30.5746C18.9087 30.5795 18.9098 30.5871 18.9095 30.5923C18.9094 30.5932 18.9095 30.5945 18.9095 30.5953C18.9095 30.6095 18.9115 30.6235 18.9124 30.6368C18.9172 30.6909 18.9313 30.736 18.9569 30.7702C18.9618 30.7768 18.9663 30.785 18.9717 30.7909C19.0151 30.8374 19.0766 30.862 19.1555 30.862C19.2256 30.862 19.2882 30.8427 19.3451 30.8057C19.4002 30.7706 19.4528 30.7146 19.4993 30.6368H19.8697L19.8342 30.7079C19.764 30.8502 19.6661 30.9612 19.5437 31.0399C19.4214 31.1186 19.2752 31.1614 19.114 31.1614C18.9044 31.1614 18.7483 31.0936 18.6516 30.9599C18.589 30.8745 18.5597 30.7658 18.5597 30.6368C18.5597 30.6169 18.5608 30.5954 18.5627 30.5746C18.5665 30.5252 18.5741 30.4754 18.5864 30.4204C18.6376 30.19 18.7368 30.0041 18.8857 29.8751C19.0192 29.7594 19.1736 29.6952 19.3422 29.6824ZM23.5479 29.6824C23.5691 29.6808 23.5886 29.6824 23.6102 29.6824C23.8074 29.6824 23.9591 29.7492 24.0577 29.881C24.1554 30.0128 24.1791 30.1907 24.1288 30.4145C24.0899 30.589 24.0338 30.73 23.9569 30.8324C23.8801 30.9348 23.7822 31.0185 23.6665 31.0754C23.5517 31.1324 23.4302 31.1614 23.3078 31.1614C23.1068 31.1614 22.957 31.0926 22.8603 30.9599C22.7977 30.8754 22.7655 30.7667 22.7655 30.6368C22.7655 30.5666 22.7732 30.492 22.7921 30.4086C22.849 30.1544 22.9652 29.9608 23.1359 29.8365C23.2612 29.7461 23.3996 29.6938 23.5479 29.6824ZM28.7554 29.6824C28.7804 29.6809 28.8036 29.6824 28.8295 29.6824C28.949 29.6824 29.0429 29.6945 29.1141 29.7239C29.1899 29.7543 29.2438 29.7972 29.2741 29.8484C29.3035 29.8968 29.3186 29.9562 29.3186 30.0292L29.283 30.2456L29.2178 30.539C29.1618 30.7894 29.1495 30.8833 29.1467 30.9184C29.1438 30.9658 29.1482 31.012 29.1615 31.0547L29.1852 31.1318H28.8355L28.8206 31.0873C28.815 31.0664 28.8166 31.0399 28.8147 31.0162C28.7483 31.057 28.6818 31.0931 28.6221 31.114C28.5339 31.1443 28.4423 31.1614 28.3494 31.1614C28.1882 31.1614 28.0688 31.1194 27.9967 31.0369C27.9417 30.9762 27.9167 30.902 27.9167 30.8176C27.9167 30.7853 27.9209 30.7519 27.9285 30.7168C27.9446 30.6447 27.9739 30.578 28.0204 30.5182C28.0659 30.4594 28.1197 30.4111 28.1804 30.376C28.2393 30.3409 28.3048 30.316 28.3731 30.2989L28.5835 30.2633C28.7457 30.2444 28.8668 30.2208 28.954 30.1952C28.9559 30.1857 28.9599 30.1744 28.9599 30.1744C28.9737 30.1134 28.972 30.0675 28.957 30.044C28.9559 30.0425 28.9523 30.0394 28.9511 30.0381C28.9479 30.0347 28.9429 30.0293 28.9392 30.0262C28.9035 29.998 28.8427 29.9847 28.7614 29.9847C28.6694 29.9847 28.6013 29.9998 28.5539 30.0292C28.5074 30.0586 28.4644 30.1124 28.4264 30.1892H28.0678L28.1004 30.1181C28.1431 30.0195 28.194 29.9377 28.2575 29.8751C28.3211 29.8125 28.4069 29.764 28.5065 29.7298C28.5828 29.7047 28.6661 29.6879 28.7554 29.6824ZM30.2581 29.6824C30.2715 29.6808 30.2861 29.6824 30.2996 29.6824C30.3859 29.6824 30.4668 29.7084 30.5427 29.7625L30.5871 29.7951L30.4034 30.0974L30.353 30.0618C30.316 30.0381 30.2782 30.0262 30.2374 30.0262C30.2013 30.0262 30.1658 30.039 30.1307 30.0618C30.0946 30.0855 30.0684 30.1169 30.0447 30.1596C30.0058 30.2326 29.9757 30.3144 29.9558 30.4026L29.7928 31.1318H29.449L29.7661 29.7091H30.0862C30.0862 29.7091 30.0782 29.7523 30.0744 29.7684C30.0895 29.757 30.1046 29.7414 30.1188 29.7328C30.164 29.7054 30.2104 29.6883 30.2581 29.6824ZM31.2747 29.6824C31.2954 29.6809 31.3158 29.6824 31.337 29.6824C31.5305 29.6824 31.6778 29.7502 31.7727 29.884C31.8334 29.9703 31.8645 30.077 31.8645 30.2041C31.8645 30.2743 31.8529 30.3498 31.8349 30.4323L31.8112 30.536C31.8112 30.536 30.9408 30.536 30.845 30.536C30.8431 30.5559 30.839 30.5773 30.839 30.5953C30.839 30.6693 30.8552 30.7275 30.8865 30.7702C30.8913 30.7768 30.8989 30.785 30.9042 30.7909C30.9074 30.7942 30.9128 30.7997 30.9161 30.8028C30.9585 30.8413 31.0162 30.862 31.088 30.862C31.1582 30.862 31.2198 30.8427 31.2777 30.8057C31.3327 30.7706 31.3844 30.7146 31.4318 30.6368H31.8023L31.7667 30.7079C31.6965 30.8502 31.5977 30.9612 31.4763 31.0399C31.353 31.1186 31.2087 31.1614 31.0465 31.1614C30.8369 31.1614 30.6839 31.0936 30.5871 30.9599C30.4913 30.829 30.4687 30.6481 30.5189 30.4204C30.5702 30.189 30.6694 30.0041 30.8183 29.8751C30.9526 29.7594 31.1063 29.6952 31.2747 29.6824ZM26.085 29.7091H26.4377C26.4377 29.7091 26.4812 30.5533 26.4821 30.5657C26.4964 30.5354 26.5074 30.51 26.5088 30.5064L26.8971 29.7091H27.2202C27.2202 29.7091 27.2498 30.5431 27.2498 30.5479C27.2593 30.5308 27.6914 29.7091 27.6914 29.7091H28.0411L27.2705 31.1318H26.9534C26.9534 31.1318 26.9227 30.3603 26.9208 30.3167C26.7899 30.5851 26.5236 31.1318 26.5236 31.1318H26.1976L26.085 29.7091ZM17.8039 29.9788C17.7222 29.9823 17.648 30.0117 17.5787 30.0677C17.5237 30.1114 17.4866 30.1712 17.4572 30.2367H18.041C18.042 30.2262 18.044 30.2136 18.044 30.2041C18.044 30.15 18.0344 30.108 18.0173 30.0796C17.9756 30.0113 17.9137 29.9788 17.8217 29.9788C17.8162 29.9788 17.8094 29.9786 17.8039 29.9788ZM19.3481 29.9788C19.2664 29.9823 19.1922 30.0117 19.1229 30.0677C19.0678 30.1114 19.0317 30.1712 19.0013 30.2367H19.5852C19.5862 30.2262 19.5882 30.2136 19.5882 30.2041C19.5882 30.15 19.5795 30.108 19.5615 30.0796C19.5532 30.0657 19.542 30.0519 19.5319 30.0411C19.4923 30.0001 19.4378 29.9788 19.3659 29.9788C19.3604 29.9788 19.3536 29.9786 19.3481 29.9788ZM31.2925 29.9788C31.2085 29.9814 31.13 30.0098 31.0584 30.0677C31.0043 30.1114 30.9672 30.1712 30.9368 30.2367H31.5178C31.5187 30.2262 31.5207 30.2136 31.5207 30.2041C31.5207 30.15 31.5121 30.108 31.4941 30.0796C31.4533 30.0122 31.3904 29.9798 31.2984 29.9788C31.2957 29.9788 31.2952 29.9787 31.2925 29.9788ZM23.5272 29.9847C23.4488 29.9941 23.3759 30.0298 23.3078 30.0914C23.2263 30.1654 23.1671 30.2816 23.133 30.4353C23.1187 30.4997 23.1122 30.5549 23.1122 30.6042C23.1122 30.6715 23.1251 30.7244 23.1508 30.7642C23.1576 30.7745 23.1666 30.7853 23.1745 30.7939C23.2166 30.8386 23.2755 30.862 23.3493 30.862C23.4451 30.862 23.5295 30.8264 23.6102 30.7524C23.6917 30.6775 23.7499 30.5601 23.785 30.4026C23.8173 30.2585 23.8128 30.1508 23.7672 30.0826C23.7236 30.0162 23.6598 29.9847 23.5716 29.9847C23.5567 29.9847 23.5417 29.983 23.5272 29.9847ZM28.8829 30.5034C28.8023 30.5252 28.7119 30.5436 28.5924 30.5597C28.5033 30.573 28.4397 30.587 28.4027 30.6012C28.3705 30.6145 28.3445 30.6329 28.3227 30.6575C28.3018 30.6813 28.2879 30.7062 28.2812 30.7346C28.2793 30.746 28.2783 30.7577 28.2783 30.7672C28.2783 30.768 28.2782 30.7694 28.2783 30.7702C28.2784 30.7724 28.278 30.7769 28.2783 30.7791C28.2788 30.7834 28.28 30.7899 28.2812 30.7939C28.2816 30.7952 28.2837 30.7985 28.2842 30.7998C28.2852 30.8024 28.2859 30.8063 28.2871 30.8087C28.2885 30.8111 28.2915 30.8153 28.2931 30.8176C28.2956 30.821 28.2989 30.8262 28.302 30.8294C28.3257 30.856 28.373 30.868 28.4413 30.868C28.5162 30.868 28.5883 30.8538 28.6547 30.8206C28.7201 30.7883 28.7729 30.7402 28.8118 30.6842C28.8402 30.6444 28.863 30.5831 28.8829 30.5034Z" fill="#BD0000"/>
<path fill-rule="evenodd" clip-rule="evenodd" d="M31.3022 29.9798C31.3013 29.9798 31.3003 29.9798 31.2994 29.9798C31.3914 29.9808 31.4521 30.0121 31.4928 30.0794C31.5109 30.1079 31.5203 30.1506 31.5203 30.2046C31.5203 30.2141 31.5185 30.2264 31.5175 30.2369H31.5213C31.5213 30.2264 31.5232 30.2141 31.5232 30.2046C31.5232 30.1506 31.5147 30.1079 31.4966 30.0794C31.4559 30.0111 31.3942 29.9798 31.3022 29.9798Z" fill="#BD0000"/>
<path fill-rule="evenodd" clip-rule="evenodd" d="M12 37.8178H12.7075L13.0253 36.49H14.1748L14.3227 35.921H13.1685L13.3601 35.0674H14.5883L14.7362 34.4035H12.7967L12 37.8178Z" fill="#BD0000"/>
<path fill-rule="evenodd" clip-rule="evenodd" d="M15.1735 37.8178L15.3859 36.9263C15.4978 36.4436 15.734 36.0158 16.1807 36.0158C16.2206 36.0158 16.2594 36.0357 16.2888 36.0405L16.4615 35.3566C16.4216 35.3566 16.378 35.3519 16.3287 35.3519C15.9996 35.3519 15.7236 35.5833 15.5396 35.9153H15.5206C15.5481 35.7531 15.5718 35.5994 15.5898 35.4467H14.98C14.9449 35.644 14.8908 36.03 14.8083 36.3781L14.4612 37.8178H15.1735Z" fill="#BD0000"/>
<path fill-rule="evenodd" clip-rule="evenodd" d="M18.3204 37.1776C18.1241 37.2734 17.9002 37.2488 17.6394 37.2488C17.4336 37.2488 17.2743 37.2127 17.187 37.1425C17.1415 37.0657 17.1225 36.9462 17.1263 36.8694C18.0871 36.895 18.6931 36.6731 18.7235 36.0661C18.7462 35.608 18.4114 35.3519 17.9249 35.3519C17.0561 35.3519 16.4871 36.1182 16.4501 36.8561C16.4178 37.5001 16.7517 37.8178 17.4402 37.8178C17.7049 37.8178 18.0558 37.7875 18.3432 37.7012L18.3204 37.1776ZM18.0605 36.0661C18.0491 36.2918 17.7703 36.3051 17.2212 36.3003C17.2809 36.1021 17.482 35.921 17.8111 35.921C17.9733 35.921 18.0662 35.9826 18.0605 36.0661Z" fill="#BD0000"/>
<path fill-rule="evenodd" clip-rule="evenodd" d="M20.8347 37.1776C20.6384 37.2734 20.4146 37.2488 20.1547 37.2488C19.9479 37.2488 19.7895 37.2127 19.7023 37.1425C19.6568 37.0657 19.6368 36.9462 19.6406 36.8694C20.6023 36.895 21.2075 36.6731 21.2388 36.0661C21.2615 35.608 20.9267 35.3519 20.4402 35.3519C19.5704 35.3519 19.0014 36.1182 18.9644 36.8561C18.9331 37.5001 19.2669 37.8178 19.9546 37.8178C20.2201 37.8178 20.571 37.7875 20.8584 37.7012L20.8347 37.1776ZM20.5758 36.0661C20.5644 36.2918 20.2856 36.3051 19.7355 36.3003C19.7962 36.1021 19.9963 35.921 20.3254 35.921C20.4876 35.921 20.5815 35.9826 20.5758 36.0661Z" fill="#BD0000"/>
<path fill-rule="evenodd" clip-rule="evenodd" d="M24.4957 37.8178C24.5014 37.5172 24.5735 37.0449 24.6484 36.7347L24.9528 35.4467C24.7594 35.3813 24.4578 35.3519 24.1675 35.3519C22.9896 35.3519 22.4053 36.2245 22.3645 37.042C22.3389 37.5551 22.6168 37.8178 23.0493 37.8178C23.3291 37.8178 23.6449 37.6822 23.8906 37.2744H23.901C23.882 37.4707 23.8593 37.6613 23.847 37.8178H24.4957ZM24.0091 36.4635C23.8707 37.0667 23.588 37.2488 23.3775 37.2488C23.1812 37.2488 23.0958 37.1093 23.1072 36.9064C23.1299 36.4483 23.4922 35.921 23.9494 35.921C24.0234 35.921 24.0812 35.9077 24.1353 35.8944L24.0091 36.4635Z" fill="#BD0000"/>
<path fill-rule="evenodd" clip-rule="evenodd" d="M24.9595 37.7059C25.096 37.8122 25.3825 37.8131 25.6812 37.8178C26.3195 37.8226 26.8013 37.5437 26.8298 37.0316C26.8459 36.6902 26.5813 36.4881 26.3224 36.3525C26.1355 36.2624 26.0416 36.1761 26.0464 36.0756C26.053 35.9399 26.1801 35.921 26.367 35.921C26.5775 35.921 26.7463 35.9466 26.8431 35.9655L27.0347 35.4515C26.9256 35.386 26.7074 35.3519 26.4277 35.3519C25.8083 35.3519 25.355 35.6791 25.3294 36.1761C25.3142 36.4834 25.5352 36.6902 25.8026 36.8305C26.0189 36.9415 26.0929 37.0268 26.0872 37.1473C26.0805 37.2687 25.9724 37.2488 25.7761 37.2488C25.5456 37.2488 25.2905 37.2184 25.1558 37.1976L24.9595 37.7059Z" fill="#BD0000"/>
<path fill-rule="evenodd" clip-rule="evenodd" d="M28.7437 37.8178L29.3175 35.4467H28.6148L28.0372 37.8178H28.7437ZM29.0729 35.1622C29.3138 35.1622 29.5281 34.963 29.5414 34.6216C29.5528 34.3902 29.4029 34.3086 29.1819 34.3086C28.9515 34.3086 28.7409 34.4585 28.7286 34.6823C28.7172 34.908 28.867 35.1622 29.0729 35.1622Z" fill="#BD0000"/>
<path fill-rule="evenodd" clip-rule="evenodd" d="M30.1 37.8178L30.3504 36.7499C30.4803 36.2064 30.7601 36.0158 30.9906 36.0158C31.1727 36.0158 31.2258 36.0936 31.2173 36.2064C31.2125 36.2975 31.1983 36.3933 31.1793 36.4786L30.8607 37.8178H31.5682L31.9039 36.4132C31.9296 36.2918 31.958 36.1106 31.9637 36.0006C31.9846 35.5729 31.7712 35.4173 31.3785 35.4173C31.0636 35.4173 30.7573 35.5634 30.5154 35.8802H30.5059L30.5704 35.4467H29.9464C29.9056 35.6497 29.8534 35.8953 29.7794 36.1818L29.3925 37.8178H30.1Z" fill="#BD0000"/>
<path fill-rule="evenodd" clip-rule="evenodd" d="M33.1445 37.8178H33.8521L34.1707 36.49H35.3193L35.4672 35.921H34.313L34.5046 35.0674H35.7328L35.8808 34.4035H33.9412L33.1445 37.8178Z" fill="#BD0000"/>
<path fill-rule="evenodd" clip-rule="evenodd" d="M36.318 37.8178L36.5304 36.9263C36.6424 36.4436 36.8785 36.0158 37.3252 36.0158C37.3651 36.0158 37.404 36.0357 37.4334 36.0405L37.606 35.3566C37.5661 35.3566 37.5225 35.3519 37.4732 35.3519C37.1441 35.3519 36.8681 35.5833 36.6841 35.9153H36.6651C36.6926 35.7531 36.7163 35.5994 36.7344 35.4467H36.1245C36.0904 35.644 36.0354 36.03 35.9528 36.3781L35.6057 37.8178H36.318Z" fill="#BD0000"/>
<path fill-rule="evenodd" clip-rule="evenodd" d="M39.4649 37.1776C39.2686 37.2734 39.0448 37.2488 38.7839 37.2488C38.5781 37.2488 38.4188 37.2127 38.3315 37.1425C38.286 37.0657 38.267 36.9462 38.2708 36.8694C39.2316 36.895 39.8376 36.6731 39.868 36.0661C39.8908 35.608 39.556 35.3519 39.0694 35.3519C38.2006 35.3519 37.6316 36.1182 37.5946 36.8561C37.5623 37.5001 37.8971 37.8178 38.5848 37.8178C38.8494 37.8178 39.2012 37.7875 39.4877 37.7012L39.4649 37.1776ZM39.205 36.0661C39.1937 36.2918 38.9148 36.3051 38.3657 36.3003C38.4254 36.1021 38.6265 35.921 38.9556 35.921C39.1178 35.921 39.2107 35.9826 39.205 36.0661Z" fill="#BD0000"/>
<path fill-rule="evenodd" clip-rule="evenodd" d="M41.9792 37.1776C41.7829 37.2734 41.5591 37.2488 41.2992 37.2488C41.0924 37.2488 40.9341 37.2127 40.8468 37.1425C40.8013 37.0657 40.7814 36.9462 40.7851 36.8694C41.7469 36.895 42.352 36.6731 42.3833 36.0661C42.406 35.608 42.0712 35.3519 41.5847 35.3519C40.715 35.3519 40.1459 36.1182 40.1089 36.8561C40.0776 37.5001 40.4115 37.8178 41.0991 37.8178C41.3646 37.8178 41.7156 37.7875 42.0029 37.7012L41.9792 37.1776ZM41.7203 36.0661C41.7089 36.2918 41.4301 36.3051 40.88 36.3003C40.9407 36.1021 41.1408 35.921 41.4699 35.921C41.6321 35.921 41.726 35.9826 41.7203 36.0661Z" fill="#BD0000"/>
<path fill-rule="evenodd" clip-rule="evenodd" d="M44.7904 34.3086L44.5239 35.386C44.4271 35.3462 44.301 35.3519 44.2024 35.3519C43.2938 35.3519 42.6507 36.1296 42.608 36.9718C42.5796 37.5656 42.8964 37.8178 43.3042 37.8178C43.5897 37.8178 43.8903 37.6917 44.118 37.3654H44.1274L44.0734 37.8178H44.7164C44.7458 37.5333 44.8075 37.1947 44.8767 36.8855L45.4922 34.3086H44.7904ZM44.2365 36.6247C44.1255 37.0923 43.8638 37.2488 43.657 37.2488C43.4512 37.2488 43.3364 37.1056 43.3507 36.8504C43.3744 36.3781 43.6987 35.921 44.1208 35.921C44.2394 35.921 44.3408 35.939 44.3968 35.9655L44.2365 36.6247Z" fill="#BD0000"/>
<path fill-rule="evenodd" clip-rule="evenodd" d="M46.4037 37.8178C47.2288 37.8178 47.8652 37.1928 47.9098 36.3421C47.9373 35.7787 47.5864 35.3519 46.9386 35.3519C46.0831 35.3519 45.4694 36.0442 45.4268 36.8808C45.3974 37.4897 45.79 37.8178 46.4037 37.8178ZM46.5146 37.2488C46.2737 37.2488 46.1409 37.0951 46.1552 36.8656C46.1741 36.4834 46.4103 35.921 46.8172 35.921C47.0979 35.921 47.1842 36.1362 47.1728 36.3477C47.152 36.7651 46.8978 37.2488 46.5146 37.2488Z" fill="#BD0000"/>
<path fill-rule="evenodd" clip-rule="evenodd" d="M48.789 37.8178L49.0451 36.7347C49.1523 36.252 49.4197 35.921 49.6597 35.921C49.8323 35.921 49.8797 36.0471 49.8712 36.2121C49.8665 36.2975 49.8475 36.3933 49.8276 36.4881L49.5108 37.8178H50.1937L50.4497 36.73C50.5674 36.2321 50.8196 35.921 51.0549 35.921C51.217 35.921 51.2844 36.0367 51.2768 36.2017C51.272 36.2975 51.2521 36.4028 51.2275 36.4986L50.9202 37.8178H51.6078L51.9388 36.4132C51.9644 36.2871 51.9938 36.0907 51.9986 35.9902C52.0194 35.5729 51.8155 35.3519 51.4475 35.3519C51.1326 35.3519 50.8263 35.4942 50.5939 35.7939C50.5854 35.5776 50.4308 35.3519 50.0476 35.3519C49.7375 35.3519 49.4416 35.4923 49.2044 35.81H49.195L49.2585 35.4467H48.6496C48.6098 35.6497 48.5614 35.8954 48.4874 36.1818L48.1062 37.8178H48.789Z" fill="#BD0000"/>
<path d="M33.7203 31.4542C33.7588 31.5532 33.7973 31.652 33.8374 31.7487C33.8992 31.88 33.9706 32.0057 34.0564 32.123C34.52 32.7533 35.2965 33.0983 36.2823 33.1842H37.3427C37.6779 33.1581 38.0293 33.1093 38.3934 33.0381C39.0215 32.9153 39.6872 32.7266 40.3787 32.4745C40.9024 32.2835 41.4407 32.0576 41.9869 31.795C43.1764 31.2248 44.4053 30.4893 45.6108 29.6018C46.0079 29.3097 46.3889 29.01 46.7546 28.7053C47.0899 28.4263 47.4116 28.143 47.7188 27.8566C48.5762 27.0303 49.2235 26.191 49.5901 25.4541C49.9719 24.6867 50.0481 24.0306 49.7353 23.6173C49.5436 23.3636 49.2227 23.2276 48.8097 23.1956C50.6706 21.7993 51.755 20.1055 51.366 19.0375C51.2425 18.6967 50.9705 18.4425 50.5807 18.3018C50.4075 18.2395 50.2126 18.2001 50 18.1821H49.4273C48.6276 18.2398 47.4647 18.5261 46.4781 19.0096" stroke="#BD0000" stroke-width="0.5"/>
<g filter="url(#filter0_d_1_50)">
<path d="M61.2784 24.5V12.8636H63.0341V22.9886H68.3068V24.5H61.2784ZM70.1733 24.5V15.7727H71.8722V24.5H70.1733ZM71.0312 14.4261C70.7358 14.4261 70.482 14.3277 70.2699 14.1307C70.0616 13.9299 69.9574 13.6913 69.9574 13.4148C69.9574 13.1345 70.0616 12.8958 70.2699 12.6989C70.482 12.4981 70.7358 12.3977 71.0312 12.3977C71.3267 12.3977 71.5786 12.4981 71.7869 12.6989C71.999 12.8958 72.1051 13.1345 72.1051 13.4148C72.1051 13.6913 71.999 13.9299 71.7869 14.1307C71.5786 14.3277 71.3267 14.4261 71.0312 14.4261ZM77.8338 24.6761C76.9891 24.6761 76.2618 24.4848 75.652 24.1023C75.0459 23.7159 74.58 23.1837 74.2543 22.5057C73.9285 21.8277 73.7656 21.0511 73.7656 20.1761C73.7656 19.2898 73.9323 18.5076 74.2656 17.8295C74.599 17.1477 75.0687 16.6155 75.6747 16.233C76.2808 15.8504 76.9948 15.6591 77.8168 15.6591C78.4796 15.6591 79.0705 15.7822 79.5895 16.0284C80.1084 16.2708 80.527 16.6117 80.8452 17.0511C81.1671 17.4905 81.3584 18.0038 81.419 18.5909H79.7656C79.6747 18.1818 79.4664 17.8295 79.1406 17.5341C78.8186 17.2386 78.3868 17.0909 77.8452 17.0909C77.3717 17.0909 76.9569 17.2159 76.6008 17.4659C76.2486 17.7121 75.974 18.0644 75.777 18.5227C75.58 18.9773 75.4815 19.5152 75.4815 20.1364C75.4815 20.7727 75.5781 21.322 75.7713 21.7841C75.9645 22.2462 76.2372 22.6042 76.5895 22.858C76.9455 23.1117 77.3641 23.2386 77.8452 23.2386C78.1671 23.2386 78.4588 23.1799 78.7202 23.0625C78.9853 22.9413 79.2069 22.7689 79.3849 22.5455C79.5668 22.322 79.6936 22.053 79.7656 21.7386H81.419C81.3584 22.303 81.1747 22.8068 80.8679 23.25C80.5611 23.6932 80.1501 24.0417 79.6349 24.2955C79.1236 24.5492 78.5232 24.6761 77.8338 24.6761ZM86.9972 24.6761C86.1373 24.6761 85.3968 24.4924 84.7756 24.125C84.1581 23.7538 83.6809 23.233 83.3437 22.5625C83.0104 21.8883 82.8437 21.0985 82.8437 20.1932C82.8437 19.2992 83.0104 18.5114 83.3437 17.8295C83.6809 17.1477 84.1506 16.6155 84.7528 16.233C85.3589 15.8504 86.0672 15.6591 86.8778 15.6591C87.3703 15.6591 87.8475 15.7405 88.3097 15.9034C88.7718 16.0663 89.1865 16.322 89.554 16.6705C89.9214 17.0189 90.2112 17.4716 90.4233 18.0284C90.6354 18.5814 90.7415 19.2538 90.7415 20.0455V20.6477H83.804V19.375H89.0767C89.0767 18.928 88.9858 18.5322 88.804 18.1875C88.6222 17.839 88.3665 17.5644 88.0369 17.3636C87.7112 17.1629 87.3286 17.0625 86.8892 17.0625C86.4119 17.0625 85.9953 17.1799 85.6392 17.4148C85.2869 17.6458 85.0142 17.9489 84.821 18.3239C84.6316 18.6951 84.5369 19.0985 84.5369 19.5341V20.5284C84.5369 21.1117 84.6392 21.608 84.8437 22.017C85.0521 22.4261 85.3418 22.7386 85.7131 22.9545C86.0843 23.1667 86.518 23.2727 87.0142 23.2727C87.3362 23.2727 87.6297 23.2273 87.8949 23.1364C88.16 23.0417 88.3892 22.9015 88.5824 22.7159C88.7756 22.5303 88.9233 22.3011 89.0256 22.0284L90.6335 22.3182C90.5047 22.7917 90.2737 23.2064 89.9403 23.5625C89.6108 23.9148 89.196 24.1894 88.696 24.3864C88.1998 24.5795 87.6335 24.6761 86.9972 24.6761ZM94.3253 19.3182V24.5H92.6264V15.7727H94.2571V17.1932H94.365C94.5658 16.7311 94.8802 16.3599 95.3082 16.0795C95.74 15.7992 96.2836 15.6591 96.9389 15.6591C97.5336 15.6591 98.0544 15.7841 98.5014 16.0341C98.9484 16.2803 99.295 16.6477 99.5412 17.1364C99.7874 17.625 99.9105 18.2292 99.9105 18.9489V24.5H98.2116V19.1534C98.2116 18.5208 98.0469 18.0265 97.7173 17.6705C97.3878 17.3106 96.9351 17.1307 96.3594 17.1307C95.9654 17.1307 95.615 17.2159 95.3082 17.3864C95.0052 17.5568 94.7647 17.8068 94.5866 18.1364C94.4124 18.4621 94.3253 18.8561 94.3253 19.3182ZM108.729 17.9034L107.189 18.1761C107.125 17.9792 107.022 17.7917 106.882 17.6136C106.746 17.4356 106.56 17.2898 106.325 17.1761C106.09 17.0625 105.797 17.0057 105.445 17.0057C104.964 17.0057 104.562 17.1136 104.24 17.3295C103.918 17.5417 103.757 17.8163 103.757 18.1534C103.757 18.4451 103.865 18.6799 104.081 18.858C104.297 19.036 104.645 19.1818 105.126 19.2955L106.513 19.6136C107.316 19.7992 107.914 20.0852 108.308 20.4716C108.702 20.858 108.899 21.3598 108.899 21.9773C108.899 22.5 108.748 22.9659 108.445 23.375C108.145 23.7803 107.727 24.0985 107.189 24.3295C106.655 24.5606 106.035 24.6761 105.331 24.6761C104.354 24.6761 103.556 24.4678 102.939 24.0511C102.321 23.6307 101.943 23.0341 101.803 22.2614L103.445 22.0114C103.547 22.4394 103.757 22.7633 104.075 22.983C104.393 23.1989 104.808 23.3068 105.32 23.3068C105.876 23.3068 106.321 23.1913 106.655 22.9602C106.988 22.7254 107.155 22.4394 107.155 22.1023C107.155 21.8295 107.053 21.6004 106.848 21.4148C106.647 21.2292 106.339 21.089 105.922 20.9943L104.445 20.6705C103.63 20.4848 103.028 20.1894 102.638 19.7841C102.251 19.3788 102.058 18.8655 102.058 18.2443C102.058 17.7292 102.202 17.2784 102.49 16.892C102.778 16.5057 103.176 16.2045 103.683 15.9886C104.191 15.7689 104.772 15.6591 105.428 15.6591C106.371 15.6591 107.113 15.8636 107.655 16.2727C108.196 16.678 108.554 17.2216 108.729 17.9034ZM114.528 24.6761C113.669 24.6761 112.928 24.4924 112.307 24.125C111.689 23.7538 111.212 23.233 110.875 22.5625C110.542 21.8883 110.375 21.0985 110.375 20.1932C110.375 19.2992 110.542 18.5114 110.875 17.8295C111.212 17.1477 111.682 16.6155 112.284 16.233C112.89 15.8504 113.598 15.6591 114.409 15.6591C114.901 15.6591 115.379 15.7405 115.841 15.9034C116.303 16.0663 116.718 16.322 117.085 16.6705C117.453 17.0189 117.742 17.4716 117.955 18.0284C118.167 18.5814 118.273 19.2538 118.273 20.0455V20.6477H111.335V19.375H116.608C116.608 18.928 116.517 18.5322 116.335 18.1875C116.153 17.839 115.898 17.5644 115.568 17.3636C115.242 17.1629 114.86 17.0625 114.42 17.0625C113.943 17.0625 113.526 17.1799 113.17 17.4148C112.818 17.6458 112.545 17.9489 112.352 18.3239C112.163 18.6951 112.068 19.0985 112.068 19.5341V20.5284C112.068 21.1117 112.17 21.608 112.375 22.017C112.583 22.4261 112.873 22.7386 113.244 22.9545C113.616 23.1667 114.049 23.2727 114.545 23.2727C114.867 23.2727 115.161 23.2273 115.426 23.1364C115.691 23.0417 115.92 22.9015 116.114 22.7159C116.307 22.5303 116.455 22.3011 116.557 22.0284L118.165 22.3182C118.036 22.7917 117.805 23.2064 117.472 23.5625C117.142 23.9148 116.727 24.1894 116.227 24.3864C115.731 24.5795 115.165 24.6761 114.528 24.6761ZM123.425 24.6705C122.72 24.6705 122.091 24.4905 121.538 24.1307C120.989 23.767 120.557 23.25 120.243 22.5795C119.932 21.9053 119.777 21.0966 119.777 20.1534C119.777 19.2102 119.934 18.4034 120.249 17.733C120.567 17.0625 121.002 16.5492 121.555 16.1932C122.108 15.8371 122.735 15.6591 123.436 15.6591C123.978 15.6591 124.413 15.75 124.743 15.9318C125.076 16.1099 125.334 16.3182 125.516 16.5568C125.701 16.7955 125.845 17.0057 125.947 17.1875H126.05V12.8636H127.749V24.5H126.089V23.142H125.947C125.845 23.3277 125.697 23.5398 125.504 23.7784C125.315 24.017 125.053 24.2254 124.72 24.4034C124.387 24.5814 123.955 24.6705 123.425 24.6705ZM123.8 23.2216C124.288 23.2216 124.701 23.0928 125.038 22.8352C125.379 22.5739 125.637 22.2121 125.811 21.75C125.989 21.2879 126.078 20.75 126.078 20.1364C126.078 19.5303 125.991 19 125.817 18.5455C125.642 18.0909 125.387 17.7367 125.05 17.483C124.713 17.2292 124.296 17.1023 123.8 17.1023C123.288 17.1023 122.862 17.2349 122.521 17.5C122.18 17.7652 121.923 18.1269 121.749 18.5852C121.578 19.0436 121.493 19.5606 121.493 20.1364C121.493 20.7197 121.58 21.2443 121.754 21.7102C121.928 22.1761 122.186 22.5455 122.527 22.8182C122.872 23.0871 123.296 23.2216 123.8 23.2216ZM134.544 24.5V12.8636H136.243V17.1875H136.345C136.444 17.0057 136.586 16.7955 136.771 16.5568C136.957 16.3182 137.214 16.1099 137.544 15.9318C137.874 15.75 138.309 15.6591 138.851 15.6591C139.555 15.6591 140.184 15.8371 140.737 16.1932C141.29 16.5492 141.724 17.0625 142.038 17.733C142.357 18.4034 142.516 19.2102 142.516 20.1534C142.516 21.0966 142.358 21.9053 142.044 22.5795C141.73 23.25 141.298 23.767 140.749 24.1307C140.199 24.4905 139.572 24.6705 138.868 24.6705C138.338 24.6705 137.904 24.5814 137.567 24.4034C137.233 24.2254 136.972 24.017 136.783 23.7784C136.593 23.5398 136.447 23.3277 136.345 23.142H136.203V24.5H134.544ZM136.209 20.1364C136.209 20.75 136.298 21.2879 136.476 21.75C136.654 22.2121 136.911 22.5739 137.249 22.8352C137.586 23.0928 137.999 23.2216 138.487 23.2216C138.995 23.2216 139.419 23.0871 139.76 22.8182C140.101 22.5455 140.358 22.1761 140.533 21.7102C140.711 21.2443 140.8 20.7197 140.8 20.1364C140.8 19.5606 140.713 19.0436 140.538 18.5852C140.368 18.1269 140.11 17.7652 139.766 17.5C139.425 17.2349 138.999 17.1023 138.487 17.1023C137.995 17.1023 137.578 17.2292 137.237 17.483C136.9 17.7367 136.644 18.0909 136.47 18.5455C136.296 19 136.209 19.5303 136.209 20.1364ZM145.2 27.7727C144.946 27.7727 144.715 27.7519 144.507 27.7102C144.299 27.6723 144.143 27.6307 144.041 27.5852L144.45 26.1932C144.761 26.2765 145.037 26.3125 145.28 26.3011C145.522 26.2898 145.736 26.1989 145.922 26.0284C146.111 25.858 146.278 25.5795 146.422 25.1932L146.632 24.6136L143.439 15.7727H145.257L147.467 22.5455H147.558L149.768 15.7727H151.592L147.996 25.6648C147.829 26.1193 147.617 26.5038 147.359 26.8182C147.102 27.1364 146.795 27.375 146.439 27.5341C146.083 27.6932 145.67 27.7727 145.2 27.7727Z" fill="#E8E8E8"/>
<path d="M69.0494 35.1751C68.9809 34.9215 68.8803 34.6982 68.7475 34.505C68.6147 34.3078 68.4517 34.1407 68.2585 34.0039C68.0653 33.8671 67.844 33.7644 67.5945 33.696C67.3449 33.6236 67.0713 33.5874 66.7734 33.5874C66.1738 33.5874 65.6546 33.7322 65.2159 34.022C64.7812 34.3118 64.4452 34.7344 64.2077 35.2898C63.9703 35.8411 63.8516 36.5112 63.8516 37.3001C63.8516 38.0929 63.9663 38.7691 64.1957 39.3285C64.4251 39.8879 64.7571 40.3145 65.1918 40.6083C65.6264 40.9021 66.1536 41.049 66.7734 41.049C67.3208 41.049 67.7836 40.9605 68.1619 40.7834C68.5443 40.6023 68.834 40.3467 69.0312 40.0167C69.2285 39.6867 69.3271 39.2983 69.3271 38.8516L69.8825 38.918H66.8761V36.7386H72.2067V38.3746C72.2067 39.4814 71.9712 40.4292 71.5004 41.218C71.0335 42.0069 70.3896 42.6126 69.5685 43.0352C68.7515 43.4577 67.8118 43.669 66.7493 43.669C65.5701 43.669 64.5337 43.4135 63.6403 42.9023C62.7468 42.3912 62.0505 41.6628 61.5515 40.717C61.0524 39.7672 60.8029 38.6403 60.8029 37.3363C60.8029 36.3221 60.9538 35.4226 61.2557 34.6378C61.5575 33.849 61.9781 33.1809 62.5174 32.6335C63.0607 32.0862 63.6886 31.6716 64.4009 31.3899C65.1173 31.1082 65.888 30.9673 66.7131 30.9673C67.4294 30.9673 68.0955 31.07 68.7113 31.2752C69.3311 31.4805 69.8784 31.7702 70.3533 32.1445C70.8323 32.5188 71.2206 32.9635 71.5185 33.4787C71.8163 33.9938 72.0014 34.5593 72.0739 35.1751H69.0494ZM73.9679 43.5V31.1364H79.0752C80.0009 31.1364 80.7997 31.3175 81.4719 31.6797C82.148 32.0379 82.6692 32.5389 83.0354 33.1829C83.4017 33.8228 83.5848 34.5674 83.5848 35.4165C83.5848 36.2698 83.3976 37.0163 83.0233 37.6562C82.6531 38.2921 82.1238 38.7852 81.4356 39.1353C80.7474 39.4854 79.9304 39.6605 78.9846 39.6605H75.8334V37.3061H78.4292C78.88 37.3061 79.2563 37.2276 79.5581 37.0707C79.864 36.9137 80.0954 36.6944 80.2524 36.4126C80.4094 36.1269 80.4878 35.7949 80.4878 35.4165C80.4878 35.0342 80.4094 34.7042 80.2524 34.4265C80.0954 34.1448 79.864 33.9274 79.5581 33.7745C79.2523 33.6216 78.876 33.5451 78.4292 33.5451H76.9562V43.5H73.9679ZM85.0578 43.5V31.1364H88.0461V41.0731H93.1895V43.5H85.0578ZM107.384 34.2273L104.202 43.5H100.822L97.6463 34.2273H100.755L102.464 40.6143H102.56L104.275 34.2273H107.384ZM113.194 43.669C112.253 43.669 111.418 43.508 110.689 43.1861C109.965 42.8601 109.393 42.4113 108.975 41.8398C108.556 41.2683 108.343 40.6103 108.335 39.8658H111.341C111.353 40.1354 111.44 40.3749 111.601 40.5842C111.762 40.7894 111.981 40.9504 112.259 41.0671C112.536 41.1838 112.852 41.2422 113.206 41.2422C113.561 41.2422 113.873 41.1798 114.142 41.055C114.416 40.9263 114.629 40.7512 114.782 40.5298C114.935 40.3044 115.01 40.0469 115.005 39.7571C115.01 39.4673 114.927 39.2098 114.758 38.9844C114.589 38.759 114.349 38.5839 114.04 38.4592C113.734 38.3344 113.371 38.272 112.953 38.272H111.752V36.147H112.953C113.319 36.147 113.641 36.0866 113.919 35.9659C114.201 35.8452 114.42 35.6761 114.577 35.4588C114.734 35.2375 114.81 34.9839 114.806 34.6982C114.81 34.4205 114.744 34.177 114.607 33.9677C114.474 33.7544 114.287 33.5894 114.046 33.4727C113.808 33.3559 113.532 33.2976 113.219 33.2976C112.889 33.2976 112.589 33.3559 112.319 33.4727C112.053 33.5894 111.842 33.7544 111.685 33.9677C111.528 34.181 111.446 34.4285 111.438 34.7102H108.582C108.59 33.9737 108.795 33.3258 109.198 32.7663C109.6 32.2029 110.148 31.7622 110.84 31.4442C111.536 31.1263 112.329 30.9673 113.219 30.9673C114.104 30.9673 114.883 31.1223 115.555 31.4322C116.227 31.7421 116.75 32.1647 117.124 32.6999C117.499 33.2312 117.686 33.8329 117.686 34.505C117.69 35.2012 117.463 35.7747 117.004 36.2255C116.549 36.6763 115.963 36.954 115.247 37.0586V37.1552C116.205 37.2679 116.927 37.5778 117.414 38.0849C117.905 38.592 118.149 39.2258 118.145 39.9865C118.145 40.7029 117.933 41.3388 117.511 41.8942C117.092 42.4455 116.509 42.8802 115.76 43.1981C115.016 43.5121 114.16 43.669 113.194 43.669Z" fill="#BD0000"/>
</g>
<defs>
<filter id="filter0_d_1_50" x="54.4" y="3.9" width="104.2" height="48.2" filterUnits="userSpaceOnUse" color-interpolation-filters="sRGB">
<feFlood flood-opacity="0" result="BackgroundImageFix"/>
<feColorMatrix in="SourceAlpha" type="matrix" values="0 0 0 0 0 0 0 0 0 0 0 0 0 0 0 0 0 0 127 0" result="hardAlpha"/>
<feOffset/>
<feGaussianBlur stdDeviation="2.8"/>
<feComposite in2="hardAlpha" operator="out"/>
<feColorMatrix type="matrix" values="0 0 0 0 0 0 0 0 0 0 0 0 0 0 0 0 0 0 0.25 0"/>
<feBlend mode="normal" in2="BackgroundImageFix" result="effect1_dropShadow_1_50"/>
<feBlend mode="normal" in="SourceGraphic" in2="effect1_dropShadow_1_50" result="shape"/>
</filter>
<linearGradient id="paint0_linear_1_50" x1="82.5" y1="0" x2="82.5" y2="56" gradientUnits="userSpaceOnUse">
<stop stop-color="#3A0101"/>
<stop offset="1" stop-color="#170000"/>
</linearGradient>
</defs>
</svg>
