<svg width="165" height="53" viewBox="0 0 165 53" fill="none" xmlns="http://www.w3.org/2000/svg">
<rect width="165" height="53" rx="8" fill="url(#paint0_linear_1_50)"/>
<rect x="1.05" y="1.05" width="162.9" height="50.9" rx="6.95" stroke="white" stroke-opacity="0.15" stroke-width="2.1"/>
<path fill-rule="evenodd" clip-rule="evenodd" d="M31.2994 28.4798H31.2984C31.2093 28.4798 31.1305 28.5092 31.0566 28.569C31.0016 28.6126 30.9636 28.6714 30.9333 28.7369H30.9371C30.9674 28.6714 31.0054 28.6126 31.0594 28.569C31.1334 28.5092 31.2121 28.4808 31.2994 28.4798Z" fill="#BD0000"/>
<path fill-rule="evenodd" clip-rule="evenodd" d="M16.4761 17.0531L13.1773 31.4456C13.1783 31.4456 13.1784 31.4456 13.1803 31.4456H28.4413H36.3785C35.4329 31.3631 34.6864 31.0312 34.2416 30.4261C34.1591 30.3142 34.0909 30.1936 34.0311 30.0674C33.9932 29.9745 33.9575 29.8807 33.9215 29.7859C33.8266 29.4843 33.7888 29.1496 33.8059 28.793C33.8533 27.799 34.3197 26.6167 35.1278 25.3786C35.9861 24.0628 37.2301 22.6838 38.7704 21.404C39.1156 21.1174 39.4726 20.8344 39.8463 20.5593C40.3081 20.2195 40.7736 19.9066 41.2393 19.6139C42.955 18.5337 44.6665 17.7779 46.183 17.3939C44.7338 17.8667 43.1057 18.6694 41.4971 19.7621C41.4393 19.8011 41.3821 19.8412 41.3252 19.8806C40.4327 20.499 39.6242 21.1557 38.9186 21.819C36.648 23.9539 35.4479 26.1662 35.9932 27.4622C36.0321 27.5514 36.0785 27.6365 36.1325 27.7171C36.7187 28.5792 38.1713 28.7282 40.0122 28.2654C40.1374 28.2341 40.2626 28.1987 40.3916 28.1617C40.9796 27.9919 41.6039 27.7626 42.247 27.48C42.4016 27.4117 42.5578 27.3415 42.7153 27.2666C42.7314 27.259 42.7466 27.2514 42.7627 27.2429C44.7924 26.2344 46.3522 25.074 46.6898 24.3768C46.7638 24.2252 46.7816 24.0959 46.7313 23.9945C46.4904 23.506 44.8047 23.836 42.7627 24.7206C42.5986 24.7917 42.4326 24.8649 42.2648 24.9429C42.4013 24.8161 42.5435 24.6888 42.6886 24.5635C42.92 24.3642 43.1596 24.1692 43.4148 23.9767C43.814 23.6743 44.2177 23.401 44.6151 23.1587C46.476 21.7548 47.4167 20.4268 47.2204 19.934C47.1834 19.8411 47.1047 19.7772 46.9833 19.7383C46.5953 19.615 45.8873 19.7622 45.0271 20.1148C44.3177 20.4057 43.5028 20.8373 42.6767 21.3744L42.5641 21.4485L42.5434 21.4604L42.1462 21.7241L42.3744 21.3062C42.713 20.6864 43.2645 20.0397 43.9512 19.439C44.4548 18.9998 45.0302 18.5859 45.6495 18.2238C45.8838 18.0867 46.1177 17.9593 46.352 17.8444C46.5919 17.7272 46.832 17.623 47.0662 17.5303C47.7469 17.2611 48.3965 17.0975 48.9631 17.0531C48.9115 17.0531 47.3715 17.0531 47.3715 17.0531H42.0069H18.3522H16.4761ZM33.4947 17.0738C33.4017 18.4924 33.6768 20.5702 34.3008 22.8771C34.4118 23.2876 34.5326 23.7053 34.6654 24.1278C34.7479 24.3888 34.833 24.6456 34.9203 24.8984C34.8691 24.9738 34.8175 25.0486 34.7691 25.1237C33.9905 26.317 33.5353 27.4448 33.4206 28.4255C33.0915 27.3234 32.8437 26.1162 32.7033 24.8362C32.6635 24.4694 32.6323 24.1068 32.6114 23.7485C32.4578 21.1457 32.7976 18.7862 33.4947 17.0738ZM17.9551 18.9203C17.9728 18.9199 17.9904 18.9203 18.0084 18.9203H21.5147C21.8144 18.9203 22.0462 18.9765 22.2112 19.0893C22.3753 19.2027 22.4368 19.3494 22.3979 19.5279L21.98 21.4159H20.7441L21.1501 19.5783H18.0559L16.9385 24.6287L16.5354 26.4574H19.6267L19.6297 26.4456L20.2491 23.6477H18.7968L18.9361 23.0164H21.6244L20.8538 26.5078C20.8433 26.5575 20.8251 26.6026 20.8004 26.6471C20.7369 26.7628 20.626 26.862 20.4714 26.9435C20.2571 27.0564 20.0005 27.1125 19.7008 27.1125H16.1975C15.8978 27.1125 15.666 27.0564 15.501 26.9435C15.3369 26.8307 15.2744 26.6865 15.3143 26.5078L16.8585 19.5279C16.8983 19.3494 17.0225 19.2027 17.2378 19.0893C17.2454 19.0852 17.254 19.0843 17.2615 19.0804C17.458 18.9819 17.6887 18.9266 17.9551 18.9203ZM23.4501 18.9203H27.8633C28.1592 18.9203 28.3918 18.9765 28.5569 19.0893C28.7228 19.2027 28.7864 19.3494 28.7465 19.5279L27.9226 23.2505C27.8837 23.4279 27.7565 23.5726 27.5402 23.6862C27.324 23.8002 27.0695 23.8581 26.7726 23.8581H23.5657L22.9462 26.6531L22.8455 27.1125H21.6362L21.7281 26.6975L23.4501 18.9203ZM29.5468 18.9203H30.7561L29.3867 25.1059L29.0874 26.4574H31.9801C32.0105 26.6793 32.0459 26.8972 32.0839 27.1125H27.7329L28.0767 25.5594L29.5468 18.9203ZM24.5141 19.5783L23.7109 23.2002H26.7252L27.5254 19.5783H24.5141ZM21.98 27.6815C21.9919 27.6811 22.0037 27.6815 22.0156 27.6815C22.156 27.6815 22.2785 27.7062 22.3772 27.7527C22.4825 27.802 22.5577 27.8752 22.5995 27.972C22.6403 28.0659 22.6509 28.1725 22.6291 28.2891L22.6202 28.3336H22.2734L22.2764 28.2921C22.2854 28.2106 22.2753 28.1465 22.2438 28.1024C22.2397 28.0969 22.2338 28.0896 22.229 28.0846C22.2212 28.0766 22.2094 28.0675 22.1994 28.0609C22.1508 28.0303 22.0749 28.0135 21.9771 28.0135C21.8471 28.0135 21.75 28.0361 21.6836 28.0816C21.6191 28.1262 21.5784 28.176 21.5651 28.2358C21.5518 28.2965 21.5736 28.3284 21.5888 28.3454C21.5893 28.3459 21.5912 28.3479 21.5918 28.3484C21.611 28.3648 21.6777 28.4032 21.8852 28.4521C22.073 28.4977 22.1973 28.5386 22.2675 28.5737C22.3737 28.6277 22.448 28.6978 22.4868 28.7841C22.5257 28.8694 22.5343 28.9694 22.5106 29.0775C22.4868 29.1828 22.4331 29.2799 22.3535 29.3709C22.2748 29.462 22.1746 29.5341 22.0541 29.5843C21.9346 29.6337 21.8035 29.6614 21.6688 29.6614C21.4981 29.6614 21.3611 29.6355 21.2539 29.5843C21.142 29.5312 21.0612 29.4474 21.0138 29.3383C20.9683 29.2321 20.9586 29.1115 20.9842 28.9797L20.9931 28.9382H21.3339L21.3309 28.9797C21.3224 29.0584 21.3308 29.122 21.3517 29.1694C21.3716 29.2149 21.4095 29.2526 21.4702 29.282C21.5347 29.3133 21.6153 29.3294 21.7073 29.3294C21.7899 29.3294 21.8653 29.3156 21.9326 29.2909C21.999 29.2672 22.0518 29.2359 22.0897 29.1961C22.1267 29.1562 22.1484 29.1141 22.1579 29.0686C22.1673 29.0278 22.1651 28.9933 22.149 28.9649C22.1309 28.9345 22.0953 28.9076 22.0393 28.8849L21.7488 28.7989C21.5867 28.7581 21.4775 28.7192 21.4139 28.6804C21.3276 28.6291 21.2654 28.5635 21.2331 28.4847C21.2009 28.407 21.1974 28.3208 21.2183 28.2269C21.2401 28.1263 21.2886 28.0307 21.3635 27.9453C21.4394 27.859 21.5373 27.7913 21.654 27.7467C21.7571 27.7081 21.8657 27.6854 21.98 27.6815ZM25.0921 27.6875C25.1108 27.686 25.1285 27.6875 25.1484 27.6875L25.3618 27.7112L25.4329 27.7171L25.3292 27.9809L25.3085 28.0224L25.1454 28.0076C25.0973 28.0076 25.0619 28.015 25.0387 28.0313C25.0372 28.0324 25.0342 28.0359 25.0328 28.0372C25.0297 28.0399 25.0245 28.0447 25.021 28.049C25.0067 28.0678 24.9893 28.1012 24.9765 28.1617C24.9765 28.1617 24.9703 28.1873 24.9646 28.2091C25.0396 28.2091 25.2195 28.2091 25.2195 28.2091L25.1543 28.5025C25.1543 28.5025 24.968 28.5025 24.9054 28.5025C24.8864 28.5879 24.6534 29.6318 24.6534 29.6318H24.3096C24.3096 29.6318 24.5331 28.6287 24.5616 28.5025C24.5037 28.5025 24.363 28.5025 24.363 28.5025L24.4282 28.2091C24.4282 28.2091 24.5697 28.2091 24.6238 28.2091C24.6333 28.1683 24.6475 28.1172 24.6475 28.1172C24.6684 28.0224 24.6902 27.9542 24.7186 27.9068C24.7575 27.8413 24.8124 27.7866 24.8817 27.7467C24.9387 27.7136 25.0108 27.6938 25.0921 27.6875ZM25.9131 27.7023C25.9131 27.7023 25.8232 28.1067 25.8005 28.2091C25.8668 28.2091 26.0227 28.2091 26.0227 28.2091L25.9575 28.5025C25.9575 28.5025 25.7941 28.5025 25.7353 28.5025C25.7172 28.5841 25.5752 29.2168 25.5752 29.2168C25.5752 29.2168 25.5633 29.2928 25.5633 29.3146C25.5634 29.3153 25.5633 29.317 25.5633 29.3176C25.5634 29.3178 25.5633 29.3204 25.5633 29.3205C25.5634 29.3207 25.5662 29.3204 25.5663 29.3205L25.6019 29.3235L25.7649 29.3117L25.7471 29.5754L25.7501 29.6229L25.5159 29.6495C25.423 29.6495 25.3548 29.6344 25.3055 29.6021C25.2533 29.568 25.223 29.5227 25.2106 29.4658C25.2087 29.4553 25.2047 29.4402 25.2047 29.4184C25.2047 29.3757 25.2128 29.3035 25.2403 29.1783C25.2403 29.1783 25.3649 28.6201 25.3914 28.5025C25.3469 28.5025 25.2284 28.5025 25.2284 28.5025L25.2936 28.2091C25.2936 28.2091 25.4092 28.2091 25.4566 28.2091C25.4718 28.1408 25.5248 27.9068 25.5248 27.9068L25.8005 27.7615L25.9131 27.7023ZM14.9912 27.7141H16.325L16.2509 28.0461C16.2509 28.0461 15.3611 28.0461 15.2757 28.0461C15.2606 28.1134 15.1998 28.3861 15.1779 28.4847C15.3012 28.4847 16.0226 28.4847 16.0226 28.4847L15.9485 28.8167C15.9485 28.8167 15.1892 28.8167 15.1038 28.8167C15.0858 28.8992 14.923 29.6318 14.923 29.6318H14.5644L14.9912 27.7141ZM16.7784 28.1824C16.7918 28.1808 16.8064 28.1824 16.8199 28.1824C16.9053 28.1824 16.9841 28.2084 17.06 28.2624L17.1074 28.295L16.9237 28.5974L16.8733 28.5618C16.8363 28.5381 16.7964 28.5262 16.7547 28.5262C16.7187 28.5262 16.6851 28.539 16.651 28.5618C16.6149 28.5855 16.5848 28.6169 16.5621 28.6596C16.5222 28.7326 16.4931 28.8144 16.4731 28.9026L16.3131 29.6318H15.9693L16.2864 28.2091H16.6065C16.6065 28.2091 16.5955 28.2522 16.5917 28.2684C16.6069 28.257 16.6229 28.2413 16.6362 28.2328C16.6821 28.2054 16.7306 28.1883 16.7784 28.1824ZM17.798 28.1824C17.8187 28.1809 17.8391 28.1824 17.8602 28.1824C18.0537 28.1824 18.2001 28.2502 18.2959 28.384C18.3557 28.4703 18.3878 28.577 18.3878 28.7041C18.3878 28.7742 18.3792 28.8498 18.3611 28.9323L18.3345 29.036C18.3345 29.036 17.465 29.036 17.3682 29.036C17.3663 29.0559 17.3653 29.0773 17.3653 29.0953C17.3653 29.1693 17.3804 29.2275 17.4127 29.2702C17.428 29.291 17.4458 29.3098 17.466 29.3235C17.5042 29.3484 17.5536 29.362 17.6113 29.362C17.6815 29.362 17.7431 29.3427 17.801 29.3057C17.856 29.2706 17.9086 29.2146 17.9551 29.1368H18.3226L18.29 29.2079C18.2198 29.3502 18.1219 29.4612 17.9995 29.5399C17.8772 29.6186 17.731 29.6614 17.5698 29.6614C17.3602 29.6614 17.2042 29.5936 17.1074 29.4599C17.0116 29.329 16.991 29.1481 17.0422 28.9204C17.0934 28.689 17.1956 28.5041 17.3445 28.3751C17.478 28.2593 17.6294 28.1952 17.798 28.1824ZM19.3422 28.1824C19.3629 28.1809 19.3833 28.1824 19.4044 28.1824C19.5979 28.1824 19.7443 28.2502 19.8401 28.384C19.8999 28.4703 19.932 28.577 19.932 28.7041C19.932 28.7733 19.9233 28.8478 19.9053 28.9293L19.8786 29.036C19.8786 29.036 19.0092 29.036 18.9124 29.036C18.9115 29.0493 18.9104 29.0613 18.9095 29.0745C18.9087 29.0795 18.9098 29.0871 18.9095 29.0923C18.9094 29.0932 18.9095 29.0945 18.9095 29.0953C18.9095 29.1095 18.9115 29.1235 18.9124 29.1368C18.9172 29.1908 18.9313 29.236 18.9569 29.2702C18.9618 29.2768 18.9663 29.285 18.9717 29.2909C19.0151 29.3374 19.0766 29.362 19.1555 29.362C19.2256 29.362 19.2882 29.3427 19.3451 29.3057C19.4002 29.2706 19.4528 29.2146 19.4993 29.1368H19.8697L19.8342 29.2079C19.764 29.3502 19.6661 29.4612 19.5437 29.5399C19.4214 29.6186 19.2752 29.6614 19.114 29.6614C18.9044 29.6614 18.7483 29.5936 18.6516 29.4599C18.589 29.3745 18.5597 29.2658 18.5597 29.1368C18.5597 29.1169 18.5608 29.0954 18.5627 29.0745C18.5665 29.0252 18.5741 28.9754 18.5864 28.9204C18.6376 28.69 18.7368 28.5041 18.8857 28.3751C19.0192 28.2593 19.1736 28.1952 19.3422 28.1824ZM23.5479 28.1824C23.5691 28.1808 23.5886 28.1824 23.6102 28.1824C23.8074 28.1824 23.9591 28.2492 24.0577 28.381C24.1554 28.5128 24.1791 28.6907 24.1288 28.9145C24.0899 29.089 24.0338 29.23 23.9569 29.3324C23.8801 29.4348 23.7822 29.5185 23.6665 29.5754C23.5517 29.6323 23.4302 29.6614 23.3078 29.6614C23.1068 29.6614 22.957 29.5926 22.8603 29.4599C22.7977 29.3754 22.7655 29.2667 22.7655 29.1368C22.7655 29.0666 22.7732 28.992 22.7921 28.9086C22.849 28.6544 22.9652 28.4608 23.1359 28.3365C23.2612 28.2461 23.3996 28.1938 23.5479 28.1824ZM28.7554 28.1824C28.7804 28.1809 28.8036 28.1824 28.8295 28.1824C28.949 28.1824 29.0429 28.1945 29.1141 28.2239C29.1899 28.2543 29.2438 28.2972 29.2741 28.3484C29.3035 28.3968 29.3186 28.4562 29.3186 28.5292L29.283 28.7456L29.2178 29.039C29.1618 29.2894 29.1495 29.3833 29.1467 29.4184C29.1438 29.4658 29.1482 29.512 29.1615 29.5547L29.1852 29.6318H28.8355L28.8206 29.5873C28.815 29.5664 28.8166 29.5399 28.8147 29.5162C28.7483 29.5569 28.6818 29.5931 28.6221 29.614C28.5339 29.6443 28.4423 29.6614 28.3494 29.6614C28.1882 29.6614 28.0688 29.6194 27.9967 29.5369C27.9417 29.4762 27.9167 29.402 27.9167 29.3176C27.9167 29.2853 27.9209 29.2519 27.9285 29.2168C27.9446 29.1447 27.9739 29.078 28.0204 29.0182C28.0659 28.9594 28.1197 28.9111 28.1804 28.876C28.2393 28.8409 28.3048 28.816 28.3731 28.7989L28.5835 28.7633C28.7457 28.7444 28.8668 28.7208 28.954 28.6952C28.9559 28.6857 28.9599 28.6744 28.9599 28.6744C28.9737 28.6134 28.972 28.5675 28.957 28.544C28.9559 28.5425 28.9523 28.5394 28.9511 28.5381C28.9479 28.5347 28.9429 28.5293 28.9392 28.5262C28.9035 28.498 28.8427 28.4847 28.7614 28.4847C28.6694 28.4847 28.6013 28.4998 28.5539 28.5292C28.5074 28.5586 28.4644 28.6124 28.4264 28.6892H28.0678L28.1004 28.6181C28.1431 28.5195 28.194 28.4377 28.2575 28.3751C28.3211 28.3125 28.4069 28.264 28.5065 28.2298C28.5828 28.2046 28.6661 28.1879 28.7554 28.1824ZM30.2581 28.1824C30.2715 28.1808 30.2861 28.1824 30.2996 28.1824C30.3859 28.1824 30.4668 28.2084 30.5427 28.2624L30.5871 28.295L30.4034 28.5974L30.353 28.5618C30.316 28.5381 30.2782 28.5262 30.2374 28.5262C30.2013 28.5262 30.1658 28.539 30.1307 28.5618C30.0946 28.5855 30.0684 28.6169 30.0447 28.6596C30.0058 28.7326 29.9757 28.8144 29.9558 28.9026L29.7928 29.6318H29.449L29.7661 28.2091H30.0862C30.0862 28.2091 30.0782 28.2522 30.0744 28.2684C30.0895 28.257 30.1046 28.2413 30.1188 28.2328C30.164 28.2054 30.2104 28.1883 30.2581 28.1824ZM31.2747 28.1824C31.2954 28.1809 31.3158 28.1824 31.337 28.1824C31.5305 28.1824 31.6778 28.2502 31.7727 28.384C31.8334 28.4703 31.8645 28.577 31.8645 28.7041C31.8645 28.7742 31.8529 28.8498 31.8349 28.9323L31.8112 29.036C31.8112 29.036 30.9408 29.036 30.845 29.036C30.8431 29.0559 30.839 29.0773 30.839 29.0953C30.839 29.1693 30.8552 29.2275 30.8865 29.2702C30.8913 29.2768 30.8989 29.285 30.9042 29.2909C30.9074 29.2942 30.9128 29.2997 30.9161 29.3028C30.9585 29.3413 31.0162 29.362 31.088 29.362C31.1582 29.362 31.2198 29.3427 31.2777 29.3057C31.3327 29.2706 31.3844 29.2146 31.4318 29.1368H31.8023L31.7667 29.2079C31.6965 29.3502 31.5977 29.4612 31.4763 29.5399C31.353 29.6186 31.2087 29.6614 31.0465 29.6614C30.8369 29.6614 30.6839 29.5936 30.5871 29.4599C30.4913 29.329 30.4687 29.1481 30.5189 28.9204C30.5702 28.689 30.6694 28.5041 30.8183 28.3751C30.9526 28.2593 31.1063 28.1952 31.2747 28.1824ZM26.085 28.2091H26.4377C26.4377 28.2091 26.4812 29.0533 26.4821 29.0657C26.4964 29.0354 26.5074 29.01 26.5088 29.0064L26.8971 28.2091H27.2202C27.2202 28.2091 27.2498 29.0431 27.2498 29.0479C27.2593 29.0308 27.6914 28.2091 27.6914 28.2091H28.0411L27.2705 29.6318H26.9534C26.9534 29.6318 26.9227 28.8603 26.9208 28.8167C26.7899 29.0851 26.5236 29.6318 26.5236 29.6318H26.1976L26.085 28.2091ZM17.8039 28.4788C17.7222 28.4823 17.648 28.5117 17.5787 28.5677C17.5237 28.6114 17.4866 28.6712 17.4572 28.7367H18.041C18.042 28.7262 18.044 28.7135 18.044 28.7041C18.044 28.65 18.0344 28.608 18.0173 28.5796C17.9756 28.5113 17.9137 28.4788 17.8217 28.4788C17.8162 28.4788 17.8094 28.4786 17.8039 28.4788ZM19.3481 28.4788C19.2664 28.4823 19.1922 28.5117 19.1229 28.5677C19.0678 28.6114 19.0317 28.6712 19.0013 28.7367H19.5852C19.5862 28.7262 19.5882 28.7135 19.5882 28.7041C19.5882 28.65 19.5795 28.608 19.5615 28.5796C19.5532 28.5657 19.542 28.5519 19.5319 28.541C19.4923 28.5001 19.4378 28.4788 19.3659 28.4788C19.3604 28.4788 19.3536 28.4786 19.3481 28.4788ZM31.2925 28.4788C31.2085 28.4814 31.13 28.5098 31.0584 28.5677C31.0043 28.6114 30.9672 28.6712 30.9368 28.7367H31.5178C31.5187 28.7262 31.5207 28.7135 31.5207 28.7041C31.5207 28.65 31.5121 28.608 31.4941 28.5796C31.4533 28.5122 31.3904 28.4798 31.2984 28.4788C31.2957 28.4788 31.2952 28.4787 31.2925 28.4788ZM23.5272 28.4847C23.4488 28.494 23.3759 28.5298 23.3078 28.5914C23.2263 28.6654 23.1671 28.7816 23.133 28.9352C23.1187 28.9997 23.1122 29.0549 23.1122 29.1042C23.1122 29.1715 23.1251 29.2244 23.1508 29.2642C23.1576 29.2745 23.1666 29.2853 23.1745 29.2939C23.2166 29.3386 23.2755 29.362 23.3493 29.362C23.4451 29.362 23.5295 29.3264 23.6102 29.2524C23.6917 29.1775 23.7499 29.0601 23.785 28.9026C23.8173 28.7585 23.8128 28.6508 23.7672 28.5825C23.7236 28.5162 23.6598 28.4847 23.5716 28.4847C23.5567 28.4847 23.5417 28.483 23.5272 28.4847ZM28.8829 29.0034C28.8023 29.0252 28.7119 29.0436 28.5924 29.0597C28.5033 29.073 28.4397 29.087 28.4027 29.1012C28.3705 29.1145 28.3445 29.1329 28.3227 29.1575C28.3018 29.1812 28.2879 29.2061 28.2812 29.2346C28.2793 29.246 28.2783 29.2577 28.2783 29.2672C28.2783 29.268 28.2782 29.2694 28.2783 29.2702C28.2784 29.2724 28.278 29.2769 28.2783 29.2791C28.2788 29.2834 28.28 29.2899 28.2812 29.2939C28.2816 29.2952 28.2837 29.2985 28.2842 29.2998C28.2852 29.3024 28.2859 29.3063 28.2871 29.3087C28.2885 29.3111 28.2915 29.3153 28.2931 29.3176C28.2956 29.321 28.2989 29.3262 28.302 29.3294C28.3257 29.356 28.373 29.368 28.4413 29.368C28.5162 29.368 28.5883 29.3537 28.6547 29.3205C28.7201 29.2883 28.7729 29.2402 28.8118 29.1842C28.8402 29.1444 28.863 29.0831 28.8829 29.0034Z" fill="#BD0000"/>
<path fill-rule="evenodd" clip-rule="evenodd" d="M31.3022 28.4798C31.3013 28.4798 31.3003 28.4798 31.2994 28.4798C31.3914 28.4808 31.4521 28.5121 31.4928 28.5794C31.5109 28.6079 31.5203 28.6506 31.5203 28.7046C31.5203 28.7141 31.5185 28.7264 31.5175 28.7369H31.5213C31.5213 28.7264 31.5232 28.7141 31.5232 28.7046C31.5232 28.6506 31.5147 28.6079 31.4966 28.5794C31.4559 28.5111 31.3942 28.4798 31.3022 28.4798Z" fill="#BD0000"/>
<path fill-rule="evenodd" clip-rule="evenodd" d="M12 36.3178H12.7075L13.0253 34.99H14.1748L14.3227 34.421H13.1685L13.3601 33.5674H14.5883L14.7362 32.9035H12.7967L12 36.3178Z" fill="#BD0000"/>
<path fill-rule="evenodd" clip-rule="evenodd" d="M15.1735 36.3178L15.3859 35.4263C15.4978 34.9435 15.734 34.5158 16.1807 34.5158C16.2206 34.5158 16.2594 34.5357 16.2888 34.5405L16.4615 33.8566C16.4216 33.8566 16.378 33.8519 16.3287 33.8519C15.9996 33.8519 15.7236 34.0833 15.5396 34.4153H15.5206C15.5481 34.2531 15.5718 34.0994 15.5898 33.9467H14.98C14.9449 34.144 14.8908 34.53 14.8083 34.8781L14.4612 36.3178H15.1735Z" fill="#BD0000"/>
<path fill-rule="evenodd" clip-rule="evenodd" d="M18.3204 35.6776C18.1241 35.7734 17.9002 35.7488 17.6394 35.7488C17.4336 35.7488 17.2743 35.7127 17.187 35.6425C17.1415 35.5657 17.1225 35.4462 17.1263 35.3694C18.0871 35.395 18.6931 35.1731 18.7235 34.5661C18.7462 34.108 18.4114 33.8519 17.9249 33.8519C17.0561 33.8519 16.4871 34.6182 16.4501 35.3561C16.4178 36.0001 16.7517 36.3178 17.4402 36.3178C17.7049 36.3178 18.0558 36.2875 18.3432 36.2012L18.3204 35.6776ZM18.0605 34.5661C18.0491 34.7918 17.7703 34.8051 17.2212 34.8003C17.2809 34.6021 17.482 34.4209 17.8111 34.4209C17.9733 34.4209 18.0662 34.4826 18.0605 34.5661Z" fill="#BD0000"/>
<path fill-rule="evenodd" clip-rule="evenodd" d="M20.8347 35.6776C20.6384 35.7734 20.4146 35.7488 20.1547 35.7488C19.9479 35.7488 19.7895 35.7127 19.7023 35.6425C19.6568 35.5657 19.6368 35.4462 19.6406 35.3694C20.6023 35.395 21.2075 35.1731 21.2388 34.5661C21.2615 34.108 20.9267 33.8519 20.4402 33.8519C19.5704 33.8519 19.0014 34.6182 18.9644 35.3561C18.9331 36.0001 19.2669 36.3178 19.9546 36.3178C20.2201 36.3178 20.571 36.2875 20.8584 36.2012L20.8347 35.6776ZM20.5758 34.5661C20.5644 34.7918 20.2856 34.8051 19.7355 34.8003C19.7962 34.6021 19.9963 34.4209 20.3254 34.4209C20.4876 34.4209 20.5815 34.4826 20.5758 34.5661Z" fill="#BD0000"/>
<path fill-rule="evenodd" clip-rule="evenodd" d="M24.4957 36.3178C24.5014 36.0172 24.5735 35.5448 24.6484 35.2347L24.9528 33.9467C24.7594 33.8813 24.4578 33.8519 24.1675 33.8519C22.9896 33.8519 22.4053 34.7244 22.3645 35.542C22.3389 36.0551 22.6168 36.3178 23.0493 36.3178C23.3291 36.3178 23.6449 36.1822 23.8906 35.7744H23.901C23.882 35.9707 23.8593 36.1613 23.847 36.3178H24.4957ZM24.0091 34.9635C23.8707 35.5667 23.588 35.7488 23.3775 35.7488C23.1812 35.7488 23.0958 35.6093 23.1072 35.4064C23.1299 34.9483 23.4922 34.4209 23.9494 34.4209C24.0234 34.4209 24.0812 34.4077 24.1353 34.3944L24.0091 34.9635Z" fill="#BD0000"/>
<path fill-rule="evenodd" clip-rule="evenodd" d="M24.9595 36.2059C25.096 36.3121 25.3825 36.3131 25.6812 36.3178C26.3195 36.3226 26.8013 36.0437 26.8298 35.5316C26.8459 35.1901 26.5813 34.9881 26.3224 34.8525C26.1355 34.7624 26.0416 34.6761 26.0464 34.5756C26.053 34.4399 26.1801 34.421 26.367 34.421C26.5775 34.421 26.7463 34.4466 26.8431 34.4655L27.0347 33.9515C26.9256 33.886 26.7074 33.8519 26.4277 33.8519C25.8083 33.8519 25.355 34.1791 25.3294 34.6761C25.3142 34.9834 25.5352 35.1901 25.8026 35.3305C26.0189 35.4415 26.0929 35.5268 26.0872 35.6473C26.0805 35.7687 25.9724 35.7488 25.7761 35.7488C25.5456 35.7488 25.2905 35.7184 25.1558 35.6976L24.9595 36.2059Z" fill="#BD0000"/>
<path fill-rule="evenodd" clip-rule="evenodd" d="M28.7437 36.3178L29.3175 33.9467H28.6148L28.0372 36.3178H28.7437ZM29.0729 33.6622C29.3138 33.6622 29.5281 33.463 29.5414 33.1216C29.5528 32.8902 29.4029 32.8086 29.1819 32.8086C28.9515 32.8086 28.7409 32.9585 28.7286 33.1823C28.7172 33.408 28.867 33.6622 29.0729 33.6622Z" fill="#BD0000"/>
<path fill-rule="evenodd" clip-rule="evenodd" d="M30.1 36.3178L30.3504 35.2499C30.4803 34.7064 30.7601 34.5158 30.9906 34.5158C31.1727 34.5158 31.2258 34.5936 31.2173 34.7064C31.2125 34.7975 31.1983 34.8933 31.1793 34.9786L30.8607 36.3178H31.5682L31.9039 34.9132C31.9296 34.7918 31.958 34.6106 31.9637 34.5006C31.9846 34.0729 31.7712 33.9173 31.3785 33.9173C31.0636 33.9173 30.7573 34.0634 30.5154 34.3802H30.5059L30.5704 33.9467H29.9464C29.9056 34.1497 29.8534 34.3953 29.7794 34.6818L29.3925 36.3178H30.1Z" fill="#BD0000"/>
<path fill-rule="evenodd" clip-rule="evenodd" d="M33.1445 36.3178H33.8521L34.1707 34.99H35.3193L35.4672 34.421H34.313L34.5046 33.5674H35.7328L35.8808 32.9035H33.9412L33.1445 36.3178Z" fill="#BD0000"/>
<path fill-rule="evenodd" clip-rule="evenodd" d="M36.318 36.3178L36.5304 35.4263C36.6424 34.9435 36.8785 34.5158 37.3252 34.5158C37.3651 34.5158 37.404 34.5357 37.4334 34.5405L37.606 33.8566C37.5661 33.8566 37.5225 33.8519 37.4732 33.8519C37.1441 33.8519 36.8681 34.0833 36.6841 34.4153H36.6651C36.6926 34.2531 36.7163 34.0994 36.7344 33.9467H36.1245C36.0904 34.144 36.0354 34.53 35.9528 34.8781L35.6057 36.3178H36.318Z" fill="#BD0000"/>
<path fill-rule="evenodd" clip-rule="evenodd" d="M39.4649 35.6776C39.2686 35.7734 39.0448 35.7488 38.7839 35.7488C38.5781 35.7488 38.4188 35.7127 38.3315 35.6425C38.286 35.5657 38.267 35.4462 38.2708 35.3694C39.2316 35.395 39.8376 35.1731 39.868 34.5661C39.8908 34.108 39.556 33.8519 39.0694 33.8519C38.2006 33.8519 37.6316 34.6182 37.5946 35.3561C37.5623 36.0001 37.8971 36.3178 38.5848 36.3178C38.8494 36.3178 39.2012 36.2875 39.4877 36.2012L39.4649 35.6776ZM39.205 34.5661C39.1937 34.7918 38.9148 34.8051 38.3657 34.8003C38.4254 34.6021 38.6265 34.4209 38.9556 34.4209C39.1178 34.4209 39.2107 34.4826 39.205 34.5661Z" fill="#BD0000"/>
<path fill-rule="evenodd" clip-rule="evenodd" d="M41.9792 35.6776C41.7829 35.7734 41.5591 35.7488 41.2992 35.7488C41.0924 35.7488 40.9341 35.7127 40.8468 35.6425C40.8013 35.5657 40.7814 35.4462 40.7851 35.3694C41.7469 35.395 42.352 35.1731 42.3833 34.5661C42.406 34.108 42.0712 33.8519 41.5847 33.8519C40.715 33.8519 40.1459 34.6182 40.1089 35.3561C40.0776 36.0001 40.4115 36.3178 41.0991 36.3178C41.3646 36.3178 41.7156 36.2875 42.0029 36.2012L41.9792 35.6776ZM41.7203 34.5661C41.7089 34.7918 41.4301 34.8051 40.88 34.8003C40.9407 34.6021 41.1408 34.4209 41.4699 34.4209C41.6321 34.4209 41.726 34.4826 41.7203 34.5661Z" fill="#BD0000"/>
<path fill-rule="evenodd" clip-rule="evenodd" d="M44.7904 32.8086L44.5239 33.886C44.4271 33.8462 44.301 33.8519 44.2024 33.8519C43.2938 33.8519 42.6507 34.6296 42.608 35.4718C42.5796 36.0656 42.8964 36.3178 43.3042 36.3178C43.5897 36.3178 43.8903 36.1917 44.118 35.8654H44.1274L44.0734 36.3178H44.7164C44.7458 36.0333 44.8075 35.6947 44.8767 35.3855L45.4922 32.8086H44.7904ZM44.2365 35.1247C44.1255 35.5923 43.8638 35.7488 43.657 35.7488C43.4512 35.7488 43.3364 35.6056 43.3507 35.3504C43.3744 34.8781 43.6987 34.421 44.1208 34.421C44.2394 34.421 44.3408 34.439 44.3968 34.4655L44.2365 35.1247Z" fill="#BD0000"/>
<path fill-rule="evenodd" clip-rule="evenodd" d="M46.4037 36.3178C47.2288 36.3178 47.8652 35.6928 47.9098 34.842C47.9373 34.2787 47.5864 33.8519 46.9386 33.8519C46.0831 33.8519 45.4694 34.5442 45.4268 35.3808C45.3974 35.9897 45.79 36.3178 46.4037 36.3178ZM46.5146 35.7488C46.2737 35.7488 46.1409 35.5951 46.1552 35.3656C46.1741 34.9834 46.4103 34.4209 46.8172 34.4209C47.0979 34.4209 47.1842 34.6362 47.1728 34.8477C47.152 35.2651 46.8978 35.7488 46.5146 35.7488Z" fill="#BD0000"/>
<path fill-rule="evenodd" clip-rule="evenodd" d="M48.789 36.3178L49.0451 35.2347C49.1523 34.752 49.4197 34.421 49.6597 34.421C49.8323 34.421 49.8797 34.5471 49.8712 34.7121C49.8665 34.7975 49.8475 34.8933 49.8276 34.9881L49.5108 36.3178H50.1937L50.4497 35.23C50.5674 34.732 50.8196 34.421 51.0549 34.421C51.217 34.421 51.2844 34.5367 51.2768 34.7017C51.272 34.7975 51.2521 34.9028 51.2275 34.9986L50.9202 36.3178H51.6078L51.9388 34.9132C51.9644 34.7871 51.9938 34.5907 51.9986 34.4902C52.0194 34.0729 51.8155 33.8519 51.4475 33.8519C51.1326 33.8519 50.8263 33.9942 50.5939 34.2939C50.5854 34.0776 50.4308 33.8519 50.0476 33.8519C49.7375 33.8519 49.4416 33.9923 49.2044 34.31H49.195L49.2585 33.9467H48.6496C48.6098 34.1497 48.5614 34.3954 48.4874 34.6818L48.1062 36.3178H48.789Z" fill="#BD0000"/>
<path d="M33.7203 29.9542C33.7588 30.0532 33.7973 30.152 33.8374 30.2487C33.8992 30.38 33.9706 30.5057 34.0564 30.623C34.52 31.2533 35.2965 31.5983 36.2823 31.6842H37.3427C37.6779 31.6581 38.0293 31.6093 38.3934 31.5381C39.0215 31.4153 39.6872 31.2266 40.3787 30.9745C40.9024 30.7835 41.4407 30.5576 41.9869 30.295C43.1764 29.7247 44.4053 28.9893 45.6108 28.1018C46.0079 27.8097 46.3889 27.51 46.7546 27.2053C47.0899 26.9263 47.4116 26.643 47.7188 26.3566C48.5762 25.5303 49.2235 24.691 49.5901 23.9541C49.9719 23.1867 50.0481 22.5306 49.7353 22.1173C49.5436 21.8636 49.2227 21.7276 48.8097 21.6956C50.6706 20.2993 51.755 18.6055 51.366 17.5375C51.2425 17.1967 50.9705 16.9425 50.5807 16.8018C50.4075 16.7395 50.2126 16.7 50 16.6821H49.4273C48.6276 16.7398 47.4647 17.0261 46.4781 17.5096" stroke="#BD0000" stroke-width="0.5"/>
<g filter="url(#filter0_d_1_50)">
<path d="M61.2784 23V11.3636H63.0341V21.4886H68.3068V23H61.2784ZM70.1733 23V14.2727H71.8722V23H70.1733ZM71.0312 12.9261C70.7358 12.9261 70.482 12.8276 70.2699 12.6307C70.0616 12.4299 69.9574 12.1913 69.9574 11.9148C69.9574 11.6345 70.0616 11.3958 70.2699 11.1989C70.482 10.9981 70.7358 10.8977 71.0312 10.8977C71.3267 10.8977 71.5786 10.9981 71.7869 11.1989C71.999 11.3958 72.1051 11.6345 72.1051 11.9148C72.1051 12.1913 71.999 12.4299 71.7869 12.6307C71.5786 12.8276 71.3267 12.9261 71.0312 12.9261ZM77.8338 23.1761C76.9891 23.1761 76.2618 22.9848 75.652 22.6023C75.0459 22.2159 74.58 21.6837 74.2543 21.0057C73.9285 20.3276 73.7656 19.5511 73.7656 18.6761C73.7656 17.7898 73.9323 17.0076 74.2656 16.3295C74.599 15.6477 75.0687 15.1155 75.6747 14.7329C76.2808 14.3504 76.9948 14.1591 77.8168 14.1591C78.4796 14.1591 79.0705 14.2822 79.5895 14.5284C80.1084 14.7708 80.527 15.1117 80.8452 15.5511C81.1671 15.9905 81.3584 16.5038 81.419 17.0909H79.7656C79.6747 16.6818 79.4664 16.3295 79.1406 16.0341C78.8186 15.7386 78.3868 15.5909 77.8452 15.5909C77.3717 15.5909 76.9569 15.7159 76.6008 15.9659C76.2486 16.2121 75.974 16.5644 75.777 17.0227C75.58 17.4773 75.4815 18.0151 75.4815 18.6364C75.4815 19.2727 75.5781 19.822 75.7713 20.2841C75.9645 20.7462 76.2372 21.1042 76.5895 21.3579C76.9455 21.6117 77.3641 21.7386 77.8452 21.7386C78.1671 21.7386 78.4588 21.6799 78.7202 21.5625C78.9853 21.4413 79.2069 21.2689 79.3849 21.0454C79.5668 20.822 79.6936 20.553 79.7656 20.2386H81.419C81.3584 20.803 81.1747 21.3068 80.8679 21.75C80.5611 22.1932 80.1501 22.5417 79.6349 22.7954C79.1236 23.0492 78.5232 23.1761 77.8338 23.1761ZM86.9972 23.1761C86.1373 23.1761 85.3968 22.9924 84.7756 22.625C84.1581 22.2538 83.6809 21.7329 83.3437 21.0625C83.0104 20.3883 82.8437 19.5985 82.8437 18.6932C82.8437 17.7992 83.0104 17.0114 83.3437 16.3295C83.6809 15.6477 84.1506 15.1155 84.7528 14.7329C85.3589 14.3504 86.0672 14.1591 86.8778 14.1591C87.3703 14.1591 87.8475 14.2405 88.3097 14.4034C88.7718 14.5663 89.1865 14.822 89.554 15.1704C89.9214 15.5189 90.2112 15.9716 90.4233 16.5284C90.6354 17.0814 90.7415 17.7538 90.7415 18.5454V19.1477H83.804V17.875H89.0767C89.0767 17.428 88.9858 17.0322 88.804 16.6875C88.6222 16.339 88.3665 16.0644 88.0369 15.8636C87.7112 15.6629 87.3286 15.5625 86.8892 15.5625C86.4119 15.5625 85.9953 15.6799 85.6392 15.9148C85.2869 16.1458 85.0142 16.4489 84.821 16.8239C84.6316 17.1951 84.5369 17.5985 84.5369 18.0341V19.0284C84.5369 19.6117 84.6392 20.1079 84.8437 20.517C85.0521 20.9261 85.3418 21.2386 85.7131 21.4545C86.0843 21.6667 86.518 21.7727 87.0142 21.7727C87.3362 21.7727 87.6297 21.7273 87.8949 21.6364C88.16 21.5417 88.3892 21.4015 88.5824 21.2159C88.7756 21.0303 88.9233 20.8011 89.0256 20.5284L90.6335 20.8182C90.5047 21.2917 90.2737 21.7064 89.9403 22.0625C89.6108 22.4148 89.196 22.6894 88.696 22.8864C88.1998 23.0795 87.6335 23.1761 86.9972 23.1761ZM94.3253 17.8182V23H92.6264V14.2727H94.2571V15.6932H94.365C94.5658 15.2311 94.8802 14.8598 95.3082 14.5795C95.74 14.2992 96.2836 14.1591 96.9389 14.1591C97.5336 14.1591 98.0544 14.2841 98.5014 14.5341C98.9484 14.7803 99.295 15.1477 99.5412 15.6364C99.7874 16.125 99.9105 16.7292 99.9105 17.4489V23H98.2116V17.6534C98.2116 17.0208 98.0469 16.5265 97.7173 16.1704C97.3878 15.8106 96.9351 15.6307 96.3594 15.6307C95.9654 15.6307 95.615 15.7159 95.3082 15.8864C95.0052 16.0568 94.7647 16.3068 94.5866 16.6364C94.4124 16.9621 94.3253 17.3561 94.3253 17.8182ZM108.729 16.4034L107.189 16.6761C107.125 16.4792 107.022 16.2917 106.882 16.1136C106.746 15.9356 106.56 15.7898 106.325 15.6761C106.09 15.5625 105.797 15.5057 105.445 15.5057C104.964 15.5057 104.562 15.6136 104.24 15.8295C103.918 16.0417 103.757 16.3163 103.757 16.6534C103.757 16.9451 103.865 17.1799 104.081 17.3579C104.297 17.536 104.645 17.6818 105.126 17.7954L106.513 18.1136C107.316 18.2992 107.914 18.5852 108.308 18.9716C108.702 19.3579 108.899 19.8598 108.899 20.4773C108.899 21 108.748 21.4659 108.445 21.875C108.145 22.2803 107.727 22.5985 107.189 22.8295C106.655 23.0606 106.035 23.1761 105.331 23.1761C104.354 23.1761 103.556 22.9678 102.939 22.5511C102.321 22.1307 101.943 21.5341 101.803 20.7614L103.445 20.5114C103.547 20.9394 103.757 21.2633 104.075 21.4829C104.393 21.6989 104.808 21.8068 105.32 21.8068C105.876 21.8068 106.321 21.6913 106.655 21.4602C106.988 21.2254 107.155 20.9394 107.155 20.6023C107.155 20.3295 107.053 20.1004 106.848 19.9148C106.647 19.7292 106.339 19.589 105.922 19.4943L104.445 19.1704C103.63 18.9848 103.028 18.6894 102.638 18.2841C102.251 17.8788 102.058 17.3655 102.058 16.7443C102.058 16.2292 102.202 15.7784 102.49 15.392C102.778 15.0057 103.176 14.7045 103.683 14.4886C104.191 14.2689 104.772 14.1591 105.428 14.1591C106.371 14.1591 107.113 14.3636 107.655 14.7727C108.196 15.178 108.554 15.7216 108.729 16.4034ZM114.528 23.1761C113.669 23.1761 112.928 22.9924 112.307 22.625C111.689 22.2538 111.212 21.7329 110.875 21.0625C110.542 20.3883 110.375 19.5985 110.375 18.6932C110.375 17.7992 110.542 17.0114 110.875 16.3295C111.212 15.6477 111.682 15.1155 112.284 14.7329C112.89 14.3504 113.598 14.1591 114.409 14.1591C114.901 14.1591 115.379 14.2405 115.841 14.4034C116.303 14.5663 116.718 14.822 117.085 15.1704C117.453 15.5189 117.742 15.9716 117.955 16.5284C118.167 17.0814 118.273 17.7538 118.273 18.5454V19.1477H111.335V17.875H116.608C116.608 17.428 116.517 17.0322 116.335 16.6875C116.153 16.339 115.898 16.0644 115.568 15.8636C115.242 15.6629 114.86 15.5625 114.42 15.5625C113.943 15.5625 113.526 15.6799 113.17 15.9148C112.818 16.1458 112.545 16.4489 112.352 16.8239C112.163 17.1951 112.068 17.5985 112.068 18.0341V19.0284C112.068 19.6117 112.17 20.1079 112.375 20.517C112.583 20.9261 112.873 21.2386 113.244 21.4545C113.616 21.6667 114.049 21.7727 114.545 21.7727C114.867 21.7727 115.161 21.7273 115.426 21.6364C115.691 21.5417 115.92 21.4015 116.114 21.2159C116.307 21.0303 116.455 20.8011 116.557 20.5284L118.165 20.8182C118.036 21.2917 117.805 21.7064 117.472 22.0625C117.142 22.4148 116.727 22.6894 116.227 22.8864C115.731 23.0795 115.165 23.1761 114.528 23.1761ZM123.425 23.1704C122.72 23.1704 122.091 22.9905 121.538 22.6307C120.989 22.267 120.557 21.75 120.243 21.0795C119.932 20.4053 119.777 19.5966 119.777 18.6534C119.777 17.7102 119.934 16.9034 120.249 16.2329C120.567 15.5625 121.002 15.0492 121.555 14.6932C122.108 14.3371 122.735 14.1591 123.436 14.1591C123.978 14.1591 124.413 14.25 124.743 14.4318C125.076 14.6098 125.334 14.8182 125.516 15.0568C125.701 15.2954 125.845 15.5057 125.947 15.6875H126.05V11.3636H127.749V23H126.089V21.642H125.947C125.845 21.8276 125.697 22.0398 125.504 22.2784C125.315 22.517 125.053 22.7254 124.72 22.9034C124.387 23.0814 123.955 23.1704 123.425 23.1704ZM123.8 21.7216C124.288 21.7216 124.701 21.5928 125.038 21.3352C125.379 21.0739 125.637 20.7121 125.811 20.25C125.989 19.7879 126.078 19.25 126.078 18.6364C126.078 18.0303 125.991 17.5 125.817 17.0454C125.642 16.5909 125.387 16.2367 125.05 15.9829C124.713 15.7292 124.296 15.6023 123.8 15.6023C123.288 15.6023 122.862 15.7348 122.521 16C122.18 16.2651 121.923 16.6269 121.749 17.0852C121.578 17.5436 121.493 18.0606 121.493 18.6364C121.493 19.2197 121.58 19.7443 121.754 20.2102C121.928 20.6761 122.186 21.0454 122.527 21.3182C122.872 21.5871 123.296 21.7216 123.8 21.7216ZM134.544 23V11.3636H136.243V15.6875H136.345C136.444 15.5057 136.586 15.2954 136.771 15.0568C136.957 14.8182 137.214 14.6098 137.544 14.4318C137.874 14.25 138.309 14.1591 138.851 14.1591C139.555 14.1591 140.184 14.3371 140.737 14.6932C141.29 15.0492 141.724 15.5625 142.038 16.2329C142.357 16.9034 142.516 17.7102 142.516 18.6534C142.516 19.5966 142.358 20.4053 142.044 21.0795C141.73 21.75 141.298 22.267 140.749 22.6307C140.199 22.9905 139.572 23.1704 138.868 23.1704C138.338 23.1704 137.904 23.0814 137.567 22.9034C137.233 22.7254 136.972 22.517 136.783 22.2784C136.593 22.0398 136.447 21.8276 136.345 21.642H136.203V23H134.544ZM136.209 18.6364C136.209 19.25 136.298 19.7879 136.476 20.25C136.654 20.7121 136.911 21.0739 137.249 21.3352C137.586 21.5928 137.999 21.7216 138.487 21.7216C138.995 21.7216 139.419 21.5871 139.76 21.3182C140.101 21.0454 140.358 20.6761 140.533 20.2102C140.711 19.7443 140.8 19.2197 140.8 18.6364C140.8 18.0606 140.713 17.5436 140.538 17.0852C140.368 16.6269 140.11 16.2651 139.766 16C139.425 15.7348 138.999 15.6023 138.487 15.6023C137.995 15.6023 137.578 15.7292 137.237 15.9829C136.9 16.2367 136.644 16.5909 136.47 17.0454C136.296 17.5 136.209 18.0303 136.209 18.6364ZM145.2 26.2727C144.946 26.2727 144.715 26.2519 144.507 26.2102C144.299 26.1723 144.143 26.1307 144.041 26.0852L144.45 24.6932C144.761 24.7765 145.037 24.8125 145.28 24.8011C145.522 24.7898 145.736 24.6989 145.922 24.5284C146.111 24.3579 146.278 24.0795 146.422 23.6932L146.632 23.1136L143.439 14.2727H145.257L147.467 21.0454H147.558L149.768 14.2727H151.592L147.996 24.1648C147.829 24.6193 147.617 25.0038 147.359 25.3182C147.102 25.6364 146.795 25.875 146.439 26.0341C146.083 26.1932 145.67 26.2727 145.2 26.2727Z" fill="#E8E8E8"/>
<path d="M69.0494 33.6751C68.9809 33.4215 68.8803 33.1981 68.7475 33.005C68.6147 32.8078 68.4517 32.6407 68.2585 32.5039C68.0653 32.3671 67.844 32.2644 67.5945 32.196C67.3449 32.1236 67.0713 32.0873 66.7734 32.0873C66.1738 32.0873 65.6546 32.2322 65.2159 32.522C64.7812 32.8118 64.4452 33.2344 64.2077 33.7898C63.9703 34.3411 63.8516 35.0112 63.8516 35.8001C63.8516 36.5929 63.9663 37.269 64.1957 37.8285C64.4251 38.3879 64.7571 38.8145 65.1918 39.1083C65.6264 39.4021 66.1536 39.549 66.7734 39.549C67.3208 39.549 67.7836 39.4605 68.1619 39.2834C68.5443 39.1023 68.834 38.8467 69.0312 38.5167C69.2285 38.1867 69.3271 37.7983 69.3271 37.3516L69.8825 37.418H66.8761V35.2386H72.2067V36.8746C72.2067 37.9814 71.9712 38.9292 71.5004 39.718C71.0335 40.5069 70.3896 41.1126 69.5685 41.5351C68.7515 41.9577 67.8118 42.169 66.7493 42.169C65.5701 42.169 64.5337 41.9135 63.6403 41.4023C62.7468 40.8912 62.0505 40.1627 61.5515 39.217C61.0524 38.2672 60.8029 37.1403 60.8029 35.8363C60.8029 34.8221 60.9538 33.9226 61.2557 33.1378C61.5575 32.3489 61.9781 31.6809 62.5174 31.1335C63.0607 30.5862 63.6886 30.1716 64.4009 29.8899C65.1173 29.6082 65.888 29.4673 66.7131 29.4673C67.4294 29.4673 68.0955 29.5699 68.7113 29.7752C69.3311 29.9805 69.8784 30.2702 70.3533 30.6445C70.8323 31.0188 71.2206 31.4635 71.5185 31.9787C71.8163 32.4938 72.0014 33.0593 72.0739 33.6751H69.0494ZM73.9679 42V29.6364H79.0752C80.0009 29.6364 80.7997 29.8175 81.4719 30.1797C82.148 30.5379 82.6692 31.0389 83.0354 31.6829C83.4017 32.3228 83.5848 33.0673 83.5848 33.9165C83.5848 34.7698 83.3976 35.5163 83.0233 36.1562C82.6531 36.7921 82.1238 37.2851 81.4356 37.6353C80.7474 37.9854 79.9304 38.1605 78.9846 38.1605H75.8334V35.8061H78.4292C78.88 35.8061 79.2563 35.7276 79.5581 35.5707C79.864 35.4137 80.0954 35.1944 80.2524 34.9126C80.4094 34.6269 80.4878 34.2949 80.4878 33.9165C80.4878 33.5342 80.4094 33.2042 80.2524 32.9265C80.0954 32.6448 79.864 32.4274 79.5581 32.2745C79.2523 32.1216 78.876 32.0451 78.4292 32.0451H76.9562V42H73.9679ZM85.0578 42V29.6364H88.0461V39.5731H93.1895V42H85.0578ZM107.384 32.7273L104.202 42H100.822L97.6463 32.7273H100.755L102.464 39.1143H102.56L104.275 32.7273H107.384ZM113.194 42.169C112.253 42.169 111.418 42.008 110.689 41.6861C109.965 41.3601 109.393 40.9113 108.975 40.3398C108.556 39.7683 108.343 39.1103 108.335 38.3658H111.341C111.353 38.6354 111.44 38.8749 111.601 39.0842C111.762 39.2894 111.981 39.4504 112.259 39.5671C112.536 39.6838 112.852 39.7422 113.206 39.7422C113.561 39.7422 113.873 39.6798 114.142 39.555C114.416 39.4262 114.629 39.2512 114.782 39.0298C114.935 38.8044 115.01 38.5469 115.005 38.2571C115.01 37.9673 114.927 37.7097 114.758 37.4844C114.589 37.259 114.349 37.0839 114.04 36.9592C113.734 36.8344 113.371 36.772 112.953 36.772H111.752V34.647H112.953C113.319 34.647 113.641 34.5866 113.919 34.4659C114.201 34.3452 114.42 34.1761 114.577 33.9588C114.734 33.7374 114.81 33.4839 114.806 33.1981C114.81 32.9204 114.744 32.677 114.607 32.4677C114.474 32.2544 114.287 32.0894 114.046 31.9726C113.808 31.8559 113.532 31.7976 113.219 31.7976C112.889 31.7976 112.589 31.8559 112.319 31.9726C112.053 32.0894 111.842 32.2544 111.685 32.4677C111.528 32.681 111.446 32.9285 111.438 33.2102H108.582C108.59 32.4737 108.795 31.8257 109.198 31.2663C109.6 30.7029 110.148 30.2622 110.84 29.9442C111.536 29.6263 112.329 29.4673 113.219 29.4673C114.104 29.4673 114.883 29.6223 115.555 29.9322C116.227 30.2421 116.75 30.6646 117.124 31.1999C117.499 31.7312 117.686 32.3329 117.686 33.005C117.69 33.7012 117.463 34.2747 117.004 34.7255C116.549 35.1762 115.963 35.4539 115.247 35.5586V35.6552C116.205 35.7679 116.927 36.0778 117.414 36.5849C117.905 37.092 118.149 37.7258 118.145 38.4865C118.145 39.2029 117.933 39.8388 117.511 40.3942C117.092 40.9455 116.509 41.3802 115.76 41.6981C115.016 42.0121 114.16 42.169 113.194 42.169Z" fill="#BD0000"/>
</g>
<defs>
<filter id="filter0_d_1_50" x="54.4" y="2.4" width="104.2" height="48.2" filterUnits="userSpaceOnUse" color-interpolation-filters="sRGB">
<feFlood flood-opacity="0" result="BackgroundImageFix"/>
<feColorMatrix in="SourceAlpha" type="matrix" values="0 0 0 0 0 0 0 0 0 0 0 0 0 0 0 0 0 0 127 0" result="hardAlpha"/>
<feOffset/>
<feGaussianBlur stdDeviation="2.8"/>
<feComposite in2="hardAlpha" operator="out"/>
<feColorMatrix type="matrix" values="0 0 0 0 0 0 0 0 0 0 0 0 0 0 0 0 0 0 0.25 0"/>
<feBlend mode="normal" in2="BackgroundImageFix" result="effect1_dropShadow_1_50"/>
<feBlend mode="normal" in="SourceGraphic" in2="effect1_dropShadow_1_50" result="shape"/>
</filter>
<linearGradient id="paint0_linear_1_50" x1="82.5" y1="0" x2="82.5" y2="53" gradientUnits="userSpaceOnUse">
<stop stop-color="#3A0101"/>
<stop offset="1" stop-color="#170000"/>
</linearGradient>
</defs>
</svg>
