<svg width="165" height="56" viewBox="0 0 165 56" fill="none" xmlns="http://www.w3.org/2000/svg">
<rect width="165" height="56" rx="8" fill="url(#paint0_linear_3_333)"/>
<rect x="1.05" y="1.05" width="162.9" height="53.9" rx="6.95" stroke="white" stroke-opacity="0.15" stroke-width="2.1"/>
<path fill-rule="evenodd" clip-rule="evenodd" d="M34.3046 29.7391H34.3038C34.2255 29.7391 34.1564 29.7649 34.0914 29.8174C34.0431 29.8557 34.0097 29.9074 33.9831 29.9648H33.9864C34.0131 29.9074 34.0464 29.8557 34.0939 29.8174C34.1589 29.7649 34.228 29.7399 34.3046 29.7391Z" fill="#BD0000"/>
<path fill-rule="evenodd" clip-rule="evenodd" d="M34.3072 29.7391C34.3063 29.7391 34.3055 29.7391 34.3046 29.7391C34.3855 29.7399 34.4388 29.7674 34.4746 29.8265C34.4904 29.8515 34.4988 29.889 34.4988 29.9365C34.4988 29.9448 34.4971 29.9557 34.4963 29.9648H34.4996C34.4996 29.9557 34.5013 29.9448 34.5013 29.9365C34.5013 29.889 34.4938 29.8515 34.4779 29.8265C34.4421 29.7666 34.388 29.7391 34.3072 29.7391Z" fill="#BD0000"/>
<path fill-rule="evenodd" clip-rule="evenodd" d="M12 36.6239H12.6215L12.9006 35.4575H13.9103L14.0402 34.9577H13.0264L13.1947 34.2079H14.2735L14.4035 33.6247H12.6998L12 36.6239Z" fill="#008033"/>
<path fill-rule="evenodd" clip-rule="evenodd" d="M14.7875 36.6239L14.9741 35.8407C15.0725 35.4167 15.2799 35.041 15.6723 35.041C15.7073 35.041 15.7414 35.0585 15.7673 35.0626L15.9189 34.462C15.8839 34.462 15.8456 34.4578 15.8022 34.4578C15.5132 34.4578 15.2707 34.6611 15.1091 34.9527H15.0924C15.1166 34.8102 15.1374 34.6752 15.1533 34.5411H14.6176C14.5868 34.7144 14.5393 35.0535 14.4668 35.3592L14.1619 36.6239H14.7875Z" fill="#008033"/>
<path fill-rule="evenodd" clip-rule="evenodd" d="M17.5517 36.0615C17.3793 36.1457 17.1827 36.124 16.9536 36.124C16.7728 36.124 16.6328 36.0923 16.5562 36.0307C16.5162 35.9632 16.4995 35.8582 16.5029 35.7908C17.3468 35.8132 17.8791 35.6183 17.9058 35.0851C17.9258 34.6827 17.6317 34.4578 17.2043 34.4578C16.4412 34.4578 15.9414 35.1309 15.9089 35.7791C15.8806 36.3448 16.1738 36.6238 16.7786 36.6238C17.0111 36.6238 17.3193 36.5972 17.5717 36.5214L17.5517 36.0615ZM17.3235 35.0851C17.3135 35.2834 17.0685 35.2951 16.5862 35.2909C16.6387 35.1168 16.8153 34.9577 17.1044 34.9577C17.2468 34.9577 17.3285 35.0118 17.3235 35.0851Z" fill="#008033"/>
<path fill-rule="evenodd" clip-rule="evenodd" d="M19.7603 36.0615C19.5878 36.1457 19.3912 36.124 19.163 36.124C18.9813 36.124 18.8422 36.0923 18.7656 36.0307C18.7256 35.9632 18.7081 35.8582 18.7114 35.7908C19.5562 35.8132 20.0877 35.6183 20.1152 35.0851C20.1352 34.6827 19.8411 34.4578 19.4137 34.4578C18.6498 34.4578 18.1499 35.1309 18.1174 35.7791C18.0899 36.3448 18.3832 36.6238 18.9872 36.6238C19.2204 36.6238 19.5287 36.5972 19.7811 36.5214L19.7603 36.0615ZM19.5329 35.0851C19.5229 35.2834 19.2779 35.2951 18.7947 35.2909C18.8481 35.1168 19.0238 34.9577 19.3129 34.9577C19.4554 34.9577 19.5379 35.0118 19.5329 35.0851Z" fill="#008033"/>
<path fill-rule="evenodd" clip-rule="evenodd" d="M22.976 36.6238C22.981 36.3598 23.0443 35.9449 23.1102 35.6725L23.3776 34.5411C23.2076 34.4836 22.9427 34.4578 22.6878 34.4578C21.6531 34.4578 21.1399 35.2242 21.1041 35.9424C21.0816 36.3931 21.3257 36.6238 21.7056 36.6238C21.9513 36.6238 22.2287 36.5047 22.4445 36.1465H22.4537C22.437 36.3189 22.417 36.4864 22.4062 36.6238H22.976ZM22.5487 35.4342C22.427 35.964 22.1788 36.124 21.9938 36.124C21.8214 36.124 21.7464 36.0015 21.7564 35.8232C21.7764 35.4209 22.0946 34.9577 22.4962 34.9577C22.5612 34.9577 22.612 34.946 22.6595 34.9343L22.5487 35.4342Z" fill="#008033"/>
<path fill-rule="evenodd" clip-rule="evenodd" d="M23.3834 36.5255C23.5034 36.6189 23.755 36.6197 24.0174 36.6239C24.5781 36.628 25.0013 36.3831 25.0263 35.9332C25.0404 35.6333 24.808 35.4559 24.5806 35.3367C24.4164 35.2576 24.334 35.1818 24.3381 35.0935C24.344 34.9743 24.4556 34.9577 24.6197 34.9577C24.8047 34.9577 24.953 34.9802 25.0379 34.9968L25.2062 34.5453C25.1104 34.4878 24.9188 34.4578 24.673 34.4578C24.129 34.4578 23.7308 34.7452 23.7083 35.1818C23.695 35.4517 23.8891 35.6333 24.124 35.7566C24.314 35.8541 24.379 35.9291 24.374 36.0349C24.3681 36.1415 24.2732 36.124 24.1007 36.124C23.8983 36.124 23.6742 36.0973 23.5559 36.079L23.3834 36.5255Z" fill="#008033"/>
<path fill-rule="evenodd" clip-rule="evenodd" d="M26.7074 36.6239L27.2115 34.5411H26.5941L26.0868 36.6239H26.7074ZM26.9965 34.2912C27.2081 34.2912 27.3964 34.1162 27.4081 33.8163C27.4181 33.6131 27.2864 33.5414 27.0923 33.5414C26.8899 33.5414 26.7049 33.673 26.6941 33.8696C26.6841 34.0679 26.8157 34.2912 26.9965 34.2912Z" fill="#008033"/>
<path fill-rule="evenodd" clip-rule="evenodd" d="M27.8988 36.6239L28.1187 35.6858C28.2328 35.2084 28.4786 35.041 28.681 35.041C28.841 35.041 28.8877 35.1093 28.8802 35.2084C28.876 35.2884 28.8635 35.3725 28.8468 35.4475L28.5669 36.6239H29.1884L29.4833 35.39C29.5058 35.2834 29.5308 35.1243 29.5358 35.0276C29.5541 34.6519 29.3667 34.5153 29.0218 34.5153C28.7452 34.5153 28.4761 34.6436 28.2637 34.9218H28.2553L28.312 34.5411H27.7638C27.728 34.7194 27.6822 34.9352 27.6172 35.1868L27.2773 36.6239H27.8988Z" fill="#008033"/>
<path fill-rule="evenodd" clip-rule="evenodd" d="M30.573 36.6239H31.1945L31.4744 35.4575H32.4833L32.6133 34.9577H31.5994L31.7677 34.2079H32.8465L32.9765 33.6247H31.2728L30.573 36.6239Z" fill="#008033"/>
<path fill-rule="evenodd" clip-rule="evenodd" d="M33.3605 36.6239L33.5472 35.8407C33.6455 35.4167 33.8529 35.041 34.2453 35.041C34.2803 35.041 34.3144 35.0585 34.3403 35.0626L34.4919 34.462C34.4569 34.462 34.4186 34.4578 34.3752 34.4578C34.0862 34.4578 33.8437 34.6611 33.6821 34.9527H33.6655C33.6896 34.8102 33.7104 34.6752 33.7263 34.5411H33.1906C33.1606 34.7144 33.1123 35.0535 33.0398 35.3592L32.7349 36.6239H33.3605Z" fill="#008033"/>
<path fill-rule="evenodd" clip-rule="evenodd" d="M36.1248 36.0615C35.9523 36.1457 35.7557 36.124 35.5266 36.124C35.3458 36.124 35.2059 36.0923 35.1292 36.0307C35.0892 35.9632 35.0726 35.8582 35.0759 35.7908C35.9198 35.8132 36.4522 35.6183 36.4788 35.0851C36.4988 34.6827 36.2047 34.4578 35.7774 34.4578C35.0142 34.4578 34.5144 35.1309 34.4819 35.7791C34.4536 36.3448 34.7477 36.6238 35.3517 36.6238C35.5841 36.6238 35.8932 36.5972 36.1448 36.5214L36.1248 36.0615ZM35.8965 35.0851C35.8865 35.2834 35.6416 35.2951 35.1592 35.2909C35.2117 35.1168 35.3883 34.9577 35.6774 34.9577C35.8199 34.9577 35.9015 35.0118 35.8965 35.0851Z" fill="#008033"/>
<path fill-rule="evenodd" clip-rule="evenodd" d="M38.3333 36.0615C38.1608 36.1457 37.9642 36.124 37.736 36.124C37.5543 36.124 37.4152 36.0923 37.3386 36.0307C37.2986 35.9632 37.2811 35.8582 37.2844 35.7908C38.1292 35.8132 38.6607 35.6183 38.6882 35.0851C38.7082 34.6827 38.4141 34.4578 37.9867 34.4578C37.2228 34.4578 36.7229 35.1309 36.6904 35.7791C36.6629 36.3448 36.9562 36.6238 37.5602 36.6238C37.7934 36.6238 38.1017 36.5972 38.3541 36.5214L38.3333 36.0615ZM38.1058 35.0851C38.0959 35.2834 37.8509 35.2951 37.3677 35.2909C37.421 35.1168 37.5968 34.9577 37.8859 34.9577C38.0284 34.9577 38.1108 35.0118 38.1058 35.0851Z" fill="#008033"/>
<path fill-rule="evenodd" clip-rule="evenodd" d="M40.8026 33.5414L40.5685 34.4878C40.4835 34.4528 40.3727 34.4578 40.2861 34.4578C39.488 34.4578 38.9231 35.1409 38.8856 35.8807C38.8606 36.4023 39.1389 36.6239 39.4971 36.6239C39.7479 36.6239 40.012 36.5131 40.2119 36.2265H40.2202L40.1728 36.6239H40.7376C40.7634 36.3739 40.8176 36.0765 40.8784 35.8049L41.4191 33.5414H40.8026ZM40.316 35.5758C40.2186 35.9865 39.9886 36.124 39.807 36.124C39.6262 36.124 39.5254 35.9982 39.5379 35.7741C39.5588 35.3592 39.8437 34.9577 40.2144 34.9577C40.3185 34.9577 40.4077 34.9735 40.4568 34.9968L40.316 35.5758Z" fill="#008033"/>
<path fill-rule="evenodd" clip-rule="evenodd" d="M42.2197 36.6238C42.9445 36.6238 43.5035 36.0748 43.5426 35.3276C43.5668 34.8327 43.2585 34.4578 42.6895 34.4578C41.9381 34.4578 41.3991 35.066 41.3616 35.8008C41.3358 36.3356 41.6807 36.6238 42.2197 36.6238ZM42.3171 36.124C42.1055 36.124 41.9889 35.989 42.0014 35.7874C42.0181 35.4517 42.2255 34.9577 42.5829 34.9577C42.8295 34.9577 42.9053 35.1468 42.8953 35.3326C42.877 35.6991 42.6537 36.124 42.3171 36.124Z" fill="#008033"/>
<path fill-rule="evenodd" clip-rule="evenodd" d="M44.3149 36.6239L44.5398 35.6725C44.634 35.2484 44.8689 34.9577 45.0797 34.9577C45.2313 34.9577 45.273 35.0685 45.2655 35.2134C45.2613 35.2884 45.2446 35.3725 45.2271 35.4559L44.9489 36.6239H45.5487L45.7736 35.6683C45.877 35.2309 46.0986 34.9577 46.3052 34.9577C46.4476 34.9577 46.5068 35.0593 46.5001 35.2043C46.4959 35.2884 46.4784 35.3809 46.4568 35.465L46.1869 36.6239H46.7909L47.0816 35.39C47.1041 35.2792 47.1299 35.1068 47.1341 35.0185C47.1524 34.6519 46.9733 34.4578 46.6501 34.4578C46.3735 34.4578 46.1044 34.5828 45.9003 34.846C45.8928 34.6561 45.757 34.4578 45.4204 34.4578C45.148 34.4578 44.8881 34.5811 44.6798 34.8602H44.6715L44.7273 34.5411H44.1924C44.1574 34.7194 44.115 34.9352 44.05 35.1868L43.7151 36.6239H44.3149Z" fill="#008033"/>
<path d="M36.4312 31.0342C36.465 31.1211 36.4988 31.2079 36.534 31.2928C36.5883 31.4081 36.651 31.5185 36.7264 31.6216C37.1336 32.1752 37.8156 32.4783 38.6815 32.5538H39.613C39.9075 32.5308 40.2161 32.488 40.536 32.4254C41.0876 32.3175 41.6724 32.1518 42.2797 31.9304C42.7398 31.7626 43.2126 31.5641 43.6924 31.3335C44.7373 30.8326 45.8167 30.1866 46.8756 29.407C47.2244 29.1504 47.559 28.8872 47.8803 28.6195C48.1748 28.3745 48.4574 28.1256 48.7272 27.874C49.4804 27.1482 50.049 26.411 50.3709 25.7637C50.7063 25.0897 50.7732 24.5134 50.4985 24.1503C50.3301 23.9274 50.0483 23.808 49.6854 23.7799C51.32 22.5534 52.2726 21.0656 51.9309 20.1275C51.8224 19.8282 51.5835 19.6048 51.2411 19.4813C51.0889 19.4266 50.9177 19.3919 50.731 19.3761H50.2279C49.5255 19.4268 48.504 19.6783 47.6374 20.103" stroke="#007F32" stroke-width="0.5"/>
<path fill-rule="evenodd" clip-rule="evenodd" d="M15.8184 19.702L13.0185 32.3442C13.0193 32.3442 18.3875 32.3442 18.3891 32.3442C21.741 32.3442 31.7941 32.3442 31.7941 32.3442H38.7661C37.9355 32.2717 37.2797 31.9801 36.889 31.4486C36.8165 31.3503 36.7567 31.2444 36.7042 31.1336C36.6709 31.052 36.6395 30.9696 36.6079 30.8863C36.5245 30.6213 36.4913 30.3274 36.5063 30.0141C36.548 29.141 36.9576 28.1025 37.6675 27.015C38.4214 25.8592 39.5141 24.6479 40.8671 23.5238C41.1703 23.272 41.4839 23.0234 41.8121 22.7818C42.2178 22.4833 42.6266 22.2084 43.0357 21.9513C44.5428 21.0025 46.0461 20.3386 47.3782 20.0014C46.1052 20.4167 44.6751 21.1217 43.2622 22.0815C43.2114 22.1158 43.1612 22.151 43.1112 22.1856C42.3272 22.7288 41.617 23.3057 40.9972 23.8883C39.0028 25.7636 37.9486 27.7068 38.4276 28.8452C38.4618 28.9235 38.5025 28.9983 38.55 29.0691C39.0649 29.8264 40.3408 29.9573 41.9579 29.5507C42.0679 29.5232 42.1778 29.4921 42.2911 29.4596C42.8076 29.3105 43.356 29.1091 43.9209 28.8608C44.0567 28.8008 44.1939 28.7392 44.3322 28.6734C44.3464 28.6667 44.3597 28.66 44.3739 28.6525C46.1567 27.7667 47.5268 26.7474 47.8234 26.135C47.8884 26.0018 47.904 25.8882 47.8598 25.7992C47.6482 25.3701 46.1675 25.66 44.3739 26.437C44.2297 26.4995 44.0839 26.5638 43.9365 26.6323C44.0564 26.5209 44.1813 26.4091 44.3088 26.299C44.512 26.1239 44.7225 25.9527 44.9466 25.7836C45.2973 25.518 45.6519 25.2779 46.001 25.065C47.6355 23.8319 48.4618 22.6654 48.2894 22.2325C48.2569 22.1509 48.1878 22.0948 48.0811 22.0607C47.7404 21.9523 47.1185 22.0817 46.3629 22.3913C45.7397 22.6469 45.024 23.026 44.2984 23.4978L44.1994 23.5629L44.1812 23.5733L43.8323 23.805L44.0328 23.4379C44.3302 22.8935 44.8147 22.3254 45.4178 21.7977C45.8602 21.4119 46.3656 21.0484 46.9096 20.7303C47.1154 20.6099 47.3208 20.498 47.5266 20.3971C47.7374 20.2941 47.9482 20.2026 48.154 20.1211C48.7519 19.8847 49.4086 19.5861 49.9063 19.5471C49.861 19.5471 48.4222 19.702 48.4222 19.702H43.71H22.9321H15.8184ZM36.233 19.7202C36.1513 20.9663 36.3929 22.7914 36.9411 24.8177C37.0386 25.1783 37.1447 25.5452 37.2613 25.9163C37.3338 26.1455 37.4086 26.3711 37.4852 26.5932C37.4402 26.6594 37.3949 26.7251 37.3524 26.7911C36.6685 27.8393 36.2687 28.8299 36.1679 29.6913C35.8788 28.7232 35.6611 27.6629 35.5379 26.5385C35.5029 26.2164 35.4755 25.8979 35.4571 25.5831C35.3222 23.2968 35.6206 21.2243 36.233 19.7202ZM22.5832 21.3421C22.5988 21.3418 22.6142 21.3421 22.6301 21.3421H25.7099C25.9732 21.3421 26.1768 21.3915 26.3217 21.4905C26.4659 21.5902 26.5199 21.719 26.4858 21.8758L26.1187 23.5342H25.0331L25.3897 21.9201H22.6717L21.6903 26.3563L21.3362 27.9626H24.0516L24.0542 27.9522L24.5983 25.4946H23.3226L23.445 24.9401H25.8063L25.1294 28.0069C25.1202 28.0505 25.1042 28.0901 25.0825 28.1292C25.0267 28.2309 24.9293 28.3179 24.7935 28.3896C24.6053 28.4887 24.3799 28.538 24.1166 28.538H21.0394C20.7761 28.538 20.5726 28.4887 20.4276 28.3896C20.2835 28.2905 20.2286 28.1638 20.2636 28.0069L21.62 21.8758C21.655 21.719 21.7641 21.5902 21.9532 21.4905C21.9599 21.487 21.9674 21.4861 21.974 21.4827C22.1466 21.3963 22.3492 21.3477 22.5832 21.3421ZM27.41 21.3421H31.2865C31.5464 21.3421 31.7507 21.3915 31.8957 21.4905C32.0415 21.5902 32.0973 21.719 32.0623 21.8758L31.3385 25.1457C31.3044 25.3015 31.1926 25.4286 31.0027 25.5284C30.8127 25.6286 30.5892 25.6794 30.3284 25.6794H27.5115L26.9674 28.1345L26.8789 28.538H25.8167L25.8974 28.1735L27.41 21.3421ZM32.7652 21.3421H33.8274L32.6246 26.7755L32.3617 27.9626H34.9026C34.9293 28.1575 34.9604 28.3489 34.9937 28.538H31.1719L31.4739 27.1738L32.7652 21.3421ZM28.3446 21.9201L27.6391 25.1015H30.2867L30.9897 21.9201H28.3446ZM22.6988 29.4287C22.7092 29.4283 22.7196 29.4287 22.73 29.4287C22.8533 29.4287 22.961 29.4503 23.0477 29.4912C23.1401 29.5345 23.2063 29.5988 23.2429 29.6838C23.2787 29.7663 23.2881 29.8599 23.2689 29.9624L23.2611 30.0014H22.9565L22.9591 29.965C22.967 29.8934 22.9581 29.8371 22.9305 29.7984C22.9269 29.7935 22.9217 29.7871 22.9175 29.7828C22.9106 29.7757 22.9003 29.7677 22.8914 29.7619C22.8488 29.7351 22.7822 29.7203 22.6962 29.7203C22.5821 29.7203 22.4968 29.7402 22.4384 29.7801C22.3818 29.8193 22.346 29.863 22.3343 29.9155C22.3227 29.9688 22.3418 29.9969 22.3551 30.0118C22.3556 30.0123 22.3572 30.014 22.3577 30.0145C22.3746 30.0289 22.4332 30.0626 22.6155 30.1056C22.7804 30.1456 22.8897 30.1815 22.9513 30.2123C23.0446 30.2598 23.1098 30.3213 23.144 30.3972C23.1781 30.4721 23.1856 30.5599 23.1648 30.6549C23.144 30.7474 23.0968 30.8327 23.0268 30.9126C22.9577 30.9926 22.8697 31.0559 22.7639 31.1001C22.6589 31.1434 22.5437 31.1678 22.4254 31.1678C22.2755 31.1678 22.1551 31.1451 22.061 31.1001C21.9626 31.0534 21.8917 30.9798 21.8501 30.884C21.8101 30.7907 21.8016 30.6848 21.824 30.569L21.8318 30.5325H22.1312L22.1286 30.569C22.1211 30.6381 22.1285 30.6939 22.1469 30.7356C22.1644 30.7756 22.1977 30.8087 22.251 30.8345C22.3076 30.862 22.3785 30.8762 22.4593 30.8762C22.5318 30.8762 22.598 30.864 22.6571 30.8423C22.7155 30.8215 22.7618 30.794 22.7951 30.759C22.8276 30.724 22.8467 30.6871 22.855 30.6471C22.8633 30.6113 22.8613 30.581 22.8472 30.556C22.8314 30.5293 22.8 30.5057 22.7509 30.4857L22.4957 30.4102C22.3533 30.3743 22.2574 30.3402 22.2015 30.306C22.1257 30.261 22.0711 30.2034 22.0427 30.1342C22.0144 30.0659 22.0114 29.9902 22.0297 29.9077C22.0489 29.8194 22.0915 29.7354 22.1573 29.6604C22.2239 29.5846 22.3099 29.5251 22.4124 29.486C22.503 29.452 22.5984 29.4321 22.6988 29.4287ZM25.4324 29.4339C25.4489 29.4326 25.4643 29.4339 25.4819 29.4339L25.6693 29.4547L25.7318 29.4599L25.6407 29.6916L25.6224 29.7281L25.4792 29.7151C25.437 29.7151 25.4059 29.7216 25.3855 29.7359C25.3842 29.7369 25.3816 29.74 25.3803 29.7411C25.3776 29.7435 25.373 29.7477 25.3699 29.7515C25.3574 29.768 25.3421 29.7973 25.3309 29.8504C25.3309 29.8504 25.3254 29.8729 25.3204 29.8921C25.3862 29.8921 25.5443 29.8921 25.5443 29.8921L25.487 30.1498C25.487 30.1498 25.3234 30.1498 25.2684 30.1498C25.2517 30.2248 25.0471 31.1417 25.0471 31.1417H24.7451C24.7451 31.1417 24.9414 30.2606 24.9664 30.1498C24.9156 30.1498 24.7919 30.1498 24.7919 30.1498L24.8492 29.8921C24.8492 29.8921 24.9736 29.8921 25.0211 29.8921C25.0294 29.8563 25.0419 29.8114 25.0419 29.8114C25.0602 29.7281 25.0794 29.6682 25.1043 29.6265C25.1385 29.5691 25.1867 29.521 25.2475 29.486C25.2976 29.4569 25.361 29.4394 25.4324 29.4339ZM26.1535 29.4469C26.1535 29.4469 26.0746 29.8021 26.0546 29.8921C26.1129 29.8921 26.2499 29.8921 26.2499 29.8921L26.1926 30.1498C26.1926 30.1498 26.049 30.1498 25.9973 30.1498C25.9815 30.2215 25.8567 30.7773 25.8567 30.7773C25.8567 30.7773 25.8463 30.844 25.8463 30.8632C25.8463 30.8638 25.8463 30.8653 25.8463 30.8658V30.8684H25.8489L25.8802 30.871L26.0234 30.8606L26.0077 31.0923L26.0104 31.1339L25.8047 31.1574C25.723 31.1574 25.6632 31.144 25.6198 31.1157C25.574 31.0857 25.5473 31.0459 25.5365 30.9959C25.5348 30.9868 25.5313 30.9734 25.5313 30.9543C25.5313 30.9168 25.5384 30.8534 25.5625 30.7434C25.5625 30.7434 25.672 30.2531 25.6953 30.1498C25.6562 30.1498 25.5521 30.1498 25.5521 30.1498L25.6094 29.8921C25.6094 29.8921 25.711 29.8921 25.7526 29.8921C25.7659 29.8321 25.8125 29.6265 25.8125 29.6265L26.0546 29.499L26.1535 29.4469ZM16.5599 29.4573H17.7315L17.6664 29.7489C17.6664 29.7489 16.8848 29.7489 16.8099 29.7489C16.7965 29.8081 16.7431 30.0476 16.7239 30.1342C16.8322 30.1342 17.4659 30.1342 17.4659 30.1342L17.4008 30.4258C17.4008 30.4258 16.7338 30.4258 16.6588 30.4258C16.643 30.4983 16.5001 31.1417 16.5001 31.1417H16.185L16.5599 29.4573ZM18.1298 29.8687C18.1415 29.8672 18.1544 29.8687 18.1662 29.8687C18.2412 29.8687 18.3105 29.8915 18.3771 29.939L18.4188 29.9676L18.2573 30.2331L18.2131 30.2019C18.1806 30.1811 18.1456 30.1707 18.109 30.1707C18.0773 30.1707 18.0478 30.1819 18.0178 30.2019C17.9862 30.2227 17.9597 30.2503 17.9397 30.2878C17.9047 30.352 17.8791 30.4238 17.8616 30.5013L17.7211 31.1417H17.4191L17.6976 29.8921H17.9788C17.9788 29.8921 17.9691 29.93 17.9658 29.9442C17.9791 29.9342 17.9932 29.9204 18.0048 29.9129C18.0452 29.8888 18.0878 29.8738 18.1298 29.8687ZM19.0254 29.8687C19.0435 29.8673 19.0615 29.8687 19.08 29.8687C19.25 29.8687 19.3786 29.9282 19.4627 30.0457C19.5152 30.1215 19.5434 30.2152 19.5434 30.3269C19.5434 30.3885 19.5358 30.4549 19.52 30.5273L19.4966 30.6185C19.4966 30.6185 18.7328 30.6185 18.6479 30.6185C18.6462 30.6359 18.6453 30.6547 18.6453 30.6705C18.6453 30.7355 18.6586 30.7866 18.6869 30.8241C18.7004 30.8425 18.716 30.859 18.7338 30.871C18.7673 30.8929 18.8106 30.9048 18.8613 30.9048C18.923 30.9048 18.9772 30.8878 19.028 30.8554C19.0763 30.8245 19.1225 30.7753 19.1633 30.707H19.4862L19.4575 30.7694C19.3959 30.8944 19.3099 30.9919 19.2024 31.061C19.0949 31.1302 18.9665 31.1678 18.8249 31.1678C18.6408 31.1678 18.5037 31.1082 18.4188 30.9907C18.3346 30.8758 18.3165 30.7168 18.3615 30.5169C18.4065 30.3136 18.4963 30.1512 18.6271 30.0379C18.7443 29.9362 18.8773 29.8799 19.0254 29.8687ZM20.3817 29.8687C20.3999 29.8673 20.4178 29.8687 20.4364 29.8687C20.6064 29.8687 20.735 29.9282 20.8191 30.0457C20.8716 30.1215 20.8998 30.2152 20.8998 30.3269C20.8998 30.3877 20.8922 30.4531 20.8764 30.5247L20.853 30.6185C20.853 30.6185 20.0892 30.6185 20.0042 30.6185C20.0034 30.6301 20.0025 30.6406 20.0017 30.6523C20.001 30.6567 20.0019 30.6633 20.0017 30.6679C20.0016 30.6687 20.0017 30.6698 20.0017 30.6705C20.0017 30.683 20.0034 30.6953 20.0042 30.707C20.0084 30.7545 20.0208 30.7941 20.0433 30.8241C20.0476 30.83 20.0516 30.8371 20.0563 30.8423C20.0945 30.8832 20.1485 30.9048 20.2177 30.9048C20.2794 30.9048 20.3344 30.8878 20.3844 30.8554C20.4327 30.8245 20.4789 30.7753 20.5197 30.707H20.8452L20.8139 30.7694C20.7523 30.8944 20.6663 30.9919 20.5588 31.061C20.4513 31.1302 20.3229 31.1678 20.1813 31.1678C19.9972 31.1678 19.8601 31.1082 19.7752 30.9907C19.7202 30.9158 19.6944 30.8203 19.6944 30.707C19.6944 30.6895 19.6954 30.6706 19.697 30.6523C19.7004 30.609 19.7071 30.5652 19.7179 30.5169C19.7629 30.3145 19.85 30.1512 19.9808 30.0379C20.0981 29.9362 20.2337 29.8799 20.3817 29.8687ZM24.076 29.8687C24.0946 29.8672 24.1117 29.8687 24.1307 29.8687C24.304 29.8687 24.4371 29.9273 24.5238 30.0431C24.6096 30.1589 24.6304 30.3151 24.5863 30.5117C24.5521 30.665 24.5028 30.7888 24.4353 30.8788C24.3678 30.9688 24.2818 31.0423 24.1801 31.0923C24.0793 31.1423 23.9726 31.1678 23.8651 31.1678C23.6885 31.1678 23.557 31.1074 23.472 30.9907C23.417 30.9166 23.3887 30.8211 23.3887 30.707C23.3887 30.6453 23.3955 30.5798 23.4121 30.5065C23.4621 30.2832 23.5642 30.1132 23.7141 30.004C23.8242 29.9246 23.9458 29.8787 24.076 29.8687ZM28.6502 29.8687C28.6722 29.8673 28.6925 29.8687 28.7153 29.8687C28.8203 29.8687 28.9027 29.8793 28.9652 29.9051C29.0319 29.9318 29.0792 29.9695 29.1058 30.0145C29.1316 30.0569 29.1449 30.1091 29.1449 30.1733L29.1136 30.3633L29.0564 30.6211C29.0072 30.841 28.9964 30.9235 28.9939 30.9543C28.9914 30.9959 28.9952 31.0366 29.0069 31.074L29.0277 31.1417H28.7205L28.7075 31.1027C28.7025 31.0844 28.7039 31.061 28.7023 31.0402C28.644 31.076 28.5855 31.1078 28.533 31.1261C28.4556 31.1528 28.3752 31.1678 28.2935 31.1678C28.1519 31.1678 28.0471 31.1309 27.9837 31.0584C27.9354 31.0051 27.9134 30.9399 27.9134 30.8658C27.9134 30.8375 27.9172 30.8081 27.9239 30.7773C27.938 30.7139 27.9637 30.6553 28.0046 30.6028C28.0445 30.5512 28.0918 30.5087 28.1452 30.4779C28.1968 30.447 28.2544 30.4252 28.3144 30.4102L28.4992 30.3789C28.6417 30.3623 28.748 30.3415 28.8246 30.319C28.8263 30.3107 28.8298 30.3008 28.8298 30.3008C28.8419 30.2472 28.8404 30.2069 28.8272 30.1863C28.8263 30.185 28.8231 30.1822 28.822 30.1811C28.8192 30.1781 28.8149 30.1734 28.8116 30.1707C28.7803 30.1459 28.7269 30.1342 28.6554 30.1342C28.5746 30.1342 28.5148 30.1474 28.4732 30.1733C28.4324 30.1991 28.3946 30.2464 28.3612 30.3139H28.0462L28.0749 30.2514C28.1123 30.1647 28.157 30.0929 28.2128 30.0379C28.2687 29.9829 28.344 29.9403 28.4315 29.9103C28.4986 29.8882 28.5718 29.8735 28.6502 29.8687ZM29.9702 29.8687C29.9819 29.8672 29.9947 29.8687 30.0066 29.8687C30.0824 29.8687 30.1534 29.8915 30.2201 29.939L30.2591 29.9676L30.0977 30.2331L30.0534 30.2019C30.021 30.1811 29.9877 30.1707 29.9519 30.1707C29.9203 30.1707 29.889 30.1819 29.8582 30.2019C29.8265 30.2227 29.8035 30.2503 29.7827 30.2878C29.7485 30.352 29.7221 30.4238 29.7046 30.5013L29.5614 31.1417H29.2594L29.538 29.8921H29.8191C29.8191 29.8921 29.8121 29.93 29.8087 29.9442C29.8221 29.9342 29.8353 29.9204 29.8478 29.9129C29.8875 29.8888 29.9282 29.8738 29.9702 29.8687ZM30.8631 29.8687C30.8813 29.8673 30.8992 29.8687 30.9178 29.8687C31.0877 29.8687 31.2172 29.9282 31.3005 30.0457C31.3538 30.1215 31.3812 30.2152 31.3812 30.3269C31.3812 30.3885 31.371 30.4549 31.3552 30.5273L31.3343 30.6185C31.3343 30.6185 30.5698 30.6185 30.4856 30.6185C30.4839 30.6359 30.4804 30.6547 30.4804 30.6705C30.4804 30.7355 30.4946 30.7866 30.5221 30.8241C30.5263 30.83 30.533 30.8371 30.5377 30.8423C30.5404 30.8453 30.5452 30.85 30.5481 30.8528C30.5853 30.8866 30.636 30.9048 30.6991 30.9048C30.7607 30.9048 30.8149 30.8878 30.8657 30.8554C30.914 30.8245 30.9594 30.7753 31.0011 30.707H31.3265L31.2953 30.7694C31.2336 30.8944 31.1468 30.9919 31.0401 31.061C30.9318 31.1302 30.8051 31.1678 30.6627 31.1678C30.4785 31.1678 30.3441 31.1082 30.2591 30.9907C30.175 30.8758 30.1551 30.7168 30.1992 30.5169C30.2442 30.3136 30.3314 30.1512 30.4622 30.0379C30.5802 29.9362 30.7152 29.8799 30.8631 29.8687ZM26.3045 29.8921H26.6143C26.6143 29.8921 26.6526 30.6336 26.6534 30.6445C26.6659 30.6179 26.6756 30.5956 26.6768 30.5924L27.0179 29.8921H27.3016C27.3016 29.8921 27.3277 30.6247 27.3277 30.6289C27.336 30.6139 27.7156 29.8921 27.7156 29.8921H28.0228L27.3459 31.1417H27.0673C27.0673 31.1417 27.0404 30.4641 27.0387 30.4258C26.9237 30.6616 26.6898 31.1417 26.6898 31.1417H26.4035L26.3045 29.8921ZM19.0306 30.129C18.9588 30.132 18.8936 30.1579 18.8327 30.2071C18.7844 30.2454 18.7518 30.298 18.726 30.3555H19.2388C19.2397 30.3463 19.2415 30.3352 19.2415 30.3269C19.2415 30.2794 19.233 30.2425 19.218 30.2175C19.1814 30.1575 19.127 30.129 19.0462 30.129C19.0414 30.129 19.0354 30.1288 19.0306 30.129ZM20.387 30.129C20.3152 30.132 20.25 30.1579 20.1891 30.2071C20.1408 30.2454 20.109 30.298 20.0823 30.3555H20.5952C20.5961 30.3463 20.5978 30.3352 20.5978 30.3269C20.5978 30.2794 20.5902 30.2425 20.5744 30.2175C20.5671 30.2053 20.5573 30.1932 20.5484 30.1837C20.5136 30.1477 20.4657 30.129 20.4026 30.129C20.3977 30.129 20.3917 30.1288 20.387 30.129ZM30.8787 30.129C30.8049 30.1313 30.736 30.1563 30.6731 30.2071C30.6256 30.2454 30.593 30.298 30.5663 30.3555H31.0766C31.0774 30.3463 31.0792 30.3352 31.0792 30.3269C31.0792 30.2794 31.0716 30.2425 31.0558 30.2175C31.0199 30.1584 30.9648 30.1298 30.8839 30.129C30.8815 30.129 30.8811 30.1289 30.8787 30.129ZM24.0578 30.1342C23.9889 30.1424 23.9249 30.1738 23.8651 30.2279C23.7935 30.2929 23.7415 30.395 23.7115 30.5299C23.699 30.5866 23.6933 30.635 23.6933 30.6783C23.6933 30.7375 23.7047 30.7839 23.7271 30.8189C23.7331 30.8279 23.7411 30.8374 23.748 30.8449C23.785 30.8843 23.8367 30.9048 23.9016 30.9048C23.9857 30.9048 24.0599 30.8735 24.1307 30.8085C24.2023 30.7427 24.2535 30.6396 24.2843 30.5013C24.3126 30.3747 24.3087 30.2801 24.2687 30.2201C24.2303 30.1618 24.1743 30.1342 24.0968 30.1342C24.0837 30.1342 24.0705 30.1327 24.0578 30.1342ZM28.7622 30.5898C28.6913 30.609 28.612 30.6251 28.507 30.6393C28.4287 30.6509 28.3729 30.6632 28.3404 30.6757C28.3121 30.6874 28.2893 30.7035 28.2701 30.7252C28.2518 30.746 28.2395 30.7679 28.2337 30.7929C28.232 30.8029 28.2311 30.8132 28.2311 30.8215C28.2311 30.8222 28.231 30.8235 28.2311 30.8241C28.2311 30.8261 28.2308 30.83 28.2311 30.8319C28.2316 30.8357 28.2326 30.8414 28.2337 30.8449C28.234 30.8461 28.2358 30.849 28.2363 30.8501C28.2372 30.8524 28.2377 30.8558 28.2389 30.858C28.24 30.8601 28.2427 30.8637 28.2441 30.8658C28.2463 30.8688 28.2492 30.8734 28.2519 30.8762C28.2727 30.8995 28.3143 30.91 28.3742 30.91C28.4401 30.91 28.5034 30.8975 28.5617 30.8684C28.6192 30.84 28.6655 30.7978 28.6997 30.7486C28.7247 30.7136 28.7447 30.6598 28.7622 30.5898ZM14.7487 28.4169L16.3944 21.2028H17.3625L15.9049 27.6H19.6638L19.4757 28.4169H14.7487Z" fill="#008033"/>
<g filter="url(#filter0_d_3_333)">
<path d="M61.2784 24.5V12.8636H63.0341V22.9886H68.3068V24.5H61.2784ZM70.1733 24.5V15.7727H71.8722V24.5H70.1733ZM71.0313 14.4261C70.7358 14.4261 70.482 14.3277 70.2699 14.1307C70.0616 13.9299 69.9574 13.6913 69.9574 13.4148C69.9574 13.1345 70.0616 12.8958 70.2699 12.6989C70.482 12.4981 70.7358 12.3977 71.0313 12.3977C71.3267 12.3977 71.5786 12.4981 71.7869 12.6989C71.9991 12.8958 72.1051 13.1345 72.1051 13.4148C72.1051 13.6913 71.9991 13.9299 71.7869 14.1307C71.5786 14.3277 71.3267 14.4261 71.0313 14.4261ZM77.8338 24.6761C76.9891 24.6761 76.2618 24.4849 75.652 24.1023C75.0459 23.7159 74.58 23.1837 74.2543 22.5057C73.9285 21.8277 73.7656 21.0511 73.7656 20.1761C73.7656 19.2898 73.9323 18.5076 74.2656 17.8296C74.599 17.1477 75.0687 16.6155 75.6747 16.233C76.2808 15.8504 76.9948 15.6591 77.8168 15.6591C78.4796 15.6591 79.0706 15.7822 79.5895 16.0284C80.1084 16.2708 80.527 16.6117 80.8452 17.0511C81.1671 17.4905 81.3584 18.0038 81.419 18.5909H79.7656C79.6747 18.1818 79.4664 17.8296 79.1406 17.5341C78.8187 17.2386 78.3868 17.0909 77.8452 17.0909C77.3717 17.0909 76.9569 17.2159 76.6009 17.4659C76.2486 17.7121 75.974 18.0644 75.777 18.5227C75.58 18.9773 75.4815 19.5152 75.4815 20.1364C75.4815 20.7727 75.5781 21.322 75.7713 21.7841C75.9645 22.2462 76.2372 22.6042 76.5895 22.858C76.9456 23.1117 77.3641 23.2386 77.8452 23.2386C78.1672 23.2386 78.4588 23.1799 78.7202 23.0625C78.9853 22.9413 79.2069 22.7689 79.385 22.5455C79.5668 22.322 79.6937 22.053 79.7656 21.7386H81.419C81.3584 22.303 81.1747 22.8068 80.8679 23.25C80.5611 23.6932 80.1501 24.0417 79.635 24.2955C79.1236 24.5492 78.5232 24.6761 77.8338 24.6761ZM86.9972 24.6761C86.1373 24.6761 85.3968 24.4924 84.7756 24.125C84.1582 23.7538 83.6809 23.233 83.3438 22.5625C83.0104 21.8883 82.8438 21.0985 82.8438 20.1932C82.8438 19.2992 83.0104 18.5114 83.3438 17.8296C83.6809 17.1477 84.1506 16.6155 84.7528 16.233C85.3589 15.8504 86.0672 15.6591 86.8778 15.6591C87.3703 15.6591 87.8475 15.7405 88.3097 15.9034C88.7718 16.0663 89.1866 16.322 89.554 16.6705C89.9214 17.0189 90.2112 17.4716 90.4233 18.0284C90.6354 18.5814 90.7415 19.2538 90.7415 20.0455V20.6477H83.804V19.375H89.0767C89.0767 18.928 88.9858 18.5322 88.804 18.1875C88.6222 17.839 88.3665 17.5644 88.0369 17.3636C87.7112 17.1629 87.3286 17.0625 86.8892 17.0625C86.4119 17.0625 85.9953 17.1799 85.6392 17.4148C85.2869 17.6458 85.0142 17.9489 84.821 18.3239C84.6316 18.6951 84.5369 19.0985 84.5369 19.5341V20.5284C84.5369 21.1117 84.6392 21.608 84.8438 22.017C85.0521 22.4261 85.3419 22.7386 85.7131 22.9545C86.0843 23.1667 86.518 23.2727 87.0142 23.2727C87.3362 23.2727 87.6297 23.2273 87.8949 23.1364C88.16 23.0417 88.3892 22.9015 88.5824 22.7159C88.7756 22.5303 88.9233 22.3011 89.0256 22.0284L90.6335 22.3182C90.5047 22.7917 90.2737 23.2064 89.9403 23.5625C89.6108 23.9148 89.196 24.1894 88.696 24.3864C88.1998 24.5795 87.6335 24.6761 86.9972 24.6761ZM94.3253 19.3182V24.5H92.6264V15.7727H94.2571V17.1932H94.3651C94.5658 16.7311 94.8802 16.3599 95.3082 16.0796C95.7401 15.7992 96.2836 15.6591 96.9389 15.6591C97.5336 15.6591 98.0545 15.7841 98.5014 16.0341C98.9484 16.2803 99.295 16.6477 99.5412 17.1364C99.7874 17.625 99.9105 18.2292 99.9105 18.9489V24.5H98.2117V19.1534C98.2117 18.5208 98.0469 18.0265 97.7173 17.6705C97.3878 17.3106 96.9351 17.1307 96.3594 17.1307C95.9654 17.1307 95.6151 17.2159 95.3082 17.3864C95.0052 17.5568 94.7647 17.8068 94.5867 18.1364C94.4124 18.4621 94.3253 18.8561 94.3253 19.3182ZM108.729 17.9034L107.189 18.1761C107.125 17.9792 107.022 17.7917 106.882 17.6136C106.746 17.4356 106.56 17.2898 106.325 17.1761C106.09 17.0625 105.797 17.0057 105.445 17.0057C104.964 17.0057 104.562 17.1136 104.24 17.3296C103.918 17.5417 103.757 17.8163 103.757 18.1534C103.757 18.4451 103.865 18.6799 104.081 18.858C104.297 19.036 104.645 19.1818 105.126 19.2955L106.513 19.6136C107.316 19.7992 107.914 20.0852 108.308 20.4716C108.702 20.858 108.899 21.3599 108.899 21.9773C108.899 22.5 108.748 22.9659 108.445 23.375C108.145 23.7803 107.727 24.0985 107.189 24.3295C106.655 24.5606 106.036 24.6761 105.331 24.6761C104.354 24.6761 103.556 24.4678 102.939 24.0511C102.321 23.6307 101.943 23.0341 101.803 22.2614L103.445 22.0114C103.547 22.4394 103.757 22.7633 104.075 22.983C104.393 23.1989 104.808 23.3068 105.32 23.3068C105.876 23.3068 106.321 23.1913 106.655 22.9602C106.988 22.7254 107.155 22.4394 107.155 22.1023C107.155 21.8295 107.053 21.6004 106.848 21.4148C106.647 21.2292 106.339 21.089 105.922 20.9943L104.445 20.6705C103.63 20.4849 103.028 20.1894 102.638 19.7841C102.251 19.3788 102.058 18.8655 102.058 18.2443C102.058 17.7292 102.202 17.2784 102.49 16.8921C102.778 16.5057 103.176 16.2046 103.683 15.9886C104.191 15.7689 104.772 15.6591 105.428 15.6591C106.371 15.6591 107.113 15.8636 107.655 16.2727C108.196 16.678 108.554 17.2216 108.729 17.9034ZM114.528 24.6761C113.669 24.6761 112.928 24.4924 112.307 24.125C111.689 23.7538 111.212 23.233 110.875 22.5625C110.542 21.8883 110.375 21.0985 110.375 20.1932C110.375 19.2992 110.542 18.5114 110.875 17.8296C111.212 17.1477 111.682 16.6155 112.284 16.233C112.89 15.8504 113.598 15.6591 114.409 15.6591C114.902 15.6591 115.379 15.7405 115.841 15.9034C116.303 16.0663 116.718 16.322 117.085 16.6705C117.453 17.0189 117.742 17.4716 117.955 18.0284C118.167 18.5814 118.273 19.2538 118.273 20.0455V20.6477H111.335V19.375H116.608C116.608 18.928 116.517 18.5322 116.335 18.1875C116.153 17.839 115.898 17.5644 115.568 17.3636C115.242 17.1629 114.86 17.0625 114.42 17.0625C113.943 17.0625 113.527 17.1799 113.17 17.4148C112.818 17.6458 112.545 17.9489 112.352 18.3239C112.163 18.6951 112.068 19.0985 112.068 19.5341V20.5284C112.068 21.1117 112.17 21.608 112.375 22.017C112.583 22.4261 112.873 22.7386 113.244 22.9545C113.616 23.1667 114.049 23.2727 114.545 23.2727C114.867 23.2727 115.161 23.2273 115.426 23.1364C115.691 23.0417 115.92 22.9015 116.114 22.7159C116.307 22.5303 116.455 22.3011 116.557 22.0284L118.165 22.3182C118.036 22.7917 117.805 23.2064 117.472 23.5625C117.142 23.9148 116.727 24.1894 116.227 24.3864C115.731 24.5795 115.165 24.6761 114.528 24.6761ZM123.425 24.6705C122.72 24.6705 122.091 24.4905 121.538 24.1307C120.989 23.767 120.557 23.25 120.243 22.5795C119.932 21.9053 119.777 21.0966 119.777 20.1534C119.777 19.2102 119.934 18.4034 120.249 17.733C120.567 17.0625 121.002 16.5492 121.555 16.1932C122.108 15.8371 122.735 15.6591 123.436 15.6591C123.978 15.6591 124.413 15.75 124.743 15.9318C125.076 16.1099 125.334 16.3182 125.516 16.5568C125.701 16.7955 125.845 17.0057 125.947 17.1875H126.05V12.8636H127.749V24.5H126.089V23.142H125.947C125.845 23.3277 125.697 23.5398 125.504 23.7784C125.315 24.017 125.053 24.2254 124.72 24.4034C124.387 24.5814 123.955 24.6705 123.425 24.6705ZM123.8 23.2216C124.288 23.2216 124.701 23.0928 125.038 22.8352C125.379 22.5739 125.637 22.2121 125.811 21.75C125.989 21.2879 126.078 20.75 126.078 20.1364C126.078 19.5303 125.991 19 125.817 18.5455C125.643 18.0909 125.387 17.7367 125.05 17.483C124.713 17.2292 124.296 17.1023 123.8 17.1023C123.288 17.1023 122.862 17.2349 122.521 17.5C122.18 17.7652 121.923 18.1269 121.749 18.5852C121.578 19.0436 121.493 19.5606 121.493 20.1364C121.493 20.7197 121.58 21.2443 121.754 21.7102C121.929 22.1761 122.186 22.5455 122.527 22.8182C122.872 23.0871 123.296 23.2216 123.8 23.2216ZM134.544 24.5V12.8636H136.243V17.1875H136.345C136.444 17.0057 136.586 16.7955 136.771 16.5568C136.957 16.3182 137.214 16.1099 137.544 15.9318C137.874 15.75 138.309 15.6591 138.851 15.6591C139.555 15.6591 140.184 15.8371 140.737 16.1932C141.29 16.5492 141.724 17.0625 142.038 17.733C142.357 18.4034 142.516 19.2102 142.516 20.1534C142.516 21.0966 142.358 21.9053 142.044 22.5795C141.73 23.25 141.298 23.767 140.749 24.1307C140.199 24.4905 139.572 24.6705 138.868 24.6705C138.338 24.6705 137.904 24.5814 137.567 24.4034C137.233 24.2254 136.972 24.017 136.783 23.7784C136.593 23.5398 136.447 23.3277 136.345 23.142H136.203V24.5H134.544ZM136.209 20.1364C136.209 20.75 136.298 21.2879 136.476 21.75C136.654 22.2121 136.911 22.5739 137.249 22.8352C137.586 23.0928 137.999 23.2216 138.487 23.2216C138.995 23.2216 139.419 23.0871 139.76 22.8182C140.101 22.5455 140.358 22.1761 140.533 21.7102C140.711 21.2443 140.8 20.7197 140.8 20.1364C140.8 19.5606 140.713 19.0436 140.538 18.5852C140.368 18.1269 140.11 17.7652 139.766 17.5C139.425 17.2349 138.999 17.1023 138.487 17.1023C137.995 17.1023 137.578 17.2292 137.237 17.483C136.9 17.7367 136.644 18.0909 136.47 18.5455C136.296 19 136.209 19.5303 136.209 20.1364ZM145.2 27.7727C144.946 27.7727 144.715 27.7519 144.507 27.7102C144.299 27.6724 144.143 27.6307 144.041 27.5852L144.45 26.1932C144.761 26.2765 145.037 26.3125 145.28 26.3011C145.522 26.2898 145.736 26.1989 145.922 26.0284C146.111 25.858 146.278 25.5795 146.422 25.1932L146.632 24.6136L143.439 15.7727H145.257L147.467 22.5455H147.558L149.768 15.7727H151.592L147.996 25.6648C147.829 26.1193 147.617 26.5038 147.359 26.8182C147.102 27.1364 146.795 27.375 146.439 27.5341C146.083 27.6932 145.67 27.7727 145.2 27.7727Z" fill="#E8E8E8"/>
<path d="M60.9357 43.5V31.1364H63.924V41.0731H69.0675V43.5H60.9357ZM78.2466 35.1751C78.1782 34.9215 78.0776 34.6982 77.9448 34.505C77.812 34.3078 77.649 34.1407 77.4558 34.0039C77.2626 33.8671 77.0413 33.7644 76.7917 33.696C76.5422 33.6236 76.2685 33.5874 75.9707 33.5874C75.371 33.5874 74.8519 33.7322 74.4132 34.022C73.9785 34.3118 73.6425 34.7344 73.405 35.2898C73.1676 35.8411 73.0488 36.5112 73.0488 37.3001C73.0488 38.0929 73.1635 38.7691 73.3929 39.3285C73.6223 39.8879 73.9544 40.3145 74.389 40.6083C74.8237 40.9021 75.3509 41.049 75.9707 41.049C76.5181 41.049 76.9809 40.9605 77.3592 40.7834C77.7415 40.6023 78.0313 40.3467 78.2285 40.0167C78.4257 39.6867 78.5243 39.2983 78.5243 38.8516L79.0797 38.918H76.0733V36.7386H81.404V38.3746C81.404 39.4814 81.1685 40.4292 80.6976 41.218C80.2308 42.0069 79.5868 42.6126 78.7658 43.0352C77.9488 43.4577 77.0091 43.669 75.9466 43.669C74.7674 43.669 73.731 43.4135 72.8375 42.9023C71.9441 42.3912 71.2478 41.6628 70.7488 40.717C70.2497 39.7672 70.0002 38.6403 70.0002 37.3363C70.0002 36.3221 70.1511 35.4226 70.453 34.6378C70.7548 33.849 71.1754 33.1809 71.7147 32.6335C72.258 32.0862 72.8858 31.6716 73.5982 31.3899C74.3146 31.1082 75.0853 30.9673 75.9103 30.9673C76.6267 30.9673 77.2928 31.07 77.9086 31.2752C78.5284 31.4805 79.0757 31.7702 79.5506 32.1445C80.0295 32.5188 80.4179 32.9635 80.7157 33.4787C81.0136 33.9938 81.1987 34.5593 81.2711 35.1751H78.2466ZM83.1652 43.5V31.1364H88.2725C89.1981 31.1364 89.997 31.3175 90.6691 31.6797C91.3453 32.0379 91.8665 32.5389 92.2327 33.1829C92.5989 33.8228 92.7821 34.5674 92.7821 35.4165C92.7821 36.2698 92.5949 37.0163 92.2206 37.6562C91.8504 38.2921 91.3211 38.7852 90.6329 39.1353C89.9447 39.4854 89.1277 39.6605 88.1819 39.6605H85.0306V37.3061H87.6265C88.0773 37.3061 88.4536 37.2276 88.7554 37.0707C89.0613 36.9137 89.2927 36.6944 89.4497 36.4126C89.6066 36.1269 89.6851 35.7949 89.6851 35.4165C89.6851 35.0342 89.6066 34.7042 89.4497 34.4265C89.2927 34.1448 89.0613 33.9274 88.7554 33.7745C88.4496 33.6216 88.0732 33.5451 87.6265 33.5451H86.1535V43.5H83.1652ZM94.2551 43.5V31.1364H97.2433V41.0731H102.387V43.5H94.2551ZM116.581 34.2273L113.4 43.5H110.019L106.844 34.2273H109.953L111.661 40.6143H111.758L113.472 34.2273H116.581ZM122.392 43.669C121.45 43.669 120.615 43.508 119.886 43.1861C119.162 42.8601 118.59 42.4113 118.172 41.8398C117.753 41.2683 117.54 40.6103 117.532 39.8658H120.538C120.55 40.1354 120.637 40.3749 120.798 40.5842C120.959 40.7894 121.178 40.9504 121.456 41.0671C121.734 41.1838 122.05 41.2422 122.404 41.2422C122.758 41.2422 123.07 41.1798 123.339 41.055C123.613 40.9263 123.826 40.7512 123.979 40.5298C124.132 40.3044 124.207 40.0469 124.203 39.7571C124.207 39.4673 124.124 39.2098 123.955 38.9844C123.786 38.759 123.547 38.5839 123.237 38.4592C122.931 38.3344 122.569 38.272 122.15 38.272H120.949V36.147H122.15C122.516 36.147 122.838 36.0866 123.116 35.9659C123.398 35.8452 123.617 35.6761 123.774 35.4588C123.931 35.2375 124.008 34.9839 124.004 34.6982C124.008 34.4205 123.941 34.177 123.804 33.9677C123.672 33.7544 123.484 33.5894 123.243 33.4727C123.005 33.3559 122.73 33.2976 122.416 33.2976C122.086 33.2976 121.786 33.3559 121.516 33.4727C121.251 33.5894 121.039 33.7544 120.882 33.9677C120.725 34.181 120.643 34.4285 120.635 34.7102H117.779C117.788 33.9737 117.993 33.3258 118.395 32.7663C118.798 32.2029 119.345 31.7622 120.037 31.4442C120.734 31.1263 121.526 30.9673 122.416 30.9673C123.301 30.9673 124.08 31.1223 124.752 31.4322C125.424 31.7421 125.947 32.1647 126.322 32.6999C126.696 33.2312 126.883 33.8329 126.883 34.505C126.887 35.2012 126.66 35.7747 126.201 36.2255C125.746 36.6763 125.161 36.954 124.444 37.0586V37.1552C125.402 37.2679 126.125 37.5778 126.612 38.0849C127.103 38.592 127.346 39.2258 127.342 39.9865C127.342 40.7029 127.131 41.3388 126.708 41.8942C126.29 42.4455 125.706 42.8802 124.957 43.1981C124.213 43.5121 123.358 43.669 122.392 43.669Z" fill="#008033"/>
</g>
<defs>
<filter id="filter0_d_3_333" x="54.4" y="3.90001" width="104.2" height="48.2" filterUnits="userSpaceOnUse" color-interpolation-filters="sRGB">
<feFlood flood-opacity="0" result="BackgroundImageFix"/>
<feColorMatrix in="SourceAlpha" type="matrix" values="0 0 0 0 0 0 0 0 0 0 0 0 0 0 0 0 0 0 127 0" result="hardAlpha"/>
<feOffset/>
<feGaussianBlur stdDeviation="2.8"/>
<feComposite in2="hardAlpha" operator="out"/>
<feColorMatrix type="matrix" values="0 0 0 0 0 0 0 0 0 0 0 0 0 0 0 0 0 0 0.25 0"/>
<feBlend mode="normal" in2="BackgroundImageFix" result="effect1_dropShadow_3_333"/>
<feBlend mode="normal" in="SourceGraphic" in2="effect1_dropShadow_3_333" result="shape"/>
</filter>
<linearGradient id="paint0_linear_3_333" x1="82.5" y1="0" x2="82.5" y2="56" gradientUnits="userSpaceOnUse">
<stop stop-color="#002B11"/>
<stop offset="1" stop-color="#000903"/>
</linearGradient>
</defs>
</svg>
