<svg width="165" height="53" viewBox="0 0 165 53" fill="none" xmlns="http://www.w3.org/2000/svg">
<rect width="165" height="53" rx="8" fill="url(#paint0_linear_3_333)"/>
<rect x="1.05" y="1.05" width="162.9" height="50.9" rx="6.95" stroke="white" stroke-opacity="0.15" stroke-width="2.1"/>
<path fill-rule="evenodd" clip-rule="evenodd" d="M34.3046 28.2391H34.3038C34.2255 28.2391 34.1564 28.2649 34.0914 28.3174C34.0431 28.3557 34.0097 28.4074 33.9831 28.4648H33.9864C34.0131 28.4074 34.0464 28.3557 34.0939 28.3174C34.1589 28.2649 34.228 28.2399 34.3046 28.2391Z" fill="#BD0000"/>
<path fill-rule="evenodd" clip-rule="evenodd" d="M34.3072 28.2391C34.3063 28.2391 34.3055 28.2391 34.3046 28.2391C34.3855 28.2399 34.4388 28.2674 34.4746 28.3265C34.4904 28.3515 34.4988 28.389 34.4988 28.4365C34.4988 28.4448 34.4971 28.4557 34.4963 28.4648H34.4996C34.4996 28.4557 34.5013 28.4448 34.5013 28.4365C34.5013 28.389 34.4938 28.3515 34.4779 28.3265C34.4421 28.2665 34.388 28.2391 34.3072 28.2391Z" fill="#BD0000"/>
<path fill-rule="evenodd" clip-rule="evenodd" d="M12 35.1238H12.6215L12.9006 33.9575H13.9103L14.0402 33.4577H13.0264L13.1947 32.7079H14.2735L14.4035 32.1247H12.6998L12 35.1238Z" fill="#008033"/>
<path fill-rule="evenodd" clip-rule="evenodd" d="M14.7875 35.1238L14.9741 34.3407C15.0725 33.9167 15.2799 33.541 15.6723 33.541C15.7073 33.541 15.7414 33.5585 15.7673 33.5626L15.9189 32.962C15.8839 32.962 15.8456 32.9578 15.8022 32.9578C15.5132 32.9578 15.2707 33.1611 15.1091 33.4527H15.0924C15.1166 33.3102 15.1374 33.1752 15.1533 33.0411H14.6176C14.5868 33.2144 14.5393 33.5535 14.4668 33.8592L14.1619 35.1238H14.7875Z" fill="#008033"/>
<path fill-rule="evenodd" clip-rule="evenodd" d="M17.5517 34.5615C17.3793 34.6456 17.1827 34.624 16.9536 34.624C16.7728 34.624 16.6328 34.5923 16.5562 34.5307C16.5162 34.4632 16.4995 34.3582 16.5029 34.2907C17.3468 34.3132 17.8791 34.1183 17.9058 33.5851C17.9258 33.1827 17.6317 32.9578 17.2043 32.9578C16.4412 32.9578 15.9414 33.6309 15.9089 34.2791C15.8806 34.8448 16.1738 35.1238 16.7786 35.1238C17.0111 35.1238 17.3193 35.0972 17.5717 35.0214L17.5517 34.5615ZM17.3235 33.5851C17.3135 33.7834 17.0685 33.7951 16.5862 33.7909C16.6387 33.6168 16.8153 33.4577 17.1044 33.4577C17.2468 33.4577 17.3285 33.5118 17.3235 33.5851Z" fill="#008033"/>
<path fill-rule="evenodd" clip-rule="evenodd" d="M19.7603 34.5615C19.5878 34.6456 19.3912 34.624 19.163 34.624C18.9813 34.624 18.8422 34.5923 18.7656 34.5307C18.7256 34.4632 18.7081 34.3582 18.7114 34.2907C19.5562 34.3132 20.0877 34.1183 20.1152 33.5851C20.1352 33.1827 19.8411 32.9578 19.4137 32.9578C18.6498 32.9578 18.1499 33.6309 18.1174 34.2791C18.0899 34.8448 18.3832 35.1238 18.9872 35.1238C19.2204 35.1238 19.5287 35.0972 19.7811 35.0214L19.7603 34.5615ZM19.5329 33.5851C19.5229 33.7834 19.2779 33.7951 18.7947 33.7909C18.8481 33.6168 19.0238 33.4577 19.3129 33.4577C19.4554 33.4577 19.5379 33.5118 19.5329 33.5851Z" fill="#008033"/>
<path fill-rule="evenodd" clip-rule="evenodd" d="M22.976 35.1238C22.981 34.8597 23.0443 34.4449 23.1102 34.1724L23.3776 33.0411C23.2076 32.9836 22.9427 32.9578 22.6878 32.9578C21.6531 32.9578 21.1399 33.7242 21.1041 34.4424C21.0816 34.8931 21.3257 35.1238 21.7056 35.1238C21.9513 35.1238 22.2287 35.0047 22.4445 34.6465H22.4537C22.437 34.8189 22.417 34.9864 22.4062 35.1238H22.976ZM22.5487 33.9342C22.427 34.464 22.1788 34.624 21.9938 34.624C21.8214 34.624 21.7464 34.5015 21.7564 34.3232C21.7764 33.9209 22.0946 33.4577 22.4962 33.4577C22.5612 33.4577 22.612 33.446 22.6595 33.4343L22.5487 33.9342Z" fill="#008033"/>
<path fill-rule="evenodd" clip-rule="evenodd" d="M23.3834 35.0255C23.5034 35.1188 23.755 35.1197 24.0174 35.1238C24.5781 35.128 25.0013 34.8831 25.0263 34.4332C25.0404 34.1333 24.808 33.9558 24.5806 33.8367C24.4164 33.7576 24.334 33.6818 24.3381 33.5935C24.344 33.4743 24.4556 33.4577 24.6197 33.4577C24.8047 33.4577 24.953 33.4802 25.0379 33.4968L25.2062 33.0453C25.1104 32.9878 24.9188 32.9578 24.673 32.9578C24.129 32.9578 23.7308 33.2452 23.7083 33.6818C23.695 33.9517 23.8891 34.1333 24.124 34.2566C24.314 34.3541 24.379 34.429 24.374 34.5348C24.3681 34.6415 24.2732 34.624 24.1007 34.624C23.8983 34.624 23.6742 34.5973 23.5559 34.579L23.3834 35.0255Z" fill="#008033"/>
<path fill-rule="evenodd" clip-rule="evenodd" d="M26.7074 35.1238L27.2115 33.0411H26.5941L26.0868 35.1238H26.7074ZM26.9965 32.7912C27.2081 32.7912 27.3964 32.6162 27.4081 32.3163C27.4181 32.113 27.2864 32.0414 27.0923 32.0414C26.8899 32.0414 26.7049 32.173 26.6941 32.3696C26.6841 32.5679 26.8157 32.7912 26.9965 32.7912Z" fill="#008033"/>
<path fill-rule="evenodd" clip-rule="evenodd" d="M27.8988 35.1239L28.1187 34.1858C28.2328 33.7084 28.4786 33.541 28.681 33.541C28.841 33.541 28.8877 33.6093 28.8802 33.7084C28.876 33.7884 28.8635 33.8725 28.8468 33.9475L28.5669 35.1239H29.1884L29.4833 33.89C29.5058 33.7834 29.5308 33.6243 29.5358 33.5276C29.5541 33.1519 29.3667 33.0153 29.0218 33.0153C28.7452 33.0153 28.4761 33.1436 28.2637 33.4218H28.2553L28.312 33.0411H27.7638C27.728 33.2194 27.6822 33.4352 27.6172 33.6868L27.2773 35.1239H27.8988Z" fill="#008033"/>
<path fill-rule="evenodd" clip-rule="evenodd" d="M30.573 35.1238H31.1945L31.4744 33.9575H32.4833L32.6133 33.4577H31.5994L31.7677 32.7079H32.8465L32.9765 32.1247H31.2728L30.573 35.1238Z" fill="#008033"/>
<path fill-rule="evenodd" clip-rule="evenodd" d="M33.3605 35.1238L33.5472 34.3407C33.6455 33.9167 33.8529 33.541 34.2453 33.541C34.2803 33.541 34.3144 33.5585 34.3403 33.5626L34.4919 32.962C34.4569 32.962 34.4186 32.9578 34.3752 32.9578C34.0862 32.9578 33.8437 33.1611 33.6821 33.4527H33.6655C33.6896 33.3102 33.7104 33.1752 33.7263 33.0411H33.1906C33.1606 33.2144 33.1123 33.5535 33.0398 33.8592L32.7349 35.1238H33.3605Z" fill="#008033"/>
<path fill-rule="evenodd" clip-rule="evenodd" d="M36.1248 34.5615C35.9523 34.6456 35.7557 34.624 35.5266 34.624C35.3458 34.624 35.2059 34.5923 35.1292 34.5307C35.0892 34.4632 35.0726 34.3582 35.0759 34.2907C35.9198 34.3132 36.4522 34.1183 36.4788 33.5851C36.4988 33.1827 36.2047 32.9578 35.7774 32.9578C35.0142 32.9578 34.5144 33.6309 34.4819 34.2791C34.4536 34.8448 34.7477 35.1238 35.3517 35.1238C35.5841 35.1238 35.8932 35.0972 36.1448 35.0214L36.1248 34.5615ZM35.8965 33.5851C35.8865 33.7834 35.6416 33.7951 35.1592 33.7909C35.2117 33.6168 35.3883 33.4577 35.6774 33.4577C35.8199 33.4577 35.9015 33.5118 35.8965 33.5851Z" fill="#008033"/>
<path fill-rule="evenodd" clip-rule="evenodd" d="M38.3333 34.5615C38.1608 34.6456 37.9642 34.624 37.736 34.624C37.5543 34.624 37.4152 34.5923 37.3386 34.5307C37.2986 34.4632 37.2811 34.3582 37.2844 34.2907C38.1292 34.3132 38.6607 34.1183 38.6882 33.5851C38.7082 33.1827 38.4141 32.9578 37.9867 32.9578C37.2228 32.9578 36.7229 33.6309 36.6904 34.2791C36.6629 34.8448 36.9562 35.1238 37.5602 35.1238C37.7934 35.1238 38.1017 35.0972 38.3541 35.0214L38.3333 34.5615ZM38.1058 33.5851C38.0959 33.7834 37.8509 33.7951 37.3677 33.7909C37.421 33.6168 37.5968 33.4577 37.8859 33.4577C38.0284 33.4577 38.1108 33.5118 38.1058 33.5851Z" fill="#008033"/>
<path fill-rule="evenodd" clip-rule="evenodd" d="M40.8026 32.0414L40.5685 32.9878C40.4835 32.9528 40.3727 32.9578 40.2861 32.9578C39.488 32.9578 38.9231 33.6409 38.8856 34.3807C38.8606 34.9022 39.1389 35.1238 39.4971 35.1238C39.7479 35.1238 40.012 35.013 40.2119 34.7265H40.2202L40.1728 35.1238H40.7376C40.7634 34.8739 40.8176 34.5765 40.8784 34.3049L41.4191 32.0414H40.8026ZM40.316 34.0758C40.2186 34.4865 39.9886 34.624 39.807 34.624C39.6262 34.624 39.5254 34.4982 39.5379 34.2741C39.5588 33.8592 39.8437 33.4577 40.2144 33.4577C40.3185 33.4577 40.4077 33.4735 40.4568 33.4968L40.316 34.0758Z" fill="#008033"/>
<path fill-rule="evenodd" clip-rule="evenodd" d="M42.2197 35.1238C42.9445 35.1238 43.5035 34.5748 43.5426 33.8275C43.5668 33.3327 43.2585 32.9578 42.6895 32.9578C41.9381 32.9578 41.3991 33.566 41.3616 34.3007C41.3358 34.8356 41.6807 35.1238 42.2197 35.1238ZM42.3171 34.624C42.1055 34.624 41.9889 34.489 42.0014 34.2874C42.0181 33.9517 42.2255 33.4577 42.5829 33.4577C42.8295 33.4577 42.9053 33.6468 42.8953 33.8325C42.877 34.1991 42.6537 34.624 42.3171 34.624Z" fill="#008033"/>
<path fill-rule="evenodd" clip-rule="evenodd" d="M44.3149 35.1238L44.5398 34.1725C44.634 33.7484 44.8689 33.4577 45.0797 33.4577C45.2313 33.4577 45.273 33.5685 45.2655 33.7134C45.2613 33.7884 45.2446 33.8725 45.2271 33.9558L44.9489 35.1238H45.5487L45.7736 34.1683C45.877 33.7309 46.0986 33.4577 46.3052 33.4577C46.4476 33.4577 46.5068 33.5593 46.5001 33.7043C46.4959 33.7884 46.4784 33.8809 46.4568 33.965L46.1869 35.1238H46.7909L47.0816 33.89C47.1041 33.7792 47.1299 33.6068 47.1341 33.5185C47.1524 33.1519 46.9733 32.9578 46.6501 32.9578C46.3735 32.9578 46.1044 33.0828 45.9003 33.346C45.8928 33.1561 45.757 32.9578 45.4204 32.9578C45.148 32.9578 44.8881 33.0811 44.6798 33.3602H44.6715L44.7273 33.0411H44.1924C44.1574 33.2194 44.115 33.4352 44.05 33.6868L43.7151 35.1238H44.3149Z" fill="#008033"/>
<path d="M36.4312 29.5342C36.465 29.6211 36.4988 29.7079 36.534 29.7928C36.5883 29.9081 36.651 30.0185 36.7264 30.1216C37.1336 30.6752 37.8156 30.9783 38.6815 31.0537H39.613C39.9075 31.0308 40.2161 30.9879 40.536 30.9254C41.0876 30.8175 41.6724 30.6518 42.2797 30.4303C42.7398 30.2626 43.2126 30.0641 43.6924 29.8335C44.7373 29.3326 45.8167 28.6866 46.8756 27.907C47.2244 27.6504 47.559 27.3872 47.8803 27.1195C48.1748 26.8745 48.4574 26.6256 48.7272 26.374C49.4804 25.6482 50.049 24.911 50.3709 24.2637C50.7063 23.5897 50.7732 23.0134 50.4985 22.6503C50.3301 22.4274 50.0483 22.308 49.6854 22.2799C51.32 21.0534 52.2726 19.5656 51.9309 18.6275C51.8224 18.3281 51.5835 18.1048 51.2411 17.9813C51.0889 17.9266 50.9177 17.8919 50.731 17.8761H50.2279C49.5255 17.9268 48.504 18.1783 47.6374 18.603" stroke="#007F32" stroke-width="0.5"/>
<path fill-rule="evenodd" clip-rule="evenodd" d="M15.8184 18.202L13.0185 30.8442C13.0193 30.8442 18.3875 30.8442 18.3891 30.8442C21.741 30.8442 31.7941 30.8442 31.7941 30.8442H38.7661C37.9355 30.7717 37.2797 30.4801 36.889 29.9486C36.8165 29.8503 36.7567 29.7444 36.7042 29.6336C36.6709 29.552 36.6395 29.4696 36.6079 29.3863C36.5245 29.1213 36.4913 28.8274 36.5063 28.5141C36.548 27.641 36.9576 26.6025 37.6675 25.515C38.4214 24.3592 39.5141 23.1479 40.8671 22.0238C41.1703 21.772 41.4839 21.5234 41.8121 21.2818C42.2178 20.9833 42.6266 20.7084 43.0357 20.4513C44.5428 19.5025 46.0461 18.8386 47.3782 18.5014C46.1052 18.9167 44.6751 19.6217 43.2622 20.5815C43.2114 20.6158 43.1612 20.651 43.1112 20.6856C42.3272 21.2288 41.617 21.8057 40.9972 22.3883C39.0028 24.2636 37.9486 26.2068 38.4276 27.3452C38.4618 27.4235 38.5025 27.4983 38.55 27.5691C39.0649 28.3264 40.3408 28.4573 41.9579 28.0507C42.0679 28.0232 42.1778 27.9921 42.2911 27.9596C42.8076 27.8105 43.356 27.6091 43.9209 27.3608C44.0567 27.3008 44.1939 27.2392 44.3322 27.1733C44.3464 27.1667 44.3597 27.16 44.3739 27.1525C46.1567 26.2667 47.5268 25.2474 47.8234 24.635C47.8884 24.5018 47.904 24.3882 47.8598 24.2992C47.6482 23.8701 46.1675 24.16 44.3739 24.937C44.2297 24.9995 44.0839 25.0638 43.9365 25.1323C44.0564 25.0209 44.1813 24.9091 44.3088 24.799C44.512 24.6239 44.7225 24.4527 44.9466 24.2836C45.2973 24.018 45.6519 23.7779 46.001 23.565C47.6355 22.3319 48.4618 21.1654 48.2894 20.7325C48.2569 20.6509 48.1878 20.5948 48.0811 20.5607C47.7404 20.4523 47.1185 20.5816 46.3629 20.8913C45.7397 21.1469 45.024 21.526 44.2984 21.9978L44.1994 22.0628L44.1812 22.0733L43.8323 22.305L44.0328 21.9379C44.3302 21.3934 44.8147 20.8254 45.4178 20.2977C45.8602 19.9119 46.3656 19.5484 46.9096 19.2303C47.1154 19.1099 47.3208 18.998 47.5266 18.8971C47.7374 18.7941 47.9482 18.7026 48.154 18.6211C48.7519 18.3847 49.4086 18.0861 49.9063 18.0471C49.861 18.0471 48.4222 18.202 48.4222 18.202H43.71H22.9321H15.8184ZM36.233 18.2202C36.1513 19.4663 36.3929 21.2914 36.9411 23.3177C37.0386 23.6782 37.1447 24.0452 37.2613 24.4163C37.3338 24.6455 37.4086 24.8711 37.4852 25.0932C37.4402 25.1594 37.3949 25.2251 37.3524 25.2911C36.6685 26.3393 36.2687 27.3299 36.1679 28.1913C35.8788 27.2232 35.6611 26.1629 35.5379 25.0385C35.5029 24.7164 35.4755 24.3978 35.4571 24.0831C35.3222 21.7968 35.6206 19.7243 36.233 18.2202ZM22.5832 19.8421C22.5988 19.8418 22.6142 19.8421 22.6301 19.8421H25.7099C25.9732 19.8421 26.1768 19.8915 26.3217 19.9905C26.4659 20.0902 26.5199 20.219 26.4858 20.3758L26.1187 22.0342H25.0331L25.3897 20.4201H22.6717L21.6903 24.8563L21.3362 26.4626H24.0516L24.0542 26.4522L24.5983 23.9946H23.3226L23.445 23.4401H25.8063L25.1294 26.5069C25.1202 26.5505 25.1042 26.5901 25.0825 26.6292C25.0267 26.7309 24.9293 26.8179 24.7935 26.8896C24.6053 26.9887 24.3799 27.038 24.1166 27.038H21.0394C20.7761 27.038 20.5726 26.9887 20.4276 26.8896C20.2835 26.7904 20.2286 26.6638 20.2636 26.5069L21.62 20.3758C21.655 20.219 21.7641 20.0902 21.9532 19.9905C21.9599 19.9869 21.9674 19.9861 21.974 19.9827C22.1466 19.8962 22.3492 19.8476 22.5832 19.8421ZM27.41 19.8421H31.2865C31.5464 19.8421 31.7507 19.8915 31.8957 19.9905C32.0415 20.0902 32.0973 20.219 32.0623 20.3758L31.3385 23.6457C31.3044 23.8015 31.1926 23.9286 31.0027 24.0284C30.8127 24.1286 30.5892 24.1794 30.3284 24.1794H27.5115L26.9674 26.6344L26.8789 27.038H25.8167L25.8974 26.6735L27.41 19.8421ZM32.7652 19.8421H33.8274L32.6246 25.2755L32.3617 26.4626H34.9026C34.9293 26.6575 34.9604 26.8489 34.9937 27.038H31.1719L31.4739 25.6738L32.7652 19.8421ZM28.3446 20.4201L27.6391 23.6015H30.2867L30.9897 20.4201H28.3446ZM22.6988 27.9287C22.7092 27.9283 22.7196 27.9287 22.73 27.9287C22.8533 27.9287 22.961 27.9503 23.0477 27.9912C23.1401 28.0345 23.2063 28.0988 23.2429 28.1838C23.2787 28.2663 23.2881 28.3599 23.2689 28.4624L23.2611 28.5014H22.9565L22.9591 28.465C22.967 28.3934 22.9581 28.3371 22.9305 28.2984C22.9269 28.2935 22.9217 28.2871 22.9175 28.2827C22.9106 28.2757 22.9003 28.2677 22.8914 28.2619C22.8488 28.2351 22.7822 28.2203 22.6962 28.2203C22.5821 28.2203 22.4968 28.2402 22.4384 28.2801C22.3818 28.3193 22.346 28.363 22.3343 28.4155C22.3227 28.4688 22.3418 28.4969 22.3551 28.5118C22.3556 28.5123 22.3572 28.514 22.3577 28.5145C22.3746 28.5288 22.4332 28.5626 22.6155 28.6056C22.7804 28.6456 22.8897 28.6815 22.9513 28.7123C23.0446 28.7598 23.1098 28.8213 23.144 28.8971C23.1781 28.9721 23.1856 29.0599 23.1648 29.1549C23.144 29.2474 23.0968 29.3326 23.0268 29.4126C22.9577 29.4926 22.8697 29.5559 22.7639 29.6001C22.6589 29.6434 22.5437 29.6678 22.4254 29.6678C22.2755 29.6678 22.1551 29.6451 22.061 29.6001C21.9626 29.5534 21.8917 29.4798 21.8501 29.384C21.8101 29.2907 21.8016 29.1848 21.824 29.069L21.8318 29.0325H22.1312L22.1286 29.069C22.1211 29.1381 22.1285 29.1939 22.1469 29.2356C22.1644 29.2756 22.1977 29.3087 22.251 29.3345C22.3076 29.362 22.3785 29.3762 22.4593 29.3762C22.5318 29.3762 22.598 29.364 22.6571 29.3423C22.7155 29.3215 22.7618 29.294 22.7951 29.259C22.8276 29.224 22.8467 29.1871 22.855 29.1471C22.8633 29.1113 22.8613 29.0809 22.8472 29.056C22.8314 29.0293 22.8 29.0057 22.7509 28.9857L22.4957 28.9102C22.3533 28.8743 22.2574 28.8402 22.2015 28.806C22.1257 28.761 22.0711 28.7033 22.0427 28.6342C22.0144 28.5659 22.0114 28.4902 22.0297 28.4077C22.0489 28.3194 22.0915 28.2354 22.1573 28.1604C22.2239 28.0846 22.3099 28.0251 22.4124 27.986C22.503 27.952 22.5984 27.9321 22.6988 27.9287ZM25.4324 27.9339C25.4489 27.9326 25.4643 27.9339 25.4819 27.9339L25.6693 27.9547L25.7318 27.9599L25.6407 28.1916L25.6224 28.2281L25.4792 28.215C25.437 28.215 25.4059 28.2216 25.3855 28.2359C25.3842 28.2369 25.3816 28.24 25.3803 28.2411C25.3776 28.2435 25.373 28.2477 25.3699 28.2515C25.3574 28.2679 25.3421 28.2973 25.3309 28.3504C25.3309 28.3504 25.3254 28.3729 25.3204 28.3921C25.3862 28.3921 25.5443 28.3921 25.5443 28.3921L25.487 28.6498C25.487 28.6498 25.3234 28.6498 25.2684 28.6498C25.2517 28.7248 25.0471 29.6417 25.0471 29.6417H24.7451C24.7451 29.6417 24.9414 28.7606 24.9664 28.6498C24.9156 28.6498 24.7919 28.6498 24.7919 28.6498L24.8492 28.3921C24.8492 28.3921 24.9736 28.3921 25.0211 28.3921C25.0294 28.3563 25.0419 28.3114 25.0419 28.3114C25.0602 28.2281 25.0794 28.1682 25.1043 28.1265C25.1385 28.069 25.1867 28.021 25.2475 27.986C25.2976 27.9568 25.361 27.9394 25.4324 27.9339ZM26.1535 27.9469C26.1535 27.9469 26.0746 28.3021 26.0546 28.3921C26.1129 28.3921 26.2499 28.3921 26.2499 28.3921L26.1926 28.6498C26.1926 28.6498 26.049 28.6498 25.9973 28.6498C25.9815 28.7215 25.8567 29.2772 25.8567 29.2772C25.8567 29.2772 25.8463 29.344 25.8463 29.3632C25.8463 29.3638 25.8463 29.3653 25.8463 29.3658V29.3684H25.8489L25.8802 29.371L26.0234 29.3606L26.0077 29.5923L26.0104 29.6339L25.8047 29.6573C25.723 29.6573 25.6632 29.644 25.6198 29.6157C25.574 29.5857 25.5473 29.5459 25.5365 29.4959C25.5348 29.4868 25.5313 29.4734 25.5313 29.4543C25.5313 29.4168 25.5384 29.3534 25.5625 29.2434C25.5625 29.2434 25.672 28.7531 25.6953 28.6498C25.6562 28.6498 25.5521 28.6498 25.5521 28.6498L25.6094 28.3921C25.6094 28.3921 25.711 28.3921 25.7526 28.3921C25.7659 28.3321 25.8125 28.1265 25.8125 28.1265L26.0546 27.999L26.1535 27.9469ZM16.5599 27.9573H17.7315L17.6664 28.2489C17.6664 28.2489 16.8848 28.2489 16.8099 28.2489C16.7965 28.3081 16.7431 28.5476 16.7239 28.6342C16.8322 28.6342 17.4659 28.6342 17.4659 28.6342L17.4008 28.9258C17.4008 28.9258 16.7338 28.9258 16.6588 28.9258C16.643 28.9983 16.5001 29.6417 16.5001 29.6417H16.185L16.5599 27.9573ZM18.1298 28.3687C18.1415 28.3672 18.1544 28.3687 18.1662 28.3687C18.2412 28.3687 18.3105 28.3915 18.3771 28.4389L18.4188 28.4676L18.2573 28.7331L18.2131 28.7019C18.1806 28.6811 18.1456 28.6707 18.109 28.6707C18.0773 28.6707 18.0478 28.6819 18.0178 28.7019C17.9862 28.7227 17.9597 28.7503 17.9397 28.7878C17.9047 28.852 17.8791 28.9238 17.8616 29.0013L17.7211 29.6417H17.4191L17.6976 28.3921H17.9788C17.9788 28.3921 17.9691 28.43 17.9658 28.4441C17.9791 28.4342 17.9932 28.4204 18.0048 28.4129C18.0452 28.3888 18.0878 28.3738 18.1298 28.3687ZM19.0254 28.3687C19.0435 28.3673 19.0615 28.3687 19.08 28.3687C19.25 28.3687 19.3786 28.4282 19.4627 28.5457C19.5152 28.6215 19.5434 28.7152 19.5434 28.8269C19.5434 28.8885 19.5358 28.9548 19.52 29.0273L19.4966 29.1184C19.4966 29.1184 18.7328 29.1184 18.6479 29.1184C18.6462 29.1359 18.6453 29.1547 18.6453 29.1705C18.6453 29.2355 18.6586 29.2866 18.6869 29.3241C18.7004 29.3424 18.716 29.3589 18.7338 29.371C18.7673 29.3929 18.8106 29.4048 18.8613 29.4048C18.923 29.4048 18.9772 29.3878 19.028 29.3554C19.0763 29.3245 19.1225 29.2753 19.1633 29.207H19.4862L19.4575 29.2694C19.3959 29.3944 19.3099 29.4919 19.2024 29.561C19.0949 29.6302 18.9665 29.6678 18.8249 29.6678C18.6408 29.6678 18.5037 29.6082 18.4188 29.4907C18.3346 29.3758 18.3165 29.2168 18.3615 29.0169C18.4065 28.8136 18.4963 28.6512 18.6271 28.5379C18.7443 28.4362 18.8773 28.3798 19.0254 28.3687ZM20.3817 28.3687C20.3999 28.3673 20.4178 28.3687 20.4364 28.3687C20.6064 28.3687 20.735 28.4282 20.8191 28.5457C20.8716 28.6215 20.8998 28.7152 20.8998 28.8269C20.8998 28.8877 20.8922 28.9531 20.8764 29.0247L20.853 29.1184C20.853 29.1184 20.0892 29.1184 20.0042 29.1184C20.0034 29.1301 20.0025 29.1406 20.0017 29.1523C20.001 29.1566 20.0019 29.1633 20.0017 29.1679C20.0016 29.1687 20.0017 29.1698 20.0017 29.1705C20.0017 29.183 20.0034 29.1953 20.0042 29.207C20.0084 29.2544 20.0208 29.2941 20.0433 29.3241C20.0476 29.3299 20.0516 29.3371 20.0563 29.3423C20.0945 29.3832 20.1485 29.4048 20.2177 29.4048C20.2794 29.4048 20.3344 29.3878 20.3844 29.3554C20.4327 29.3245 20.4789 29.2753 20.5197 29.207H20.8452L20.8139 29.2694C20.7523 29.3944 20.6663 29.4919 20.5588 29.561C20.4513 29.6302 20.3229 29.6678 20.1813 29.6678C19.9972 29.6678 19.8601 29.6082 19.7752 29.4907C19.7202 29.4158 19.6944 29.3203 19.6944 29.207C19.6944 29.1895 19.6954 29.1706 19.697 29.1523C19.7004 29.109 19.7071 29.0652 19.7179 29.0169C19.7629 28.8145 19.85 28.6512 19.9808 28.5379C20.0981 28.4362 20.2337 28.3798 20.3817 28.3687ZM24.076 28.3687C24.0946 28.3672 24.1117 28.3687 24.1307 28.3687C24.304 28.3687 24.4371 28.4273 24.5238 28.5431C24.6096 28.6589 24.6304 28.8151 24.5863 29.0117C24.5521 29.165 24.5028 29.2888 24.4353 29.3788C24.3678 29.4688 24.2818 29.5423 24.1801 29.5923C24.0793 29.6422 23.9726 29.6678 23.8651 29.6678C23.6885 29.6678 23.557 29.6074 23.472 29.4907C23.417 29.4166 23.3887 29.3211 23.3887 29.207C23.3887 29.1453 23.3955 29.0798 23.4121 29.0065C23.4621 28.7832 23.5642 28.6132 23.7141 28.504C23.8242 28.4246 23.9458 28.3787 24.076 28.3687ZM28.6502 28.3687C28.6722 28.3673 28.6925 28.3687 28.7153 28.3687C28.8203 28.3687 28.9027 28.3793 28.9652 28.4051C29.0319 28.4318 29.0792 28.4695 29.1058 28.5145C29.1316 28.5569 29.1449 28.6091 29.1449 28.6733L29.1136 28.8633L29.0564 29.121C29.0072 29.341 28.9964 29.4235 28.9939 29.4543C28.9914 29.4959 28.9952 29.5366 29.0069 29.574L29.0277 29.6417H28.7205L28.7075 29.6027C28.7025 29.5844 28.7039 29.561 28.7023 29.5402C28.644 29.576 28.5855 29.6078 28.533 29.6261C28.4556 29.6528 28.3752 29.6678 28.2935 29.6678C28.1519 29.6678 28.0471 29.6309 27.9837 29.5584C27.9354 29.5051 27.9134 29.4399 27.9134 29.3658C27.9134 29.3374 27.9172 29.3081 27.9239 29.2772C27.938 29.2139 27.9637 29.1553 28.0046 29.1028C28.0445 29.0512 28.0918 29.0087 28.1452 28.9779C28.1968 28.947 28.2544 28.9252 28.3144 28.9102L28.4992 28.8789C28.6417 28.8623 28.748 28.8415 28.8246 28.819C28.8263 28.8107 28.8298 28.8008 28.8298 28.8008C28.8419 28.7472 28.8404 28.7069 28.8272 28.6863C28.8263 28.6849 28.8231 28.6822 28.822 28.6811C28.8192 28.6781 28.8149 28.6734 28.8116 28.6707C28.7803 28.6459 28.7269 28.6342 28.6554 28.6342C28.5746 28.6342 28.5148 28.6474 28.4732 28.6733C28.4324 28.6991 28.3946 28.7464 28.3612 28.8138H28.0462L28.0749 28.7514C28.1123 28.6647 28.157 28.5929 28.2128 28.5379C28.2687 28.4829 28.344 28.4403 28.4315 28.4103C28.4986 28.3882 28.5718 28.3735 28.6502 28.3687ZM29.9702 28.3687C29.9819 28.3672 29.9947 28.3687 30.0066 28.3687C30.0824 28.3687 30.1534 28.3915 30.2201 28.4389L30.2591 28.4676L30.0977 28.7331L30.0534 28.7019C30.021 28.6811 29.9877 28.6707 29.9519 28.6707C29.9203 28.6707 29.889 28.6819 29.8582 28.7019C29.8265 28.7227 29.8035 28.7503 29.7827 28.7878C29.7485 28.852 29.7221 28.9238 29.7046 29.0013L29.5614 29.6417H29.2594L29.538 28.3921H29.8191C29.8191 28.3921 29.8121 28.43 29.8087 28.4441C29.8221 28.4342 29.8353 28.4204 29.8478 28.4129C29.8875 28.3888 29.9282 28.3738 29.9702 28.3687ZM30.8631 28.3687C30.8813 28.3673 30.8992 28.3687 30.9178 28.3687C31.0877 28.3687 31.2172 28.4282 31.3005 28.5457C31.3538 28.6215 31.3812 28.7152 31.3812 28.8269C31.3812 28.8885 31.371 28.9548 31.3552 29.0273L31.3343 29.1184C31.3343 29.1184 30.5698 29.1184 30.4856 29.1184C30.4839 29.1359 30.4804 29.1547 30.4804 29.1705C30.4804 29.2355 30.4946 29.2866 30.5221 29.3241C30.5263 29.3299 30.533 29.3371 30.5377 29.3423C30.5404 29.3452 30.5452 29.35 30.5481 29.3527C30.5853 29.3866 30.636 29.4048 30.6991 29.4048C30.7607 29.4048 30.8149 29.3878 30.8657 29.3554C30.914 29.3245 30.9594 29.2753 31.0011 29.207H31.3265L31.2953 29.2694C31.2336 29.3944 31.1468 29.4919 31.0401 29.561C30.9318 29.6302 30.8051 29.6678 30.6627 29.6678C30.4785 29.6678 30.3441 29.6082 30.2591 29.4907C30.175 29.3758 30.1551 29.2168 30.1992 29.0169C30.2442 28.8136 30.3314 28.6512 30.4622 28.5379C30.5802 28.4362 30.7152 28.3798 30.8631 28.3687ZM26.3045 28.3921H26.6143C26.6143 28.3921 26.6526 29.1336 26.6534 29.1445C26.6659 29.1179 26.6756 29.0956 26.6768 29.0924L27.0179 28.3921H27.3016C27.3016 28.3921 27.3277 29.1247 27.3277 29.1288C27.336 29.1139 27.7156 28.3921 27.7156 28.3921H28.0228L27.3459 29.6417H27.0673C27.0673 29.6417 27.0404 28.9641 27.0387 28.9258C26.9237 29.1616 26.6898 29.6417 26.6898 29.6417H26.4035L26.3045 28.3921ZM19.0306 28.629C18.9588 28.632 18.8936 28.6579 18.8327 28.7071C18.7844 28.7454 18.7518 28.798 18.726 28.8555H19.2388C19.2397 28.8463 19.2415 28.8352 19.2415 28.8269C19.2415 28.7794 19.233 28.7425 19.218 28.7175C19.1814 28.6575 19.127 28.629 19.0462 28.629C19.0414 28.629 19.0354 28.6288 19.0306 28.629ZM20.387 28.629C20.3152 28.632 20.25 28.6579 20.1891 28.7071C20.1408 28.7454 20.109 28.798 20.0823 28.8555H20.5952C20.5961 28.8463 20.5978 28.8352 20.5978 28.8269C20.5978 28.7794 20.5902 28.7425 20.5744 28.7175C20.5671 28.7053 20.5573 28.6932 20.5484 28.6837C20.5136 28.6477 20.4657 28.629 20.4026 28.629C20.3977 28.629 20.3917 28.6288 20.387 28.629ZM30.8787 28.629C30.8049 28.6313 30.736 28.6563 30.6731 28.7071C30.6256 28.7454 30.593 28.798 30.5663 28.8555H31.0766C31.0774 28.8463 31.0792 28.8352 31.0792 28.8269C31.0792 28.7794 31.0716 28.7425 31.0558 28.7175C31.0199 28.6584 30.9648 28.6298 30.8839 28.629C30.8815 28.629 30.8811 28.6289 30.8787 28.629ZM24.0578 28.6342C23.9889 28.6424 23.9249 28.6738 23.8651 28.7279C23.7935 28.7929 23.7415 28.895 23.7115 29.0299C23.699 29.0866 23.6933 29.135 23.6933 29.1783C23.6933 29.2375 23.7047 29.2839 23.7271 29.3189C23.7331 29.3279 23.7411 29.3374 23.748 29.3449C23.785 29.3843 23.8367 29.4048 23.9016 29.4048C23.9857 29.4048 24.0599 29.3735 24.1307 29.3085C24.2023 29.2427 24.2535 29.1396 24.2843 29.0013C24.3126 28.8747 24.3087 28.7801 24.2687 28.7201C24.2303 28.6618 24.1743 28.6342 24.0968 28.6342C24.0837 28.6342 24.0705 28.6327 24.0578 28.6342ZM28.7622 29.0898C28.6913 29.109 28.612 29.1251 28.507 29.1393C28.4287 29.1509 28.3729 29.1632 28.3404 29.1757C28.3121 29.1874 28.2893 29.2035 28.2701 29.2252C28.2518 29.246 28.2395 29.2679 28.2337 29.2929C28.232 29.3029 28.2311 29.3132 28.2311 29.3215C28.2311 29.3222 28.231 29.3234 28.2311 29.3241C28.2311 29.3261 28.2308 29.33 28.2311 29.3319C28.2316 29.3357 28.2326 29.3414 28.2337 29.3449C28.234 29.3461 28.2358 29.349 28.2363 29.3501C28.2372 29.3524 28.2377 29.3558 28.2389 29.358C28.24 29.3601 28.2427 29.3637 28.2441 29.3658C28.2463 29.3688 28.2492 29.3734 28.2519 29.3762C28.2727 29.3995 28.3143 29.41 28.3742 29.41C28.4401 29.41 28.5034 29.3975 28.5617 29.3684C28.6192 29.34 28.6655 29.2978 28.6997 29.2486C28.7247 29.2136 28.7447 29.1598 28.7622 29.0898ZM14.7487 26.9169L16.3944 19.7028H17.3625L15.9049 26.1H19.6638L19.4757 26.9169H14.7487Z" fill="#008033"/>
<g filter="url(#filter0_d_3_333)">
<path d="M61.2784 23V11.3636H63.0341V21.4886H68.3068V23H61.2784ZM70.1733 23V14.2727H71.8722V23H70.1733ZM71.0313 12.9261C70.7358 12.9261 70.482 12.8276 70.2699 12.6307C70.0616 12.4299 69.9574 12.1913 69.9574 11.9148C69.9574 11.6345 70.0616 11.3958 70.2699 11.1989C70.482 10.9981 70.7358 10.8977 71.0313 10.8977C71.3267 10.8977 71.5786 10.9981 71.7869 11.1989C71.9991 11.3958 72.1051 11.6345 72.1051 11.9148C72.1051 12.1913 71.9991 12.4299 71.7869 12.6307C71.5786 12.8276 71.3267 12.9261 71.0313 12.9261ZM77.8338 23.1761C76.9891 23.1761 76.2618 22.9848 75.652 22.6023C75.0459 22.2159 74.58 21.6837 74.2543 21.0057C73.9285 20.3276 73.7656 19.5511 73.7656 18.6761C73.7656 17.7898 73.9323 17.0076 74.2656 16.3295C74.599 15.6477 75.0687 15.1155 75.6747 14.733C76.2808 14.3504 76.9948 14.1591 77.8168 14.1591C78.4796 14.1591 79.0706 14.2822 79.5895 14.5284C80.1084 14.7708 80.527 15.1117 80.8452 15.5511C81.1671 15.9905 81.3584 16.5038 81.419 17.0909H79.7656C79.6747 16.6818 79.4664 16.3295 79.1406 16.0341C78.8187 15.7386 78.3868 15.5909 77.8452 15.5909C77.3717 15.5909 76.9569 15.7159 76.6009 15.9659C76.2486 16.2121 75.974 16.5644 75.777 17.0227C75.58 17.4773 75.4815 18.0151 75.4815 18.6364C75.4815 19.2727 75.5781 19.822 75.7713 20.2841C75.9645 20.7462 76.2372 21.1042 76.5895 21.358C76.9456 21.6117 77.3641 21.7386 77.8452 21.7386C78.1672 21.7386 78.4588 21.6799 78.7202 21.5625C78.9853 21.4413 79.2069 21.2689 79.385 21.0455C79.5668 20.822 79.6937 20.553 79.7656 20.2386H81.419C81.3584 20.803 81.1747 21.3068 80.8679 21.75C80.5611 22.1932 80.1501 22.5417 79.635 22.7955C79.1236 23.0492 78.5232 23.1761 77.8338 23.1761ZM86.9972 23.1761C86.1373 23.1761 85.3968 22.9924 84.7756 22.625C84.1582 22.2538 83.6809 21.733 83.3438 21.0625C83.0104 20.3883 82.8438 19.5985 82.8438 18.6932C82.8438 17.7992 83.0104 17.0114 83.3438 16.3295C83.6809 15.6477 84.1506 15.1155 84.7528 14.733C85.3589 14.3504 86.0672 14.1591 86.8778 14.1591C87.3703 14.1591 87.8475 14.2405 88.3097 14.4034C88.7718 14.5663 89.1866 14.822 89.554 15.1705C89.9214 15.5189 90.2112 15.9716 90.4233 16.5284C90.6354 17.0814 90.7415 17.7538 90.7415 18.5455V19.1477H83.804V17.875H89.0767C89.0767 17.428 88.9858 17.0322 88.804 16.6875C88.6222 16.339 88.3665 16.0644 88.0369 15.8636C87.7112 15.6629 87.3286 15.5625 86.8892 15.5625C86.4119 15.5625 85.9953 15.6799 85.6392 15.9148C85.2869 16.1458 85.0142 16.4489 84.821 16.8239C84.6316 17.1951 84.5369 17.5985 84.5369 18.0341V19.0284C84.5369 19.6117 84.6392 20.108 84.8438 20.517C85.0521 20.9261 85.3419 21.2386 85.7131 21.4545C86.0843 21.6667 86.518 21.7727 87.0142 21.7727C87.3362 21.7727 87.6297 21.7273 87.8949 21.6364C88.16 21.5417 88.3892 21.4015 88.5824 21.2159C88.7756 21.0303 88.9233 20.8011 89.0256 20.5284L90.6335 20.8182C90.5047 21.2917 90.2737 21.7064 89.9403 22.0625C89.6108 22.4148 89.196 22.6894 88.696 22.8864C88.1998 23.0795 87.6335 23.1761 86.9972 23.1761ZM94.3253 17.8182V23H92.6264V14.2727H94.2571V15.6932H94.3651C94.5658 15.2311 94.8802 14.8598 95.3082 14.5795C95.7401 14.2992 96.2836 14.1591 96.9389 14.1591C97.5336 14.1591 98.0545 14.2841 98.5014 14.5341C98.9484 14.7803 99.295 15.1477 99.5412 15.6364C99.7874 16.125 99.9105 16.7292 99.9105 17.4489V23H98.2117V17.6534C98.2117 17.0208 98.0469 16.5265 97.7173 16.1705C97.3878 15.8106 96.9351 15.6307 96.3594 15.6307C95.9654 15.6307 95.6151 15.7159 95.3082 15.8864C95.0052 16.0568 94.7647 16.3068 94.5867 16.6364C94.4124 16.9621 94.3253 17.3561 94.3253 17.8182ZM108.729 16.4034L107.189 16.6761C107.125 16.4792 107.022 16.2917 106.882 16.1136C106.746 15.9356 106.56 15.7898 106.325 15.6761C106.09 15.5625 105.797 15.5057 105.445 15.5057C104.964 15.5057 104.562 15.6136 104.24 15.8295C103.918 16.0417 103.757 16.3163 103.757 16.6534C103.757 16.9451 103.865 17.1799 104.081 17.358C104.297 17.536 104.645 17.6818 105.126 17.7955L106.513 18.1136C107.316 18.2992 107.914 18.5852 108.308 18.9716C108.702 19.358 108.899 19.8598 108.899 20.4773C108.899 21 108.748 21.4659 108.445 21.875C108.145 22.2803 107.727 22.5985 107.189 22.8295C106.655 23.0606 106.036 23.1761 105.331 23.1761C104.354 23.1761 103.556 22.9678 102.939 22.5511C102.321 22.1307 101.943 21.5341 101.803 20.7614L103.445 20.5114C103.547 20.9394 103.757 21.2633 104.075 21.483C104.393 21.6989 104.808 21.8068 105.32 21.8068C105.876 21.8068 106.321 21.6913 106.655 21.4602C106.988 21.2254 107.155 20.9394 107.155 20.6023C107.155 20.3295 107.053 20.1004 106.848 19.9148C106.647 19.7292 106.339 19.589 105.922 19.4943L104.445 19.1705C103.63 18.9848 103.028 18.6894 102.638 18.2841C102.251 17.8788 102.058 17.3655 102.058 16.7443C102.058 16.2292 102.202 15.7784 102.49 15.392C102.778 15.0057 103.176 14.7045 103.683 14.4886C104.191 14.2689 104.772 14.1591 105.428 14.1591C106.371 14.1591 107.113 14.3636 107.655 14.7727C108.196 15.178 108.554 15.7216 108.729 16.4034ZM114.528 23.1761C113.669 23.1761 112.928 22.9924 112.307 22.625C111.689 22.2538 111.212 21.733 110.875 21.0625C110.542 20.3883 110.375 19.5985 110.375 18.6932C110.375 17.7992 110.542 17.0114 110.875 16.3295C111.212 15.6477 111.682 15.1155 112.284 14.733C112.89 14.3504 113.598 14.1591 114.409 14.1591C114.902 14.1591 115.379 14.2405 115.841 14.4034C116.303 14.5663 116.718 14.822 117.085 15.1705C117.453 15.5189 117.742 15.9716 117.955 16.5284C118.167 17.0814 118.273 17.7538 118.273 18.5455V19.1477H111.335V17.875H116.608C116.608 17.428 116.517 17.0322 116.335 16.6875C116.153 16.339 115.898 16.0644 115.568 15.8636C115.242 15.6629 114.86 15.5625 114.42 15.5625C113.943 15.5625 113.527 15.6799 113.17 15.9148C112.818 16.1458 112.545 16.4489 112.352 16.8239C112.163 17.1951 112.068 17.5985 112.068 18.0341V19.0284C112.068 19.6117 112.17 20.108 112.375 20.517C112.583 20.9261 112.873 21.2386 113.244 21.4545C113.616 21.6667 114.049 21.7727 114.545 21.7727C114.867 21.7727 115.161 21.7273 115.426 21.6364C115.691 21.5417 115.92 21.4015 116.114 21.2159C116.307 21.0303 116.455 20.8011 116.557 20.5284L118.165 20.8182C118.036 21.2917 117.805 21.7064 117.472 22.0625C117.142 22.4148 116.727 22.6894 116.227 22.8864C115.731 23.0795 115.165 23.1761 114.528 23.1761ZM123.425 23.1705C122.72 23.1705 122.091 22.9905 121.538 22.6307C120.989 22.267 120.557 21.75 120.243 21.0795C119.932 20.4053 119.777 19.5966 119.777 18.6534C119.777 17.7102 119.934 16.9034 120.249 16.233C120.567 15.5625 121.002 15.0492 121.555 14.6932C122.108 14.3371 122.735 14.1591 123.436 14.1591C123.978 14.1591 124.413 14.25 124.743 14.4318C125.076 14.6098 125.334 14.8182 125.516 15.0568C125.701 15.2955 125.845 15.5057 125.947 15.6875H126.05V11.3636H127.749V23H126.089V21.642H125.947C125.845 21.8276 125.697 22.0398 125.504 22.2784C125.315 22.517 125.053 22.7254 124.72 22.9034C124.387 23.0814 123.955 23.1705 123.425 23.1705ZM123.8 21.7216C124.288 21.7216 124.701 21.5928 125.038 21.3352C125.379 21.0739 125.637 20.7121 125.811 20.25C125.989 19.7879 126.078 19.25 126.078 18.6364C126.078 18.0303 125.991 17.5 125.817 17.0455C125.643 16.5909 125.387 16.2367 125.05 15.983C124.713 15.7292 124.296 15.6023 123.8 15.6023C123.288 15.6023 122.862 15.7348 122.521 16C122.18 16.2651 121.923 16.6269 121.749 17.0852C121.578 17.5436 121.493 18.0606 121.493 18.6364C121.493 19.2197 121.58 19.7443 121.754 20.2102C121.929 20.6761 122.186 21.0455 122.527 21.3182C122.872 21.5871 123.296 21.7216 123.8 21.7216ZM134.544 23V11.3636H136.243V15.6875H136.345C136.444 15.5057 136.586 15.2955 136.771 15.0568C136.957 14.8182 137.214 14.6098 137.544 14.4318C137.874 14.25 138.309 14.1591 138.851 14.1591C139.555 14.1591 140.184 14.3371 140.737 14.6932C141.29 15.0492 141.724 15.5625 142.038 16.233C142.357 16.9034 142.516 17.7102 142.516 18.6534C142.516 19.5966 142.358 20.4053 142.044 21.0795C141.73 21.75 141.298 22.267 140.749 22.6307C140.199 22.9905 139.572 23.1705 138.868 23.1705C138.338 23.1705 137.904 23.0814 137.567 22.9034C137.233 22.7254 136.972 22.517 136.783 22.2784C136.593 22.0398 136.447 21.8276 136.345 21.642H136.203V23H134.544ZM136.209 18.6364C136.209 19.25 136.298 19.7879 136.476 20.25C136.654 20.7121 136.911 21.0739 137.249 21.3352C137.586 21.5928 137.999 21.7216 138.487 21.7216C138.995 21.7216 139.419 21.5871 139.76 21.3182C140.101 21.0455 140.358 20.6761 140.533 20.2102C140.711 19.7443 140.8 19.2197 140.8 18.6364C140.8 18.0606 140.713 17.5436 140.538 17.0852C140.368 16.6269 140.11 16.2651 139.766 16C139.425 15.7348 138.999 15.6023 138.487 15.6023C137.995 15.6023 137.578 15.7292 137.237 15.983C136.9 16.2367 136.644 16.5909 136.47 17.0455C136.296 17.5 136.209 18.0303 136.209 18.6364ZM145.2 26.2727C144.946 26.2727 144.715 26.2519 144.507 26.2102C144.299 26.1723 144.143 26.1307 144.041 26.0852L144.45 24.6932C144.761 24.7765 145.037 24.8125 145.28 24.8011C145.522 24.7898 145.736 24.6989 145.922 24.5284C146.111 24.3579 146.278 24.0795 146.422 23.6932L146.632 23.1136L143.439 14.2727H145.257L147.467 21.0455H147.558L149.768 14.2727H151.592L147.996 24.1648C147.829 24.6193 147.617 25.0038 147.359 25.3182C147.102 25.6364 146.795 25.875 146.439 26.0341C146.083 26.1932 145.67 26.2727 145.2 26.2727Z" fill="#E8E8E8"/>
<path d="M60.9357 42V29.6364H63.924V39.5731H69.0675V42H60.9357ZM78.2466 33.6751C78.1782 33.4215 78.0776 33.1981 77.9448 33.005C77.812 32.8078 77.649 32.6407 77.4558 32.5039C77.2626 32.3671 77.0413 32.2644 76.7917 32.196C76.5422 32.1236 76.2685 32.0873 75.9707 32.0873C75.371 32.0873 74.8519 32.2322 74.4132 32.522C73.9785 32.8118 73.6425 33.2344 73.405 33.7898C73.1676 34.3411 73.0488 35.0112 73.0488 35.8001C73.0488 36.5929 73.1635 37.269 73.3929 37.8285C73.6223 38.3879 73.9544 38.8145 74.389 39.1083C74.8237 39.4021 75.3509 39.549 75.9707 39.549C76.5181 39.549 76.9809 39.4605 77.3592 39.2834C77.7415 39.1023 78.0313 38.8467 78.2285 38.5167C78.4257 38.1867 78.5243 37.7983 78.5243 37.3516L79.0797 37.418H76.0733V35.2386H81.404V36.8746C81.404 37.9814 81.1685 38.9292 80.6976 39.718C80.2308 40.5069 79.5868 41.1126 78.7658 41.5351C77.9488 41.9577 77.0091 42.169 75.9466 42.169C74.7674 42.169 73.731 41.9135 72.8375 41.4023C71.9441 40.8912 71.2478 40.1627 70.7488 39.217C70.2497 38.2672 70.0002 37.1403 70.0002 35.8363C70.0002 34.8221 70.1511 33.9226 70.453 33.1378C70.7548 32.3489 71.1754 31.6809 71.7147 31.1335C72.258 30.5862 72.8858 30.1716 73.5982 29.8899C74.3146 29.6082 75.0853 29.4673 75.9103 29.4673C76.6267 29.4673 77.2928 29.5699 77.9086 29.7752C78.5284 29.9805 79.0757 30.2702 79.5506 30.6445C80.0295 31.0188 80.4179 31.4635 80.7157 31.9787C81.0136 32.4938 81.1987 33.0593 81.2711 33.6751H78.2466ZM83.1652 42V29.6364H88.2725C89.1981 29.6364 89.997 29.8175 90.6691 30.1797C91.3453 30.5379 91.8665 31.0389 92.2327 31.6829C92.5989 32.3228 92.7821 33.0673 92.7821 33.9165C92.7821 34.7698 92.5949 35.5163 92.2206 36.1562C91.8504 36.7921 91.3211 37.2851 90.6329 37.6353C89.9447 37.9854 89.1277 38.1605 88.1819 38.1605H85.0306V35.8061H87.6265C88.0773 35.8061 88.4536 35.7276 88.7554 35.5707C89.0613 35.4137 89.2927 35.1944 89.4497 34.9126C89.6066 34.6269 89.6851 34.2949 89.6851 33.9165C89.6851 33.5342 89.6066 33.2042 89.4497 32.9265C89.2927 32.6448 89.0613 32.4274 88.7554 32.2745C88.4496 32.1216 88.0732 32.0451 87.6265 32.0451H86.1535V42H83.1652ZM94.2551 42V29.6364H97.2433V39.5731H102.387V42H94.2551ZM116.581 32.7273L113.4 42H110.019L106.844 32.7273H109.953L111.661 39.1143H111.758L113.472 32.7273H116.581ZM122.392 42.169C121.45 42.169 120.615 42.008 119.886 41.6861C119.162 41.3601 118.59 40.9113 118.172 40.3398C117.753 39.7683 117.54 39.1103 117.532 38.3658H120.538C120.55 38.6354 120.637 38.8749 120.798 39.0842C120.959 39.2894 121.178 39.4504 121.456 39.5671C121.734 39.6838 122.05 39.7422 122.404 39.7422C122.758 39.7422 123.07 39.6798 123.339 39.555C123.613 39.4262 123.826 39.2512 123.979 39.0298C124.132 38.8044 124.207 38.5469 124.203 38.2571C124.207 37.9673 124.124 37.7097 123.955 37.4844C123.786 37.259 123.547 37.0839 123.237 36.9592C122.931 36.8344 122.569 36.772 122.15 36.772H120.949V34.647H122.15C122.516 34.647 122.838 34.5866 123.116 34.4659C123.398 34.3452 123.617 34.1761 123.774 33.9588C123.931 33.7374 124.008 33.4839 124.004 33.1981C124.008 32.9204 123.941 32.677 123.804 32.4677C123.672 32.2544 123.484 32.0894 123.243 31.9726C123.005 31.8559 122.73 31.7976 122.416 31.7976C122.086 31.7976 121.786 31.8559 121.516 31.9726C121.251 32.0894 121.039 32.2544 120.882 32.4677C120.725 32.681 120.643 32.9285 120.635 33.2102H117.779C117.788 32.4737 117.993 31.8257 118.395 31.2663C118.798 30.7029 119.345 30.2622 120.037 29.9442C120.734 29.6263 121.526 29.4673 122.416 29.4673C123.301 29.4673 124.08 29.6223 124.752 29.9322C125.424 30.2421 125.947 30.6646 126.322 31.1999C126.696 31.7312 126.883 32.3329 126.883 33.005C126.887 33.7012 126.66 34.2747 126.201 34.7255C125.746 35.1762 125.161 35.4539 124.444 35.5586V35.6552C125.402 35.7679 126.125 36.0778 126.612 36.5849C127.103 37.092 127.346 37.7258 127.342 38.4865C127.342 39.2029 127.131 39.8388 126.708 40.3942C126.29 40.9455 125.706 41.3802 124.957 41.6981C124.213 42.0121 123.358 42.169 122.392 42.169Z" fill="#008033"/>
</g>
<defs>
<filter id="filter0_d_3_333" x="54.4" y="2.4" width="104.2" height="48.2" filterUnits="userSpaceOnUse" color-interpolation-filters="sRGB">
<feFlood flood-opacity="0" result="BackgroundImageFix"/>
<feColorMatrix in="SourceAlpha" type="matrix" values="0 0 0 0 0 0 0 0 0 0 0 0 0 0 0 0 0 0 127 0" result="hardAlpha"/>
<feOffset/>
<feGaussianBlur stdDeviation="2.8"/>
<feComposite in2="hardAlpha" operator="out"/>
<feColorMatrix type="matrix" values="0 0 0 0 0 0 0 0 0 0 0 0 0 0 0 0 0 0 0.25 0"/>
<feBlend mode="normal" in2="BackgroundImageFix" result="effect1_dropShadow_3_333"/>
<feBlend mode="normal" in="SourceGraphic" in2="effect1_dropShadow_3_333" result="shape"/>
</filter>
<linearGradient id="paint0_linear_3_333" x1="82.5" y1="0" x2="82.5" y2="53" gradientUnits="userSpaceOnUse">
<stop stop-color="#002B11"/>
<stop offset="1" stop-color="#000903"/>
</linearGradient>
</defs>
</svg>
