<svg width="165" height="56" viewBox="0 0 165 56" fill="none" xmlns="http://www.w3.org/2000/svg">
<rect width="165" height="56" rx="8" fill="url(#paint0_linear_4_460)"/>
<rect x="1.05" y="1.05" width="162.9" height="53.9" rx="6.95" stroke="white" stroke-opacity="0.15" stroke-width="2.1"/>
<path d="M15.9274 38.886V35.5833H16.3737H16.82V38.529V41.4746H18.4267C19.9144 41.4746 20.0334 41.508 20.0334 41.8316C20.0334 42.168 19.9144 42.1886 17.9804 42.1886H15.9274V38.886ZM21.1045 39.6893C21.1045 37.309 21.1212 37.19 21.4615 37.19C21.8015 37.19 21.8185 37.31 21.8185 39.6893C21.8185 42.0696 21.8019 42.1886 21.4615 42.1886C21.1215 42.1886 21.1045 42.0686 21.1045 39.6893ZM23.6973 41.763C22.7826 40.8483 22.7038 38.7216 23.5473 37.719C24.0166 37.1613 24.9073 36.897 25.6708 37.0883C26.225 37.2283 26.9955 37.957 26.9955 38.3423C26.9955 38.782 26.2157 38.6823 26.0113 38.2157C25.825 37.791 25.266 37.6273 24.5852 37.798C23.4511 38.0813 23.5786 41.2813 24.7355 41.5716C25.2549 41.7016 25.8396 41.4283 26.105 40.934C26.331 40.512 26.9954 40.4586 26.9954 40.864C26.9954 41.0173 26.7607 41.3803 26.4736 41.6673C26.0326 42.1079 25.81 42.189 25.0373 42.189C24.3117 42.189 24.0352 42.102 23.6973 41.763ZM28.4253 41.683C27.4892 40.7466 27.4859 38.718 28.4187 37.674C28.8763 37.1617 29.0328 37.1017 29.9077 37.1017C30.633 37.1017 30.9889 37.195 31.2859 37.4587C31.7628 37.8837 32.1726 38.7886 32.1726 39.4166V39.8686H30.3651H28.5576L28.6696 40.4486C28.8873 41.5753 30.0657 42.0093 30.9716 41.2966C31.5273 40.8596 32.0795 40.8163 31.9238 41.2233C31.8642 41.38 31.8155 41.5366 31.8155 41.576C31.8155 41.816 30.6181 42.1906 29.8469 42.1906C29.0797 42.1906 28.85 42.106 28.4253 41.683ZM31.2801 38.9643C31.2801 38.6943 30.9072 38.0193 30.6732 37.863C30.5652 37.7897 30.2357 37.733 29.9412 37.733C29.3065 37.733 29.0832 37.863 28.8076 38.3853C28.4397 39.0843 28.5452 39.156 29.9412 39.156C30.7698 39.156 31.2801 39.081 31.2801 38.9643ZM33.2438 39.69C33.2438 37.3097 33.2604 37.1907 33.6008 37.1907C33.8438 37.1907 33.9579 37.3107 33.9579 37.5637C33.9579 37.9227 33.9779 37.9193 34.5071 37.4737C35.2335 36.8627 36.1361 36.853 36.7331 37.4403C37.1498 37.8573 37.1712 37.984 37.1712 40.029C37.1712 42.0603 37.1512 42.1793 36.8142 42.1793C36.4812 42.1793 36.4572 42.0593 36.4572 40.4056C36.4572 38.074 36.3188 37.7163 35.4181 37.7163C34.3036 37.7163 34.0925 38.1007 33.9943 40.3066C33.9197 41.987 33.8767 42.1793 33.5774 42.1793C33.2674 42.1793 33.2438 42.0026 33.2438 39.68V39.69ZM38.8429 41.9806C38.6332 41.8773 38.3738 41.6033 38.2665 41.368C38.0965 40.9946 38.1165 40.9396 38.4245 40.9396C38.6189 40.9396 38.9384 41.0996 39.1348 41.2966C39.3668 41.53 39.7299 41.6536 40.1718 41.6536C41.0425 41.6536 41.508 41.3193 41.4279 40.7513C41.3792 40.4066 41.1975 40.2656 40.5629 40.081C39.1767 39.6773 38.5972 39.351 38.4148 38.8713C37.8577 37.406 40.2947 36.456 41.7249 37.581C42.2444 37.9897 42.2823 38.1803 41.8749 38.3367C41.6952 38.4067 41.4485 38.3033 41.2431 38.0867C40.84 37.6543 39.6471 37.5907 39.3204 37.9833C38.8904 38.5013 39.1897 38.844 40.4215 39.2433C41.939 39.7353 42.1702 39.933 42.1669 40.736C42.1637 41.484 42.0512 41.698 41.5119 41.9816C41.0347 42.2316 39.3643 42.2306 38.8429 41.9806ZM43.9937 41.9106C43.0919 41.279 42.7711 39.4833 43.3237 38.1603C43.8232 36.965 45.8133 36.6473 46.7753 37.6093C47.1881 38.022 47.6111 39.5446 47.3778 39.778C47.3282 39.828 46.5375 39.868 45.6211 39.868C43.955 39.868 43.955 39.868 43.955 40.3223C43.955 41.4046 45.5133 42.0583 46.2757 41.296C46.472 41.0993 46.7532 40.939 46.9005 40.939C47.3227 40.939 47.2135 41.4133 46.6979 41.8186C46.1151 42.2769 44.5912 42.3306 43.9937 41.9106ZM46.5626 38.872C46.5029 38.7153 46.4543 38.5217 46.4543 38.4387C46.4543 38.074 45.8431 37.7263 45.202 37.7263C44.4721 37.7263 43.955 38.187 43.955 38.8373C43.955 39.114 44.1306 39.154 45.313 39.154C46.478 39.154 46.6555 39.1153 46.5626 38.872ZM21.1045 35.6733C21.1045 35.3467 21.1998 35.227 21.4615 35.227C21.7235 35.227 21.8185 35.347 21.8185 35.6733C21.8185 36 21.7232 36.1197 21.4615 36.1197C21.1995 36.1197 21.1045 35.9997 21.1045 35.6733ZM14.1422 32.103V31.121H13.0711H12V30.1394V29.1574H13.0711H14.1422V28.1754V27.1938H13.0711H12V20.4991V13.8049H20.4797H28.9593V20.4905V27.1758L27.9329 27.2291L26.9064 27.2824L26.8524 28.2194L26.7984 29.1567H27.8788H28.9593V30.1387V31.1204H27.8882H26.817V32.1024V33.084H25.7459H24.6748V32.1024V31.1204H25.7459H26.817V30.1387V29.1567H25.7366H24.6562L24.7102 28.2194L24.7642 27.2824L25.7906 27.2291L26.8171 27.1758V26.3011V25.4264L25.7906 25.3731L24.7642 25.3198L24.7158 21.7048L24.6675 18.0898H23.4215H22.1756V25.5878V33.0854H20.5689H18.9622V25.5878V18.0898H17.6234H16.2845V21.7495V25.4091H15.2133H14.1422V26.3018V27.1938L15.2133 27.1944H16.2845V28.1761V29.1581H15.2133L14.1422 29.1574V30.1401V31.121L15.2133 31.1217H16.2845V32.1037V33.0854H15.2133H14.1422V32.103ZM31.4586 23.4448V13.8049H33.6008H35.7431V23.4448V33.0847H33.6008H31.4586V23.4448ZM45.0261 32.103V31.121H44.0442H43.0624V30.1394V29.1574H44.0442H45.0261V28.1754V27.1938H43.9996L42.9731 27.1941L43.0238 22.6415L43.0744 18.0892H40.6586H38.2427V15.9469V13.8049H45.1213H52L51.9496 15.9025L51.8993 17.9998L49.5339 18.0498L47.1686 18.0998V21.7545V25.4088H46.0877H45.0068L45.0611 26.2568L45.1154 27.1048L46.1419 27.1581L47.1684 27.2114V28.1754V29.1397L46.1419 29.1931L45.1154 29.2464V30.1391V31.0314L46.1419 31.0847L47.1684 31.1381V32.111V33.0837H46.0973H45.0262L45.0261 32.103Z" fill="black"/>
<g filter="url(#filter0_d_4_460)">
<path d="M61.2784 24.5V12.8636H63.0341V22.9886H68.3068V24.5H61.2784ZM70.1733 24.5V15.7727H71.8721V24.5H70.1733ZM71.0312 14.4261C70.7358 14.4261 70.482 14.3277 70.2699 14.1307C70.0615 13.9299 69.9574 13.6913 69.9574 13.4148C69.9574 13.1345 70.0615 12.8958 70.2699 12.6989C70.482 12.4981 70.7358 12.3977 71.0312 12.3977C71.3267 12.3977 71.5786 12.4981 71.7869 12.6989C71.999 12.8958 72.1051 13.1345 72.1051 13.4148C72.1051 13.6913 71.999 13.9299 71.7869 14.1307C71.5786 14.3277 71.3267 14.4261 71.0312 14.4261ZM77.8338 24.6761C76.9891 24.6761 76.2618 24.4849 75.652 24.1023C75.0459 23.7159 74.58 23.1837 74.2542 22.5057C73.9285 21.8277 73.7656 21.0511 73.7656 20.1761C73.7656 19.2898 73.9323 18.5076 74.2656 17.8296C74.5989 17.1477 75.0686 16.6155 75.6747 16.233C76.2807 15.8504 76.9948 15.6591 77.8167 15.6591C78.4796 15.6591 79.0705 15.7822 79.5895 16.0284C80.1084 16.2708 80.527 16.6117 80.8451 17.0511C81.1671 17.4905 81.3584 18.0038 81.419 18.5909H79.7656C79.6747 18.1818 79.4663 17.8296 79.1406 17.5341C78.8186 17.2386 78.3868 17.0909 77.8451 17.0909C77.3717 17.0909 76.9569 17.2159 76.6008 17.4659C76.2485 17.7121 75.9739 18.0644 75.777 18.5227C75.58 18.9773 75.4815 19.5152 75.4815 20.1364C75.4815 20.7727 75.5781 21.322 75.7713 21.7841C75.9645 22.2462 76.2372 22.6042 76.5895 22.858C76.9455 23.1117 77.3641 23.2386 77.8451 23.2386C78.1671 23.2386 78.4588 23.1799 78.7201 23.0625C78.9853 22.9413 79.2069 22.7689 79.3849 22.5455C79.5667 22.322 79.6936 22.053 79.7656 21.7386H81.419C81.3584 22.303 81.1747 22.8068 80.8679 23.25C80.561 23.6932 80.1501 24.0417 79.6349 24.2955C79.1235 24.5492 78.5232 24.6761 77.8338 24.6761ZM86.9971 24.6761C86.1373 24.6761 85.3967 24.4924 84.7755 24.125C84.1581 23.7538 83.6808 23.233 83.3437 22.5625C83.0104 21.8883 82.8437 21.0985 82.8437 20.1932C82.8437 19.2992 83.0104 18.5114 83.3437 17.8296C83.6808 17.1477 84.1505 16.6155 84.7528 16.233C85.3589 15.8504 86.0672 15.6591 86.8778 15.6591C87.3702 15.6591 87.8475 15.7405 88.3096 15.9034C88.7717 16.0663 89.1865 16.322 89.5539 16.6705C89.9214 17.0189 90.2111 17.4716 90.4233 18.0284C90.6354 18.5814 90.7414 19.2538 90.7414 20.0455V20.6477H83.8039V19.375H89.0767C89.0767 18.928 88.9858 18.5322 88.8039 18.1875C88.6221 17.839 88.3664 17.5644 88.0369 17.3636C87.7111 17.1629 87.3286 17.0625 86.8892 17.0625C86.4119 17.0625 85.9952 17.1799 85.6392 17.4148C85.2869 17.6458 85.0142 17.9489 84.821 18.3239C84.6316 18.6951 84.5369 19.0985 84.5369 19.5341V20.5284C84.5369 21.1117 84.6392 21.608 84.8437 22.017C85.052 22.4261 85.3418 22.7386 85.713 22.9545C86.0842 23.1667 86.518 23.2727 87.0142 23.2727C87.3361 23.2727 87.6297 23.2273 87.8948 23.1364C88.16 23.0417 88.3892 22.9015 88.5823 22.7159C88.7755 22.5303 88.9233 22.3011 89.0255 22.0284L90.6335 22.3182C90.5047 22.7917 90.2736 23.2064 89.9403 23.5625C89.6108 23.9148 89.196 24.1894 88.696 24.3864C88.1998 24.5795 87.6335 24.6761 86.9971 24.6761ZM94.3252 19.3182V24.5H92.6264V15.7727H94.2571V17.1932H94.365C94.5658 16.7311 94.8802 16.3599 95.3082 16.0796C95.74 15.7992 96.2836 15.6591 96.9389 15.6591C97.5336 15.6591 98.0544 15.7841 98.5014 16.0341C98.9483 16.2803 99.2949 16.6477 99.5412 17.1364C99.7874 17.625 99.9105 18.2292 99.9105 18.9489V24.5H98.2116V19.1534C98.2116 18.5208 98.0468 18.0265 97.7173 17.6705C97.3877 17.3106 96.9351 17.1307 96.3593 17.1307C95.9654 17.1307 95.615 17.2159 95.3082 17.3864C95.0052 17.5568 94.7646 17.8068 94.5866 18.1364C94.4124 18.4621 94.3252 18.8561 94.3252 19.3182ZM108.729 17.9034L107.189 18.1761C107.124 17.9792 107.022 17.7917 106.882 17.6136C106.746 17.4356 106.56 17.2898 106.325 17.1761C106.09 17.0625 105.797 17.0057 105.445 17.0057C104.963 17.0057 104.562 17.1136 104.24 17.3296C103.918 17.5417 103.757 17.8163 103.757 18.1534C103.757 18.4451 103.865 18.6799 104.081 18.858C104.297 19.036 104.645 19.1818 105.126 19.2955L106.513 19.6136C107.316 19.7992 107.914 20.0852 108.308 20.4716C108.702 20.858 108.899 21.3599 108.899 21.9773C108.899 22.5 108.748 22.9659 108.445 23.375C108.145 23.7803 107.727 24.0985 107.189 24.3295C106.655 24.5606 106.035 24.6761 105.331 24.6761C104.354 24.6761 103.556 24.4678 102.939 24.0511C102.321 23.6307 101.943 23.0341 101.803 22.2614L103.445 22.0114C103.547 22.4394 103.757 22.7633 104.075 22.983C104.393 23.1989 104.808 23.3068 105.32 23.3068C105.876 23.3068 106.321 23.1913 106.655 22.9602C106.988 22.7254 107.155 22.4394 107.155 22.1023C107.155 21.8295 107.053 21.6004 106.848 21.4148C106.647 21.2292 106.338 21.089 105.922 20.9943L104.445 20.6705C103.63 20.4849 103.028 20.1894 102.638 19.7841C102.251 19.3788 102.058 18.8655 102.058 18.2443C102.058 17.7292 102.202 17.2784 102.49 16.8921C102.778 16.5057 103.176 16.2046 103.683 15.9886C104.191 15.7689 104.772 15.6591 105.428 15.6591C106.371 15.6591 107.113 15.8636 107.655 16.2727C108.196 16.678 108.554 17.2216 108.729 17.9034ZM114.528 24.6761C113.669 24.6761 112.928 24.4924 112.307 24.125C111.689 23.7538 111.212 23.233 110.875 22.5625C110.542 21.8883 110.375 21.0985 110.375 20.1932C110.375 19.2992 110.542 18.5114 110.875 17.8296C111.212 17.1477 111.682 16.6155 112.284 16.233C112.89 15.8504 113.598 15.6591 114.409 15.6591C114.901 15.6591 115.379 15.7405 115.841 15.9034C116.303 16.0663 116.718 16.322 117.085 16.6705C117.453 17.0189 117.742 17.4716 117.954 18.0284C118.167 18.5814 118.273 19.2538 118.273 20.0455V20.6477H111.335V19.375H116.608C116.608 18.928 116.517 18.5322 116.335 18.1875C116.153 17.839 115.898 17.5644 115.568 17.3636C115.242 17.1629 114.86 17.0625 114.42 17.0625C113.943 17.0625 113.526 17.1799 113.17 17.4148C112.818 17.6458 112.545 17.9489 112.352 18.3239C112.163 18.6951 112.068 19.0985 112.068 19.5341V20.5284C112.068 21.1117 112.17 21.608 112.375 22.017C112.583 22.4261 112.873 22.7386 113.244 22.9545C113.615 23.1667 114.049 23.2727 114.545 23.2727C114.867 23.2727 115.161 23.2273 115.426 23.1364C115.691 23.0417 115.92 22.9015 116.114 22.7159C116.307 22.5303 116.454 22.3011 116.557 22.0284L118.165 22.3182C118.036 22.7917 117.805 23.2064 117.472 23.5625C117.142 23.9148 116.727 24.1894 116.227 24.3864C115.731 24.5795 115.165 24.6761 114.528 24.6761ZM123.425 24.6705C122.72 24.6705 122.091 24.4905 121.538 24.1307C120.989 23.767 120.557 23.25 120.243 22.5795C119.932 21.9053 119.777 21.0966 119.777 20.1534C119.777 19.2102 119.934 18.4034 120.249 17.733C120.567 17.0625 121.002 16.5492 121.555 16.1932C122.108 15.8371 122.735 15.6591 123.436 15.6591C123.978 15.6591 124.413 15.75 124.743 15.9318C125.076 16.1099 125.334 16.3182 125.516 16.5568C125.701 16.7955 125.845 17.0057 125.947 17.1875H126.05V12.8636H127.749V24.5H126.089V23.142H125.947C125.845 23.3277 125.697 23.5398 125.504 23.7784C125.315 24.017 125.053 24.2254 124.72 24.4034C124.387 24.5814 123.955 24.6705 123.425 24.6705ZM123.8 23.2216C124.288 23.2216 124.701 23.0928 125.038 22.8352C125.379 22.5739 125.637 22.2121 125.811 21.75C125.989 21.2879 126.078 20.75 126.078 20.1364C126.078 19.5303 125.991 19 125.817 18.5455C125.642 18.0909 125.387 17.7367 125.05 17.483C124.713 17.2292 124.296 17.1023 123.8 17.1023C123.288 17.1023 122.862 17.2349 122.521 17.5C122.18 17.7652 121.923 18.1269 121.749 18.5852C121.578 19.0436 121.493 19.5606 121.493 20.1364C121.493 20.7197 121.58 21.2443 121.754 21.7102C121.928 22.1761 122.186 22.5455 122.527 22.8182C122.872 23.0871 123.296 23.2216 123.8 23.2216ZM134.544 24.5V12.8636H136.243V17.1875H136.345C136.444 17.0057 136.586 16.7955 136.771 16.5568C136.957 16.3182 137.214 16.1099 137.544 15.9318C137.874 15.75 138.309 15.6591 138.851 15.6591C139.555 15.6591 140.184 15.8371 140.737 16.1932C141.29 16.5492 141.724 17.0625 142.038 17.733C142.356 18.4034 142.516 19.2102 142.516 20.1534C142.516 21.0966 142.358 21.9053 142.044 22.5795C141.73 23.25 141.298 23.767 140.749 24.1307C140.199 24.4905 139.572 24.6705 138.868 24.6705C138.338 24.6705 137.904 24.5814 137.567 24.4034C137.233 24.2254 136.972 24.017 136.783 23.7784C136.593 23.5398 136.447 23.3277 136.345 23.142H136.203V24.5H134.544ZM136.209 20.1364C136.209 20.75 136.298 21.2879 136.476 21.75C136.654 22.2121 136.911 22.5739 137.249 22.8352C137.586 23.0928 137.999 23.2216 138.487 23.2216C138.995 23.2216 139.419 23.0871 139.76 22.8182C140.101 22.5455 140.358 22.1761 140.533 21.7102C140.711 21.2443 140.8 20.7197 140.8 20.1364C140.8 19.5606 140.713 19.0436 140.538 18.5852C140.368 18.1269 140.11 17.7652 139.766 17.5C139.425 17.2349 138.999 17.1023 138.487 17.1023C137.995 17.1023 137.578 17.2292 137.237 17.483C136.9 17.7367 136.644 18.0909 136.47 18.5455C136.296 19 136.209 19.5303 136.209 20.1364ZM145.2 27.7727C144.946 27.7727 144.715 27.7519 144.507 27.7102C144.299 27.6724 144.143 27.6307 144.041 27.5852L144.45 26.1932C144.761 26.2765 145.037 26.3125 145.28 26.3011C145.522 26.2898 145.736 26.1989 145.922 26.0284C146.111 25.858 146.278 25.5795 146.422 25.1932L146.632 24.6136L143.439 15.7727H145.257L147.467 22.5455H147.558L149.768 15.7727H151.592L147.996 25.6648C147.829 26.1193 147.617 26.5038 147.359 26.8182C147.102 27.1364 146.795 27.375 146.439 27.5341C146.083 27.6932 145.67 27.7727 145.2 27.7727Z" fill="#E8E8E8"/>
<path d="M60.9357 31.1364H64.6363L67.7755 38.7912H67.9204L71.0596 31.1364H74.7603V43.5H71.8505V35.9055H71.7478L68.7777 43.4215H66.9183L63.9481 35.8633H63.8455V43.5H60.9357V31.1364ZM79.6124 31.1364V43.5H76.6242V31.1364H79.6124ZM81.0839 33.5632V31.1364H91.5339V33.5632H87.7849V43.5H84.8389V33.5632H81.0839Z" fill="black"/>
</g>
<defs>
<filter id="filter0_d_4_460" x="54.4" y="3.90001" width="104.2" height="48.2" filterUnits="userSpaceOnUse" color-interpolation-filters="sRGB">
<feFlood flood-opacity="0" result="BackgroundImageFix"/>
<feColorMatrix in="SourceAlpha" type="matrix" values="0 0 0 0 0 0 0 0 0 0 0 0 0 0 0 0 0 0 127 0" result="hardAlpha"/>
<feOffset/>
<feGaussianBlur stdDeviation="2.8"/>
<feComposite in2="hardAlpha" operator="out"/>
<feColorMatrix type="matrix" values="0 0 0 0 0 0 0 0 0 0 0 0 0 0 0 0 0 0 0.25 0"/>
<feBlend mode="normal" in2="BackgroundImageFix" result="effect1_dropShadow_4_460"/>
<feBlend mode="normal" in="SourceGraphic" in2="effect1_dropShadow_4_460" result="shape"/>
</filter>
<linearGradient id="paint0_linear_4_460" x1="82.5" y1="0" x2="82.5" y2="56" gradientUnits="userSpaceOnUse">
<stop stop-color="#AEAEAE"/>
<stop offset="1" stop-color="#5D5D5D"/>
</linearGradient>
</defs>
</svg>
