<svg width="165" height="53" viewBox="0 0 165 53" fill="none" xmlns="http://www.w3.org/2000/svg">
<rect width="165" height="53" rx="8" fill="url(#paint0_linear_4_460)"/>
<rect x="1.05" y="1.05" width="162.9" height="50.9" rx="6.95" stroke="white" stroke-opacity="0.15" stroke-width="2.1"/>
<path d="M15.9274 37.386V34.0833H16.3737H16.82V37.029V39.9746H18.4267C19.9144 39.9746 20.0334 40.008 20.0334 40.3316C20.0334 40.6679 19.9144 40.6886 17.9804 40.6886H15.9274V37.386ZM21.1045 38.1893C21.1045 35.809 21.1212 35.69 21.4615 35.69C21.8015 35.69 21.8185 35.81 21.8185 38.1893C21.8185 40.5696 21.8019 40.6886 21.4615 40.6886C21.1215 40.6886 21.1045 40.5686 21.1045 38.1893ZM23.6973 40.263C22.7826 39.3483 22.7038 37.2216 23.5473 36.219C24.0166 35.6613 24.9073 35.397 25.6708 35.5883C26.225 35.7283 26.9955 36.457 26.9955 36.8423C26.9955 37.282 26.2157 37.1823 26.0113 36.7156C25.825 36.291 25.266 36.1273 24.5852 36.298C23.4511 36.5813 23.5786 39.7813 24.7355 40.0716C25.2549 40.2016 25.8396 39.9283 26.105 39.434C26.331 39.012 26.9954 38.9586 26.9954 39.364C26.9954 39.5173 26.7607 39.8803 26.4736 40.1673C26.0326 40.6079 25.81 40.6889 25.0373 40.6889C24.3117 40.6889 24.0352 40.6019 23.6973 40.263ZM28.4253 40.183C27.4892 39.2466 27.4859 37.218 28.4187 36.174C28.8763 35.6617 29.0328 35.6017 29.9077 35.6017C30.633 35.6017 30.9889 35.695 31.2859 35.9587C31.7628 36.3836 32.1726 37.2886 32.1726 37.9166V38.3686H30.3651H28.5576L28.6696 38.9486C28.8873 40.0753 30.0657 40.5093 30.9716 39.7966C31.5273 39.3596 32.0795 39.3163 31.9238 39.7233C31.8642 39.8799 31.8155 40.0366 31.8155 40.0759C31.8155 40.3159 30.6181 40.6906 29.8469 40.6906C29.0797 40.6906 28.85 40.6059 28.4253 40.183ZM31.2801 37.4643C31.2801 37.1943 30.9072 36.5193 30.6732 36.363C30.5652 36.2897 30.2357 36.233 29.9412 36.233C29.3065 36.233 29.0832 36.363 28.8076 36.8853C28.4397 37.5843 28.5452 37.656 29.9412 37.656C30.7698 37.656 31.2801 37.581 31.2801 37.4643ZM33.2438 38.19C33.2438 35.8097 33.2604 35.6907 33.6008 35.6907C33.8438 35.6907 33.9579 35.8107 33.9579 36.0637C33.9579 36.4226 33.9779 36.4193 34.5071 35.9737C35.2335 35.3627 36.1361 35.353 36.7331 35.9403C37.1498 36.3573 37.1712 36.484 37.1712 38.529C37.1712 40.5603 37.1512 40.6793 36.8142 40.6793C36.4812 40.6793 36.4572 40.5593 36.4572 38.9056C36.4572 36.574 36.3188 36.2163 35.4181 36.2163C34.3036 36.2163 34.0925 36.6006 33.9943 38.8066C33.9197 40.4869 33.8767 40.6793 33.5774 40.6793C33.2674 40.6793 33.2438 40.5026 33.2438 38.18V38.19ZM38.8429 40.4806C38.6332 40.3773 38.3738 40.1033 38.2665 39.8679C38.0965 39.4946 38.1165 39.4396 38.4245 39.4396C38.6189 39.4396 38.9384 39.5996 39.1348 39.7966C39.3668 40.03 39.7299 40.1536 40.1718 40.1536C41.0425 40.1536 41.508 39.8193 41.4279 39.2513C41.3792 38.9066 41.1975 38.7656 40.5629 38.581C39.1767 38.1773 38.5972 37.851 38.4148 37.3713C37.8577 35.906 40.2947 34.956 41.7249 36.081C42.2444 36.4896 42.2823 36.6803 41.8749 36.8366C41.6952 36.9066 41.4485 36.8033 41.2431 36.5866C40.84 36.1543 39.6471 36.0907 39.3204 36.4833C38.8904 37.0013 39.1897 37.344 40.4215 37.7433C41.939 38.2353 42.1702 38.433 42.1669 39.236C42.1637 39.9839 42.0512 40.1979 41.5119 40.4816C41.0347 40.7316 39.3643 40.7306 38.8429 40.4806ZM43.9937 40.4106C43.0919 39.7789 42.7711 37.9833 43.3237 36.6603C43.8232 35.465 45.8133 35.1473 46.7753 36.1093C47.1881 36.522 47.6111 38.0446 47.3778 38.278C47.3282 38.328 46.5375 38.368 45.6211 38.368C43.955 38.368 43.955 38.368 43.955 38.8223C43.955 39.9046 45.5133 40.5583 46.2757 39.796C46.472 39.5993 46.7532 39.439 46.9005 39.439C47.3227 39.439 47.2135 39.9133 46.6979 40.3186C46.1151 40.7769 44.5912 40.8306 43.9937 40.4106ZM46.5626 37.372C46.5029 37.2153 46.4543 37.0216 46.4543 36.9386C46.4543 36.574 45.8431 36.2263 45.202 36.2263C44.4721 36.2263 43.955 36.687 43.955 37.3373C43.955 37.614 44.1307 37.654 45.313 37.654C46.478 37.654 46.6555 37.6153 46.5626 37.372ZM21.1045 34.1733C21.1045 33.8467 21.1998 33.727 21.4615 33.727C21.7235 33.727 21.8185 33.847 21.8185 34.1733C21.8185 34.5 21.7232 34.6197 21.4615 34.6197C21.1995 34.6197 21.1045 34.4997 21.1045 34.1733ZM14.1422 30.603V29.621H13.0711H12V28.6394V27.6574H13.0711H14.1422V26.6754V25.6937H13.0711H12V18.9991V12.3049H20.4797H28.9593V18.9905V25.6757L27.9329 25.7291L26.9064 25.7824L26.8524 26.7194L26.7984 27.6567H27.8788H28.9593V28.6387V29.6204H27.8882H26.817V30.6024V31.584H25.7459H24.6748V30.6024V29.6204H25.7459H26.817V28.6387V27.6567H25.7366H24.6562L24.7102 26.7194L24.7642 25.7824L25.7906 25.7291L26.8171 25.6757V24.8011V23.9264L25.7906 23.8731L24.7642 23.8198L24.7158 20.2048L24.6675 16.5898H23.4215H22.1756V24.0878V31.5854H20.5689H18.9622V24.0878V16.5898H17.6234H16.2845V20.2495V23.9091H15.2133H14.1422V24.8018V25.6937L15.2133 25.6944H16.2845V26.6761V27.6581H15.2133L14.1422 27.6574V28.6401V29.621L15.2133 29.6217H16.2845V30.6037V31.5854H15.2133H14.1422V30.603ZM31.4586 21.9448V12.3049H33.6008H35.7431V21.9448V31.5847H33.6008H31.4586V21.9448ZM45.0261 30.603V29.621H44.0442H43.0624V28.6394V27.6574H44.0442H45.0261V26.6754V25.6937H43.9996L42.9731 25.6941L43.0238 21.1415L43.0744 16.5892H40.6585H38.2427V14.4468V12.3049H45.1213H52L51.9496 14.4025L51.8993 16.4998L49.5339 16.5498L47.1686 16.5998V20.2545V23.9088H46.0877H45.0068L45.0611 24.7568L45.1154 25.6047L46.1419 25.6581L47.1684 25.7114V26.6754V27.6397L46.1419 27.6931L45.1154 27.7464V28.6391V29.5314L46.1419 29.5847L47.1684 29.638V30.611V31.5837H46.0973H45.0262L45.0261 30.603Z" fill="black"/>
<g filter="url(#filter0_d_4_460)">
<path d="M61.2784 23V11.3636H63.0341V21.4886H68.3068V23H61.2784ZM70.1733 23V14.2727H71.8721V23H70.1733ZM71.0312 12.9261C70.7358 12.9261 70.482 12.8276 70.2699 12.6307C70.0615 12.4299 69.9574 12.1913 69.9574 11.9148C69.9574 11.6345 70.0615 11.3958 70.2699 11.1989C70.482 10.9981 70.7358 10.8977 71.0312 10.8977C71.3267 10.8977 71.5786 10.9981 71.7869 11.1989C71.999 11.3958 72.1051 11.6345 72.1051 11.9148C72.1051 12.1913 71.999 12.4299 71.7869 12.6307C71.5786 12.8276 71.3267 12.9261 71.0312 12.9261ZM77.8338 23.1761C76.9891 23.1761 76.2618 22.9848 75.652 22.6023C75.0459 22.2159 74.58 21.6837 74.2542 21.0057C73.9285 20.3276 73.7656 19.5511 73.7656 18.6761C73.7656 17.7898 73.9323 17.0076 74.2656 16.3295C74.5989 15.6477 75.0686 15.1155 75.6747 14.733C76.2807 14.3504 76.9948 14.1591 77.8167 14.1591C78.4796 14.1591 79.0705 14.2822 79.5895 14.5284C80.1084 14.7708 80.527 15.1117 80.8451 15.5511C81.1671 15.9905 81.3584 16.5038 81.419 17.0909H79.7656C79.6747 16.6818 79.4663 16.3295 79.1406 16.0341C78.8186 15.7386 78.3868 15.5909 77.8451 15.5909C77.3717 15.5909 76.9569 15.7159 76.6008 15.9659C76.2485 16.2121 75.9739 16.5644 75.777 17.0227C75.58 17.4773 75.4815 18.0151 75.4815 18.6364C75.4815 19.2727 75.5781 19.822 75.7713 20.2841C75.9645 20.7462 76.2372 21.1042 76.5895 21.358C76.9455 21.6117 77.3641 21.7386 77.8451 21.7386C78.1671 21.7386 78.4588 21.6799 78.7201 21.5625C78.9853 21.4413 79.2069 21.2689 79.3849 21.0455C79.5667 20.822 79.6936 20.553 79.7656 20.2386H81.419C81.3584 20.803 81.1747 21.3068 80.8679 21.75C80.561 22.1932 80.1501 22.5417 79.6349 22.7955C79.1235 23.0492 78.5232 23.1761 77.8338 23.1761ZM86.9971 23.1761C86.1373 23.1761 85.3967 22.9924 84.7755 22.625C84.1581 22.2538 83.6808 21.733 83.3437 21.0625C83.0104 20.3883 82.8437 19.5985 82.8437 18.6932C82.8437 17.7992 83.0104 17.0114 83.3437 16.3295C83.6808 15.6477 84.1505 15.1155 84.7528 14.733C85.3589 14.3504 86.0672 14.1591 86.8778 14.1591C87.3702 14.1591 87.8475 14.2405 88.3096 14.4034C88.7717 14.5663 89.1865 14.822 89.5539 15.1705C89.9214 15.5189 90.2111 15.9716 90.4233 16.5284C90.6354 17.0814 90.7414 17.7538 90.7414 18.5455V19.1477H83.8039V17.875H89.0767C89.0767 17.428 88.9858 17.0322 88.8039 16.6875C88.6221 16.339 88.3664 16.0644 88.0369 15.8636C87.7111 15.6629 87.3286 15.5625 86.8892 15.5625C86.4119 15.5625 85.9952 15.6799 85.6392 15.9148C85.2869 16.1458 85.0142 16.4489 84.821 16.8239C84.6316 17.1951 84.5369 17.5985 84.5369 18.0341V19.0284C84.5369 19.6117 84.6392 20.108 84.8437 20.517C85.052 20.9261 85.3418 21.2386 85.713 21.4545C86.0842 21.6667 86.518 21.7727 87.0142 21.7727C87.3361 21.7727 87.6297 21.7273 87.8948 21.6364C88.16 21.5417 88.3892 21.4015 88.5823 21.2159C88.7755 21.0303 88.9233 20.8011 89.0255 20.5284L90.6335 20.8182C90.5047 21.2917 90.2736 21.7064 89.9403 22.0625C89.6108 22.4148 89.196 22.6894 88.696 22.8864C88.1998 23.0795 87.6335 23.1761 86.9971 23.1761ZM94.3252 17.8182V23H92.6264V14.2727H94.2571V15.6932H94.365C94.5658 15.2311 94.8802 14.8598 95.3082 14.5795C95.74 14.2992 96.2836 14.1591 96.9389 14.1591C97.5336 14.1591 98.0544 14.2841 98.5014 14.5341C98.9483 14.7803 99.2949 15.1477 99.5412 15.6364C99.7874 16.125 99.9105 16.7292 99.9105 17.4489V23H98.2116V17.6534C98.2116 17.0208 98.0468 16.5265 97.7173 16.1705C97.3877 15.8106 96.9351 15.6307 96.3593 15.6307C95.9654 15.6307 95.615 15.7159 95.3082 15.8864C95.0052 16.0568 94.7646 16.3068 94.5866 16.6364C94.4124 16.9621 94.3252 17.3561 94.3252 17.8182ZM108.729 16.4034L107.189 16.6761C107.124 16.4792 107.022 16.2917 106.882 16.1136C106.746 15.9356 106.56 15.7898 106.325 15.6761C106.09 15.5625 105.797 15.5057 105.445 15.5057C104.963 15.5057 104.562 15.6136 104.24 15.8295C103.918 16.0417 103.757 16.3163 103.757 16.6534C103.757 16.9451 103.865 17.1799 104.081 17.358C104.297 17.536 104.645 17.6818 105.126 17.7955L106.513 18.1136C107.316 18.2992 107.914 18.5852 108.308 18.9716C108.702 19.358 108.899 19.8598 108.899 20.4773C108.899 21 108.748 21.4659 108.445 21.875C108.145 22.2803 107.727 22.5985 107.189 22.8295C106.655 23.0606 106.035 23.1761 105.331 23.1761C104.354 23.1761 103.556 22.9678 102.939 22.5511C102.321 22.1307 101.943 21.5341 101.803 20.7614L103.445 20.5114C103.547 20.9394 103.757 21.2633 104.075 21.483C104.393 21.6989 104.808 21.8068 105.32 21.8068C105.876 21.8068 106.321 21.6913 106.655 21.4602C106.988 21.2254 107.155 20.9394 107.155 20.6023C107.155 20.3295 107.053 20.1004 106.848 19.9148C106.647 19.7292 106.338 19.589 105.922 19.4943L104.445 19.1705C103.63 18.9848 103.028 18.6894 102.638 18.2841C102.251 17.8788 102.058 17.3655 102.058 16.7443C102.058 16.2292 102.202 15.7784 102.49 15.392C102.778 15.0057 103.176 14.7045 103.683 14.4886C104.191 14.2689 104.772 14.1591 105.428 14.1591C106.371 14.1591 107.113 14.3636 107.655 14.7727C108.196 15.178 108.554 15.7216 108.729 16.4034ZM114.528 23.1761C113.669 23.1761 112.928 22.9924 112.307 22.625C111.689 22.2538 111.212 21.733 110.875 21.0625C110.542 20.3883 110.375 19.5985 110.375 18.6932C110.375 17.7992 110.542 17.0114 110.875 16.3295C111.212 15.6477 111.682 15.1155 112.284 14.733C112.89 14.3504 113.598 14.1591 114.409 14.1591C114.901 14.1591 115.379 14.2405 115.841 14.4034C116.303 14.5663 116.718 14.822 117.085 15.1705C117.453 15.5189 117.742 15.9716 117.954 16.5284C118.167 17.0814 118.273 17.7538 118.273 18.5455V19.1477H111.335V17.875H116.608C116.608 17.428 116.517 17.0322 116.335 16.6875C116.153 16.339 115.898 16.0644 115.568 15.8636C115.242 15.6629 114.86 15.5625 114.42 15.5625C113.943 15.5625 113.526 15.6799 113.17 15.9148C112.818 16.1458 112.545 16.4489 112.352 16.8239C112.163 17.1951 112.068 17.5985 112.068 18.0341V19.0284C112.068 19.6117 112.17 20.108 112.375 20.517C112.583 20.9261 112.873 21.2386 113.244 21.4545C113.615 21.6667 114.049 21.7727 114.545 21.7727C114.867 21.7727 115.161 21.7273 115.426 21.6364C115.691 21.5417 115.92 21.4015 116.114 21.2159C116.307 21.0303 116.454 20.8011 116.557 20.5284L118.165 20.8182C118.036 21.2917 117.805 21.7064 117.472 22.0625C117.142 22.4148 116.727 22.6894 116.227 22.8864C115.731 23.0795 115.165 23.1761 114.528 23.1761ZM123.425 23.1705C122.72 23.1705 122.091 22.9905 121.538 22.6307C120.989 22.267 120.557 21.75 120.243 21.0795C119.932 20.4053 119.777 19.5966 119.777 18.6534C119.777 17.7102 119.934 16.9034 120.249 16.233C120.567 15.5625 121.002 15.0492 121.555 14.6932C122.108 14.3371 122.735 14.1591 123.436 14.1591C123.978 14.1591 124.413 14.25 124.743 14.4318C125.076 14.6098 125.334 14.8182 125.516 15.0568C125.701 15.2955 125.845 15.5057 125.947 15.6875H126.05V11.3636H127.749V23H126.089V21.642H125.947C125.845 21.8276 125.697 22.0398 125.504 22.2784C125.315 22.517 125.053 22.7254 124.72 22.9034C124.387 23.0814 123.955 23.1705 123.425 23.1705ZM123.8 21.7216C124.288 21.7216 124.701 21.5928 125.038 21.3352C125.379 21.0739 125.637 20.7121 125.811 20.25C125.989 19.7879 126.078 19.25 126.078 18.6364C126.078 18.0303 125.991 17.5 125.817 17.0455C125.642 16.5909 125.387 16.2367 125.05 15.983C124.713 15.7292 124.296 15.6023 123.8 15.6023C123.288 15.6023 122.862 15.7348 122.521 16C122.18 16.2651 121.923 16.6269 121.749 17.0852C121.578 17.5436 121.493 18.0606 121.493 18.6364C121.493 19.2197 121.58 19.7443 121.754 20.2102C121.928 20.6761 122.186 21.0455 122.527 21.3182C122.872 21.5871 123.296 21.7216 123.8 21.7216ZM134.544 23V11.3636H136.243V15.6875H136.345C136.444 15.5057 136.586 15.2955 136.771 15.0568C136.957 14.8182 137.214 14.6098 137.544 14.4318C137.874 14.25 138.309 14.1591 138.851 14.1591C139.555 14.1591 140.184 14.3371 140.737 14.6932C141.29 15.0492 141.724 15.5625 142.038 16.233C142.356 16.9034 142.516 17.7102 142.516 18.6534C142.516 19.5966 142.358 20.4053 142.044 21.0795C141.73 21.75 141.298 22.267 140.749 22.6307C140.199 22.9905 139.572 23.1705 138.868 23.1705C138.338 23.1705 137.904 23.0814 137.567 22.9034C137.233 22.7254 136.972 22.517 136.783 22.2784C136.593 22.0398 136.447 21.8276 136.345 21.642H136.203V23H134.544ZM136.209 18.6364C136.209 19.25 136.298 19.7879 136.476 20.25C136.654 20.7121 136.911 21.0739 137.249 21.3352C137.586 21.5928 137.999 21.7216 138.487 21.7216C138.995 21.7216 139.419 21.5871 139.76 21.3182C140.101 21.0455 140.358 20.6761 140.533 20.2102C140.711 19.7443 140.8 19.2197 140.8 18.6364C140.8 18.0606 140.713 17.5436 140.538 17.0852C140.368 16.6269 140.11 16.2651 139.766 16C139.425 15.7348 138.999 15.6023 138.487 15.6023C137.995 15.6023 137.578 15.7292 137.237 15.983C136.9 16.2367 136.644 16.5909 136.47 17.0455C136.296 17.5 136.209 18.0303 136.209 18.6364ZM145.2 26.2727C144.946 26.2727 144.715 26.2519 144.507 26.2102C144.299 26.1723 144.143 26.1307 144.041 26.0852L144.45 24.6932C144.761 24.7765 145.037 24.8125 145.28 24.8011C145.522 24.7898 145.736 24.6989 145.922 24.5284C146.111 24.3579 146.278 24.0795 146.422 23.6932L146.632 23.1136L143.439 14.2727H145.257L147.467 21.0455H147.558L149.768 14.2727H151.592L147.996 24.1648C147.829 24.6193 147.617 25.0038 147.359 25.3182C147.102 25.6364 146.795 25.875 146.439 26.0341C146.083 26.1932 145.67 26.2727 145.2 26.2727Z" fill="#E8E8E8"/>
<path d="M60.9357 29.6364H64.6363L67.7755 37.2912H67.9204L71.0596 29.6364H74.7603V42H71.8505V34.4055H71.7478L68.7777 41.9215H66.9183L63.9481 34.3633H63.8455V42H60.9357V29.6364ZM79.6124 29.6364V42H76.6242V29.6364H79.6124ZM81.0839 32.0632V29.6364H91.5339V32.0632H87.7849V42H84.8389V32.0632H81.0839Z" fill="black"/>
</g>
<defs>
<filter id="filter0_d_4_460" x="54.4" y="2.4" width="104.2" height="48.2" filterUnits="userSpaceOnUse" color-interpolation-filters="sRGB">
<feFlood flood-opacity="0" result="BackgroundImageFix"/>
<feColorMatrix in="SourceAlpha" type="matrix" values="0 0 0 0 0 0 0 0 0 0 0 0 0 0 0 0 0 0 127 0" result="hardAlpha"/>
<feOffset/>
<feGaussianBlur stdDeviation="2.8"/>
<feComposite in2="hardAlpha" operator="out"/>
<feColorMatrix type="matrix" values="0 0 0 0 0 0 0 0 0 0 0 0 0 0 0 0 0 0 0.25 0"/>
<feBlend mode="normal" in2="BackgroundImageFix" result="effect1_dropShadow_4_460"/>
<feBlend mode="normal" in="SourceGraphic" in2="effect1_dropShadow_4_460" result="shape"/>
</filter>
<linearGradient id="paint0_linear_4_460" x1="82.5" y1="0" x2="82.5" y2="53" gradientUnits="userSpaceOnUse">
<stop stop-color="#AEAEAE"/>
<stop offset="1" stop-color="#5D5D5D"/>
</linearGradient>
</defs>
</svg>
