<svg width="355" height="56" viewBox="0 0 355 56" fill="none" xmlns="http://www.w3.org/2000/svg">
<rect width="354.176" height="56" rx="8" fill="url(#paint0_linear_17_2298)"/>
<rect x="1.05" y="1.05" width="352.076" height="53.9" rx="6.95" stroke="white" stroke-opacity="0.15" stroke-width="2.1"/>
<path d="M24.3711 8.18343C22.3164 9.10423 21.0588 10.106 20.4577 11.2996C20.1764 11.8624 20.0187 12.5828 20.0272 13.2521C20.0357 13.7679 20.0613 13.8532 20.2148 13.8702C20.283 13.8787 20.3853 13.9214 20.4407 13.9682C20.6538 14.1345 21.2123 14.0322 21.8603 13.7039C23.0326 13.1157 23.9875 11.6961 24.4948 9.7863C24.5928 9.41542 24.8401 8.14933 24.8401 8.01291C24.8401 7.97881 24.7718 8.00438 24.3711 8.18343Z" fill="black"/>
<path d="M17.7252 9.79914C16.3184 12.4379 16.1394 14.3477 17.1497 16.0529C17.3969 16.4707 17.6868 16.8117 17.8317 16.8458C17.9895 16.8884 18.2069 16.7222 18.501 16.3257C19.814 14.5779 19.7842 12.8045 18.3902 10.008C18.2026 9.62862 18.0321 9.31743 18.0151 9.31743C17.998 9.31743 17.8658 9.53484 17.7252 9.79914Z" fill="black"/>
<path d="M23.3565 13.623C22.4954 13.9 22.035 14.0876 21.4723 14.3775C20.3085 14.9786 19.4474 15.7587 19.0211 16.607C18.744 17.1569 18.5735 17.8816 18.5735 18.504V18.7726L18.727 18.7982C18.8079 18.8152 18.9103 18.8664 18.9486 18.9133C19.0765 19.0582 19.3025 19.0923 19.7245 19.0198C20.5259 18.8792 21.0588 18.6063 21.6556 18.0266C22.5721 17.1399 23.2499 15.8738 23.7359 14.1686C23.8297 13.8318 23.915 13.5334 23.9235 13.5036C23.9491 13.4354 23.9533 13.4311 23.3565 13.623Z" fill="black"/>
<path d="M14.7454 15.7417C14.0036 18.3549 14.1102 20.0345 15.1077 21.4967C15.5639 22.1702 15.9774 22.5326 16.2843 22.5326C16.3823 22.5326 16.4335 22.4814 16.5998 22.2214C16.7106 22.0551 16.8768 21.7439 16.9664 21.5351C17.738 19.7489 17.269 17.9712 15.4189 15.6479C15.1845 15.3538 14.9756 15.1151 14.9585 15.1151C14.9372 15.1151 14.8392 15.3964 14.7454 15.7417Z" fill="black"/>
<path d="M20.5131 19.0029C19.3578 19.8299 18.3816 20.7123 17.8999 21.3603C17.6186 21.7397 17.2775 22.4175 17.1667 22.831C16.9876 23.496 16.9834 24.2719 17.1454 25.0008C17.2093 25.2737 17.2264 25.3035 17.3159 25.3035C17.3756 25.3035 17.4864 25.3334 17.5631 25.3717C17.6953 25.4357 17.7294 25.4357 17.9383 25.3717C18.5436 25.1927 19.3067 24.6087 19.7756 23.9522C20.658 22.7287 20.965 21.4669 21.046 18.7258C21.046 18.649 20.9095 18.7215 20.5131 19.0029Z" fill="black"/>
<path d="M12.7076 21.9656C12.7801 23.351 13.0401 24.5575 13.4749 25.4953C13.8202 26.2371 14.4725 27.0683 15.0138 27.4563C15.5425 27.8357 16.1947 28.0616 16.2927 27.9039C16.3055 27.8783 16.3737 27.8612 16.4419 27.8612C16.5954 27.8612 16.6252 27.8101 16.7233 27.3497C16.8384 26.8168 16.8256 25.8704 16.702 25.41C16.3908 24.2548 15.4828 23.1677 13.9865 22.1574C13.6668 21.9443 12.7374 21.3816 12.7033 21.3816C12.6905 21.3816 12.6905 21.6459 12.7076 21.9656Z" fill="black"/>
<path d="M20.381 24.0757C19.6094 24.8686 19.1191 25.5081 18.582 26.4118C18.2367 26.9958 17.9809 27.8527 17.9468 28.5518C17.9084 29.3149 18.0534 30.0225 18.3902 30.6918L18.5351 30.9817L18.7866 30.9646C18.9742 30.9518 19.0808 30.9135 19.2172 30.8197C19.9376 30.3252 20.6495 29.3319 20.9309 28.4324C21.2634 27.3752 21.2506 25.9898 20.8882 24.2675C20.8286 23.9691 20.7646 23.7262 20.7518 23.7262C20.7348 23.7262 20.5685 23.8839 20.381 24.0757Z" fill="black"/>
<path d="M12.0213 27.4946C12.0639 27.6822 12.648 28.8886 12.8824 29.2723C14.0633 31.2162 15.3251 32.1839 16.8086 32.2819C17.2477 32.3117 17.4736 32.2563 17.5759 32.1029C17.61 32.0474 17.7209 31.9835 17.836 31.9537L18.0321 31.8982L18.0022 31.6126C17.9426 30.9433 17.5802 30.0822 17.1241 29.5067C16.2587 28.4239 14.9627 27.8527 12.5286 27.4818L12 27.4051L12.0213 27.4946Z" fill="black"/>
<path d="M21.468 29.3447C19.5624 31.7874 19.0935 33.8336 20.01 35.6965C20.0953 35.867 20.2189 36.0844 20.2829 36.174C20.3894 36.3189 20.4321 36.3445 20.56 36.3445C20.7774 36.3445 20.9053 36.2635 21.2676 35.8841C22.6062 34.4816 22.9302 32.7849 22.3035 30.4232C22.1415 29.8264 21.8559 28.927 21.8218 28.927C21.8047 28.927 21.647 29.1145 21.468 29.3447Z" fill="black"/>
<path d="M23.7572 32.7722C22.5635 35.1978 22.376 36.8987 23.1348 38.4547C23.5099 39.2305 23.949 39.7549 24.1707 39.6952C24.3028 39.6611 24.5842 39.3712 24.8144 39.0345C25.8759 37.4486 25.91 35.9609 24.938 33.7441C24.7291 33.2667 24.1323 32.1242 24.0939 32.1242C24.0854 32.1242 23.9362 32.4184 23.7572 32.7722Z" fill="black"/>
<path d="M12.9037 32.1796C12.9037 32.1924 13.0145 32.3927 13.1552 32.6229C13.2916 32.8531 13.4834 33.1814 13.5815 33.3519C13.9865 34.051 14.9968 35.1679 15.632 35.6155C16.3737 36.1399 17.0558 36.3829 17.87 36.417C18.4881 36.4425 18.7056 36.3956 18.8931 36.1953C18.9613 36.1143 19.1148 36.012 19.2256 35.9651C19.3365 35.9182 19.426 35.85 19.426 35.8201C19.426 35.6965 19.2001 35.0784 19.0423 34.7587C18.6374 33.9444 18.1514 33.4286 17.3713 32.981C16.6593 32.5718 16.0583 32.3842 15.0991 32.2734C14.5279 32.2052 12.9037 32.1327 12.9037 32.1796Z" fill="black"/>
<path d="M26.6134 35.266C26.4727 35.9651 26.4045 36.6898 26.4003 37.5595C26.396 38.7829 26.5196 39.4693 26.8905 40.2963C27.1889 40.9655 27.8539 41.8011 28.3569 42.1421C28.5275 42.2615 28.6212 42.2913 28.8344 42.3041L29.0987 42.3212L29.201 42.1165C29.6912 41.1446 29.8277 39.9424 29.5506 39.0089C29.3374 38.2884 28.9751 37.6404 28.3484 36.8561C28.0713 36.5065 26.7328 35.1509 26.6688 35.1509C26.6518 35.1509 26.6262 35.202 26.6134 35.266Z" fill="black"/>
<path d="M17.2094 36.6855C16.9152 36.7281 16.4506 36.8006 16.1692 36.8517C15.8921 36.8986 15.6577 36.9413 15.6449 36.9413C15.6364 36.9413 15.7856 37.1203 15.9774 37.3377C16.1692 37.5551 16.3781 37.828 16.4421 37.9473C16.5145 38.0795 16.7149 38.2969 16.9792 38.5313C18.6289 39.9935 20.1593 40.5179 21.6215 40.1299C21.9327 40.0489 21.9839 40.0191 22.197 39.8017C22.3249 39.6695 22.504 39.5246 22.5935 39.4777C22.7896 39.3754 22.7853 39.3328 22.5338 38.8852C21.9242 37.8066 21.0119 37.0947 19.895 36.8219C18.9657 36.5917 18.1472 36.5533 17.2094 36.6855Z" fill="black"/>
<path d="M30.2113 38.9193C30.2113 39.0216 30.7911 40.4071 30.9999 40.8078C32.0913 42.9052 33.4298 44.0221 34.9261 44.0945L35.3567 44.1116L35.4888 43.9837C35.5656 43.9112 35.6935 43.8387 35.7745 43.8217C35.8554 43.8089 35.9364 43.7791 35.945 43.7577C35.9578 43.7407 35.945 43.5446 35.9194 43.3272C35.8299 42.5812 35.557 41.8437 35.1819 41.3151C34.9474 40.9826 34.406 40.4668 34.048 40.2323C33.3531 39.7719 32.3001 39.3669 31.0213 39.0685C30.2966 38.9022 30.2113 38.8852 30.2113 38.9193Z" fill="black"/>
<path d="M22.5509 40.2664C22.0393 40.3218 21.5661 40.4241 20.9821 40.6117C20.3299 40.8206 19.4943 41.1446 19.4815 41.1915C19.4773 41.2085 19.6393 41.3492 19.8396 41.4984C20.0656 41.6689 20.2275 41.8266 20.2574 41.9034C20.3299 42.0782 20.445 42.1762 20.8585 42.432C22.0947 43.1951 23.3267 43.5872 24.3498 43.5361C25.1555 43.4935 26.055 43.1609 26.2681 42.8242C26.3236 42.7389 26.4856 42.5599 26.6348 42.4277L26.9033 42.1933L26.7243 41.9588C26.1189 41.1574 25.2536 40.5691 24.3669 40.3517C23.9491 40.2494 23.0837 40.211 22.5509 40.2664Z" fill="black"/>
<path d="M27.9733 42.9051C27.1122 43.0885 26.2468 43.4721 25.3388 44.0775C24.3583 44.7339 23.9959 45.0409 24.2048 45.0409C24.2304 45.0409 24.3881 45.1048 24.5629 45.1858C24.7889 45.2881 24.8912 45.3649 24.9295 45.4501C25.0105 45.6164 25.2024 45.7016 25.8844 45.8764C27.3424 46.243 28.472 46.2345 29.4909 45.8551C30.0195 45.6547 30.6675 45.1773 30.919 44.7979C31.0085 44.6657 31.1833 44.4142 31.3069 44.2352C31.5755 43.8643 31.5883 43.9069 31.0852 43.5702C30.6845 43.3016 30.2667 43.1098 29.8063 42.9691C29.2863 42.8156 28.536 42.79 27.9733 42.9051Z" fill="black"/>
<path d="M33.2166 44.7169C32.6113 44.8619 32.1552 45.0537 31.4305 45.4757C30.8592 45.8082 29.2649 47.0957 29.3374 47.1681C29.3544 47.1809 29.5334 47.2491 29.7338 47.3216C30.045 47.4282 30.1089 47.4665 30.1175 47.5475C30.1388 47.6925 30.386 47.7863 31.0212 47.9056C31.4731 47.9866 31.6948 48.0037 32.4919 47.9994C33.3744 47.9994 33.4554 47.9909 33.8561 47.8843C34.9602 47.5859 35.6337 47.0743 36.2646 46.064C36.4522 45.7613 36.6057 45.497 36.6057 45.48C36.6057 45.3862 35.7062 44.9301 35.1989 44.7638C34.892 44.6615 34.747 44.6445 34.2397 44.6317C33.7239 44.6189 33.5832 44.6274 33.2166 44.7169Z" fill="black"/>
<path d="M56.5326 20.8078C56.8044 20.6289 57.0762 20.45 57.3016 20.2554C57.5271 20.0609 57.7063 19.8505 57.8118 19.6472C57.9173 19.4438 57.9491 19.2472 57.9308 19.036C57.9125 18.8248 57.8439 18.5989 57.7509 18.3235C57.658 18.0482 57.5408 17.7235 57.4893 17.4208C57.4377 17.1181 57.4521 16.8376 57.4878 16.6295C57.5235 16.4215 57.5806 16.2861 57.6301 16.1537C57.6797 16.0212 57.7218 15.8917 57.8244 15.6903C57.927 15.4889 58.0901 15.2158 58.2532 14.9425" stroke="black" stroke-width="1.5" stroke-linecap="round"/>
<path d="M68.7284 20.5056C69.0002 20.3267 69.272 20.1479 69.4974 19.9533C69.7229 19.7587 69.9021 19.5484 70.0076 19.345C70.1131 19.1417 70.1449 18.9451 70.1266 18.7339C70.1083 18.5227 70.0397 18.2967 69.9467 18.0214C69.8538 17.7461 69.7366 17.4214 69.6851 17.1187C69.6335 16.816 69.6479 16.5355 69.6836 16.3274C69.7193 16.1194 69.7764 15.984 69.8259 15.8515C69.8755 15.7191 69.9176 15.5896 70.0202 15.3882C70.1228 15.1868 70.2859 14.9137 70.449 14.6404" stroke="black" stroke-width="1.5" stroke-linecap="round"/>
<path d="M62.895 19.2935C63.1669 19.1146 63.4386 18.9357 63.664 18.7412C63.8895 18.5466 64.0687 18.3362 64.1742 18.1329C64.2798 17.9295 64.3116 17.7329 64.2932 17.5217C64.2749 17.3105 64.2063 17.0846 64.1134 16.8092C64.0204 16.5339 63.9032 16.2092 63.8517 15.9065C63.8002 15.6038 63.8145 15.3233 63.8502 15.1153C63.8859 14.9072 63.943 14.7718 63.9926 14.6394C64.0421 14.507 64.0842 14.3775 64.1868 14.1761C64.2894 13.9747 64.4525 13.7015 64.6156 13.4282" stroke="black" stroke-width="1.5" stroke-linecap="round"/>
<path d="M80.479 39.4321C80.1531 39.4339 59.2704 39.5444 53.8675 39.5232C48.4647 39.5021 48.4267 39.4023 48.4266 39.5543C48.4266 39.7062 48.4645 40.1099 48.6138 40.497C48.763 40.884 49.0232 41.2544 49.3576 41.5846C49.692 41.9148 50.086 42.1946 50.3788 42.356C50.6716 42.5174 50.8559 42.5554 55.4373 42.5696C60.0187 42.5838 68.9969 42.5743 73.5294 42.5505C78.0618 42.5267 78.1486 42.4887 78.4034 42.3747C78.6582 42.2607 79.0811 42.0708 79.4822 41.7431C79.8833 41.4155 80.2628 40.9501 80.4743 40.5941C80.6857 40.238 80.7163 40.0635 80.7514 39.8363C80.7865 39.6091 80.7942 39.5349 80.805 39.4304C80.805 39.4304 80.805 39.4304 80.479 39.4321Z" stroke="black" stroke-width="1.4" stroke-linecap="round" stroke-linejoin="round"/>
<path d="M76.2782 26.7325C76.1913 26.1198 76.1043 25.5066 75.9264 25.1406C75.7486 24.7746 75.4796 24.6559 75.298 24.5962C75.1163 24.5366 75.0221 24.5361 71.1763 24.5527C67.3305 24.5692 59.7334 24.6028 55.9053 24.6202C52.0772 24.6375 52.0181 24.6387 51.947 24.6452C51.8759 24.6517 51.7929 24.6636 51.676 24.7249C51.5592 24.7862 51.4089 24.897 51.2854 25.0629C51.162 25.2289 51.0685 25.4431 51.0201 25.978C50.9718 26.513 50.9698 27.3651 50.9857 27.987C51.0015 28.6088 51.0351 29.0004 51.1627 29.6511C51.2903 30.3017 51.5118 31.2113 51.8164 32.121C52.1211 33.0307 52.5087 33.9405 53.1635 34.9143C53.8183 35.8881 54.74 36.9258 55.6005 37.6958C56.4609 38.4658 57.26 38.9682 57.6753 39.2193C58.0906 39.4703 58.1223 39.4703 59.9901 39.4644C61.858 39.4585 65.5619 39.4466 67.4296 39.4347C69.2974 39.4228 69.329 39.4109 69.7303 39.1254C70.1316 38.84 70.9026 38.2809 71.6323 37.6651C72.362 37.0493 73.0503 36.3768 73.6792 35.5304C74.3082 34.6839 74.8778 33.6633 75.2903 32.7063C75.7027 31.7494 75.9538 30.8706 76.0922 29.8896C76.2306 28.9086 76.2545 27.8168 76.2901 27.2509C76.3257 26.685 76.3732 26.6376 76.6305 26.627C76.8879 26.6165 77.3547 26.6429 77.8175 26.7154C78.2804 26.788 78.7393 26.9067 79.0873 27.1165C79.4354 27.3263 79.6727 27.627 79.8703 27.909C80.0679 28.1911 80.2257 28.4545 80.3409 28.8436C80.4561 29.2326 80.5288 29.7473 80.5456 30.2592C80.5623 30.771 80.5231 31.2801 80.4112 31.7331C80.2993 32.1862 80.1147 32.5834 79.8266 32.9945C79.5385 33.4056 79.1469 33.8308 78.7106 34.2084C78.2743 34.586 77.7932 34.916 77.2254 35.2209C76.6576 35.5258 76.0031 35.8055 75.3011 35.9957C74.599 36.186 73.8494 36.2867 73.0994 36.3874" stroke="black" stroke-width="1.4" stroke-linecap="round"/>
<g filter="url(#filter0_d_17_2298)">
<path d="M103.276 12.8636V24.5H101.663L95.7478 15.9659H95.6398V24.5H93.8841V12.8636H95.5091L101.43 21.4091H101.538V12.8636H103.276ZM109.377 24.6761C108.559 24.6761 107.845 24.4886 107.235 24.1136C106.625 23.7386 106.152 23.214 105.815 22.5398C105.477 21.8655 105.309 21.0776 105.309 20.1761C105.309 19.2708 105.477 18.4792 105.815 17.8011C106.152 17.1231 106.625 16.5966 107.235 16.2216C107.845 15.8466 108.559 15.6591 109.377 15.6591C110.195 15.6591 110.909 15.8466 111.519 16.2216C112.129 16.5966 112.602 17.1231 112.94 17.8011C113.277 18.4792 113.445 19.2708 113.445 20.1761C113.445 21.0776 113.277 21.8655 112.94 22.5398C112.602 23.214 112.129 23.7386 111.519 24.1136C110.909 24.4886 110.195 24.6761 109.377 24.6761ZM109.383 23.25C109.913 23.25 110.352 23.1098 110.701 22.8295C111.049 22.5492 111.307 22.1761 111.474 21.7102C111.644 21.2443 111.729 20.7311 111.729 20.1705C111.729 19.6136 111.644 19.1023 111.474 18.6364C111.307 18.1667 111.049 17.7898 110.701 17.5057C110.352 17.2216 109.913 17.0795 109.383 17.0795C108.849 17.0795 108.405 17.2216 108.053 17.5057C107.705 17.7898 107.445 18.1667 107.275 18.6364C107.108 19.1023 107.025 19.6136 107.025 20.1705C107.025 20.7311 107.108 21.2443 107.275 21.7102C107.445 22.1761 107.705 22.5492 108.053 22.8295C108.405 23.1098 108.849 23.25 109.383 23.25ZM115.342 24.5V15.7727H116.972V17.1932H117.08C117.262 16.7121 117.559 16.3371 117.972 16.0682C118.385 15.7955 118.879 15.6591 119.455 15.6591C120.038 15.6591 120.527 15.7955 120.921 16.0682C121.319 16.3409 121.612 16.7159 121.802 17.1932H121.893C122.101 16.7273 122.432 16.3561 122.887 16.0795C123.341 15.7992 123.883 15.6591 124.512 15.6591C125.304 15.6591 125.949 15.9072 126.449 16.4034C126.953 16.8996 127.205 17.6477 127.205 18.6477V24.5H125.506V18.8068C125.506 18.2159 125.345 17.7879 125.023 17.5227C124.701 17.2576 124.317 17.125 123.87 17.125C123.317 17.125 122.887 17.2955 122.58 17.6364C122.273 17.9735 122.12 18.4072 122.12 18.9375V24.5H120.427V18.6989C120.427 18.2254 120.279 17.8447 119.984 17.5568C119.688 17.2689 119.304 17.125 118.83 17.125C118.508 17.125 118.211 17.2102 117.938 17.3807C117.669 17.5473 117.451 17.7803 117.285 18.0795C117.122 18.3788 117.04 18.7254 117.04 19.1193V24.5H115.342ZM129.482 24.5V15.7727H131.181V24.5H129.482ZM130.34 14.4261C130.045 14.4261 129.791 14.3276 129.579 14.1307C129.37 13.9299 129.266 13.6913 129.266 13.4148C129.266 13.1345 129.37 12.8958 129.579 12.6989C129.791 12.4981 130.045 12.3977 130.34 12.3977C130.636 12.3977 130.887 12.4981 131.096 12.6989C131.308 12.8958 131.414 13.1345 131.414 13.4148C131.414 13.6913 131.308 13.9299 131.096 14.1307C130.887 14.3276 130.636 14.4261 130.34 14.4261ZM135.165 19.3182V24.5H133.466V15.7727H135.097V17.1932H135.205C135.406 16.7311 135.72 16.3598 136.148 16.0795C136.58 15.7992 137.124 15.6591 137.779 15.6591C138.374 15.6591 138.895 15.7841 139.341 16.0341C139.788 16.2803 140.135 16.6477 140.381 17.1364C140.627 17.625 140.751 18.2292 140.751 18.9489V24.5H139.052V19.1534C139.052 18.5208 138.887 18.0265 138.557 17.6705C138.228 17.3106 137.775 17.1307 137.199 17.1307C136.806 17.1307 136.455 17.2159 136.148 17.3864C135.845 17.5568 135.605 17.8068 135.427 18.1364C135.252 18.4621 135.165 18.8561 135.165 19.3182ZM145.569 24.6932C145.016 24.6932 144.516 24.5909 144.069 24.3864C143.622 24.178 143.268 23.8769 143.006 23.483C142.749 23.089 142.62 22.6061 142.62 22.0341C142.62 21.5417 142.715 21.1364 142.904 20.8182C143.093 20.5 143.349 20.2481 143.671 20.0625C143.993 19.8769 144.353 19.7367 144.751 19.642C145.148 19.5473 145.554 19.4754 145.966 19.4261C146.489 19.3655 146.913 19.3163 147.239 19.2784C147.565 19.2367 147.802 19.1705 147.949 19.0795C148.097 18.9886 148.171 18.8409 148.171 18.6364V18.5966C148.171 18.1004 148.031 17.7159 147.751 17.4432C147.474 17.1705 147.061 17.0341 146.512 17.0341C145.94 17.0341 145.489 17.161 145.16 17.4148C144.834 17.6648 144.609 17.9432 144.484 18.25L142.887 17.8864C143.076 17.3561 143.353 16.928 143.716 16.6023C144.084 16.2727 144.506 16.0341 144.984 15.8864C145.461 15.7348 145.963 15.6591 146.489 15.6591C146.838 15.6591 147.207 15.7008 147.597 15.7841C147.991 15.8636 148.359 16.0114 148.699 16.2273C149.044 16.4432 149.326 16.7519 149.546 17.1534C149.766 17.5511 149.876 18.0682 149.876 18.7045V24.5H148.216V23.3068H148.148C148.038 23.5265 147.874 23.7424 147.654 23.9545C147.434 24.1667 147.152 24.3428 146.807 24.483C146.463 24.6231 146.05 24.6932 145.569 24.6932ZM145.938 23.3295C146.408 23.3295 146.809 23.2367 147.143 23.0511C147.48 22.8655 147.735 22.6231 147.91 22.3239C148.088 22.0208 148.177 21.697 148.177 21.3523V20.2273C148.116 20.2879 147.999 20.3447 147.824 20.3977C147.654 20.447 147.459 20.4905 147.239 20.5284C147.02 20.5625 146.806 20.5947 146.597 20.625C146.389 20.6515 146.215 20.6742 146.074 20.6932C145.745 20.7348 145.444 20.8049 145.171 20.9034C144.902 21.0019 144.686 21.1439 144.523 21.3295C144.364 21.5114 144.285 21.7538 144.285 22.0568C144.285 22.4773 144.44 22.7955 144.751 23.0114C145.061 23.2235 145.457 23.3295 145.938 23.3295ZM156.212 15.7727V17.1364H151.445V15.7727H156.212ZM152.724 13.6818H154.422V21.9375C154.422 22.267 154.472 22.5151 154.57 22.6818C154.669 22.8447 154.796 22.9564 154.951 23.017C155.11 23.0739 155.282 23.1023 155.468 23.1023C155.604 23.1023 155.724 23.0928 155.826 23.0739C155.928 23.0549 156.008 23.0398 156.065 23.0284L156.371 24.4318C156.273 24.4697 156.133 24.5076 155.951 24.5455C155.769 24.5871 155.542 24.6098 155.269 24.6136C154.822 24.6212 154.405 24.5417 154.019 24.375C153.633 24.2083 153.32 23.9508 153.082 23.6023C152.843 23.2538 152.724 22.8163 152.724 22.2898V13.6818ZM161.759 24.6761C160.899 24.6761 160.159 24.4924 159.538 24.125C158.92 23.7538 158.443 23.233 158.106 22.5625C157.772 21.8883 157.606 21.0985 157.606 20.1932C157.606 19.2992 157.772 18.5114 158.106 17.8295C158.443 17.1477 158.913 16.6155 159.515 16.233C160.121 15.8504 160.829 15.6591 161.64 15.6591C162.132 15.6591 162.609 15.7405 163.072 15.9034C163.534 16.0663 163.948 16.322 164.316 16.6705C164.683 17.0189 164.973 17.4716 165.185 18.0284C165.397 18.5814 165.503 19.2538 165.503 20.0455V20.6477H158.566V19.375H163.839C163.839 18.928 163.748 18.5322 163.566 18.1875C163.384 17.839 163.128 17.5644 162.799 17.3636C162.473 17.1629 162.091 17.0625 161.651 17.0625C161.174 17.0625 160.757 17.1799 160.401 17.4148C160.049 17.6458 159.776 17.9489 159.583 18.3239C159.394 18.6951 159.299 19.0985 159.299 19.5341V20.5284C159.299 21.1117 159.401 21.608 159.606 22.017C159.814 22.4261 160.104 22.7386 160.475 22.9545C160.846 23.1667 161.28 23.2727 161.776 23.2727C162.098 23.2727 162.392 23.2273 162.657 23.1364C162.922 23.0417 163.151 22.9015 163.344 22.7159C163.538 22.5303 163.685 22.3011 163.788 22.0284L165.395 22.3182C165.267 22.7917 165.036 23.2064 164.702 23.5625C164.373 23.9148 163.958 24.1894 163.458 24.3864C162.962 24.5795 162.395 24.6761 161.759 24.6761ZM170.655 24.6705C169.951 24.6705 169.322 24.4905 168.769 24.1307C168.22 23.767 167.788 23.25 167.474 22.5795C167.163 21.9053 167.008 21.0966 167.008 20.1534C167.008 19.2102 167.165 18.4034 167.479 17.733C167.797 17.0625 168.233 16.5492 168.786 16.1932C169.339 15.8371 169.966 15.6591 170.667 15.6591C171.208 15.6591 171.644 15.75 171.974 15.9318C172.307 16.1098 172.564 16.3182 172.746 16.5568C172.932 16.7955 173.076 17.0057 173.178 17.1875H173.28V12.8636H174.979V24.5H173.32V23.142H173.178C173.076 23.3276 172.928 23.5398 172.735 23.7784C172.546 24.017 172.284 24.2254 171.951 24.4034C171.618 24.5814 171.186 24.6705 170.655 24.6705ZM171.03 23.2216C171.519 23.2216 171.932 23.0928 172.269 22.8352C172.61 22.5739 172.868 22.2121 173.042 21.75C173.22 21.2879 173.309 20.75 173.309 20.1364C173.309 19.5303 173.222 19 173.047 18.5455C172.873 18.0909 172.618 17.7367 172.28 17.483C171.943 17.2292 171.527 17.1023 171.03 17.1023C170.519 17.1023 170.093 17.2348 169.752 17.5C169.411 17.7651 169.154 18.1269 168.979 18.5852C168.809 19.0436 168.724 19.5606 168.724 20.1364C168.724 20.7197 168.811 21.2443 168.985 21.7102C169.159 22.1761 169.417 22.5455 169.758 22.8182C170.102 23.0871 170.527 23.2216 171.03 23.2216ZM185.792 15.7727V17.1364H180.86V15.7727H185.792ZM182.212 24.5V14.7614C182.212 14.2159 182.332 13.7633 182.57 13.4034C182.809 13.0398 183.125 12.7689 183.519 12.5909C183.913 12.4091 184.341 12.3182 184.803 12.3182C185.144 12.3182 185.436 12.3466 185.678 12.4034C185.921 12.4564 186.1 12.5057 186.218 12.5511L185.82 13.9261C185.741 13.9034 185.638 13.8769 185.513 13.8466C185.388 13.8125 185.237 13.7955 185.059 13.7955C184.646 13.7955 184.35 13.8977 184.172 14.1023C183.998 14.3068 183.911 14.6023 183.911 14.9886V24.5H182.212ZM190.877 24.6761C190.059 24.6761 189.345 24.4886 188.735 24.1136C188.125 23.7386 187.652 23.214 187.314 22.5398C186.977 21.8655 186.809 21.0776 186.809 20.1761C186.809 19.2708 186.977 18.4792 187.314 17.8011C187.652 17.1231 188.125 16.5966 188.735 16.2216C189.345 15.8466 190.059 15.6591 190.877 15.6591C191.695 15.6591 192.409 15.8466 193.019 16.2216C193.629 16.5966 194.102 17.1231 194.439 17.8011C194.777 18.4792 194.945 19.2708 194.945 20.1761C194.945 21.0776 194.777 21.8655 194.439 22.5398C194.102 23.214 193.629 23.7386 193.019 24.1136C192.409 24.4886 191.695 24.6761 190.877 24.6761ZM190.883 23.25C191.413 23.25 191.852 23.1098 192.201 22.8295C192.549 22.5492 192.807 22.1761 192.974 21.7102C193.144 21.2443 193.229 20.7311 193.229 20.1705C193.229 19.6136 193.144 19.1023 192.974 18.6364C192.807 18.1667 192.549 17.7898 192.201 17.5057C191.852 17.2216 191.413 17.0795 190.883 17.0795C190.349 17.0795 189.905 17.2216 189.553 17.5057C189.205 17.7898 188.945 18.1667 188.775 18.6364C188.608 19.1023 188.525 19.6136 188.525 20.1705C188.525 20.7311 188.608 21.2443 188.775 21.7102C188.945 22.1761 189.205 22.5492 189.553 22.8295C189.905 23.1098 190.349 23.25 190.883 23.25ZM196.841 24.5V15.7727H198.484V17.1591H198.574C198.734 16.6894 199.014 16.3201 199.415 16.0511C199.821 15.7784 200.279 15.642 200.79 15.642C200.896 15.642 201.021 15.6458 201.165 15.6534C201.313 15.661 201.429 15.6705 201.512 15.6818V17.3068C201.444 17.2879 201.323 17.267 201.148 17.2443C200.974 17.2178 200.8 17.2045 200.626 17.2045C200.224 17.2045 199.866 17.2898 199.552 17.4602C199.241 17.6269 198.995 17.8598 198.813 18.1591C198.631 18.4545 198.54 18.7917 198.54 19.1705V24.5H196.841Z" fill="black"/>
<path d="M96.7893 33.5632V31.1364H107.239V33.5632H103.49V43.5H100.544V33.5632H96.7893ZM111.688 43.6751C110.719 43.6751 109.881 43.4839 109.177 43.1016C108.477 42.7152 107.938 42.1658 107.559 41.4535C107.185 40.7371 106.998 39.8859 106.998 38.8999C106.998 37.942 107.187 37.1049 107.565 36.3885C107.944 35.6681 108.477 35.1087 109.165 34.7102C109.853 34.3078 110.664 34.1065 111.598 34.1065C112.258 34.1065 112.862 34.2092 113.409 34.4144C113.956 34.6197 114.429 34.9235 114.828 35.326C115.226 35.7285 115.536 36.2255 115.757 36.8171C115.979 37.4047 116.089 38.0788 116.089 38.8395V39.576H108.03V37.8615H113.343C113.339 37.5476 113.264 37.2679 113.119 37.0224C112.974 36.7769 112.775 36.5857 112.522 36.4489C112.272 36.308 111.984 36.2376 111.658 36.2376C111.328 36.2376 111.032 36.312 110.771 36.4609C110.509 36.6058 110.302 36.805 110.149 37.0586C109.996 37.3081 109.916 37.5919 109.908 37.9098V39.6545C109.908 40.0328 109.982 40.3648 110.131 40.6506C110.28 40.9323 110.491 41.1516 110.765 41.3086C111.038 41.4656 111.364 41.544 111.743 41.544C112.004 41.544 112.242 41.5078 112.455 41.4354C112.668 41.3629 112.852 41.2563 113.004 41.1154C113.157 40.9745 113.272 40.8015 113.349 40.5962L116.059 40.6747C115.946 41.2824 115.699 41.8117 115.317 42.2624C114.938 42.7092 114.441 43.0573 113.826 43.3068C113.21 43.5523 112.497 43.6751 111.688 43.6751ZM120.211 43.657C119.619 43.657 119.094 43.5584 118.635 43.3611C118.181 43.1599 117.82 42.8581 117.555 42.4556C117.293 42.0491 117.162 41.54 117.162 40.9283C117.162 40.4131 117.253 39.9785 117.434 39.6243C117.615 39.2701 117.865 38.9824 118.183 38.761C118.501 38.5397 118.867 38.3726 119.281 38.2599C119.696 38.1432 120.139 38.0647 120.61 38.0245C121.137 37.9762 121.561 37.9259 121.883 37.8736C122.205 37.8172 122.439 37.7388 122.584 37.6381C122.733 37.5335 122.807 37.3866 122.807 37.1974V37.1673C122.807 36.8574 122.7 36.6179 122.487 36.4489C122.274 36.2798 121.986 36.1953 121.624 36.1953C121.233 36.1953 120.919 36.2798 120.682 36.4489C120.445 36.6179 120.294 36.8513 120.229 37.1491L117.507 37.0526C117.587 36.4891 117.794 35.986 118.128 35.5433C118.466 35.0966 118.929 34.7464 119.517 34.4929C120.108 34.2353 120.819 34.1065 121.648 34.1065C122.239 34.1065 122.785 34.177 123.284 34.3178C123.783 34.4547 124.218 34.6559 124.588 34.9215C124.958 35.1831 125.244 35.5051 125.445 35.8874C125.65 36.2698 125.753 36.7064 125.753 37.1974V43.5H122.976V42.2081H122.904C122.739 42.522 122.527 42.7876 122.27 43.005C122.016 43.2223 121.716 43.3853 121.37 43.494C121.028 43.6026 120.642 43.657 120.211 43.657ZM121.123 41.7251C121.441 41.7251 121.726 41.6607 121.98 41.532C122.237 41.4032 122.443 41.2261 122.596 41.0007C122.749 40.7713 122.825 40.5057 122.825 40.2038V39.3224C122.741 39.3667 122.638 39.407 122.517 39.4432C122.4 39.4794 122.272 39.5136 122.131 39.5458C121.99 39.578 121.845 39.6062 121.696 39.6303C121.547 39.6545 121.404 39.6766 121.268 39.6967C120.99 39.741 120.752 39.8094 120.555 39.902C120.362 39.9946 120.213 40.1153 120.108 40.2642C120.008 40.4091 119.958 40.5821 119.958 40.7834C119.958 41.0892 120.066 41.3227 120.284 41.4837C120.505 41.6446 120.785 41.7251 121.123 41.7251ZM138.781 35.6158H135.762C135.722 35.3059 135.639 35.0262 135.515 34.7766C135.39 34.5271 135.225 34.3138 135.02 34.1367C134.814 33.9596 134.571 33.8248 134.289 33.7322C134.012 33.6357 133.704 33.5874 133.366 33.5874C132.766 33.5874 132.249 33.7343 131.814 34.0281C131.383 34.3218 131.051 34.7464 130.818 35.3018C130.589 35.8572 130.474 36.5294 130.474 37.3182C130.474 38.1392 130.591 38.8274 130.824 39.3828C131.061 39.9342 131.393 40.3507 131.82 40.6325C132.251 40.9102 132.76 41.049 133.347 41.049C133.677 41.049 133.977 41.0067 134.247 40.9222C134.521 40.8377 134.76 40.715 134.965 40.554C135.175 40.389 135.346 40.1897 135.478 39.9563C135.615 39.7189 135.71 39.4512 135.762 39.1534L138.781 39.1715C138.728 39.7189 138.569 40.2582 138.304 40.7894C138.042 41.3207 137.682 41.8056 137.223 42.2443C136.764 42.679 136.205 43.0251 135.545 43.2827C134.889 43.5402 134.136 43.669 133.287 43.669C132.168 43.669 131.166 43.4235 130.281 42.9325C129.399 42.4375 128.703 41.7171 128.192 40.7713C127.681 39.8255 127.425 38.6745 127.425 37.3182C127.425 35.9579 127.685 34.8048 128.204 33.859C128.723 32.9132 129.425 32.1948 130.311 31.7038C131.196 31.2128 132.188 30.9673 133.287 30.9673C134.036 30.9673 134.728 31.072 135.364 31.2812C136 31.4865 136.559 31.7884 137.042 32.1868C137.525 32.5812 137.917 33.0662 138.219 33.6417C138.521 34.2172 138.708 34.8752 138.781 35.6158ZM144.819 43.6751C143.845 43.6751 143.008 43.4758 142.308 43.0774C141.611 42.6749 141.074 42.1155 140.696 41.3991C140.322 40.6787 140.134 39.8436 140.134 38.8938C140.134 37.94 140.322 37.1049 140.696 36.3885C141.074 35.6681 141.611 35.1087 142.308 34.7102C143.008 34.3078 143.845 34.1065 144.819 34.1065C145.793 34.1065 146.628 34.3078 147.324 34.7102C148.025 35.1087 148.562 35.6681 148.936 36.3885C149.315 37.1049 149.504 37.94 149.504 38.8938C149.504 39.8436 149.315 40.6787 148.936 41.3991C148.562 42.1155 148.025 42.6749 147.324 43.0774C146.628 43.4758 145.793 43.6751 144.819 43.6751ZM144.837 41.4474C145.191 41.4474 145.491 41.3388 145.737 41.1214C145.982 40.9041 146.169 40.6023 146.298 40.2159C146.431 39.8295 146.497 39.3828 146.497 38.8757C146.497 38.3606 146.431 37.9098 146.298 37.5234C146.169 37.1371 145.982 36.8352 145.737 36.6179C145.491 36.4006 145.191 36.2919 144.837 36.2919C144.471 36.2919 144.161 36.4006 143.908 36.6179C143.658 36.8352 143.467 37.1371 143.334 37.5234C143.205 37.9098 143.141 38.3606 143.141 38.8757C143.141 39.3828 143.205 39.8295 143.334 40.2159C143.467 40.6023 143.658 40.9041 143.908 41.1214C144.161 41.3388 144.471 41.4474 144.837 41.4474ZM153.968 38.2116V43.5H151.016V34.2273H153.823V35.9297H153.926C154.131 35.3622 154.481 34.9175 154.976 34.5955C155.471 34.2695 156.061 34.1065 156.745 34.1065C157.397 34.1065 157.963 34.2534 158.441 34.5472C158.924 34.837 159.299 35.2435 159.564 35.7667C159.834 36.2859 159.967 36.8936 159.963 37.5898V43.5H157.011V38.1694C157.015 37.6542 156.884 37.2518 156.618 36.962C156.357 36.6722 155.992 36.5273 155.526 36.5273C155.216 36.5273 154.942 36.5958 154.705 36.7326C154.471 36.8654 154.29 37.0566 154.161 37.3061C154.037 37.5556 153.972 37.8575 153.968 38.2116ZM165.419 43.5V41.3508L169.928 37.4027C170.266 37.0968 170.554 36.8171 170.792 36.5636C171.029 36.306 171.21 36.0484 171.335 35.7908C171.46 35.5292 171.522 35.2455 171.522 34.9396C171.522 34.5975 171.448 34.3058 171.299 34.0643C171.15 33.8188 170.944 33.6296 170.683 33.4968C170.421 33.364 170.121 33.2976 169.783 33.2976C169.441 33.2976 169.141 33.368 168.884 33.5089C168.626 33.6457 168.425 33.8449 168.28 34.1065C168.139 34.3681 168.069 34.6861 168.069 35.0604H165.238C165.238 34.2192 165.427 33.4928 165.805 32.881C166.183 32.2693 166.715 31.7984 167.399 31.4684C168.087 31.1344 168.886 30.9673 169.795 30.9673C170.733 30.9673 171.548 31.1243 172.24 31.4382C172.933 31.7521 173.468 32.1908 173.846 32.7543C174.229 33.3137 174.42 33.9637 174.42 34.7042C174.42 35.1751 174.325 35.6419 174.136 36.1048C173.947 36.5676 173.607 37.0787 173.116 37.6381C172.629 38.1976 171.937 38.8677 171.039 39.6484L169.56 41.0128V41.0913H174.571V43.5H165.419ZM181.373 43.8018C180.294 43.8018 179.364 43.5463 178.584 43.0352C177.803 42.52 177.201 41.7815 176.779 40.8196C176.356 39.8537 176.147 38.6926 176.151 37.3363C176.155 35.98 176.366 34.829 176.785 33.8832C177.207 32.9334 177.807 32.2109 178.584 31.7159C179.364 31.2169 180.294 30.9673 181.373 30.9673C182.451 30.9673 183.381 31.2169 184.162 31.7159C184.947 32.2109 185.55 32.9334 185.973 33.8832C186.395 34.833 186.605 35.984 186.601 37.3363C186.601 38.6966 186.389 39.8597 185.967 40.8256C185.544 41.7915 184.943 42.5301 184.162 43.0412C183.385 43.5483 182.455 43.8018 181.373 43.8018ZM181.373 41.3569C182.017 41.3569 182.538 41.0289 182.936 40.3729C183.335 39.7128 183.532 38.7006 183.528 37.3363C183.528 36.4428 183.437 35.7063 183.256 35.1268C183.075 34.5432 182.824 34.1085 182.502 33.8228C182.18 33.537 181.803 33.3942 181.373 33.3942C180.733 33.3942 180.216 33.7182 179.821 34.3661C179.427 35.0101 179.228 36.0001 179.224 37.3363C179.22 38.2418 179.306 38.9924 179.483 39.5881C179.664 40.1837 179.918 40.6284 180.244 40.9222C180.57 41.212 180.946 41.3569 181.373 41.3569ZM188.312 43.5V41.3508L192.822 37.4027C193.16 37.0968 193.448 36.8171 193.685 36.5636C193.923 36.306 194.104 36.0484 194.228 35.7908C194.353 35.5292 194.416 35.2455 194.416 34.9396C194.416 34.5975 194.341 34.3058 194.192 34.0643C194.043 33.8188 193.838 33.6296 193.576 33.4968C193.315 33.364 193.015 33.2976 192.677 33.2976C192.335 33.2976 192.035 33.368 191.777 33.5089C191.52 33.6457 191.319 33.8449 191.174 34.1065C191.033 34.3681 190.962 34.6861 190.962 35.0604H188.131C188.131 34.2192 188.32 33.4928 188.699 32.881C189.077 32.2693 189.608 31.7984 190.292 31.4684C190.981 31.1344 191.779 30.9673 192.689 30.9673C193.627 30.9673 194.442 31.1243 195.134 31.4382C195.826 31.7521 196.361 32.1908 196.74 32.7543C197.122 33.3137 197.313 33.9637 197.313 34.7042C197.313 35.1751 197.219 35.6419 197.03 36.1048C196.84 36.5676 196.5 37.0787 196.009 37.6381C195.522 38.1976 194.83 38.8677 193.933 39.6484L192.454 41.0128V41.0913H197.464V43.5H188.312ZM204.87 31.1364V43.5H201.888V33.9254H201.815L199.05 35.6158V33.032L202.099 31.1364H204.87ZM217.487 28.965H223.267V31.175H219.918V39.76H217.487V28.965ZM224.406 42.735H240.029V44.656H224.406V42.735ZM224.508 31.991H239.893V33.895H224.508V31.991ZM225.664 40.338H238.907V42.174H225.664V40.338ZM230.866 30.716H233.348V43.721H230.866V30.716ZM237.292 28.931L238.38 30.835C237.518 30.971 236.589 31.09 235.592 31.192C234.594 31.2827 233.569 31.362 232.515 31.43C231.461 31.4867 230.401 31.532 229.336 31.566C228.282 31.6 227.262 31.617 226.276 31.617C226.264 31.3337 226.202 31.0107 226.089 30.648C225.987 30.2853 225.885 29.9793 225.783 29.73C226.78 29.7073 227.794 29.679 228.826 29.645C229.868 29.5997 230.894 29.543 231.903 29.475C232.911 29.407 233.875 29.3277 234.793 29.237C235.711 29.1463 236.544 29.0443 237.292 28.931ZM228.639 37.788V38.247H235.745V37.788H228.639ZM228.639 35.901V36.36H235.745V35.901H228.639ZM226.225 34.32H238.278V39.828H226.225V34.32ZM247.73 28.982H250.501V43.058H247.73V28.982ZM253.51 37.533H256.298V45.115H253.51V37.533ZM242.902 30.359H245.537V34.354H252.847V30.342H255.618V36.751H242.902V30.359ZM241.95 37.55H244.738V41.749H254.768V44.214H241.95V37.55ZM259.273 30.971L260.701 29.22C261.007 29.3787 261.352 29.5657 261.738 29.781C262.123 29.9963 262.503 30.2117 262.877 30.427C263.251 30.6423 263.557 30.835 263.795 31.005L262.282 32.96C262.066 32.7787 261.783 32.5747 261.432 32.348C261.08 32.11 260.712 31.872 260.327 31.634C259.941 31.3847 259.59 31.1637 259.273 30.971ZM258.219 35.697L259.545 33.861C259.851 33.997 260.208 34.167 260.616 34.371C261.024 34.5637 261.426 34.7563 261.823 34.949C262.219 35.1417 262.542 35.3173 262.792 35.476L261.415 37.533C261.188 37.363 260.888 37.1703 260.514 36.955C260.14 36.7397 259.749 36.5187 259.341 36.292C258.933 36.0653 258.559 35.867 258.219 35.697ZM258.831 43.262C259.137 42.8427 259.471 42.3497 259.834 41.783C260.196 41.205 260.57 40.5873 260.956 39.93C261.341 39.2727 261.704 38.6153 262.044 37.958L263.863 39.607C263.568 40.1963 263.256 40.797 262.928 41.409C262.599 42.0097 262.265 42.6047 261.925 43.194C261.596 43.7833 261.256 44.3613 260.905 44.928L258.831 43.262ZM263.846 30.291H273.57V32.773H263.846V30.291ZM262.843 41.664H274.25V44.146H262.843V41.664ZM267.195 31.141H269.898V43.075H267.195V31.141ZM281.067 29.56H283.311V37.669H281.067V29.56ZM279.078 32.144H285.062V34.371H279.078V32.144ZM286.49 29.492H289.788V31.668H286.49V29.492ZM286.49 33.504H289.873V35.663H286.49V33.504ZM286.49 37.516H289.873V39.675H286.49V37.516ZM279.503 36.7H281.594V43.823H279.503V36.7ZM280.591 36.7H284.824V42.769H280.591V40.661H282.699V38.808H280.591V36.7ZM285.453 29.492H287.595V36.309C287.595 37.0003 287.566 37.7427 287.51 38.536C287.464 39.3293 287.368 40.1283 287.221 40.933C287.073 41.7377 286.858 42.5083 286.575 43.245C286.291 43.9817 285.912 44.6333 285.436 45.2C285.311 45.0753 285.135 44.9337 284.909 44.775C284.682 44.6163 284.45 44.4633 284.212 44.316C283.974 44.1687 283.77 44.0553 283.6 43.976C284.03 43.4547 284.37 42.8823 284.62 42.259C284.869 41.6243 285.05 40.967 285.164 40.287C285.288 39.607 285.368 38.927 285.402 38.247C285.436 37.567 285.453 36.921 285.453 36.309V29.492ZM288.7 29.492H290.893V42.667C290.893 43.1317 290.842 43.5113 290.74 43.806C290.638 44.1007 290.439 44.3387 290.145 44.52C289.861 44.7013 289.533 44.8147 289.159 44.86C288.785 44.9167 288.348 44.9393 287.85 44.928C287.804 44.6447 287.714 44.299 287.578 43.891C287.442 43.4943 287.294 43.1657 287.136 42.905C287.396 42.9163 287.651 42.9277 287.901 42.939C288.15 42.939 288.326 42.939 288.428 42.939C288.53 42.9277 288.598 42.905 288.632 42.871C288.677 42.8257 288.7 42.7463 288.7 42.633V29.492ZM275.712 30.92L277.055 29.169C277.361 29.2823 277.684 29.424 278.024 29.594C278.375 29.764 278.704 29.9453 279.01 30.138C279.327 30.3193 279.582 30.5007 279.775 30.682L278.347 32.603C278.165 32.4217 277.927 32.229 277.633 32.025C277.338 31.821 277.021 31.6227 276.681 31.43C276.341 31.226 276.018 31.056 275.712 30.92ZM275.1 35.408L276.426 33.64C276.732 33.7533 277.049 33.8893 277.378 34.048C277.718 34.2067 278.041 34.3767 278.347 34.558C278.664 34.7393 278.919 34.915 279.112 35.085L277.701 37.023C277.531 36.853 277.298 36.6717 277.004 36.479C276.709 36.275 276.392 36.0823 276.052 35.901C275.723 35.7083 275.406 35.544 275.1 35.408ZM275.304 43.704C275.519 43.2507 275.746 42.7293 275.984 42.14C276.233 41.5393 276.482 40.9047 276.732 40.236C276.992 39.556 277.23 38.876 277.446 38.196L279.435 39.471C279.253 40.083 279.061 40.7007 278.857 41.324C278.653 41.9473 278.437 42.565 278.211 43.177C277.995 43.7777 277.774 44.367 277.548 44.945L275.304 43.704ZM297.897 45.115H292.117V42.905H295.466V34.32H297.897V45.115Z" fill="black"/>
</g>
<path d="M329.449 8.66923C329.722 10.2293 330.11 11.2992 330.775 12.2882C331.223 12.9574 331.717 13.4177 332.301 13.7076C332.957 14.0401 333.507 14.1381 333.725 13.9676C333.784 13.9207 333.878 13.8824 333.938 13.8824C334.134 13.8824 334.151 13.8099 334.125 13.0853C334.104 12.3265 334.027 11.9685 333.78 11.4271C333.196 10.1739 331.981 9.16369 329.927 8.23871C329.637 8.10657 329.385 8.00001 329.368 8.00001C329.351 8.00001 329.385 8.30265 329.449 8.66923Z" fill="black"/>
<path d="M335.916 9.75624C334.837 11.7852 334.492 13.4562 334.884 14.7946C335.153 15.7238 335.933 16.8662 336.291 16.8662C336.491 16.8662 336.943 16.2695 337.275 15.5661C337.565 14.9566 337.651 14.5431 337.655 13.7545C337.655 12.902 337.518 12.2498 337.139 11.2737C336.964 10.8176 336.282 9.42802 336.206 9.36408C336.163 9.32998 336.095 9.42376 335.916 9.75624Z" fill="black"/>
<path d="M330.259 13.486C330.259 13.503 330.345 13.827 330.451 14.2021C331.184 16.781 332.51 18.5457 333.993 18.9293C334.68 19.1041 335.055 19.0998 335.212 18.9165C335.251 18.8696 335.353 18.8185 335.438 18.8014C335.524 18.7886 335.605 18.746 335.617 18.7119C335.63 18.6821 335.617 18.4476 335.592 18.1919C335.447 16.7895 334.91 15.8816 333.703 14.9864C332.885 14.3769 332.054 14.006 330.357 13.4817C330.302 13.4647 330.259 13.4647 330.259 13.486Z" fill="black"/>
<path d="M338.763 15.6513C337.804 16.8704 337.271 17.8124 337.011 18.763C336.879 19.2361 336.828 20.127 336.905 20.5405C337.015 21.133 337.292 21.815 337.625 22.318C337.77 22.5396 337.778 22.5439 337.94 22.5226C338.179 22.4885 338.401 22.3265 338.708 21.9599C339.296 21.2523 339.633 20.5746 339.816 19.7221C339.935 19.185 339.94 18.1534 339.833 17.4842C339.697 16.6402 339.3 15.1185 339.215 15.1185C339.194 15.1185 338.993 15.3572 338.763 15.6513Z" fill="black"/>
<path d="M333.132 18.8994C333.145 19.0145 333.166 19.3811 333.179 19.7221C333.256 21.5635 333.605 22.804 334.356 23.9037C334.82 24.5814 335.592 25.191 336.223 25.3743C336.431 25.4382 336.466 25.4382 336.598 25.3743C336.674 25.3359 336.785 25.3061 336.841 25.3061C336.9 25.3061 336.956 25.272 336.973 25.2294C337.045 25.0375 337.131 24.5175 337.152 24.1126C337.224 22.7102 336.581 21.4186 335.212 20.2208C334.466 19.5687 333.294 18.6991 333.166 18.6991C333.128 18.6991 333.119 18.7545 333.132 18.8994Z" fill="black"/>
<path d="M340.992 21.6573C339.253 22.6974 338.264 23.6309 337.736 24.7306C337.437 25.3615 337.399 25.5533 337.403 26.4357C337.408 27.0452 337.425 27.2669 337.489 27.5226C337.565 27.8253 337.578 27.8423 337.697 27.8551C337.77 27.8636 337.842 27.8892 337.868 27.9105C338.013 28.0512 338.618 27.838 339.147 27.4629C339.867 26.9472 340.583 25.9242 340.95 24.8798C341.197 24.1637 341.397 23.145 341.448 22.3223C341.461 22.1006 341.483 21.798 341.495 21.6488C341.504 21.5039 341.5 21.3845 341.483 21.3845C341.465 21.3845 341.244 21.5081 340.992 21.6573Z" fill="black"/>
<path d="M333.396 23.7758C333.35 23.9165 333.158 24.9395 333.09 25.4126C332.992 26.0946 332.992 27.237 333.085 27.7613C333.273 28.8014 333.703 29.6454 334.415 30.3572C334.91 30.8559 335.072 30.954 335.391 30.954H335.651L335.766 30.7409C335.967 30.3785 336.176 29.6667 336.231 29.1594C336.372 27.8636 335.818 26.4527 334.564 24.931C334.074 24.3385 333.426 23.6906 333.396 23.7758Z" fill="black"/>
<path d="M341.521 27.5013C340.191 27.7144 339.168 28.0043 338.499 28.3495C337.544 28.844 336.845 29.5985 336.449 30.5533C336.308 30.89 336.116 31.7425 336.154 31.8491C336.167 31.8789 336.257 31.9301 336.346 31.9557C336.444 31.9812 336.547 32.0452 336.585 32.1006C336.687 32.2583 336.909 32.3137 337.352 32.2839C338.746 32.1901 339.863 31.3973 341.031 29.6709C341.466 29.023 342.284 27.3862 342.165 27.399C342.148 27.4032 341.858 27.4459 341.521 27.5013Z" fill="black"/>
<path d="M332.335 28.9548C332.288 29.04 331.964 30.0886 331.866 30.485C331.628 31.4271 331.602 31.6317 331.606 32.5524C331.606 33.3623 331.615 33.456 331.721 33.8439C331.917 34.5686 332.382 35.3785 332.936 35.9454C333.235 36.2523 333.392 36.3461 333.605 36.3461C333.763 36.3461 333.789 36.329 333.921 36.1287C334.275 35.5873 334.526 34.8883 334.611 34.219C334.769 32.9232 334.16 31.2651 332.898 29.5899C332.472 29.0187 332.369 28.9036 332.335 28.9548Z" fill="black"/>
<path d="M329.743 32.7314C329.159 33.8141 328.823 34.6922 328.639 35.5831C328.516 36.167 328.537 37.1261 328.678 37.6248C328.929 38.5115 329.731 39.7135 330.063 39.7135C330.178 39.7135 330.553 39.3 330.809 38.8823C331.078 38.456 331.299 37.9317 331.402 37.4884C331.508 37.0196 331.495 35.9028 331.38 35.3657C331.269 34.8755 331.069 34.2361 330.869 33.7459C330.702 33.3367 330.208 32.3137 330.123 32.1986C330.072 32.1346 330.029 32.1943 329.743 32.7314Z" fill="black"/>
<path d="M339.893 32.1986C339.334 32.2327 338.52 32.3435 338.132 32.4416C336.717 32.8039 335.613 33.682 335.076 34.8755C334.974 35.1057 334.735 35.792 334.735 35.8602C334.735 35.8687 334.837 35.9241 334.961 35.9795C335.08 36.0349 335.225 36.1372 335.276 36.2054C335.408 36.393 335.685 36.4484 336.308 36.4185C337.403 36.3674 338.32 35.9156 339.3 34.9437C339.871 34.3725 340.361 33.7374 340.83 32.9488C341.052 32.5822 341.252 32.254 341.269 32.2242C341.295 32.1816 341.184 32.1688 340.715 32.1773C340.391 32.1816 340.02 32.1901 339.893 32.1986Z" fill="black"/>
<path d="M326.913 35.7152C325.319 37.2583 324.59 38.4944 324.479 39.8329C324.428 40.4509 324.611 41.3418 324.923 41.9727L325.08 42.2924H325.336C325.558 42.2924 325.622 42.271 325.805 42.1432C326.5 41.6658 327.212 40.6513 327.501 39.7348C327.736 38.9803 327.766 38.7502 327.766 37.5822C327.766 36.653 327.749 36.4015 327.663 35.8559C327.608 35.5021 327.548 35.1994 327.531 35.1824C327.514 35.1611 327.233 35.3998 326.913 35.7152Z" fill="black"/>
<path d="M335.067 36.6701C333.853 36.8577 333.171 37.1561 332.506 37.7912C332.156 38.1237 331.913 38.4348 331.649 38.8867C331.376 39.3598 331.376 39.3513 331.666 39.5346C331.807 39.6198 331.934 39.7264 331.947 39.7648C332.054 40.1015 333.094 40.3402 333.946 40.2294C334.419 40.1654 335.123 39.9353 335.545 39.7051C336.376 39.2533 337.412 38.4135 337.732 37.9404C337.838 37.7784 338.064 37.4971 338.23 37.3095C338.396 37.1262 338.524 36.9685 338.516 36.96C338.507 36.9515 338.23 36.896 337.906 36.8364C336.521 36.5934 335.809 36.5508 335.067 36.6701Z" fill="black"/>
<path d="M323.333 39.0273C321.056 39.5516 319.714 40.2635 318.963 41.3547C318.601 41.8832 318.303 42.7613 318.252 43.4476L318.226 43.7929L318.375 43.8227C318.46 43.8355 318.588 43.908 318.665 43.9804L318.801 44.1168L319.236 44.0955C319.957 44.0614 320.647 43.7801 321.316 43.2515C321.9 42.7912 322.685 41.7596 323.196 40.7792C323.414 40.37 323.865 39.2788 323.934 39.0145C323.968 38.8781 323.985 38.8781 323.333 39.0273Z" fill="black"/>
<path d="M330.195 40.2719C329.466 40.3742 328.639 40.7706 328.064 41.3034C327.744 41.5933 327.318 42.0963 327.318 42.1773C327.318 42.2028 327.433 42.3222 327.574 42.4458C327.714 42.5694 327.842 42.7144 327.855 42.7698C327.906 42.9658 328.362 43.2259 328.968 43.4049C330.008 43.7075 331.223 43.5157 332.569 42.8337C333.345 42.4416 333.716 42.1943 333.865 41.9684C333.934 41.8661 334.159 41.6487 334.364 41.4825C334.616 41.2821 334.718 41.1756 334.679 41.1543C334.65 41.1372 334.317 41.0093 333.942 40.8687C333.166 40.5831 332.582 40.4126 332.054 40.3273C331.572 40.2506 330.57 40.2208 330.195 40.2719Z" fill="black"/>
<path d="M324.658 42.8934C324.27 42.9787 323.874 43.1321 323.482 43.341C323.102 43.5456 322.676 43.8525 322.672 43.9165C322.672 43.942 322.783 44.1168 322.919 44.3086C323.051 44.5004 323.209 44.7349 323.269 44.8329C323.46 45.1483 324.1 45.6215 324.624 45.8346C325.617 46.2353 326.798 46.2481 328.277 45.8772C328.959 45.7025 329.151 45.6172 329.232 45.451C329.27 45.3657 329.368 45.2975 329.573 45.208C329.726 45.1398 329.91 45.0588 329.978 45.029L330.102 44.9736L329.65 44.6454C328.316 43.6735 327.497 43.2387 326.466 42.9702C325.937 42.8295 325.093 42.7954 324.658 42.8934Z" fill="black"/>
<path d="M319.283 44.688C319.121 44.7221 318.84 44.8073 318.665 44.8755C318.35 44.9949 317.71 45.3359 317.612 45.4382C317.535 45.5149 318.162 46.5209 318.495 46.8619C318.968 47.3478 319.56 47.6846 320.306 47.8849C320.707 47.9915 320.788 48 321.67 48C322.463 48 322.689 47.9872 323.141 47.902C323.759 47.7911 324.036 47.6846 324.036 47.5652C324.036 47.4714 324.181 47.3905 324.569 47.2754C324.709 47.2327 324.837 47.1858 324.859 47.1731C324.893 47.1432 324.01 46.3717 323.49 45.9795C322.552 45.2805 321.649 44.8457 320.796 44.6837C320.362 44.5985 319.68 44.6027 319.283 44.688Z" fill="black"/>
<defs>
<filter id="filter0_d_17_2298" x="87.0057" y="3.9" width="228.2" height="48.2" filterUnits="userSpaceOnUse" color-interpolation-filters="sRGB">
<feFlood flood-opacity="0" result="BackgroundImageFix"/>
<feColorMatrix in="SourceAlpha" type="matrix" values="0 0 0 0 0 0 0 0 0 0 0 0 0 0 0 0 0 0 127 0" result="hardAlpha"/>
<feOffset/>
<feGaussianBlur stdDeviation="2.8"/>
<feComposite in2="hardAlpha" operator="out"/>
<feColorMatrix type="matrix" values="0 0 0 0 0 0 0 0 0 0 0 0 0 0 0 0 0 0 0.25 0"/>
<feBlend mode="normal" in2="BackgroundImageFix" result="effect1_dropShadow_17_2298"/>
<feBlend mode="normal" in="SourceGraphic" in2="effect1_dropShadow_17_2298" result="shape"/>
</filter>
<linearGradient id="paint0_linear_17_2298" x1="177.088" y1="0" x2="177.088" y2="56" gradientUnits="userSpaceOnUse">
<stop stop-color="#73E280"/>
<stop offset="1" stop-color="#11A304"/>
</linearGradient>
</defs>
</svg>
