<svg width="318" height="56" viewBox="0 0 318 56" fill="none" xmlns="http://www.w3.org/2000/svg">
<rect width="317.176" height="56" rx="8" fill="url(#paint0_linear_17_540)"/>
<rect x="1.05" y="1.05" width="315.076" height="53.9" rx="6.95" stroke="white" stroke-opacity="0.15" stroke-width="2.1"/>
<path d="M24.3711 8.18349C22.3163 9.10429 21.0588 10.1061 20.4577 11.2997C20.1763 11.8624 20.0186 12.5829 20.0271 13.2521C20.0356 13.768 20.0612 13.8532 20.2147 13.8703C20.2829 13.8788 20.3852 13.9214 20.4406 13.9683C20.6538 14.1346 21.2122 14.0323 21.8602 13.704C23.0325 13.1157 23.9874 11.6962 24.4947 9.78636C24.5927 9.41548 24.84 8.14939 24.84 8.01297C24.84 7.97887 24.7718 8.00445 24.3711 8.18349Z" fill="white"/>
<path d="M17.7252 9.79914C16.3184 12.4379 16.1394 14.3477 17.1497 16.0529C17.3969 16.4707 17.6868 16.8117 17.8317 16.8458C17.9895 16.8884 18.2069 16.7222 18.501 16.3257C19.814 14.5779 19.7842 12.8045 18.3902 10.008C18.2026 9.62862 18.0321 9.31743 18.0151 9.31743C17.998 9.31743 17.8658 9.53484 17.7252 9.79914Z" fill="white"/>
<path d="M23.3565 13.623C22.4954 13.9 22.035 14.0876 21.4723 14.3775C20.3085 14.9786 19.4474 15.7587 19.0211 16.607C18.744 17.1569 18.5735 17.8816 18.5735 18.504V18.7726L18.727 18.7982C18.8079 18.8152 18.9103 18.8664 18.9486 18.9133C19.0765 19.0582 19.3025 19.0923 19.7245 19.0198C20.5259 18.8792 21.0588 18.6063 21.6556 18.0266C22.5721 17.1399 23.2499 15.8738 23.7359 14.1686C23.8297 13.8318 23.915 13.5334 23.9235 13.5036C23.9491 13.4354 23.9533 13.4311 23.3565 13.623Z" fill="white"/>
<path d="M14.7453 15.7417C14.0036 18.3548 14.1101 20.0344 15.1077 21.4966C15.5638 22.1702 15.9773 22.5325 16.2842 22.5325C16.3823 22.5325 16.4334 22.4814 16.5997 22.2213C16.7105 22.0551 16.8768 21.7439 16.9663 21.535C17.7379 19.7488 17.269 17.9712 15.4189 15.6479C15.1844 15.3537 14.9755 15.115 14.9585 15.115C14.9371 15.115 14.8391 15.3964 14.7453 15.7417Z" fill="white"/>
<path d="M20.5131 19.0028C19.3578 19.8298 18.3816 20.7123 17.8999 21.3602C17.6186 21.7396 17.2775 22.4174 17.1667 22.8309C16.9876 23.496 16.9834 24.2718 17.1454 25.0008C17.2093 25.2736 17.2264 25.3035 17.3159 25.3035C17.3756 25.3035 17.4864 25.3333 17.5631 25.3717C17.6953 25.4356 17.7294 25.4356 17.9383 25.3717C18.5436 25.1926 19.3067 24.6086 19.7756 23.9521C20.658 22.7286 20.965 21.4668 21.046 18.7257C21.046 18.649 20.9095 18.7215 20.5131 19.0028Z" fill="white"/>
<path d="M12.7077 21.9656C12.7801 23.351 13.0402 24.5575 13.475 25.4953C13.8203 26.2371 14.4725 27.0683 15.0139 27.4563C15.5425 27.8357 16.1947 28.0616 16.2928 27.9039C16.3056 27.8783 16.3738 27.8612 16.442 27.8612C16.5955 27.8612 16.6253 27.8101 16.7234 27.3497C16.8385 26.8168 16.8257 25.8704 16.702 25.41C16.3908 24.2548 15.4828 23.1677 13.9865 22.1574C13.6668 21.9443 12.7375 21.3816 12.7034 21.3816C12.6906 21.3816 12.6906 21.6459 12.7077 21.9656Z" fill="white"/>
<path d="M20.381 24.0757C19.6094 24.8686 19.1191 25.5081 18.582 26.4118C18.2367 26.9958 17.9809 27.8527 17.9468 28.5518C17.9084 29.3149 18.0534 30.0225 18.3902 30.6918L18.5351 30.9817L18.7866 30.9646C18.9742 30.9518 19.0808 30.9135 19.2172 30.8197C19.9376 30.3252 20.6495 29.3319 20.9309 28.4324C21.2634 27.3752 21.2506 25.9898 20.8882 24.2675C20.8286 23.9691 20.7646 23.7262 20.7518 23.7262C20.7348 23.7262 20.5685 23.8839 20.381 24.0757Z" fill="white"/>
<path d="M12.0213 27.4946C12.0639 27.6822 12.648 28.8886 12.8824 29.2723C14.0633 31.2162 15.3251 32.1839 16.8086 32.2819C17.2477 32.3117 17.4736 32.2563 17.5759 32.1029C17.61 32.0474 17.7209 31.9835 17.836 31.9537L18.0321 31.8982L18.0022 31.6126C17.9426 30.9433 17.5802 30.0822 17.1241 29.5067C16.2587 28.4239 14.9627 27.8527 12.5286 27.4818L12 27.4051L12.0213 27.4946Z" fill="white"/>
<path d="M21.468 29.3447C19.5625 31.7874 19.0936 33.8336 20.0101 35.6965C20.0954 35.867 20.219 36.0844 20.2829 36.174C20.3895 36.3189 20.4321 36.3445 20.56 36.3445C20.7774 36.3445 20.9053 36.2635 21.2677 35.8841C22.6062 34.4816 22.9302 32.7849 22.3036 30.4232C22.1416 29.8264 21.856 28.927 21.8219 28.927C21.8048 28.927 21.6471 29.1145 21.468 29.3447Z" fill="white"/>
<path d="M23.7572 32.7721C22.5636 35.1977 22.376 36.8987 23.1348 38.4546C23.51 39.2305 23.9491 39.7548 24.1707 39.6951C24.3029 39.661 24.5842 39.3712 24.8144 39.0344C25.8759 37.4486 25.91 35.9608 24.9381 33.7441C24.7292 33.2666 24.1324 32.1242 24.094 32.1242C24.0855 32.1242 23.9363 32.4183 23.7572 32.7721Z" fill="white"/>
<path d="M12.9037 32.1796C12.9037 32.1924 13.0146 32.3927 13.1553 32.6229C13.2917 32.8531 13.4835 33.1814 13.5816 33.3519C13.9865 34.051 14.9969 35.1679 15.632 35.6155C16.3738 36.1399 17.0559 36.3829 17.8701 36.417C18.4882 36.4425 18.7056 36.3956 18.8932 36.1953C18.9614 36.1143 19.1149 36.012 19.2257 35.9651C19.3365 35.9182 19.4261 35.85 19.4261 35.8201C19.4261 35.6965 19.2001 35.0784 19.0424 34.7587C18.6374 33.9444 18.1514 33.4286 17.3713 32.981C16.6594 32.5718 16.0583 32.3842 15.0992 32.2734C14.5279 32.2052 12.9037 32.1327 12.9037 32.1796Z" fill="white"/>
<path d="M26.6134 35.266C26.4727 35.9651 26.4045 36.6898 26.4003 37.5595C26.396 38.7829 26.5196 39.4693 26.8905 40.2963C27.1889 40.9655 27.8539 41.8011 28.3569 42.1421C28.5275 42.2615 28.6212 42.2913 28.8344 42.3041L29.0987 42.3212L29.201 42.1165C29.6912 41.1446 29.8277 39.9424 29.5506 39.0089C29.3374 38.2884 28.9751 37.6404 28.3484 36.8561C28.0713 36.5065 26.7328 35.1509 26.6688 35.1509C26.6518 35.1509 26.6262 35.202 26.6134 35.266Z" fill="white"/>
<path d="M17.2093 36.6855C16.9152 36.7282 16.4505 36.8006 16.1692 36.8518C15.8921 36.8987 15.6576 36.9413 15.6448 36.9413C15.6363 36.9413 15.7855 37.1204 15.9773 37.3378C16.1692 37.5552 16.378 37.828 16.442 37.9474C16.5145 38.0795 16.7148 38.2969 16.9791 38.5314C18.6289 39.9936 20.1593 40.5179 21.6215 40.13C21.9327 40.049 21.9838 40.0192 22.197 39.8018C22.3249 39.6696 22.5039 39.5247 22.5934 39.4778C22.7895 39.3755 22.7853 39.3328 22.5337 38.8852C21.9241 37.8067 21.0119 37.0948 19.895 36.822C18.9657 36.5918 18.1472 36.5534 17.2093 36.6855Z" fill="white"/>
<path d="M30.2113 38.9193C30.2113 39.0216 30.7911 40.4071 30.9999 40.8078C32.0913 42.9052 33.4298 44.0221 34.9261 44.0945L35.3567 44.1116L35.4888 43.9837C35.5656 43.9112 35.6935 43.8387 35.7745 43.8217C35.8554 43.8089 35.9364 43.7791 35.945 43.7577C35.9578 43.7407 35.945 43.5446 35.9194 43.3272C35.8299 42.5812 35.557 41.8437 35.1819 41.3151C34.9474 40.9826 34.406 40.4668 34.048 40.2323C33.3531 39.7719 32.3001 39.3669 31.0213 39.0685C30.2966 38.9022 30.2113 38.8852 30.2113 38.9193Z" fill="white"/>
<path d="M22.5508 40.2664C22.0392 40.3218 21.566 40.4241 20.982 40.6117C20.3298 40.8206 19.4943 41.1446 19.4815 41.1915C19.4772 41.2085 19.6392 41.3492 19.8396 41.4984C20.0655 41.6689 20.2275 41.8266 20.2573 41.9034C20.3298 42.0782 20.4449 42.1762 20.8584 42.432C22.0947 43.1951 23.3266 43.5872 24.3498 43.5361C25.1555 43.4935 26.0549 43.1609 26.2681 42.8242C26.3235 42.7389 26.4855 42.5599 26.6347 42.4277L26.9033 42.1933L26.7242 41.9588C26.1189 41.1574 25.2535 40.5691 24.3668 40.3517C23.949 40.2494 23.0837 40.211 22.5508 40.2664Z" fill="white"/>
<path d="M27.9733 42.9051C27.1122 43.0885 26.2468 43.4721 25.3388 44.0775C24.3583 44.7339 23.9959 45.0409 24.2048 45.0409C24.2304 45.0409 24.3881 45.1048 24.5629 45.1858C24.7889 45.2881 24.8912 45.3649 24.9295 45.4501C25.0105 45.6164 25.2024 45.7016 25.8844 45.8764C27.3424 46.243 28.472 46.2345 29.4909 45.8551C30.0195 45.6547 30.6675 45.1773 30.919 44.7979C31.0085 44.6657 31.1833 44.4142 31.3069 44.2352C31.5755 43.8643 31.5883 43.9069 31.0852 43.5702C30.6845 43.3016 30.2667 43.1098 29.8063 42.9691C29.2863 42.8156 28.536 42.79 27.9733 42.9051Z" fill="white"/>
<path d="M33.2167 44.7169C32.6114 44.8619 32.1552 45.0537 31.4305 45.4757C30.8593 45.8082 29.2649 47.0957 29.3374 47.1681C29.3545 47.1809 29.5335 47.2491 29.7339 47.3216C30.0451 47.4282 30.109 47.4665 30.1175 47.5475C30.1388 47.6925 30.3861 47.7863 31.0213 47.9056C31.4732 47.9866 31.6948 48.0037 32.492 47.9994C33.3744 47.9994 33.4554 47.9909 33.8561 47.8843C34.9602 47.5859 35.6338 47.0743 36.2647 46.064C36.4523 45.7613 36.6057 45.497 36.6057 45.48C36.6057 45.3862 35.7063 44.9301 35.199 44.7638C34.892 44.6615 34.7471 44.6445 34.2398 44.6317C33.724 44.6189 33.5833 44.6274 33.2167 44.7169Z" fill="white"/>
<path d="M56.5326 20.8078C56.8044 20.6289 57.0762 20.45 57.3016 20.2554C57.5271 20.0609 57.7063 19.8505 57.8118 19.6472C57.9173 19.4438 57.9491 19.2472 57.9308 19.036C57.9125 18.8248 57.8439 18.5989 57.7509 18.3235C57.658 18.0482 57.5408 17.7235 57.4893 17.4208C57.4377 17.1181 57.4521 16.8376 57.4878 16.6295C57.5235 16.4215 57.5806 16.2861 57.6301 16.1537C57.6797 16.0212 57.7218 15.8917 57.8244 15.6903C57.927 15.4889 58.0901 15.2158 58.2532 14.9425" stroke="white" stroke-width="1.5" stroke-linecap="round"/>
<path d="M68.7284 20.5057C69.0002 20.3268 69.272 20.1479 69.4974 19.9534C69.7229 19.7588 69.9021 19.5484 70.0076 19.3451C70.1131 19.1417 70.1449 18.9452 70.1266 18.734C70.1083 18.5228 70.0397 18.2968 69.9467 18.0215C69.8538 17.7461 69.7366 17.4214 69.6851 17.1187C69.6335 16.8161 69.6479 16.5355 69.6836 16.3275C69.7193 16.1194 69.7764 15.984 69.8259 15.8516C69.8755 15.7192 69.9176 15.5897 70.0202 15.3883C70.1228 15.1869 70.2859 14.9137 70.449 14.6404" stroke="white" stroke-width="1.5" stroke-linecap="round"/>
<path d="M62.8951 19.2935C63.1669 19.1146 63.4387 18.9357 63.6641 18.7412C63.8895 18.5466 64.0688 18.3362 64.1743 18.1329C64.2798 17.9295 64.3116 17.7329 64.2933 17.5217C64.275 17.3105 64.2063 17.0846 64.1134 16.8092C64.0205 16.5339 63.9033 16.2092 63.8517 15.9065C63.8002 15.6038 63.8146 15.3233 63.8503 15.1153C63.886 14.9072 63.943 14.7718 63.9926 14.6394C64.0422 14.507 64.0843 14.3775 64.1869 14.1761C64.2895 13.9747 64.4526 13.7015 64.6157 13.4282" stroke="white" stroke-width="1.5" stroke-linecap="round"/>
<path d="M80.4791 39.4322C80.1531 39.4339 59.2704 39.5444 53.8676 39.5233C48.4647 39.5021 48.4268 39.4024 48.4267 39.5544C48.4266 39.7063 48.4646 40.11 48.6138 40.497C48.763 40.8841 49.0233 41.2545 49.3577 41.5847C49.6921 41.9149 50.0861 42.1947 50.3788 42.3561C50.6716 42.5174 50.856 42.5554 55.4374 42.5696C60.0188 42.5838 68.997 42.5743 73.5294 42.5505C78.0619 42.5267 78.1486 42.4888 78.4035 42.3748C78.6583 42.2608 79.0812 42.0708 79.4823 41.7432C79.8834 41.4156 80.2629 40.9502 80.4743 40.5941C80.6858 40.2381 80.7164 40.0635 80.7515 39.8364C80.7865 39.6092 80.7942 39.535 80.8051 39.4305C80.8051 39.4305 80.8051 39.4305 80.4791 39.4322Z" stroke="white" stroke-width="1.4" stroke-linecap="round" stroke-linejoin="round"/>
<path d="M76.2782 26.7325C76.1913 26.1197 76.1043 25.5066 75.9264 25.1405C75.7486 24.7745 75.4796 24.6558 75.298 24.5962C75.1163 24.5365 75.0221 24.536 71.1763 24.5526C67.3305 24.5692 59.7334 24.6027 55.9053 24.6201C52.0772 24.6375 52.0181 24.6386 51.947 24.6451C51.8759 24.6516 51.7929 24.6635 51.676 24.7248C51.5592 24.7861 51.4089 24.8969 51.2854 25.0628C51.162 25.2288 51.0685 25.443 51.0201 25.978C50.9718 26.5129 50.9698 27.365 50.9857 27.9869C51.0015 28.6088 51.0351 29.0004 51.1627 29.651C51.2903 30.3016 51.5118 31.2112 51.8164 32.1209C52.1211 33.0307 52.5087 33.9405 53.1635 34.9143C53.8183 35.888 54.74 36.9258 55.6005 37.6958C56.4609 38.4658 57.26 38.9682 57.6753 39.2192C58.0906 39.4703 58.1223 39.4703 59.9901 39.4643C61.858 39.4584 65.5619 39.4465 67.4296 39.4346C69.2974 39.4227 69.329 39.4108 69.7303 39.1254C70.1316 38.8399 70.9026 38.2808 71.6323 37.665C72.362 37.0493 73.0503 36.3768 73.6792 35.5303C74.3082 34.6838 74.8778 33.6632 75.2903 32.7063C75.7027 31.7493 75.9538 30.8705 76.0922 29.8895C76.2306 28.9085 76.2545 27.8167 76.2901 27.2509C76.3257 26.685 76.3732 26.6375 76.6305 26.627C76.8879 26.6164 77.3547 26.6428 77.8175 26.7154C78.2804 26.788 78.7393 26.9066 79.0873 27.1164C79.4354 27.3263 79.6727 27.6269 79.8703 27.909C80.0679 28.191 80.2257 28.4545 80.3409 28.8435C80.4561 29.2326 80.5288 29.7472 80.5456 30.2591C80.5623 30.7709 80.5231 31.28 80.4112 31.7331C80.2993 32.1861 80.1147 32.5833 79.8266 32.9944C79.5385 33.4056 79.1469 33.8307 78.7106 34.2083C78.2743 34.5859 77.7932 34.916 77.2254 35.2209C76.6576 35.5257 76.0031 35.8055 75.3011 35.9957C74.599 36.1859 73.8494 36.2866 73.0994 36.3874" stroke="white" stroke-width="1.4" stroke-linecap="round"/>
<g filter="url(#filter0_d_17_540)">
<path d="M103.276 12.8636V24.5H101.663L95.7478 15.9659H95.6398V24.5H93.8841V12.8636H95.5091L101.43 21.4091H101.538V12.8636H103.276ZM109.377 24.6761C108.559 24.6761 107.845 24.4886 107.235 24.1136C106.625 23.7386 106.152 23.214 105.815 22.5398C105.477 21.8655 105.309 21.0776 105.309 20.1761C105.309 19.2708 105.477 18.4792 105.815 17.8011C106.152 17.1231 106.625 16.5966 107.235 16.2216C107.845 15.8466 108.559 15.6591 109.377 15.6591C110.195 15.6591 110.909 15.8466 111.519 16.2216C112.129 16.5966 112.602 17.1231 112.94 17.8011C113.277 18.4792 113.445 19.2708 113.445 20.1761C113.445 21.0776 113.277 21.8655 112.94 22.5398C112.602 23.214 112.129 23.7386 111.519 24.1136C110.909 24.4886 110.195 24.6761 109.377 24.6761ZM109.383 23.25C109.913 23.25 110.352 23.1098 110.701 22.8295C111.049 22.5492 111.307 22.1761 111.474 21.7102C111.644 21.2443 111.729 20.7311 111.729 20.1705C111.729 19.6136 111.644 19.1023 111.474 18.6364C111.307 18.1667 111.049 17.7898 110.701 17.5057C110.352 17.2216 109.913 17.0795 109.383 17.0795C108.849 17.0795 108.405 17.2216 108.053 17.5057C107.705 17.7898 107.445 18.1667 107.275 18.6364C107.108 19.1023 107.025 19.6136 107.025 20.1705C107.025 20.7311 107.108 21.2443 107.275 21.7102C107.445 22.1761 107.705 22.5492 108.053 22.8295C108.405 23.1098 108.849 23.25 109.383 23.25ZM115.342 24.5V15.7727H116.972V17.1932H117.08C117.262 16.7121 117.559 16.3371 117.972 16.0682C118.385 15.7955 118.879 15.6591 119.455 15.6591C120.038 15.6591 120.527 15.7955 120.921 16.0682C121.319 16.3409 121.612 16.7159 121.802 17.1932H121.893C122.101 16.7273 122.432 16.3561 122.887 16.0795C123.341 15.7992 123.883 15.6591 124.512 15.6591C125.304 15.6591 125.949 15.9072 126.449 16.4034C126.953 16.8996 127.205 17.6477 127.205 18.6477V24.5H125.506V18.8068C125.506 18.2159 125.345 17.7879 125.023 17.5227C124.701 17.2576 124.317 17.125 123.87 17.125C123.317 17.125 122.887 17.2955 122.58 17.6364C122.273 17.9735 122.12 18.4072 122.12 18.9375V24.5H120.427V18.6989C120.427 18.2254 120.279 17.8447 119.984 17.5568C119.688 17.2689 119.304 17.125 118.83 17.125C118.508 17.125 118.211 17.2102 117.938 17.3807C117.669 17.5473 117.451 17.7803 117.285 18.0795C117.122 18.3788 117.04 18.7254 117.04 19.1193V24.5H115.342ZM129.482 24.5V15.7727H131.181V24.5H129.482ZM130.34 14.4261C130.045 14.4261 129.791 14.3276 129.579 14.1307C129.37 13.9299 129.266 13.6913 129.266 13.4148C129.266 13.1345 129.37 12.8958 129.579 12.6989C129.791 12.4981 130.045 12.3977 130.34 12.3977C130.636 12.3977 130.887 12.4981 131.096 12.6989C131.308 12.8958 131.414 13.1345 131.414 13.4148C131.414 13.6913 131.308 13.9299 131.096 14.1307C130.887 14.3276 130.636 14.4261 130.34 14.4261ZM135.165 19.3182V24.5H133.466V15.7727H135.097V17.1932H135.205C135.406 16.7311 135.72 16.3598 136.148 16.0795C136.58 15.7992 137.124 15.6591 137.779 15.6591C138.374 15.6591 138.895 15.7841 139.341 16.0341C139.788 16.2803 140.135 16.6477 140.381 17.1364C140.627 17.625 140.751 18.2292 140.751 18.9489V24.5H139.052V19.1534C139.052 18.5208 138.887 18.0265 138.557 17.6705C138.228 17.3106 137.775 17.1307 137.199 17.1307C136.806 17.1307 136.455 17.2159 136.148 17.3864C135.845 17.5568 135.605 17.8068 135.427 18.1364C135.252 18.4621 135.165 18.8561 135.165 19.3182ZM145.569 24.6932C145.016 24.6932 144.516 24.5909 144.069 24.3864C143.622 24.178 143.268 23.8769 143.006 23.483C142.749 23.089 142.62 22.6061 142.62 22.0341C142.62 21.5417 142.715 21.1364 142.904 20.8182C143.093 20.5 143.349 20.2481 143.671 20.0625C143.993 19.8769 144.353 19.7367 144.751 19.642C145.148 19.5473 145.554 19.4754 145.966 19.4261C146.489 19.3655 146.913 19.3163 147.239 19.2784C147.565 19.2367 147.802 19.1705 147.949 19.0795C148.097 18.9886 148.171 18.8409 148.171 18.6364V18.5966C148.171 18.1004 148.031 17.7159 147.751 17.4432C147.474 17.1705 147.061 17.0341 146.512 17.0341C145.94 17.0341 145.489 17.161 145.16 17.4148C144.834 17.6648 144.609 17.9432 144.484 18.25L142.887 17.8864C143.076 17.3561 143.353 16.928 143.716 16.6023C144.084 16.2727 144.506 16.0341 144.984 15.8864C145.461 15.7348 145.963 15.6591 146.489 15.6591C146.838 15.6591 147.207 15.7008 147.597 15.7841C147.991 15.8636 148.359 16.0114 148.699 16.2273C149.044 16.4432 149.326 16.7519 149.546 17.1534C149.766 17.5511 149.876 18.0682 149.876 18.7045V24.5H148.216V23.3068H148.148C148.038 23.5265 147.874 23.7424 147.654 23.9545C147.434 24.1667 147.152 24.3428 146.807 24.483C146.463 24.6231 146.05 24.6932 145.569 24.6932ZM145.938 23.3295C146.408 23.3295 146.809 23.2367 147.143 23.0511C147.48 22.8655 147.735 22.6231 147.91 22.3239C148.088 22.0208 148.177 21.697 148.177 21.3523V20.2273C148.116 20.2879 147.999 20.3447 147.824 20.3977C147.654 20.447 147.459 20.4905 147.239 20.5284C147.02 20.5625 146.806 20.5947 146.597 20.625C146.389 20.6515 146.215 20.6742 146.074 20.6932C145.745 20.7348 145.444 20.8049 145.171 20.9034C144.902 21.0019 144.686 21.1439 144.523 21.3295C144.364 21.5114 144.285 21.7538 144.285 22.0568C144.285 22.4773 144.44 22.7955 144.751 23.0114C145.061 23.2235 145.457 23.3295 145.938 23.3295ZM156.212 15.7727V17.1364H151.445V15.7727H156.212ZM152.724 13.6818H154.422V21.9375C154.422 22.267 154.472 22.5151 154.57 22.6818C154.669 22.8447 154.796 22.9564 154.951 23.017C155.11 23.0739 155.282 23.1023 155.468 23.1023C155.604 23.1023 155.724 23.0928 155.826 23.0739C155.928 23.0549 156.008 23.0398 156.065 23.0284L156.371 24.4318C156.273 24.4697 156.133 24.5076 155.951 24.5455C155.769 24.5871 155.542 24.6098 155.269 24.6136C154.822 24.6212 154.405 24.5417 154.019 24.375C153.633 24.2083 153.32 23.9508 153.082 23.6023C152.843 23.2538 152.724 22.8163 152.724 22.2898V13.6818ZM161.759 24.6761C160.899 24.6761 160.159 24.4924 159.538 24.125C158.92 23.7538 158.443 23.233 158.106 22.5625C157.772 21.8883 157.606 21.0985 157.606 20.1932C157.606 19.2992 157.772 18.5114 158.106 17.8295C158.443 17.1477 158.913 16.6155 159.515 16.233C160.121 15.8504 160.829 15.6591 161.64 15.6591C162.132 15.6591 162.609 15.7405 163.072 15.9034C163.534 16.0663 163.948 16.322 164.316 16.6705C164.683 17.0189 164.973 17.4716 165.185 18.0284C165.397 18.5814 165.503 19.2538 165.503 20.0455V20.6477H158.566V19.375H163.839C163.839 18.928 163.748 18.5322 163.566 18.1875C163.384 17.839 163.128 17.5644 162.799 17.3636C162.473 17.1629 162.091 17.0625 161.651 17.0625C161.174 17.0625 160.757 17.1799 160.401 17.4148C160.049 17.6458 159.776 17.9489 159.583 18.3239C159.394 18.6951 159.299 19.0985 159.299 19.5341V20.5284C159.299 21.1117 159.401 21.608 159.606 22.017C159.814 22.4261 160.104 22.7386 160.475 22.9545C160.846 23.1667 161.28 23.2727 161.776 23.2727C162.098 23.2727 162.392 23.2273 162.657 23.1364C162.922 23.0417 163.151 22.9015 163.344 22.7159C163.538 22.5303 163.685 22.3011 163.788 22.0284L165.395 22.3182C165.267 22.7917 165.036 23.2064 164.702 23.5625C164.373 23.9148 163.958 24.1894 163.458 24.3864C162.962 24.5795 162.395 24.6761 161.759 24.6761ZM170.655 24.6705C169.951 24.6705 169.322 24.4905 168.769 24.1307C168.22 23.767 167.788 23.25 167.474 22.5795C167.163 21.9053 167.008 21.0966 167.008 20.1534C167.008 19.2102 167.165 18.4034 167.479 17.733C167.797 17.0625 168.233 16.5492 168.786 16.1932C169.339 15.8371 169.966 15.6591 170.667 15.6591C171.208 15.6591 171.644 15.75 171.974 15.9318C172.307 16.1098 172.564 16.3182 172.746 16.5568C172.932 16.7955 173.076 17.0057 173.178 17.1875H173.28V12.8636H174.979V24.5H173.32V23.142H173.178C173.076 23.3276 172.928 23.5398 172.735 23.7784C172.546 24.017 172.284 24.2254 171.951 24.4034C171.618 24.5814 171.186 24.6705 170.655 24.6705ZM171.03 23.2216C171.519 23.2216 171.932 23.0928 172.269 22.8352C172.61 22.5739 172.868 22.2121 173.042 21.75C173.22 21.2879 173.309 20.75 173.309 20.1364C173.309 19.5303 173.222 19 173.047 18.5455C172.873 18.0909 172.618 17.7367 172.28 17.483C171.943 17.2292 171.527 17.1023 171.03 17.1023C170.519 17.1023 170.093 17.2348 169.752 17.5C169.411 17.7651 169.154 18.1269 168.979 18.5852C168.809 19.0436 168.724 19.5606 168.724 20.1364C168.724 20.7197 168.811 21.2443 168.985 21.7102C169.159 22.1761 169.417 22.5455 169.758 22.8182C170.102 23.0871 170.527 23.2216 171.03 23.2216ZM185.792 15.7727V17.1364H180.86V15.7727H185.792ZM182.212 24.5V14.7614C182.212 14.2159 182.332 13.7633 182.57 13.4034C182.809 13.0398 183.125 12.7689 183.519 12.5909C183.913 12.4091 184.341 12.3182 184.803 12.3182C185.144 12.3182 185.436 12.3466 185.678 12.4034C185.921 12.4564 186.1 12.5057 186.218 12.5511L185.82 13.9261C185.741 13.9034 185.638 13.8769 185.513 13.8466C185.388 13.8125 185.237 13.7955 185.059 13.7955C184.646 13.7955 184.35 13.8977 184.172 14.1023C183.998 14.3068 183.911 14.6023 183.911 14.9886V24.5H182.212ZM190.877 24.6761C190.059 24.6761 189.345 24.4886 188.735 24.1136C188.125 23.7386 187.652 23.214 187.314 22.5398C186.977 21.8655 186.809 21.0776 186.809 20.1761C186.809 19.2708 186.977 18.4792 187.314 17.8011C187.652 17.1231 188.125 16.5966 188.735 16.2216C189.345 15.8466 190.059 15.6591 190.877 15.6591C191.695 15.6591 192.409 15.8466 193.019 16.2216C193.629 16.5966 194.102 17.1231 194.439 17.8011C194.777 18.4792 194.945 19.2708 194.945 20.1761C194.945 21.0776 194.777 21.8655 194.439 22.5398C194.102 23.214 193.629 23.7386 193.019 24.1136C192.409 24.4886 191.695 24.6761 190.877 24.6761ZM190.883 23.25C191.413 23.25 191.852 23.1098 192.201 22.8295C192.549 22.5492 192.807 22.1761 192.974 21.7102C193.144 21.2443 193.229 20.7311 193.229 20.1705C193.229 19.6136 193.144 19.1023 192.974 18.6364C192.807 18.1667 192.549 17.7898 192.201 17.5057C191.852 17.2216 191.413 17.0795 190.883 17.0795C190.349 17.0795 189.905 17.2216 189.553 17.5057C189.205 17.7898 188.945 18.1667 188.775 18.6364C188.608 19.1023 188.525 19.6136 188.525 20.1705C188.525 20.7311 188.608 21.2443 188.775 21.7102C188.945 22.1761 189.205 22.5492 189.553 22.8295C189.905 23.1098 190.349 23.25 190.883 23.25ZM196.841 24.5V15.7727H198.484V17.1591H198.574C198.734 16.6894 199.014 16.3201 199.415 16.0511C199.821 15.7784 200.279 15.642 200.79 15.642C200.896 15.642 201.021 15.6458 201.165 15.6534C201.313 15.661 201.429 15.6705 201.512 15.6818V17.3068C201.444 17.2879 201.323 17.267 201.148 17.2443C200.974 17.2178 200.8 17.2045 200.626 17.2045C200.224 17.2045 199.866 17.2898 199.552 17.4602C199.241 17.6269 198.995 17.8598 198.813 18.1591C198.631 18.4545 198.54 18.7917 198.54 19.1705V24.5H196.841Z" fill="white"/>
<path d="M100.4 44.5V34.368H96.9835V31.835H106.877V34.368H103.443V44.5H100.4ZM111.331 44.738C110.402 44.738 109.563 44.5397 108.815 44.143C108.078 43.735 107.489 43.1513 107.047 42.392C106.616 41.6327 106.401 40.7203 106.401 39.655C106.401 38.873 106.526 38.1703 106.775 37.547C107.036 36.9237 107.381 36.391 107.812 35.949C108.254 35.507 108.747 35.1727 109.291 34.946C109.846 34.708 110.413 34.589 110.991 34.589C111.92 34.589 112.691 34.793 113.303 35.201C113.915 35.609 114.374 36.1643 114.68 36.867C114.986 37.5697 115.139 38.363 115.139 39.247C115.139 39.519 115.122 39.774 115.088 40.012C115.065 40.25 115.037 40.4313 115.003 40.556H109.325C109.416 40.998 109.574 41.355 109.801 41.627C110.028 41.899 110.305 42.103 110.634 42.239C110.963 42.3637 111.331 42.426 111.739 42.426C112.09 42.426 112.43 42.375 112.759 42.273C113.088 42.171 113.428 42.018 113.779 41.814L114.782 43.633C114.283 43.9843 113.722 44.2563 113.099 44.449C112.487 44.6417 111.898 44.738 111.331 44.738ZM109.274 38.567H112.572C112.572 38.091 112.453 37.6943 112.215 37.377C111.988 37.0597 111.597 36.901 111.042 36.901C110.77 36.901 110.509 36.9633 110.26 37.088C110.022 37.2013 109.812 37.3827 109.631 37.632C109.461 37.87 109.342 38.1817 109.274 38.567ZM119.171 44.738C118.582 44.738 118.072 44.6077 117.641 44.347C117.211 44.075 116.876 43.718 116.638 43.276C116.412 42.8227 116.298 42.3297 116.298 41.797C116.298 40.777 116.723 39.9837 117.573 39.417C118.423 38.839 119.789 38.448 121.67 38.244C121.648 37.9833 121.585 37.7623 121.483 37.581C121.381 37.3883 121.223 37.2467 121.007 37.156C120.803 37.054 120.537 37.003 120.208 37.003C119.823 37.003 119.426 37.0767 119.018 37.224C118.61 37.3713 118.163 37.581 117.675 37.853L116.621 35.864C117.052 35.6033 117.488 35.3823 117.93 35.201C118.384 35.0083 118.848 34.861 119.324 34.759C119.8 34.6457 120.288 34.589 120.786 34.589C121.625 34.589 122.333 34.7477 122.911 35.065C123.489 35.3823 123.931 35.8697 124.237 36.527C124.543 37.173 124.696 38.0003 124.696 39.009V44.5H122.231L122.027 43.531H121.942C121.546 43.8823 121.115 44.1713 120.65 44.398C120.197 44.6247 119.704 44.738 119.171 44.738ZM120.208 42.392C120.514 42.392 120.781 42.324 121.007 42.188C121.234 42.052 121.455 41.865 121.67 41.627V40.08C121.047 40.1593 120.548 40.2727 120.174 40.42C119.812 40.5673 119.551 40.7373 119.392 40.93C119.245 41.1227 119.171 41.3323 119.171 41.559C119.171 41.8423 119.262 42.052 119.443 42.188C119.636 42.324 119.891 42.392 120.208 42.392ZM132.626 44.738C131.821 44.738 131.062 44.602 130.348 44.33C129.634 44.058 128.999 43.65 128.444 43.106C127.9 42.5507 127.469 41.8707 127.152 41.066C126.846 40.25 126.693 39.3093 126.693 38.244C126.693 37.19 126.851 36.255 127.169 35.439C127.497 34.6117 127.939 33.9147 128.495 33.348C129.061 32.7813 129.707 32.3507 130.433 32.056C131.158 31.7613 131.923 31.614 132.728 31.614C133.555 31.614 134.292 31.7783 134.938 32.107C135.595 32.4357 136.139 32.821 136.57 33.263L134.989 35.201C134.671 34.9063 134.337 34.6683 133.986 34.487C133.634 34.3057 133.232 34.215 132.779 34.215C132.235 34.215 131.736 34.3737 131.283 34.691C130.829 34.997 130.467 35.4447 130.195 36.034C129.934 36.612 129.804 37.3147 129.804 38.142C129.804 38.9807 129.923 39.7003 130.161 40.301C130.41 40.8903 130.756 41.3437 131.198 41.661C131.64 41.967 132.155 42.12 132.745 42.12C133.255 42.12 133.708 42.0067 134.105 41.78C134.513 41.5533 134.864 41.2813 135.159 40.964L136.757 42.868C136.224 43.4913 135.606 43.9617 134.904 44.279C134.212 44.585 133.453 44.738 132.626 44.738ZM142.571 44.738C141.755 44.738 140.984 44.5397 140.259 44.143C139.533 43.735 138.944 43.1513 138.491 42.392C138.049 41.6327 137.828 40.7203 137.828 39.655C137.828 38.5897 138.049 37.683 138.491 36.935C138.944 36.1757 139.533 35.5977 140.259 35.201C140.984 34.793 141.755 34.589 142.571 34.589C143.183 34.589 143.772 34.7023 144.339 34.929C144.905 35.1557 145.41 35.49 145.852 35.932C146.294 36.3627 146.645 36.8897 146.906 37.513C147.166 38.1363 147.297 38.8503 147.297 39.655C147.297 40.7203 147.07 41.6327 146.617 42.392C146.175 43.1513 145.591 43.735 144.866 44.143C144.152 44.5397 143.387 44.738 142.571 44.738ZM142.571 42.29C142.945 42.29 143.251 42.1823 143.489 41.967C143.738 41.7517 143.919 41.4457 144.033 41.049C144.146 40.6523 144.203 40.1877 144.203 39.655C144.203 39.1223 144.146 38.6633 144.033 38.278C143.919 37.8813 143.738 37.5753 143.489 37.36C143.251 37.1447 142.945 37.037 142.571 37.037C142.197 37.037 141.885 37.1447 141.636 37.36C141.398 37.5753 141.216 37.8813 141.092 38.278C140.978 38.6633 140.922 39.1223 140.922 39.655C140.922 40.1877 140.978 40.6523 141.092 41.049C141.216 41.4457 141.398 41.7517 141.636 41.967C141.885 42.1823 142.197 42.29 142.571 42.29ZM149.196 44.5V34.827H151.661L151.882 36.034H151.933C152.33 35.6373 152.777 35.2973 153.276 35.014C153.786 34.7307 154.37 34.589 155.027 34.589C156.081 34.589 156.846 34.9403 157.322 35.643C157.798 36.3457 158.036 37.3033 158.036 38.516V44.5H155.01V38.89C155.01 38.2213 154.919 37.768 154.738 37.53C154.557 37.292 154.273 37.173 153.888 37.173C153.548 37.173 153.259 37.2467 153.021 37.394C152.783 37.5413 152.517 37.7567 152.222 38.04V44.5H149.196ZM163.76 44.5V42.766C164.78 41.814 165.687 40.9413 166.48 40.148C167.285 39.3433 167.914 38.6067 168.367 37.938C168.82 37.2693 169.047 36.646 169.047 36.068C169.047 35.6713 168.979 35.3427 168.843 35.082C168.718 34.8213 168.531 34.623 168.282 34.487C168.033 34.351 167.738 34.283 167.398 34.283C166.967 34.283 166.576 34.4133 166.225 34.674C165.885 34.9233 165.562 35.201 165.256 35.507L163.607 33.875C164.23 33.2177 164.859 32.7303 165.494 32.413C166.14 32.0843 166.911 31.92 167.806 31.92C168.622 31.92 169.342 32.0843 169.965 32.413C170.588 32.7417 171.076 33.2063 171.427 33.807C171.778 34.3963 171.954 35.0933 171.954 35.898C171.954 36.578 171.767 37.275 171.393 37.989C171.019 38.6917 170.537 39.3943 169.948 40.097C169.37 40.7883 168.764 41.4627 168.129 42.12C168.446 42.0747 168.798 42.035 169.183 42.001C169.58 41.967 169.92 41.95 170.203 41.95H172.532V44.5H163.76ZM178.59 44.738C177.695 44.738 176.907 44.4943 176.227 44.007C175.559 43.5083 175.037 42.783 174.663 41.831C174.289 40.8677 174.102 39.6833 174.102 38.278C174.102 36.8727 174.289 35.6997 174.663 34.759C175.037 33.8183 175.559 33.11 176.227 32.634C176.907 32.158 177.695 31.92 178.59 31.92C179.486 31.92 180.268 32.158 180.936 32.634C181.605 33.11 182.126 33.8183 182.5 34.759C182.874 35.6997 183.061 36.8727 183.061 38.278C183.061 39.6833 182.874 40.8677 182.5 41.831C182.126 42.783 181.605 43.5083 180.936 44.007C180.268 44.4943 179.486 44.738 178.59 44.738ZM178.59 42.392C178.896 42.392 179.168 42.2843 179.406 42.069C179.656 41.8423 179.848 41.4343 179.984 40.845C180.132 40.2443 180.205 39.3887 180.205 38.278C180.205 37.1673 180.132 36.323 179.984 35.745C179.848 35.167 179.656 34.776 179.406 34.572C179.168 34.368 178.896 34.266 178.59 34.266C178.296 34.266 178.024 34.368 177.774 34.572C177.525 34.776 177.327 35.167 177.179 35.745C177.032 36.323 176.958 37.1673 176.958 38.278C176.958 39.3887 177.032 40.2443 177.179 40.845C177.327 41.4343 177.525 41.8423 177.774 42.069C178.024 42.2843 178.296 42.392 178.59 42.392ZM184.479 44.5V42.766C185.499 41.814 186.406 40.9413 187.199 40.148C188.004 39.3433 188.633 38.6067 189.086 37.938C189.539 37.2693 189.766 36.646 189.766 36.068C189.766 35.6713 189.698 35.3427 189.562 35.082C189.437 34.8213 189.25 34.623 189.001 34.487C188.752 34.351 188.457 34.283 188.117 34.283C187.686 34.283 187.295 34.4133 186.944 34.674C186.604 34.9233 186.281 35.201 185.975 35.507L184.326 33.875C184.949 33.2177 185.578 32.7303 186.213 32.413C186.859 32.0843 187.63 31.92 188.525 31.92C189.341 31.92 190.061 32.0843 190.684 32.413C191.307 32.7417 191.795 33.2063 192.146 33.807C192.497 34.3963 192.673 35.0933 192.673 35.898C192.673 36.578 192.486 37.275 192.112 37.989C191.738 38.6917 191.256 39.3943 190.667 40.097C190.089 40.7883 189.483 41.4627 188.848 42.12C189.165 42.0747 189.517 42.035 189.902 42.001C190.299 41.967 190.639 41.95 190.922 41.95H193.251V44.5H184.479ZM199.309 44.738C198.414 44.738 197.626 44.4943 196.946 44.007C196.278 43.5083 195.756 42.783 195.382 41.831C195.008 40.8677 194.821 39.6833 194.821 38.278C194.821 36.8727 195.008 35.6997 195.382 34.759C195.756 33.8183 196.278 33.11 196.946 32.634C197.626 32.158 198.414 31.92 199.309 31.92C200.205 31.92 200.987 32.158 201.655 32.634C202.324 33.11 202.845 33.8183 203.219 34.759C203.593 35.6997 203.78 36.8727 203.78 38.278C203.78 39.6833 203.593 40.8677 203.219 41.831C202.845 42.783 202.324 43.5083 201.655 44.007C200.987 44.4943 200.205 44.738 199.309 44.738ZM199.309 42.392C199.615 42.392 199.887 42.2843 200.125 42.069C200.375 41.8423 200.567 41.4343 200.703 40.845C200.851 40.2443 200.924 39.3887 200.924 38.278C200.924 37.1673 200.851 36.323 200.703 35.745C200.567 35.167 200.375 34.776 200.125 34.572C199.887 34.368 199.615 34.266 199.309 34.266C199.015 34.266 198.743 34.368 198.493 34.572C198.244 34.776 198.046 35.167 197.898 35.745C197.751 36.323 197.677 37.1673 197.677 38.278C197.677 39.3887 197.751 40.2443 197.898 40.845C198.046 41.4343 198.244 41.8423 198.493 42.069C198.743 42.2843 199.015 42.392 199.309 42.392ZM215.279 29.965H221.059V32.175H217.71V40.76H215.279V29.965ZM222.266 30.934H237.736V33.229H222.266V30.934ZM228.879 35.252H230.987V41.372H228.879V35.252ZM227.961 39.128V40.131H231.922V39.128H227.961ZM227.961 36.289V37.275H231.922V36.289H227.961ZM225.955 34.3H234.03V42.12H225.955V34.3ZM234.88 35.371H237.379V46.081H234.88V35.371ZM222.606 35.439H225.156V43.021H236.427V45.333H222.606V35.439ZM244.978 30.696H254.787V32.923H244.978V30.696ZM248.684 31.75H250.996V46.064H248.684V31.75ZM245.335 34.13H253.189V36.323H247.562V43.616H245.335V34.13ZM252.237 34.13H254.515V41.372C254.515 41.8367 254.469 42.222 254.379 42.528C254.288 42.8227 254.101 43.0607 253.818 43.242C253.534 43.4233 253.223 43.5367 252.883 43.582C252.554 43.616 252.174 43.633 251.744 43.633C251.71 43.3157 251.63 42.9587 251.506 42.562C251.381 42.154 251.251 41.8083 251.115 41.525C251.296 41.5363 251.477 41.542 251.659 41.542C251.84 41.542 251.965 41.542 252.033 41.542C252.112 41.542 252.163 41.525 252.186 41.491C252.22 41.457 252.237 41.4003 252.237 41.321V34.13ZM242.377 30.033H244.638V36.765C244.638 37.6263 244.604 38.482 244.536 39.332C244.468 40.182 244.332 41.0093 244.128 41.814C243.935 42.6187 243.635 43.378 243.227 44.092C242.819 44.806 242.275 45.4633 241.595 46.064C241.459 45.894 241.277 45.7013 241.051 45.486C240.835 45.282 240.609 45.0837 240.371 44.891C240.144 44.6983 239.934 44.5453 239.742 44.432C240.535 43.7633 241.113 43.021 241.476 42.205C241.85 41.3777 242.093 40.505 242.207 39.587C242.32 38.6577 242.377 37.7113 242.377 36.748V30.033ZM239.504 31.954H241.697V40.301H239.504V31.954ZM261.689 46.115H255.909V43.905H259.258V35.32H261.689V46.115Z" fill="white"/>
</g>
<path d="M292.449 8.66923C292.722 10.2293 293.11 11.2992 293.775 12.2882C294.223 12.9574 294.717 13.4177 295.301 13.7076C295.957 14.0401 296.507 14.1381 296.725 13.9676C296.784 13.9207 296.878 13.8824 296.938 13.8824C297.134 13.8824 297.151 13.8099 297.125 13.0853C297.104 12.3265 297.027 11.9685 296.78 11.4271C296.196 10.1739 294.981 9.16369 292.927 8.23871C292.637 8.10657 292.385 8.00001 292.368 8.00001C292.351 8.00001 292.385 8.30265 292.449 8.66923Z" fill="white"/>
<path d="M298.916 9.75618C297.837 11.7852 297.492 13.4561 297.884 14.7945C298.153 15.7238 298.933 16.8661 299.291 16.8661C299.491 16.8661 299.943 16.2694 300.275 15.5661C300.565 14.9565 300.651 14.543 300.655 13.7545C300.655 12.902 300.518 12.2498 300.139 11.2737C299.964 10.8176 299.282 9.42796 299.206 9.36402C299.163 9.32992 299.095 9.4237 298.916 9.75618Z" fill="white"/>
<path d="M293.259 13.4859C293.259 13.503 293.345 13.8269 293.451 14.202C294.184 16.7809 295.51 18.5456 296.993 18.9292C297.68 19.104 298.055 19.0997 298.212 18.9164C298.251 18.8696 298.353 18.8184 298.438 18.8014C298.524 18.7886 298.605 18.7459 298.617 18.7118C298.63 18.682 298.617 18.4476 298.592 18.1918C298.447 16.7894 297.91 15.8815 296.703 14.9864C295.885 14.3768 295.054 14.006 293.357 13.4817C293.302 13.4646 293.259 13.4646 293.259 13.4859Z" fill="white"/>
<path d="M301.763 15.6513C300.804 16.8704 300.271 17.8124 300.011 18.763C299.879 19.2361 299.828 20.127 299.905 20.5405C300.015 21.133 300.292 21.815 300.625 22.318C300.77 22.5396 300.778 22.5439 300.94 22.5226C301.179 22.4885 301.401 22.3265 301.708 21.9599C302.296 21.2523 302.633 20.5746 302.816 19.7221C302.935 19.185 302.94 18.1534 302.833 17.4842C302.697 16.6402 302.3 15.1185 302.215 15.1185C302.194 15.1185 301.993 15.3572 301.763 15.6513Z" fill="white"/>
<path d="M296.132 18.8994C296.145 19.0145 296.166 19.381 296.179 19.7221C296.256 21.5635 296.605 22.8039 297.356 23.9036C297.82 24.5814 298.592 25.1909 299.223 25.3742C299.431 25.4382 299.466 25.4382 299.598 25.3742C299.674 25.3359 299.785 25.306 299.841 25.306C299.9 25.306 299.956 25.2719 299.973 25.2293C300.045 25.0375 300.131 24.5174 300.152 24.1125C300.224 22.7101 299.581 21.4186 298.212 20.2208C297.466 19.5686 296.294 18.699 296.166 18.699C296.128 18.699 296.119 18.7544 296.132 18.8994Z" fill="white"/>
<path d="M303.992 21.6573C302.253 22.6974 301.264 23.6309 300.736 24.7306C300.437 25.3615 300.399 25.5533 300.403 26.4357C300.408 27.0452 300.425 27.2669 300.489 27.5226C300.565 27.8253 300.578 27.8423 300.697 27.8551C300.77 27.8636 300.842 27.8892 300.868 27.9105C301.013 28.0512 301.618 27.838 302.147 27.4629C302.867 26.9472 303.583 25.9242 303.95 24.8798C304.197 24.1637 304.397 23.145 304.448 22.3223C304.461 22.1006 304.483 21.798 304.495 21.6488C304.504 21.5039 304.5 21.3845 304.483 21.3845C304.465 21.3845 304.244 21.5081 303.992 21.6573Z" fill="white"/>
<path d="M296.396 23.7758C296.35 23.9165 296.158 24.9395 296.09 25.4126C295.992 26.0946 295.992 27.237 296.085 27.7613C296.273 28.8014 296.703 29.6454 297.415 30.3572C297.91 30.8559 298.072 30.954 298.391 30.954H298.651L298.766 30.7409C298.967 30.3785 299.176 29.6667 299.231 29.1594C299.372 27.8636 298.818 26.4527 297.564 24.931C297.074 24.3385 296.426 23.6906 296.396 23.7758Z" fill="white"/>
<path d="M304.521 27.5013C303.191 27.7144 302.168 28.0043 301.499 28.3495C300.544 28.844 299.845 29.5985 299.449 30.5533C299.308 30.89 299.116 31.7425 299.154 31.8491C299.167 31.8789 299.257 31.9301 299.346 31.9557C299.444 31.9812 299.547 32.0452 299.585 32.1006C299.687 32.2583 299.909 32.3137 300.352 32.2839C301.746 32.1901 302.863 31.3973 304.031 29.6709C304.466 29.023 305.284 27.3862 305.165 27.399C305.148 27.4032 304.858 27.4459 304.521 27.5013Z" fill="white"/>
<path d="M295.335 28.9548C295.288 29.0401 294.964 30.0887 294.866 30.4851C294.628 31.4271 294.602 31.6317 294.606 32.5524C294.606 33.3623 294.615 33.4561 294.721 33.844C294.917 34.5686 295.382 35.3785 295.936 35.9454C296.235 36.2524 296.392 36.3461 296.605 36.3461C296.763 36.3461 296.789 36.3291 296.921 36.1287C297.275 35.5874 297.526 34.8883 297.611 34.2191C297.769 32.9233 297.16 31.2651 295.898 29.59C295.472 29.0188 295.369 28.9037 295.335 28.9548Z" fill="white"/>
<path d="M292.743 32.7315C292.159 33.8142 291.823 34.6922 291.639 35.5831C291.516 36.1671 291.537 37.1262 291.678 37.6249C291.929 38.5115 292.731 39.7136 293.063 39.7136C293.178 39.7136 293.553 39.3001 293.809 38.8824C294.078 38.4561 294.299 37.9318 294.402 37.4885C294.508 37.0196 294.495 35.9028 294.38 35.3657C294.269 34.8755 294.069 34.2362 293.869 33.746C293.702 33.3368 293.208 32.3137 293.123 32.1986C293.072 32.1347 293.029 32.1944 292.743 32.7315Z" fill="white"/>
<path d="M302.893 32.1987C302.334 32.2328 301.52 32.3436 301.132 32.4416C299.717 32.8039 298.613 33.682 298.076 34.8756C297.974 35.1057 297.735 35.792 297.735 35.8602C297.735 35.8687 297.837 35.9242 297.961 35.9796C298.08 36.035 298.225 36.1373 298.276 36.2055C298.408 36.393 298.685 36.4484 299.308 36.4186C300.403 36.3675 301.32 35.9156 302.3 34.9438C302.871 34.3726 303.361 33.7375 303.83 32.9489C304.052 32.5823 304.252 32.2541 304.269 32.2242C304.295 32.1816 304.184 32.1688 303.715 32.1773C303.391 32.1816 303.02 32.1901 302.893 32.1987Z" fill="white"/>
<path d="M289.913 35.7153C288.319 37.2583 287.59 38.4945 287.479 39.8329C287.428 40.451 287.611 41.3419 287.923 41.9727L288.08 42.2924H288.336C288.558 42.2924 288.622 42.2711 288.805 42.1432C289.5 41.6658 290.212 40.6513 290.501 39.7349C290.736 38.9804 290.766 38.7502 290.766 37.5823C290.766 36.653 290.749 36.4015 290.663 35.8559C290.608 35.5021 290.548 35.1995 290.531 35.1824C290.514 35.1611 290.233 35.3998 289.913 35.7153Z" fill="white"/>
<path d="M298.067 36.6701C296.853 36.8576 296.171 37.156 295.506 37.7911C295.156 38.1236 294.913 38.4348 294.649 38.8866C294.376 39.3598 294.376 39.3512 294.666 39.5345C294.807 39.6198 294.934 39.7263 294.947 39.7647C295.054 40.1014 296.094 40.3401 296.946 40.2293C297.419 40.1654 298.123 39.9352 298.545 39.705C299.376 39.2532 300.412 38.4135 300.732 37.9403C300.838 37.7783 301.064 37.497 301.23 37.3095C301.396 37.1262 301.524 36.9685 301.516 36.9599C301.507 36.9514 301.23 36.896 300.906 36.8363C299.521 36.5933 298.809 36.5507 298.067 36.6701Z" fill="white"/>
<path d="M286.333 39.0273C284.056 39.5516 282.714 40.2635 281.963 41.3547C281.601 41.8832 281.303 42.7613 281.252 43.4476L281.226 43.7929L281.375 43.8227C281.46 43.8355 281.588 43.908 281.665 43.9804L281.801 44.1168L282.236 44.0955C282.957 44.0614 283.647 43.7801 284.316 43.2515C284.9 42.7912 285.685 41.7596 286.196 40.7792C286.414 40.37 286.865 39.2788 286.934 39.0145C286.968 38.8781 286.985 38.8781 286.333 39.0273Z" fill="white"/>
<path d="M293.195 40.272C292.466 40.3743 291.639 40.7707 291.064 41.3035C290.744 41.5934 290.318 42.0963 290.318 42.1773C290.318 42.2029 290.433 42.3223 290.574 42.4459C290.714 42.5695 290.842 42.7144 290.855 42.7698C290.906 42.9659 291.362 43.2259 291.968 43.405C293.008 43.7076 294.223 43.5158 295.569 42.8338C296.345 42.4416 296.716 42.1944 296.865 41.9685C296.934 41.8662 297.159 41.6488 297.364 41.4825C297.616 41.2822 297.718 41.1756 297.679 41.1543C297.65 41.1373 297.317 41.0094 296.942 40.8687C296.166 40.5831 295.582 40.4126 295.054 40.3274C294.572 40.2507 293.57 40.2208 293.195 40.272Z" fill="white"/>
<path d="M287.658 42.8934C287.27 42.9787 286.874 43.1321 286.482 43.341C286.102 43.5456 285.676 43.8525 285.672 43.9165C285.672 43.942 285.783 44.1168 285.919 44.3086C286.051 44.5004 286.209 44.7349 286.269 44.8329C286.46 45.1483 287.1 45.6215 287.624 45.8346C288.617 46.2353 289.798 46.2481 291.277 45.8772C291.959 45.7025 292.151 45.6172 292.232 45.451C292.27 45.3657 292.368 45.2975 292.573 45.208C292.726 45.1398 292.91 45.0588 292.978 45.029L293.102 44.9736L292.65 44.6454C291.316 43.6735 290.497 43.2387 289.466 42.9702C288.937 42.8295 288.093 42.7954 287.658 42.8934Z" fill="white"/>
<path d="M282.283 44.688C282.121 44.7221 281.84 44.8073 281.665 44.8755C281.35 44.9949 280.71 45.3359 280.612 45.4382C280.535 45.5149 281.162 46.5209 281.495 46.8619C281.968 47.3478 282.56 47.6846 283.306 47.8849C283.707 47.9915 283.788 48 284.67 48C285.463 48 285.689 47.9872 286.141 47.902C286.759 47.7911 287.036 47.6846 287.036 47.5652C287.036 47.4714 287.181 47.3905 287.569 47.2754C287.709 47.2327 287.837 47.1858 287.859 47.1731C287.893 47.1432 287.01 46.3717 286.49 45.9795C285.552 45.2805 284.649 44.8457 283.796 44.6837C283.362 44.5985 282.68 44.6027 282.283 44.688Z" fill="white"/>
<defs>
<filter id="filter0_d_17_540" x="87.0057" y="3.9" width="191.2" height="48.2" filterUnits="userSpaceOnUse" color-interpolation-filters="sRGB">
<feFlood flood-opacity="0" result="BackgroundImageFix"/>
<feColorMatrix in="SourceAlpha" type="matrix" values="0 0 0 0 0 0 0 0 0 0 0 0 0 0 0 0 0 0 127 0" result="hardAlpha"/>
<feOffset/>
<feGaussianBlur stdDeviation="2.8"/>
<feComposite in2="hardAlpha" operator="out"/>
<feColorMatrix type="matrix" values="0 0 0 0 0 0 0 0 0 0 0 0 0 0 0 0 0 0 0.25 0"/>
<feBlend mode="normal" in2="BackgroundImageFix" result="effect1_dropShadow_17_540"/>
<feBlend mode="normal" in="SourceGraphic" in2="effect1_dropShadow_17_540" result="shape"/>
</filter>
<linearGradient id="paint0_linear_17_540" x1="158.588" y1="0" x2="158.588" y2="56" gradientUnits="userSpaceOnUse">
<stop stop-color="#373737"/>
<stop offset="1"/>
</linearGradient>
</defs>
</svg>
