<svg width="323" height="56" viewBox="0 0 323 56" fill="none" xmlns="http://www.w3.org/2000/svg">
<rect width="323" height="56" rx="8" fill="url(#paint0_linear_17_1046)"/>
<rect x="1.05" y="1.05" width="320.9" height="53.9" rx="6.95" stroke="white" stroke-opacity="0.15" stroke-width="2.1"/>
<path d="M27.783 8.18346C25.7283 9.10426 24.4707 10.106 23.8696 11.2997C23.5883 11.8624 23.4305 12.5828 23.439 13.2521C23.4476 13.7679 23.4732 13.8532 23.6266 13.8702C23.6948 13.8788 23.7971 13.9214 23.8526 13.9683C24.0657 14.1345 24.6241 14.0322 25.2721 13.704C26.4444 13.1157 27.3993 11.6961 27.9066 9.78633C28.0047 9.41545 28.2519 8.14936 28.2519 8.01294C28.2519 7.97884 28.1837 8.00442 27.783 8.18346Z" fill="black"/>
<path d="M21.137 9.79911C19.7303 12.4379 19.5512 14.3477 20.5615 16.0529C20.8088 16.4706 21.0987 16.8117 21.2436 16.8458C21.4013 16.8884 21.6187 16.7221 21.9129 16.3257C23.2259 14.5779 23.196 12.8045 21.8021 10.008C21.6145 9.62859 21.444 9.31739 21.4269 9.31739C21.4099 9.31739 21.2777 9.53481 21.137 9.79911Z" fill="black"/>
<path d="M26.7684 13.623C25.9073 13.9001 25.4469 14.0876 24.8842 14.3775C23.7204 14.9786 22.8593 15.7587 22.433 16.607C22.1559 17.157 21.9854 17.8817 21.9854 18.5041V18.7726L22.1388 18.7982C22.2198 18.8153 22.3221 18.8664 22.3605 18.9133C22.4884 19.0582 22.7143 19.0923 23.1363 19.0199C23.9378 18.8792 24.4707 18.6064 25.0675 18.0266C25.984 17.1399 26.6618 15.8738 27.1478 14.1686C27.2416 13.8319 27.3268 13.5335 27.3354 13.5036C27.3609 13.4354 27.3652 13.4312 26.7684 13.623Z" fill="black"/>
<path d="M18.1572 15.7417C17.4155 18.3548 17.5221 20.0344 18.5196 21.4966C18.9757 22.1702 19.3892 22.5325 19.6962 22.5325C19.7942 22.5325 19.8454 22.4814 20.0116 22.2213C20.1225 22.0551 20.2887 21.7439 20.3782 21.535C21.1498 19.7488 20.6809 17.9712 18.8308 15.6479C18.5963 15.3537 18.3874 15.115 18.3704 15.115C18.3491 15.115 18.251 15.3964 18.1572 15.7417Z" fill="black"/>
<path d="M23.925 19.0028C22.7697 19.8298 21.7935 20.7123 21.3118 21.3602C21.0304 21.7396 20.6894 22.4174 20.5785 22.8309C20.3995 23.496 20.3952 24.2718 20.5572 25.0008C20.6212 25.2736 20.6382 25.3035 20.7277 25.3035C20.7874 25.3035 20.8983 25.3333 20.975 25.3717C21.1072 25.4356 21.1413 25.4356 21.3501 25.3717C21.9555 25.1926 22.7185 24.6086 23.1875 23.9521C24.0699 22.7286 24.3768 21.4668 24.4578 18.7257C24.4578 18.649 24.3214 18.7215 23.925 19.0028Z" fill="black"/>
<path d="M16.1195 21.9656C16.1919 23.351 16.452 24.5575 16.8868 25.4953C17.2321 26.2371 17.8843 27.0683 18.4257 27.4563C18.9543 27.8357 19.6065 28.0616 19.7046 27.9039C19.7174 27.8783 19.7856 27.8612 19.8538 27.8612C20.0073 27.8612 20.0371 27.8101 20.1352 27.3497C20.2503 26.8168 20.2375 25.8704 20.1138 25.41C19.8026 24.2548 18.8946 23.1677 17.3983 22.1574C17.0786 21.9443 16.1493 21.3816 16.1152 21.3816C16.1024 21.3816 16.1024 21.6459 16.1195 21.9656Z" fill="black"/>
<path d="M23.7928 24.0757C23.0212 24.8687 22.531 25.5081 21.9939 26.4118C21.6486 26.9959 21.3928 27.8527 21.3587 28.5518C21.3203 29.3149 21.4652 30.0226 21.802 30.6918L21.947 30.9817L22.1985 30.9647C22.386 30.9519 22.4926 30.9135 22.629 30.8197C23.3495 30.3252 24.0614 29.332 24.3427 28.4325C24.6752 27.3753 24.6625 25.9898 24.3001 24.2676C24.2404 23.9692 24.1765 23.7262 24.1637 23.7262C24.1466 23.7262 23.9804 23.8839 23.7928 24.0757Z" fill="black"/>
<path d="M15.4332 27.4946C15.4758 27.6822 16.0598 28.8886 16.2943 29.2723C17.4751 31.2162 18.737 32.1839 20.2205 32.2819C20.6596 32.3117 20.8855 32.2563 20.9878 32.1029C21.0219 32.0474 21.1327 31.9835 21.2478 31.9537L21.4439 31.8982L21.4141 31.6126C21.3544 30.9433 20.9921 30.0822 20.5359 29.5067C19.6706 28.4239 18.3746 27.8527 15.9405 27.4818L15.4119 27.4051L15.4332 27.4946Z" fill="black"/>
<path d="M24.8798 29.3448C22.9743 31.7874 22.5054 33.8336 23.4219 35.6965C23.5072 35.8671 23.6308 36.0845 23.6947 36.174C23.8013 36.3189 23.8439 36.3445 23.9718 36.3445C24.1892 36.3445 24.3171 36.2635 24.6795 35.8841C26.018 34.4816 26.342 32.785 25.7154 30.4233C25.5534 29.8265 25.2678 28.927 25.2337 28.927C25.2166 28.927 25.0589 29.1146 24.8798 29.3448Z" fill="black"/>
<path d="M27.169 32.7722C25.9754 35.1978 25.7878 36.8987 26.5467 38.4547C26.9218 39.2305 27.3609 39.7549 27.5825 39.6952C27.7147 39.6611 27.9961 39.3712 28.2263 39.0344C29.2877 37.4486 29.3218 35.9608 28.3499 33.7441C28.141 33.2667 27.5442 32.1242 27.5058 32.1242C27.4973 32.1242 27.3481 32.4183 27.169 32.7722Z" fill="black"/>
<path d="M16.3156 32.1796C16.3156 32.1924 16.4264 32.3927 16.5671 32.6229C16.7035 32.8531 16.8953 33.1814 16.9934 33.3519C17.3983 34.051 18.4087 35.1679 19.0438 35.6155C19.7856 36.1399 20.4677 36.3829 21.2819 36.417C21.9 36.4425 22.1174 36.3956 22.305 36.1953C22.3732 36.1143 22.5267 36.012 22.6375 35.9651C22.7483 35.9182 22.8379 35.85 22.8379 35.8201C22.8379 35.6965 22.6119 35.0784 22.4542 34.7587C22.0492 33.9444 21.5632 33.4286 20.7831 32.981C20.0712 32.5718 19.4701 32.3842 18.511 32.2734C17.9397 32.2052 16.3156 32.1327 16.3156 32.1796Z" fill="black"/>
<path d="M30.0253 35.266C29.8846 35.9651 29.8164 36.6898 29.8121 37.5595C29.8079 38.7829 29.9315 39.4693 30.3024 40.2963C30.6008 40.9655 31.2658 41.8011 31.7688 42.1421C31.9393 42.2615 32.0331 42.2913 32.2463 42.3041L32.5106 42.3212L32.6129 42.1165C33.1031 41.1446 33.2395 39.9424 32.9624 39.0089C32.7493 38.2884 32.3869 37.6404 31.7603 36.8561C31.4832 36.5065 30.1446 35.1509 30.0807 35.1509C30.0636 35.1509 30.0381 35.202 30.0253 35.266Z" fill="black"/>
<path d="M20.6212 36.6855C20.3271 36.7282 19.8624 36.8006 19.5811 36.8518C19.304 36.8987 19.0695 36.9413 19.0567 36.9413C19.0482 36.9413 19.1974 37.1204 19.3893 37.3378C19.5811 37.5552 19.79 37.828 19.8539 37.9474C19.9264 38.0795 20.1267 38.2969 20.391 38.5314C22.0408 39.9936 23.5712 40.5179 25.0334 40.13C25.3446 40.049 25.3957 40.0192 25.6089 39.8018C25.7368 39.6696 25.9158 39.5247 26.0054 39.4778C26.2014 39.3755 26.1972 39.3328 25.9457 38.8852C25.3361 37.8067 24.4238 37.0948 23.3069 36.822C22.3776 36.5918 21.5591 36.5534 20.6212 36.6855Z" fill="black"/>
<path d="M33.6232 38.9193C33.6232 39.0216 34.2029 40.4071 34.4118 40.8078C35.5031 42.9052 36.8417 44.0221 38.338 44.0946L38.7685 44.1116L38.9007 43.9837C38.9774 43.9112 39.1053 43.8388 39.1863 43.8217C39.2673 43.8089 39.3483 43.7791 39.3568 43.7578C39.3696 43.7407 39.3568 43.5446 39.3313 43.3272C39.2417 42.5812 38.9689 41.8437 38.5938 41.3151C38.3593 40.9826 37.8179 40.4668 37.4598 40.2323C36.765 39.7719 35.712 39.3669 34.4331 39.0685C33.7084 38.9023 33.6232 38.8852 33.6232 38.9193Z" fill="black"/>
<path d="M25.9627 40.2664C25.4512 40.3218 24.978 40.4241 24.394 40.6117C23.7417 40.8206 22.9062 41.1446 22.8934 41.1915C22.8891 41.2085 23.0511 41.3492 23.2515 41.4984C23.4774 41.6689 23.6394 41.8266 23.6692 41.9034C23.7417 42.0782 23.8568 42.1762 24.2703 42.432C25.5066 43.1951 26.7386 43.5872 27.7617 43.5361C28.5674 43.4935 29.4669 43.1609 29.68 42.8242C29.7354 42.7389 29.8974 42.5599 30.0466 42.4277L30.3152 42.1933L30.1361 41.9588C29.5308 41.1574 28.6654 40.5691 27.7787 40.3517C27.361 40.2494 26.4956 40.211 25.9627 40.2664Z" fill="black"/>
<path d="M31.3851 42.9052C30.524 43.0885 29.6586 43.4721 28.7506 44.0775C27.7702 44.734 27.4078 45.0409 27.6167 45.0409C27.6423 45.0409 27.8 45.1049 27.9748 45.1859C28.2007 45.2882 28.303 45.3649 28.3414 45.4502C28.4224 45.6164 28.6142 45.7017 29.2963 45.8764C30.7542 46.2431 31.8839 46.2345 32.9028 45.8551C33.4314 45.6548 34.0793 45.1773 34.3308 44.7979C34.4204 44.6658 34.5951 44.4143 34.7188 44.2352C34.9873 43.8643 35.0001 43.907 34.4971 43.5702C34.0964 43.3016 33.6786 43.1098 33.2182 42.9691C32.6981 42.8157 31.9479 42.7901 31.3851 42.9052Z" fill="black"/>
<path d="M36.6285 44.7169C36.0232 44.8619 35.567 45.0537 34.8423 45.4757C34.2711 45.8082 32.6767 47.0957 32.7492 47.1681C32.7663 47.1809 32.9453 47.2491 33.1457 47.3216C33.4569 47.4282 33.5208 47.4665 33.5293 47.5475C33.5507 47.6925 33.7979 47.7863 34.4331 47.9056C34.885 47.9866 35.1066 48.0037 35.9038 47.9994C36.7862 47.9994 36.8672 47.9909 37.2679 47.8843C38.372 47.5859 39.0456 47.0743 39.6765 46.064C39.8641 45.7613 40.0175 45.497 40.0175 45.48C40.0175 45.3862 39.1181 44.9301 38.6108 44.7638C38.3038 44.6615 38.1589 44.6445 37.6516 44.6317C37.1358 44.6189 36.9951 44.6274 36.6285 44.7169Z" fill="black"/>
<path d="M59.9445 20.8078C60.2163 20.6289 60.488 20.45 60.7135 20.2555C60.9389 20.0609 61.1182 19.8505 61.2237 19.6472C61.3292 19.4438 61.361 19.2473 61.3427 19.0361C61.3244 18.8249 61.2557 18.5989 61.1628 18.3236C61.0699 18.0482 60.9526 17.7235 60.9011 17.4208C60.8496 17.1181 60.864 16.8376 60.8997 16.6296C60.9354 16.4215 60.9924 16.2861 61.042 16.1537C61.0916 16.0213 61.1337 15.8918 61.2363 15.6904C61.3389 15.489 61.5019 15.2158 61.6651 14.9425" stroke="black" stroke-width="1.5" stroke-linecap="round"/>
<path d="M72.1403 20.5057C72.4121 20.3268 72.6838 20.1479 72.9093 19.9534C73.1347 19.7588 73.314 19.5484 73.4195 19.3451C73.525 19.1417 73.5568 18.9452 73.5385 18.734C73.5202 18.5228 73.4515 18.2968 73.3586 18.0215C73.2657 17.7461 73.1484 17.4214 73.0969 17.1187C73.0454 16.8161 73.0598 16.5355 73.0955 16.3275C73.1312 16.1194 73.1882 15.984 73.2378 15.8516C73.2874 15.7192 73.3295 15.5897 73.4321 15.3883C73.5347 15.1869 73.6977 14.9137 73.8609 14.6404" stroke="black" stroke-width="1.5" stroke-linecap="round"/>
<path d="M66.3069 19.2935C66.5787 19.1146 66.8505 18.9357 67.0759 18.7412C67.3014 18.5466 67.4806 18.3362 67.5861 18.1329C67.6916 17.9295 67.7234 17.7329 67.7051 17.5217C67.6868 17.3105 67.6182 17.0846 67.5252 16.8092C67.4323 16.5339 67.3151 16.2092 67.2635 15.9065C67.212 15.6038 67.2264 15.3233 67.2621 15.1153C67.2978 14.9072 67.3548 14.7718 67.4044 14.6394C67.454 14.507 67.4961 14.3775 67.5987 14.1761C67.7013 13.9747 67.8644 13.7015 68.0275 13.4282" stroke="black" stroke-width="1.5" stroke-linecap="round"/>
<path d="M83.8909 39.4322C83.5649 39.4339 62.6822 39.5444 57.2794 39.5233C51.8765 39.5021 51.8386 39.4024 51.8385 39.5544C51.8384 39.7063 51.8764 40.11 52.0256 40.497C52.1748 40.8841 52.4351 41.2545 52.7695 41.5847C53.1039 41.9149 53.4979 42.1947 53.7906 42.3561C54.0834 42.5174 54.2678 42.5554 58.8492 42.5696C63.4306 42.5838 72.4088 42.5743 76.9412 42.5505C81.4737 42.5267 81.5604 42.4888 81.8153 42.3748C82.0701 42.2608 82.493 42.0708 82.8941 41.7432C83.2952 41.4156 83.6747 40.9502 83.8861 40.5941C84.0976 40.2381 84.1282 40.0635 84.1633 39.8364C84.1983 39.6092 84.206 39.535 84.2169 39.4305C84.2169 39.4305 84.2169 39.4305 83.8909 39.4322Z" stroke="black" stroke-width="1.4" stroke-linecap="round" stroke-linejoin="round"/>
<path d="M79.6901 26.7325C79.6031 26.1198 79.5161 25.5066 79.3383 25.1406C79.1605 24.7745 78.8915 24.6559 78.7099 24.5962C78.5282 24.5365 78.4339 24.5361 74.5881 24.5526C70.7423 24.5692 63.1453 24.6028 59.3172 24.6201C55.489 24.6375 55.43 24.6387 55.3589 24.6452C55.2878 24.6517 55.2047 24.6635 55.0879 24.7248C54.9711 24.7862 54.8207 24.8969 54.6973 25.0629C54.5739 25.2288 54.4804 25.4431 54.432 25.978C54.3836 26.513 54.3817 27.3651 54.3976 27.9869C54.4134 28.6088 54.447 29.0004 54.5746 29.651C54.7021 30.3017 54.9237 31.2112 55.2283 32.121C55.5329 33.0307 55.9206 33.9405 56.5754 34.9143C57.2302 35.8881 58.1519 36.9258 59.0123 37.6958C59.8728 38.4658 60.6718 38.9682 61.0872 39.2192C61.5025 39.4703 61.5341 39.4703 63.402 39.4644C65.2698 39.4584 68.9738 39.4466 70.8415 39.4346C72.7092 39.4227 72.7409 39.4109 73.1422 39.1254C73.5435 38.8399 74.3145 38.2808 75.0442 37.6651C75.7739 37.0493 76.4622 36.3768 77.0911 35.5303C77.72 34.6838 78.2897 33.6632 78.7021 32.7063C79.1146 31.7493 79.3657 30.8706 79.5041 29.8896C79.6425 28.9086 79.6664 27.8168 79.702 27.2509C79.7376 26.685 79.7851 26.6375 80.0424 26.627C80.2997 26.6165 80.7665 26.6428 81.2294 26.7154C81.6923 26.788 82.1511 26.9067 82.4992 27.1165C82.8472 27.3263 83.0846 27.6269 83.2822 27.909C83.4797 28.1911 83.6376 28.4545 83.7528 28.8435C83.868 29.2326 83.9407 29.7473 83.9574 30.2591C83.9742 30.771 83.935 31.2801 83.8231 31.7331C83.7112 32.1862 83.5266 32.5834 83.2385 32.9945C82.9504 33.4056 82.5588 33.8308 82.1225 34.2083C81.6862 34.5859 81.2051 34.916 80.6373 35.2209C80.0695 35.5258 79.415 35.8055 78.7129 35.9957C78.0109 36.1859 77.2613 36.2866 76.5113 36.3874" stroke="black" stroke-width="1.4" stroke-linecap="round"/>
<g filter="url(#filter0_d_17_1046)">
<path d="M99.5744 24.5L96.3471 12.8636H98.1937L100.461 21.875H100.569L102.927 12.8636H104.756L107.114 21.8807H107.222L109.483 12.8636H111.336L108.103 24.5H106.336L103.887 15.7841H103.796L101.347 24.5H99.5744ZM112.8 24.5V15.7727H114.499V24.5H112.8ZM113.658 14.4261C113.363 14.4261 113.109 14.3276 112.897 14.1307C112.689 13.9299 112.584 13.6913 112.584 13.4148C112.584 13.1345 112.689 12.8958 112.897 12.6989C113.109 12.4981 113.363 12.3977 113.658 12.3977C113.954 12.3977 114.206 12.4981 114.414 12.6989C114.626 12.8958 114.732 13.1345 114.732 13.4148C114.732 13.6913 114.626 13.9299 114.414 14.1307C114.206 14.3276 113.954 14.4261 113.658 14.4261ZM118.483 19.3182V24.5H116.785V15.7727H118.415V17.1932H118.523C118.724 16.7311 119.038 16.3598 119.466 16.0795C119.898 15.7992 120.442 15.6591 121.097 15.6591C121.692 15.6591 122.213 15.7841 122.66 16.0341C123.107 16.2803 123.453 16.6477 123.699 17.1364C123.946 17.625 124.069 18.2292 124.069 18.9489V24.5H122.37V19.1534C122.37 18.5208 122.205 18.0265 121.876 17.6705C121.546 17.3106 121.093 17.1307 120.518 17.1307C120.124 17.1307 119.773 17.2159 119.466 17.3864C119.163 17.5568 118.923 17.8068 118.745 18.1364C118.571 18.4621 118.483 18.8561 118.483 19.3182ZM128.046 19.3182V24.5H126.347V15.7727H127.978V17.1932H128.086C128.287 16.7311 128.601 16.3598 129.029 16.0795C129.461 15.7992 130.004 15.6591 130.66 15.6591C131.254 15.6591 131.775 15.7841 132.222 16.0341C132.669 16.2803 133.016 16.6477 133.262 17.1364C133.508 17.625 133.631 18.2292 133.631 18.9489V24.5H131.932V19.1534C131.932 18.5208 131.768 18.0265 131.438 17.6705C131.108 17.3106 130.656 17.1307 130.08 17.1307C129.686 17.1307 129.336 17.2159 129.029 17.3864C128.726 17.5568 128.485 17.8068 128.307 18.1364C128.133 18.4621 128.046 18.8561 128.046 19.3182ZM139.671 24.6761C138.811 24.6761 138.071 24.4924 137.449 24.125C136.832 23.7538 136.355 23.233 136.018 22.5625C135.684 21.8883 135.518 21.0985 135.518 20.1932C135.518 19.2992 135.684 18.5114 136.018 17.8295C136.355 17.1477 136.824 16.6155 137.427 16.233C138.033 15.8504 138.741 15.6591 139.552 15.6591C140.044 15.6591 140.521 15.7405 140.983 15.9034C141.446 16.0663 141.86 16.322 142.228 16.6705C142.595 17.0189 142.885 17.4716 143.097 18.0284C143.309 18.5814 143.415 19.2538 143.415 20.0455V20.6477H136.478V19.375H141.751C141.751 18.928 141.66 18.5322 141.478 18.1875C141.296 17.839 141.04 17.5644 140.711 17.3636C140.385 17.1629 140.002 17.0625 139.563 17.0625C139.086 17.0625 138.669 17.1799 138.313 17.4148C137.961 17.6458 137.688 17.9489 137.495 18.3239C137.305 18.6951 137.211 19.0985 137.211 19.5341V20.5284C137.211 21.1117 137.313 21.608 137.518 22.017C137.726 22.4261 138.016 22.7386 138.387 22.9545C138.758 23.1667 139.192 23.2727 139.688 23.2727C140.01 23.2727 140.304 23.2273 140.569 23.1364C140.834 23.0417 141.063 22.9015 141.256 22.7159C141.449 22.5303 141.597 22.3011 141.699 22.0284L143.307 22.3182C143.179 22.7917 142.947 23.2064 142.614 23.5625C142.285 23.9148 141.87 24.1894 141.37 24.3864C140.874 24.5795 140.307 24.6761 139.671 24.6761ZM145.3 24.5V15.7727H146.942V17.1591H147.033C147.192 16.6894 147.473 16.3201 147.874 16.0511C148.279 15.7784 148.738 15.642 149.249 15.642C149.355 15.642 149.48 15.6458 149.624 15.6534C149.772 15.661 149.887 15.6705 149.971 15.6818V17.3068C149.903 17.2879 149.781 17.267 149.607 17.2443C149.433 17.2178 149.259 17.2045 149.084 17.2045C148.683 17.2045 148.325 17.2898 148.01 17.4602C147.7 17.6269 147.454 17.8598 147.272 18.1591C147.09 18.4545 146.999 18.7917 146.999 19.1705V24.5H145.3ZM159.351 24.6761C158.533 24.6761 157.819 24.4886 157.209 24.1136C156.599 23.7386 156.126 23.214 155.789 22.5398C155.452 21.8655 155.283 21.0776 155.283 20.1761C155.283 19.2708 155.452 18.4792 155.789 17.8011C156.126 17.1231 156.599 16.5966 157.209 16.2216C157.819 15.8466 158.533 15.6591 159.351 15.6591C160.17 15.6591 160.884 15.8466 161.493 16.2216C162.103 16.5966 162.577 17.1231 162.914 17.8011C163.251 18.4792 163.42 19.2708 163.42 20.1761C163.42 21.0776 163.251 21.8655 162.914 22.5398C162.577 23.214 162.103 23.7386 161.493 24.1136C160.884 24.4886 160.17 24.6761 159.351 24.6761ZM159.357 23.25C159.887 23.25 160.327 23.1098 160.675 22.8295C161.024 22.5492 161.281 22.1761 161.448 21.7102C161.618 21.2443 161.704 20.7311 161.704 20.1705C161.704 19.6136 161.618 19.1023 161.448 18.6364C161.281 18.1667 161.024 17.7898 160.675 17.5057C160.327 17.2216 159.887 17.0795 159.357 17.0795C158.823 17.0795 158.38 17.2216 158.028 17.5057C157.679 17.7898 157.42 18.1667 157.249 18.6364C157.082 19.1023 156.999 19.6136 156.999 20.1705C156.999 20.7311 157.082 21.2443 157.249 21.7102C157.42 22.1761 157.679 22.5492 158.028 22.8295C158.38 23.1098 158.823 23.25 159.357 23.25ZM169.469 15.7727V17.1364H164.537V15.7727H169.469ZM165.89 24.5V14.7614C165.89 14.2159 166.009 13.7633 166.248 13.4034C166.486 13.0398 166.803 12.7689 167.197 12.5909C167.59 12.4091 168.019 12.3182 168.481 12.3182C168.822 12.3182 169.113 12.3466 169.356 12.4034C169.598 12.4564 169.778 12.5057 169.895 12.5511L169.498 13.9261C169.418 13.9034 169.316 13.8769 169.191 13.8466C169.066 13.8125 168.914 13.7955 168.736 13.7955C168.323 13.7955 168.028 13.8977 167.85 14.1023C167.676 14.3068 167.589 14.6023 167.589 14.9886V24.5H165.89Z" fill="black"/>
<path d="M96.5488 33.5632V31.1364H106.999V33.5632H103.25V43.5H100.304V33.5632H96.5488ZM111.448 43.6751C110.478 43.6751 109.641 43.4839 108.937 43.1016C108.236 42.7152 107.697 42.1658 107.319 41.4535C106.944 40.7371 106.757 39.8859 106.757 38.8999C106.757 37.942 106.946 37.1049 107.325 36.3885C107.703 35.6681 108.236 35.1087 108.925 34.7102C109.613 34.3078 110.424 34.1065 111.357 34.1065C112.017 34.1065 112.621 34.2092 113.168 34.4144C113.716 34.6197 114.189 34.9235 114.587 35.326C114.986 35.7285 115.296 36.2255 115.517 36.8171C115.738 37.4047 115.849 38.0788 115.849 38.8395V39.576H107.79V37.8615H113.102C113.098 37.5476 113.024 37.2679 112.879 37.0224C112.734 36.7769 112.535 36.5857 112.281 36.4489C112.032 36.308 111.744 36.2376 111.418 36.2376C111.088 36.2376 110.792 36.312 110.53 36.4609C110.269 36.6058 110.061 36.805 109.909 37.0586C109.756 37.3081 109.675 37.5919 109.667 37.9098V39.6545C109.667 40.0328 109.742 40.3648 109.89 40.6506C110.039 40.9323 110.251 41.1516 110.524 41.3086C110.798 41.4656 111.124 41.544 111.502 41.544C111.764 41.544 112.001 41.5078 112.215 41.4354C112.428 41.3629 112.611 41.2563 112.764 41.1154C112.917 40.9745 113.032 40.8015 113.108 40.5962L115.819 40.6747C115.706 41.2824 115.459 41.8117 115.076 42.2624C114.698 42.7092 114.201 43.0573 113.585 43.3068C112.969 43.5523 112.257 43.6751 111.448 43.6751ZM119.971 43.657C119.379 43.657 118.854 43.5584 118.395 43.3611C117.94 43.1599 117.58 42.8581 117.314 42.4556C117.053 42.0491 116.922 41.54 116.922 40.9283C116.922 40.4131 117.013 39.9785 117.194 39.6243C117.375 39.2701 117.624 38.9824 117.942 38.761C118.26 38.5397 118.626 38.3726 119.041 38.2599C119.455 38.1432 119.898 38.0647 120.369 38.0245C120.896 37.9762 121.321 37.9259 121.643 37.8736C121.965 37.8172 122.198 37.7388 122.343 37.6381C122.492 37.5335 122.566 37.3866 122.566 37.1974V37.1673C122.566 36.8574 122.46 36.6179 122.247 36.4489C122.033 36.2798 121.745 36.1953 121.383 36.1953C120.993 36.1953 120.679 36.2798 120.441 36.4489C120.204 36.6179 120.053 36.8513 119.989 37.1491L117.266 37.0526C117.347 36.4891 117.554 35.986 117.888 35.5433C118.226 35.0966 118.689 34.7464 119.276 34.4929C119.868 34.2353 120.578 34.1065 121.407 34.1065C121.999 34.1065 122.544 34.177 123.043 34.3178C123.542 34.4547 123.977 34.6559 124.347 34.9215C124.718 35.1831 125.003 35.5051 125.205 35.8874C125.41 36.2698 125.513 36.7064 125.513 37.1974V43.5H122.736V42.2081H122.663C122.498 42.522 122.287 42.7876 122.029 43.005C121.776 43.2223 121.476 43.3853 121.13 43.494C120.788 43.6026 120.401 43.657 119.971 43.657ZM120.882 41.7251C121.2 41.7251 121.486 41.6607 121.739 41.532C121.997 41.4032 122.202 41.2261 122.355 41.0007C122.508 40.7713 122.585 40.5057 122.585 40.2038V39.3224C122.5 39.3667 122.397 39.407 122.277 39.4432C122.16 39.4794 122.031 39.5136 121.89 39.5458C121.749 39.578 121.605 39.6062 121.456 39.6303C121.307 39.6545 121.164 39.6766 121.027 39.6967C120.749 39.741 120.512 39.8094 120.315 39.902C120.122 39.9946 119.973 40.1153 119.868 40.2642C119.767 40.4091 119.717 40.5821 119.717 40.7834C119.717 41.0892 119.826 41.3227 120.043 41.4837C120.264 41.6446 120.544 41.7251 120.882 41.7251ZM138.54 35.6158H135.522C135.481 35.3059 135.399 35.0262 135.274 34.7766C135.149 34.5271 134.984 34.3138 134.779 34.1367C134.574 33.9596 134.33 33.8248 134.049 33.7322C133.771 33.6357 133.463 33.5874 133.125 33.5874C132.525 33.5874 132.008 33.7343 131.574 34.0281C131.143 34.3218 130.811 34.7464 130.577 35.3018C130.348 35.8572 130.233 36.5294 130.233 37.3182C130.233 38.1392 130.35 38.8274 130.584 39.3828C130.821 39.9342 131.153 40.3507 131.58 40.6325C132.01 40.9102 132.519 41.049 133.107 41.049C133.437 41.049 133.737 41.0067 134.006 40.9222C134.28 40.8377 134.52 40.715 134.725 40.554C134.934 40.389 135.105 40.1897 135.238 39.9563C135.375 39.7189 135.469 39.4512 135.522 39.1534L138.54 39.1715C138.488 39.7189 138.329 40.2582 138.063 40.7894C137.802 41.3207 137.441 41.8056 136.983 42.2443C136.524 42.679 135.964 43.0251 135.304 43.2827C134.648 43.5402 133.896 43.669 133.047 43.669C131.928 43.669 130.926 43.4235 130.04 42.9325C129.159 42.4375 128.463 41.7171 127.951 40.7713C127.44 39.8255 127.185 38.6745 127.185 37.3182C127.185 35.9579 127.444 34.8048 127.964 33.859C128.483 32.9132 129.185 32.1948 130.07 31.7038C130.956 31.2128 131.948 30.9673 133.047 30.9673C133.795 30.9673 134.487 31.072 135.123 31.2812C135.759 31.4865 136.319 31.7884 136.802 32.1868C137.285 32.5812 137.677 33.0662 137.979 33.6417C138.281 34.2172 138.468 34.8752 138.54 35.6158ZM144.579 43.6751C143.605 43.6751 142.768 43.4758 142.067 43.0774C141.371 42.6749 140.834 42.1155 140.455 41.3991C140.081 40.6787 139.894 39.8436 139.894 38.8938C139.894 37.94 140.081 37.1049 140.455 36.3885C140.834 35.6681 141.371 35.1087 142.067 34.7102C142.768 34.3078 143.605 34.1065 144.579 34.1065C145.553 34.1065 146.388 34.3078 147.084 34.7102C147.784 35.1087 148.322 35.6681 148.696 36.3885C149.074 37.1049 149.263 37.94 149.263 38.8938C149.263 39.8436 149.074 40.6787 148.696 41.3991C148.322 42.1155 147.784 42.6749 147.084 43.0774C146.388 43.4758 145.553 43.6751 144.579 43.6751ZM144.597 41.4474C144.951 41.4474 145.251 41.3388 145.496 41.1214C145.742 40.9041 145.929 40.6023 146.058 40.2159C146.191 39.8295 146.257 39.3828 146.257 38.8757C146.257 38.3606 146.191 37.9098 146.058 37.5234C145.929 37.1371 145.742 36.8352 145.496 36.6179C145.251 36.4006 144.951 36.2919 144.597 36.2919C144.231 36.2919 143.921 36.4006 143.667 36.6179C143.418 36.8352 143.226 37.1371 143.094 37.5234C142.965 37.9098 142.9 38.3606 142.9 38.8757C142.9 39.3828 142.965 39.8295 143.094 40.2159C143.226 40.6023 143.418 40.9041 143.667 41.1214C143.921 41.3388 144.231 41.4474 144.597 41.4474ZM153.728 38.2116V43.5H150.776V34.2273H153.583V35.9297H153.685C153.891 35.3622 154.241 34.9175 154.736 34.5955C155.231 34.2695 155.82 34.1065 156.505 34.1065C157.157 34.1065 157.722 34.2534 158.201 34.5472C158.684 34.837 159.058 35.2435 159.324 35.7667C159.593 36.2859 159.726 36.8936 159.722 37.5898V43.5H156.77V38.1694C156.774 37.6542 156.643 37.2518 156.378 36.962C156.116 36.6722 155.752 36.5273 155.285 36.5273C154.975 36.5273 154.702 36.5958 154.464 36.7326C154.231 36.8654 154.05 37.0566 153.921 37.3061C153.796 37.5556 153.732 37.8575 153.728 38.2116ZM165.178 43.5V41.3508L169.688 37.4027C170.026 37.0968 170.314 36.8171 170.551 36.5636C170.788 36.306 170.97 36.0484 171.094 35.7908C171.219 35.5292 171.281 35.2455 171.281 34.9396C171.281 34.5975 171.207 34.3058 171.058 34.0643C170.909 33.8188 170.704 33.6296 170.442 33.4968C170.181 33.364 169.881 33.2976 169.543 33.2976C169.201 33.2976 168.901 33.368 168.643 33.5089C168.386 33.6457 168.185 33.8449 168.04 34.1065C167.899 34.3681 167.828 34.6861 167.828 35.0604H164.997C164.997 34.2192 165.186 33.4928 165.565 32.881C165.943 32.2693 166.474 31.7984 167.158 31.4684C167.846 31.1344 168.645 30.9673 169.555 30.9673C170.493 30.9673 171.308 31.1243 172 31.4382C172.692 31.7521 173.227 32.1908 173.606 32.7543C173.988 33.3137 174.179 33.9637 174.179 34.7042C174.179 35.1751 174.085 35.6419 173.895 36.1048C173.706 36.5676 173.366 37.0787 172.875 37.6381C172.388 38.1976 171.696 38.8677 170.799 39.6484L169.319 41.0128V41.0913H174.33V43.5H165.178ZM181.132 43.8018C180.054 43.8018 179.124 43.5463 178.343 43.0352C177.562 42.52 176.961 41.7815 176.538 40.8196C176.116 39.8537 175.906 38.6926 175.91 37.3363C175.914 35.98 176.126 34.829 176.544 33.8832C176.967 32.9334 177.566 32.2109 178.343 31.7159C179.124 31.2169 180.054 30.9673 181.132 30.9673C182.211 30.9673 183.141 31.2169 183.921 31.7159C184.706 32.2109 185.31 32.9334 185.732 33.8832C186.155 34.833 186.364 35.984 186.36 37.3363C186.36 38.6966 186.149 39.8597 185.726 40.8256C185.304 41.7915 184.702 42.5301 183.921 43.0412C183.145 43.5483 182.215 43.8018 181.132 43.8018ZM181.132 41.3569C181.776 41.3569 182.297 41.0289 182.696 40.3729C183.094 39.7128 183.291 38.7006 183.287 37.3363C183.287 36.4428 183.197 35.7063 183.016 35.1268C182.835 34.5432 182.583 34.1085 182.261 33.8228C181.939 33.537 181.563 33.3942 181.132 33.3942C180.492 33.3942 179.975 33.7182 179.581 34.3661C179.186 35.0101 178.987 36.0001 178.983 37.3363C178.979 38.2418 179.066 38.9924 179.243 39.5881C179.424 40.1837 179.677 40.6284 180.003 40.9222C180.329 41.212 180.706 41.3569 181.132 41.3569ZM188.072 43.5V41.3508L192.581 37.4027C192.919 37.0968 193.207 36.8171 193.445 36.5636C193.682 36.306 193.863 36.0484 193.988 35.7908C194.113 35.5292 194.175 35.2455 194.175 34.9396C194.175 34.5975 194.101 34.3058 193.952 34.0643C193.803 33.8188 193.598 33.6296 193.336 33.4968C193.074 33.364 192.774 33.2976 192.436 33.2976C192.094 33.2976 191.794 33.368 191.537 33.5089C191.279 33.6457 191.078 33.8449 190.933 34.1065C190.792 34.3681 190.722 34.6861 190.722 35.0604H187.891C187.891 34.2192 188.08 33.4928 188.458 32.881C188.836 32.2693 189.368 31.7984 190.052 31.4684C190.74 31.1344 191.539 30.9673 192.448 30.9673C193.386 30.9673 194.201 31.1243 194.893 31.4382C195.586 31.7521 196.121 32.1908 196.499 32.7543C196.882 33.3137 197.073 33.9637 197.073 34.7042C197.073 35.1751 196.978 35.6419 196.789 36.1048C196.6 36.5676 196.26 37.0787 195.769 37.6381C195.282 38.1976 194.59 38.8677 193.692 39.6484L192.213 41.0128V41.0913H197.224V43.5H188.072ZM204.629 31.1364V43.5H201.647V33.9254H201.575L198.81 35.6158V33.032L201.859 31.1364H204.629ZM217.246 28.965H223.026V31.175H219.677V39.76H217.246V28.965ZM225.117 30.648H238.819V33.232H225.117V30.648ZM224.148 41.511H239.839V44.01H224.148V41.511ZM230.455 32.093H233.294V42.497H230.455V32.093ZM247.013 35.748H255.972V37.873H247.013V35.748ZM250.515 36.326H252.861V41.766H250.515V36.326ZM245.772 32.654L248.577 33.181C248.566 33.3623 248.401 33.4757 248.084 33.521V35.476C248.084 35.918 248.061 36.4167 248.016 36.972C247.971 37.5273 247.886 38.0997 247.761 38.689C247.636 39.2783 247.455 39.8563 247.217 40.423C246.979 40.9897 246.667 41.5053 246.282 41.97C246.18 41.7887 246.021 41.5903 245.806 41.375C245.602 41.1597 245.381 40.9557 245.143 40.763C244.916 40.5703 244.712 40.4287 244.531 40.338C244.905 39.8393 245.177 39.3067 245.347 38.74C245.528 38.162 245.642 37.5897 245.687 37.023C245.744 36.445 245.772 35.9067 245.772 35.408V32.654ZM253.269 32.11L255.105 33.81C254.323 34.0367 253.479 34.235 252.572 34.405C251.665 34.5637 250.742 34.6997 249.801 34.813C248.872 34.915 247.971 35 247.098 35.068C247.053 34.8187 246.968 34.5127 246.843 34.15C246.73 33.7873 246.611 33.4927 246.486 33.266C247.098 33.2093 247.716 33.1413 248.339 33.062C248.962 32.9827 249.569 32.8977 250.158 32.807C250.759 32.705 251.325 32.5973 251.858 32.484C252.391 32.3593 252.861 32.2347 253.269 32.11ZM241.726 29.696H256.482V32.025H244.191V45.149H241.726V29.696ZM243.273 42.157H256.907V44.486H243.273V42.157ZM263.656 45.115H257.876V42.905H261.225V34.32H263.656V45.115Z" fill="black"/>
</g>
<path d="M294.861 8.66923C295.134 10.2293 295.522 11.2992 296.187 12.2882C296.634 12.9574 297.129 13.4177 297.713 13.7076C298.369 14.0401 298.919 14.1381 299.136 13.9676C299.196 13.9207 299.29 13.8824 299.35 13.8824C299.546 13.8824 299.563 13.8099 299.537 13.0853C299.516 12.3265 299.439 11.9685 299.192 11.4271C298.608 10.1739 297.393 9.16369 295.339 8.23871C295.049 8.10657 294.797 8.00001 294.78 8.00001C294.763 8.00001 294.797 8.30265 294.861 8.66923Z" fill="black"/>
<path d="M301.327 9.75618C300.249 11.7852 299.904 13.4561 300.296 14.7945C300.564 15.7238 301.344 16.8661 301.703 16.8661C301.903 16.8661 302.355 16.2694 302.687 15.5661C302.977 14.9565 303.062 14.543 303.067 13.7545C303.067 12.902 302.93 12.2498 302.551 11.2737C302.376 10.8176 301.694 9.42796 301.617 9.36402C301.575 9.32992 301.506 9.4237 301.327 9.75618Z" fill="black"/>
<path d="M295.671 13.4859C295.671 13.503 295.756 13.8269 295.863 14.202C296.596 16.7809 297.922 18.5456 299.405 18.9292C300.091 19.104 300.466 19.0997 300.624 18.9164C300.662 18.8696 300.765 18.8184 300.85 18.8014C300.935 18.7886 301.016 18.7459 301.029 18.7118C301.042 18.682 301.029 18.4476 301.004 18.1918C300.859 16.7894 300.321 15.8815 299.115 14.9864C298.297 14.3768 297.466 14.006 295.769 13.4817C295.714 13.4646 295.671 13.4646 295.671 13.4859Z" fill="black"/>
<path d="M304.175 15.6513C303.216 16.8704 302.683 17.8125 302.423 18.763C302.291 19.2362 302.24 20.127 302.316 20.5405C302.427 21.133 302.704 21.815 303.037 22.318C303.182 22.5396 303.19 22.5439 303.352 22.5226C303.591 22.4885 303.812 22.3265 304.119 21.9599C304.708 21.2524 305.044 20.5746 305.228 19.7221C305.347 19.185 305.351 18.1535 305.245 17.4842C305.108 16.6402 304.712 15.1185 304.627 15.1185C304.605 15.1185 304.405 15.3572 304.175 15.6513Z" fill="black"/>
<path d="M298.544 18.8994C298.557 19.0145 298.578 19.3811 298.591 19.7221C298.668 21.5635 299.017 22.8039 299.767 23.9037C300.232 24.5814 301.004 25.191 301.634 25.3743C301.843 25.4382 301.877 25.4382 302.009 25.3743C302.086 25.3359 302.197 25.3061 302.252 25.3061C302.312 25.3061 302.368 25.272 302.385 25.2293C302.457 25.0375 302.542 24.5175 302.564 24.1125C302.636 22.7101 301.992 21.4186 300.624 20.2208C299.878 19.5686 298.706 18.6991 298.578 18.6991C298.54 18.6991 298.531 18.7545 298.544 18.8994Z" fill="black"/>
<path d="M306.404 21.6573C304.665 22.6974 303.676 23.6309 303.147 24.7306C302.849 25.3615 302.811 25.5533 302.815 26.4356C302.819 27.0452 302.836 27.2668 302.9 27.5226C302.977 27.8252 302.99 27.8423 303.109 27.8551C303.182 27.8636 303.254 27.8892 303.28 27.9105C303.425 28.0511 304.03 27.838 304.558 27.4629C305.279 26.9471 305.995 25.9241 306.361 24.8798C306.609 24.1637 306.809 23.1449 306.86 22.3222C306.873 22.1006 306.894 21.798 306.907 21.6488C306.916 21.5038 306.911 21.3845 306.894 21.3845C306.877 21.3845 306.656 21.5081 306.404 21.6573Z" fill="black"/>
<path d="M298.808 23.7758C298.761 23.9164 298.57 24.9395 298.501 25.4126C298.403 26.0946 298.403 27.237 298.497 27.7613C298.685 28.8013 299.115 29.6453 299.827 30.3572C300.321 30.8559 300.483 30.9539 300.803 30.9539H301.063L301.178 30.7408C301.379 30.3785 301.587 29.6667 301.643 29.1594C301.783 27.8636 301.229 26.4527 299.976 24.9309C299.486 24.3384 298.838 23.6905 298.808 23.7758Z" fill="black"/>
<path d="M306.933 27.5013C305.603 27.7144 304.58 28.0043 303.911 28.3495C302.956 28.844 302.257 29.5985 301.86 30.5533C301.72 30.89 301.528 31.7425 301.566 31.8491C301.579 31.8789 301.668 31.9301 301.758 31.9557C301.856 31.9812 301.958 32.0452 301.997 32.1006C302.099 32.2583 302.321 32.3137 302.764 32.2839C304.158 32.1901 305.275 31.3973 306.443 29.6709C306.877 29.023 307.696 27.3862 307.576 27.399C307.559 27.4032 307.269 27.4459 306.933 27.5013Z" fill="black"/>
<path d="M297.747 28.9548C297.7 29.0401 297.376 30.0887 297.278 30.4851C297.039 31.4271 297.014 31.6317 297.018 32.5524C297.018 33.3623 297.027 33.4561 297.133 33.844C297.329 34.5686 297.794 35.3785 298.348 35.9454C298.646 36.2524 298.804 36.3461 299.017 36.3461C299.175 36.3461 299.2 36.3291 299.333 36.1287C299.686 35.5874 299.938 34.8883 300.023 34.2191C300.181 32.9233 299.571 31.2651 298.31 29.59C297.883 29.0188 297.781 28.9037 297.747 28.9548Z" fill="black"/>
<path d="M295.155 32.7315C294.571 33.8142 294.234 34.6922 294.051 35.5831C293.928 36.1671 293.949 37.1262 294.09 37.6249C294.341 38.5115 295.142 39.7136 295.475 39.7136C295.59 39.7136 295.965 39.3001 296.221 38.8824C296.489 38.4561 296.711 37.9318 296.813 37.4885C296.92 37.0196 296.907 35.9028 296.792 35.3657C296.681 34.8755 296.481 34.2362 296.28 33.746C296.114 33.3368 295.62 32.3137 295.535 32.1986C295.483 32.1347 295.441 32.1944 295.155 32.7315Z" fill="black"/>
<path d="M305.304 32.1986C304.746 32.2327 303.932 32.3436 303.544 32.4416C302.129 32.8039 301.025 33.682 300.488 34.8755C300.385 35.1057 300.147 35.792 300.147 35.8602C300.147 35.8687 300.249 35.9241 300.373 35.9795C300.492 36.0349 300.637 36.1373 300.688 36.2055C300.82 36.393 301.097 36.4484 301.719 36.4186C302.815 36.3674 303.731 35.9156 304.712 34.9437C305.283 34.3725 305.773 33.7374 306.242 32.9488C306.464 32.5823 306.664 32.254 306.681 32.2242C306.707 32.1816 306.596 32.1688 306.127 32.1773C305.803 32.1816 305.432 32.1901 305.304 32.1986Z" fill="black"/>
<path d="M292.325 35.7153C290.731 37.2583 290.002 38.4945 289.891 39.8329C289.84 40.451 290.023 41.3419 290.334 41.9727L290.492 42.2924H290.748C290.969 42.2924 291.033 42.2711 291.217 42.1432C291.911 41.6658 292.623 40.6513 292.913 39.7349C293.148 38.9804 293.177 38.7502 293.177 37.5823C293.177 36.653 293.16 36.4015 293.075 35.8559C293.02 35.5021 292.96 35.1995 292.943 35.1824C292.926 35.1611 292.645 35.3998 292.325 35.7153Z" fill="black"/>
<path d="M300.479 36.6701C299.264 36.8576 298.582 37.156 297.917 37.7911C297.568 38.1236 297.325 38.4348 297.061 38.8866C296.788 39.3598 296.788 39.3512 297.078 39.5345C297.218 39.6198 297.346 39.7263 297.359 39.7647C297.465 40.1014 298.506 40.3401 299.358 40.2293C299.831 40.1654 300.535 39.9352 300.957 39.705C301.788 39.2532 302.824 38.4135 303.143 37.9403C303.25 37.7783 303.476 37.497 303.642 37.3095C303.808 37.1262 303.936 36.9685 303.928 36.9599C303.919 36.9514 303.642 36.896 303.318 36.8363C301.933 36.5933 301.221 36.5507 300.479 36.6701Z" fill="black"/>
<path d="M288.744 39.0273C286.468 39.5516 285.125 40.2634 284.375 41.3546C284.013 41.8832 283.714 42.7613 283.663 43.4476L283.638 43.7928L283.787 43.8227C283.872 43.8355 284 43.9079 284.077 43.9804L284.213 44.1168L284.648 44.0955C285.368 44.0614 286.059 43.78 286.728 43.2515C287.312 42.7911 288.096 41.7596 288.608 40.7792C288.825 40.37 289.277 39.2788 289.345 39.0145C289.379 38.8781 289.396 38.8781 288.744 39.0273Z" fill="black"/>
<path d="M295.607 40.272C294.878 40.3743 294.051 40.7707 293.476 41.3035C293.156 41.5934 292.73 42.0963 292.73 42.1773C292.73 42.2029 292.845 42.3223 292.985 42.4459C293.126 42.5695 293.254 42.7144 293.267 42.7698C293.318 42.9659 293.774 43.2259 294.379 43.405C295.419 43.7076 296.634 43.5158 297.981 42.8338C298.757 42.4416 299.128 42.1944 299.277 41.9685C299.345 41.8662 299.571 41.6488 299.776 41.4825C300.027 41.2822 300.13 41.1756 300.091 41.1543C300.061 41.1373 299.729 41.0094 299.354 40.8687C298.578 40.5831 297.994 40.4126 297.465 40.3274C296.984 40.2507 295.982 40.2208 295.607 40.272Z" fill="black"/>
<path d="M290.07 42.8934C289.682 42.9787 289.286 43.1321 288.894 43.341C288.514 43.5456 288.088 43.8525 288.084 43.9165C288.084 43.942 288.194 44.1168 288.331 44.3086C288.463 44.5004 288.621 44.7349 288.68 44.8329C288.872 45.1483 289.512 45.6215 290.036 45.8346C291.029 46.2353 292.21 46.2481 293.689 45.8772C294.371 45.7025 294.563 45.6172 294.644 45.451C294.682 45.3657 294.78 45.2975 294.985 45.208C295.138 45.1398 295.321 45.0588 295.39 45.029L295.513 44.9736L295.061 44.6454C293.727 43.6735 292.909 43.2387 291.877 42.9702C291.349 42.8295 290.505 42.7954 290.07 42.8934Z" fill="black"/>
<path d="M284.695 44.688C284.533 44.7221 284.252 44.8073 284.077 44.8755C283.761 44.9949 283.122 45.3359 283.024 45.4382C282.947 45.5149 283.574 46.5209 283.906 46.8619C284.379 47.3478 284.972 47.6846 285.718 47.8849C286.119 47.9915 286.2 48 287.082 48C287.875 48 288.101 47.9872 288.552 47.902C289.171 47.7911 289.448 47.6846 289.448 47.5652C289.448 47.4714 289.593 47.3905 289.98 47.2754C290.121 47.2327 290.249 47.1858 290.27 47.1731C290.304 47.1432 289.422 46.3717 288.902 45.9795C287.964 45.2805 287.061 44.8457 286.208 44.6837C285.773 44.5985 285.091 44.6027 284.695 44.688Z" fill="black"/>
<defs>
<filter id="filter0_d_17_1046" x="90.4176" y="3.9" width="190.2" height="48.2" filterUnits="userSpaceOnUse" color-interpolation-filters="sRGB">
<feFlood flood-opacity="0" result="BackgroundImageFix"/>
<feColorMatrix in="SourceAlpha" type="matrix" values="0 0 0 0 0 0 0 0 0 0 0 0 0 0 0 0 0 0 127 0" result="hardAlpha"/>
<feOffset/>
<feGaussianBlur stdDeviation="2.8"/>
<feComposite in2="hardAlpha" operator="out"/>
<feColorMatrix type="matrix" values="0 0 0 0 0 0 0 0 0 0 0 0 0 0 0 0 0 0 0.25 0"/>
<feBlend mode="normal" in2="BackgroundImageFix" result="effect1_dropShadow_17_1046"/>
<feBlend mode="normal" in="SourceGraphic" in2="effect1_dropShadow_17_1046" result="shape"/>
</filter>
<linearGradient id="paint0_linear_17_1046" x1="161.5" y1="0" x2="161.5" y2="56" gradientUnits="userSpaceOnUse">
<stop stop-color="#73E280"/>
<stop offset="1" stop-color="#11A304"/>
</linearGradient>
</defs>
</svg>
