<svg width="353" height="56" viewBox="0 0 353 56" fill="none" xmlns="http://www.w3.org/2000/svg">
<rect width="353" height="56" rx="8" fill="url(#paint0_linear_17_3090)"/>
<rect x="1.05" y="1.05" width="350.9" height="53.9" rx="6.95" stroke="white" stroke-opacity="0.15" stroke-width="2.1"/>
<path d="M27.283 8.18344C25.2283 9.10424 23.9707 10.106 23.3696 11.2997C23.0883 11.8624 22.9305 12.5828 22.939 13.2521C22.9476 13.7679 22.9732 13.8532 23.1266 13.8702C23.1948 13.8787 23.2971 13.9214 23.3526 13.9683C23.5657 14.1345 24.1241 14.0322 24.7721 13.704C25.9444 13.1157 26.8993 11.6961 27.4066 9.78631C27.5047 9.41544 27.7519 8.14934 27.7519 8.01293C27.7519 7.97882 27.6837 8.0044 27.283 8.18344Z" fill="black"/>
<path d="M20.637 9.79911C19.2303 12.4379 19.0512 14.3477 20.0615 16.0529C20.3088 16.4706 20.5987 16.8117 20.7436 16.8458C20.9013 16.8884 21.1187 16.7221 21.4129 16.3257C22.7259 14.5779 22.696 12.8045 21.3021 10.008C21.1145 9.62859 20.944 9.31739 20.9269 9.31739C20.9099 9.31739 20.7777 9.53481 20.637 9.79911Z" fill="black"/>
<path d="M26.2684 13.623C25.4073 13.9001 24.9469 14.0876 24.3842 14.3775C23.2204 14.9786 22.3593 15.7587 21.933 16.607C21.6559 17.157 21.4854 17.8817 21.4854 18.504V18.7726L21.6388 18.7982C21.7198 18.8152 21.8221 18.8664 21.8605 18.9133C21.9884 19.0582 22.2143 19.0923 22.6363 19.0199C23.4378 18.8792 23.9707 18.6064 24.5675 18.0266C25.484 17.1399 26.1618 15.8738 26.6478 14.1686C26.7416 13.8319 26.8268 13.5334 26.8354 13.5036C26.8609 13.4354 26.8652 13.4311 26.2684 13.623Z" fill="black"/>
<path d="M17.6572 15.7417C16.9155 18.3548 17.0221 20.0344 18.0196 21.4966C18.4757 22.1702 18.8892 22.5325 19.1962 22.5325C19.2942 22.5325 19.3454 22.4814 19.5116 22.2213C19.6225 22.0551 19.7887 21.7439 19.8782 21.535C20.6498 19.7488 20.1809 17.9712 18.3308 15.6479C18.0963 15.3537 17.8874 15.115 17.8704 15.115C17.8491 15.115 17.751 15.3964 17.6572 15.7417Z" fill="black"/>
<path d="M23.425 19.0028C22.2697 19.8298 21.2935 20.7123 20.8118 21.3602C20.5304 21.7396 20.1894 22.4174 20.0785 22.8309C19.8995 23.496 19.8952 24.2718 20.0572 25.0008C20.1212 25.2736 20.1382 25.3035 20.2277 25.3035C20.2874 25.3035 20.3983 25.3333 20.475 25.3717C20.6072 25.4356 20.6413 25.4356 20.8501 25.3717C21.4555 25.1926 22.2185 24.6086 22.6875 23.9521C23.5699 22.7286 23.8768 21.4668 23.9578 18.7257C23.9578 18.649 23.8214 18.7215 23.425 19.0028Z" fill="black"/>
<path d="M15.6195 21.9656C15.6919 23.351 15.952 24.5574 16.3868 25.4953C16.7321 26.237 17.3843 27.0683 17.9257 27.4562C18.4543 27.8356 19.1065 28.0616 19.2046 27.9039C19.2174 27.8783 19.2856 27.8612 19.3538 27.8612C19.5073 27.8612 19.5371 27.8101 19.6352 27.3497C19.7503 26.8168 19.7375 25.8704 19.6138 25.41C19.3026 24.2548 18.3946 23.1677 16.8983 22.1574C16.5786 21.9443 15.6493 21.3815 15.6152 21.3815C15.6024 21.3815 15.6024 21.6458 15.6195 21.9656Z" fill="black"/>
<path d="M23.2928 24.0757C22.5212 24.8686 22.031 25.5081 21.4939 26.4118C21.1486 26.9958 20.8928 27.8527 20.8587 28.5518C20.8203 29.3149 20.9652 30.0225 21.302 30.6918L21.447 30.9817L21.6985 30.9646C21.886 30.9518 21.9926 30.9135 22.129 30.8197C22.8495 30.3252 23.5614 29.3319 23.8427 28.4324C24.1752 27.3752 24.1625 25.9898 23.8001 24.2675C23.7404 23.9691 23.6765 23.7262 23.6637 23.7262C23.6466 23.7262 23.4804 23.8839 23.2928 24.0757Z" fill="black"/>
<path d="M14.9332 27.4946C14.9758 27.6822 15.5598 28.8886 15.7943 29.2723C16.9751 31.2162 18.237 32.1838 19.7205 32.2819C20.1596 32.3117 20.3855 32.2563 20.4878 32.1028C20.5219 32.0474 20.6327 31.9835 20.7478 31.9536L20.9439 31.8982L20.9141 31.6126C20.8544 30.9433 20.4921 30.0822 20.0359 29.5067C19.1706 28.4239 17.8746 27.8527 15.4405 27.4818L14.9119 27.4051L14.9332 27.4946Z" fill="black"/>
<path d="M24.3798 29.3447C22.4743 31.7874 22.0054 33.8336 22.9219 35.6965C23.0072 35.867 23.1308 36.0844 23.1947 36.174C23.3013 36.3189 23.3439 36.3445 23.4718 36.3445C23.6892 36.3445 23.8171 36.2635 24.1795 35.8841C25.518 34.4816 25.842 32.7849 25.2154 30.4232C25.0534 29.8264 24.7678 28.927 24.7337 28.927C24.7166 28.927 24.5589 29.1145 24.3798 29.3447Z" fill="black"/>
<path d="M26.669 32.7721C25.4754 35.1978 25.2878 36.8987 26.0467 38.4546C26.4218 39.2305 26.8609 39.7548 27.0825 39.6952C27.2147 39.6611 27.4961 39.3712 27.7263 39.0344C28.7877 37.4486 28.8218 35.9608 27.8499 33.7441C27.641 33.2666 27.0442 32.1242 27.0058 32.1242C26.9973 32.1242 26.8481 32.4183 26.669 32.7721Z" fill="black"/>
<path d="M15.8156 32.1796C15.8156 32.1924 15.9264 32.3927 16.0671 32.6229C16.2035 32.8531 16.3953 33.1814 16.4934 33.3519C16.8983 34.051 17.9087 35.1679 18.5438 35.6155C19.2856 36.1399 19.9677 36.3829 20.7819 36.417C21.4 36.4425 21.6174 36.3956 21.805 36.1953C21.8732 36.1143 22.0267 36.012 22.1375 35.9651C22.2483 35.9182 22.3379 35.85 22.3379 35.8201C22.3379 35.6965 22.1119 35.0784 21.9542 34.7587C21.5492 33.9444 21.0632 33.4286 20.2831 32.981C19.5712 32.5718 18.9701 32.3842 18.011 32.2734C17.4397 32.2052 15.8156 32.1327 15.8156 32.1796Z" fill="black"/>
<path d="M29.5253 35.266C29.3846 35.9651 29.3164 36.6898 29.3121 37.5594C29.3079 38.7829 29.4315 39.4692 29.8024 40.2962C30.1008 40.9655 30.7658 41.8011 31.2688 42.1421C31.4393 42.2615 31.5331 42.2913 31.7463 42.3041L32.0106 42.3211L32.1129 42.1165C32.6031 41.1446 32.7395 39.9424 32.4624 39.0088C32.2493 38.2884 31.8869 37.6404 31.2603 36.856C30.9832 36.5065 29.6446 35.1509 29.5807 35.1509C29.5636 35.1509 29.5381 35.202 29.5253 35.266Z" fill="black"/>
<path d="M20.1212 36.6855C19.8271 36.7282 19.3624 36.8006 19.0811 36.8518C18.804 36.8987 18.5695 36.9413 18.5567 36.9413C18.5482 36.9413 18.6974 37.1203 18.8893 37.3378C19.0811 37.5552 19.29 37.828 19.3539 37.9474C19.4264 38.0795 19.6267 38.2969 19.891 38.5314C21.5408 39.9936 23.0712 40.5179 24.5334 40.13C24.8446 40.049 24.8957 40.0192 25.1089 39.8017C25.2368 39.6696 25.4158 39.5246 25.5054 39.4778C25.7014 39.3754 25.6972 39.3328 25.4457 38.8852C24.8361 37.8067 23.9238 37.0948 22.8069 36.8219C21.8776 36.5917 21.0591 36.5534 20.1212 36.6855Z" fill="black"/>
<path d="M33.1232 38.9193C33.1232 39.0216 33.7029 40.4071 33.9118 40.8078C35.0031 42.9052 36.3417 44.0221 37.838 44.0945L38.2685 44.1116L38.4007 43.9837C38.4774 43.9112 38.6053 43.8387 38.6863 43.8217C38.7673 43.8089 38.8483 43.7791 38.8568 43.7577C38.8696 43.7407 38.8568 43.5446 38.8313 43.3272C38.7417 42.5812 38.4689 41.8437 38.0938 41.3151C37.8593 40.9826 37.3179 40.4668 36.9598 40.2323C36.265 39.7719 35.212 39.3669 33.9331 39.0685C33.2084 38.9022 33.1232 38.8852 33.1232 38.9193Z" fill="black"/>
<path d="M25.4627 40.2664C24.9512 40.3218 24.478 40.4241 23.894 40.6117C23.2417 40.8206 22.4062 41.1446 22.3934 41.1914C22.3891 41.2085 22.5511 41.3492 22.7515 41.4984C22.9774 41.6689 23.1394 41.8266 23.1692 41.9034C23.2417 42.0781 23.3568 42.1762 23.7703 42.432C25.0066 43.195 26.2386 43.5872 27.2617 43.5361C28.0674 43.4934 28.9669 43.1609 29.18 42.8242C29.2354 42.7389 29.3974 42.5599 29.5466 42.4277L29.8152 42.1932L29.6361 41.9588C29.0308 41.1573 28.1654 40.5691 27.2787 40.3516C26.861 40.2493 25.9956 40.211 25.4627 40.2664Z" fill="black"/>
<path d="M30.8851 42.9052C30.024 43.0885 29.1586 43.4721 28.2506 44.0775C27.2702 44.734 26.9078 45.0409 27.1167 45.0409C27.1423 45.0409 27.3 45.1048 27.4748 45.1858C27.7007 45.2881 27.803 45.3649 27.8414 45.4501C27.9224 45.6164 28.1142 45.7017 28.7963 45.8764C30.2542 46.243 31.3839 46.2345 32.4028 45.8551C32.9314 45.6548 33.5793 45.1773 33.8308 44.7979C33.9204 44.6658 34.0951 44.4142 34.2188 44.2352C34.4873 43.8643 34.5001 43.907 33.9971 43.5702C33.5964 43.3016 33.1786 43.1098 32.7182 42.9691C32.1981 42.8156 31.4479 42.7901 30.8851 42.9052Z" fill="black"/>
<path d="M36.1285 44.7169C35.5232 44.8619 35.067 45.0537 34.3423 45.4757C33.7711 45.8082 32.1767 47.0956 32.2492 47.1681C32.2663 47.1809 32.4453 47.2491 32.6457 47.3216C32.9569 47.4281 33.0208 47.4665 33.0293 47.5475C33.0507 47.6925 33.2979 47.7862 33.9331 47.9056C34.385 47.9866 34.6066 48.0036 35.4038 47.9994C36.2862 47.9994 36.3672 47.9909 36.7679 47.8843C37.872 47.5859 38.5456 47.0743 39.1765 46.064C39.3641 45.7613 39.5175 45.497 39.5175 45.48C39.5175 45.3862 38.6181 44.9301 38.1108 44.7638C37.8038 44.6615 37.6589 44.6444 37.1516 44.6317C36.6358 44.6189 36.4951 44.6274 36.1285 44.7169Z" fill="black"/>
<path d="M59.4445 20.8078C59.7163 20.6289 59.988 20.45 60.2135 20.2555C60.4389 20.0609 60.6182 19.8505 60.7237 19.6472C60.8292 19.4438 60.861 19.2473 60.8427 19.0361C60.8244 18.8249 60.7557 18.5989 60.6628 18.3236C60.5699 18.0482 60.4526 17.7235 60.4011 17.4208C60.3496 17.1181 60.364 16.8376 60.3997 16.6296C60.4354 16.4215 60.4924 16.2861 60.542 16.1537C60.5916 16.0213 60.6337 15.8918 60.7363 15.6904C60.8389 15.489 61.0019 15.2158 61.1651 14.9425" stroke="black" stroke-width="1.5" stroke-linecap="round"/>
<path d="M71.6403 20.5057C71.9121 20.3268 72.1838 20.1479 72.4093 19.9534C72.6347 19.7588 72.814 19.5484 72.9195 19.3451C73.025 19.1417 73.0568 18.9452 73.0385 18.7339C73.0202 18.5227 72.9515 18.2968 72.8586 18.0214C72.7657 17.7461 72.6484 17.4214 72.5969 17.1187C72.5454 16.816 72.5598 16.5355 72.5955 16.3275C72.6312 16.1194 72.6882 15.984 72.7378 15.8516C72.7874 15.7192 72.8295 15.5897 72.9321 15.3883C73.0347 15.1869 73.1977 14.9137 73.3609 14.6404" stroke="black" stroke-width="1.5" stroke-linecap="round"/>
<path d="M65.8069 19.2935C66.0787 19.1146 66.3505 18.9357 66.5759 18.7411C66.8014 18.5466 66.9806 18.3362 67.0861 18.1329C67.1916 17.9295 67.2234 17.7329 67.2051 17.5217C67.1868 17.3105 67.1182 17.0846 67.0252 16.8092C66.9323 16.5339 66.8151 16.2092 66.7635 15.9065C66.712 15.6038 66.7264 15.3233 66.7621 15.1152C66.7978 14.9072 66.8548 14.7718 66.9044 14.6394C66.954 14.5069 66.9961 14.3774 67.0987 14.176C67.2013 13.9746 67.3644 13.7015 67.5275 13.4282" stroke="black" stroke-width="1.5" stroke-linecap="round"/>
<path d="M83.3909 39.4322C83.0649 39.4339 62.1822 39.5444 56.7794 39.5233C51.3765 39.5021 51.3386 39.4024 51.3385 39.5543C51.3384 39.7063 51.3764 40.1099 51.5256 40.497C51.6748 40.8841 51.9351 41.2545 52.2695 41.5847C52.6039 41.9149 52.9979 42.1947 53.2906 42.356C53.5834 42.5174 53.7678 42.5554 58.3492 42.5696C62.9306 42.5838 71.9088 42.5743 76.4412 42.5505C80.9737 42.5267 81.0604 42.4887 81.3153 42.3748C81.5701 42.2608 81.993 42.0708 82.3941 41.7432C82.7952 41.4156 83.1747 40.9502 83.3861 40.5941C83.5976 40.2381 83.6282 40.0635 83.6633 39.8363C83.6983 39.6092 83.706 39.5349 83.7169 39.4305C83.7169 39.4305 83.7169 39.4305 83.3909 39.4322Z" stroke="black" stroke-width="1.4" stroke-linecap="round" stroke-linejoin="round"/>
<path d="M79.1901 26.7325C79.1031 26.1198 79.0161 25.5066 78.8383 25.1406C78.6605 24.7745 78.3915 24.6559 78.2099 24.5962C78.0282 24.5365 77.9339 24.5361 74.0881 24.5526C70.2423 24.5692 62.6453 24.6028 58.8172 24.6201C54.989 24.6375 54.93 24.6387 54.8589 24.6452C54.7878 24.6517 54.7047 24.6635 54.5879 24.7248C54.4711 24.7862 54.3207 24.8969 54.1973 25.0629C54.0739 25.2288 53.9804 25.4431 53.932 25.978C53.8836 26.513 53.8817 27.3651 53.8976 27.9869C53.9134 28.6088 53.947 29.0004 54.0746 29.651C54.2021 30.3017 54.4237 31.2112 54.7283 32.121C55.0329 33.0307 55.4206 33.9405 56.0754 34.9143C56.7302 35.8881 57.6519 36.9258 58.5123 37.6958C59.3728 38.4658 60.1718 38.9682 60.5872 39.2192C61.0025 39.4703 61.0341 39.4703 62.902 39.4644C64.7698 39.4584 68.4738 39.4466 70.3415 39.4346C72.2092 39.4227 72.2409 39.4109 72.6422 39.1254C73.0435 38.8399 73.8145 38.2808 74.5442 37.6651C75.2739 37.0493 75.9622 36.3768 76.5911 35.5303C77.22 34.6838 77.7897 33.6632 78.2021 32.7063C78.6146 31.7493 78.8657 30.8706 79.0041 29.8896C79.1425 28.9086 79.1664 27.8168 79.202 27.2509C79.2376 26.685 79.2851 26.6375 79.5424 26.627C79.7997 26.6165 80.2665 26.6428 80.7294 26.7154C81.1923 26.788 81.6511 26.9067 81.9992 27.1165C82.3472 27.3263 82.5846 27.6269 82.7822 27.909C82.9797 28.1911 83.1376 28.4545 83.2528 28.8435C83.368 29.2326 83.4407 29.7473 83.4574 30.2591C83.4742 30.771 83.435 31.2801 83.3231 31.7331C83.2112 32.1862 83.0266 32.5834 82.7385 32.9945C82.4504 33.4056 82.0588 33.8308 81.6225 34.2083C81.1862 34.5859 80.7051 34.916 80.1373 35.2209C79.5695 35.5258 78.915 35.8055 78.2129 35.9957C77.5109 36.1859 76.7613 36.2866 76.0113 36.3874" stroke="black" stroke-width="1.4" stroke-linecap="round"/>
<g filter="url(#filter0_d_17_3090)">
<path d="M99.0744 24.5L95.8471 12.8636H97.6937L99.9608 21.875H100.069L102.427 12.8636H104.256L106.614 21.8807H106.722L108.983 12.8636H110.836L107.603 24.5H105.836L103.387 15.7841H103.296L100.847 24.5H99.0744ZM112.3 24.5V15.7727H113.999V24.5H112.3ZM113.158 14.4261C112.863 14.4261 112.609 14.3276 112.397 14.1307C112.189 13.9299 112.084 13.6913 112.084 13.4148C112.084 13.1345 112.189 12.8958 112.397 12.6989C112.609 12.4981 112.863 12.3977 113.158 12.3977C113.454 12.3977 113.706 12.4981 113.914 12.6989C114.126 12.8958 114.232 13.1345 114.232 13.4148C114.232 13.6913 114.126 13.9299 113.914 14.1307C113.706 14.3276 113.454 14.4261 113.158 14.4261ZM117.983 19.3182V24.5H116.285V15.7727H117.915V17.1932H118.023C118.224 16.7311 118.538 16.3598 118.966 16.0795C119.398 15.7992 119.942 15.6591 120.597 15.6591C121.192 15.6591 121.713 15.7841 122.16 16.0341C122.607 16.2803 122.953 16.6477 123.199 17.1364C123.446 17.625 123.569 18.2292 123.569 18.9489V24.5H121.87V19.1534C121.87 18.5208 121.705 18.0265 121.376 17.6705C121.046 17.3106 120.593 17.1307 120.018 17.1307C119.624 17.1307 119.273 17.2159 118.966 17.3864C118.663 17.5568 118.423 17.8068 118.245 18.1364C118.071 18.4621 117.983 18.8561 117.983 19.3182ZM127.546 19.3182V24.5H125.847V15.7727H127.478V17.1932H127.586C127.787 16.7311 128.101 16.3598 128.529 16.0795C128.961 15.7992 129.504 15.6591 130.16 15.6591C130.754 15.6591 131.275 15.7841 131.722 16.0341C132.169 16.2803 132.516 16.6477 132.762 17.1364C133.008 17.625 133.131 18.2292 133.131 18.9489V24.5H131.432V19.1534C131.432 18.5208 131.268 18.0265 130.938 17.6705C130.608 17.3106 130.156 17.1307 129.58 17.1307C129.186 17.1307 128.836 17.2159 128.529 17.3864C128.226 17.5568 127.985 17.8068 127.807 18.1364C127.633 18.4621 127.546 18.8561 127.546 19.3182ZM139.171 24.6761C138.311 24.6761 137.571 24.4924 136.949 24.125C136.332 23.7538 135.855 23.233 135.518 22.5625C135.184 21.8883 135.018 21.0985 135.018 20.1932C135.018 19.2992 135.184 18.5114 135.518 17.8295C135.855 17.1477 136.324 16.6155 136.927 16.233C137.533 15.8504 138.241 15.6591 139.052 15.6591C139.544 15.6591 140.021 15.7405 140.483 15.9034C140.946 16.0663 141.36 16.322 141.728 16.6705C142.095 17.0189 142.385 17.4716 142.597 18.0284C142.809 18.5814 142.915 19.2538 142.915 20.0455V20.6477H135.978V19.375H141.251C141.251 18.928 141.16 18.5322 140.978 18.1875C140.796 17.839 140.54 17.5644 140.211 17.3636C139.885 17.1629 139.502 17.0625 139.063 17.0625C138.586 17.0625 138.169 17.1799 137.813 17.4148C137.461 17.6458 137.188 17.9489 136.995 18.3239C136.805 18.6951 136.711 19.0985 136.711 19.5341V20.5284C136.711 21.1117 136.813 21.608 137.018 22.017C137.226 22.4261 137.516 22.7386 137.887 22.9545C138.258 23.1667 138.692 23.2727 139.188 23.2727C139.51 23.2727 139.804 23.2273 140.069 23.1364C140.334 23.0417 140.563 22.9015 140.756 22.7159C140.949 22.5303 141.097 22.3011 141.199 22.0284L142.807 22.3182C142.679 22.7917 142.447 23.2064 142.114 23.5625C141.785 23.9148 141.37 24.1894 140.87 24.3864C140.374 24.5795 139.807 24.6761 139.171 24.6761ZM144.8 24.5V15.7727H146.442V17.1591H146.533C146.692 16.6894 146.973 16.3201 147.374 16.0511C147.779 15.7784 148.238 15.642 148.749 15.642C148.855 15.642 148.98 15.6458 149.124 15.6534C149.272 15.661 149.387 15.6705 149.471 15.6818V17.3068C149.403 17.2879 149.281 17.267 149.107 17.2443C148.933 17.2178 148.759 17.2045 148.584 17.2045C148.183 17.2045 147.825 17.2898 147.51 17.4602C147.2 17.6269 146.954 17.8598 146.772 18.1591C146.59 18.4545 146.499 18.7917 146.499 19.1705V24.5H144.8ZM158.851 24.6761C158.033 24.6761 157.319 24.4886 156.709 24.1136C156.099 23.7386 155.626 23.214 155.289 22.5398C154.952 21.8655 154.783 21.0776 154.783 20.1761C154.783 19.2708 154.952 18.4792 155.289 17.8011C155.626 17.1231 156.099 16.5966 156.709 16.2216C157.319 15.8466 158.033 15.6591 158.851 15.6591C159.67 15.6591 160.384 15.8466 160.993 16.2216C161.603 16.5966 162.077 17.1231 162.414 17.8011C162.751 18.4792 162.92 19.2708 162.92 20.1761C162.92 21.0776 162.751 21.8655 162.414 22.5398C162.077 23.214 161.603 23.7386 160.993 24.1136C160.384 24.4886 159.67 24.6761 158.851 24.6761ZM158.857 23.25C159.387 23.25 159.827 23.1098 160.175 22.8295C160.524 22.5492 160.781 22.1761 160.948 21.7102C161.118 21.2443 161.204 20.7311 161.204 20.1705C161.204 19.6136 161.118 19.1023 160.948 18.6364C160.781 18.1667 160.524 17.7898 160.175 17.5057C159.827 17.2216 159.387 17.0795 158.857 17.0795C158.323 17.0795 157.88 17.2216 157.528 17.5057C157.179 17.7898 156.92 18.1667 156.749 18.6364C156.582 19.1023 156.499 19.6136 156.499 20.1705C156.499 20.7311 156.582 21.2443 156.749 21.7102C156.92 22.1761 157.179 22.5492 157.528 22.8295C157.88 23.1098 158.323 23.25 158.857 23.25ZM168.969 15.7727V17.1364H164.037V15.7727H168.969ZM165.39 24.5V14.7614C165.39 14.2159 165.509 13.7633 165.748 13.4034C165.986 13.0398 166.303 12.7689 166.697 12.5909C167.09 12.4091 167.519 12.3182 167.981 12.3182C168.322 12.3182 168.613 12.3466 168.856 12.4034C169.098 12.4564 169.278 12.5057 169.395 12.5511L168.998 13.9261C168.918 13.9034 168.816 13.8769 168.691 13.8466C168.566 13.8125 168.414 13.7955 168.236 13.7955C167.823 13.7955 167.528 13.8977 167.35 14.1023C167.176 14.3068 167.089 14.6023 167.089 14.9886V24.5H165.39Z" fill="black"/>
<path d="M99.4276 44.5V34.368H96.0106V31.835H105.905V34.368H102.471V44.5H99.4276ZM110.358 44.738C109.429 44.738 108.59 44.5397 107.842 44.143C107.105 43.735 106.516 43.1513 106.074 42.392C105.643 41.6327 105.428 40.7203 105.428 39.655C105.428 38.873 105.553 38.1703 105.802 37.547C106.063 36.9237 106.408 36.391 106.839 35.949C107.281 35.507 107.774 35.1727 108.318 34.946C108.873 34.708 109.44 34.589 110.018 34.589C110.947 34.589 111.718 34.793 112.33 35.201C112.942 35.609 113.401 36.1643 113.707 36.867C114.013 37.5697 114.166 38.363 114.166 39.247C114.166 39.519 114.149 39.774 114.115 40.012C114.092 40.25 114.064 40.4313 114.03 40.556H108.352C108.443 40.998 108.601 41.355 108.828 41.627C109.055 41.899 109.332 42.103 109.661 42.239C109.99 42.3637 110.358 42.426 110.766 42.426C111.117 42.426 111.457 42.375 111.786 42.273C112.115 42.171 112.455 42.018 112.806 41.814L113.809 43.633C113.31 43.9843 112.749 44.2563 112.126 44.449C111.514 44.6417 110.925 44.738 110.358 44.738ZM108.301 38.567H111.599C111.599 38.091 111.48 37.6943 111.242 37.377C111.015 37.0597 110.624 36.901 110.069 36.901C109.797 36.901 109.536 36.9633 109.287 37.088C109.049 37.2013 108.839 37.3827 108.658 37.632C108.488 37.87 108.369 38.1817 108.301 38.567ZM118.198 44.738C117.609 44.738 117.099 44.6077 116.668 44.347C116.238 44.075 115.903 43.718 115.665 43.276C115.439 42.8227 115.325 42.3297 115.325 41.797C115.325 40.777 115.75 39.9837 116.6 39.417C117.45 38.839 118.816 38.448 120.697 38.244C120.675 37.9833 120.612 37.7623 120.51 37.581C120.408 37.3883 120.25 37.2467 120.034 37.156C119.83 37.054 119.564 37.003 119.235 37.003C118.85 37.003 118.453 37.0767 118.045 37.224C117.637 37.3713 117.19 37.581 116.702 37.853L115.648 35.864C116.079 35.6033 116.515 35.3823 116.957 35.201C117.411 35.0083 117.875 34.861 118.351 34.759C118.827 34.6457 119.315 34.589 119.813 34.589C120.652 34.589 121.36 34.7477 121.938 35.065C122.516 35.3823 122.958 35.8697 123.264 36.527C123.57 37.173 123.723 38.0003 123.723 39.009V44.5H121.258L121.054 43.531H120.969C120.573 43.8823 120.142 44.1713 119.677 44.398C119.224 44.6247 118.731 44.738 118.198 44.738ZM119.235 42.392C119.541 42.392 119.808 42.324 120.034 42.188C120.261 42.052 120.482 41.865 120.697 41.627V40.08C120.074 40.1593 119.575 40.2727 119.201 40.42C118.839 40.5673 118.578 40.7373 118.419 40.93C118.272 41.1227 118.198 41.3323 118.198 41.559C118.198 41.8423 118.289 42.052 118.47 42.188C118.663 42.324 118.918 42.392 119.235 42.392ZM131.653 44.738C130.848 44.738 130.089 44.602 129.375 44.33C128.661 44.058 128.026 43.65 127.471 43.106C126.927 42.5507 126.496 41.8707 126.179 41.066C125.873 40.25 125.72 39.3093 125.72 38.244C125.72 37.19 125.879 36.255 126.196 35.439C126.525 34.6117 126.967 33.9147 127.522 33.348C128.089 32.7813 128.735 32.3507 129.46 32.056C130.185 31.7613 130.95 31.614 131.755 31.614C132.582 31.614 133.319 31.7783 133.965 32.107C134.622 32.4357 135.166 32.821 135.597 33.263L134.016 35.201C133.699 34.9063 133.364 34.6683 133.013 34.487C132.662 34.3057 132.259 34.215 131.806 34.215C131.262 34.215 130.763 34.3737 130.31 34.691C129.857 34.997 129.494 35.4447 129.222 36.034C128.961 36.612 128.831 37.3147 128.831 38.142C128.831 38.9807 128.95 39.7003 129.188 40.301C129.437 40.8903 129.783 41.3437 130.225 41.661C130.667 41.967 131.183 42.12 131.772 42.12C132.282 42.12 132.735 42.0067 133.132 41.78C133.54 41.5533 133.891 41.2813 134.186 40.964L135.784 42.868C135.251 43.4913 134.634 43.9617 133.931 44.279C133.24 44.585 132.48 44.738 131.653 44.738ZM141.598 44.738C140.782 44.738 140.011 44.5397 139.286 44.143C138.56 43.735 137.971 43.1513 137.518 42.392C137.076 41.6327 136.855 40.7203 136.855 39.655C136.855 38.5897 137.076 37.683 137.518 36.935C137.971 36.1757 138.56 35.5977 139.286 35.201C140.011 34.793 140.782 34.589 141.598 34.589C142.21 34.589 142.799 34.7023 143.366 34.929C143.932 35.1557 144.437 35.49 144.879 35.932C145.321 36.3627 145.672 36.8897 145.933 37.513C146.193 38.1363 146.324 38.8503 146.324 39.655C146.324 40.7203 146.097 41.6327 145.644 42.392C145.202 43.1513 144.618 43.735 143.893 44.143C143.179 44.5397 142.414 44.738 141.598 44.738ZM141.598 42.29C141.972 42.29 142.278 42.1823 142.516 41.967C142.765 41.7517 142.946 41.4457 143.06 41.049C143.173 40.6523 143.23 40.1877 143.23 39.655C143.23 39.1223 143.173 38.6633 143.06 38.278C142.946 37.8813 142.765 37.5753 142.516 37.36C142.278 37.1447 141.972 37.037 141.598 37.037C141.224 37.037 140.912 37.1447 140.663 37.36C140.425 37.5753 140.243 37.8813 140.119 38.278C140.005 38.6633 139.949 39.1223 139.949 39.655C139.949 40.1877 140.005 40.6523 140.119 41.049C140.243 41.4457 140.425 41.7517 140.663 41.967C140.912 42.1823 141.224 42.29 141.598 42.29ZM148.223 44.5V34.827H150.688L150.909 36.034H150.96C151.357 35.6373 151.804 35.2973 152.303 35.014C152.813 34.7307 153.397 34.589 154.054 34.589C155.108 34.589 155.873 34.9403 156.349 35.643C156.825 36.3457 157.063 37.3033 157.063 38.516V44.5H154.037V38.89C154.037 38.2213 153.946 37.768 153.765 37.53C153.584 37.292 153.3 37.173 152.915 37.173C152.575 37.173 152.286 37.2467 152.048 37.394C151.81 37.5413 151.544 37.7567 151.249 38.04V44.5H148.223ZM162.787 44.5V42.766C163.807 41.814 164.714 40.9413 165.507 40.148C166.312 39.3433 166.941 38.6067 167.394 37.938C167.848 37.2693 168.074 36.646 168.074 36.068C168.074 35.6713 168.006 35.3427 167.87 35.082C167.746 34.8213 167.559 34.623 167.309 34.487C167.06 34.351 166.765 34.283 166.425 34.283C165.995 34.283 165.604 34.4133 165.252 34.674C164.912 34.9233 164.589 35.201 164.283 35.507L162.634 33.875C163.258 33.2177 163.887 32.7303 164.521 32.413C165.167 32.0843 165.938 31.92 166.833 31.92C167.649 31.92 168.369 32.0843 168.992 32.413C169.616 32.7417 170.103 33.2063 170.454 33.807C170.806 34.3963 170.981 35.0933 170.981 35.898C170.981 36.578 170.794 37.275 170.42 37.989C170.046 38.6917 169.565 39.3943 168.975 40.097C168.397 40.7883 167.791 41.4627 167.156 42.12C167.474 42.0747 167.825 42.035 168.21 42.001C168.607 41.967 168.947 41.95 169.23 41.95H171.559V44.5H162.787ZM177.618 44.738C176.722 44.738 175.935 44.4943 175.255 44.007C174.586 43.5083 174.065 42.783 173.691 41.831C173.317 40.8677 173.13 39.6833 173.13 38.278C173.13 36.8727 173.317 35.6997 173.691 34.759C174.065 33.8183 174.586 33.11 175.255 32.634C175.935 32.158 176.722 31.92 177.618 31.92C178.513 31.92 179.295 32.158 179.964 32.634C180.632 33.11 181.154 33.8183 181.528 34.759C181.902 35.6997 182.089 36.8727 182.089 38.278C182.089 39.6833 181.902 40.8677 181.528 41.831C181.154 42.783 180.632 43.5083 179.964 44.007C179.295 44.4943 178.513 44.738 177.618 44.738ZM177.618 42.392C177.924 42.392 178.196 42.2843 178.434 42.069C178.683 41.8423 178.876 41.4343 179.012 40.845C179.159 40.2443 179.233 39.3887 179.233 38.278C179.233 37.1673 179.159 36.323 179.012 35.745C178.876 35.167 178.683 34.776 178.434 34.572C178.196 34.368 177.924 34.266 177.618 34.266C177.323 34.266 177.051 34.368 176.802 34.572C176.552 34.776 176.354 35.167 176.207 35.745C176.059 36.323 175.986 37.1673 175.986 38.278C175.986 39.3887 176.059 40.2443 176.207 40.845C176.354 41.4343 176.552 41.8423 176.802 42.069C177.051 42.2843 177.323 42.392 177.618 42.392ZM183.506 44.5V42.766C184.526 41.814 185.433 40.9413 186.226 40.148C187.031 39.3433 187.66 38.6067 188.113 37.938C188.566 37.2693 188.793 36.646 188.793 36.068C188.793 35.6713 188.725 35.3427 188.589 35.082C188.464 34.8213 188.277 34.623 188.028 34.487C187.779 34.351 187.484 34.283 187.144 34.283C186.713 34.283 186.322 34.4133 185.971 34.674C185.631 34.9233 185.308 35.201 185.002 35.507L183.353 33.875C183.976 33.2177 184.605 32.7303 185.24 32.413C185.886 32.0843 186.657 31.92 187.552 31.92C188.368 31.92 189.088 32.0843 189.711 32.413C190.334 32.7417 190.822 33.2063 191.173 33.807C191.524 34.3963 191.7 35.0933 191.7 35.898C191.7 36.578 191.513 37.275 191.139 37.989C190.765 38.6917 190.283 39.3943 189.694 40.097C189.116 40.7883 188.51 41.4627 187.875 42.12C188.192 42.0747 188.544 42.035 188.929 42.001C189.326 41.967 189.666 41.95 189.949 41.95H192.278V44.5H183.506ZM197.894 44.738C197.226 44.738 196.619 44.6643 196.075 44.517C195.543 44.3697 195.067 44.1657 194.647 43.905C194.228 43.633 193.865 43.3213 193.559 42.97L194.953 41.066C195.339 41.4173 195.752 41.712 196.194 41.95C196.636 42.1767 197.101 42.29 197.588 42.29C197.985 42.29 198.325 42.239 198.608 42.137C198.903 42.035 199.13 41.882 199.288 41.678C199.447 41.474 199.526 41.2247 199.526 40.93C199.526 40.5787 199.441 40.284 199.271 40.046C199.101 39.7967 198.784 39.6097 198.319 39.485C197.855 39.349 197.18 39.281 196.296 39.281V37.139C197.022 37.139 197.588 37.071 197.996 36.935C198.404 36.799 198.693 36.6177 198.863 36.391C199.045 36.153 199.135 35.881 199.135 35.575C199.135 35.1557 199.011 34.8383 198.761 34.623C198.512 34.3963 198.155 34.283 197.69 34.283C197.271 34.283 196.886 34.3793 196.534 34.572C196.183 34.7533 195.815 35.014 195.429 35.354L193.899 33.501C194.489 33.0137 195.101 32.6283 195.735 32.345C196.381 32.0617 197.078 31.92 197.826 31.92C198.699 31.92 199.458 32.056 200.104 32.328C200.762 32.5887 201.266 32.974 201.617 33.484C201.98 33.994 202.161 34.6117 202.161 35.337C202.161 35.9603 201.991 36.4987 201.651 36.952C201.311 37.4053 200.807 37.7737 200.138 38.057V38.142C200.603 38.278 201.017 38.482 201.379 38.754C201.753 39.0147 202.042 39.3433 202.246 39.74C202.462 40.1367 202.569 40.6013 202.569 41.134C202.569 41.9047 202.354 42.562 201.923 43.106C201.493 43.6387 200.92 44.0467 200.206 44.33C199.504 44.602 198.733 44.738 197.894 44.738ZM214.306 29.965H220.086V32.175H216.737V40.76H214.306V29.965ZM224.965 43.582H233.244V45.588H224.965V43.582ZM223.52 37.666H234.706V39.587H223.52V37.666ZM223.52 34.946H234.706V36.867H223.52V34.946ZM221.225 32.124H236.848V34.198L221.225 34.198V32.124ZM223.299 40.505H234.893V46.047H232.343V42.545H225.73V46.098H223.299V40.505ZM227.022 30.424L229.521 29.829C229.804 30.2143 230.076 30.645 230.337 31.121C230.597 31.597 230.784 32.022 230.898 32.396L228.229 33.025C228.149 32.685 227.991 32.2713 227.753 31.784C227.526 31.2853 227.282 30.832 227.022 30.424ZM241.353 30.033L243.682 30.764C243.319 31.7273 242.888 32.702 242.39 33.688C241.891 34.674 241.347 35.609 240.758 36.493C240.18 37.377 239.579 38.1477 238.956 38.805C238.888 38.601 238.774 38.3347 238.616 38.006C238.468 37.6773 238.304 37.3487 238.123 37.02C237.953 36.68 237.8 36.408 237.664 36.204C238.151 35.7053 238.621 35.1273 239.075 34.47C239.539 33.8127 239.964 33.1043 240.35 32.345C240.746 31.5857 241.081 30.815 241.353 30.033ZM239.687 34.912L242.084 32.515V32.532V46.098H239.687V34.912ZM245.909 38.21H252.114V40.505H245.909V38.21ZM251.281 38.21H251.689L252.063 38.091L253.78 39.196C253.281 39.74 252.743 40.318 252.165 40.93C251.587 41.542 250.997 42.154 250.397 42.766C249.796 43.3667 249.212 43.9503 248.646 44.517L246.64 43.225C247.195 42.7037 247.767 42.1483 248.357 41.559C248.946 40.9697 249.496 40.403 250.006 39.859C250.527 39.315 250.952 38.8447 251.281 38.448V38.21ZM246.623 30.203L249.088 30.509C248.884 31.359 248.668 32.2373 248.442 33.144C248.226 34.0507 248 34.9517 247.762 35.847C247.535 36.7423 247.308 37.5867 247.082 38.38C246.866 39.1733 246.662 39.8817 246.47 40.505H243.852C244.078 39.8363 244.316 39.0883 244.566 38.261C244.815 37.4223 245.059 36.544 245.297 35.626C245.546 34.708 245.784 33.7843 246.011 32.855C246.237 31.9257 246.441 31.0417 246.623 30.203ZM243.495 31.665H253.066V33.909H243.495V31.665ZM242.509 34.827H254.001V37.105H242.509V34.827ZM244.957 42.647L246.657 41.151C247.246 41.457 247.847 41.797 248.459 42.171C249.071 42.545 249.643 42.919 250.176 43.293C250.72 43.667 251.173 44.0127 251.536 44.33L249.802 46.183C249.473 45.8543 249.037 45.4803 248.493 45.061C247.949 44.6417 247.365 44.2223 246.742 43.803C246.13 43.3723 245.535 42.987 244.957 42.647ZM259.356 34.317H266.632V36.051H259.356V34.317ZM259.356 36.765H266.632V38.499H259.356V36.765ZM265.629 31.546H268.026V43.293C268.026 43.9163 267.952 44.4093 267.805 44.772C267.669 45.1347 267.402 45.4123 267.006 45.605C266.62 45.7977 266.15 45.9167 265.595 45.962C265.039 46.0187 264.371 46.047 263.589 46.047C263.566 45.8203 263.509 45.554 263.419 45.248C263.339 44.9533 263.243 44.6587 263.13 44.364C263.016 44.0693 262.903 43.82 262.79 43.616C263.096 43.6273 263.413 43.6387 263.742 43.65C264.07 43.6613 264.365 43.667 264.626 43.667C264.898 43.667 265.085 43.667 265.187 43.667C265.345 43.6557 265.459 43.6217 265.527 43.565C265.595 43.5083 265.629 43.4063 265.629 43.259V31.546ZM268.774 35.014L270.916 36C269.884 37.7 268.638 39.2017 267.176 40.505C265.725 41.8083 264.116 42.936 262.348 43.888C260.591 44.8287 258.727 45.605 256.755 46.217C256.653 46.0357 256.511 45.8203 256.33 45.571C256.148 45.3217 255.961 45.0723 255.769 44.823C255.576 44.585 255.406 44.3867 255.259 44.228C257.242 43.7067 259.089 43.021 260.801 42.171C262.523 41.321 264.059 40.301 265.408 39.111C266.756 37.921 267.878 36.5553 268.774 35.014ZM261.77 29.914L264.677 30.186C264.405 30.7413 264.11 31.2853 263.793 31.818C263.487 32.3393 263.209 32.7813 262.96 33.144L260.852 32.753C261.044 32.3337 261.226 31.8633 261.396 31.342C261.566 30.8207 261.69 30.3447 261.77 29.914ZM257.758 31.546H266.309V33.654H260.206V40.59H257.758V31.546ZM255.633 39.264H267.04V41.406H255.633V39.264ZM273.466 37.02H278.141V38.907H273.466V37.02ZM272.565 31.376H278.005V33.433H272.565V31.376ZM271.936 34.283H280.283V36.391H271.936V34.283ZM274.316 29.965H276.594V35.32H274.316V29.965ZM279.008 30.39L281.286 31.036C280.458 33.144 279.353 35.0083 277.971 36.629C276.599 38.2497 275.035 39.553 273.279 40.539C273.177 40.369 273.024 40.165 272.82 39.927C272.627 39.689 272.423 39.4567 272.208 39.23C271.992 38.992 271.805 38.7993 271.647 38.652C273.347 37.836 274.826 36.7197 276.084 35.303C277.353 33.875 278.328 32.2373 279.008 30.39ZM275.234 39.91H277.546V43.837C277.546 44.3357 277.489 44.7323 277.376 45.027C277.262 45.333 277.036 45.5653 276.696 45.724C276.356 45.8827 275.97 45.979 275.54 46.013C275.12 46.047 274.644 46.064 274.112 46.064C274.066 45.7467 273.976 45.3897 273.84 44.993C273.715 44.6077 273.579 44.2733 273.432 43.99C273.715 44.0013 274.01 44.007 274.316 44.007C274.633 44.007 274.843 44.007 274.945 44.007C275.058 44.007 275.132 43.99 275.166 43.956C275.211 43.922 275.234 43.8653 275.234 43.786V39.91ZM277.614 37.02H278.124L278.566 36.901L279.892 37.955C279.404 38.5103 278.843 39.0827 278.209 39.672C277.585 40.2613 276.973 40.76 276.373 41.168C276.248 40.9753 276.067 40.7543 275.829 40.505C275.591 40.2557 275.392 40.0573 275.234 39.91C275.528 39.6947 275.829 39.4397 276.135 39.145C276.452 38.839 276.741 38.533 277.002 38.227C277.262 37.921 277.466 37.649 277.614 37.411V37.02ZM271.868 40.93C272.604 40.8847 273.437 40.8337 274.367 40.777C275.296 40.7203 276.271 40.658 277.291 40.59C278.311 40.522 279.319 40.454 280.317 40.386V42.477C279.365 42.5563 278.396 42.6357 277.41 42.715C276.435 42.783 275.494 42.851 274.588 42.919C273.681 42.987 272.854 43.0493 272.106 43.106L271.868 40.93ZM281.728 33.042H288.086V35.32H281.728V33.042ZM281.847 29.948L284.346 30.339C284.153 31.5063 283.898 32.6453 283.581 33.756C283.275 34.8667 282.906 35.898 282.476 36.85C282.056 37.7907 281.569 38.6067 281.014 39.298C280.889 39.1393 280.708 38.9467 280.47 38.72C280.232 38.4933 279.982 38.2723 279.722 38.057C279.472 37.8303 279.251 37.6547 279.059 37.53C279.557 36.9633 279.988 36.2833 280.351 35.49C280.713 34.6853 281.019 33.8127 281.269 32.872C281.518 31.92 281.711 30.9453 281.847 29.948ZM284.669 34.453L287.202 34.674C286.975 36.6007 286.607 38.3007 286.097 39.774C285.598 41.236 284.895 42.4997 283.989 43.565C283.093 44.619 281.926 45.4973 280.487 46.2C280.407 46.0073 280.283 45.7637 280.113 45.469C279.954 45.1857 279.778 44.9023 279.586 44.619C279.404 44.3357 279.234 44.109 279.076 43.939C280.334 43.4063 281.348 42.7093 282.119 41.848C282.889 40.9867 283.473 39.944 283.87 38.72C284.266 37.4847 284.533 36.0623 284.669 34.453ZM283.122 34.759C283.337 36.1303 283.649 37.4167 284.057 38.618C284.465 39.8193 285.009 40.879 285.689 41.797C286.38 42.715 287.247 43.4403 288.29 43.973C288.108 44.1317 287.904 44.3357 287.678 44.585C287.462 44.8457 287.253 45.112 287.049 45.384C286.856 45.656 286.697 45.9053 286.573 46.132C285.417 45.4293 284.47 44.5453 283.734 43.48C282.997 42.4033 282.408 41.1623 281.966 39.757C281.524 38.3517 281.161 36.8047 280.878 35.116L283.122 34.759ZM294.716 46.115H288.936V43.905H292.285V35.32H294.716V46.115Z" fill="black"/>
</g>
<path d="M325.361 8.66923C325.634 10.2293 326.022 11.2992 326.687 12.2882C327.134 12.9574 327.629 13.4177 328.213 13.7076C328.869 14.0401 329.419 14.1381 329.637 13.9676C329.696 13.9207 329.79 13.8824 329.85 13.8824C330.046 13.8824 330.063 13.8099 330.037 13.0853C330.016 12.3265 329.939 11.9685 329.692 11.4271C329.108 10.1739 327.893 9.16369 325.839 8.23871C325.549 8.10657 325.297 8.00001 325.28 8.00001C325.263 8.00001 325.297 8.30265 325.361 8.66923Z" fill="black"/>
<path d="M331.827 9.75618C330.749 11.7852 330.404 13.4561 330.796 14.7945C331.064 15.7238 331.844 16.8661 332.203 16.8661C332.403 16.8661 332.855 16.2694 333.187 15.5661C333.477 14.9565 333.562 14.543 333.567 13.7545C333.567 12.902 333.43 12.2498 333.051 11.2737C332.876 10.8176 332.194 9.42796 332.117 9.36402C332.075 9.32992 332.006 9.4237 331.827 9.75618Z" fill="black"/>
<path d="M326.171 13.4859C326.171 13.503 326.256 13.8269 326.363 14.202C327.096 16.7809 328.422 18.5456 329.905 18.9292C330.591 19.104 330.967 19.0997 331.124 18.9164C331.163 18.8696 331.265 18.8184 331.35 18.8014C331.435 18.7886 331.516 18.7459 331.529 18.7118C331.542 18.682 331.529 18.4476 331.504 18.1918C331.359 16.7894 330.822 15.8815 329.615 14.9864C328.797 14.3768 327.966 14.006 326.269 13.4817C326.214 13.4646 326.171 13.4646 326.171 13.4859Z" fill="black"/>
<path d="M334.675 15.6513C333.716 16.8704 333.183 17.8125 332.923 18.763C332.791 19.2362 332.74 20.127 332.816 20.5405C332.927 21.133 333.204 21.815 333.537 22.318C333.682 22.5396 333.69 22.5439 333.852 22.5226C334.091 22.4885 334.313 22.3265 334.619 21.9599C335.208 21.2524 335.544 20.5746 335.728 19.7221C335.847 19.185 335.851 18.1535 335.745 17.4842C335.608 16.6402 335.212 15.1185 335.127 15.1185C335.105 15.1185 334.905 15.3572 334.675 15.6513Z" fill="black"/>
<path d="M329.044 18.8994C329.057 19.0145 329.078 19.3811 329.091 19.7221C329.168 21.5635 329.517 22.8039 330.267 23.9037C330.732 24.5814 331.504 25.191 332.134 25.3743C332.343 25.4382 332.377 25.4382 332.51 25.3743C332.586 25.3359 332.697 25.3061 332.753 25.3061C332.812 25.3061 332.868 25.272 332.885 25.2293C332.957 25.0375 333.042 24.5175 333.064 24.1125C333.136 22.7101 332.493 21.4186 331.124 20.2208C330.378 19.5686 329.206 18.6991 329.078 18.6991C329.04 18.6991 329.031 18.7545 329.044 18.8994Z" fill="black"/>
<path d="M336.904 21.6573C335.165 22.6974 334.176 23.6309 333.648 24.7306C333.349 25.3615 333.311 25.5533 333.315 26.4356C333.32 27.0452 333.337 27.2668 333.4 27.5226C333.477 27.8252 333.49 27.8423 333.609 27.8551C333.682 27.8636 333.754 27.8892 333.78 27.9105C333.925 28.0511 334.53 27.838 335.059 27.4629C335.779 26.9471 336.495 25.9241 336.862 24.8798C337.109 24.1637 337.309 23.1449 337.36 22.3222C337.373 22.1006 337.395 21.798 337.407 21.6488C337.416 21.5038 337.412 21.3845 337.395 21.3845C337.377 21.3845 337.156 21.5081 336.904 21.6573Z" fill="black"/>
<path d="M329.308 23.7758C329.261 23.9165 329.07 24.9395 329.001 25.4126C328.903 26.0946 328.903 27.237 328.997 27.7613C329.185 28.8014 329.615 29.6454 330.327 30.3572C330.821 30.8559 330.983 30.954 331.303 30.954H331.563L331.678 30.7408C331.879 30.3785 332.087 29.6667 332.143 29.1594C332.283 27.8636 331.729 26.4527 330.476 24.9309C329.986 24.3384 329.338 23.6905 329.308 23.7758Z" fill="black"/>
<path d="M337.433 27.5013C336.103 27.7144 335.08 28.0043 334.411 28.3495C333.456 28.844 332.757 29.5985 332.36 30.5533C332.22 30.89 332.028 31.7425 332.066 31.8491C332.079 31.8789 332.169 31.9301 332.258 31.9557C332.356 31.9812 332.458 32.0452 332.497 32.1006C332.599 32.2583 332.821 32.3137 333.264 32.2839C334.658 32.1901 335.775 31.3973 336.943 29.6709C337.377 29.023 338.196 27.3862 338.076 27.399C338.059 27.4032 337.77 27.4459 337.433 27.5013Z" fill="black"/>
<path d="M328.247 28.9548C328.2 29.0401 327.876 30.0887 327.778 30.4851C327.539 31.4271 327.514 31.6317 327.518 32.5524C327.518 33.3623 327.527 33.4561 327.633 33.844C327.829 34.5686 328.294 35.3785 328.848 35.9454C329.146 36.2523 329.304 36.3461 329.517 36.3461C329.675 36.3461 329.7 36.3291 329.833 36.1287C330.186 35.5874 330.438 34.8883 330.523 34.2191C330.681 32.9233 330.071 31.2651 328.81 29.5899C328.383 29.0188 328.281 28.9037 328.247 28.9548Z" fill="black"/>
<path d="M325.655 32.7315C325.071 33.8142 324.735 34.6922 324.551 35.5831C324.428 36.1671 324.449 37.1262 324.59 37.6249C324.841 38.5115 325.643 39.7136 325.975 39.7136C326.09 39.7136 326.465 39.3001 326.721 38.8824C326.99 38.4561 327.211 37.9318 327.314 37.4885C327.42 37.0196 327.407 35.9028 327.292 35.3657C327.181 34.8755 326.981 34.2362 326.781 33.746C326.614 33.3368 326.12 32.3137 326.035 32.1986C325.984 32.1347 325.941 32.1944 325.655 32.7315Z" fill="black"/>
<path d="M335.804 32.1986C335.246 32.2327 334.432 32.3436 334.044 32.4416C332.629 32.8039 331.525 33.682 330.988 34.8755C330.885 35.1057 330.647 35.792 330.647 35.8602C330.647 35.8687 330.749 35.9241 330.873 35.9795C330.992 36.0349 331.137 36.1373 331.188 36.2055C331.32 36.393 331.597 36.4484 332.22 36.4186C333.315 36.3674 334.232 35.9156 335.212 34.9437C335.783 34.3725 336.273 33.7374 336.742 32.9488C336.964 32.5823 337.164 32.254 337.181 32.2242C337.207 32.1816 337.096 32.1688 336.627 32.1773C336.303 32.1816 335.932 32.1901 335.804 32.1986Z" fill="black"/>
<path d="M322.825 35.7153C321.231 37.2583 320.502 38.4945 320.391 39.8329C320.34 40.451 320.523 41.3419 320.834 41.9727L320.992 42.2924H321.248C321.47 42.2924 321.533 42.2711 321.717 42.1432C322.412 41.6658 323.123 40.6513 323.413 39.7349C323.648 38.9804 323.678 38.7502 323.678 37.5823C323.678 36.653 323.66 36.4015 323.575 35.8559C323.52 35.5021 323.46 35.1995 323.443 35.1824C323.426 35.1611 323.145 35.3998 322.825 35.7153Z" fill="black"/>
<path d="M330.979 36.6701C329.764 36.8576 329.082 37.156 328.417 37.7911C328.068 38.1236 327.825 38.4348 327.561 38.8866C327.288 39.3598 327.288 39.3512 327.578 39.5345C327.718 39.6198 327.846 39.7263 327.859 39.7647C327.966 40.1014 329.006 40.3401 329.858 40.2293C330.331 40.1654 331.035 39.9352 331.457 39.705C332.288 39.2532 333.324 38.4135 333.643 37.9403C333.75 37.7783 333.976 37.497 334.142 37.3095C334.308 37.1262 334.436 36.9685 334.428 36.9599C334.419 36.9514 334.142 36.896 333.818 36.8363C332.433 36.5933 331.721 36.5507 330.979 36.6701Z" fill="black"/>
<path d="M319.245 39.0273C316.968 39.5516 315.626 40.2634 314.875 41.3546C314.513 41.8832 314.215 42.7613 314.164 43.4476L314.138 43.7928L314.287 43.8227C314.372 43.8355 314.5 43.9079 314.577 43.9804L314.713 44.1168L315.148 44.0955C315.869 44.0614 316.559 43.78 317.228 43.2515C317.812 42.7911 318.597 41.7596 319.108 40.7792C319.325 40.37 319.777 39.2788 319.846 39.0145C319.88 38.8781 319.897 38.8781 319.245 39.0273Z" fill="black"/>
<path d="M326.107 40.2719C325.378 40.3742 324.551 40.7707 323.976 41.3035C323.656 41.5933 323.23 42.0963 323.23 42.1773C323.23 42.2029 323.345 42.3222 323.486 42.4459C323.626 42.5695 323.754 42.7144 323.767 42.7698C323.818 42.9659 324.274 43.2259 324.88 43.4049C325.92 43.7076 327.134 43.5158 328.481 42.8338C329.257 42.4416 329.628 42.1944 329.777 41.9685C329.845 41.8662 330.071 41.6488 330.276 41.4825C330.528 41.2822 330.63 41.1756 330.591 41.1543C330.562 41.1373 330.229 41.0094 329.854 40.8687C329.078 40.5831 328.494 40.4126 327.966 40.3274C327.484 40.2506 326.482 40.2208 326.107 40.2719Z" fill="black"/>
<path d="M320.57 42.8934C320.182 42.9787 319.786 43.1321 319.394 43.341C319.014 43.5456 318.588 43.8525 318.584 43.9164C318.584 43.942 318.695 44.1168 318.831 44.3086C318.963 44.5004 319.121 44.7349 319.181 44.8329C319.372 45.1483 320.012 45.6215 320.536 45.8346C321.529 46.2353 322.71 46.2481 324.189 45.8772C324.871 45.7025 325.063 45.6172 325.144 45.451C325.182 45.3657 325.28 45.2975 325.485 45.208C325.638 45.1398 325.822 45.0588 325.89 45.029L326.013 44.9736L325.562 44.6453C324.227 43.6735 323.409 43.2387 322.377 42.9702C321.849 42.8295 321.005 42.7954 320.57 42.8934Z" fill="black"/>
<path d="M315.195 44.688C315.033 44.7221 314.752 44.8073 314.577 44.8755C314.261 44.9949 313.622 45.3359 313.524 45.4382C313.447 45.5149 314.074 46.5209 314.406 46.8619C314.88 47.3478 315.472 47.6846 316.218 47.8849C316.619 47.9915 316.7 48 317.582 48C318.375 48 318.601 47.9872 319.053 47.902C319.671 47.7911 319.948 47.6846 319.948 47.5652C319.948 47.4714 320.093 47.3905 320.481 47.2754C320.621 47.2327 320.749 47.1858 320.77 47.1731C320.805 47.1432 319.922 46.3717 319.402 45.9795C318.464 45.2805 317.561 44.8457 316.708 44.6837C316.273 44.5985 315.591 44.6027 315.195 44.688Z" fill="black"/>
<defs>
<filter id="filter0_d_17_3090" x="89.9176" y="3.9" width="221.2" height="48.2" filterUnits="userSpaceOnUse" color-interpolation-filters="sRGB">
<feFlood flood-opacity="0" result="BackgroundImageFix"/>
<feColorMatrix in="SourceAlpha" type="matrix" values="0 0 0 0 0 0 0 0 0 0 0 0 0 0 0 0 0 0 127 0" result="hardAlpha"/>
<feOffset/>
<feGaussianBlur stdDeviation="2.8"/>
<feComposite in2="hardAlpha" operator="out"/>
<feColorMatrix type="matrix" values="0 0 0 0 0 0 0 0 0 0 0 0 0 0 0 0 0 0 0.25 0"/>
<feBlend mode="normal" in2="BackgroundImageFix" result="effect1_dropShadow_17_3090"/>
<feBlend mode="normal" in="SourceGraphic" in2="effect1_dropShadow_17_3090" result="shape"/>
</filter>
<linearGradient id="paint0_linear_17_3090" x1="176.5" y1="0" x2="176.5" y2="56" gradientUnits="userSpaceOnUse">
<stop stop-color="#EBB000"/>
<stop offset="1" stop-color="#EB5C00"/>
</linearGradient>
</defs>
</svg>
