<svg width="317" height="56" viewBox="0 0 317 56" fill="none" xmlns="http://www.w3.org/2000/svg">
<rect width="316.176" height="56" rx="8" fill="url(#paint0_linear_17_1598)"/>
<rect x="1.05" y="1.05" width="314.076" height="53.9" rx="6.95" stroke="white" stroke-opacity="0.15" stroke-width="2.1"/>
<path d="M24.3711 8.18344C22.3164 9.10424 21.0588 10.106 20.4577 11.2997C20.1764 11.8624 20.0187 12.5828 20.0272 13.2521C20.0357 13.7679 20.0613 13.8532 20.2148 13.8702C20.283 13.8787 20.3853 13.9214 20.4407 13.9683C20.6538 14.1345 21.2123 14.0322 21.8603 13.704C23.0326 13.1157 23.9875 11.6961 24.4948 9.78631C24.5928 9.41544 24.8401 8.14934 24.8401 8.01293C24.8401 7.97882 24.7718 8.0044 24.3711 8.18344Z" fill="black"/>
<path d="M17.7252 9.79911C16.3184 12.4379 16.1394 14.3477 17.1497 16.0529C17.3969 16.4706 17.6868 16.8117 17.8317 16.8458C17.9895 16.8884 18.2069 16.7221 18.501 16.3257C19.814 14.5779 19.7842 12.8045 18.3902 10.008C18.2026 9.62859 18.0321 9.31739 18.0151 9.31739C17.998 9.31739 17.8658 9.53481 17.7252 9.79911Z" fill="black"/>
<path d="M23.3565 13.623C22.4954 13.9001 22.035 14.0876 21.4723 14.3775C20.3085 14.9786 19.4474 15.7587 19.0211 16.607C18.744 17.157 18.5735 17.8817 18.5735 18.504V18.7726L18.727 18.7982C18.8079 18.8152 18.9103 18.8664 18.9486 18.9133C19.0765 19.0582 19.3025 19.0923 19.7245 19.0199C20.5259 18.8792 21.0588 18.6064 21.6556 18.0266C22.5721 17.1399 23.2499 15.8738 23.7359 14.1686C23.8297 13.8319 23.915 13.5334 23.9235 13.5036C23.9491 13.4354 23.9533 13.4311 23.3565 13.623Z" fill="black"/>
<path d="M14.7454 15.7417C14.0036 18.3548 14.1102 20.0344 15.1077 21.4966C15.5639 22.1702 15.9774 22.5325 16.2843 22.5325C16.3823 22.5325 16.4335 22.4814 16.5998 22.2213C16.7106 22.0551 16.8768 21.7439 16.9664 21.535C17.738 19.7488 17.269 17.9712 15.4189 15.6479C15.1845 15.3537 14.9756 15.115 14.9585 15.115C14.9372 15.115 14.8392 15.3964 14.7454 15.7417Z" fill="black"/>
<path d="M20.5131 19.0028C19.3578 19.8298 18.3816 20.7123 17.8999 21.3602C17.6186 21.7396 17.2775 22.4174 17.1667 22.8309C16.9876 23.496 16.9834 24.2718 17.1454 25.0008C17.2093 25.2736 17.2264 25.3035 17.3159 25.3035C17.3756 25.3035 17.4864 25.3333 17.5631 25.3717C17.6953 25.4356 17.7294 25.4356 17.9383 25.3717C18.5436 25.1926 19.3067 24.6086 19.7756 23.9521C20.658 22.7286 20.965 21.4668 21.046 18.7257C21.046 18.649 20.9095 18.7215 20.5131 19.0028Z" fill="black"/>
<path d="M12.7076 21.9656C12.7801 23.351 13.0401 24.5574 13.4749 25.4953C13.8202 26.237 14.4725 27.0683 15.0138 27.4562C15.5425 27.8356 16.1947 28.0616 16.2927 27.9039C16.3055 27.8783 16.3737 27.8612 16.4419 27.8612C16.5954 27.8612 16.6252 27.8101 16.7233 27.3497C16.8384 26.8168 16.8256 25.8704 16.702 25.41C16.3908 24.2548 15.4828 23.1677 13.9865 22.1574C13.6668 21.9443 12.7374 21.3815 12.7033 21.3815C12.6905 21.3815 12.6905 21.6458 12.7076 21.9656Z" fill="black"/>
<path d="M20.381 24.0757C19.6094 24.8686 19.1191 25.5081 18.582 26.4118C18.2367 26.9958 17.9809 27.8527 17.9468 28.5518C17.9084 29.3149 18.0534 30.0225 18.3902 30.6918L18.5351 30.9817L18.7866 30.9646C18.9742 30.9518 19.0808 30.9135 19.2172 30.8197C19.9376 30.3252 20.6495 29.3319 20.9309 28.4324C21.2634 27.3752 21.2506 25.9898 20.8882 24.2675C20.8286 23.9691 20.7646 23.7262 20.7518 23.7262C20.7348 23.7262 20.5685 23.8839 20.381 24.0757Z" fill="black"/>
<path d="M12.0213 27.4946C12.0639 27.6822 12.648 28.8886 12.8824 29.2723C14.0633 31.2162 15.3251 32.1838 16.8086 32.2819C17.2477 32.3117 17.4736 32.2563 17.5759 32.1028C17.61 32.0474 17.7209 31.9835 17.836 31.9536L18.0321 31.8982L18.0022 31.6126C17.9426 30.9433 17.5802 30.0822 17.1241 29.5067C16.2587 28.4239 14.9627 27.8527 12.5286 27.4818L12 27.4051L12.0213 27.4946Z" fill="black"/>
<path d="M21.468 29.3447C19.5624 31.7874 19.0935 33.8336 20.01 35.6965C20.0953 35.867 20.2189 36.0844 20.2829 36.174C20.3894 36.3189 20.4321 36.3445 20.56 36.3445C20.7774 36.3445 20.9053 36.2635 21.2676 35.8841C22.6062 34.4816 22.9302 32.7849 22.3035 30.4232C22.1415 29.8264 21.8559 28.927 21.8218 28.927C21.8047 28.927 21.647 29.1145 21.468 29.3447Z" fill="black"/>
<path d="M23.7572 32.7721C22.5635 35.1978 22.376 36.8987 23.1348 38.4546C23.5099 39.2305 23.949 39.7548 24.1707 39.6952C24.3028 39.6611 24.5842 39.3712 24.8144 39.0344C25.8759 37.4486 25.91 35.9608 24.938 33.7441C24.7291 33.2666 24.1323 32.1242 24.0939 32.1242C24.0854 32.1242 23.9362 32.4183 23.7572 32.7721Z" fill="black"/>
<path d="M12.9037 32.1796C12.9037 32.1924 13.0145 32.3927 13.1552 32.6229C13.2916 32.8531 13.4834 33.1814 13.5815 33.3519C13.9865 34.051 14.9968 35.1679 15.632 35.6155C16.3737 36.1399 17.0558 36.3829 17.87 36.417C18.4881 36.4425 18.7056 36.3956 18.8931 36.1953C18.9613 36.1143 19.1148 36.012 19.2256 35.9651C19.3365 35.9182 19.426 35.85 19.426 35.8201C19.426 35.6965 19.2001 35.0784 19.0423 34.7587C18.6374 33.9444 18.1514 33.4286 17.3713 32.981C16.6593 32.5718 16.0583 32.3842 15.0991 32.2734C14.5279 32.2052 12.9037 32.1327 12.9037 32.1796Z" fill="black"/>
<path d="M26.6134 35.266C26.4727 35.9651 26.4045 36.6898 26.4003 37.5594C26.396 38.7829 26.5196 39.4692 26.8905 40.2962C27.1889 40.9655 27.8539 41.8011 28.3569 42.1421C28.5275 42.2615 28.6212 42.2913 28.8344 42.3041L29.0987 42.3211L29.201 42.1165C29.6912 41.1446 29.8277 39.9424 29.5506 39.0088C29.3374 38.2884 28.9751 37.6404 28.3484 36.856C28.0713 36.5065 26.7328 35.1509 26.6688 35.1509C26.6518 35.1509 26.6262 35.202 26.6134 35.266Z" fill="black"/>
<path d="M17.2094 36.6855C16.9152 36.7282 16.4506 36.8006 16.1692 36.8518C15.8921 36.8987 15.6577 36.9413 15.6449 36.9413C15.6364 36.9413 15.7856 37.1203 15.9774 37.3378C16.1692 37.5552 16.3781 37.828 16.4421 37.9474C16.5145 38.0795 16.7149 38.2969 16.9792 38.5314C18.6289 39.9936 20.1593 40.5179 21.6215 40.13C21.9327 40.049 21.9839 40.0192 22.197 39.8017C22.3249 39.6696 22.504 39.5246 22.5935 39.4778C22.7896 39.3754 22.7853 39.3328 22.5338 38.8852C21.9242 37.8067 21.0119 37.0948 19.895 36.8219C18.9657 36.5917 18.1472 36.5534 17.2094 36.6855Z" fill="black"/>
<path d="M30.2113 38.9193C30.2113 39.0216 30.7911 40.4071 30.9999 40.8078C32.0913 42.9052 33.4298 44.0221 34.9261 44.0945L35.3567 44.1116L35.4888 43.9837C35.5656 43.9112 35.6935 43.8387 35.7745 43.8217C35.8554 43.8089 35.9364 43.7791 35.945 43.7577C35.9578 43.7407 35.945 43.5446 35.9194 43.3272C35.8299 42.5812 35.557 41.8437 35.1819 41.3151C34.9474 40.9826 34.406 40.4668 34.048 40.2323C33.3531 39.7719 32.3001 39.3669 31.0213 39.0685C30.2966 38.9022 30.2113 38.8852 30.2113 38.9193Z" fill="black"/>
<path d="M22.5509 40.2664C22.0393 40.3218 21.5661 40.4241 20.9821 40.6117C20.3299 40.8206 19.4943 41.1446 19.4815 41.1914C19.4773 41.2085 19.6393 41.3492 19.8396 41.4984C20.0656 41.6689 20.2275 41.8266 20.2574 41.9034C20.3299 42.0781 20.445 42.1762 20.8585 42.432C22.0947 43.195 23.3267 43.5872 24.3498 43.5361C25.1555 43.4934 26.055 43.1609 26.2681 42.8242C26.3236 42.7389 26.4856 42.5599 26.6348 42.4277L26.9033 42.1932L26.7243 41.9588C26.1189 41.1573 25.2536 40.5691 24.3669 40.3516C23.9491 40.2493 23.0837 40.211 22.5509 40.2664Z" fill="black"/>
<path d="M27.9733 42.9052C27.1122 43.0885 26.2468 43.4721 25.3388 44.0775C24.3583 44.734 23.9959 45.0409 24.2048 45.0409C24.2304 45.0409 24.3881 45.1048 24.5629 45.1858C24.7889 45.2881 24.8912 45.3649 24.9295 45.4501C25.0105 45.6164 25.2024 45.7017 25.8844 45.8764C27.3424 46.243 28.472 46.2345 29.4909 45.8551C30.0195 45.6548 30.6675 45.1773 30.919 44.7979C31.0085 44.6658 31.1833 44.4142 31.3069 44.2352C31.5755 43.8643 31.5883 43.907 31.0852 43.5702C30.6845 43.3016 30.2667 43.1098 29.8063 42.9691C29.2863 42.8156 28.536 42.7901 27.9733 42.9052Z" fill="black"/>
<path d="M33.2166 44.7169C32.6113 44.8619 32.1552 45.0537 31.4305 45.4757C30.8592 45.8082 29.2649 47.0956 29.3374 47.1681C29.3544 47.1809 29.5334 47.2491 29.7338 47.3216C30.045 47.4281 30.1089 47.4665 30.1175 47.5475C30.1388 47.6925 30.386 47.7862 31.0212 47.9056C31.4731 47.9866 31.6948 48.0036 32.4919 47.9994C33.3744 47.9994 33.4554 47.9909 33.8561 47.8843C34.9602 47.5859 35.6337 47.0743 36.2646 46.064C36.4522 45.7613 36.6057 45.497 36.6057 45.48C36.6057 45.3862 35.7062 44.9301 35.1989 44.7638C34.892 44.6615 34.747 44.6444 34.2397 44.6317C33.7239 44.6189 33.5832 44.6274 33.2166 44.7169Z" fill="black"/>
<path d="M56.5326 20.8078C56.8044 20.6289 57.0762 20.45 57.3016 20.2555C57.5271 20.0609 57.7063 19.8505 57.8118 19.6472C57.9173 19.4438 57.9491 19.2473 57.9308 19.0361C57.9125 18.8249 57.8439 18.5989 57.7509 18.3236C57.658 18.0482 57.5408 17.7235 57.4893 17.4208C57.4377 17.1181 57.4521 16.8376 57.4878 16.6296C57.5235 16.4215 57.5806 16.2861 57.6301 16.1537C57.6797 16.0213 57.7218 15.8918 57.8244 15.6904C57.927 15.489 58.0901 15.2158 58.2532 14.9425" stroke="black" stroke-width="1.5" stroke-linecap="round"/>
<path d="M68.7284 20.5057C69.0002 20.3268 69.272 20.1479 69.4974 19.9534C69.7229 19.7588 69.9021 19.5484 70.0076 19.3451C70.1131 19.1417 70.1449 18.9452 70.1266 18.7339C70.1083 18.5227 70.0397 18.2968 69.9467 18.0214C69.8538 17.7461 69.7366 17.4214 69.6851 17.1187C69.6335 16.816 69.6479 16.5355 69.6836 16.3275C69.7193 16.1194 69.7764 15.984 69.8259 15.8516C69.8755 15.7192 69.9176 15.5897 70.0202 15.3883C70.1228 15.1869 70.2859 14.9137 70.449 14.6404" stroke="black" stroke-width="1.5" stroke-linecap="round"/>
<path d="M62.895 19.2935C63.1669 19.1146 63.4386 18.9357 63.664 18.7411C63.8895 18.5466 64.0687 18.3362 64.1742 18.1329C64.2798 17.9295 64.3116 17.7329 64.2932 17.5217C64.2749 17.3105 64.2063 17.0846 64.1134 16.8092C64.0204 16.5339 63.9032 16.2092 63.8517 15.9065C63.8002 15.6038 63.8145 15.3233 63.8502 15.1152C63.8859 14.9072 63.943 14.7718 63.9926 14.6394C64.0421 14.5069 64.0842 14.3774 64.1868 14.176C64.2894 13.9746 64.4525 13.7015 64.6156 13.4282" stroke="black" stroke-width="1.5" stroke-linecap="round"/>
<path d="M80.479 39.4322C80.1531 39.4339 59.2704 39.5444 53.8675 39.5233C48.4647 39.5021 48.4267 39.4024 48.4266 39.5543C48.4266 39.7063 48.4645 40.1099 48.6138 40.497C48.763 40.8841 49.0232 41.2545 49.3576 41.5847C49.692 41.9149 50.086 42.1947 50.3788 42.356C50.6716 42.5174 50.8559 42.5554 55.4373 42.5696C60.0187 42.5838 68.9969 42.5743 73.5294 42.5505C78.0618 42.5267 78.1486 42.4887 78.4034 42.3748C78.6582 42.2608 79.0811 42.0708 79.4822 41.7432C79.8833 41.4156 80.2628 40.9502 80.4743 40.5941C80.6857 40.2381 80.7163 40.0635 80.7514 39.8363C80.7865 39.6092 80.7942 39.5349 80.805 39.4305C80.805 39.4305 80.805 39.4305 80.479 39.4322Z" stroke="black" stroke-width="1.4" stroke-linecap="round" stroke-linejoin="round"/>
<path d="M76.2782 26.7325C76.1913 26.1198 76.1043 25.5066 75.9264 25.1406C75.7486 24.7745 75.4796 24.6559 75.298 24.5962C75.1163 24.5365 75.0221 24.5361 71.1763 24.5526C67.3305 24.5692 59.7334 24.6028 55.9053 24.6201C52.0772 24.6375 52.0181 24.6387 51.947 24.6452C51.8759 24.6517 51.7929 24.6635 51.676 24.7248C51.5592 24.7862 51.4089 24.8969 51.2854 25.0629C51.162 25.2288 51.0685 25.4431 51.0201 25.978C50.9718 26.513 50.9698 27.3651 50.9857 27.9869C51.0015 28.6088 51.0351 29.0004 51.1627 29.651C51.2903 30.3017 51.5118 31.2112 51.8164 32.121C52.1211 33.0307 52.5087 33.9405 53.1635 34.9143C53.8183 35.8881 54.74 36.9258 55.6005 37.6958C56.4609 38.4658 57.26 38.9682 57.6753 39.2192C58.0906 39.4703 58.1223 39.4703 59.9901 39.4644C61.858 39.4584 65.5619 39.4466 67.4296 39.4346C69.2974 39.4227 69.329 39.4109 69.7303 39.1254C70.1316 38.8399 70.9026 38.2808 71.6323 37.6651C72.362 37.0493 73.0503 36.3768 73.6792 35.5303C74.3082 34.6838 74.8778 33.6632 75.2903 32.7063C75.7027 31.7493 75.9538 30.8706 76.0922 29.8896C76.2306 28.9086 76.2545 27.8168 76.2901 27.2509C76.3257 26.685 76.3732 26.6375 76.6305 26.627C76.8879 26.6165 77.3547 26.6428 77.8175 26.7154C78.2804 26.788 78.7393 26.9067 79.0873 27.1165C79.4354 27.3263 79.6727 27.6269 79.8703 27.909C80.0679 28.1911 80.2257 28.4545 80.3409 28.8435C80.4561 29.2326 80.5288 29.7473 80.5456 30.2591C80.5623 30.771 80.5231 31.2801 80.4112 31.7331C80.2993 32.1862 80.1147 32.5834 79.8266 32.9945C79.5385 33.4056 79.1469 33.8308 78.7106 34.2083C78.2743 34.5859 77.7932 34.916 77.2254 35.2209C76.6576 35.5258 76.0031 35.8055 75.3011 35.9957C74.599 36.1859 73.8494 36.2866 73.0994 36.3874" stroke="black" stroke-width="1.4" stroke-linecap="round"/>
<g filter="url(#filter0_d_17_1598)">
<path d="M96.1625 24.5L92.9353 12.8636H94.7818L97.0489 21.875H97.1568L99.5148 12.8636H101.344L103.702 21.8807H103.81L106.072 12.8636H107.924L104.691 24.5H102.924L100.475 15.7841H100.384L97.9353 24.5H96.1625ZM109.388 24.5V15.7727H111.087V24.5H109.388ZM110.246 14.4261C109.951 14.4261 109.697 14.3276 109.485 14.1307C109.277 13.9299 109.172 13.6913 109.172 13.4148C109.172 13.1345 109.277 12.8958 109.485 12.6989C109.697 12.4981 109.951 12.3977 110.246 12.3977C110.542 12.3977 110.794 12.4981 111.002 12.6989C111.214 12.8958 111.32 13.1345 111.32 13.4148C111.32 13.6913 111.214 13.9299 111.002 14.1307C110.794 14.3276 110.542 14.4261 110.246 14.4261ZM115.072 19.3182V24.5H113.373V15.7727H115.003V17.1932H115.111C115.312 16.7311 115.627 16.3598 116.055 16.0795C116.486 15.7992 117.03 15.6591 117.685 15.6591C118.28 15.6591 118.801 15.7841 119.248 16.0341C119.695 16.2803 120.041 16.6477 120.288 17.1364C120.534 17.625 120.657 18.2292 120.657 18.9489V24.5H118.958V19.1534C118.958 18.5208 118.793 18.0265 118.464 17.6705C118.134 17.3106 117.681 17.1307 117.106 17.1307C116.712 17.1307 116.361 17.2159 116.055 17.3864C115.752 17.5568 115.511 17.8068 115.333 18.1364C115.159 18.4621 115.072 18.8561 115.072 19.3182ZM124.634 19.3182V24.5H122.935V15.7727H124.566V17.1932H124.674C124.875 16.7311 125.189 16.3598 125.617 16.0795C126.049 15.7992 126.592 15.6591 127.248 15.6591C127.842 15.6591 128.363 15.7841 128.81 16.0341C129.257 16.2803 129.604 16.6477 129.85 17.1364C130.096 17.625 130.219 18.2292 130.219 18.9489V24.5H128.52V19.1534C128.52 18.5208 128.356 18.0265 128.026 17.6705C127.697 17.3106 127.244 17.1307 126.668 17.1307C126.274 17.1307 125.924 17.2159 125.617 17.3864C125.314 17.5568 125.074 17.8068 124.895 18.1364C124.721 18.4621 124.634 18.8561 124.634 19.3182ZM136.259 24.6761C135.399 24.6761 134.659 24.4924 134.038 24.125C133.42 23.7538 132.943 23.233 132.606 22.5625C132.272 21.8883 132.106 21.0985 132.106 20.1932C132.106 19.2992 132.272 18.5114 132.606 17.8295C132.943 17.1477 133.413 16.6155 134.015 16.233C134.621 15.8504 135.329 15.6591 136.14 15.6591C136.632 15.6591 137.109 15.7405 137.572 15.9034C138.034 16.0663 138.449 16.322 138.816 16.6705C139.183 17.0189 139.473 17.4716 139.685 18.0284C139.897 18.5814 140.003 19.2538 140.003 20.0455V20.6477H133.066V19.375H138.339C138.339 18.928 138.248 18.5322 138.066 18.1875C137.884 17.839 137.628 17.5644 137.299 17.3636C136.973 17.1629 136.591 17.0625 136.151 17.0625C135.674 17.0625 135.257 17.1799 134.901 17.4148C134.549 17.6458 134.276 17.9489 134.083 18.3239C133.894 18.6951 133.799 19.0985 133.799 19.5341V20.5284C133.799 21.1117 133.901 21.608 134.106 22.017C134.314 22.4261 134.604 22.7386 134.975 22.9545C135.346 23.1667 135.78 23.2727 136.276 23.2727C136.598 23.2727 136.892 23.2273 137.157 23.1364C137.422 23.0417 137.651 22.9015 137.844 22.7159C138.038 22.5303 138.185 22.3011 138.288 22.0284L139.895 22.3182C139.767 22.7917 139.536 23.2064 139.202 23.5625C138.873 23.9148 138.458 24.1894 137.958 24.3864C137.462 24.5795 136.895 24.6761 136.259 24.6761ZM141.888 24.5V15.7727H143.53V17.1591H143.621C143.78 16.6894 144.061 16.3201 144.462 16.0511C144.868 15.7784 145.326 15.642 145.837 15.642C145.943 15.642 146.068 15.6458 146.212 15.6534C146.36 15.661 146.475 15.6705 146.559 15.6818V17.3068C146.491 17.2879 146.369 17.267 146.195 17.2443C146.021 17.2178 145.847 17.2045 145.672 17.2045C145.271 17.2045 144.913 17.2898 144.599 17.4602C144.288 17.6269 144.042 17.8598 143.86 18.1591C143.678 18.4545 143.587 18.7917 143.587 19.1705V24.5H141.888ZM155.94 24.6761C155.121 24.6761 154.407 24.4886 153.797 24.1136C153.188 23.7386 152.714 23.214 152.377 22.5398C152.04 21.8655 151.871 21.0776 151.871 20.1761C151.871 19.2708 152.04 18.4792 152.377 17.8011C152.714 17.1231 153.188 16.5966 153.797 16.2216C154.407 15.8466 155.121 15.6591 155.94 15.6591C156.758 15.6591 157.472 15.8466 158.082 16.2216C158.691 16.5966 159.165 17.1231 159.502 17.8011C159.839 18.4792 160.008 19.2708 160.008 20.1761C160.008 21.0776 159.839 21.8655 159.502 22.5398C159.165 23.214 158.691 23.7386 158.082 24.1136C157.472 24.4886 156.758 24.6761 155.94 24.6761ZM155.945 23.25C156.475 23.25 156.915 23.1098 157.263 22.8295C157.612 22.5492 157.869 22.1761 158.036 21.7102C158.207 21.2443 158.292 20.7311 158.292 20.1705C158.292 19.6136 158.207 19.1023 158.036 18.6364C157.869 18.1667 157.612 17.7898 157.263 17.5057C156.915 17.2216 156.475 17.0795 155.945 17.0795C155.411 17.0795 154.968 17.2216 154.616 17.5057C154.267 17.7898 154.008 18.1667 153.837 18.6364C153.671 19.1023 153.587 19.6136 153.587 20.1705C153.587 20.7311 153.671 21.2443 153.837 21.7102C154.008 22.1761 154.267 22.5492 154.616 22.8295C154.968 23.1098 155.411 23.25 155.945 23.25ZM166.057 15.7727V17.1364H161.126V15.7727H166.057ZM162.478 24.5V14.7614C162.478 14.2159 162.597 13.7633 162.836 13.4034C163.074 13.0398 163.391 12.7689 163.785 12.5909C164.179 12.4091 164.607 12.3182 165.069 12.3182C165.41 12.3182 165.701 12.3466 165.944 12.4034C166.186 12.4564 166.366 12.5057 166.484 12.5511L166.086 13.9261C166.006 13.9034 165.904 13.8769 165.779 13.8466C165.654 13.8125 165.502 13.7955 165.324 13.7955C164.912 13.7955 164.616 13.8977 164.438 14.1023C164.264 14.3068 164.177 14.6023 164.177 14.9886V24.5H162.478Z" fill="black"/>
<path d="M93.137 33.5632V31.1364H103.587V33.5632H99.838V43.5H96.8919V33.5632H93.137ZM108.036 43.6751C107.066 43.6751 106.229 43.4839 105.525 43.1016C104.824 42.7152 104.285 42.1658 103.907 41.4535C103.533 40.7371 103.345 39.8859 103.345 38.8999C103.345 37.942 103.535 37.1049 103.913 36.3885C104.291 35.6681 104.824 35.1087 105.513 34.7102C106.201 34.3078 107.012 34.1065 107.946 34.1065C108.606 34.1065 109.209 34.2092 109.757 34.4144C110.304 34.6197 110.777 34.9235 111.175 35.326C111.574 35.7285 111.884 36.2255 112.105 36.8171C112.326 37.4047 112.437 38.0788 112.437 38.8395V39.576H104.378V37.8615H109.69C109.686 37.5476 109.612 37.2679 109.467 37.0224C109.322 36.7769 109.123 36.5857 108.869 36.4489C108.62 36.308 108.332 36.2376 108.006 36.2376C107.676 36.2376 107.38 36.312 107.118 36.4609C106.857 36.6058 106.65 36.805 106.497 37.0586C106.344 37.3081 106.263 37.5919 106.255 37.9098V39.6545C106.255 40.0328 106.33 40.3648 106.479 40.6506C106.627 40.9323 106.839 41.1516 107.112 41.3086C107.386 41.4656 107.712 41.544 108.09 41.544C108.352 41.544 108.589 41.5078 108.803 41.4354C109.016 41.3629 109.199 41.2563 109.352 41.1154C109.505 40.9745 109.62 40.8015 109.696 40.5962L112.407 40.6747C112.294 41.2824 112.047 41.8117 111.664 42.2624C111.286 42.7092 110.789 43.0573 110.173 43.3068C109.557 43.5523 108.845 43.6751 108.036 43.6751ZM116.559 43.657C115.967 43.657 115.442 43.5584 114.983 43.3611C114.528 43.1599 114.168 42.8581 113.902 42.4556C113.641 42.0491 113.51 41.54 113.51 40.9283C113.51 40.4131 113.601 39.9785 113.782 39.6243C113.963 39.2701 114.212 38.9824 114.53 38.761C114.848 38.5397 115.215 38.3726 115.629 38.2599C116.044 38.1432 116.486 38.0647 116.957 38.0245C117.484 37.9762 117.909 37.9259 118.231 37.8736C118.553 37.8172 118.786 37.7388 118.931 37.6381C119.08 37.5335 119.155 37.3866 119.155 37.1974V37.1673C119.155 36.8574 119.048 36.6179 118.835 36.4489C118.621 36.2798 118.334 36.1953 117.971 36.1953C117.581 36.1953 117.267 36.2798 117.03 36.4489C116.792 36.6179 116.641 36.8513 116.577 37.1491L113.854 37.0526C113.935 36.4891 114.142 35.986 114.476 35.5433C114.814 35.0966 115.277 34.7464 115.864 34.4929C116.456 34.2353 117.166 34.1065 117.996 34.1065C118.587 34.1065 119.132 34.177 119.632 34.3178C120.131 34.4547 120.565 34.6559 120.936 34.9215C121.306 35.1831 121.592 35.5051 121.793 35.8874C121.998 36.2698 122.101 36.7064 122.101 37.1974V43.5H119.324V42.2081H119.251C119.086 42.522 118.875 42.7876 118.617 43.005C118.364 43.2223 118.064 43.3853 117.718 43.494C117.376 43.6026 116.989 43.657 116.559 43.657ZM117.47 41.7251C117.788 41.7251 118.074 41.6607 118.328 41.532C118.585 41.4032 118.79 41.2261 118.943 41.0007C119.096 40.7713 119.173 40.5057 119.173 40.2038V39.3224C119.088 39.3667 118.986 39.407 118.865 39.4432C118.748 39.4794 118.619 39.5136 118.478 39.5458C118.338 39.578 118.193 39.6062 118.044 39.6303C117.895 39.6545 117.752 39.6766 117.615 39.6967C117.338 39.741 117.1 39.8094 116.903 39.902C116.71 39.9946 116.561 40.1153 116.456 40.2642C116.355 40.4091 116.305 40.5821 116.305 40.7834C116.305 41.0892 116.414 41.3227 116.631 41.4837C116.853 41.6446 117.132 41.7251 117.47 41.7251ZM135.128 35.6158H132.11C132.07 35.3059 131.987 35.0262 131.862 34.7766C131.738 34.5271 131.573 34.3138 131.367 34.1367C131.162 33.9596 130.919 33.8248 130.637 33.7322C130.359 33.6357 130.051 33.5874 129.713 33.5874C129.114 33.5874 128.596 33.7343 128.162 34.0281C127.731 34.3218 127.399 34.7464 127.166 35.3018C126.936 35.8572 126.822 36.5294 126.822 37.3182C126.822 38.1392 126.938 38.8274 127.172 39.3828C127.409 39.9342 127.741 40.3507 128.168 40.6325C128.598 40.9102 129.108 41.049 129.695 41.049C130.025 41.049 130.325 41.0067 130.595 40.9222C130.868 40.8377 131.108 40.715 131.313 40.554C131.522 40.389 131.693 40.1897 131.826 39.9563C131.963 39.7189 132.058 39.4512 132.11 39.1534L135.128 39.1715C135.076 39.7189 134.917 40.2582 134.651 40.7894C134.39 41.3207 134.03 41.8056 133.571 42.2443C133.112 42.679 132.553 43.0251 131.893 43.2827C131.237 43.5402 130.484 43.669 129.635 43.669C128.516 43.669 127.514 43.4235 126.628 42.9325C125.747 42.4375 125.051 41.7171 124.54 40.7713C124.028 39.8255 123.773 38.6745 123.773 37.3182C123.773 35.9579 124.032 34.8048 124.552 33.859C125.071 32.9132 125.773 32.1948 126.659 31.7038C127.544 31.2128 128.536 30.9673 129.635 30.9673C130.383 30.9673 131.076 31.072 131.711 31.2812C132.347 31.4865 132.907 31.7884 133.39 32.1868C133.873 32.5812 134.265 33.0662 134.567 33.6417C134.869 34.2172 135.056 34.8752 135.128 35.6158ZM141.167 43.6751C140.193 43.6751 139.356 43.4758 138.655 43.0774C137.959 42.6749 137.422 42.1155 137.044 41.3991C136.669 40.6787 136.482 39.8436 136.482 38.8938C136.482 37.94 136.669 37.1049 137.044 36.3885C137.422 35.6681 137.959 35.1087 138.655 34.7102C139.356 34.3078 140.193 34.1065 141.167 34.1065C142.141 34.1065 142.976 34.3078 143.672 34.7102C144.372 35.1087 144.91 35.6681 145.284 36.3885C145.662 37.1049 145.851 37.94 145.851 38.8938C145.851 39.8436 145.662 40.6787 145.284 41.3991C144.91 42.1155 144.372 42.6749 143.672 43.0774C142.976 43.4758 142.141 43.6751 141.167 43.6751ZM141.185 41.4474C141.539 41.4474 141.839 41.3388 142.084 41.1214C142.33 40.9041 142.517 40.6023 142.646 40.2159C142.779 39.8295 142.845 39.3828 142.845 38.8757C142.845 38.3606 142.779 37.9098 142.646 37.5234C142.517 37.1371 142.33 36.8352 142.084 36.6179C141.839 36.4006 141.539 36.2919 141.185 36.2919C140.819 36.2919 140.509 36.4006 140.255 36.6179C140.006 36.8352 139.815 37.1371 139.682 37.5234C139.553 37.9098 139.489 38.3606 139.489 38.8757C139.489 39.3828 139.553 39.8295 139.682 40.2159C139.815 40.6023 140.006 40.9041 140.255 41.1214C140.509 41.3388 140.819 41.4474 141.185 41.4474ZM150.316 38.2116V43.5H147.364V34.2273H150.171V35.9297H150.273C150.479 35.3622 150.829 34.9175 151.324 34.5955C151.819 34.2695 152.409 34.1065 153.093 34.1065C153.745 34.1065 154.31 34.2534 154.789 34.5472C155.272 34.837 155.646 35.2435 155.912 35.7667C156.182 36.2859 156.314 36.8936 156.31 37.5898V43.5H153.358V38.1694C153.362 37.6542 153.232 37.2518 152.966 36.962C152.704 36.6722 152.34 36.5273 151.873 36.5273C151.563 36.5273 151.29 36.5958 151.052 36.7326C150.819 36.8654 150.638 37.0566 150.509 37.3061C150.384 37.5556 150.32 37.8575 150.316 38.2116ZM161.766 43.5V41.3508L166.276 37.4027C166.614 37.0968 166.902 36.8171 167.139 36.5636C167.377 36.306 167.558 36.0484 167.682 35.7908C167.807 35.5292 167.87 35.2455 167.87 34.9396C167.87 34.5975 167.795 34.3058 167.646 34.0643C167.497 33.8188 167.292 33.6296 167.03 33.4968C166.769 33.364 166.469 33.2976 166.131 33.2976C165.789 33.2976 165.489 33.368 165.231 33.5089C164.974 33.6457 164.773 33.8449 164.628 34.1065C164.487 34.3681 164.417 34.6861 164.417 35.0604H161.585C161.585 34.2192 161.774 33.4928 162.153 32.881C162.531 32.2693 163.062 31.7984 163.746 31.4684C164.435 31.1344 165.234 30.9673 166.143 30.9673C167.081 30.9673 167.896 31.1243 168.588 31.4382C169.28 31.7521 169.816 32.1908 170.194 32.7543C170.576 33.3137 170.767 33.9637 170.767 34.7042C170.767 35.1751 170.673 35.6419 170.484 36.1048C170.294 36.5676 169.954 37.0787 169.463 37.6381C168.976 38.1976 168.284 38.8677 167.387 39.6484L165.908 41.0128V41.0913H170.918V43.5H161.766ZM177.72 43.8018C176.642 43.8018 175.712 43.5463 174.931 43.0352C174.151 42.52 173.549 41.7815 173.126 40.8196C172.704 39.8537 172.494 38.6926 172.498 37.3363C172.502 35.98 172.714 34.829 173.132 33.8832C173.555 32.9334 174.155 32.2109 174.931 31.7159C175.712 31.2169 176.642 30.9673 177.72 30.9673C178.799 30.9673 179.729 31.2169 180.509 31.7159C181.294 32.2109 181.898 32.9334 182.321 33.8832C182.743 34.833 182.952 35.984 182.948 37.3363C182.948 38.6966 182.737 39.8597 182.314 40.8256C181.892 41.7915 181.29 42.5301 180.509 43.0412C179.733 43.5483 178.803 43.8018 177.72 43.8018ZM177.72 41.3569C178.364 41.3569 178.886 41.0289 179.284 40.3729C179.682 39.7128 179.88 38.7006 179.876 37.3363C179.876 36.4428 179.785 35.7063 179.604 35.1268C179.423 34.5432 179.171 34.1085 178.849 33.8228C178.527 33.537 178.151 33.3942 177.72 33.3942C177.08 33.3942 176.563 33.7182 176.169 34.3661C175.774 35.0101 175.575 36.0001 175.571 37.3363C175.567 38.2418 175.654 38.9924 175.831 39.5881C176.012 40.1837 176.265 40.6284 176.591 40.9222C176.917 41.212 177.294 41.3569 177.72 41.3569ZM184.66 43.5V41.3508L189.169 37.4027C189.507 37.0968 189.795 36.8171 190.033 36.5636C190.27 36.306 190.451 36.0484 190.576 35.7908C190.701 35.5292 190.763 35.2455 190.763 34.9396C190.763 34.5975 190.689 34.3058 190.54 34.0643C190.391 33.8188 190.186 33.6296 189.924 33.4968C189.662 33.364 189.363 33.2976 189.025 33.2976C188.682 33.2976 188.383 33.368 188.125 33.5089C187.867 33.6457 187.666 33.8449 187.521 34.1065C187.38 34.3681 187.31 34.6861 187.31 35.0604H184.479C184.479 34.2192 184.668 33.4928 185.046 32.881C185.425 32.2693 185.956 31.7984 186.64 31.4684C187.328 31.1344 188.127 30.9673 189.037 30.9673C189.974 30.9673 190.789 31.1243 191.482 31.4382C192.174 31.7521 192.709 32.1908 193.087 32.7543C193.47 33.3137 193.661 33.9637 193.661 34.7042C193.661 35.1751 193.566 35.6419 193.377 36.1048C193.188 36.5676 192.848 37.0787 192.357 37.6381C191.87 38.1976 191.178 38.8677 190.28 39.6484L188.801 41.0128V41.0913H193.812V43.5H184.66ZM201.218 31.1364V43.5H198.235V33.9254H198.163L195.398 35.6158V33.032L198.447 31.1364H201.218ZM213.834 28.965H219.614V31.175H216.265V39.76H213.834V28.965ZM229.372 37.686H231.871V41.868C231.871 42.1627 231.9 42.3497 231.956 42.429C232.024 42.497 232.172 42.531 232.398 42.531C232.455 42.531 232.529 42.531 232.619 42.531C232.721 42.531 232.829 42.531 232.942 42.531C233.056 42.531 233.163 42.531 233.265 42.531C233.367 42.531 233.447 42.531 233.503 42.531C233.651 42.531 233.764 42.48 233.843 42.378C233.923 42.276 233.979 42.072 234.013 41.766C234.047 41.4487 234.076 40.9727 234.098 40.338C234.268 40.4627 234.484 40.593 234.744 40.729C235.016 40.8537 235.294 40.967 235.577 41.069C235.872 41.171 236.127 41.2503 236.342 41.307C236.263 42.2363 236.127 42.9617 235.934 43.483C235.753 43.993 235.487 44.35 235.135 44.554C234.784 44.758 234.319 44.86 233.741 44.86C233.639 44.86 233.509 44.86 233.35 44.86C233.192 44.86 233.027 44.86 232.857 44.86C232.699 44.86 232.54 44.86 232.381 44.86C232.234 44.86 232.109 44.86 232.007 44.86C231.293 44.86 230.744 44.7637 230.358 44.571C229.984 44.3897 229.724 44.078 229.576 43.636C229.44 43.2053 229.372 42.6217 229.372 41.885V37.686ZM220.906 35.833H236.223V38.213H220.906V35.833ZM223.711 31.073H234.812V33.436H223.711V31.073ZM224.782 37.703H227.383C227.304 38.4737 227.179 39.2217 227.009 39.947C226.839 40.661 226.573 41.341 226.21 41.987C225.848 42.633 225.343 43.228 224.697 43.772C224.051 44.316 223.207 44.792 222.164 45.2C222.074 44.9733 221.938 44.724 221.756 44.452C221.586 44.18 221.399 43.9137 221.195 43.653C221.003 43.3923 220.81 43.177 220.617 43.007C221.513 42.7123 222.221 42.3723 222.742 41.987C223.275 41.6017 223.677 41.1767 223.949 40.712C224.221 40.2473 224.414 39.7657 224.527 39.267C224.641 38.757 224.726 38.2357 224.782 37.703ZM223.49 29.118L226.006 29.611C225.825 30.291 225.61 30.9993 225.36 31.736C225.111 32.4727 224.828 33.181 224.51 33.861C224.204 34.541 223.864 35.1303 223.49 35.629C223.298 35.5043 223.065 35.374 222.793 35.238C222.533 35.0907 222.266 34.9547 221.994 34.83C221.722 34.7053 221.484 34.609 221.28 34.541C221.643 34.0763 221.966 33.5323 222.249 32.909C222.544 32.2857 222.793 31.6453 222.997 30.988C223.213 30.3193 223.377 29.696 223.49 29.118ZM227.315 28.965H229.831V36.547H227.315V28.965ZM244.621 39.624H251.982V41.29H244.621V39.624ZM243.652 41.817H253.002V43.619H243.652V41.817ZM244.162 37.414H252.356V39.165H244.162V37.414ZM247.137 36.53H249.534V45.098H247.137V36.53ZM247.154 30.563H250.843V32.45H246.219L247.154 30.563ZM250.231 30.563H250.656L251.047 30.478L252.526 31.175C252.175 32.0477 251.716 32.824 251.149 33.504C250.594 34.1727 249.954 34.7563 249.228 35.255C248.503 35.7537 247.71 36.1787 246.848 36.53C245.998 36.8813 245.103 37.1703 244.162 37.397C244.049 37.1363 243.879 36.8247 243.652 36.462C243.426 36.0993 243.21 35.8103 243.006 35.595C243.834 35.4363 244.627 35.221 245.386 34.949C246.146 34.6657 246.843 34.3313 247.477 33.946C248.112 33.5493 248.662 33.096 249.126 32.586C249.602 32.076 249.971 31.5093 250.231 30.886V30.563ZM246.984 32.11C247.415 32.654 247.976 33.1527 248.667 33.606C249.359 34.048 250.146 34.4277 251.03 34.745C251.914 35.0623 252.855 35.3117 253.852 35.493C253.694 35.6403 253.518 35.833 253.325 36.071C253.144 36.309 252.968 36.5527 252.798 36.802C252.64 37.04 252.509 37.2553 252.407 37.448C251.353 37.1987 250.367 36.8587 249.449 36.428C248.531 35.9973 247.698 35.4817 246.95 34.881C246.214 34.2803 245.568 33.6003 245.012 32.841L246.984 32.11ZM246.882 28.999L248.956 29.594C248.48 30.6027 247.846 31.5377 247.052 32.399C246.259 33.249 245.409 33.9403 244.502 34.473C244.412 34.3257 244.281 34.1387 244.111 33.912C243.953 33.6853 243.783 33.4587 243.601 33.232C243.42 33.0053 243.256 32.824 243.108 32.688C243.913 32.2913 244.65 31.77 245.318 31.124C245.998 30.478 246.52 29.7697 246.882 28.999ZM239.045 28.999L241.187 29.611C240.995 30.291 240.757 30.9767 240.473 31.668C240.201 32.348 239.89 32.9883 239.538 33.589C239.187 34.1897 238.807 34.7167 238.399 35.17C238.343 34.9887 238.246 34.745 238.11 34.439C237.986 34.133 237.844 33.827 237.685 33.521C237.538 33.2037 237.402 32.9543 237.277 32.773C237.674 32.3083 238.02 31.7417 238.314 31.073C238.62 30.4043 238.864 29.713 239.045 28.999ZM239.725 30.427H243.788V32.552H239.3L239.725 30.427ZM239.912 45.115L239.368 42.82L239.895 42.106L243.465 39.726C243.533 40.0547 243.63 40.4343 243.754 40.865C243.879 41.2843 243.998 41.6187 244.111 41.868C243.307 42.4347 242.649 42.905 242.139 43.279C241.629 43.6417 241.227 43.9363 240.932 44.163C240.638 44.401 240.417 44.588 240.269 44.724C240.122 44.8713 240.003 45.0017 239.912 45.115ZM238.858 33.708H243.312V35.901H238.858V33.708ZM237.872 37.21H243.703V39.403H237.872V37.21ZM239.912 45.115C239.856 44.911 239.765 44.673 239.64 44.401C239.516 44.129 239.38 43.857 239.232 43.585C239.085 43.3243 238.943 43.109 238.807 42.939C239.011 42.8143 239.21 42.616 239.402 42.344C239.595 42.0607 239.691 41.732 239.691 41.358V34.048H241.952V43.075C241.952 43.075 241.85 43.143 241.646 43.279C241.442 43.4037 241.204 43.568 240.932 43.772C240.66 43.9873 240.422 44.214 240.218 44.452C240.014 44.69 239.912 44.911 239.912 45.115ZM260.244 45.115H254.464V42.905H257.813V34.32H260.244V45.115Z" fill="black"/>
</g>
<path d="M291.449 8.66923C291.722 10.2293 292.11 11.2992 292.775 12.2882C293.223 12.9574 293.717 13.4177 294.301 13.7076C294.957 14.0401 295.507 14.1381 295.725 13.9676C295.784 13.9207 295.878 13.8824 295.938 13.8824C296.134 13.8824 296.151 13.8099 296.125 13.0853C296.104 12.3265 296.027 11.9685 295.78 11.4271C295.196 10.1739 293.981 9.16369 291.927 8.23871C291.637 8.10657 291.385 8.00001 291.368 8.00001C291.351 8.00001 291.385 8.30265 291.449 8.66923Z" fill="black"/>
<path d="M297.916 9.75618C296.837 11.7852 296.492 13.4561 296.884 14.7945C297.153 15.7238 297.933 16.8661 298.291 16.8661C298.491 16.8661 298.943 16.2694 299.275 15.5661C299.565 14.9565 299.651 14.543 299.655 13.7545C299.655 12.902 299.518 12.2498 299.139 11.2737C298.964 10.8176 298.282 9.42796 298.206 9.36402C298.163 9.32992 298.095 9.4237 297.916 9.75618Z" fill="black"/>
<path d="M292.259 13.4859C292.259 13.503 292.345 13.8269 292.451 14.202C293.184 16.7809 294.51 18.5456 295.993 18.9292C296.68 19.104 297.055 19.0997 297.212 18.9164C297.251 18.8696 297.353 18.8184 297.438 18.8014C297.524 18.7886 297.605 18.7459 297.617 18.7118C297.63 18.682 297.617 18.4476 297.592 18.1918C297.447 16.7894 296.91 15.8815 295.703 14.9864C294.885 14.3768 294.054 14.006 292.357 13.4817C292.302 13.4646 292.259 13.4646 292.259 13.4859Z" fill="black"/>
<path d="M300.763 15.6513C299.804 16.8704 299.271 17.8125 299.011 18.763C298.879 19.2362 298.828 20.127 298.905 20.5405C299.015 21.133 299.292 21.815 299.625 22.318C299.77 22.5396 299.778 22.5439 299.94 22.5226C300.179 22.4885 300.401 22.3265 300.708 21.9599C301.296 21.2524 301.633 20.5746 301.816 19.7221C301.935 19.185 301.94 18.1535 301.833 17.4842C301.697 16.6402 301.3 15.1185 301.215 15.1185C301.194 15.1185 300.993 15.3572 300.763 15.6513Z" fill="black"/>
<path d="M295.132 18.8994C295.145 19.0145 295.166 19.3811 295.179 19.7221C295.256 21.5635 295.605 22.8039 296.356 23.9037C296.82 24.5814 297.592 25.191 298.223 25.3743C298.431 25.4382 298.466 25.4382 298.598 25.3743C298.674 25.3359 298.785 25.3061 298.841 25.3061C298.9 25.3061 298.956 25.272 298.973 25.2293C299.045 25.0375 299.131 24.5175 299.152 24.1125C299.224 22.7101 298.581 21.4186 297.212 20.2208C296.466 19.5686 295.294 18.6991 295.166 18.6991C295.128 18.6991 295.119 18.7545 295.132 18.8994Z" fill="black"/>
<path d="M302.992 21.6573C301.253 22.6974 300.264 23.6309 299.736 24.7306C299.437 25.3615 299.399 25.5533 299.403 26.4356C299.408 27.0452 299.425 27.2668 299.489 27.5226C299.565 27.8252 299.578 27.8423 299.697 27.8551C299.77 27.8636 299.842 27.8892 299.868 27.9105C300.013 28.0511 300.618 27.838 301.147 27.4629C301.867 26.9471 302.583 25.9241 302.95 24.8798C303.197 24.1637 303.397 23.1449 303.448 22.3222C303.461 22.1006 303.483 21.798 303.495 21.6488C303.504 21.5038 303.5 21.3845 303.483 21.3845C303.465 21.3845 303.244 21.5081 302.992 21.6573Z" fill="black"/>
<path d="M295.396 23.7758C295.35 23.9165 295.158 24.9395 295.09 25.4126C294.992 26.0946 294.992 27.237 295.085 27.7613C295.273 28.8014 295.703 29.6454 296.415 30.3572C296.91 30.8559 297.072 30.954 297.391 30.954H297.651L297.766 30.7408C297.967 30.3785 298.176 29.6667 298.231 29.1594C298.372 27.8636 297.818 26.4527 296.564 24.9309C296.074 24.3384 295.426 23.6905 295.396 23.7758Z" fill="black"/>
<path d="M303.521 27.5013C302.191 27.7144 301.168 28.0043 300.499 28.3495C299.544 28.844 298.845 29.5985 298.449 30.5533C298.308 30.89 298.116 31.7425 298.154 31.8491C298.167 31.8789 298.257 31.9301 298.346 31.9557C298.444 31.9812 298.547 32.0452 298.585 32.1006C298.687 32.2583 298.909 32.3137 299.352 32.2839C300.746 32.1901 301.863 31.3973 303.031 29.6709C303.466 29.023 304.284 27.3862 304.165 27.399C304.148 27.4032 303.858 27.4459 303.521 27.5013Z" fill="black"/>
<path d="M294.335 28.9548C294.288 29.0401 293.964 30.0887 293.866 30.4851C293.628 31.4271 293.602 31.6317 293.606 32.5524C293.606 33.3623 293.615 33.4561 293.721 33.844C293.917 34.5686 294.382 35.3785 294.936 35.9454C295.235 36.2523 295.392 36.3461 295.605 36.3461C295.763 36.3461 295.789 36.3291 295.921 36.1287C296.275 35.5874 296.526 34.8883 296.611 34.2191C296.769 32.9233 296.16 31.2651 294.898 29.5899C294.472 29.0188 294.369 28.9037 294.335 28.9548Z" fill="black"/>
<path d="M291.743 32.7315C291.159 33.8142 290.823 34.6922 290.639 35.5831C290.516 36.1671 290.537 37.1262 290.678 37.6249C290.929 38.5115 291.731 39.7136 292.063 39.7136C292.178 39.7136 292.553 39.3001 292.809 38.8824C293.078 38.4561 293.299 37.9318 293.402 37.4885C293.508 37.0196 293.495 35.9028 293.38 35.3657C293.269 34.8755 293.069 34.2362 292.869 33.746C292.702 33.3368 292.208 32.3137 292.123 32.1986C292.072 32.1347 292.029 32.1944 291.743 32.7315Z" fill="black"/>
<path d="M301.893 32.1986C301.334 32.2327 300.52 32.3436 300.132 32.4416C298.717 32.8039 297.613 33.682 297.076 34.8755C296.974 35.1057 296.735 35.792 296.735 35.8602C296.735 35.8687 296.837 35.9241 296.961 35.9795C297.08 36.0349 297.225 36.1373 297.276 36.2055C297.408 36.393 297.685 36.4484 298.308 36.4186C299.403 36.3674 300.32 35.9156 301.3 34.9437C301.871 34.3725 302.361 33.7374 302.83 32.9488C303.052 32.5823 303.252 32.254 303.269 32.2242C303.295 32.1816 303.184 32.1688 302.715 32.1773C302.391 32.1816 302.02 32.1901 301.893 32.1986Z" fill="black"/>
<path d="M288.913 35.7153C287.319 37.2583 286.59 38.4945 286.479 39.8329C286.428 40.451 286.611 41.3419 286.923 41.9727L287.08 42.2924H287.336C287.558 42.2924 287.622 42.2711 287.805 42.1432C288.5 41.6658 289.212 40.6513 289.501 39.7349C289.736 38.9804 289.766 38.7502 289.766 37.5823C289.766 36.653 289.749 36.4015 289.663 35.8559C289.608 35.5021 289.548 35.1995 289.531 35.1824C289.514 35.1611 289.233 35.3998 288.913 35.7153Z" fill="black"/>
<path d="M297.067 36.6701C295.853 36.8576 295.171 37.156 294.506 37.7911C294.156 38.1236 293.913 38.4348 293.649 38.8866C293.376 39.3598 293.376 39.3512 293.666 39.5345C293.807 39.6198 293.934 39.7263 293.947 39.7647C294.054 40.1014 295.094 40.3401 295.946 40.2293C296.419 40.1654 297.123 39.9352 297.545 39.705C298.376 39.2532 299.412 38.4135 299.732 37.9403C299.838 37.7783 300.064 37.497 300.23 37.3095C300.396 37.1262 300.524 36.9685 300.516 36.9599C300.507 36.9514 300.23 36.896 299.906 36.8363C298.521 36.5933 297.809 36.5507 297.067 36.6701Z" fill="black"/>
<path d="M285.333 39.0273C283.056 39.5516 281.714 40.2634 280.963 41.3546C280.601 41.8832 280.303 42.7613 280.252 43.4476L280.226 43.7928L280.375 43.8227C280.46 43.8355 280.588 43.9079 280.665 43.9804L280.801 44.1168L281.236 44.0955C281.957 44.0614 282.647 43.78 283.316 43.2515C283.9 42.7911 284.685 41.7596 285.196 40.7792C285.414 40.37 285.865 39.2788 285.934 39.0145C285.968 38.8781 285.985 38.8781 285.333 39.0273Z" fill="black"/>
<path d="M292.195 40.2719C291.466 40.3742 290.639 40.7707 290.064 41.3035C289.744 41.5933 289.318 42.0963 289.318 42.1773C289.318 42.2029 289.433 42.3222 289.574 42.4459C289.714 42.5695 289.842 42.7144 289.855 42.7698C289.906 42.9659 290.362 43.2259 290.968 43.4049C292.008 43.7076 293.223 43.5158 294.569 42.8338C295.345 42.4416 295.716 42.1944 295.865 41.9685C295.934 41.8662 296.159 41.6488 296.364 41.4825C296.616 41.2822 296.718 41.1756 296.679 41.1543C296.65 41.1373 296.317 41.0094 295.942 40.8687C295.166 40.5831 294.582 40.4126 294.054 40.3274C293.572 40.2506 292.57 40.2208 292.195 40.2719Z" fill="black"/>
<path d="M286.658 42.8934C286.27 42.9787 285.874 43.1321 285.482 43.341C285.102 43.5456 284.676 43.8525 284.672 43.9164C284.672 43.942 284.783 44.1168 284.919 44.3086C285.051 44.5004 285.209 44.7349 285.269 44.8329C285.46 45.1483 286.1 45.6215 286.624 45.8346C287.617 46.2353 288.798 46.2481 290.277 45.8772C290.959 45.7025 291.151 45.6172 291.232 45.451C291.27 45.3657 291.368 45.2975 291.573 45.208C291.726 45.1398 291.91 45.0588 291.978 45.029L292.102 44.9736L291.65 44.6453C290.316 43.6735 289.497 43.2387 288.466 42.9702C287.937 42.8295 287.093 42.7954 286.658 42.8934Z" fill="black"/>
<path d="M281.283 44.688C281.121 44.7221 280.84 44.8073 280.665 44.8755C280.35 44.9949 279.71 45.3359 279.612 45.4382C279.535 45.5149 280.162 46.5209 280.495 46.8619C280.968 47.3478 281.56 47.6846 282.306 47.8849C282.707 47.9915 282.788 48 283.67 48C284.463 48 284.689 47.9872 285.141 47.902C285.759 47.7911 286.036 47.6846 286.036 47.5652C286.036 47.4714 286.181 47.3905 286.569 47.2754C286.709 47.2327 286.837 47.1858 286.859 47.1731C286.893 47.1432 286.01 46.3717 285.49 45.9795C284.552 45.2805 283.649 44.8457 282.796 44.6837C282.362 44.5985 281.68 44.6027 281.283 44.688Z" fill="black"/>
<defs>
<filter id="filter0_d_17_1598" x="87.0057" y="3.9" width="190.2" height="48.2" filterUnits="userSpaceOnUse" color-interpolation-filters="sRGB">
<feFlood flood-opacity="0" result="BackgroundImageFix"/>
<feColorMatrix in="SourceAlpha" type="matrix" values="0 0 0 0 0 0 0 0 0 0 0 0 0 0 0 0 0 0 127 0" result="hardAlpha"/>
<feOffset/>
<feGaussianBlur stdDeviation="2.8"/>
<feComposite in2="hardAlpha" operator="out"/>
<feColorMatrix type="matrix" values="0 0 0 0 0 0 0 0 0 0 0 0 0 0 0 0 0 0 0.25 0"/>
<feBlend mode="normal" in2="BackgroundImageFix" result="effect1_dropShadow_17_1598"/>
<feBlend mode="normal" in="SourceGraphic" in2="effect1_dropShadow_17_1598" result="shape"/>
</filter>
<linearGradient id="paint0_linear_17_1598" x1="158.088" y1="0" x2="158.088" y2="56" gradientUnits="userSpaceOnUse">
<stop stop-color="#73E280"/>
<stop offset="1" stop-color="#11A304"/>
</linearGradient>
</defs>
</svg>
