<svg width="336" height="56" viewBox="0 0 336 56" fill="none" xmlns="http://www.w3.org/2000/svg">
<rect width="335.176" height="56" rx="8" fill="url(#paint0_linear_17_2998)"/>
<rect x="1.05" y="1.05" width="333.076" height="53.9" rx="6.95" stroke="white" stroke-opacity="0.15" stroke-width="2.1"/>
<path d="M24.3711 8.18343C22.3164 9.10423 21.0588 10.106 20.4577 11.2996C20.1764 11.8624 20.0187 12.5828 20.0272 13.2521C20.0357 13.7679 20.0613 13.8532 20.2148 13.8702C20.283 13.8787 20.3853 13.9214 20.4407 13.9682C20.6538 14.1345 21.2123 14.0322 21.8603 13.7039C23.0326 13.1157 23.9875 11.6961 24.4948 9.7863C24.5928 9.41542 24.8401 8.14933 24.8401 8.01291C24.8401 7.97881 24.7718 8.00438 24.3711 8.18343Z" fill="black"/>
<path d="M17.7252 9.79914C16.3184 12.4379 16.1394 14.3477 17.1497 16.0529C17.3969 16.4707 17.6868 16.8117 17.8317 16.8458C17.9895 16.8884 18.2069 16.7222 18.501 16.3257C19.814 14.5779 19.7842 12.8045 18.3902 10.008C18.2026 9.62862 18.0321 9.31743 18.0151 9.31743C17.998 9.31743 17.8658 9.53484 17.7252 9.79914Z" fill="black"/>
<path d="M23.3565 13.623C22.4954 13.9 22.035 14.0876 21.4723 14.3775C20.3085 14.9786 19.4474 15.7587 19.0211 16.607C18.744 17.1569 18.5735 17.8816 18.5735 18.504V18.7726L18.727 18.7982C18.8079 18.8152 18.9103 18.8664 18.9486 18.9133C19.0765 19.0582 19.3025 19.0923 19.7245 19.0198C20.5259 18.8792 21.0588 18.6063 21.6556 18.0266C22.5721 17.1399 23.2499 15.8738 23.7359 14.1686C23.8297 13.8318 23.915 13.5334 23.9235 13.5036C23.9491 13.4354 23.9533 13.4311 23.3565 13.623Z" fill="black"/>
<path d="M14.7454 15.7417C14.0036 18.3549 14.1102 20.0345 15.1077 21.4967C15.5639 22.1702 15.9774 22.5326 16.2843 22.5326C16.3823 22.5326 16.4335 22.4814 16.5998 22.2214C16.7106 22.0551 16.8768 21.7439 16.9664 21.5351C17.738 19.7489 17.269 17.9712 15.4189 15.6479C15.1845 15.3538 14.9756 15.1151 14.9585 15.1151C14.9372 15.1151 14.8392 15.3964 14.7454 15.7417Z" fill="black"/>
<path d="M20.5131 19.0029C19.3578 19.8299 18.3816 20.7123 17.8999 21.3603C17.6186 21.7397 17.2775 22.4175 17.1667 22.831C16.9876 23.496 16.9834 24.2719 17.1454 25.0008C17.2093 25.2737 17.2264 25.3035 17.3159 25.3035C17.3756 25.3035 17.4864 25.3334 17.5631 25.3717C17.6953 25.4357 17.7294 25.4357 17.9383 25.3717C18.5436 25.1927 19.3067 24.6087 19.7756 23.9522C20.658 22.7287 20.965 21.4669 21.046 18.7258C21.046 18.649 20.9095 18.7215 20.5131 19.0029Z" fill="black"/>
<path d="M12.7076 21.9656C12.7801 23.351 13.0401 24.5575 13.4749 25.4953C13.8202 26.2371 14.4725 27.0683 15.0138 27.4563C15.5425 27.8357 16.1947 28.0616 16.2927 27.9039C16.3055 27.8783 16.3737 27.8612 16.4419 27.8612C16.5954 27.8612 16.6252 27.8101 16.7233 27.3497C16.8384 26.8168 16.8256 25.8704 16.702 25.41C16.3908 24.2548 15.4828 23.1677 13.9865 22.1574C13.6668 21.9443 12.7374 21.3816 12.7033 21.3816C12.6905 21.3816 12.6905 21.6459 12.7076 21.9656Z" fill="black"/>
<path d="M20.381 24.0757C19.6094 24.8686 19.1191 25.5081 18.582 26.4118C18.2367 26.9958 17.9809 27.8527 17.9468 28.5518C17.9084 29.3149 18.0534 30.0225 18.3902 30.6918L18.5351 30.9817L18.7866 30.9646C18.9742 30.9518 19.0808 30.9135 19.2172 30.8197C19.9376 30.3252 20.6495 29.3319 20.9309 28.4324C21.2634 27.3752 21.2506 25.9898 20.8882 24.2675C20.8286 23.9691 20.7646 23.7262 20.7518 23.7262C20.7348 23.7262 20.5685 23.8839 20.381 24.0757Z" fill="black"/>
<path d="M12.0213 27.4946C12.0639 27.6822 12.648 28.8886 12.8824 29.2723C14.0633 31.2162 15.3251 32.1839 16.8086 32.2819C17.2477 32.3117 17.4736 32.2563 17.5759 32.1029C17.61 32.0474 17.7209 31.9835 17.836 31.9537L18.0321 31.8982L18.0022 31.6126C17.9426 30.9433 17.5802 30.0822 17.1241 29.5067C16.2587 28.4239 14.9627 27.8527 12.5286 27.4818L12 27.4051L12.0213 27.4946Z" fill="black"/>
<path d="M21.468 29.3447C19.5624 31.7874 19.0935 33.8336 20.01 35.6965C20.0953 35.867 20.2189 36.0844 20.2829 36.174C20.3894 36.3189 20.4321 36.3445 20.56 36.3445C20.7774 36.3445 20.9053 36.2635 21.2676 35.8841C22.6062 34.4816 22.9302 32.7849 22.3035 30.4232C22.1415 29.8264 21.8559 28.927 21.8218 28.927C21.8047 28.927 21.647 29.1145 21.468 29.3447Z" fill="black"/>
<path d="M23.7572 32.7722C22.5635 35.1978 22.376 36.8987 23.1348 38.4547C23.5099 39.2305 23.949 39.7549 24.1707 39.6952C24.3028 39.6611 24.5842 39.3712 24.8144 39.0345C25.8759 37.4486 25.91 35.9609 24.938 33.7441C24.7291 33.2667 24.1323 32.1242 24.0939 32.1242C24.0854 32.1242 23.9362 32.4184 23.7572 32.7722Z" fill="black"/>
<path d="M12.9037 32.1796C12.9037 32.1924 13.0145 32.3927 13.1552 32.6229C13.2916 32.8531 13.4834 33.1814 13.5815 33.3519C13.9865 34.051 14.9968 35.1679 15.632 35.6155C16.3737 36.1399 17.0558 36.3829 17.87 36.417C18.4881 36.4425 18.7056 36.3956 18.8931 36.1953C18.9613 36.1143 19.1148 36.012 19.2256 35.9651C19.3365 35.9182 19.426 35.85 19.426 35.8201C19.426 35.6965 19.2001 35.0784 19.0423 34.7587C18.6374 33.9444 18.1514 33.4286 17.3713 32.981C16.6593 32.5718 16.0583 32.3842 15.0991 32.2734C14.5279 32.2052 12.9037 32.1327 12.9037 32.1796Z" fill="black"/>
<path d="M26.6134 35.266C26.4727 35.9651 26.4045 36.6898 26.4003 37.5595C26.396 38.7829 26.5196 39.4693 26.8905 40.2963C27.1889 40.9655 27.8539 41.8011 28.3569 42.1421C28.5275 42.2615 28.6212 42.2913 28.8344 42.3041L29.0987 42.3212L29.201 42.1165C29.6912 41.1446 29.8277 39.9424 29.5506 39.0089C29.3374 38.2884 28.9751 37.6404 28.3484 36.8561C28.0713 36.5065 26.7328 35.1509 26.6688 35.1509C26.6518 35.1509 26.6262 35.202 26.6134 35.266Z" fill="black"/>
<path d="M17.2094 36.6855C16.9152 36.7281 16.4506 36.8006 16.1692 36.8517C15.8921 36.8986 15.6577 36.9413 15.6449 36.9413C15.6364 36.9413 15.7856 37.1203 15.9774 37.3377C16.1692 37.5551 16.3781 37.828 16.4421 37.9473C16.5145 38.0795 16.7149 38.2969 16.9792 38.5313C18.6289 39.9935 20.1593 40.5179 21.6215 40.1299C21.9327 40.0489 21.9839 40.0191 22.197 39.8017C22.3249 39.6695 22.504 39.5246 22.5935 39.4777C22.7896 39.3754 22.7853 39.3328 22.5338 38.8852C21.9242 37.8066 21.0119 37.0947 19.895 36.8219C18.9657 36.5917 18.1472 36.5533 17.2094 36.6855Z" fill="black"/>
<path d="M30.2113 38.9193C30.2113 39.0216 30.7911 40.4071 30.9999 40.8078C32.0913 42.9052 33.4298 44.0221 34.9261 44.0945L35.3567 44.1116L35.4888 43.9837C35.5656 43.9112 35.6935 43.8387 35.7745 43.8217C35.8554 43.8089 35.9364 43.7791 35.945 43.7577C35.9578 43.7407 35.945 43.5446 35.9194 43.3272C35.8299 42.5812 35.557 41.8437 35.1819 41.3151C34.9474 40.9826 34.406 40.4668 34.048 40.2323C33.3531 39.7719 32.3001 39.3669 31.0213 39.0685C30.2966 38.9022 30.2113 38.8852 30.2113 38.9193Z" fill="black"/>
<path d="M22.5509 40.2664C22.0393 40.3218 21.5661 40.4241 20.9821 40.6117C20.3299 40.8206 19.4943 41.1446 19.4815 41.1915C19.4773 41.2085 19.6393 41.3492 19.8396 41.4984C20.0656 41.6689 20.2275 41.8266 20.2574 41.9034C20.3299 42.0782 20.445 42.1762 20.8585 42.432C22.0947 43.1951 23.3267 43.5872 24.3498 43.5361C25.1555 43.4935 26.055 43.1609 26.2681 42.8242C26.3236 42.7389 26.4856 42.5599 26.6348 42.4277L26.9033 42.1933L26.7243 41.9588C26.1189 41.1574 25.2536 40.5691 24.3669 40.3517C23.9491 40.2494 23.0837 40.211 22.5509 40.2664Z" fill="black"/>
<path d="M27.9733 42.9051C27.1122 43.0885 26.2468 43.4721 25.3388 44.0775C24.3583 44.7339 23.9959 45.0409 24.2048 45.0409C24.2304 45.0409 24.3881 45.1048 24.5629 45.1858C24.7889 45.2881 24.8912 45.3649 24.9295 45.4501C25.0105 45.6164 25.2024 45.7016 25.8844 45.8764C27.3424 46.243 28.472 46.2345 29.4909 45.8551C30.0195 45.6547 30.6675 45.1773 30.919 44.7979C31.0085 44.6657 31.1833 44.4142 31.3069 44.2352C31.5755 43.8643 31.5883 43.9069 31.0852 43.5702C30.6845 43.3016 30.2667 43.1098 29.8063 42.9691C29.2863 42.8156 28.536 42.79 27.9733 42.9051Z" fill="black"/>
<path d="M33.2166 44.7169C32.6113 44.8619 32.1552 45.0537 31.4305 45.4757C30.8592 45.8082 29.2649 47.0957 29.3374 47.1681C29.3544 47.1809 29.5334 47.2491 29.7338 47.3216C30.045 47.4282 30.1089 47.4665 30.1175 47.5475C30.1388 47.6925 30.386 47.7863 31.0212 47.9056C31.4731 47.9866 31.6948 48.0037 32.4919 47.9994C33.3744 47.9994 33.4554 47.9909 33.8561 47.8843C34.9602 47.5859 35.6337 47.0743 36.2646 46.064C36.4522 45.7613 36.6057 45.497 36.6057 45.48C36.6057 45.3862 35.7062 44.9301 35.1989 44.7638C34.892 44.6615 34.747 44.6445 34.2397 44.6317C33.7239 44.6189 33.5832 44.6274 33.2166 44.7169Z" fill="black"/>
<path d="M56.5326 20.8078C56.8044 20.6289 57.0762 20.45 57.3016 20.2554C57.5271 20.0609 57.7063 19.8505 57.8118 19.6472C57.9173 19.4438 57.9491 19.2472 57.9308 19.036C57.9125 18.8248 57.8439 18.5989 57.7509 18.3235C57.658 18.0482 57.5408 17.7235 57.4893 17.4208C57.4377 17.1181 57.4521 16.8376 57.4878 16.6295C57.5235 16.4215 57.5806 16.2861 57.6301 16.1537C57.6797 16.0212 57.7218 15.8917 57.8244 15.6903C57.927 15.4889 58.0901 15.2158 58.2532 14.9425" stroke="black" stroke-width="1.5" stroke-linecap="round"/>
<path d="M68.7284 20.5056C69.0002 20.3267 69.272 20.1479 69.4974 19.9533C69.7229 19.7587 69.9021 19.5484 70.0076 19.345C70.1131 19.1417 70.1449 18.9451 70.1266 18.7339C70.1083 18.5227 70.0397 18.2967 69.9467 18.0214C69.8538 17.7461 69.7366 17.4214 69.6851 17.1187C69.6335 16.816 69.6479 16.5355 69.6836 16.3274C69.7193 16.1194 69.7764 15.984 69.8259 15.8515C69.8755 15.7191 69.9176 15.5896 70.0202 15.3882C70.1228 15.1868 70.2859 14.9137 70.449 14.6404" stroke="black" stroke-width="1.5" stroke-linecap="round"/>
<path d="M62.895 19.2935C63.1669 19.1146 63.4386 18.9357 63.664 18.7412C63.8895 18.5466 64.0687 18.3362 64.1742 18.1329C64.2798 17.9295 64.3116 17.7329 64.2932 17.5217C64.2749 17.3105 64.2063 17.0846 64.1134 16.8092C64.0204 16.5339 63.9032 16.2092 63.8517 15.9065C63.8002 15.6038 63.8145 15.3233 63.8502 15.1153C63.8859 14.9072 63.943 14.7718 63.9926 14.6394C64.0421 14.507 64.0842 14.3775 64.1868 14.1761C64.2894 13.9747 64.4525 13.7015 64.6156 13.4282" stroke="black" stroke-width="1.5" stroke-linecap="round"/>
<path d="M80.479 39.4321C80.1531 39.4339 59.2704 39.5444 53.8675 39.5232C48.4647 39.5021 48.4267 39.4023 48.4266 39.5543C48.4266 39.7062 48.4645 40.1099 48.6138 40.497C48.763 40.884 49.0232 41.2544 49.3576 41.5846C49.692 41.9148 50.086 42.1946 50.3788 42.356C50.6716 42.5174 50.8559 42.5554 55.4373 42.5696C60.0187 42.5838 68.9969 42.5743 73.5294 42.5505C78.0618 42.5267 78.1486 42.4887 78.4034 42.3747C78.6582 42.2607 79.0811 42.0708 79.4822 41.7431C79.8833 41.4155 80.2628 40.9501 80.4743 40.5941C80.6857 40.238 80.7163 40.0635 80.7514 39.8363C80.7865 39.6091 80.7942 39.5349 80.805 39.4304C80.805 39.4304 80.805 39.4304 80.479 39.4321Z" stroke="black" stroke-width="1.4" stroke-linecap="round" stroke-linejoin="round"/>
<path d="M76.2782 26.7325C76.1913 26.1198 76.1043 25.5066 75.9264 25.1406C75.7486 24.7746 75.4796 24.6559 75.298 24.5962C75.1163 24.5366 75.0221 24.5361 71.1763 24.5527C67.3305 24.5692 59.7334 24.6028 55.9053 24.6202C52.0772 24.6375 52.0181 24.6387 51.947 24.6452C51.8759 24.6517 51.7929 24.6636 51.676 24.7249C51.5592 24.7862 51.4089 24.897 51.2854 25.0629C51.162 25.2289 51.0685 25.4431 51.0201 25.978C50.9718 26.513 50.9698 27.3651 50.9857 27.987C51.0015 28.6088 51.0351 29.0004 51.1627 29.6511C51.2903 30.3017 51.5118 31.2113 51.8164 32.121C52.1211 33.0307 52.5087 33.9405 53.1635 34.9143C53.8183 35.8881 54.74 36.9258 55.6005 37.6958C56.4609 38.4658 57.26 38.9682 57.6753 39.2193C58.0906 39.4703 58.1223 39.4703 59.9901 39.4644C61.858 39.4585 65.5619 39.4466 67.4296 39.4347C69.2974 39.4228 69.329 39.4109 69.7303 39.1254C70.1316 38.84 70.9026 38.2809 71.6323 37.6651C72.362 37.0493 73.0503 36.3768 73.6792 35.5304C74.3082 34.6839 74.8778 33.6633 75.2903 32.7063C75.7027 31.7494 75.9538 30.8706 76.0922 29.8896C76.2306 28.9086 76.2545 27.8168 76.2901 27.2509C76.3257 26.685 76.3732 26.6376 76.6305 26.627C76.8879 26.6165 77.3547 26.6429 77.8175 26.7154C78.2804 26.788 78.7393 26.9067 79.0873 27.1165C79.4354 27.3263 79.6727 27.627 79.8703 27.909C80.0679 28.1911 80.2257 28.4545 80.3409 28.8436C80.4561 29.2326 80.5288 29.7473 80.5456 30.2592C80.5623 30.771 80.5231 31.2801 80.4112 31.7331C80.2993 32.1862 80.1147 32.5834 79.8266 32.9945C79.5385 33.4056 79.1469 33.8308 78.7106 34.2084C78.2743 34.586 77.7932 34.916 77.2254 35.2209C76.6576 35.5258 76.0031 35.8055 75.3011 35.9957C74.599 36.186 73.8494 36.2867 73.0994 36.3874" stroke="black" stroke-width="1.4" stroke-linecap="round"/>
<g filter="url(#filter0_d_17_2998)">
<path d="M96.1625 24.5L92.9353 12.8636H94.7818L97.0489 21.875H97.1568L99.5148 12.8636H101.344L103.702 21.8807H103.81L106.072 12.8636H107.924L104.691 24.5H102.924L100.475 15.7841H100.384L97.9353 24.5H96.1625ZM109.388 24.5V15.7727H111.087V24.5H109.388ZM110.246 14.4261C109.951 14.4261 109.697 14.3276 109.485 14.1307C109.277 13.9299 109.172 13.6913 109.172 13.4148C109.172 13.1345 109.277 12.8958 109.485 12.6989C109.697 12.4981 109.951 12.3977 110.246 12.3977C110.542 12.3977 110.794 12.4981 111.002 12.6989C111.214 12.8958 111.32 13.1345 111.32 13.4148C111.32 13.6913 111.214 13.9299 111.002 14.1307C110.794 14.3276 110.542 14.4261 110.246 14.4261ZM115.072 19.3182V24.5H113.373V15.7727H115.003V17.1932H115.111C115.312 16.7311 115.627 16.3598 116.055 16.0795C116.486 15.7992 117.03 15.6591 117.685 15.6591C118.28 15.6591 118.801 15.7841 119.248 16.0341C119.695 16.2803 120.041 16.6477 120.288 17.1364C120.534 17.625 120.657 18.2292 120.657 18.9489V24.5H118.958V19.1534C118.958 18.5208 118.793 18.0265 118.464 17.6705C118.134 17.3106 117.681 17.1307 117.106 17.1307C116.712 17.1307 116.361 17.2159 116.055 17.3864C115.752 17.5568 115.511 17.8068 115.333 18.1364C115.159 18.4621 115.072 18.8561 115.072 19.3182ZM124.634 19.3182V24.5H122.935V15.7727H124.566V17.1932H124.674C124.875 16.7311 125.189 16.3598 125.617 16.0795C126.049 15.7992 126.592 15.6591 127.248 15.6591C127.842 15.6591 128.363 15.7841 128.81 16.0341C129.257 16.2803 129.604 16.6477 129.85 17.1364C130.096 17.625 130.219 18.2292 130.219 18.9489V24.5H128.52V19.1534C128.52 18.5208 128.356 18.0265 128.026 17.6705C127.697 17.3106 127.244 17.1307 126.668 17.1307C126.274 17.1307 125.924 17.2159 125.617 17.3864C125.314 17.5568 125.074 17.8068 124.895 18.1364C124.721 18.4621 124.634 18.8561 124.634 19.3182ZM136.259 24.6761C135.399 24.6761 134.659 24.4924 134.038 24.125C133.42 23.7538 132.943 23.233 132.606 22.5625C132.272 21.8883 132.106 21.0985 132.106 20.1932C132.106 19.2992 132.272 18.5114 132.606 17.8295C132.943 17.1477 133.413 16.6155 134.015 16.233C134.621 15.8504 135.329 15.6591 136.14 15.6591C136.632 15.6591 137.109 15.7405 137.572 15.9034C138.034 16.0663 138.449 16.322 138.816 16.6705C139.183 17.0189 139.473 17.4716 139.685 18.0284C139.897 18.5814 140.003 19.2538 140.003 20.0455V20.6477H133.066V19.375H138.339C138.339 18.928 138.248 18.5322 138.066 18.1875C137.884 17.839 137.628 17.5644 137.299 17.3636C136.973 17.1629 136.591 17.0625 136.151 17.0625C135.674 17.0625 135.257 17.1799 134.901 17.4148C134.549 17.6458 134.276 17.9489 134.083 18.3239C133.894 18.6951 133.799 19.0985 133.799 19.5341V20.5284C133.799 21.1117 133.901 21.608 134.106 22.017C134.314 22.4261 134.604 22.7386 134.975 22.9545C135.346 23.1667 135.78 23.2727 136.276 23.2727C136.598 23.2727 136.892 23.2273 137.157 23.1364C137.422 23.0417 137.651 22.9015 137.844 22.7159C138.038 22.5303 138.185 22.3011 138.288 22.0284L139.895 22.3182C139.767 22.7917 139.536 23.2064 139.202 23.5625C138.873 23.9148 138.458 24.1894 137.958 24.3864C137.462 24.5795 136.895 24.6761 136.259 24.6761ZM141.888 24.5V15.7727H143.53V17.1591H143.621C143.78 16.6894 144.061 16.3201 144.462 16.0511C144.868 15.7784 145.326 15.642 145.837 15.642C145.943 15.642 146.068 15.6458 146.212 15.6534C146.36 15.661 146.475 15.6705 146.559 15.6818V17.3068C146.491 17.2879 146.369 17.267 146.195 17.2443C146.021 17.2178 145.847 17.2045 145.672 17.2045C145.271 17.2045 144.913 17.2898 144.599 17.4602C144.288 17.6269 144.042 17.8598 143.86 18.1591C143.678 18.4545 143.587 18.7917 143.587 19.1705V24.5H141.888ZM155.94 24.6761C155.121 24.6761 154.407 24.4886 153.797 24.1136C153.188 23.7386 152.714 23.214 152.377 22.5398C152.04 21.8655 151.871 21.0776 151.871 20.1761C151.871 19.2708 152.04 18.4792 152.377 17.8011C152.714 17.1231 153.188 16.5966 153.797 16.2216C154.407 15.8466 155.121 15.6591 155.94 15.6591C156.758 15.6591 157.472 15.8466 158.082 16.2216C158.691 16.5966 159.165 17.1231 159.502 17.8011C159.839 18.4792 160.008 19.2708 160.008 20.1761C160.008 21.0776 159.839 21.8655 159.502 22.5398C159.165 23.214 158.691 23.7386 158.082 24.1136C157.472 24.4886 156.758 24.6761 155.94 24.6761ZM155.945 23.25C156.475 23.25 156.915 23.1098 157.263 22.8295C157.612 22.5492 157.869 22.1761 158.036 21.7102C158.207 21.2443 158.292 20.7311 158.292 20.1705C158.292 19.6136 158.207 19.1023 158.036 18.6364C157.869 18.1667 157.612 17.7898 157.263 17.5057C156.915 17.2216 156.475 17.0795 155.945 17.0795C155.411 17.0795 154.968 17.2216 154.616 17.5057C154.267 17.7898 154.008 18.1667 153.837 18.6364C153.671 19.1023 153.587 19.6136 153.587 20.1705C153.587 20.7311 153.671 21.2443 153.837 21.7102C154.008 22.1761 154.267 22.5492 154.616 22.8295C154.968 23.1098 155.411 23.25 155.945 23.25ZM166.057 15.7727V17.1364H161.126V15.7727H166.057ZM162.478 24.5V14.7614C162.478 14.2159 162.597 13.7633 162.836 13.4034C163.074 13.0398 163.391 12.7689 163.785 12.5909C164.179 12.4091 164.607 12.3182 165.069 12.3182C165.41 12.3182 165.701 12.3466 165.944 12.4034C166.186 12.4564 166.366 12.5057 166.484 12.5511L166.086 13.9261C166.006 13.9034 165.904 13.8769 165.779 13.8466C165.654 13.8125 165.502 13.7955 165.324 13.7955C164.912 13.7955 164.616 13.8977 164.438 14.1023C164.264 14.3068 164.177 14.6023 164.177 14.9886V24.5H162.478Z" fill="black"/>
<path d="M93.137 33.5632V31.1364H103.587V33.5632H99.838V43.5H96.8919V33.5632H93.137ZM108.036 43.6751C107.066 43.6751 106.229 43.4839 105.525 43.1016C104.824 42.7152 104.285 42.1658 103.907 41.4535C103.533 40.7371 103.345 39.8859 103.345 38.8999C103.345 37.942 103.535 37.1049 103.913 36.3885C104.291 35.6681 104.824 35.1087 105.513 34.7102C106.201 34.3078 107.012 34.1065 107.946 34.1065C108.606 34.1065 109.209 34.2092 109.757 34.4144C110.304 34.6197 110.777 34.9235 111.175 35.326C111.574 35.7285 111.884 36.2255 112.105 36.8171C112.326 37.4047 112.437 38.0788 112.437 38.8395V39.576H104.378V37.8615H109.69C109.686 37.5476 109.612 37.2679 109.467 37.0224C109.322 36.7769 109.123 36.5857 108.869 36.4489C108.62 36.308 108.332 36.2376 108.006 36.2376C107.676 36.2376 107.38 36.312 107.118 36.4609C106.857 36.6058 106.65 36.805 106.497 37.0586C106.344 37.3081 106.263 37.5919 106.255 37.9098V39.6545C106.255 40.0328 106.33 40.3648 106.479 40.6506C106.627 40.9323 106.839 41.1516 107.112 41.3086C107.386 41.4656 107.712 41.544 108.09 41.544C108.352 41.544 108.589 41.5078 108.803 41.4354C109.016 41.3629 109.199 41.2563 109.352 41.1154C109.505 40.9745 109.62 40.8015 109.696 40.5962L112.407 40.6747C112.294 41.2824 112.047 41.8117 111.664 42.2624C111.286 42.7092 110.789 43.0573 110.173 43.3068C109.557 43.5523 108.845 43.6751 108.036 43.6751ZM116.559 43.657C115.967 43.657 115.442 43.5584 114.983 43.3611C114.528 43.1599 114.168 42.8581 113.902 42.4556C113.641 42.0491 113.51 41.54 113.51 40.9283C113.51 40.4131 113.601 39.9785 113.782 39.6243C113.963 39.2701 114.212 38.9824 114.53 38.761C114.848 38.5397 115.215 38.3726 115.629 38.2599C116.044 38.1432 116.486 38.0647 116.957 38.0245C117.484 37.9762 117.909 37.9259 118.231 37.8736C118.553 37.8172 118.786 37.7388 118.931 37.6381C119.08 37.5335 119.155 37.3866 119.155 37.1974V37.1673C119.155 36.8574 119.048 36.6179 118.835 36.4489C118.621 36.2798 118.334 36.1953 117.971 36.1953C117.581 36.1953 117.267 36.2798 117.03 36.4489C116.792 36.6179 116.641 36.8513 116.577 37.1491L113.854 37.0526C113.935 36.4891 114.142 35.986 114.476 35.5433C114.814 35.0966 115.277 34.7464 115.864 34.4929C116.456 34.2353 117.166 34.1065 117.996 34.1065C118.587 34.1065 119.132 34.177 119.632 34.3178C120.131 34.4547 120.565 34.6559 120.936 34.9215C121.306 35.1831 121.592 35.5051 121.793 35.8874C121.998 36.2698 122.101 36.7064 122.101 37.1974V43.5H119.324V42.2081H119.251C119.086 42.522 118.875 42.7876 118.617 43.005C118.364 43.2223 118.064 43.3853 117.718 43.494C117.376 43.6026 116.989 43.657 116.559 43.657ZM117.47 41.7251C117.788 41.7251 118.074 41.6607 118.328 41.532C118.585 41.4032 118.79 41.2261 118.943 41.0007C119.096 40.7713 119.173 40.5057 119.173 40.2038V39.3224C119.088 39.3667 118.986 39.407 118.865 39.4432C118.748 39.4794 118.619 39.5136 118.478 39.5458C118.338 39.578 118.193 39.6062 118.044 39.6303C117.895 39.6545 117.752 39.6766 117.615 39.6967C117.338 39.741 117.1 39.8094 116.903 39.902C116.71 39.9946 116.561 40.1153 116.456 40.2642C116.355 40.4091 116.305 40.5821 116.305 40.7834C116.305 41.0892 116.414 41.3227 116.631 41.4837C116.853 41.6446 117.132 41.7251 117.47 41.7251ZM135.128 35.6158H132.11C132.07 35.3059 131.987 35.0262 131.862 34.7766C131.738 34.5271 131.573 34.3138 131.367 34.1367C131.162 33.9596 130.919 33.8248 130.637 33.7322C130.359 33.6357 130.051 33.5874 129.713 33.5874C129.114 33.5874 128.596 33.7343 128.162 34.0281C127.731 34.3218 127.399 34.7464 127.166 35.3018C126.936 35.8572 126.822 36.5294 126.822 37.3182C126.822 38.1392 126.938 38.8274 127.172 39.3828C127.409 39.9342 127.741 40.3507 128.168 40.6325C128.598 40.9102 129.108 41.049 129.695 41.049C130.025 41.049 130.325 41.0067 130.595 40.9222C130.868 40.8377 131.108 40.715 131.313 40.554C131.522 40.389 131.693 40.1897 131.826 39.9563C131.963 39.7189 132.058 39.4512 132.11 39.1534L135.128 39.1715C135.076 39.7189 134.917 40.2582 134.651 40.7894C134.39 41.3207 134.03 41.8056 133.571 42.2443C133.112 42.679 132.553 43.0251 131.893 43.2827C131.237 43.5402 130.484 43.669 129.635 43.669C128.516 43.669 127.514 43.4235 126.628 42.9325C125.747 42.4375 125.051 41.7171 124.54 40.7713C124.028 39.8255 123.773 38.6745 123.773 37.3182C123.773 35.9579 124.032 34.8048 124.552 33.859C125.071 32.9132 125.773 32.1948 126.659 31.7038C127.544 31.2128 128.536 30.9673 129.635 30.9673C130.383 30.9673 131.076 31.072 131.711 31.2812C132.347 31.4865 132.907 31.7884 133.39 32.1868C133.873 32.5812 134.265 33.0662 134.567 33.6417C134.869 34.2172 135.056 34.8752 135.128 35.6158ZM141.167 43.6751C140.193 43.6751 139.356 43.4758 138.655 43.0774C137.959 42.6749 137.422 42.1155 137.044 41.3991C136.669 40.6787 136.482 39.8436 136.482 38.8938C136.482 37.94 136.669 37.1049 137.044 36.3885C137.422 35.6681 137.959 35.1087 138.655 34.7102C139.356 34.3078 140.193 34.1065 141.167 34.1065C142.141 34.1065 142.976 34.3078 143.672 34.7102C144.372 35.1087 144.91 35.6681 145.284 36.3885C145.662 37.1049 145.851 37.94 145.851 38.8938C145.851 39.8436 145.662 40.6787 145.284 41.3991C144.91 42.1155 144.372 42.6749 143.672 43.0774C142.976 43.4758 142.141 43.6751 141.167 43.6751ZM141.185 41.4474C141.539 41.4474 141.839 41.3388 142.084 41.1214C142.33 40.9041 142.517 40.6023 142.646 40.2159C142.779 39.8295 142.845 39.3828 142.845 38.8757C142.845 38.3606 142.779 37.9098 142.646 37.5234C142.517 37.1371 142.33 36.8352 142.084 36.6179C141.839 36.4006 141.539 36.2919 141.185 36.2919C140.819 36.2919 140.509 36.4006 140.255 36.6179C140.006 36.8352 139.815 37.1371 139.682 37.5234C139.553 37.9098 139.489 38.3606 139.489 38.8757C139.489 39.3828 139.553 39.8295 139.682 40.2159C139.815 40.6023 140.006 40.9041 140.255 41.1214C140.509 41.3388 140.819 41.4474 141.185 41.4474ZM150.316 38.2116V43.5H147.364V34.2273H150.171V35.9297H150.273C150.479 35.3622 150.829 34.9175 151.324 34.5955C151.819 34.2695 152.409 34.1065 153.093 34.1065C153.745 34.1065 154.31 34.2534 154.789 34.5472C155.272 34.837 155.646 35.2435 155.912 35.7667C156.182 36.2859 156.314 36.8936 156.31 37.5898V43.5H153.358V38.1694C153.362 37.6542 153.232 37.2518 152.966 36.962C152.704 36.6722 152.34 36.5273 151.873 36.5273C151.563 36.5273 151.29 36.5958 151.052 36.7326C150.819 36.8654 150.638 37.0566 150.509 37.3061C150.384 37.5556 150.32 37.8575 150.316 38.2116ZM161.766 43.5V41.3508L166.276 37.4027C166.614 37.0968 166.902 36.8171 167.139 36.5636C167.377 36.306 167.558 36.0484 167.682 35.7908C167.807 35.5292 167.87 35.2455 167.87 34.9396C167.87 34.5975 167.795 34.3058 167.646 34.0643C167.497 33.8188 167.292 33.6296 167.03 33.4968C166.769 33.364 166.469 33.2976 166.131 33.2976C165.789 33.2976 165.489 33.368 165.231 33.5089C164.974 33.6457 164.773 33.8449 164.628 34.1065C164.487 34.3681 164.417 34.6861 164.417 35.0604H161.585C161.585 34.2192 161.774 33.4928 162.153 32.881C162.531 32.2693 163.062 31.7984 163.746 31.4684C164.435 31.1344 165.234 30.9673 166.143 30.9673C167.081 30.9673 167.896 31.1243 168.588 31.4382C169.28 31.7521 169.816 32.1908 170.194 32.7543C170.576 33.3137 170.767 33.9637 170.767 34.7042C170.767 35.1751 170.673 35.6419 170.484 36.1048C170.294 36.5676 169.954 37.0787 169.463 37.6381C168.976 38.1976 168.284 38.8677 167.387 39.6484L165.908 41.0128V41.0913H170.918V43.5H161.766ZM177.72 43.8018C176.642 43.8018 175.712 43.5463 174.931 43.0352C174.151 42.52 173.549 41.7815 173.126 40.8196C172.704 39.8537 172.494 38.6926 172.498 37.3363C172.502 35.98 172.714 34.829 173.132 33.8832C173.555 32.9334 174.155 32.2109 174.931 31.7159C175.712 31.2169 176.642 30.9673 177.72 30.9673C178.799 30.9673 179.729 31.2169 180.509 31.7159C181.294 32.2109 181.898 32.9334 182.321 33.8832C182.743 34.833 182.952 35.984 182.948 37.3363C182.948 38.6966 182.737 39.8597 182.314 40.8256C181.892 41.7915 181.29 42.5301 180.509 43.0412C179.733 43.5483 178.803 43.8018 177.72 43.8018ZM177.72 41.3569C178.364 41.3569 178.886 41.0289 179.284 40.3729C179.682 39.7128 179.88 38.7006 179.876 37.3363C179.876 36.4428 179.785 35.7063 179.604 35.1268C179.423 34.5432 179.171 34.1085 178.849 33.8228C178.527 33.537 178.151 33.3942 177.72 33.3942C177.08 33.3942 176.563 33.7182 176.169 34.3661C175.774 35.0101 175.575 36.0001 175.571 37.3363C175.567 38.2418 175.654 38.9924 175.831 39.5881C176.012 40.1837 176.265 40.6284 176.591 40.9222C176.917 41.212 177.294 41.3569 177.72 41.3569ZM184.66 43.5V41.3508L189.169 37.4027C189.507 37.0968 189.795 36.8171 190.033 36.5636C190.27 36.306 190.451 36.0484 190.576 35.7908C190.701 35.5292 190.763 35.2455 190.763 34.9396C190.763 34.5975 190.689 34.3058 190.54 34.0643C190.391 33.8188 190.186 33.6296 189.924 33.4968C189.662 33.364 189.363 33.2976 189.025 33.2976C188.682 33.2976 188.383 33.368 188.125 33.5089C187.867 33.6457 187.666 33.8449 187.521 34.1065C187.38 34.3681 187.31 34.6861 187.31 35.0604H184.479C184.479 34.2192 184.668 33.4928 185.046 32.881C185.425 32.2693 185.956 31.7984 186.64 31.4684C187.328 31.1344 188.127 30.9673 189.037 30.9673C189.974 30.9673 190.789 31.1243 191.482 31.4382C192.174 31.7521 192.709 32.1908 193.087 32.7543C193.47 33.3137 193.661 33.9637 193.661 34.7042C193.661 35.1751 193.566 35.6419 193.377 36.1048C193.188 36.5676 192.848 37.0787 192.357 37.6381C191.87 38.1976 191.178 38.8677 190.28 39.6484L188.801 41.0128V41.0913H193.812V43.5H184.66ZM195.501 43.5V41.3508L200.01 37.4027C200.348 37.0968 200.636 36.8171 200.874 36.5636C201.111 36.306 201.292 36.0484 201.417 35.7908C201.542 35.5292 201.604 35.2455 201.604 34.9396C201.604 34.5975 201.53 34.3058 201.381 34.0643C201.232 33.8188 201.026 33.6296 200.765 33.4968C200.503 33.364 200.203 33.2976 199.865 33.2976C199.523 33.2976 199.223 33.368 198.966 33.5089C198.708 33.6457 198.507 33.8449 198.362 34.1065C198.221 34.3681 198.151 34.6861 198.151 35.0604H195.32C195.32 34.2192 195.509 33.4928 195.887 32.881C196.265 32.2693 196.797 31.7984 197.481 31.4684C198.169 31.1344 198.968 30.9673 199.877 30.9673C200.815 30.9673 201.63 31.1243 202.322 31.4382C203.015 31.7521 203.55 32.1908 203.928 32.7543C204.311 33.3137 204.502 33.9637 204.502 34.7042C204.502 35.1751 204.407 35.6419 204.218 36.1048C204.029 36.5676 203.689 37.0787 203.198 37.6381C202.711 38.1976 202.019 38.8677 201.121 39.6484L199.642 41.0128V41.0913H204.653V43.5H195.501ZM216.225 28.965H222.005V31.175H218.656V39.76H216.225V28.965ZM226.272 29.033L228.601 29.764C228.238 30.7273 227.808 31.702 227.309 32.688C226.81 33.674 226.266 34.609 225.677 35.493C225.099 36.377 224.498 37.1477 223.875 37.805C223.807 37.601 223.694 37.3347 223.535 37.006C223.388 36.6773 223.223 36.3487 223.042 36.02C222.872 35.68 222.719 35.408 222.583 35.204C223.07 34.7053 223.541 34.1273 223.994 33.47C224.459 32.8127 224.884 32.1043 225.269 31.345C225.666 30.5857 226 29.815 226.272 29.033ZM224.606 33.912L227.003 31.515V31.532V45.098H224.606V33.912ZM230.828 37.21H237.033V39.505H230.828V37.21ZM236.2 37.21H236.608L236.982 37.091L238.699 38.196C238.2 38.74 237.662 39.318 237.084 39.93C236.506 40.542 235.917 41.154 235.316 41.766C234.715 42.3667 234.132 42.9503 233.565 43.517L231.559 42.225C232.114 41.7037 232.687 41.1483 233.276 40.559C233.865 39.9697 234.415 39.403 234.925 38.859C235.446 38.315 235.871 37.8447 236.2 37.448V37.21ZM231.542 29.203L234.007 29.509C233.803 30.359 233.588 31.2373 233.361 32.144C233.146 33.0507 232.919 33.9517 232.681 34.847C232.454 35.7423 232.228 36.5867 232.001 37.38C231.786 38.1733 231.582 38.8817 231.389 39.505H228.771C228.998 38.8363 229.236 38.0883 229.485 37.261C229.734 36.4223 229.978 35.544 230.216 34.626C230.465 33.708 230.703 32.7843 230.93 31.855C231.157 30.9257 231.361 30.0417 231.542 29.203ZM228.414 30.665H237.985V32.909H228.414V30.665ZM227.428 33.827H238.92V36.105H227.428V33.827ZM229.876 41.647L231.576 40.151C232.165 40.457 232.766 40.797 233.378 41.171C233.99 41.545 234.562 41.919 235.095 42.293C235.639 42.667 236.092 43.0127 236.455 43.33L234.721 45.183C234.392 44.8543 233.956 44.4803 233.412 44.061C232.868 43.6417 232.284 43.2223 231.661 42.803C231.049 42.3723 230.454 41.987 229.876 41.647ZM242.201 32.314L244.717 32.858C244.626 33.5833 244.502 34.286 244.343 34.966C244.184 35.6347 243.963 36.258 243.68 36.836C243.397 37.4027 243.017 37.8957 242.541 38.315L240.263 36.938C240.66 36.5867 240.983 36.1787 241.232 35.714C241.493 35.238 241.702 34.7167 241.861 34.15C242.02 33.572 242.133 32.96 242.201 32.314ZM252.503 32.28L255.257 33.317C254.962 33.8723 254.656 34.4333 254.339 35C254.022 35.5553 253.71 36.088 253.404 36.598C253.098 37.0967 252.803 37.5387 252.52 37.924L250.361 36.989C250.622 36.5697 250.888 36.0937 251.16 35.561C251.432 35.017 251.681 34.4617 251.908 33.895C252.146 33.3283 252.344 32.79 252.503 32.28ZM247.828 29.203H249.188V34.422C249.188 34.9093 249.239 35.4137 249.341 35.935C249.454 36.445 249.624 36.9607 249.851 37.482C250.078 37.992 250.367 38.4963 250.718 38.995C251.081 39.4937 251.511 39.9697 252.01 40.423C252.52 40.8763 253.104 41.3013 253.761 41.698C254.418 42.0947 255.161 42.4517 255.988 42.769C255.795 42.9503 255.586 43.177 255.359 43.449C255.144 43.721 254.934 44.0043 254.73 44.299C254.537 44.5937 254.379 44.86 254.254 45.098C253.529 44.792 252.86 44.4293 252.248 44.01C251.636 43.5907 251.081 43.1487 250.582 42.684C250.095 42.208 249.664 41.732 249.29 41.256C248.916 40.7687 248.604 40.3097 248.355 39.879C248.117 39.437 247.941 39.046 247.828 38.706C247.726 39.0573 247.562 39.454 247.335 39.896C247.108 40.338 246.819 40.797 246.468 41.273C246.117 41.749 245.703 42.2193 245.227 42.684C244.762 43.1487 244.23 43.585 243.629 43.993C243.04 44.4123 242.388 44.7807 241.674 45.098C241.572 44.9053 241.413 44.673 241.198 44.401C240.994 44.1403 240.773 43.874 240.535 43.602C240.308 43.3413 240.104 43.1317 239.923 42.973C240.886 42.6103 241.731 42.174 242.456 41.664C243.181 41.154 243.799 40.6043 244.309 40.015C244.819 39.4143 245.233 38.7967 245.55 38.162C245.879 37.516 246.117 36.8813 246.264 36.258C246.411 35.6233 246.485 35.017 246.485 34.439V29.203H247.828ZM257.229 33.946H272.614V36.105H257.229V33.946ZM258.691 30.631H268.347V32.756H258.691V30.631ZM261.819 39.998H269.18V41.834H261.819V39.998ZM261.819 42.599H269.18V44.656H261.819V42.599ZM262.499 28.965H264.947V35.17H262.499V28.965ZM269.996 29.407L272.121 30.495C271.033 32.0703 269.747 33.504 268.262 34.796C266.777 36.0767 265.168 37.21 263.434 38.196C261.711 39.1707 259.926 39.9923 258.079 40.661C257.988 40.4797 257.852 40.2643 257.671 40.015C257.501 39.7543 257.32 39.4993 257.127 39.25C256.934 38.9893 256.764 38.7797 256.617 38.621C258.464 38.0543 260.227 37.329 261.904 36.445C263.581 35.5497 265.111 34.5127 266.494 33.334C267.877 32.144 269.044 30.835 269.996 29.407ZM260.425 37.227H270.744V45.064H268.16V39.233H262.89V45.132H260.425V37.227ZM279.635 45.115H273.855V42.905H277.204V34.32H279.635V45.115Z" fill="black"/>
</g>
<path d="M310.449 8.66923C310.722 10.2293 311.11 11.2992 311.775 12.2882C312.223 12.9574 312.717 13.4177 313.301 13.7076C313.957 14.0401 314.507 14.1381 314.725 13.9676C314.784 13.9207 314.878 13.8824 314.938 13.8824C315.134 13.8824 315.151 13.8099 315.125 13.0853C315.104 12.3265 315.027 11.9685 314.78 11.4271C314.196 10.1739 312.981 9.16369 310.927 8.23871C310.637 8.10657 310.385 8.00001 310.368 8.00001C310.351 8.00001 310.385 8.30265 310.449 8.66923Z" fill="black"/>
<path d="M316.916 9.75624C315.837 11.7852 315.492 13.4562 315.884 14.7946C316.153 15.7238 316.933 16.8662 317.291 16.8662C317.491 16.8662 317.943 16.2695 318.275 15.5661C318.565 14.9566 318.651 14.5431 318.655 13.7545C318.655 12.902 318.518 12.2498 318.139 11.2737C317.964 10.8176 317.282 9.42802 317.206 9.36408C317.163 9.32998 317.095 9.42376 316.916 9.75624Z" fill="black"/>
<path d="M311.259 13.486C311.259 13.503 311.345 13.827 311.451 14.2021C312.184 16.781 313.51 18.5457 314.993 18.9293C315.68 19.1041 316.055 19.0998 316.212 18.9165C316.251 18.8696 316.353 18.8185 316.438 18.8014C316.524 18.7886 316.605 18.746 316.617 18.7119C316.63 18.6821 316.617 18.4476 316.592 18.1919C316.447 16.7895 315.91 15.8816 314.703 14.9864C313.885 14.3769 313.054 14.006 311.357 13.4817C311.302 13.4647 311.259 13.4647 311.259 13.486Z" fill="black"/>
<path d="M319.763 15.6513C318.804 16.8704 318.271 17.8124 318.011 18.763C317.879 19.2361 317.828 20.127 317.905 20.5405C318.015 21.133 318.292 21.815 318.625 22.318C318.77 22.5396 318.778 22.5439 318.94 22.5226C319.179 22.4885 319.401 22.3265 319.708 21.9599C320.296 21.2523 320.633 20.5746 320.816 19.7221C320.935 19.185 320.94 18.1534 320.833 17.4842C320.697 16.6402 320.3 15.1185 320.215 15.1185C320.194 15.1185 319.993 15.3572 319.763 15.6513Z" fill="black"/>
<path d="M314.132 18.8994C314.145 19.0145 314.166 19.3811 314.179 19.7221C314.256 21.5635 314.605 22.804 315.356 23.9037C315.82 24.5814 316.592 25.191 317.223 25.3743C317.431 25.4382 317.466 25.4382 317.598 25.3743C317.674 25.3359 317.785 25.3061 317.841 25.3061C317.9 25.3061 317.956 25.272 317.973 25.2294C318.045 25.0375 318.131 24.5175 318.152 24.1126C318.224 22.7102 317.581 21.4186 316.212 20.2208C315.466 19.5687 314.294 18.6991 314.166 18.6991C314.128 18.6991 314.119 18.7545 314.132 18.8994Z" fill="black"/>
<path d="M321.992 21.6573C320.253 22.6974 319.264 23.6309 318.736 24.7306C318.437 25.3615 318.399 25.5533 318.403 26.4357C318.408 27.0452 318.425 27.2669 318.489 27.5226C318.565 27.8253 318.578 27.8423 318.697 27.8551C318.77 27.8636 318.842 27.8892 318.868 27.9105C319.013 28.0512 319.618 27.838 320.147 27.4629C320.867 26.9472 321.583 25.9242 321.95 24.8798C322.197 24.1637 322.397 23.145 322.448 22.3223C322.461 22.1006 322.483 21.798 322.495 21.6488C322.504 21.5039 322.5 21.3845 322.483 21.3845C322.465 21.3845 322.244 21.5081 321.992 21.6573Z" fill="black"/>
<path d="M314.396 23.7758C314.35 23.9165 314.158 24.9395 314.09 25.4126C313.992 26.0946 313.992 27.237 314.085 27.7613C314.273 28.8014 314.703 29.6454 315.415 30.3572C315.91 30.8559 316.072 30.954 316.391 30.954H316.651L316.766 30.7409C316.967 30.3785 317.176 29.6667 317.231 29.1594C317.372 27.8636 316.818 26.4527 315.564 24.931C315.074 24.3385 314.426 23.6906 314.396 23.7758Z" fill="black"/>
<path d="M322.521 27.5013C321.191 27.7144 320.168 28.0043 319.499 28.3495C318.544 28.844 317.845 29.5985 317.449 30.5533C317.308 30.89 317.116 31.7425 317.154 31.8491C317.167 31.8789 317.257 31.9301 317.346 31.9557C317.444 31.9812 317.547 32.0452 317.585 32.1006C317.687 32.2583 317.909 32.3137 318.352 32.2839C319.746 32.1901 320.863 31.3973 322.031 29.6709C322.466 29.023 323.284 27.3862 323.165 27.399C323.148 27.4032 322.858 27.4459 322.521 27.5013Z" fill="black"/>
<path d="M313.335 28.9548C313.288 29.04 312.964 30.0886 312.866 30.485C312.628 31.4271 312.602 31.6317 312.606 32.5524C312.606 33.3623 312.615 33.456 312.721 33.8439C312.917 34.5686 313.382 35.3785 313.936 35.9454C314.235 36.2523 314.392 36.3461 314.605 36.3461C314.763 36.3461 314.789 36.329 314.921 36.1287C315.275 35.5873 315.526 34.8883 315.611 34.219C315.769 32.9232 315.16 31.2651 313.898 29.5899C313.472 29.0187 313.369 28.9036 313.335 28.9548Z" fill="black"/>
<path d="M310.743 32.7314C310.159 33.8141 309.823 34.6922 309.639 35.5831C309.516 36.167 309.537 37.1261 309.678 37.6248C309.929 38.5115 310.731 39.7135 311.063 39.7135C311.178 39.7135 311.553 39.3 311.809 38.8823C312.078 38.456 312.299 37.9317 312.402 37.4884C312.508 37.0196 312.495 35.9028 312.38 35.3657C312.269 34.8755 312.069 34.2361 311.869 33.7459C311.702 33.3367 311.208 32.3137 311.123 32.1986C311.072 32.1346 311.029 32.1943 310.743 32.7314Z" fill="black"/>
<path d="M320.893 32.1986C320.334 32.2327 319.52 32.3435 319.132 32.4416C317.717 32.8039 316.613 33.682 316.076 34.8755C315.974 35.1057 315.735 35.792 315.735 35.8602C315.735 35.8687 315.837 35.9241 315.961 35.9795C316.08 36.0349 316.225 36.1372 316.276 36.2054C316.408 36.393 316.685 36.4484 317.308 36.4185C318.403 36.3674 319.32 35.9156 320.3 34.9437C320.871 34.3725 321.361 33.7374 321.83 32.9488C322.052 32.5822 322.252 32.254 322.269 32.2242C322.295 32.1816 322.184 32.1688 321.715 32.1773C321.391 32.1816 321.02 32.1901 320.893 32.1986Z" fill="black"/>
<path d="M307.913 35.7152C306.319 37.2583 305.59 38.4944 305.479 39.8329C305.428 40.4509 305.611 41.3418 305.923 41.9727L306.08 42.2924H306.336C306.558 42.2924 306.622 42.271 306.805 42.1432C307.5 41.6658 308.212 40.6513 308.501 39.7348C308.736 38.9803 308.766 38.7502 308.766 37.5822C308.766 36.653 308.749 36.4015 308.663 35.8559C308.608 35.5021 308.548 35.1994 308.531 35.1824C308.514 35.1611 308.233 35.3998 307.913 35.7152Z" fill="black"/>
<path d="M316.067 36.6701C314.853 36.8577 314.171 37.1561 313.506 37.7912C313.156 38.1237 312.913 38.4348 312.649 38.8867C312.376 39.3598 312.376 39.3513 312.666 39.5346C312.807 39.6198 312.934 39.7264 312.947 39.7648C313.054 40.1015 314.094 40.3402 314.946 40.2294C315.419 40.1654 316.123 39.9353 316.545 39.7051C317.376 39.2533 318.412 38.4135 318.732 37.9404C318.838 37.7784 319.064 37.4971 319.23 37.3095C319.396 37.1262 319.524 36.9685 319.516 36.96C319.507 36.9515 319.23 36.896 318.906 36.8364C317.521 36.5934 316.809 36.5508 316.067 36.6701Z" fill="black"/>
<path d="M304.333 39.0273C302.056 39.5516 300.714 40.2635 299.963 41.3547C299.601 41.8832 299.303 42.7613 299.252 43.4476L299.226 43.7929L299.375 43.8227C299.46 43.8355 299.588 43.908 299.665 43.9804L299.801 44.1168L300.236 44.0955C300.957 44.0614 301.647 43.7801 302.316 43.2515C302.9 42.7912 303.685 41.7596 304.196 40.7792C304.414 40.37 304.865 39.2788 304.934 39.0145C304.968 38.8781 304.985 38.8781 304.333 39.0273Z" fill="black"/>
<path d="M311.195 40.2719C310.466 40.3742 309.639 40.7706 309.064 41.3034C308.744 41.5933 308.318 42.0963 308.318 42.1773C308.318 42.2028 308.433 42.3222 308.574 42.4458C308.714 42.5694 308.842 42.7144 308.855 42.7698C308.906 42.9658 309.362 43.2259 309.968 43.4049C311.008 43.7075 312.223 43.5157 313.569 42.8337C314.345 42.4416 314.716 42.1943 314.865 41.9684C314.934 41.8661 315.159 41.6487 315.364 41.4825C315.616 41.2821 315.718 41.1756 315.679 41.1543C315.65 41.1372 315.317 41.0093 314.942 40.8687C314.166 40.5831 313.582 40.4126 313.054 40.3273C312.572 40.2506 311.57 40.2208 311.195 40.2719Z" fill="black"/>
<path d="M305.658 42.8934C305.27 42.9787 304.874 43.1321 304.482 43.341C304.102 43.5456 303.676 43.8525 303.672 43.9165C303.672 43.942 303.783 44.1168 303.919 44.3086C304.051 44.5004 304.209 44.7349 304.269 44.8329C304.46 45.1483 305.1 45.6215 305.624 45.8346C306.617 46.2353 307.798 46.2481 309.277 45.8772C309.959 45.7025 310.151 45.6172 310.232 45.451C310.27 45.3657 310.368 45.2975 310.573 45.208C310.726 45.1398 310.91 45.0588 310.978 45.029L311.102 44.9736L310.65 44.6454C309.316 43.6735 308.497 43.2387 307.466 42.9702C306.937 42.8295 306.093 42.7954 305.658 42.8934Z" fill="black"/>
<path d="M300.283 44.688C300.121 44.7221 299.84 44.8073 299.665 44.8755C299.35 44.9949 298.71 45.3359 298.612 45.4382C298.535 45.5149 299.162 46.5209 299.495 46.8619C299.968 47.3478 300.56 47.6846 301.306 47.8849C301.707 47.9915 301.788 48 302.67 48C303.463 48 303.689 47.9872 304.141 47.902C304.759 47.7911 305.036 47.6846 305.036 47.5652C305.036 47.4714 305.181 47.3905 305.569 47.2754C305.709 47.2327 305.837 47.1858 305.859 47.1731C305.893 47.1432 305.01 46.3717 304.49 45.9795C303.552 45.2805 302.649 44.8457 301.796 44.6837C301.362 44.5985 300.68 44.6027 300.283 44.688Z" fill="black"/>
<defs>
<filter id="filter0_d_17_2998" x="87.0057" y="3.9" width="209.2" height="48.2" filterUnits="userSpaceOnUse" color-interpolation-filters="sRGB">
<feFlood flood-opacity="0" result="BackgroundImageFix"/>
<feColorMatrix in="SourceAlpha" type="matrix" values="0 0 0 0 0 0 0 0 0 0 0 0 0 0 0 0 0 0 127 0" result="hardAlpha"/>
<feOffset/>
<feGaussianBlur stdDeviation="2.8"/>
<feComposite in2="hardAlpha" operator="out"/>
<feColorMatrix type="matrix" values="0 0 0 0 0 0 0 0 0 0 0 0 0 0 0 0 0 0 0.25 0"/>
<feBlend mode="normal" in2="BackgroundImageFix" result="effect1_dropShadow_17_2998"/>
<feBlend mode="normal" in="SourceGraphic" in2="effect1_dropShadow_17_2998" result="shape"/>
</filter>
<linearGradient id="paint0_linear_17_2998" x1="167.588" y1="0" x2="167.588" y2="56" gradientUnits="userSpaceOnUse">
<stop stop-color="#F87070"/>
<stop offset="1" stop-color="#EF4444"/>
</linearGradient>
</defs>
</svg>
