<svg width="354" height="56" viewBox="0 0 354 56" fill="none" xmlns="http://www.w3.org/2000/svg">
<rect width="354" height="56" rx="8" fill="url(#paint0_linear_17_1792)"/>
<rect x="1.05" y="1.05" width="351.9" height="53.9" rx="6.95" stroke="white" stroke-opacity="0.15" stroke-width="2.1"/>
<path d="M26.283 8.18349C24.2283 9.10429 22.9707 10.1061 22.3696 11.2997C22.0883 11.8624 21.9305 12.5829 21.939 13.2521C21.9476 13.768 21.9732 13.8532 22.1266 13.8703C22.1948 13.8788 22.2971 13.9214 22.3526 13.9683C22.5657 14.1346 23.1241 14.0323 23.7721 13.704C24.9444 13.1157 25.8993 11.6962 26.4066 9.78636C26.5047 9.41548 26.7519 8.14939 26.7519 8.01297C26.7519 7.97887 26.6837 8.00445 26.283 8.18349Z" fill="black"/>
<path d="M19.637 9.79914C18.2303 12.4379 18.0512 14.3477 19.0615 16.0529C19.3088 16.4707 19.5987 16.8117 19.7436 16.8458C19.9013 16.8884 20.1187 16.7222 20.4129 16.3257C21.7259 14.5779 21.696 12.8045 20.3021 10.008C20.1145 9.62862 19.944 9.31743 19.9269 9.31743C19.9099 9.31743 19.7777 9.53484 19.637 9.79914Z" fill="black"/>
<path d="M25.2684 13.623C24.4073 13.9 23.9469 14.0876 23.3842 14.3775C22.2204 14.9786 21.3593 15.7587 20.933 16.607C20.6559 17.1569 20.4854 17.8816 20.4854 18.504V18.7726L20.6388 18.7982C20.7198 18.8152 20.8221 18.8664 20.8605 18.9133C20.9884 19.0582 21.2143 19.0923 21.6363 19.0198C22.4378 18.8792 22.9707 18.6063 23.5675 18.0266C24.484 17.1399 25.1618 15.8738 25.6478 14.1686C25.7416 13.8318 25.8268 13.5334 25.8354 13.5036C25.8609 13.4354 25.8652 13.4311 25.2684 13.623Z" fill="black"/>
<path d="M16.6572 15.7417C15.9155 18.3548 16.0221 20.0344 17.0196 21.4966C17.4757 22.1702 17.8892 22.5325 18.1962 22.5325C18.2942 22.5325 18.3454 22.4814 18.5116 22.2213C18.6225 22.0551 18.7887 21.7439 18.8782 21.535C19.6498 19.7488 19.1809 17.9712 17.3308 15.6479C17.0963 15.3537 16.8874 15.115 16.8704 15.115C16.8491 15.115 16.751 15.3964 16.6572 15.7417Z" fill="black"/>
<path d="M22.425 19.0028C21.2697 19.8298 20.2935 20.7123 19.8118 21.3602C19.5304 21.7396 19.1894 22.4174 19.0785 22.8309C18.8995 23.496 18.8952 24.2718 19.0572 25.0008C19.1212 25.2736 19.1382 25.3035 19.2277 25.3035C19.2874 25.3035 19.3983 25.3333 19.475 25.3717C19.6072 25.4356 19.6413 25.4356 19.8501 25.3717C20.4555 25.1926 21.2185 24.6086 21.6875 23.9521C22.5699 22.7286 22.8768 21.4668 22.9578 18.7257C22.9578 18.649 22.8214 18.7215 22.425 19.0028Z" fill="black"/>
<path d="M14.6195 21.9656C14.6919 23.351 14.952 24.5575 15.3868 25.4953C15.7321 26.2371 16.3843 27.0683 16.9257 27.4563C17.4543 27.8357 18.1065 28.0616 18.2046 27.9039C18.2174 27.8783 18.2856 27.8612 18.3538 27.8612C18.5073 27.8612 18.5371 27.8101 18.6352 27.3497C18.7503 26.8168 18.7375 25.8704 18.6138 25.41C18.3026 24.2548 17.3946 23.1677 15.8983 22.1574C15.5786 21.9443 14.6493 21.3816 14.6152 21.3816C14.6024 21.3816 14.6024 21.6459 14.6195 21.9656Z" fill="black"/>
<path d="M22.2928 24.0757C21.5212 24.8686 21.031 25.5081 20.4939 26.4118C20.1486 26.9958 19.8928 27.8527 19.8587 28.5518C19.8203 29.3149 19.9652 30.0225 20.302 30.6918L20.447 30.9817L20.6985 30.9646C20.886 30.9518 20.9926 30.9135 21.129 30.8197C21.8495 30.3252 22.5614 29.3319 22.8427 28.4324C23.1752 27.3752 23.1625 25.9898 22.8001 24.2675C22.7404 23.9691 22.6765 23.7262 22.6637 23.7262C22.6466 23.7262 22.4804 23.8839 22.2928 24.0757Z" fill="black"/>
<path d="M13.9332 27.4946C13.9758 27.6822 14.5598 28.8886 14.7943 29.2723C15.9751 31.2162 17.237 32.1839 18.7205 32.2819C19.1596 32.3117 19.3855 32.2563 19.4878 32.1029C19.5219 32.0474 19.6327 31.9835 19.7478 31.9537L19.9439 31.8982L19.9141 31.6126C19.8544 30.9433 19.4921 30.0822 19.0359 29.5067C18.1706 28.4239 16.8746 27.8527 14.4405 27.4818L13.9119 27.4051L13.9332 27.4946Z" fill="black"/>
<path d="M23.3798 29.3447C21.4743 31.7874 21.0054 33.8336 21.9219 35.6965C22.0072 35.867 22.1308 36.0844 22.1947 36.174C22.3013 36.3189 22.3439 36.3445 22.4718 36.3445C22.6892 36.3445 22.8171 36.2635 23.1795 35.8841C24.518 34.4816 24.842 32.7849 24.2154 30.4232C24.0534 29.8264 23.7678 28.927 23.7337 28.927C23.7166 28.927 23.5589 29.1145 23.3798 29.3447Z" fill="black"/>
<path d="M25.669 32.7721C24.4754 35.1977 24.2878 36.8987 25.0467 38.4546C25.4218 39.2305 25.8609 39.7548 26.0825 39.6951C26.2147 39.661 26.4961 39.3712 26.7263 39.0344C27.7877 37.4486 27.8218 35.9608 26.8499 33.7441C26.641 33.2666 26.0442 32.1242 26.0058 32.1242C25.9973 32.1242 25.8481 32.4183 25.669 32.7721Z" fill="black"/>
<path d="M14.8156 32.1796C14.8156 32.1924 14.9264 32.3927 15.0671 32.6229C15.2035 32.8531 15.3953 33.1814 15.4934 33.3519C15.8983 34.051 16.9087 35.1679 17.5438 35.6155C18.2856 36.1399 18.9677 36.3829 19.7819 36.417C20.4 36.4425 20.6174 36.3956 20.805 36.1953C20.8732 36.1143 21.0267 36.012 21.1375 35.9651C21.2483 35.9182 21.3379 35.85 21.3379 35.8201C21.3379 35.6965 21.1119 35.0784 20.9542 34.7587C20.5492 33.9444 20.0632 33.4286 19.2831 32.981C18.5712 32.5718 17.9701 32.3842 17.011 32.2734C16.4397 32.2052 14.8156 32.1327 14.8156 32.1796Z" fill="black"/>
<path d="M28.5253 35.266C28.3846 35.9651 28.3164 36.6898 28.3121 37.5595C28.3079 38.7829 28.4315 39.4693 28.8024 40.2963C29.1008 40.9655 29.7658 41.8011 30.2688 42.1421C30.4393 42.2615 30.5331 42.2913 30.7463 42.3041L31.0106 42.3212L31.1129 42.1165C31.6031 41.1446 31.7395 39.9424 31.4624 39.0089C31.2493 38.2884 30.8869 37.6404 30.2603 36.8561C29.9832 36.5065 28.6446 35.1509 28.5807 35.1509C28.5636 35.1509 28.5381 35.202 28.5253 35.266Z" fill="black"/>
<path d="M19.1212 36.6855C18.8271 36.7282 18.3624 36.8006 18.0811 36.8518C17.804 36.8987 17.5695 36.9413 17.5567 36.9413C17.5482 36.9413 17.6974 37.1204 17.8893 37.3378C18.0811 37.5552 18.29 37.828 18.3539 37.9474C18.4264 38.0795 18.6267 38.2969 18.891 38.5314C20.5408 39.9936 22.0712 40.5179 23.5334 40.13C23.8446 40.049 23.8957 40.0192 24.1089 39.8018C24.2368 39.6696 24.4158 39.5247 24.5054 39.4778C24.7014 39.3755 24.6972 39.3328 24.4457 38.8852C23.8361 37.8067 22.9238 37.0948 21.8069 36.822C20.8776 36.5918 20.0591 36.5534 19.1212 36.6855Z" fill="black"/>
<path d="M32.1232 38.9193C32.1232 39.0216 32.7029 40.4071 32.9118 40.8078C34.0031 42.9052 35.3417 44.0221 36.838 44.0945L37.2685 44.1116L37.4007 43.9837C37.4774 43.9112 37.6053 43.8387 37.6863 43.8217C37.7673 43.8089 37.8483 43.7791 37.8568 43.7577C37.8696 43.7407 37.8568 43.5446 37.8313 43.3272C37.7417 42.5812 37.4689 41.8437 37.0938 41.3151C36.8593 40.9826 36.3179 40.4668 35.9598 40.2323C35.265 39.7719 34.212 39.3669 32.9331 39.0685C32.2084 38.9022 32.1232 38.8852 32.1232 38.9193Z" fill="black"/>
<path d="M24.4627 40.2664C23.9512 40.3218 23.478 40.4241 22.894 40.6117C22.2417 40.8206 21.4062 41.1446 21.3934 41.1915C21.3891 41.2085 21.5511 41.3492 21.7515 41.4984C21.9774 41.6689 22.1394 41.8266 22.1692 41.9034C22.2417 42.0782 22.3568 42.1762 22.7703 42.432C24.0066 43.1951 25.2386 43.5872 26.2617 43.5361C27.0674 43.4935 27.9669 43.1609 28.18 42.8242C28.2354 42.7389 28.3974 42.5599 28.5466 42.4277L28.8152 42.1933L28.6361 41.9588C28.0308 41.1574 27.1654 40.5691 26.2787 40.3517C25.861 40.2494 24.9956 40.211 24.4627 40.2664Z" fill="black"/>
<path d="M29.8851 42.9051C29.024 43.0885 28.1586 43.4721 27.2506 44.0775C26.2702 44.7339 25.9078 45.0409 26.1167 45.0409C26.1423 45.0409 26.3 45.1048 26.4748 45.1858C26.7007 45.2881 26.803 45.3649 26.8414 45.4501C26.9224 45.6164 27.1142 45.7016 27.7963 45.8764C29.2542 46.243 30.3839 46.2345 31.4028 45.8551C31.9314 45.6547 32.5793 45.1773 32.8308 44.7979C32.9204 44.6657 33.0951 44.4142 33.2188 44.2352C33.4873 43.8643 33.5001 43.9069 32.9971 43.5702C32.5964 43.3016 32.1786 43.1098 31.7182 42.9691C31.1981 42.8156 30.4479 42.79 29.8851 42.9051Z" fill="black"/>
<path d="M35.1285 44.7169C34.5232 44.8619 34.067 45.0537 33.3423 45.4757C32.7711 45.8082 31.1767 47.0957 31.2492 47.1681C31.2663 47.1809 31.4453 47.2491 31.6457 47.3216C31.9569 47.4282 32.0208 47.4665 32.0293 47.5475C32.0507 47.6925 32.2979 47.7863 32.9331 47.9056C33.385 47.9866 33.6066 48.0037 34.4038 47.9994C35.2862 47.9994 35.3672 47.9909 35.7679 47.8843C36.872 47.5859 37.5456 47.0743 38.1765 46.064C38.3641 45.7613 38.5175 45.497 38.5175 45.48C38.5175 45.3862 37.6181 44.9301 37.1108 44.7638C36.8038 44.6615 36.6589 44.6445 36.1516 44.6317C35.6358 44.6189 35.4951 44.6274 35.1285 44.7169Z" fill="black"/>
<path d="M58.4445 20.8078C58.7163 20.6289 58.988 20.45 59.2135 20.2554C59.4389 20.0609 59.6182 19.8505 59.7237 19.6472C59.8292 19.4438 59.861 19.2472 59.8427 19.036C59.8244 18.8248 59.7557 18.5989 59.6628 18.3235C59.5699 18.0482 59.4526 17.7235 59.4011 17.4208C59.3496 17.1181 59.364 16.8376 59.3997 16.6295C59.4354 16.4215 59.4924 16.2861 59.542 16.1537C59.5916 16.0212 59.6337 15.8917 59.7363 15.6903C59.8389 15.4889 60.0019 15.2158 60.1651 14.9425" stroke="black" stroke-width="1.5" stroke-linecap="round"/>
<path d="M70.6403 20.5057C70.9121 20.3268 71.1838 20.1479 71.4093 19.9534C71.6347 19.7588 71.814 19.5484 71.9195 19.3451C72.025 19.1417 72.0568 18.9452 72.0385 18.734C72.0202 18.5228 71.9515 18.2968 71.8586 18.0215C71.7657 17.7461 71.6484 17.4214 71.5969 17.1187C71.5454 16.8161 71.5598 16.5355 71.5955 16.3275C71.6312 16.1194 71.6882 15.984 71.7378 15.8516C71.7874 15.7192 71.8295 15.5897 71.9321 15.3883C72.0347 15.1869 72.1977 14.9137 72.3609 14.6404" stroke="black" stroke-width="1.5" stroke-linecap="round"/>
<path d="M64.8069 19.2935C65.0787 19.1146 65.3505 18.9357 65.5759 18.7412C65.8014 18.5466 65.9806 18.3362 66.0861 18.1329C66.1916 17.9295 66.2234 17.7329 66.2051 17.5217C66.1868 17.3105 66.1182 17.0846 66.0252 16.8092C65.9323 16.5339 65.8151 16.2092 65.7635 15.9065C65.712 15.6038 65.7264 15.3233 65.7621 15.1153C65.7978 14.9072 65.8548 14.7718 65.9044 14.6394C65.954 14.507 65.9961 14.3775 66.0987 14.1761C66.2013 13.9747 66.3644 13.7015 66.5275 13.4282" stroke="black" stroke-width="1.5" stroke-linecap="round"/>
<path d="M82.3909 39.4322C82.0649 39.4339 61.1822 39.5444 55.7794 39.5233C50.3765 39.5021 50.3386 39.4024 50.3385 39.5544C50.3384 39.7063 50.3764 40.11 50.5256 40.497C50.6748 40.8841 50.9351 41.2545 51.2695 41.5847C51.6039 41.9149 51.9979 42.1947 52.2906 42.3561C52.5834 42.5174 52.7678 42.5554 57.3492 42.5696C61.9306 42.5838 70.9088 42.5743 75.4412 42.5505C79.9737 42.5267 80.0604 42.4888 80.3153 42.3748C80.5701 42.2608 80.993 42.0708 81.3941 41.7432C81.7952 41.4156 82.1747 40.9502 82.3861 40.5941C82.5976 40.2381 82.6282 40.0635 82.6633 39.8364C82.6983 39.6092 82.706 39.535 82.7169 39.4305C82.7169 39.4305 82.7169 39.4305 82.3909 39.4322Z" stroke="black" stroke-width="1.4" stroke-linecap="round" stroke-linejoin="round"/>
<path d="M78.1901 26.7325C78.1031 26.1197 78.0161 25.5066 77.8383 25.1405C77.6605 24.7745 77.3915 24.6558 77.2099 24.5962C77.0282 24.5365 76.9339 24.536 73.0881 24.5526C69.2423 24.5692 61.6453 24.6027 57.8172 24.6201C53.989 24.6375 53.93 24.6386 53.8589 24.6451C53.7878 24.6516 53.7047 24.6635 53.5879 24.7248C53.4711 24.7861 53.3207 24.8969 53.1973 25.0628C53.0739 25.2288 52.9804 25.443 52.932 25.978C52.8836 26.5129 52.8817 27.365 52.8976 27.9869C52.9134 28.6088 52.947 29.0004 53.0746 29.651C53.2021 30.3016 53.4237 31.2112 53.7283 32.1209C54.0329 33.0307 54.4206 33.9405 55.0754 34.9143C55.7302 35.888 56.6519 36.9258 57.5123 37.6958C58.3728 38.4658 59.1718 38.9682 59.5872 39.2192C60.0025 39.4703 60.0341 39.4703 61.902 39.4643C63.7698 39.4584 67.4738 39.4465 69.3415 39.4346C71.2092 39.4227 71.2409 39.4108 71.6422 39.1254C72.0435 38.8399 72.8145 38.2808 73.5442 37.665C74.2739 37.0493 74.9622 36.3768 75.5911 35.5303C76.22 34.6838 76.7897 33.6632 77.2021 32.7063C77.6146 31.7493 77.8657 30.8705 78.0041 29.8895C78.1425 28.9085 78.1664 27.8167 78.202 27.2509C78.2376 26.685 78.2851 26.6375 78.5424 26.627C78.7997 26.6164 79.2665 26.6428 79.7294 26.7154C80.1923 26.788 80.6511 26.9066 80.9992 27.1164C81.3472 27.3263 81.5846 27.6269 81.7822 27.909C81.9797 28.191 82.1376 28.4545 82.2528 28.8435C82.368 29.2326 82.4407 29.7472 82.4574 30.2591C82.4742 30.7709 82.435 31.28 82.3231 31.7331C82.2112 32.1861 82.0266 32.5833 81.7385 32.9944C81.4504 33.4056 81.0588 33.8307 80.6225 34.2083C80.1862 34.5859 79.7051 34.916 79.1373 35.2209C78.5695 35.5257 77.915 35.8055 77.2129 35.9957C76.5109 36.1859 75.7613 36.2866 75.0113 36.3874" stroke="black" stroke-width="1.4" stroke-linecap="round"/>
<g filter="url(#filter0_d_17_1792)">
<path d="M98.0744 24.5L94.8471 12.8636H96.6937L98.9608 21.875H99.0687L101.427 12.8636H103.256L105.614 21.8807H105.722L107.983 12.8636H109.836L106.603 24.5H104.836L102.387 15.7841H102.296L99.8471 24.5H98.0744ZM111.3 24.5V15.7727H112.999V24.5H111.3ZM112.158 14.4261C111.863 14.4261 111.609 14.3276 111.397 14.1307C111.189 13.9299 111.084 13.6913 111.084 13.4148C111.084 13.1345 111.189 12.8958 111.397 12.6989C111.609 12.4981 111.863 12.3977 112.158 12.3977C112.454 12.3977 112.706 12.4981 112.914 12.6989C113.126 12.8958 113.232 13.1345 113.232 13.4148C113.232 13.6913 113.126 13.9299 112.914 14.1307C112.706 14.3276 112.454 14.4261 112.158 14.4261ZM116.983 19.3182V24.5H115.285V15.7727H116.915V17.1932H117.023C117.224 16.7311 117.538 16.3598 117.966 16.0795C118.398 15.7992 118.942 15.6591 119.597 15.6591C120.192 15.6591 120.713 15.7841 121.16 16.0341C121.607 16.2803 121.953 16.6477 122.199 17.1364C122.446 17.625 122.569 18.2292 122.569 18.9489V24.5H120.87V19.1534C120.87 18.5208 120.705 18.0265 120.376 17.6705C120.046 17.3106 119.593 17.1307 119.018 17.1307C118.624 17.1307 118.273 17.2159 117.966 17.3864C117.663 17.5568 117.423 17.8068 117.245 18.1364C117.071 18.4621 116.983 18.8561 116.983 19.3182ZM126.546 19.3182V24.5H124.847V15.7727H126.478V17.1932H126.586C126.787 16.7311 127.101 16.3598 127.529 16.0795C127.961 15.7992 128.504 15.6591 129.16 15.6591C129.754 15.6591 130.275 15.7841 130.722 16.0341C131.169 16.2803 131.516 16.6477 131.762 17.1364C132.008 17.625 132.131 18.2292 132.131 18.9489V24.5H130.432V19.1534C130.432 18.5208 130.268 18.0265 129.938 17.6705C129.608 17.3106 129.156 17.1307 128.58 17.1307C128.186 17.1307 127.836 17.2159 127.529 17.3864C127.226 17.5568 126.985 17.8068 126.807 18.1364C126.633 18.4621 126.546 18.8561 126.546 19.3182ZM138.171 24.6761C137.311 24.6761 136.571 24.4924 135.949 24.125C135.332 23.7538 134.855 23.233 134.518 22.5625C134.184 21.8883 134.018 21.0985 134.018 20.1932C134.018 19.2992 134.184 18.5114 134.518 17.8295C134.855 17.1477 135.324 16.6155 135.927 16.233C136.533 15.8504 137.241 15.6591 138.052 15.6591C138.544 15.6591 139.021 15.7405 139.483 15.9034C139.946 16.0663 140.36 16.322 140.728 16.6705C141.095 17.0189 141.385 17.4716 141.597 18.0284C141.809 18.5814 141.915 19.2538 141.915 20.0455V20.6477H134.978V19.375H140.251C140.251 18.928 140.16 18.5322 139.978 18.1875C139.796 17.839 139.54 17.5644 139.211 17.3636C138.885 17.1629 138.502 17.0625 138.063 17.0625C137.586 17.0625 137.169 17.1799 136.813 17.4148C136.461 17.6458 136.188 17.9489 135.995 18.3239C135.805 18.6951 135.711 19.0985 135.711 19.5341V20.5284C135.711 21.1117 135.813 21.608 136.018 22.017C136.226 22.4261 136.516 22.7386 136.887 22.9545C137.258 23.1667 137.692 23.2727 138.188 23.2727C138.51 23.2727 138.804 23.2273 139.069 23.1364C139.334 23.0417 139.563 22.9015 139.756 22.7159C139.949 22.5303 140.097 22.3011 140.199 22.0284L141.807 22.3182C141.679 22.7917 141.447 23.2064 141.114 23.5625C140.785 23.9148 140.37 24.1894 139.87 24.3864C139.374 24.5795 138.807 24.6761 138.171 24.6761ZM143.8 24.5V15.7727H145.442V17.1591H145.533C145.692 16.6894 145.973 16.3201 146.374 16.0511C146.779 15.7784 147.238 15.642 147.749 15.642C147.855 15.642 147.98 15.6458 148.124 15.6534C148.272 15.661 148.387 15.6705 148.471 15.6818V17.3068C148.403 17.2879 148.281 17.267 148.107 17.2443C147.933 17.2178 147.759 17.2045 147.584 17.2045C147.183 17.2045 146.825 17.2898 146.51 17.4602C146.2 17.6269 145.954 17.8598 145.772 18.1591C145.59 18.4545 145.499 18.7917 145.499 19.1705V24.5H143.8ZM157.851 24.6761C157.033 24.6761 156.319 24.4886 155.709 24.1136C155.099 23.7386 154.626 23.214 154.289 22.5398C153.952 21.8655 153.783 21.0776 153.783 20.1761C153.783 19.2708 153.952 18.4792 154.289 17.8011C154.626 17.1231 155.099 16.5966 155.709 16.2216C156.319 15.8466 157.033 15.6591 157.851 15.6591C158.67 15.6591 159.384 15.8466 159.993 16.2216C160.603 16.5966 161.077 17.1231 161.414 17.8011C161.751 18.4792 161.92 19.2708 161.92 20.1761C161.92 21.0776 161.751 21.8655 161.414 22.5398C161.077 23.214 160.603 23.7386 159.993 24.1136C159.384 24.4886 158.67 24.6761 157.851 24.6761ZM157.857 23.25C158.387 23.25 158.827 23.1098 159.175 22.8295C159.524 22.5492 159.781 22.1761 159.948 21.7102C160.118 21.2443 160.204 20.7311 160.204 20.1705C160.204 19.6136 160.118 19.1023 159.948 18.6364C159.781 18.1667 159.524 17.7898 159.175 17.5057C158.827 17.2216 158.387 17.0795 157.857 17.0795C157.323 17.0795 156.88 17.2216 156.528 17.5057C156.179 17.7898 155.92 18.1667 155.749 18.6364C155.582 19.1023 155.499 19.6136 155.499 20.1705C155.499 20.7311 155.582 21.2443 155.749 21.7102C155.92 22.1761 156.179 22.5492 156.528 22.8295C156.88 23.1098 157.323 23.25 157.857 23.25ZM167.969 15.7727V17.1364H163.037V15.7727H167.969ZM164.39 24.5V14.7614C164.39 14.2159 164.509 13.7633 164.748 13.4034C164.986 13.0398 165.303 12.7689 165.697 12.5909C166.09 12.4091 166.519 12.3182 166.981 12.3182C167.322 12.3182 167.613 12.3466 167.856 12.4034C168.098 12.4564 168.278 12.5057 168.395 12.5511L167.998 13.9261C167.918 13.9034 167.816 13.8769 167.691 13.8466C167.566 13.8125 167.414 13.7955 167.236 13.7955C166.823 13.7955 166.528 13.8977 166.35 14.1023C166.176 14.3068 166.089 14.6023 166.089 14.9886V24.5H164.39Z" fill="black"/>
<path d="M95.0488 33.5632V31.1364H105.499V33.5632H101.75V43.5H98.8038V33.5632H95.0488ZM109.948 43.6751C108.978 43.6751 108.141 43.4839 107.437 43.1016C106.736 42.7152 106.197 42.1658 105.819 41.4535C105.444 40.7371 105.257 39.8859 105.257 38.8999C105.257 37.942 105.446 37.1049 105.825 36.3885C106.203 35.6681 106.736 35.1087 107.425 34.7102C108.113 34.3078 108.924 34.1065 109.857 34.1065C110.517 34.1065 111.121 34.2092 111.668 34.4144C112.216 34.6197 112.689 34.9235 113.087 35.326C113.486 35.7285 113.796 36.2255 114.017 36.8171C114.238 37.4047 114.349 38.0788 114.349 38.8395V39.576H106.29V37.8615H111.602C111.598 37.5476 111.524 37.2679 111.379 37.0224C111.234 36.7769 111.035 36.5857 110.781 36.4489C110.532 36.308 110.244 36.2376 109.918 36.2376C109.588 36.2376 109.292 36.312 109.03 36.4609C108.769 36.6058 108.561 36.805 108.409 37.0586C108.256 37.3081 108.175 37.5919 108.167 37.9098V39.6545C108.167 40.0328 108.242 40.3648 108.39 40.6506C108.539 40.9323 108.751 41.1516 109.024 41.3086C109.298 41.4656 109.624 41.544 110.002 41.544C110.264 41.544 110.501 41.5078 110.715 41.4354C110.928 41.3629 111.111 41.2563 111.264 41.1154C111.417 40.9745 111.532 40.8015 111.608 40.5962L114.319 40.6747C114.206 41.2824 113.959 41.8117 113.576 42.2624C113.198 42.7092 112.701 43.0573 112.085 43.3068C111.469 43.5523 110.757 43.6751 109.948 43.6751ZM118.471 43.657C117.879 43.657 117.354 43.5584 116.895 43.3611C116.44 43.1599 116.08 42.8581 115.814 42.4556C115.553 42.0491 115.422 41.54 115.422 40.9283C115.422 40.4131 115.513 39.9785 115.694 39.6243C115.875 39.2701 116.124 38.9824 116.442 38.761C116.76 38.5397 117.126 38.3726 117.541 38.2599C117.955 38.1432 118.398 38.0647 118.869 38.0245C119.396 37.9762 119.821 37.9259 120.143 37.8736C120.465 37.8172 120.698 37.7388 120.843 37.6381C120.992 37.5335 121.066 37.3866 121.066 37.1974V37.1673C121.066 36.8574 120.96 36.6179 120.747 36.4489C120.533 36.2798 120.245 36.1953 119.883 36.1953C119.493 36.1953 119.179 36.2798 118.941 36.4489C118.704 36.6179 118.553 36.8513 118.489 37.1491L115.766 37.0526C115.847 36.4891 116.054 35.986 116.388 35.5433C116.726 35.0966 117.189 34.7464 117.776 34.4929C118.368 34.2353 119.078 34.1065 119.907 34.1065C120.499 34.1065 121.044 34.177 121.543 34.3178C122.042 34.4547 122.477 34.6559 122.847 34.9215C123.218 35.1831 123.503 35.5051 123.705 35.8874C123.91 36.2698 124.013 36.7064 124.013 37.1974V43.5H121.236V42.2081H121.163C120.998 42.522 120.787 42.7876 120.529 43.005C120.276 43.2223 119.976 43.3853 119.63 43.494C119.288 43.6026 118.901 43.657 118.471 43.657ZM119.382 41.7251C119.7 41.7251 119.986 41.6607 120.239 41.532C120.497 41.4032 120.702 41.2261 120.855 41.0007C121.008 40.7713 121.085 40.5057 121.085 40.2038V39.3224C121 39.3667 120.897 39.407 120.777 39.4432C120.66 39.4794 120.531 39.5136 120.39 39.5458C120.249 39.578 120.105 39.6062 119.956 39.6303C119.807 39.6545 119.664 39.6766 119.527 39.6967C119.249 39.741 119.012 39.8094 118.815 39.902C118.622 39.9946 118.473 40.1153 118.368 40.2642C118.267 40.4091 118.217 40.5821 118.217 40.7834C118.217 41.0892 118.326 41.3227 118.543 41.4837C118.764 41.6446 119.044 41.7251 119.382 41.7251ZM137.04 35.6158H134.022C133.981 35.3059 133.899 35.0262 133.774 34.7766C133.649 34.5271 133.484 34.3138 133.279 34.1367C133.074 33.9596 132.83 33.8248 132.549 33.7322C132.271 33.6357 131.963 33.5874 131.625 33.5874C131.025 33.5874 130.508 33.7343 130.074 34.0281C129.643 34.3218 129.311 34.7464 129.077 35.3018C128.848 35.8572 128.733 36.5294 128.733 37.3182C128.733 38.1392 128.85 38.8274 129.084 39.3828C129.321 39.9342 129.653 40.3507 130.08 40.6325C130.51 40.9102 131.019 41.049 131.607 41.049C131.937 41.049 132.237 41.0067 132.506 40.9222C132.78 40.8377 133.02 40.715 133.225 40.554C133.434 40.389 133.605 40.1897 133.738 39.9563C133.875 39.7189 133.969 39.4512 134.022 39.1534L137.04 39.1715C136.988 39.7189 136.829 40.2582 136.563 40.7894C136.302 41.3207 135.941 41.8056 135.483 42.2443C135.024 42.679 134.464 43.0251 133.804 43.2827C133.148 43.5402 132.396 43.669 131.547 43.669C130.428 43.669 129.426 43.4235 128.54 42.9325C127.659 42.4375 126.963 41.7171 126.451 40.7713C125.94 39.8255 125.685 38.6745 125.685 37.3182C125.685 35.9579 125.944 34.8048 126.464 33.859C126.983 32.9132 127.685 32.1948 128.57 31.7038C129.456 31.2128 130.448 30.9673 131.547 30.9673C132.295 30.9673 132.987 31.072 133.623 31.2812C134.259 31.4865 134.819 31.7884 135.302 32.1868C135.785 32.5812 136.177 33.0662 136.479 33.6417C136.781 34.2172 136.968 34.8752 137.04 35.6158ZM143.079 43.6751C142.105 43.6751 141.268 43.4758 140.567 43.0774C139.871 42.6749 139.334 42.1155 138.955 41.3991C138.581 40.6787 138.394 39.8436 138.394 38.8938C138.394 37.94 138.581 37.1049 138.955 36.3885C139.334 35.6681 139.871 35.1087 140.567 34.7102C141.268 34.3078 142.105 34.1065 143.079 34.1065C144.053 34.1065 144.888 34.3078 145.584 34.7102C146.284 35.1087 146.822 35.6681 147.196 36.3885C147.574 37.1049 147.763 37.94 147.763 38.8938C147.763 39.8436 147.574 40.6787 147.196 41.3991C146.822 42.1155 146.284 42.6749 145.584 43.0774C144.888 43.4758 144.053 43.6751 143.079 43.6751ZM143.097 41.4474C143.451 41.4474 143.751 41.3388 143.996 41.1214C144.242 40.9041 144.429 40.6023 144.558 40.2159C144.691 39.8295 144.757 39.3828 144.757 38.8757C144.757 38.3606 144.691 37.9098 144.558 37.5234C144.429 37.1371 144.242 36.8352 143.996 36.6179C143.751 36.4006 143.451 36.2919 143.097 36.2919C142.731 36.2919 142.421 36.4006 142.167 36.6179C141.918 36.8352 141.726 37.1371 141.594 37.5234C141.465 37.9098 141.4 38.3606 141.4 38.8757C141.4 39.3828 141.465 39.8295 141.594 40.2159C141.726 40.6023 141.918 40.9041 142.167 41.1214C142.421 41.3388 142.731 41.4474 143.097 41.4474ZM152.228 38.2116V43.5H149.276V34.2273H152.083V35.9297H152.185C152.391 35.3622 152.741 34.9175 153.236 34.5955C153.731 34.2695 154.32 34.1065 155.005 34.1065C155.657 34.1065 156.222 34.2534 156.701 34.5472C157.184 34.837 157.558 35.2435 157.824 35.7667C158.093 36.2859 158.226 36.8936 158.222 37.5898V43.5H155.27V38.1694C155.274 37.6542 155.143 37.2518 154.878 36.962C154.616 36.6722 154.252 36.5273 153.785 36.5273C153.475 36.5273 153.202 36.5958 152.964 36.7326C152.731 36.8654 152.55 37.0566 152.421 37.3061C152.296 37.5556 152.232 37.8575 152.228 38.2116ZM163.678 43.5V41.3508L168.188 37.4027C168.526 37.0968 168.814 36.8171 169.051 36.5636C169.288 36.306 169.47 36.0484 169.594 35.7908C169.719 35.5292 169.781 35.2455 169.781 34.9396C169.781 34.5975 169.707 34.3058 169.558 34.0643C169.409 33.8188 169.204 33.6296 168.942 33.4968C168.681 33.364 168.381 33.2976 168.043 33.2976C167.701 33.2976 167.401 33.368 167.143 33.5089C166.886 33.6457 166.685 33.8449 166.54 34.1065C166.399 34.3681 166.328 34.6861 166.328 35.0604H163.497C163.497 34.2192 163.686 33.4928 164.065 32.881C164.443 32.2693 164.974 31.7984 165.658 31.4684C166.346 31.1344 167.145 30.9673 168.055 30.9673C168.993 30.9673 169.808 31.1243 170.5 31.4382C171.192 31.7521 171.727 32.1908 172.106 32.7543C172.488 33.3137 172.679 33.9637 172.679 34.7042C172.679 35.1751 172.585 35.6419 172.395 36.1048C172.206 36.5676 171.866 37.0787 171.375 37.6381C170.888 38.1976 170.196 38.8677 169.299 39.6484L167.819 41.0128V41.0913H172.83V43.5H163.678ZM179.632 43.8018C178.554 43.8018 177.624 43.5463 176.843 43.0352C176.062 42.52 175.461 41.7815 175.038 40.8196C174.616 39.8537 174.406 38.6926 174.41 37.3363C174.414 35.98 174.626 34.829 175.044 33.8832C175.467 32.9334 176.066 32.2109 176.843 31.7159C177.624 31.2169 178.554 30.9673 179.632 30.9673C180.711 30.9673 181.641 31.2169 182.421 31.7159C183.206 32.2109 183.81 32.9334 184.232 33.8832C184.655 34.833 184.864 35.984 184.86 37.3363C184.86 38.6966 184.649 39.8597 184.226 40.8256C183.804 41.7915 183.202 42.5301 182.421 43.0412C181.645 43.5483 180.715 43.8018 179.632 43.8018ZM179.632 41.3569C180.276 41.3569 180.797 41.0289 181.196 40.3729C181.594 39.7128 181.791 38.7006 181.787 37.3363C181.787 36.4428 181.697 35.7063 181.516 35.1268C181.335 34.5432 181.083 34.1085 180.761 33.8228C180.439 33.537 180.063 33.3942 179.632 33.3942C178.992 33.3942 178.475 33.7182 178.081 34.3661C177.686 35.0101 177.487 36.0001 177.483 37.3363C177.479 38.2418 177.566 38.9924 177.743 39.5881C177.924 40.1837 178.177 40.6284 178.503 40.9222C178.829 41.212 179.206 41.3569 179.632 41.3569ZM186.572 43.5V41.3508L191.081 37.4027C191.419 37.0968 191.707 36.8171 191.945 36.5636C192.182 36.306 192.363 36.0484 192.488 35.7908C192.613 35.5292 192.675 35.2455 192.675 34.9396C192.675 34.5975 192.601 34.3058 192.452 34.0643C192.303 33.8188 192.098 33.6296 191.836 33.4968C191.574 33.364 191.274 33.2976 190.936 33.2976C190.594 33.2976 190.294 33.368 190.037 33.5089C189.779 33.6457 189.578 33.8449 189.433 34.1065C189.292 34.3681 189.222 34.6861 189.222 35.0604H186.391C186.391 34.2192 186.58 33.4928 186.958 32.881C187.336 32.2693 187.868 31.7984 188.552 31.4684C189.24 31.1344 190.039 30.9673 190.948 30.9673C191.886 30.9673 192.701 31.1243 193.393 31.4382C194.086 31.7521 194.621 32.1908 194.999 32.7543C195.382 33.3137 195.573 33.9637 195.573 34.7042C195.573 35.1751 195.478 35.6419 195.289 36.1048C195.1 36.5676 194.76 37.0787 194.269 37.6381C193.782 38.1976 193.09 38.8677 192.192 39.6484L190.713 41.0128V41.0913H195.724V43.5H186.572ZM203.129 31.1364V43.5H200.147V33.9254H200.075L197.31 35.6158V33.032L200.359 31.1364H203.129ZM215.746 28.965H221.526V31.175H218.177V39.76H215.746V28.965ZM233.392 32.909L235.959 33.589C235.302 35.6743 234.418 37.4707 233.307 38.978C232.208 40.474 230.865 41.7207 229.278 42.718C227.703 43.7153 225.867 44.5087 223.77 45.098C223.679 44.894 223.543 44.6447 223.362 44.35C223.192 44.0667 223.005 43.7833 222.801 43.5C222.608 43.2053 222.433 42.9617 222.274 42.769C224.28 42.3157 226.014 41.6753 227.476 40.848C228.949 40.0207 230.173 38.9553 231.148 37.652C232.123 36.3487 232.871 34.7677 233.392 32.909ZM227.476 33.062C228.031 34.6713 228.808 36.1163 229.805 37.397C230.802 38.6777 232.038 39.7657 233.511 40.661C234.996 41.545 236.73 42.208 238.713 42.65C238.532 42.8313 238.333 43.0637 238.118 43.347C237.903 43.619 237.699 43.8967 237.506 44.18C237.325 44.4747 237.172 44.7353 237.047 44.962C234.939 44.4067 233.131 43.6247 231.624 42.616C230.117 41.596 228.842 40.3493 227.799 38.876C226.768 37.3913 225.895 35.6857 225.181 33.759L227.476 33.062ZM222.648 31.753H238.339V34.167H222.648V31.753ZM228.853 29.526L231.505 28.744C231.72 29.1407 231.93 29.5827 232.134 30.07C232.349 30.546 232.497 30.9653 232.576 31.328L229.754 32.195C229.697 31.8437 229.578 31.4187 229.397 30.92C229.227 30.41 229.046 29.9453 228.853 29.526ZM241.382 34.864H251.565V37.142H241.382V34.864ZM251.225 34.864H251.599L252.092 34.779L253.843 36.139C253.798 36.1843 253.73 36.2353 253.639 36.292C253.56 36.3487 253.463 36.3997 253.35 36.445C251.933 37.0683 250.721 37.618 249.712 38.094C248.703 38.57 247.865 38.9837 247.196 39.335C246.527 39.675 245.989 39.9697 245.581 40.219C245.184 40.457 244.89 40.661 244.697 40.831C244.504 40.9897 244.374 41.1313 244.306 41.256C244.249 41.3693 244.221 41.477 244.221 41.579C244.221 41.817 244.357 41.987 244.629 42.089C244.901 42.1797 245.281 42.225 245.768 42.225H251.752C252.035 42.225 252.268 42.174 252.449 42.072C252.63 41.9587 252.772 41.732 252.874 41.392C252.987 41.052 253.055 40.525 253.078 39.811C253.429 40.0037 253.803 40.168 254.2 40.304C254.608 40.44 254.999 40.542 255.373 40.61C255.282 41.7093 255.09 42.548 254.795 43.126C254.512 43.704 254.104 44.095 253.571 44.299C253.038 44.5143 252.347 44.622 251.497 44.622H245.938C244.499 44.622 243.428 44.367 242.725 43.857C242.034 43.3583 241.682 42.6783 241.671 41.817C241.671 41.5677 241.699 41.324 241.756 41.086C241.813 40.848 241.937 40.593 242.13 40.321C242.323 40.0377 242.623 39.7317 243.031 39.403C243.45 39.063 244.006 38.6777 244.697 38.247C245.4 37.8163 246.284 37.3233 247.349 36.768C248.414 36.2127 249.706 35.578 251.225 34.864ZM239.733 30.529H255.203V32.892H239.733V30.529ZM243.15 28.965H245.7V34.014H243.15V28.965ZM249.219 28.965H251.769V34.014H249.219V28.965ZM261.646 36.326V36.785H268.106V36.326H261.646ZM261.646 34.405V34.864H268.106V34.405H261.646ZM259.164 32.824H270.707V38.366H259.164V32.824ZM259.912 28.965L262.139 29.645C261.833 30.3023 261.465 30.9483 261.034 31.583C260.603 32.2063 260.133 32.7843 259.623 33.317C259.124 33.8497 258.609 34.3143 258.076 34.711C257.974 34.5523 257.827 34.3597 257.634 34.133C257.441 33.895 257.243 33.6627 257.039 33.436C256.835 33.198 256.654 33.011 256.495 32.875C257.198 32.4217 257.855 31.8493 258.467 31.158C259.079 30.4667 259.561 29.7357 259.912 28.965ZM260.779 30.325H271.812V32.297H259.793L260.779 30.325ZM261.476 37.754L263.567 38.519C263.17 39.0063 262.711 39.4823 262.19 39.947C261.669 40.4117 261.125 40.8423 260.558 41.239C259.991 41.6357 259.442 41.9813 258.909 42.276C258.784 42.1287 258.62 41.9587 258.416 41.766C258.212 41.5733 258.002 41.3807 257.787 41.188C257.572 40.9953 257.379 40.8423 257.209 40.729C258.025 40.389 258.818 39.9583 259.589 39.437C260.371 38.9043 261 38.3433 261.476 37.754ZM261.357 38.859H268.871V40.61H259.606L261.357 38.859ZM268.242 38.859H268.718L269.092 38.757L270.622 39.692C269.999 40.5987 269.217 41.3693 268.276 42.004C267.335 42.6387 266.27 43.1657 265.08 43.585C263.901 44.0043 262.638 44.333 261.289 44.571C259.952 44.809 258.575 44.9903 257.158 45.115C257.09 44.809 256.971 44.4407 256.801 44.01C256.631 43.5907 256.455 43.245 256.274 42.973C257.6 42.905 258.881 42.786 260.116 42.616C261.363 42.446 262.519 42.2137 263.584 41.919C264.649 41.613 265.579 41.2333 266.372 40.78C267.177 40.3153 267.8 39.7713 268.242 39.148V38.859ZM261.595 39.93C262.094 40.4287 262.711 40.8593 263.448 41.222C264.185 41.5733 265.023 41.8623 265.964 42.089C266.916 42.3157 267.947 42.4913 269.058 42.616C270.18 42.7293 271.37 42.7973 272.628 42.82C272.39 43.0693 272.146 43.4037 271.897 43.823C271.648 44.2423 271.455 44.6107 271.319 44.928C270.038 44.8487 268.837 44.7127 267.715 44.52C266.593 44.3273 265.55 44.0553 264.587 43.704C263.624 43.364 262.751 42.9333 261.969 42.412C261.187 41.8793 260.496 41.2503 259.895 40.525L261.595 39.93ZM273.648 36.785H289.271V39.131H273.648V36.785ZM282.59 40.644L284.987 39.454C285.452 39.862 285.967 40.321 286.534 40.831C287.101 41.341 287.65 41.851 288.183 42.361C288.727 42.871 289.175 43.33 289.526 43.738L286.925 45.132C286.63 44.7353 286.234 44.2763 285.735 43.755C285.236 43.2337 284.709 42.701 284.154 42.157C283.599 41.6017 283.077 41.0973 282.59 40.644ZM277.49 39.42L280.278 40.44C279.847 41.0067 279.366 41.579 278.833 42.157C278.3 42.735 277.751 43.279 277.184 43.789C276.617 44.3103 276.056 44.7637 275.501 45.149C275.32 44.9677 275.099 44.7637 274.838 44.537C274.577 44.3217 274.311 44.1063 274.039 43.891C273.778 43.6757 273.54 43.5 273.325 43.364C273.858 43.0353 274.39 42.6443 274.923 42.191C275.467 41.7377 275.96 41.2673 276.402 40.78C276.855 40.2927 277.218 39.8393 277.49 39.42ZM273.529 31.141L275.79 30.206C276.153 30.716 276.498 31.2657 276.827 31.855C277.156 32.433 277.45 33.0053 277.711 33.572C277.983 34.1387 278.193 34.6543 278.34 35.119L275.909 36.207C275.796 35.7423 275.614 35.2153 275.365 34.626C275.116 34.0367 274.832 33.436 274.515 32.824C274.198 32.212 273.869 31.651 273.529 31.141ZM278.595 29.679L280.924 28.88C281.219 29.424 281.496 30.0077 281.757 30.631C282.018 31.243 282.244 31.8493 282.437 32.45C282.641 33.0393 282.794 33.5777 282.896 34.065L280.38 34.966C280.312 34.49 280.187 33.946 280.006 33.334C279.825 32.722 279.609 32.0987 279.36 31.464C279.122 30.818 278.867 30.223 278.595 29.679ZM286.5 29.339L289.424 30.138C289.084 30.9427 288.716 31.736 288.319 32.518C287.922 33.2887 287.526 34.014 287.129 34.694C286.744 35.374 286.375 35.9803 286.024 36.513L283.542 35.697C283.814 35.2777 284.086 34.813 284.358 34.303C284.641 33.793 284.913 33.2547 285.174 32.688C285.435 32.1213 285.678 31.5547 285.905 30.988C286.132 30.4213 286.33 29.8717 286.5 29.339ZM296.156 45.115H290.376V42.905H293.725V34.32H296.156V45.115Z" fill="black"/>
</g>
<path d="M327.361 8.66923C327.634 10.2293 328.022 11.2992 328.687 12.2882C329.134 12.9574 329.629 13.4177 330.213 13.7076C330.869 14.0401 331.419 14.1381 331.636 13.9676C331.696 13.9207 331.79 13.8824 331.85 13.8824C332.046 13.8824 332.063 13.8099 332.037 13.0853C332.016 12.3265 331.939 11.9685 331.692 11.4271C331.108 10.1739 329.893 9.16369 327.839 8.23871C327.549 8.10657 327.297 8.00001 327.28 8.00001C327.263 8.00001 327.297 8.30265 327.361 8.66923Z" fill="black"/>
<path d="M333.827 9.75618C332.749 11.7852 332.404 13.4561 332.796 14.7945C333.064 15.7238 333.844 16.8661 334.203 16.8661C334.403 16.8661 334.855 16.2694 335.187 15.5661C335.477 14.9565 335.562 14.543 335.567 13.7545C335.567 12.902 335.43 12.2498 335.051 11.2737C334.876 10.8176 334.194 9.42796 334.117 9.36402C334.075 9.32992 334.006 9.4237 333.827 9.75618Z" fill="black"/>
<path d="M328.171 13.4859C328.171 13.503 328.256 13.8269 328.363 14.202C329.096 16.7809 330.422 18.5456 331.905 18.9292C332.591 19.104 332.966 19.0997 333.124 18.9164C333.162 18.8696 333.265 18.8184 333.35 18.8014C333.435 18.7886 333.516 18.7459 333.529 18.7118C333.542 18.682 333.529 18.4476 333.504 18.1918C333.359 16.7894 332.821 15.8815 331.615 14.9864C330.797 14.3768 329.966 14.006 328.269 13.4817C328.214 13.4646 328.171 13.4646 328.171 13.4859Z" fill="black"/>
<path d="M336.675 15.6513C335.716 16.8704 335.183 17.8124 334.923 18.763C334.791 19.2361 334.74 20.127 334.816 20.5405C334.927 21.133 335.204 21.815 335.537 22.318C335.682 22.5396 335.69 22.5439 335.852 22.5226C336.091 22.4885 336.312 22.3265 336.619 21.9599C337.208 21.2523 337.544 20.5746 337.728 19.7221C337.847 19.185 337.851 18.1534 337.745 17.4842C337.608 16.6402 337.212 15.1185 337.127 15.1185C337.105 15.1185 336.905 15.3572 336.675 15.6513Z" fill="black"/>
<path d="M331.044 18.8994C331.057 19.0145 331.078 19.381 331.091 19.7221C331.168 21.5635 331.517 22.8039 332.267 23.9036C332.732 24.5814 333.504 25.1909 334.134 25.3742C334.343 25.4382 334.377 25.4382 334.509 25.3742C334.586 25.3359 334.697 25.306 334.752 25.306C334.812 25.306 334.868 25.2719 334.885 25.2293C334.957 25.0375 335.042 24.5174 335.064 24.1125C335.136 22.7101 334.492 21.4186 333.124 20.2208C332.378 19.5686 331.206 18.699 331.078 18.699C331.04 18.699 331.031 18.7544 331.044 18.8994Z" fill="black"/>
<path d="M338.904 21.6573C337.165 22.6974 336.176 23.6309 335.647 24.7306C335.349 25.3615 335.311 25.5533 335.315 26.4357C335.319 27.0452 335.336 27.2669 335.4 27.5226C335.477 27.8253 335.49 27.8423 335.609 27.8551C335.682 27.8636 335.754 27.8892 335.78 27.9105C335.925 28.0512 336.53 27.838 337.058 27.4629C337.779 26.9472 338.495 25.9242 338.861 24.8798C339.109 24.1637 339.309 23.145 339.36 22.3223C339.373 22.1006 339.394 21.798 339.407 21.6488C339.416 21.5039 339.411 21.3845 339.394 21.3845C339.377 21.3845 339.156 21.5081 338.904 21.6573Z" fill="black"/>
<path d="M331.308 23.7758C331.261 23.9165 331.07 24.9395 331.001 25.4126C330.903 26.0946 330.903 27.237 330.997 27.7613C331.185 28.8014 331.615 29.6454 332.327 30.3572C332.821 30.8559 332.983 30.954 333.303 30.954H333.563L333.678 30.7409C333.879 30.3785 334.087 29.6667 334.143 29.1594C334.283 27.8636 333.729 26.4527 332.476 24.931C331.986 24.3385 331.338 23.6906 331.308 23.7758Z" fill="black"/>
<path d="M339.433 27.5013C338.103 27.7144 337.08 28.0043 336.411 28.3495C335.456 28.844 334.757 29.5985 334.36 30.5533C334.22 30.89 334.028 31.7425 334.066 31.8491C334.079 31.8789 334.168 31.9301 334.258 31.9557C334.356 31.9812 334.458 32.0452 334.497 32.1006C334.599 32.2583 334.821 32.3137 335.264 32.2839C336.658 32.1901 337.775 31.3973 338.943 29.6709C339.377 29.023 340.196 27.3862 340.076 27.399C340.059 27.4032 339.769 27.4459 339.433 27.5013Z" fill="black"/>
<path d="M330.247 28.9548C330.2 29.0401 329.876 30.0887 329.778 30.4851C329.539 31.4271 329.514 31.6317 329.518 32.5524C329.518 33.3623 329.527 33.4561 329.633 33.844C329.829 34.5686 330.294 35.3785 330.848 35.9454C331.146 36.2524 331.304 36.3461 331.517 36.3461C331.675 36.3461 331.7 36.3291 331.833 36.1287C332.186 35.5874 332.438 34.8883 332.523 34.2191C332.681 32.9233 332.071 31.2651 330.81 29.59C330.383 29.0188 330.281 28.9037 330.247 28.9548Z" fill="black"/>
<path d="M327.655 32.7315C327.071 33.8142 326.734 34.6922 326.551 35.5831C326.428 36.1671 326.449 37.1262 326.59 37.6249C326.841 38.5115 327.642 39.7136 327.975 39.7136C328.09 39.7136 328.465 39.3001 328.721 38.8824C328.989 38.4561 329.211 37.9318 329.313 37.4885C329.42 37.0196 329.407 35.9028 329.292 35.3657C329.181 34.8755 328.981 34.2362 328.78 33.746C328.614 33.3368 328.12 32.3137 328.035 32.1986C327.983 32.1347 327.941 32.1944 327.655 32.7315Z" fill="black"/>
<path d="M337.804 32.1987C337.246 32.2328 336.432 32.3436 336.044 32.4416C334.629 32.8039 333.525 33.682 332.988 34.8756C332.885 35.1057 332.647 35.792 332.647 35.8602C332.647 35.8687 332.749 35.9242 332.873 35.9796C332.992 36.035 333.137 36.1373 333.188 36.2055C333.32 36.393 333.597 36.4484 334.219 36.4186C335.315 36.3675 336.231 35.9156 337.212 34.9438C337.783 34.3726 338.273 33.7375 338.742 32.9489C338.964 32.5823 339.164 32.2541 339.181 32.2242C339.207 32.1816 339.096 32.1688 338.627 32.1773C338.303 32.1816 337.932 32.1901 337.804 32.1987Z" fill="black"/>
<path d="M324.825 35.7153C323.231 37.2583 322.502 38.4945 322.391 39.8329C322.34 40.451 322.523 41.3419 322.834 41.9727L322.992 42.2924H323.248C323.469 42.2924 323.533 42.2711 323.717 42.1432C324.411 41.6658 325.123 40.6513 325.413 39.7349C325.648 38.9804 325.677 38.7502 325.677 37.5823C325.677 36.653 325.66 36.4015 325.575 35.8559C325.52 35.5021 325.46 35.1995 325.443 35.1824C325.426 35.1611 325.145 35.3998 324.825 35.7153Z" fill="black"/>
<path d="M332.979 36.6701C331.764 36.8576 331.082 37.156 330.417 37.7911C330.068 38.1236 329.825 38.4348 329.561 38.8866C329.288 39.3598 329.288 39.3512 329.578 39.5345C329.718 39.6198 329.846 39.7263 329.859 39.7647C329.965 40.1014 331.006 40.3401 331.858 40.2293C332.331 40.1654 333.035 39.9352 333.457 39.705C334.288 39.2532 335.324 38.4135 335.643 37.9403C335.75 37.7783 335.976 37.497 336.142 37.3095C336.308 37.1262 336.436 36.9685 336.428 36.9599C336.419 36.9514 336.142 36.896 335.818 36.8363C334.433 36.5933 333.721 36.5507 332.979 36.6701Z" fill="black"/>
<path d="M321.244 39.0273C318.968 39.5516 317.625 40.2635 316.875 41.3547C316.513 41.8832 316.214 42.7613 316.163 43.4476L316.138 43.7929L316.287 43.8227C316.372 43.8355 316.5 43.908 316.577 43.9804L316.713 44.1168L317.148 44.0955C317.868 44.0614 318.559 43.7801 319.228 43.2515C319.812 42.7912 320.596 41.7596 321.108 40.7792C321.325 40.37 321.777 39.2788 321.845 39.0145C321.879 38.8781 321.896 38.8781 321.244 39.0273Z" fill="black"/>
<path d="M328.107 40.272C327.378 40.3743 326.551 40.7707 325.976 41.3035C325.656 41.5934 325.23 42.0963 325.23 42.1773C325.23 42.2029 325.345 42.3223 325.485 42.4459C325.626 42.5695 325.754 42.7144 325.767 42.7698C325.818 42.9659 326.274 43.2259 326.879 43.405C327.919 43.7076 329.134 43.5158 330.481 42.8338C331.257 42.4416 331.628 42.1944 331.777 41.9685C331.845 41.8662 332.071 41.6488 332.276 41.4825C332.527 41.2822 332.63 41.1756 332.591 41.1543C332.561 41.1373 332.229 41.0094 331.854 40.8687C331.078 40.5831 330.494 40.4126 329.965 40.3274C329.484 40.2507 328.482 40.2208 328.107 40.272Z" fill="black"/>
<path d="M322.57 42.8934C322.182 42.9787 321.786 43.1321 321.394 43.341C321.014 43.5456 320.588 43.8525 320.584 43.9165C320.584 43.942 320.694 44.1168 320.831 44.3086C320.963 44.5004 321.121 44.7349 321.18 44.8329C321.372 45.1483 322.012 45.6215 322.536 45.8346C323.529 46.2353 324.71 46.2481 326.189 45.8772C326.871 45.7025 327.063 45.6172 327.144 45.451C327.182 45.3657 327.28 45.2975 327.485 45.208C327.638 45.1398 327.821 45.0588 327.89 45.029L328.013 44.9736L327.561 44.6454C326.227 43.6735 325.409 43.2387 324.377 42.9702C323.849 42.8295 323.005 42.7954 322.57 42.8934Z" fill="black"/>
<path d="M317.195 44.688C317.033 44.7221 316.752 44.8073 316.577 44.8755C316.261 44.9949 315.622 45.3359 315.524 45.4382C315.447 45.5149 316.074 46.5209 316.406 46.8619C316.879 47.3478 317.472 47.6846 318.218 47.8849C318.619 47.9915 318.7 48 319.582 48C320.375 48 320.601 47.9872 321.052 47.902C321.671 47.7911 321.948 47.6846 321.948 47.5652C321.948 47.4714 322.093 47.3905 322.48 47.2754C322.621 47.2327 322.749 47.1858 322.77 47.1731C322.804 47.1432 321.922 46.3717 321.402 45.9795C320.464 45.2805 319.561 44.8457 318.708 44.6837C318.273 44.5985 317.591 44.6027 317.195 44.688Z" fill="black"/>
<defs>
<filter id="filter0_d_17_1792" x="88.9176" y="3.9" width="224.2" height="48.2" filterUnits="userSpaceOnUse" color-interpolation-filters="sRGB">
<feFlood flood-opacity="0" result="BackgroundImageFix"/>
<feColorMatrix in="SourceAlpha" type="matrix" values="0 0 0 0 0 0 0 0 0 0 0 0 0 0 0 0 0 0 127 0" result="hardAlpha"/>
<feOffset/>
<feGaussianBlur stdDeviation="2.8"/>
<feComposite in2="hardAlpha" operator="out"/>
<feColorMatrix type="matrix" values="0 0 0 0 0 0 0 0 0 0 0 0 0 0 0 0 0 0 0.25 0"/>
<feBlend mode="normal" in2="BackgroundImageFix" result="effect1_dropShadow_17_1792"/>
<feBlend mode="normal" in="SourceGraphic" in2="effect1_dropShadow_17_1792" result="shape"/>
</filter>
<linearGradient id="paint0_linear_17_1792" x1="177" y1="0" x2="177" y2="56" gradientUnits="userSpaceOnUse">
<stop stop-color="#73E280"/>
<stop offset="1" stop-color="#11A304"/>
</linearGradient>
</defs>
</svg>
