<svg width="357" height="56" viewBox="0 0 357 56" fill="none" xmlns="http://www.w3.org/2000/svg">
<rect width="357" height="56" rx="8" fill="url(#paint0_linear_17_678)"/>
<rect x="1.05" y="1.05" width="354.9" height="53.9" rx="6.95" stroke="white" stroke-opacity="0.15" stroke-width="2.1"/>
<path d="M25.7829 8.18349C23.7281 9.10429 22.4706 10.1061 21.8695 11.2997C21.5881 11.8624 21.4304 12.5829 21.4389 13.2521C21.4475 13.768 21.473 13.8532 21.6265 13.8703C21.6947 13.8788 21.797 13.9214 21.8524 13.9683C22.0656 14.1346 22.624 14.0323 23.272 13.704C24.4443 13.1157 25.3992 11.6962 25.9065 9.78636C26.0045 9.41548 26.2518 8.14939 26.2518 8.01297C26.2518 7.97887 26.1836 8.00445 25.7829 8.18349Z" fill="white"/>
<path d="M19.137 9.79914C17.7302 12.4379 17.5512 14.3477 18.5615 16.0529C18.8087 16.4707 19.0986 16.8117 19.2435 16.8458C19.4013 16.8884 19.6187 16.7222 19.9128 16.3257C21.2258 14.5779 21.196 12.8045 19.802 10.008C19.6144 9.62862 19.4439 9.31743 19.4269 9.31743C19.4098 9.31743 19.2777 9.53484 19.137 9.79914Z" fill="white"/>
<path d="M24.7683 13.623C23.9072 13.9 23.4468 14.0876 22.8841 14.3775C21.7203 14.9786 20.8592 15.7587 20.4329 16.607C20.1558 17.1569 19.9853 17.8816 19.9853 18.504V18.7726L20.1388 18.7982C20.2198 18.8152 20.3221 18.8664 20.3604 18.9133C20.4883 19.0582 20.7143 19.0923 21.1363 19.0198C21.9377 18.8792 22.4706 18.6063 23.0674 18.0266C23.9839 17.1399 24.6617 15.8738 25.1477 14.1686C25.2415 13.8318 25.3268 13.5334 25.3353 13.5036C25.3609 13.4354 25.3651 13.4311 24.7683 13.623Z" fill="white"/>
<path d="M16.1571 15.7417C15.4154 18.3548 15.5219 20.0344 16.5195 21.4966C16.9756 22.1702 17.3891 22.5325 17.696 22.5325C17.7941 22.5325 17.8452 22.4814 18.0115 22.2213C18.1223 22.0551 18.2886 21.7439 18.3781 21.535C19.1497 19.7488 18.6808 17.9712 16.8307 15.6479C16.5962 15.3537 16.3873 15.115 16.3703 15.115C16.3489 15.115 16.2509 15.3964 16.1571 15.7417Z" fill="white"/>
<path d="M21.9249 19.0028C20.7696 19.8298 19.7934 20.7123 19.3117 21.3602C19.0304 21.7396 18.6893 22.4174 18.5785 22.8309C18.3994 23.496 18.3952 24.2718 18.5572 25.0008C18.6211 25.2736 18.6382 25.3035 18.7277 25.3035C18.7874 25.3035 18.8982 25.3333 18.9749 25.3717C19.1071 25.4356 19.1412 25.4356 19.3501 25.3717C19.9554 25.1926 20.7185 24.6086 21.1874 23.9521C22.0698 22.7286 22.3768 21.4668 22.4578 18.7257C22.4578 18.649 22.3214 18.7215 21.9249 19.0028Z" fill="white"/>
<path d="M14.1195 21.9656C14.1919 23.351 14.452 24.5575 14.8868 25.4953C15.2321 26.2371 15.8843 27.0683 16.4257 27.4563C16.9543 27.8357 17.6065 28.0616 17.7046 27.9039C17.7174 27.8783 17.7856 27.8612 17.8538 27.8612C18.0073 27.8612 18.0371 27.8101 18.1352 27.3497C18.2503 26.8168 18.2375 25.8704 18.1138 25.41C17.8026 24.2548 16.8946 23.1677 15.3983 22.1574C15.0786 21.9443 14.1493 21.3816 14.1152 21.3816C14.1024 21.3816 14.1024 21.6459 14.1195 21.9656Z" fill="white"/>
<path d="M21.7928 24.0757C21.0212 24.8686 20.5309 25.5081 19.9938 26.4118C19.6485 26.9958 19.3927 27.8527 19.3586 28.5518C19.3202 29.3149 19.4652 30.0225 19.802 30.6918L19.9469 30.9817L20.1984 30.9646C20.386 30.9518 20.4926 30.9135 20.629 30.8197C21.3494 30.3252 22.0613 29.3319 22.3427 28.4324C22.6752 27.3752 22.6624 25.9898 22.3 24.2675C22.2404 23.9691 22.1764 23.7262 22.1636 23.7262C22.1466 23.7262 21.9803 23.8839 21.7928 24.0757Z" fill="white"/>
<path d="M13.4331 27.4946C13.4757 27.6822 14.0598 28.8886 14.2942 29.2723C15.4751 31.2162 16.7369 32.1839 18.2204 32.2819C18.6595 32.3117 18.8854 32.2563 18.9877 32.1029C19.0218 32.0474 19.1327 31.9835 19.2478 31.9537L19.4439 31.8982L19.414 31.6126C19.3544 30.9433 18.992 30.0822 18.5359 29.5067C17.6705 28.4239 16.3746 27.8527 13.9404 27.4818L13.4118 27.4051L13.4331 27.4946Z" fill="white"/>
<path d="M22.8798 29.3447C20.9743 31.7874 20.5054 33.8336 21.4219 35.6965C21.5072 35.867 21.6308 36.0844 21.6947 36.174C21.8013 36.3189 21.8439 36.3445 21.9718 36.3445C22.1892 36.3445 22.3171 36.2635 22.6795 35.8841C24.018 34.4816 24.342 32.7849 23.7154 30.4232C23.5534 29.8264 23.2678 28.927 23.2337 28.927C23.2166 28.927 23.0589 29.1145 22.8798 29.3447Z" fill="white"/>
<path d="M25.169 32.7721C23.9754 35.1977 23.7878 36.8987 24.5467 38.4546C24.9218 39.2305 25.3609 39.7548 25.5825 39.6951C25.7147 39.661 25.9961 39.3712 26.2263 39.0344C27.2877 37.4486 27.3218 35.9608 26.3499 33.7441C26.141 33.2666 25.5442 32.1242 25.5058 32.1242C25.4973 32.1242 25.3481 32.4183 25.169 32.7721Z" fill="white"/>
<path d="M14.3156 32.1796C14.3156 32.1924 14.4264 32.3927 14.5671 32.6229C14.7035 32.8531 14.8953 33.1814 14.9934 33.3519C15.3983 34.051 16.4087 35.1679 17.0438 35.6155C17.7856 36.1399 18.4677 36.3829 19.2819 36.417C19.9 36.4425 20.1174 36.3956 20.305 36.1953C20.3732 36.1143 20.5267 36.012 20.6375 35.9651C20.7483 35.9182 20.8379 35.85 20.8379 35.8201C20.8379 35.6965 20.6119 35.0784 20.4542 34.7587C20.0492 33.9444 19.5632 33.4286 18.7831 32.981C18.0712 32.5718 17.4701 32.3842 16.511 32.2734C15.9397 32.2052 14.3156 32.1327 14.3156 32.1796Z" fill="white"/>
<path d="M28.0252 35.266C27.8845 35.9651 27.8163 36.6898 27.8121 37.5595C27.8078 38.7829 27.9314 39.4693 28.3023 40.2963C28.6007 40.9655 29.2657 41.8011 29.7688 42.1421C29.9393 42.2615 30.0331 42.2913 30.2462 42.3041L30.5105 42.3212L30.6128 42.1165C31.1031 41.1446 31.2395 39.9424 30.9624 39.0089C30.7492 38.2884 30.3869 37.6404 29.7602 36.8561C29.4831 36.5065 28.1446 35.1509 28.0806 35.1509C28.0636 35.1509 28.038 35.202 28.0252 35.266Z" fill="white"/>
<path d="M18.6211 36.6855C18.327 36.7282 17.8623 36.8006 17.581 36.8518C17.3039 36.8987 17.0694 36.9413 17.0566 36.9413C17.0481 36.9413 17.1973 37.1204 17.3891 37.3378C17.581 37.5552 17.7898 37.828 17.8538 37.9474C17.9263 38.0795 18.1266 38.2969 18.3909 38.5314C20.0407 39.9936 21.5711 40.5179 23.0333 40.13C23.3445 40.049 23.3956 40.0192 23.6088 39.8018C23.7367 39.6696 23.9157 39.5247 24.0052 39.4778C24.2013 39.3755 24.1971 39.3328 23.9455 38.8852C23.3359 37.8067 22.4237 37.0948 21.3068 36.822C20.3775 36.5918 19.559 36.5534 18.6211 36.6855Z" fill="white"/>
<path d="M31.6231 38.9193C31.6231 39.0216 32.2029 40.4071 32.4118 40.8078C33.5031 42.9052 34.8416 44.0221 36.3379 44.0945L36.7685 44.1116L36.9006 43.9837C36.9774 43.9112 37.1053 43.8387 37.1863 43.8217C37.2673 43.8089 37.3482 43.7791 37.3568 43.7577C37.3696 43.7407 37.3568 43.5446 37.3312 43.3272C37.2417 42.5812 36.9688 41.8437 36.5937 41.3151C36.3592 40.9826 35.8178 40.4668 35.4598 40.2323C34.7649 39.7719 33.712 39.3669 32.4331 39.0685C31.7084 38.9022 31.6231 38.8852 31.6231 38.9193Z" fill="white"/>
<path d="M23.9626 40.2664C23.451 40.3218 22.9779 40.4241 22.3938 40.6117C21.7416 40.8206 20.9061 41.1446 20.8933 41.1915C20.889 41.2085 21.051 41.3492 21.2514 41.4984C21.4773 41.6689 21.6393 41.8266 21.6691 41.9034C21.7416 42.0782 21.8567 42.1762 22.2702 42.432C23.5065 43.1951 24.7385 43.5872 25.7616 43.5361C26.5673 43.4935 27.4667 43.1609 27.6799 42.8242C27.7353 42.7389 27.8973 42.5599 28.0465 42.4277L28.3151 42.1933L28.136 41.9588C27.5307 41.1574 26.6653 40.5691 25.7786 40.3517C25.3608 40.2494 24.4955 40.211 23.9626 40.2664Z" fill="white"/>
<path d="M29.3851 42.9051C28.524 43.0885 27.6586 43.4721 26.7506 44.0775C25.7701 44.7339 25.4078 45.0409 25.6166 45.0409C25.6422 45.0409 25.7999 45.1048 25.9747 45.1858C26.2007 45.2881 26.303 45.3649 26.3413 45.4501C26.4223 45.6164 26.6142 45.7016 27.2962 45.8764C28.7542 46.243 29.8838 46.2345 30.9027 45.8551C31.4313 45.6547 32.0793 45.1773 32.3308 44.7979C32.4203 44.6657 32.5951 44.4142 32.7187 44.2352C32.9873 43.8643 33.0001 43.9069 32.497 43.5702C32.0963 43.3016 31.6785 43.1098 31.2181 42.9691C30.6981 42.8156 29.9478 42.79 29.3851 42.9051Z" fill="white"/>
<path d="M34.6285 44.7169C34.0232 44.8619 33.567 45.0537 32.8423 45.4757C32.2711 45.8082 30.6767 47.0957 30.7492 47.1681C30.7663 47.1809 30.9453 47.2491 31.1457 47.3216C31.4569 47.4282 31.5208 47.4665 31.5293 47.5475C31.5507 47.6925 31.7979 47.7863 32.4331 47.9056C32.885 47.9866 33.1066 48.0037 33.9038 47.9994C34.7862 47.9994 34.8672 47.9909 35.2679 47.8843C36.372 47.5859 37.0456 47.0743 37.6765 46.064C37.8641 45.7613 38.0175 45.497 38.0175 45.48C38.0175 45.3862 37.1181 44.9301 36.6108 44.7638C36.3038 44.6615 36.1589 44.6445 35.6516 44.6317C35.1358 44.6189 34.9951 44.6274 34.6285 44.7169Z" fill="white"/>
<path d="M57.9445 20.8078C58.2163 20.6289 58.488 20.45 58.7135 20.2554C58.9389 20.0609 59.1182 19.8505 59.2237 19.6472C59.3292 19.4438 59.361 19.2472 59.3427 19.036C59.3244 18.8248 59.2557 18.5989 59.1628 18.3235C59.0699 18.0482 58.9526 17.7235 58.9011 17.4208C58.8496 17.1181 58.864 16.8376 58.8997 16.6295C58.9354 16.4215 58.9924 16.2861 59.042 16.1537C59.0916 16.0212 59.1337 15.8917 59.2363 15.6903C59.3389 15.4889 59.5019 15.2158 59.6651 14.9425" stroke="white" stroke-width="1.5" stroke-linecap="round"/>
<path d="M70.1403 20.5057C70.4121 20.3268 70.6838 20.1479 70.9093 19.9534C71.1347 19.7588 71.314 19.5484 71.4195 19.3451C71.525 19.1417 71.5568 18.9452 71.5385 18.734C71.5202 18.5228 71.4515 18.2968 71.3586 18.0215C71.2657 17.7461 71.1484 17.4214 71.0969 17.1187C71.0454 16.8161 71.0598 16.5355 71.0955 16.3275C71.1312 16.1194 71.1882 15.984 71.2378 15.8516C71.2874 15.7192 71.3295 15.5897 71.4321 15.3883C71.5347 15.1869 71.6977 14.9137 71.8609 14.6404" stroke="white" stroke-width="1.5" stroke-linecap="round"/>
<path d="M64.3069 19.2935C64.5788 19.1146 64.8505 18.9357 65.076 18.7412C65.3014 18.5466 65.4807 18.3362 65.5862 18.1329C65.6917 17.9295 65.7235 17.7329 65.7052 17.5217C65.6868 17.3105 65.6182 17.0846 65.5253 16.8092C65.4324 16.5339 65.3151 16.2092 65.2636 15.9065C65.2121 15.6038 65.2265 15.3233 65.2622 15.1153C65.2979 14.9072 65.3549 14.7718 65.4045 14.6394C65.4541 14.507 65.4962 14.3775 65.5987 14.1761C65.7013 13.9747 65.8644 13.7015 66.0276 13.4282" stroke="white" stroke-width="1.5" stroke-linecap="round"/>
<path d="M81.891 39.4322C81.565 39.4339 60.6823 39.5444 55.2794 39.5233C49.8766 39.5021 49.8386 39.4024 49.8386 39.5544C49.8385 39.7063 49.8765 40.11 50.0257 40.497C50.1749 40.8841 50.4351 41.2545 50.7695 41.5847C51.1039 41.9149 51.4979 42.1947 51.7907 42.3561C52.0835 42.5174 52.2678 42.5554 56.8492 42.5696C61.4307 42.5838 70.4088 42.5743 74.9413 42.5505C79.4738 42.5267 79.5605 42.4888 79.8153 42.3748C80.0701 42.2608 80.493 42.0708 80.8941 41.7432C81.2952 41.4156 81.6748 40.9502 81.8862 40.5941C82.0976 40.2381 82.1283 40.0635 82.1633 39.8364C82.1984 39.6092 82.2061 39.535 82.2169 39.4305C82.2169 39.4305 82.2169 39.4305 81.891 39.4322Z" stroke="white" stroke-width="1.4" stroke-linecap="round" stroke-linejoin="round"/>
<path d="M77.6901 26.7325C77.6031 26.1197 77.5161 25.5066 77.3383 25.1405C77.1605 24.7745 76.8915 24.6558 76.7099 24.5962C76.5282 24.5365 76.4339 24.536 72.5881 24.5526C68.7423 24.5692 61.1453 24.6027 57.3172 24.6201C53.489 24.6375 53.43 24.6386 53.3589 24.6451C53.2878 24.6516 53.2047 24.6635 53.0879 24.7248C52.9711 24.7861 52.8207 24.8969 52.6973 25.0628C52.5739 25.2288 52.4804 25.443 52.432 25.978C52.3836 26.5129 52.3817 27.365 52.3976 27.9869C52.4134 28.6088 52.447 29.0004 52.5746 29.651C52.7021 30.3016 52.9237 31.2112 53.2283 32.1209C53.5329 33.0307 53.9206 33.9405 54.5754 34.9143C55.2302 35.888 56.1519 36.9258 57.0123 37.6958C57.8728 38.4658 58.6718 38.9682 59.0872 39.2192C59.5025 39.4703 59.5341 39.4703 61.402 39.4643C63.2698 39.4584 66.9738 39.4465 68.8415 39.4346C70.7092 39.4227 70.7409 39.4108 71.1422 39.1254C71.5435 38.8399 72.3145 38.2808 73.0442 37.665C73.7739 37.0493 74.4622 36.3768 75.0911 35.5303C75.72 34.6838 76.2897 33.6632 76.7021 32.7063C77.1146 31.7493 77.3657 30.8705 77.5041 29.8895C77.6425 28.9085 77.6664 27.8167 77.702 27.2509C77.7376 26.685 77.7851 26.6375 78.0424 26.627C78.2997 26.6164 78.7665 26.6428 79.2294 26.7154C79.6923 26.788 80.1511 26.9066 80.4992 27.1164C80.8472 27.3263 81.0846 27.6269 81.2822 27.909C81.4797 28.191 81.6376 28.4545 81.7528 28.8435C81.868 29.2326 81.9407 29.7472 81.9574 30.2591C81.9742 30.7709 81.935 31.28 81.8231 31.7331C81.7112 32.1861 81.5266 32.5833 81.2385 32.9944C80.9504 33.4056 80.5588 33.8307 80.1225 34.2083C79.6862 34.5859 79.2051 34.916 78.6373 35.2209C78.0695 35.5257 77.415 35.8055 76.7129 35.9957C76.0109 36.1859 75.2613 36.2866 74.5113 36.3874" stroke="white" stroke-width="1.4" stroke-linecap="round"/>
<g filter="url(#filter0_d_17_678)">
<path d="M97.5744 24.5L94.3471 12.8636H96.1937L98.4608 21.875H98.5687L100.927 12.8636H102.756L105.114 21.8807H105.222L107.483 12.8636H109.336L106.103 24.5H104.336L101.887 15.7841H101.796L99.3471 24.5H97.5744ZM110.8 24.5V15.7727H112.499V24.5H110.8ZM111.658 14.4261C111.363 14.4261 111.109 14.3276 110.897 14.1307C110.689 13.9299 110.584 13.6913 110.584 13.4148C110.584 13.1345 110.689 12.8958 110.897 12.6989C111.109 12.4981 111.363 12.3977 111.658 12.3977C111.954 12.3977 112.206 12.4981 112.414 12.6989C112.626 12.8958 112.732 13.1345 112.732 13.4148C112.732 13.6913 112.626 13.9299 112.414 14.1307C112.206 14.3276 111.954 14.4261 111.658 14.4261ZM116.483 19.3182V24.5H114.785V15.7727H116.415V17.1932H116.523C116.724 16.7311 117.038 16.3598 117.466 16.0795C117.898 15.7992 118.442 15.6591 119.097 15.6591C119.692 15.6591 120.213 15.7841 120.66 16.0341C121.107 16.2803 121.453 16.6477 121.699 17.1364C121.946 17.625 122.069 18.2292 122.069 18.9489V24.5H120.37V19.1534C120.37 18.5208 120.205 18.0265 119.876 17.6705C119.546 17.3106 119.093 17.1307 118.518 17.1307C118.124 17.1307 117.773 17.2159 117.466 17.3864C117.163 17.5568 116.923 17.8068 116.745 18.1364C116.571 18.4621 116.483 18.8561 116.483 19.3182ZM126.046 19.3182V24.5H124.347V15.7727H125.978V17.1932H126.086C126.287 16.7311 126.601 16.3598 127.029 16.0795C127.461 15.7992 128.004 15.6591 128.66 15.6591C129.254 15.6591 129.775 15.7841 130.222 16.0341C130.669 16.2803 131.016 16.6477 131.262 17.1364C131.508 17.625 131.631 18.2292 131.631 18.9489V24.5H129.932V19.1534C129.932 18.5208 129.768 18.0265 129.438 17.6705C129.108 17.3106 128.656 17.1307 128.08 17.1307C127.686 17.1307 127.336 17.2159 127.029 17.3864C126.726 17.5568 126.485 17.8068 126.307 18.1364C126.133 18.4621 126.046 18.8561 126.046 19.3182ZM137.671 24.6761C136.811 24.6761 136.071 24.4924 135.449 24.125C134.832 23.7538 134.355 23.233 134.018 22.5625C133.684 21.8883 133.518 21.0985 133.518 20.1932C133.518 19.2992 133.684 18.5114 134.018 17.8295C134.355 17.1477 134.824 16.6155 135.427 16.233C136.033 15.8504 136.741 15.6591 137.552 15.6591C138.044 15.6591 138.521 15.7405 138.983 15.9034C139.446 16.0663 139.86 16.322 140.228 16.6705C140.595 17.0189 140.885 17.4716 141.097 18.0284C141.309 18.5814 141.415 19.2538 141.415 20.0455V20.6477H134.478V19.375H139.751C139.751 18.928 139.66 18.5322 139.478 18.1875C139.296 17.839 139.04 17.5644 138.711 17.3636C138.385 17.1629 138.002 17.0625 137.563 17.0625C137.086 17.0625 136.669 17.1799 136.313 17.4148C135.961 17.6458 135.688 17.9489 135.495 18.3239C135.305 18.6951 135.211 19.0985 135.211 19.5341V20.5284C135.211 21.1117 135.313 21.608 135.518 22.017C135.726 22.4261 136.016 22.7386 136.387 22.9545C136.758 23.1667 137.192 23.2727 137.688 23.2727C138.01 23.2727 138.304 23.2273 138.569 23.1364C138.834 23.0417 139.063 22.9015 139.256 22.7159C139.449 22.5303 139.597 22.3011 139.699 22.0284L141.307 22.3182C141.179 22.7917 140.947 23.2064 140.614 23.5625C140.285 23.9148 139.87 24.1894 139.37 24.3864C138.874 24.5795 138.307 24.6761 137.671 24.6761ZM143.3 24.5V15.7727H144.942V17.1591H145.033C145.192 16.6894 145.473 16.3201 145.874 16.0511C146.279 15.7784 146.738 15.642 147.249 15.642C147.355 15.642 147.48 15.6458 147.624 15.6534C147.772 15.661 147.887 15.6705 147.971 15.6818V17.3068C147.903 17.2879 147.781 17.267 147.607 17.2443C147.433 17.2178 147.259 17.2045 147.084 17.2045C146.683 17.2045 146.325 17.2898 146.01 17.4602C145.7 17.6269 145.454 17.8598 145.272 18.1591C145.09 18.4545 144.999 18.7917 144.999 19.1705V24.5H143.3ZM157.351 24.6761C156.533 24.6761 155.819 24.4886 155.209 24.1136C154.599 23.7386 154.126 23.214 153.789 22.5398C153.452 21.8655 153.283 21.0776 153.283 20.1761C153.283 19.2708 153.452 18.4792 153.789 17.8011C154.126 17.1231 154.599 16.5966 155.209 16.2216C155.819 15.8466 156.533 15.6591 157.351 15.6591C158.17 15.6591 158.884 15.8466 159.493 16.2216C160.103 16.5966 160.577 17.1231 160.914 17.8011C161.251 18.4792 161.42 19.2708 161.42 20.1761C161.42 21.0776 161.251 21.8655 160.914 22.5398C160.577 23.214 160.103 23.7386 159.493 24.1136C158.884 24.4886 158.17 24.6761 157.351 24.6761ZM157.357 23.25C157.887 23.25 158.327 23.1098 158.675 22.8295C159.024 22.5492 159.281 22.1761 159.448 21.7102C159.618 21.2443 159.704 20.7311 159.704 20.1705C159.704 19.6136 159.618 19.1023 159.448 18.6364C159.281 18.1667 159.024 17.7898 158.675 17.5057C158.327 17.2216 157.887 17.0795 157.357 17.0795C156.823 17.0795 156.38 17.2216 156.028 17.5057C155.679 17.7898 155.42 18.1667 155.249 18.6364C155.082 19.1023 154.999 19.6136 154.999 20.1705C154.999 20.7311 155.082 21.2443 155.249 21.7102C155.42 22.1761 155.679 22.5492 156.028 22.8295C156.38 23.1098 156.823 23.25 157.357 23.25ZM167.469 15.7727V17.1364H162.537V15.7727H167.469ZM163.89 24.5V14.7614C163.89 14.2159 164.009 13.7633 164.248 13.4034C164.486 13.0398 164.803 12.7689 165.197 12.5909C165.59 12.4091 166.019 12.3182 166.481 12.3182C166.822 12.3182 167.113 12.3466 167.356 12.4034C167.598 12.4564 167.778 12.5057 167.895 12.5511L167.498 13.9261C167.418 13.9034 167.316 13.8769 167.191 13.8466C167.066 13.8125 166.914 13.7955 166.736 13.7955C166.323 13.7955 166.028 13.8977 165.85 14.1023C165.676 14.3068 165.589 14.6023 165.589 14.9886V24.5H163.89Z" fill="white"/>
<path d="M94.5488 33.5632V31.1364H104.999V33.5632H101.25V43.5H98.3038V33.5632H94.5488ZM109.448 43.6751C108.478 43.6751 107.641 43.4839 106.937 43.1016C106.236 42.7152 105.697 42.1658 105.319 41.4535C104.944 40.7371 104.757 39.8859 104.757 38.8999C104.757 37.942 104.946 37.1049 105.325 36.3885C105.703 35.6681 106.236 35.1087 106.925 34.7102C107.613 34.3078 108.424 34.1065 109.357 34.1065C110.017 34.1065 110.621 34.2092 111.168 34.4144C111.716 34.6197 112.189 34.9235 112.587 35.326C112.986 35.7285 113.296 36.2255 113.517 36.8171C113.738 37.4047 113.849 38.0788 113.849 38.8395V39.576H105.79V37.8615H111.102C111.098 37.5476 111.024 37.2679 110.879 37.0224C110.734 36.7769 110.535 36.5857 110.281 36.4489C110.032 36.308 109.744 36.2376 109.418 36.2376C109.088 36.2376 108.792 36.312 108.53 36.4609C108.269 36.6058 108.061 36.805 107.909 37.0586C107.756 37.3081 107.675 37.5919 107.667 37.9098V39.6545C107.667 40.0328 107.742 40.3648 107.89 40.6506C108.039 40.9323 108.251 41.1516 108.524 41.3086C108.798 41.4656 109.124 41.544 109.502 41.544C109.764 41.544 110.001 41.5078 110.215 41.4354C110.428 41.3629 110.611 41.2563 110.764 41.1154C110.917 40.9745 111.032 40.8015 111.108 40.5962L113.819 40.6747C113.706 41.2824 113.459 41.8117 113.076 42.2624C112.698 42.7092 112.201 43.0573 111.585 43.3068C110.969 43.5523 110.257 43.6751 109.448 43.6751ZM117.971 43.657C117.379 43.657 116.854 43.5584 116.395 43.3611C115.94 43.1599 115.58 42.8581 115.314 42.4556C115.053 42.0491 114.922 41.54 114.922 40.9283C114.922 40.4131 115.013 39.9785 115.194 39.6243C115.375 39.2701 115.624 38.9824 115.942 38.761C116.26 38.5397 116.626 38.3726 117.041 38.2599C117.455 38.1432 117.898 38.0647 118.369 38.0245C118.896 37.9762 119.321 37.9259 119.643 37.8736C119.965 37.8172 120.198 37.7388 120.343 37.6381C120.492 37.5335 120.566 37.3866 120.566 37.1974V37.1673C120.566 36.8574 120.46 36.6179 120.247 36.4489C120.033 36.2798 119.745 36.1953 119.383 36.1953C118.993 36.1953 118.679 36.2798 118.441 36.4489C118.204 36.6179 118.053 36.8513 117.989 37.1491L115.266 37.0526C115.347 36.4891 115.554 35.986 115.888 35.5433C116.226 35.0966 116.689 34.7464 117.276 34.4929C117.868 34.2353 118.578 34.1065 119.407 34.1065C119.999 34.1065 120.544 34.177 121.043 34.3178C121.542 34.4547 121.977 34.6559 122.347 34.9215C122.718 35.1831 123.003 35.5051 123.205 35.8874C123.41 36.2698 123.513 36.7064 123.513 37.1974V43.5H120.736V42.2081H120.663C120.498 42.522 120.287 42.7876 120.029 43.005C119.776 43.2223 119.476 43.3853 119.13 43.494C118.788 43.6026 118.401 43.657 117.971 43.657ZM118.882 41.7251C119.2 41.7251 119.486 41.6607 119.739 41.532C119.997 41.4032 120.202 41.2261 120.355 41.0007C120.508 40.7713 120.585 40.5057 120.585 40.2038V39.3224C120.5 39.3667 120.397 39.407 120.277 39.4432C120.16 39.4794 120.031 39.5136 119.89 39.5458C119.749 39.578 119.605 39.6062 119.456 39.6303C119.307 39.6545 119.164 39.6766 119.027 39.6967C118.749 39.741 118.512 39.8094 118.315 39.902C118.122 39.9946 117.973 40.1153 117.868 40.2642C117.767 40.4091 117.717 40.5821 117.717 40.7834C117.717 41.0892 117.826 41.3227 118.043 41.4837C118.264 41.6446 118.544 41.7251 118.882 41.7251ZM136.54 35.6158H133.522C133.481 35.3059 133.399 35.0262 133.274 34.7766C133.149 34.5271 132.984 34.3138 132.779 34.1367C132.574 33.9596 132.33 33.8248 132.049 33.7322C131.771 33.6357 131.463 33.5874 131.125 33.5874C130.525 33.5874 130.008 33.7343 129.574 34.0281C129.143 34.3218 128.811 34.7464 128.577 35.3018C128.348 35.8572 128.233 36.5294 128.233 37.3182C128.233 38.1392 128.35 38.8274 128.584 39.3828C128.821 39.9342 129.153 40.3507 129.58 40.6325C130.01 40.9102 130.519 41.049 131.107 41.049C131.437 41.049 131.737 41.0067 132.006 40.9222C132.28 40.8377 132.52 40.715 132.725 40.554C132.934 40.389 133.105 40.1897 133.238 39.9563C133.375 39.7189 133.469 39.4512 133.522 39.1534L136.54 39.1715C136.488 39.7189 136.329 40.2582 136.063 40.7894C135.802 41.3207 135.441 41.8056 134.983 42.2443C134.524 42.679 133.964 43.0251 133.304 43.2827C132.648 43.5402 131.896 43.669 131.047 43.669C129.928 43.669 128.926 43.4235 128.04 42.9325C127.159 42.4375 126.463 41.7171 125.951 40.7713C125.44 39.8255 125.185 38.6745 125.185 37.3182C125.185 35.9579 125.444 34.8048 125.964 33.859C126.483 32.9132 127.185 32.1948 128.07 31.7038C128.956 31.2128 129.948 30.9673 131.047 30.9673C131.795 30.9673 132.487 31.072 133.123 31.2812C133.759 31.4865 134.319 31.7884 134.802 32.1868C135.285 32.5812 135.677 33.0662 135.979 33.6417C136.281 34.2172 136.468 34.8752 136.54 35.6158ZM142.579 43.6751C141.605 43.6751 140.768 43.4758 140.067 43.0774C139.371 42.6749 138.834 42.1155 138.455 41.3991C138.081 40.6787 137.894 39.8436 137.894 38.8938C137.894 37.94 138.081 37.1049 138.455 36.3885C138.834 35.6681 139.371 35.1087 140.067 34.7102C140.768 34.3078 141.605 34.1065 142.579 34.1065C143.553 34.1065 144.388 34.3078 145.084 34.7102C145.784 35.1087 146.322 35.6681 146.696 36.3885C147.074 37.1049 147.263 37.94 147.263 38.8938C147.263 39.8436 147.074 40.6787 146.696 41.3991C146.322 42.1155 145.784 42.6749 145.084 43.0774C144.388 43.4758 143.553 43.6751 142.579 43.6751ZM142.597 41.4474C142.951 41.4474 143.251 41.3388 143.496 41.1214C143.742 40.9041 143.929 40.6023 144.058 40.2159C144.191 39.8295 144.257 39.3828 144.257 38.8757C144.257 38.3606 144.191 37.9098 144.058 37.5234C143.929 37.1371 143.742 36.8352 143.496 36.6179C143.251 36.4006 142.951 36.2919 142.597 36.2919C142.231 36.2919 141.921 36.4006 141.667 36.6179C141.418 36.8352 141.226 37.1371 141.094 37.5234C140.965 37.9098 140.9 38.3606 140.9 38.8757C140.9 39.3828 140.965 39.8295 141.094 40.2159C141.226 40.6023 141.418 40.9041 141.667 41.1214C141.921 41.3388 142.231 41.4474 142.597 41.4474ZM151.728 38.2116V43.5H148.776V34.2273H151.583V35.9297H151.685C151.891 35.3622 152.241 34.9175 152.736 34.5955C153.231 34.2695 153.82 34.1065 154.505 34.1065C155.157 34.1065 155.722 34.2534 156.201 34.5472C156.684 34.837 157.058 35.2435 157.324 35.7667C157.593 36.2859 157.726 36.8936 157.722 37.5898V43.5H154.77V38.1694C154.774 37.6542 154.643 37.2518 154.378 36.962C154.116 36.6722 153.752 36.5273 153.285 36.5273C152.975 36.5273 152.702 36.5958 152.464 36.7326C152.231 36.8654 152.05 37.0566 151.921 37.3061C151.796 37.5556 151.732 37.8575 151.728 38.2116ZM163.178 43.5V41.3508L167.688 37.4027C168.026 37.0968 168.314 36.8171 168.551 36.5636C168.788 36.306 168.97 36.0484 169.094 35.7908C169.219 35.5292 169.281 35.2455 169.281 34.9396C169.281 34.5975 169.207 34.3058 169.058 34.0643C168.909 33.8188 168.704 33.6296 168.442 33.4968C168.181 33.364 167.881 33.2976 167.543 33.2976C167.201 33.2976 166.901 33.368 166.643 33.5089C166.386 33.6457 166.185 33.8449 166.04 34.1065C165.899 34.3681 165.828 34.6861 165.828 35.0604H162.997C162.997 34.2192 163.186 33.4928 163.565 32.881C163.943 32.2693 164.474 31.7984 165.158 31.4684C165.846 31.1344 166.645 30.9673 167.555 30.9673C168.493 30.9673 169.308 31.1243 170 31.4382C170.692 31.7521 171.227 32.1908 171.606 32.7543C171.988 33.3137 172.179 33.9637 172.179 34.7042C172.179 35.1751 172.085 35.6419 171.895 36.1048C171.706 36.5676 171.366 37.0787 170.875 37.6381C170.388 38.1976 169.696 38.8677 168.799 39.6484L167.319 41.0128V41.0913H172.33V43.5H163.178ZM179.132 43.8018C178.054 43.8018 177.124 43.5463 176.343 43.0352C175.562 42.52 174.961 41.7815 174.538 40.8196C174.116 39.8537 173.906 38.6926 173.91 37.3363C173.914 35.98 174.126 34.829 174.544 33.8832C174.967 32.9334 175.566 32.2109 176.343 31.7159C177.124 31.2169 178.054 30.9673 179.132 30.9673C180.211 30.9673 181.141 31.2169 181.921 31.7159C182.706 32.2109 183.31 32.9334 183.732 33.8832C184.155 34.833 184.364 35.984 184.36 37.3363C184.36 38.6966 184.149 39.8597 183.726 40.8256C183.304 41.7915 182.702 42.5301 181.921 43.0412C181.145 43.5483 180.215 43.8018 179.132 43.8018ZM179.132 41.3569C179.776 41.3569 180.297 41.0289 180.696 40.3729C181.094 39.7128 181.291 38.7006 181.287 37.3363C181.287 36.4428 181.197 35.7063 181.016 35.1268C180.835 34.5432 180.583 34.1085 180.261 33.8228C179.939 33.537 179.563 33.3942 179.132 33.3942C178.492 33.3942 177.975 33.7182 177.581 34.3661C177.186 35.0101 176.987 36.0001 176.983 37.3363C176.979 38.2418 177.066 38.9924 177.243 39.5881C177.424 40.1837 177.677 40.6284 178.003 40.9222C178.329 41.212 178.706 41.3569 179.132 41.3569ZM186.072 43.5V41.3508L190.581 37.4027C190.919 37.0968 191.207 36.8171 191.445 36.5636C191.682 36.306 191.863 36.0484 191.988 35.7908C192.113 35.5292 192.175 35.2455 192.175 34.9396C192.175 34.5975 192.101 34.3058 191.952 34.0643C191.803 33.8188 191.598 33.6296 191.336 33.4968C191.074 33.364 190.774 33.2976 190.436 33.2976C190.094 33.2976 189.794 33.368 189.537 33.5089C189.279 33.6457 189.078 33.8449 188.933 34.1065C188.792 34.3681 188.722 34.6861 188.722 35.0604H185.891C185.891 34.2192 186.08 33.4928 186.458 32.881C186.836 32.2693 187.368 31.7984 188.052 31.4684C188.74 31.1344 189.539 30.9673 190.448 30.9673C191.386 30.9673 192.201 31.1243 192.893 31.4382C193.586 31.7521 194.121 32.1908 194.499 32.7543C194.882 33.3137 195.073 33.9637 195.073 34.7042C195.073 35.1751 194.978 35.6419 194.789 36.1048C194.6 36.5676 194.26 37.0787 193.769 37.6381C193.282 38.1976 192.59 38.8677 191.692 39.6484L190.213 41.0128V41.0913H195.224V43.5H186.072ZM202.026 43.8018C200.947 43.8018 200.018 43.5463 199.237 43.0352C198.456 42.52 197.854 41.7815 197.432 40.8196C197.009 39.8537 196.8 38.6926 196.804 37.3363C196.808 35.98 197.019 34.829 197.438 33.8832C197.86 32.9334 198.46 32.2109 199.237 31.7159C200.018 31.2169 200.947 30.9673 202.026 30.9673C203.104 30.9673 204.034 31.2169 204.815 31.7159C205.6 32.2109 206.203 32.9334 206.626 33.8832C207.049 34.833 207.258 35.984 207.254 37.3363C207.254 38.6966 207.042 39.8597 206.62 40.8256C206.197 41.7915 205.596 42.5301 204.815 43.0412C204.038 43.5483 203.108 43.8018 202.026 43.8018ZM202.026 41.3569C202.67 41.3569 203.191 41.0289 203.589 40.3729C203.988 39.7128 204.185 38.7006 204.181 37.3363C204.181 36.4428 204.09 35.7063 203.909 35.1268C203.728 34.5432 203.477 34.1085 203.155 33.8228C202.833 33.537 202.456 33.3942 202.026 33.3942C201.386 33.3942 200.869 33.7182 200.474 34.3661C200.08 35.0101 199.881 36.0001 199.877 37.3363C199.873 38.2418 199.959 38.9924 200.136 39.5881C200.317 40.1837 200.571 40.6284 200.897 40.9222C201.223 41.212 201.599 41.3569 202.026 41.3569ZM218.849 28.965H224.629V31.175H221.28V39.76H218.849V28.965ZM228.216 38.111H238.943V40.372H228.216V38.111ZM232.194 36.615H234.71V45.115H232.194V36.615ZM228.845 40.576L231.446 41.324C231.06 42.038 230.556 42.718 229.933 43.364C229.309 44.01 228.692 44.5427 228.08 44.962C227.91 44.8033 227.689 44.622 227.417 44.418C227.156 44.214 226.884 44.01 226.601 43.806C226.329 43.6133 226.091 43.4603 225.887 43.347C226.499 43.0297 227.071 42.6273 227.604 42.14C228.148 41.6413 228.561 41.12 228.845 40.576ZM235.645 41.8L237.668 40.525C238.03 40.797 238.421 41.103 238.841 41.443C239.271 41.783 239.679 42.123 240.065 42.463C240.45 42.803 240.767 43.1203 241.017 43.415L238.841 44.843C238.637 44.5597 238.353 44.2367 237.991 43.874C237.628 43.5227 237.237 43.1657 236.818 42.803C236.41 42.429 236.019 42.0947 235.645 41.8ZM233.537 35.085C233.095 35.629 232.5 36.1617 231.752 36.683C231.015 37.2043 230.193 37.6747 229.287 38.094C228.391 38.5133 227.485 38.859 226.567 39.131C226.453 38.8137 226.272 38.451 226.023 38.043C225.785 37.6237 225.552 37.278 225.326 37.006C226.289 36.768 227.207 36.445 228.08 36.037C228.952 35.6177 229.74 35.1473 230.443 34.626C231.145 34.0933 231.718 33.5437 232.16 32.977H234.727C235.35 33.691 236.041 34.303 236.801 34.813C237.571 35.323 238.387 35.7423 239.249 36.071C240.121 36.3883 241.011 36.632 241.918 36.802C241.646 37.1193 241.385 37.4877 241.136 37.907C240.898 38.3263 240.694 38.7117 240.524 39.063C239.912 38.893 239.271 38.672 238.603 38.4C237.934 38.1167 237.277 37.805 236.631 37.465C235.996 37.1137 235.407 36.7397 234.863 36.343C234.33 35.935 233.888 35.5157 233.537 35.085ZM225.955 30.121H241.187V32.382H225.955V30.121ZM229.1 28.965H231.548V33.708H229.1V28.965ZM235.373 28.965H237.838V33.708H235.373V28.965ZM251.268 42.548H256.793V44.605H251.268V42.548ZM249.432 33.606H251.812V45.081H249.432V33.606ZM251.285 33.606H257.286V38.536H251.285V36.615H255.025V35.527H251.285V33.606ZM248.82 30.869H258.374V34.15H255.875V32.96H251.183V34.15H248.82V30.869ZM251.081 39.318H257.966V45.047H255.586V41.324H251.081V39.318ZM252.067 29.458L254.447 28.795C254.605 29.0443 254.753 29.3333 254.889 29.662C255.036 29.9793 255.138 30.257 255.195 30.495L252.713 31.277C252.667 31.0277 252.582 30.733 252.458 30.393C252.344 30.053 252.214 29.7413 252.067 29.458ZM244.366 31.209H247.358V33.351H244.366V31.209ZM243.958 28.948L246.27 29.39C246.134 30.2967 245.952 31.209 245.726 32.127C245.51 33.045 245.261 33.912 244.978 34.728C244.706 35.5327 244.4 36.241 244.06 36.853C243.935 36.7057 243.759 36.53 243.533 36.326C243.317 36.1107 243.096 35.901 242.87 35.697C242.643 35.4817 242.445 35.3117 242.275 35.187C242.558 34.6883 242.807 34.1047 243.023 33.436C243.238 32.756 243.425 32.0307 243.584 31.26C243.742 30.4893 243.867 29.7187 243.958 28.948ZM246.763 31.209H247.103L247.46 31.124L249.092 31.549C248.933 32.229 248.74 32.926 248.514 33.64C248.298 34.3427 248.077 34.9433 247.851 35.442L245.947 34.847C246.094 34.4163 246.247 33.8893 246.406 33.266C246.564 32.6427 246.683 32.0533 246.763 31.498V31.209ZM244.74 45.166L244.23 42.939L244.774 42.225L248.514 39.811C248.57 40.151 248.661 40.5363 248.786 40.967C248.91 41.3977 249.024 41.7377 249.126 41.987C248.287 42.5537 247.601 43.024 247.069 43.398C246.536 43.7607 246.117 44.0497 245.811 44.265C245.505 44.4917 245.272 44.673 245.114 44.809C244.955 44.945 244.83 45.064 244.74 45.166ZM244.74 45.166C244.66 45.0073 244.541 44.8203 244.383 44.605C244.224 44.3897 244.054 44.18 243.873 43.976C243.703 43.7833 243.55 43.6303 243.414 43.517C243.572 43.381 243.742 43.2053 243.924 42.99C244.105 42.7747 244.258 42.5197 244.383 42.225C244.519 41.9303 244.587 41.613 244.587 41.273V35.306H246.967V42.395C246.967 42.395 246.893 42.463 246.746 42.599C246.598 42.735 246.411 42.9107 246.185 43.126C245.969 43.3413 245.748 43.5737 245.522 43.823C245.295 44.0723 245.108 44.316 244.961 44.554C244.813 44.792 244.74 44.996 244.74 45.166ZM264.953 34.796V35.374H269.866V34.796H264.953ZM262.675 33.351H272.314V36.802H262.675V33.351ZM260.958 39.199H274.201V40.797H260.958V39.199ZM259.989 41.256H275.068V42.854H259.989V41.256ZM266.296 38.213H268.744V43.092C268.744 43.6133 268.659 44.0043 268.489 44.265C268.33 44.537 268.052 44.741 267.656 44.877C267.248 45.0017 266.777 45.0753 266.245 45.098C265.723 45.132 265.123 45.149 264.443 45.149C264.375 44.8543 264.261 44.5313 264.103 44.18C263.955 43.84 263.802 43.5453 263.644 43.296C263.904 43.3073 264.188 43.3187 264.494 43.33C264.811 43.3413 265.1 43.347 265.361 43.347C265.621 43.3357 265.797 43.33 265.888 43.33C266.035 43.33 266.137 43.3073 266.194 43.262C266.262 43.2167 266.296 43.1317 266.296 43.007V38.213ZM272.11 36.751L273.555 38.145C272.75 38.2923 271.872 38.417 270.92 38.519C269.968 38.6097 268.976 38.6833 267.945 38.74C266.925 38.7853 265.899 38.8137 264.868 38.825C263.848 38.8363 262.856 38.8363 261.893 38.825C261.881 38.6097 261.83 38.3547 261.74 38.06C261.66 37.754 261.575 37.5047 261.485 37.312C262.425 37.312 263.383 37.3063 264.358 37.295C265.344 37.2723 266.307 37.2383 267.248 37.193C268.2 37.1477 269.089 37.091 269.917 37.023C270.755 36.9437 271.486 36.853 272.11 36.751ZM266.262 28.965H268.761V32.11H266.262V28.965ZM260.023 30.92H275.102V34.932H272.688V32.926H262.318V34.932H260.023V30.92ZM261.519 29.628L263.678 28.795C263.904 29.0557 264.12 29.356 264.324 29.696C264.539 30.0247 264.703 30.3193 264.817 30.58L262.556 31.549C262.476 31.2883 262.335 30.9767 262.131 30.614C261.938 30.24 261.734 29.9113 261.519 29.628ZM271.277 28.846L273.861 29.577C273.532 29.9283 273.209 30.2513 272.892 30.546C272.586 30.8407 272.314 31.09 272.076 31.294L270.036 30.597C270.251 30.3363 270.472 30.0473 270.699 29.73C270.937 29.4013 271.129 29.1067 271.277 28.846ZM276.751 32.399H283.194V34.728H276.751V32.399ZM278.91 28.965H281.29V45.115H278.91V28.965ZM278.808 34.014L280.219 34.507C280.094 35.1983 279.935 35.9067 279.743 36.632C279.561 37.3573 279.352 38.0713 279.114 38.774C278.876 39.4767 278.615 40.134 278.332 40.746C278.048 41.3467 277.742 41.868 277.414 42.31C277.3 41.9587 277.13 41.562 276.904 41.12C276.677 40.678 276.467 40.2983 276.275 39.981C276.569 39.6183 276.847 39.199 277.108 38.723C277.368 38.247 277.606 37.7427 277.822 37.21C278.037 36.6773 278.23 36.139 278.4 35.595C278.57 35.051 278.706 34.524 278.808 34.014ZM281.103 35.306C281.216 35.4193 281.386 35.6233 281.613 35.918C281.839 36.2013 282.077 36.513 282.327 36.853C282.587 37.1817 282.82 37.4877 283.024 37.771C283.239 38.0543 283.386 38.2583 283.466 38.383L282.123 40.321C282.009 40.0377 281.862 39.7203 281.681 39.369C281.499 39.0177 281.307 38.6607 281.103 38.298C280.899 37.924 280.7 37.5727 280.508 37.244C280.326 36.9153 280.162 36.632 280.015 36.394L281.103 35.306ZM283.891 30.495H286.339V43.959H283.891V30.495ZM283.007 29.662H292.357V31.872H283.007V29.662ZM282.888 42.548H292.612V44.775H282.888V42.548ZM285.251 33.725H291.728V40.542H285.251V38.298H289.297V35.952H285.251V33.725ZM299.259 45.115H293.479V42.905H296.828V34.32H299.259V45.115Z" fill="white"/>
</g>
<path d="M330.861 8.66923C331.134 10.2293 331.522 11.2992 332.187 12.2882C332.634 12.9574 333.129 13.4177 333.713 13.7076C334.369 14.0401 334.919 14.1381 335.136 13.9676C335.196 13.9207 335.29 13.8824 335.35 13.8824C335.546 13.8824 335.563 13.8099 335.537 13.0853C335.516 12.3265 335.439 11.9685 335.192 11.4271C334.608 10.1739 333.393 9.16369 331.339 8.23871C331.049 8.10657 330.797 8.00001 330.78 8.00001C330.763 8.00001 330.797 8.30265 330.861 8.66923Z" fill="white"/>
<path d="M337.327 9.75618C336.249 11.7852 335.904 13.4561 336.296 14.7945C336.564 15.7238 337.344 16.8661 337.703 16.8661C337.903 16.8661 338.355 16.2694 338.687 15.5661C338.977 14.9565 339.062 14.543 339.067 13.7545C339.067 12.902 338.93 12.2498 338.551 11.2737C338.376 10.8176 337.694 9.42796 337.617 9.36402C337.575 9.32992 337.506 9.4237 337.327 9.75618Z" fill="white"/>
<path d="M331.671 13.4859C331.671 13.503 331.756 13.8269 331.863 14.202C332.596 16.7809 333.922 18.5456 335.405 18.9292C336.091 19.104 336.466 19.0997 336.624 18.9164C336.662 18.8696 336.765 18.8184 336.85 18.8014C336.935 18.7886 337.016 18.7459 337.029 18.7118C337.042 18.682 337.029 18.4476 337.004 18.1918C336.859 16.7894 336.321 15.8815 335.115 14.9864C334.297 14.3768 333.466 14.006 331.769 13.4817C331.714 13.4646 331.671 13.4646 331.671 13.4859Z" fill="white"/>
<path d="M340.175 15.6513C339.216 16.8704 338.683 17.8124 338.423 18.763C338.291 19.2361 338.24 20.127 338.316 20.5405C338.427 21.133 338.704 21.815 339.037 22.318C339.182 22.5396 339.19 22.5439 339.352 22.5226C339.591 22.4885 339.812 22.3265 340.119 21.9599C340.708 21.2523 341.044 20.5746 341.228 19.7221C341.347 19.185 341.351 18.1534 341.245 17.4842C341.108 16.6402 340.712 15.1185 340.627 15.1185C340.605 15.1185 340.405 15.3572 340.175 15.6513Z" fill="white"/>
<path d="M334.544 18.8994C334.557 19.0145 334.578 19.381 334.591 19.7221C334.668 21.5635 335.017 22.8039 335.767 23.9036C336.232 24.5814 337.004 25.1909 337.634 25.3742C337.843 25.4382 337.877 25.4382 338.009 25.3742C338.086 25.3359 338.197 25.306 338.252 25.306C338.312 25.306 338.368 25.2719 338.385 25.2293C338.457 25.0375 338.542 24.5174 338.564 24.1125C338.636 22.7101 337.992 21.4186 336.624 20.2208C335.878 19.5686 334.706 18.699 334.578 18.699C334.54 18.699 334.531 18.7544 334.544 18.8994Z" fill="white"/>
<path d="M342.404 21.6573C340.665 22.6974 339.676 23.6309 339.147 24.7306C338.849 25.3615 338.811 25.5533 338.815 26.4357C338.819 27.0452 338.836 27.2669 338.9 27.5226C338.977 27.8253 338.99 27.8423 339.109 27.8551C339.182 27.8636 339.254 27.8892 339.28 27.9105C339.425 28.0512 340.03 27.838 340.558 27.4629C341.279 26.9472 341.995 25.9242 342.361 24.8798C342.609 24.1637 342.809 23.145 342.86 22.3223C342.873 22.1006 342.894 21.798 342.907 21.6488C342.916 21.5039 342.911 21.3845 342.894 21.3845C342.877 21.3845 342.656 21.5081 342.404 21.6573Z" fill="white"/>
<path d="M334.808 23.7758C334.761 23.9165 334.57 24.9395 334.501 25.4126C334.403 26.0946 334.403 27.237 334.497 27.7613C334.685 28.8014 335.115 29.6454 335.827 30.3572C336.321 30.8559 336.483 30.954 336.803 30.954H337.063L337.178 30.7409C337.379 30.3785 337.587 29.6667 337.643 29.1594C337.783 27.8636 337.229 26.4527 335.976 24.931C335.486 24.3385 334.838 23.6906 334.808 23.7758Z" fill="white"/>
<path d="M342.933 27.5013C341.603 27.7144 340.58 28.0043 339.911 28.3495C338.956 28.844 338.257 29.5985 337.86 30.5533C337.72 30.89 337.528 31.7425 337.566 31.8491C337.579 31.8789 337.668 31.9301 337.758 31.9557C337.856 31.9812 337.958 32.0452 337.997 32.1006C338.099 32.2583 338.321 32.3137 338.764 32.2839C340.158 32.1901 341.275 31.3973 342.443 29.6709C342.877 29.023 343.696 27.3862 343.576 27.399C343.559 27.4032 343.269 27.4459 342.933 27.5013Z" fill="white"/>
<path d="M333.747 28.9548C333.7 29.0401 333.376 30.0887 333.278 30.4851C333.039 31.4271 333.014 31.6317 333.018 32.5524C333.018 33.3623 333.027 33.4561 333.133 33.844C333.329 34.5686 333.794 35.3785 334.348 35.9454C334.646 36.2524 334.804 36.3461 335.017 36.3461C335.175 36.3461 335.2 36.3291 335.333 36.1287C335.686 35.5874 335.938 34.8883 336.023 34.2191C336.181 32.9233 335.571 31.2651 334.31 29.59C333.883 29.0188 333.781 28.9037 333.747 28.9548Z" fill="white"/>
<path d="M331.155 32.7315C330.571 33.8142 330.234 34.6922 330.051 35.5831C329.928 36.1671 329.949 37.1262 330.09 37.6249C330.341 38.5115 331.142 39.7136 331.475 39.7136C331.59 39.7136 331.965 39.3001 332.221 38.8824C332.489 38.4561 332.711 37.9318 332.813 37.4885C332.92 37.0196 332.907 35.9028 332.792 35.3657C332.681 34.8755 332.481 34.2362 332.28 33.746C332.114 33.3368 331.62 32.3137 331.535 32.1986C331.483 32.1347 331.441 32.1944 331.155 32.7315Z" fill="white"/>
<path d="M341.304 32.1987C340.746 32.2328 339.932 32.3436 339.544 32.4416C338.129 32.8039 337.025 33.682 336.488 34.8756C336.385 35.1057 336.147 35.792 336.147 35.8602C336.147 35.8687 336.249 35.9242 336.373 35.9796C336.492 36.035 336.637 36.1373 336.688 36.2055C336.82 36.393 337.097 36.4484 337.719 36.4186C338.815 36.3675 339.731 35.9156 340.712 34.9438C341.283 34.3726 341.773 33.7375 342.242 32.9489C342.464 32.5823 342.664 32.2541 342.681 32.2242C342.707 32.1816 342.596 32.1688 342.127 32.1773C341.803 32.1816 341.432 32.1901 341.304 32.1987Z" fill="white"/>
<path d="M328.325 35.7153C326.731 37.2583 326.002 38.4945 325.891 39.8329C325.84 40.451 326.023 41.3419 326.334 41.9727L326.492 42.2924H326.748C326.969 42.2924 327.033 42.2711 327.217 42.1432C327.911 41.6658 328.623 40.6513 328.913 39.7349C329.148 38.9804 329.177 38.7502 329.177 37.5823C329.177 36.653 329.16 36.4015 329.075 35.8559C329.02 35.5021 328.96 35.1995 328.943 35.1824C328.926 35.1611 328.645 35.3998 328.325 35.7153Z" fill="white"/>
<path d="M336.479 36.6701C335.264 36.8576 334.582 37.156 333.917 37.7911C333.568 38.1236 333.325 38.4348 333.061 38.8866C332.788 39.3598 332.788 39.3512 333.078 39.5345C333.218 39.6198 333.346 39.7263 333.359 39.7647C333.465 40.1014 334.506 40.3401 335.358 40.2293C335.831 40.1654 336.535 39.9352 336.957 39.705C337.788 39.2532 338.824 38.4135 339.143 37.9403C339.25 37.7783 339.476 37.497 339.642 37.3095C339.808 37.1262 339.936 36.9685 339.928 36.9599C339.919 36.9514 339.642 36.896 339.318 36.8363C337.933 36.5933 337.221 36.5507 336.479 36.6701Z" fill="white"/>
<path d="M324.744 39.0273C322.468 39.5516 321.125 40.2635 320.375 41.3547C320.013 41.8832 319.714 42.7613 319.663 43.4476L319.638 43.7929L319.787 43.8227C319.872 43.8355 320 43.908 320.077 43.9804L320.213 44.1168L320.648 44.0955C321.368 44.0614 322.059 43.7801 322.728 43.2515C323.312 42.7912 324.096 41.7596 324.608 40.7792C324.825 40.37 325.277 39.2788 325.345 39.0145C325.379 38.8781 325.396 38.8781 324.744 39.0273Z" fill="white"/>
<path d="M331.607 40.272C330.878 40.3743 330.051 40.7707 329.476 41.3035C329.156 41.5934 328.73 42.0963 328.73 42.1773C328.73 42.2029 328.845 42.3223 328.985 42.4459C329.126 42.5695 329.254 42.7144 329.267 42.7698C329.318 42.9659 329.774 43.2259 330.379 43.405C331.419 43.7076 332.634 43.5158 333.981 42.8338C334.757 42.4416 335.128 42.1944 335.277 41.9685C335.345 41.8662 335.571 41.6488 335.776 41.4825C336.027 41.2822 336.13 41.1756 336.091 41.1543C336.061 41.1373 335.729 41.0094 335.354 40.8687C334.578 40.5831 333.994 40.4126 333.465 40.3274C332.984 40.2507 331.982 40.2208 331.607 40.272Z" fill="white"/>
<path d="M326.07 42.8934C325.682 42.9787 325.286 43.1321 324.894 43.341C324.514 43.5456 324.088 43.8525 324.084 43.9165C324.084 43.942 324.194 44.1168 324.331 44.3086C324.463 44.5004 324.621 44.7349 324.68 44.8329C324.872 45.1483 325.512 45.6215 326.036 45.8346C327.029 46.2353 328.21 46.2481 329.689 45.8772C330.371 45.7025 330.563 45.6172 330.644 45.451C330.682 45.3657 330.78 45.2975 330.985 45.208C331.138 45.1398 331.321 45.0588 331.39 45.029L331.513 44.9736L331.061 44.6454C329.727 43.6735 328.909 43.2387 327.877 42.9702C327.349 42.8295 326.505 42.7954 326.07 42.8934Z" fill="white"/>
<path d="M320.695 44.688C320.533 44.7221 320.252 44.8073 320.077 44.8755C319.761 44.9949 319.122 45.3359 319.024 45.4382C318.947 45.5149 319.574 46.5209 319.906 46.8619C320.379 47.3478 320.972 47.6846 321.718 47.8849C322.119 47.9915 322.2 48 323.082 48C323.875 48 324.101 47.9872 324.552 47.902C325.171 47.7911 325.448 47.6846 325.448 47.5652C325.448 47.4714 325.593 47.3905 325.98 47.2754C326.121 47.2327 326.249 47.1858 326.27 47.1731C326.304 47.1432 325.422 46.3717 324.902 45.9795C323.964 45.2805 323.061 44.8457 322.208 44.6837C321.773 44.5985 321.091 44.6027 320.695 44.688Z" fill="white"/>
<defs>
<filter id="filter0_d_17_678" x="88.4176" y="3.9" width="228.2" height="48.2" filterUnits="userSpaceOnUse" color-interpolation-filters="sRGB">
<feFlood flood-opacity="0" result="BackgroundImageFix"/>
<feColorMatrix in="SourceAlpha" type="matrix" values="0 0 0 0 0 0 0 0 0 0 0 0 0 0 0 0 0 0 127 0" result="hardAlpha"/>
<feOffset/>
<feGaussianBlur stdDeviation="2.8"/>
<feComposite in2="hardAlpha" operator="out"/>
<feColorMatrix type="matrix" values="0 0 0 0 0 0 0 0 0 0 0 0 0 0 0 0 0 0 0.25 0"/>
<feBlend mode="normal" in2="BackgroundImageFix" result="effect1_dropShadow_17_678"/>
<feBlend mode="normal" in="SourceGraphic" in2="effect1_dropShadow_17_678" result="shape"/>
</filter>
<linearGradient id="paint0_linear_17_678" x1="178.5" y1="0" x2="178.5" y2="56" gradientUnits="userSpaceOnUse">
<stop stop-color="#373737"/>
<stop offset="1"/>
</linearGradient>
</defs>
</svg>
