<svg width="186" height="56" viewBox="0 0 186 56" fill="none" xmlns="http://www.w3.org/2000/svg">
<rect width="186" height="56" rx="8" fill="url(#paint0_linear_17_3182)"/>
<rect x="1.05" y="1.05" width="183.9" height="53.9" rx="6.95" stroke="white" stroke-opacity="0.15" stroke-width="2.1"/>
<path d="M23.9269 20.8078C24.1987 20.6289 24.4705 20.45 24.6959 20.2555C24.9213 20.0609 25.1006 19.8505 25.2061 19.6472C25.3116 19.4438 25.3434 19.2473 25.3251 19.036C25.3068 18.8248 25.2381 18.5989 25.1452 18.3235C25.0523 18.0482 24.9351 17.7235 24.8835 17.4208C24.832 17.1181 24.8464 16.8376 24.8821 16.6296C24.9178 16.4215 24.9748 16.2861 25.0244 16.1537C25.074 16.0213 25.1161 15.8918 25.2187 15.6904C25.3213 15.489 25.4844 15.2158 25.6475 14.9425" stroke="black" stroke-width="1.5" stroke-linecap="round"/>
<path d="M36.1227 20.5057C36.3945 20.3268 36.6663 20.1479 36.8917 19.9534C37.1171 19.7588 37.2964 19.5484 37.4019 19.3451C37.5074 19.1417 37.5392 18.9452 37.5209 18.734C37.5026 18.5227 37.4339 18.2968 37.341 18.0215C37.2481 17.7461 37.1309 17.4214 37.0793 17.1187C37.0278 16.816 37.0422 16.5355 37.0779 16.3275C37.1136 16.1194 37.1706 15.984 37.2202 15.8516C37.2698 15.7192 37.3119 15.5897 37.4145 15.3883C37.5171 15.1869 37.6802 14.9137 37.8433 14.6404" stroke="black" stroke-width="1.5" stroke-linecap="round"/>
<path d="M30.2893 19.2935C30.5611 19.1146 30.8329 18.9357 31.0583 18.7411C31.2838 18.5466 31.463 18.3362 31.5685 18.1329C31.6741 17.9295 31.7058 17.7329 31.6875 17.5217C31.6692 17.3105 31.6006 17.0846 31.5076 16.8092C31.4147 16.5339 31.2975 16.2092 31.246 15.9065C31.1944 15.6038 31.2088 15.3233 31.2445 15.1153C31.2802 14.9072 31.3373 14.7718 31.3868 14.6394C31.4364 14.5069 31.4785 14.3774 31.5811 14.176C31.6837 13.9746 31.8468 13.7015 32.0099 13.4282" stroke="black" stroke-width="1.5" stroke-linecap="round"/>
<path d="M47.8733 39.4322C47.5473 39.4339 26.6646 39.5444 21.2618 39.5233C15.8589 39.5021 15.821 39.4024 15.8209 39.5543C15.8209 39.7063 15.8588 40.1099 16.008 40.497C16.1573 40.8841 16.4175 41.2545 16.7519 41.5847C17.0863 41.9149 17.4803 42.1947 17.7731 42.356C18.0659 42.5174 18.2502 42.5554 22.8316 42.5696C27.413 42.5838 36.3912 42.5743 40.9237 42.5505C45.4561 42.5267 45.5429 42.4887 45.7977 42.3748C46.0525 42.2608 46.4754 42.0708 46.8765 41.7432C47.2776 41.4156 47.6571 40.9502 47.8685 40.5941C48.08 40.2381 48.1106 40.0635 48.1457 39.8363C48.1808 39.6092 48.1885 39.5349 48.1993 39.4305C48.1993 39.4305 48.1993 39.4305 47.8733 39.4322Z" stroke="black" stroke-width="1.4" stroke-linecap="round" stroke-linejoin="round"/>
<path d="M43.6725 26.7325C43.5856 26.1198 43.4985 25.5066 43.3207 25.1406C43.1429 24.7745 42.8739 24.6559 42.6923 24.5962C42.5106 24.5365 42.4164 24.5361 38.5706 24.5526C34.7248 24.5692 27.1277 24.6028 23.2996 24.6201C19.4715 24.6375 19.4124 24.6387 19.3413 24.6452C19.2702 24.6517 19.1872 24.6635 19.0703 24.7248C18.9535 24.7862 18.8032 24.8969 18.6797 25.0629C18.5563 25.2288 18.4628 25.4431 18.4144 25.978C18.366 26.513 18.3641 27.365 18.38 27.9869C18.3958 28.6088 18.4294 29.0004 18.557 29.651C18.6846 30.3017 18.9061 31.2112 19.2107 32.121C19.5154 33.0307 19.903 33.9405 20.5578 34.9143C21.2126 35.8881 22.1343 36.9258 22.9947 37.6958C23.8552 38.4658 24.6543 38.9682 25.0696 39.2192C25.4849 39.4703 25.5166 39.4703 27.3844 39.4644C29.2523 39.4584 32.9562 39.4466 34.8239 39.4346C36.6916 39.4227 36.7233 39.4109 37.1246 39.1254C37.5259 38.8399 38.2969 38.2808 39.0266 37.6651C39.7563 37.0493 40.4446 36.3768 41.0735 35.5303C41.7025 34.6838 42.2721 33.6632 42.6846 32.7063C43.097 31.7493 43.3481 30.8705 43.4865 29.8896C43.6249 28.9086 43.6488 27.8168 43.6844 27.2509C43.72 26.685 43.7675 26.6375 44.0248 26.627C44.2822 26.6165 44.7489 26.6428 45.2118 26.7154C45.6747 26.788 46.1335 26.9067 46.4816 27.1165C46.8297 27.3263 47.067 27.6269 47.2646 27.909C47.4622 28.1911 47.62 28.4545 47.7352 28.8435C47.8504 29.2326 47.9231 29.7473 47.9399 30.2591C47.9566 30.771 47.9174 31.2801 47.8055 31.7331C47.6936 32.1862 47.509 32.5834 47.2209 32.9945C46.9328 33.4056 46.5412 33.8308 46.1049 34.2083C45.6686 34.5859 45.1875 34.916 44.6197 35.2209C44.0519 35.5258 43.3974 35.8055 42.6953 35.9957C41.9933 36.1859 41.2437 36.2866 40.4937 36.3874" stroke="black" stroke-width="1.4" stroke-linecap="round"/>
<g filter="url(#filter0_d_17_3182)">
<path d="M61.2784 24.5V12.8636H65.4261C66.3314 12.8636 67.0814 13.0284 67.6761 13.358C68.2708 13.6875 68.7159 14.1383 69.0114 14.7102C69.3068 15.2784 69.4545 15.9186 69.4545 16.6307C69.4545 17.3466 69.3049 17.9905 69.0057 18.5625C68.7102 19.1307 68.2633 19.5814 67.6648 19.9148C67.0701 20.2443 66.322 20.4091 65.4205 20.4091H62.5682V18.9205H65.2614C65.8333 18.9205 66.2973 18.822 66.6534 18.625C67.0095 18.4242 67.2708 18.1515 67.4375 17.8068C67.6042 17.4621 67.6875 17.0701 67.6875 16.6307C67.6875 16.1913 67.6042 15.8011 67.4375 15.4602C67.2708 15.1193 67.0076 14.8523 66.6477 14.6591C66.2917 14.4659 65.822 14.3693 65.2386 14.3693H63.0341V24.5H61.2784ZM73.8381 24.6932C73.285 24.6932 72.785 24.5909 72.3381 24.3864C71.8911 24.178 71.5369 23.8769 71.2756 23.483C71.018 23.089 70.8892 22.6061 70.8892 22.0341C70.8892 21.5417 70.9839 21.1364 71.1733 20.8182C71.3627 20.5 71.6184 20.2481 71.9403 20.0625C72.2623 19.8769 72.6222 19.7367 73.0199 19.642C73.4176 19.5473 73.8229 19.4754 74.2358 19.4261C74.7585 19.3655 75.1828 19.3163 75.5085 19.2784C75.8343 19.2367 76.071 19.1705 76.2187 19.0795C76.3665 18.9886 76.4403 18.8409 76.4403 18.6364V18.5966C76.4403 18.1004 76.3002 17.7159 76.0199 17.4432C75.7434 17.1705 75.3305 17.0341 74.7812 17.0341C74.2093 17.0341 73.7585 17.161 73.429 17.4148C73.1032 17.6648 72.8778 17.9432 72.7528 18.25L71.1562 17.8864C71.3456 17.3561 71.6222 16.928 71.9858 16.6023C72.3532 16.2727 72.7756 16.0341 73.2528 15.8864C73.7301 15.7348 74.232 15.6591 74.7585 15.6591C75.107 15.6591 75.4763 15.7008 75.8665 15.7841C76.2604 15.8636 76.6278 16.0114 76.9687 16.2273C77.3134 16.4432 77.5956 16.7519 77.8153 17.1534C78.035 17.5511 78.1449 18.0682 78.1449 18.7045V24.5H76.4858V23.3068H76.4176C76.3078 23.5265 76.143 23.7424 75.9233 23.9545C75.7036 24.1667 75.4214 24.3428 75.0767 24.483C74.732 24.6231 74.3191 24.6932 73.8381 24.6932ZM74.2074 23.3295C74.6771 23.3295 75.0786 23.2367 75.4119 23.0511C75.749 22.8655 76.0047 22.6231 76.179 22.3239C76.357 22.0208 76.446 21.697 76.446 21.3523V20.2273C76.3854 20.2879 76.268 20.3447 76.0937 20.3977C75.9233 20.447 75.7282 20.4905 75.5085 20.5284C75.2888 20.5625 75.0748 20.5947 74.8665 20.625C74.6581 20.6515 74.4839 20.6742 74.3437 20.6932C74.0142 20.7348 73.7131 20.8049 73.4403 20.9034C73.1714 21.0019 72.9555 21.1439 72.7926 21.3295C72.6335 21.5114 72.554 21.7538 72.554 22.0568C72.554 22.4773 72.7093 22.7955 73.0199 23.0114C73.3305 23.2235 73.7263 23.3295 74.2074 23.3295ZM80.4077 24.5V15.7727H82.0497V17.1591H82.1406C82.2997 16.6894 82.58 16.3201 82.9815 16.0511C83.3868 15.7784 83.8452 15.642 84.3565 15.642C84.4626 15.642 84.5876 15.6458 84.7315 15.6534C84.8793 15.661 84.9948 15.6705 85.0781 15.6818V17.3068C85.0099 17.2879 84.8887 17.267 84.7145 17.2443C84.5402 17.2178 84.366 17.2045 84.1918 17.2045C83.7902 17.2045 83.4323 17.2898 83.1179 17.4602C82.8073 17.6269 82.5611 17.8598 82.3793 18.1591C82.1974 18.4545 82.1065 18.7917 82.1065 19.1705V24.5H80.4077ZM91.1378 15.7727V17.1364H86.3707V15.7727H91.1378ZM87.6491 13.6818H89.348V21.9375C89.348 22.267 89.3972 22.5152 89.4957 22.6818C89.5942 22.8447 89.7211 22.9564 89.8764 23.017C90.0355 23.0739 90.2079 23.1023 90.3935 23.1023C90.5298 23.1023 90.6491 23.0928 90.7514 23.0739C90.8537 23.0549 90.9332 23.0398 90.99 23.0284L91.2969 24.4318C91.1984 24.4697 91.0582 24.5076 90.8764 24.5455C90.6946 24.5871 90.4673 24.6098 90.1946 24.6136C89.7476 24.6212 89.331 24.5417 88.9446 24.375C88.5582 24.2083 88.2457 23.9508 88.0071 23.6023C87.7685 23.2538 87.6491 22.8163 87.6491 22.2898V13.6818ZM93.017 24.5V15.7727H94.7159V24.5H93.017ZM93.875 14.4261C93.5795 14.4261 93.3257 14.3277 93.1136 14.1307C92.9053 13.9299 92.8011 13.6913 92.8011 13.4148C92.8011 13.1345 92.9053 12.8958 93.1136 12.6989C93.3257 12.4981 93.5795 12.3977 93.875 12.3977C94.1704 12.3977 94.4223 12.4981 94.6307 12.6989C94.8428 12.8958 94.9489 13.1345 94.9489 13.4148C94.9489 13.6913 94.8428 13.9299 94.6307 14.1307C94.4223 14.3277 94.1704 14.4261 93.875 14.4261ZM100.678 24.6761C99.8328 24.6761 99.1056 24.4848 98.4957 24.1023C97.8897 23.7159 97.4238 23.1837 97.098 22.5057C96.7722 21.8277 96.6094 21.0511 96.6094 20.1761C96.6094 19.2898 96.776 18.5076 97.1094 17.8295C97.4427 17.1477 97.9124 16.6155 98.5185 16.233C99.1245 15.8504 99.8385 15.6591 100.66 15.6591C101.323 15.6591 101.914 15.7822 102.433 16.0284C102.952 16.2708 103.371 16.6117 103.689 17.0511C104.011 17.4905 104.202 18.0038 104.263 18.5909H102.609C102.518 18.1818 102.31 17.8295 101.984 17.5341C101.662 17.2386 101.231 17.0909 100.689 17.0909C100.215 17.0909 99.8007 17.2159 99.4446 17.4659C99.0923 17.7121 98.8177 18.0644 98.6207 18.5227C98.4238 18.9773 98.3253 19.5152 98.3253 20.1364C98.3253 20.7727 98.4219 21.322 98.615 21.7841C98.8082 22.2462 99.081 22.6042 99.4332 22.858C99.7893 23.1117 100.208 23.2386 100.689 23.2386C101.011 23.2386 101.303 23.1799 101.564 23.0625C101.829 22.9413 102.051 22.7689 102.229 22.5455C102.41 22.322 102.537 22.053 102.609 21.7386H104.263C104.202 22.303 104.018 22.8068 103.712 23.25C103.405 23.6932 102.994 24.0417 102.479 24.2955C101.967 24.5492 101.367 24.6761 100.678 24.6761ZM106.08 24.5V15.7727H107.778V24.5H106.08ZM106.937 14.4261C106.642 14.4261 106.388 14.3277 106.176 14.1307C105.968 13.9299 105.864 13.6913 105.864 13.4148C105.864 13.1345 105.968 12.8958 106.176 12.6989C106.388 12.4981 106.642 12.3977 106.937 12.3977C107.233 12.3977 107.485 12.4981 107.693 12.6989C107.905 12.8958 108.011 13.1345 108.011 13.4148C108.011 13.6913 107.905 13.9299 107.693 14.1307C107.485 14.3277 107.233 14.4261 106.937 14.4261ZM110.064 27.7727V15.7727H111.723V17.1875H111.865C111.964 17.0057 112.106 16.7955 112.291 16.5568C112.477 16.3182 112.734 16.1098 113.064 15.9318C113.393 15.75 113.829 15.6591 114.371 15.6591C115.075 15.6591 115.704 15.8371 116.257 16.1932C116.81 16.5492 117.244 17.0625 117.558 17.733C117.876 18.4034 118.035 19.2102 118.035 20.1534C118.035 21.0966 117.878 21.9053 117.564 22.5795C117.25 23.25 116.818 23.767 116.268 24.1307C115.719 24.4905 115.092 24.6705 114.388 24.6705C113.857 24.6705 113.424 24.5814 113.087 24.4034C112.753 24.2254 112.492 24.017 112.303 23.7784C112.113 23.5398 111.967 23.3277 111.865 23.142H111.763V27.7727H110.064ZM111.729 20.1364C111.729 20.75 111.818 21.2879 111.996 21.75C112.174 22.2121 112.431 22.5739 112.768 22.8352C113.106 23.0928 113.518 23.2216 114.007 23.2216C114.515 23.2216 114.939 23.0871 115.28 22.8182C115.621 22.5455 115.878 22.1761 116.053 21.7102C116.231 21.2443 116.32 20.7197 116.32 20.1364C116.32 19.5606 116.232 19.0436 116.058 18.5852C115.888 18.1269 115.63 17.7652 115.285 17.5C114.945 17.2348 114.518 17.1023 114.007 17.1023C113.515 17.1023 113.098 17.2292 112.757 17.483C112.42 17.7367 112.164 18.0909 111.99 18.5455C111.816 19 111.729 19.5303 111.729 20.1364ZM122.479 24.6932C121.926 24.6932 121.426 24.5909 120.979 24.3864C120.532 24.178 120.178 23.8769 119.916 23.483C119.659 23.089 119.53 22.6061 119.53 22.0341C119.53 21.5417 119.625 21.1364 119.814 20.8182C120.003 20.5 120.259 20.2481 120.581 20.0625C120.903 19.8769 121.263 19.7367 121.66 19.642C122.058 19.5473 122.464 19.4754 122.876 19.4261C123.399 19.3655 123.823 19.3163 124.149 19.2784C124.475 19.2367 124.712 19.1705 124.859 19.0795C125.007 18.9886 125.081 18.8409 125.081 18.6364V18.5966C125.081 18.1004 124.941 17.7159 124.66 17.4432C124.384 17.1705 123.971 17.0341 123.422 17.0341C122.85 17.0341 122.399 17.161 122.07 17.4148C121.744 17.6648 121.518 17.9432 121.393 18.25L119.797 17.8864C119.986 17.3561 120.263 16.928 120.626 16.6023C120.994 16.2727 121.416 16.0341 121.893 15.8864C122.371 15.7348 122.873 15.6591 123.399 15.6591C123.748 15.6591 124.117 15.7008 124.507 15.7841C124.901 15.8636 125.268 16.0114 125.609 16.2273C125.954 16.4432 126.236 16.7519 126.456 17.1534C126.676 17.5511 126.785 18.0682 126.785 18.7045V24.5H125.126V23.3068H125.058C124.948 23.5265 124.784 23.7424 124.564 23.9545C124.344 24.1667 124.062 24.3428 123.717 24.483C123.373 24.6231 122.96 24.6932 122.479 24.6932ZM122.848 23.3295C123.318 23.3295 123.719 23.2367 124.053 23.0511C124.39 22.8655 124.645 22.6231 124.82 22.3239C124.998 22.0208 125.087 21.697 125.087 21.3523V20.2273C125.026 20.2879 124.909 20.3447 124.734 20.3977C124.564 20.447 124.369 20.4905 124.149 20.5284C123.929 20.5625 123.715 20.5947 123.507 20.625C123.299 20.6515 123.125 20.6742 122.984 20.6932C122.655 20.7348 122.354 20.8049 122.081 20.9034C121.812 21.0019 121.596 21.1439 121.433 21.3295C121.274 21.5114 121.195 21.7538 121.195 22.0568C121.195 22.4773 121.35 22.7955 121.66 23.0114C121.971 23.2235 122.367 23.3295 122.848 23.3295ZM133.122 15.7727V17.1364H128.355V15.7727H133.122ZM129.634 13.6818H131.332V21.9375C131.332 22.267 131.382 22.5152 131.48 22.6818C131.579 22.8447 131.705 22.9564 131.861 23.017C132.02 23.0739 132.192 23.1023 132.378 23.1023C132.514 23.1023 132.634 23.0928 132.736 23.0739C132.838 23.0549 132.918 23.0398 132.974 23.0284L133.281 24.4318C133.183 24.4697 133.043 24.5076 132.861 24.5455C132.679 24.5871 132.452 24.6098 132.179 24.6136C131.732 24.6212 131.315 24.5417 130.929 24.375C130.543 24.2083 130.23 23.9508 129.991 23.6023C129.753 23.2538 129.634 22.8163 129.634 22.2898V13.6818ZM138.669 24.6761C137.809 24.6761 137.069 24.4924 136.447 24.125C135.83 23.7538 135.353 23.233 135.016 22.5625C134.682 21.8883 134.516 21.0985 134.516 20.1932C134.516 19.2992 134.682 18.5114 135.016 17.8295C135.353 17.1477 135.822 16.6155 136.425 16.233C137.031 15.8504 137.739 15.6591 138.55 15.6591C139.042 15.6591 139.519 15.7405 139.982 15.9034C140.444 16.0663 140.858 16.322 141.226 16.6705C141.593 17.0189 141.883 17.4716 142.095 18.0284C142.307 18.5814 142.413 19.2538 142.413 20.0455V20.6477H135.476V19.375H140.749C140.749 18.928 140.658 18.5322 140.476 18.1875C140.294 17.839 140.038 17.5644 139.709 17.3636C139.383 17.1629 139 17.0625 138.561 17.0625C138.084 17.0625 137.667 17.1799 137.311 17.4148C136.959 17.6458 136.686 17.9489 136.493 18.3239C136.303 18.6951 136.209 19.0985 136.209 19.5341V20.5284C136.209 21.1117 136.311 21.608 136.516 22.017C136.724 22.4261 137.014 22.7386 137.385 22.9545C137.756 23.1667 138.19 23.2727 138.686 23.2727C139.008 23.2727 139.302 23.2273 139.567 23.1364C139.832 23.0417 140.061 22.9015 140.254 22.7159C140.447 22.5303 140.595 22.3011 140.697 22.0284L142.305 22.3182C142.177 22.7917 141.946 23.2064 141.612 23.5625C141.283 23.9148 140.868 24.1894 140.368 24.3864C139.872 24.5795 139.305 24.6761 138.669 24.6761ZM147.565 24.6705C146.861 24.6705 146.232 24.4905 145.679 24.1307C145.13 23.767 144.698 23.25 144.383 22.5795C144.073 21.9053 143.918 21.0966 143.918 20.1534C143.918 19.2102 144.075 18.4034 144.389 17.733C144.707 17.0625 145.143 16.5492 145.696 16.1932C146.249 15.8371 146.876 15.6591 147.577 15.6591C148.118 15.6591 148.554 15.75 148.883 15.9318C149.217 16.1098 149.474 16.3182 149.656 16.5568C149.842 16.7955 149.986 17.0057 150.088 17.1875H150.19V12.8636H151.889V24.5H150.23V23.142H150.088C149.986 23.3277 149.838 23.5398 149.645 23.7784C149.455 24.017 149.194 24.2254 148.861 24.4034C148.527 24.5814 148.096 24.6705 147.565 24.6705ZM147.94 23.2216C148.429 23.2216 148.842 23.0928 149.179 22.8352C149.52 22.5739 149.777 22.2121 149.952 21.75C150.13 21.2879 150.219 20.75 150.219 20.1364C150.219 19.5303 150.132 19 149.957 18.5455C149.783 18.0909 149.527 17.7367 149.19 17.483C148.853 17.2292 148.437 17.1023 147.94 17.1023C147.429 17.1023 147.003 17.2348 146.662 17.5C146.321 17.7652 146.063 18.1269 145.889 18.5852C145.719 19.0436 145.633 19.5606 145.633 20.1364C145.633 20.7197 145.721 21.2443 145.895 21.7102C146.069 22.1761 146.327 22.5455 146.668 22.8182C147.012 23.0871 147.437 23.2216 147.94 23.2216ZM158.548 24.5V15.7727H160.247V24.5H158.548ZM159.406 14.4261C159.111 14.4261 158.857 14.3277 158.645 14.1307C158.437 13.9299 158.332 13.6913 158.332 13.4148C158.332 13.1345 158.437 12.8958 158.645 12.6989C158.857 12.4981 159.111 12.3977 159.406 12.3977C159.702 12.3977 159.954 12.4981 160.162 12.6989C160.374 12.8958 160.48 13.1345 160.48 13.4148C160.48 13.6913 160.374 13.9299 160.162 14.1307C159.954 14.3277 159.702 14.4261 159.406 14.4261ZM164.232 19.3182V24.5H162.533V15.7727H164.163V17.1932H164.271C164.472 16.7311 164.786 16.3598 165.214 16.0795C165.646 15.7992 166.19 15.6591 166.845 15.6591C167.44 15.6591 167.961 15.7841 168.408 16.0341C168.855 16.2803 169.201 16.6477 169.447 17.1364C169.694 17.625 169.817 18.2292 169.817 18.9489V24.5H168.118V19.1534C168.118 18.5208 167.953 18.0265 167.624 17.6705C167.294 17.3106 166.841 17.1307 166.266 17.1307C165.872 17.1307 165.521 17.2159 165.214 17.3864C164.911 17.5568 164.671 17.8068 164.493 18.1364C164.319 18.4621 164.232 18.8561 164.232 19.3182Z" fill="black"/>
<path d="M60.5312 33.5632V31.1364H70.9812V33.5632H67.2322V43.5H64.2862V33.5632H60.5312ZM75.4304 43.6751C74.4605 43.6751 73.6233 43.4839 72.919 43.1016C72.2187 42.7152 71.6794 42.1658 71.3011 41.4535C70.9268 40.7371 70.7397 39.8859 70.7397 38.8999C70.7397 37.942 70.9289 37.1049 71.3072 36.3885C71.6855 35.6681 72.2187 35.1087 72.907 34.7102C73.5952 34.3078 74.4061 34.1065 75.3398 34.1065C75.9999 34.1065 76.6036 34.2092 77.1509 34.4144C77.6983 34.6197 78.1712 34.9235 78.5696 35.326C78.968 35.7285 79.2779 36.2255 79.4993 36.8171C79.7206 37.4047 79.8313 38.0788 79.8313 38.8395V39.576H71.772V37.8615H77.0845C77.0805 37.5476 77.006 37.2679 76.8611 37.0224C76.7163 36.7769 76.517 36.5857 76.2635 36.4489C76.014 36.308 75.7262 36.2376 75.4002 36.2376C75.0702 36.2376 74.7744 36.312 74.5128 36.4609C74.2512 36.6058 74.0439 36.805 73.891 37.0586C73.738 37.3081 73.6575 37.5919 73.6495 37.9098V39.6545C73.6495 40.0328 73.724 40.3648 73.8729 40.6506C74.0218 40.9323 74.2331 41.1516 74.5067 41.3086C74.7804 41.4655 75.1064 41.544 75.4847 41.544C75.7463 41.544 75.9838 41.5078 76.1971 41.4354C76.4104 41.3629 76.5935 41.2563 76.7464 41.1154C76.8994 40.9745 77.0141 40.8015 77.0905 40.5962L79.8011 40.6747C79.6884 41.2824 79.4409 41.8117 79.0586 42.2624C78.6803 42.7092 78.1832 43.0573 77.5675 43.3068C76.9517 43.5523 76.2393 43.6751 75.4304 43.6751ZM83.953 43.657C83.3614 43.657 82.8362 43.5584 82.3774 43.3611C81.9226 43.1599 81.5624 42.8581 81.2968 42.4556C81.0352 42.0491 80.9044 41.54 80.9044 40.9283C80.9044 40.4131 80.9949 39.9785 81.176 39.6243C81.3571 39.2701 81.6067 38.9824 81.9246 38.761C82.2426 38.5396 82.6088 38.3726 83.0233 38.2599C83.4379 38.1432 83.8806 38.0647 84.3515 38.0245C84.8787 37.9762 85.3033 37.9259 85.6253 37.8736C85.9472 37.8172 86.1807 37.7388 86.3255 37.6381C86.4745 37.5335 86.5489 37.3866 86.5489 37.1974V37.1673C86.5489 36.8574 86.4423 36.6179 86.229 36.4489C86.0156 36.2798 85.7279 36.1953 85.3657 36.1953C84.9753 36.1953 84.6614 36.2798 84.4239 36.4489C84.1865 36.6179 84.0355 36.8513 83.9711 37.1491L81.2485 37.0526C81.329 36.4891 81.5362 35.986 81.8703 35.5433C82.2084 35.0966 82.6712 34.7464 83.2588 34.4929C83.8504 34.2353 84.5607 34.1065 85.3898 34.1065C85.9814 34.1065 86.5268 34.177 87.0258 34.3178C87.5249 34.4547 87.9595 34.6559 88.3298 34.9215C88.7001 35.1831 88.9858 35.5051 89.187 35.8874C89.3923 36.2698 89.4949 36.7064 89.4949 37.1974V43.5H86.7179V42.2081H86.6455C86.4805 42.522 86.2692 42.7876 86.0116 43.005C85.7581 43.2223 85.4582 43.3853 85.1121 43.494C84.77 43.6026 84.3837 43.657 83.953 43.657ZM84.8646 41.7251C85.1826 41.7251 85.4683 41.6607 85.7218 41.532C85.9794 41.4032 86.1847 41.2261 86.3376 41.0007C86.4906 40.7713 86.567 40.5057 86.567 40.2038V39.3224C86.4825 39.3667 86.3799 39.407 86.2591 39.4432C86.1424 39.4794 86.0136 39.5136 85.8728 39.5458C85.7319 39.578 85.587 39.6062 85.4381 39.6303C85.2892 39.6545 85.1463 39.6766 85.0095 39.6967C84.7318 39.741 84.4943 39.8094 84.2971 39.902C84.104 39.9945 83.955 40.1153 83.8504 40.2642C83.7498 40.4091 83.6995 40.5821 83.6995 40.7834C83.6995 41.0892 83.8081 41.3227 84.0255 41.4837C84.2468 41.6446 84.5265 41.7251 84.8646 41.7251ZM102.523 35.6158H99.5042C99.4639 35.3059 99.3814 35.0262 99.2566 34.7766C99.1319 34.5271 98.9669 34.3138 98.7616 34.1367C98.5564 33.9596 98.3129 33.8248 98.0312 33.7322C97.7535 33.6356 97.4456 33.5874 97.1075 33.5874C96.5078 33.5874 95.9907 33.7343 95.556 34.0281C95.1254 34.3218 94.7933 34.7464 94.5599 35.3018C94.3305 35.8572 94.2158 36.5294 94.2158 37.3182C94.2158 38.1392 94.3325 38.8274 94.566 39.3828C94.8034 39.9342 95.1354 40.3507 95.562 40.6325C95.9927 40.9102 96.5018 41.049 97.0894 41.049C97.4194 41.049 97.7192 41.0067 97.9889 40.9222C98.2626 40.8377 98.502 40.715 98.7073 40.554C98.9166 40.389 99.0876 40.1897 99.2204 39.9563C99.3573 39.7189 99.4518 39.4512 99.5042 39.1534L102.523 39.1715C102.47 39.7189 102.311 40.2582 102.046 40.7894C101.784 41.3207 101.424 41.8056 100.965 42.2443C100.506 42.679 99.9469 43.0251 99.2868 43.2827C98.6308 43.5402 97.8782 43.669 97.029 43.669C95.9102 43.669 94.908 43.4235 94.0226 42.9325C93.1412 42.4375 92.445 41.7171 91.9339 40.7713C91.4227 39.8255 91.1672 38.6745 91.1672 37.3182C91.1672 35.9579 91.4267 34.8048 91.9459 33.859C92.4651 32.9132 93.1674 32.1948 94.0528 31.7038C94.9382 31.2128 95.9303 30.9673 97.029 30.9673C97.7776 30.9673 98.4698 31.072 99.1057 31.2812C99.7416 31.4865 100.301 31.7883 100.784 32.1868C101.267 32.5812 101.659 33.0662 101.961 33.6417C102.263 34.2172 102.45 34.8752 102.523 35.6158ZM108.561 43.6751C107.587 43.6751 106.75 43.4758 106.05 43.0774C105.353 42.6749 104.816 42.1155 104.438 41.3991C104.064 40.6787 103.876 39.8436 103.876 38.8938C103.876 37.94 104.064 37.1049 104.438 36.3885C104.816 35.6681 105.353 35.1087 106.05 34.7102C106.75 34.3078 107.587 34.1065 108.561 34.1065C109.535 34.1065 110.37 34.3078 111.066 34.7102C111.767 35.1087 112.304 35.6681 112.678 36.3885C113.057 37.1049 113.246 37.94 113.246 38.8938C113.246 39.8436 113.057 40.6787 112.678 41.3991C112.304 42.1155 111.767 42.6749 111.066 43.0774C110.37 43.4758 109.535 43.6751 108.561 43.6751ZM108.579 41.4474C108.933 41.4474 109.233 41.3388 109.479 41.1214C109.724 40.9041 109.911 40.6023 110.04 40.2159C110.173 39.8295 110.239 39.3828 110.239 38.8757C110.239 38.3606 110.173 37.9098 110.04 37.5234C109.911 37.1371 109.724 36.8352 109.479 36.6179C109.233 36.4006 108.933 36.2919 108.579 36.2919C108.213 36.2919 107.903 36.4006 107.649 36.6179C107.4 36.8352 107.209 37.1371 107.076 37.5234C106.947 37.9098 106.883 38.3606 106.883 38.8757C106.883 39.3828 106.947 39.8295 107.076 40.2159C107.209 40.6023 107.4 40.9041 107.649 41.1214C107.903 41.3388 108.213 41.4474 108.579 41.4474ZM117.71 38.2116V43.5H114.758V34.2273H117.565V35.9297H117.668C117.873 35.3622 118.223 34.9175 118.718 34.5955C119.213 34.2695 119.803 34.1065 120.487 34.1065C121.139 34.1065 121.704 34.2534 122.183 34.5472C122.666 34.837 123.041 35.2435 123.306 35.7667C123.576 36.2859 123.709 36.8936 123.705 37.5898V43.5H120.753V38.1694C120.757 37.6542 120.626 37.2518 120.36 36.962C120.099 36.6722 119.734 36.5273 119.268 36.5273C118.958 36.5273 118.684 36.5958 118.447 36.7326C118.213 36.8654 118.032 37.0566 117.903 37.3061C117.778 37.5556 117.714 37.8575 117.71 38.2116ZM129.161 43.5V41.3508L133.67 37.4027C134.008 37.0968 134.296 36.8171 134.533 36.5636C134.771 36.306 134.952 36.0484 135.077 35.7908C135.202 35.5292 135.264 35.2455 135.264 34.9396C135.264 34.5975 135.189 34.3057 135.041 34.0643C134.892 33.8188 134.686 33.6296 134.425 33.4968C134.163 33.364 133.863 33.2976 133.525 33.2976C133.183 33.2976 132.883 33.368 132.626 33.5089C132.368 33.6457 132.167 33.8449 132.022 34.1065C131.881 34.3681 131.811 34.6861 131.811 35.0604H128.979C128.979 34.2192 129.169 33.4928 129.547 32.881C129.925 32.2693 130.457 31.7984 131.141 31.4684C131.829 31.1343 132.628 30.9673 133.537 30.9673C134.475 30.9673 135.29 31.1243 135.982 31.4382C136.675 31.7521 137.21 32.1908 137.588 32.7543C137.97 33.3137 138.162 33.9637 138.162 34.7042C138.162 35.1751 138.067 35.6419 137.878 36.1048C137.689 36.5676 137.349 37.0787 136.858 37.6381C136.371 38.1976 135.678 38.8677 134.781 39.6484L133.302 41.0128V41.0913H138.313V43.5H129.161ZM145.115 43.8018C144.036 43.8018 143.106 43.5463 142.326 43.0352C141.545 42.52 140.943 41.7815 140.521 40.8196C140.098 39.8537 139.889 38.6926 139.893 37.3363C139.897 35.98 140.108 34.8289 140.527 33.8832C140.949 32.9334 141.549 32.2109 142.326 31.7159C143.106 31.2169 144.036 30.9673 145.115 30.9673C146.193 30.9673 147.123 31.2169 147.904 31.7159C148.689 32.2109 149.292 32.9334 149.715 33.8832C150.137 34.833 150.347 35.984 150.343 37.3363C150.343 38.6966 150.131 39.8597 149.709 40.8256C149.286 41.7915 148.685 42.5301 147.904 43.0412C147.127 43.5483 146.197 43.8018 145.115 43.8018ZM145.115 41.3569C145.759 41.3569 146.28 41.0289 146.678 40.3729C147.077 39.7128 147.274 38.7006 147.27 37.3363C147.27 36.4428 147.179 35.7063 146.998 35.1268C146.817 34.5432 146.566 34.1085 146.244 33.8228C145.922 33.537 145.545 33.3942 145.115 33.3942C144.475 33.3942 143.958 33.7182 143.563 34.3661C143.169 35.0101 142.97 36.0001 142.966 37.3363C142.962 38.2418 143.048 38.9924 143.225 39.5881C143.406 40.1837 143.66 40.6284 143.986 40.9222C144.312 41.212 144.688 41.3569 145.115 41.3569ZM152.054 43.5V41.3508L156.564 37.4027C156.902 37.0968 157.19 36.8171 157.427 36.5636C157.664 36.306 157.846 36.0484 157.97 35.7908C158.095 35.5292 158.157 35.2455 158.157 34.9396C158.157 34.5975 158.083 34.3057 157.934 34.0643C157.785 33.8188 157.58 33.6296 157.318 33.4968C157.057 33.364 156.757 33.2976 156.419 33.2976C156.077 33.2976 155.777 33.368 155.519 33.5089C155.262 33.6457 155.061 33.8449 154.916 34.1065C154.775 34.3681 154.704 34.6861 154.704 35.0604H151.873C151.873 34.2192 152.062 33.4928 152.44 32.881C152.819 32.2693 153.35 31.7984 154.034 31.4684C154.722 31.1343 155.521 30.9673 156.431 30.9673C157.369 30.9673 158.184 31.1243 158.876 31.4382C159.568 31.7521 160.103 32.1908 160.482 32.7543C160.864 33.3137 161.055 33.9637 161.055 34.7042C161.055 35.1751 160.961 35.6419 160.771 36.1048C160.582 36.5676 160.242 37.0787 159.751 37.6381C159.264 38.1976 158.572 38.8677 157.675 39.6484L156.195 41.0128V41.0913H161.206V43.5H152.054ZM167.598 43.669C166.656 43.669 165.821 43.508 165.092 43.1861C164.368 42.8601 163.796 42.4113 163.378 41.8398C162.959 41.2683 162.746 40.6103 162.738 39.8658H165.744C165.756 40.1354 165.843 40.3749 166.004 40.5842C166.165 40.7894 166.384 40.9504 166.662 41.0671C166.94 41.1838 167.256 41.2422 167.61 41.2422C167.964 41.2422 168.276 41.1798 168.546 41.055C168.819 40.9262 169.032 40.7512 169.185 40.5298C169.338 40.3044 169.413 40.0469 169.409 39.7571C169.413 39.4673 169.33 39.2097 169.161 38.9844C168.992 38.759 168.753 38.5839 168.443 38.4592C168.137 38.3344 167.775 38.272 167.356 38.272H166.155V36.147H167.356C167.722 36.147 168.044 36.0866 168.322 35.9659C168.604 35.8452 168.823 35.6761 168.98 35.4588C169.137 35.2374 169.214 34.9839 169.21 34.6981C169.214 34.4205 169.147 34.177 169.01 33.9677C168.878 33.7544 168.69 33.5894 168.449 33.4727C168.211 33.3559 167.936 33.2976 167.622 33.2976C167.292 33.2976 166.992 33.3559 166.722 33.4727C166.457 33.5894 166.245 33.7544 166.088 33.9677C165.932 34.181 165.849 34.4285 165.841 34.7102H162.985C162.994 33.9737 163.199 33.3258 163.601 32.7663C164.004 32.2029 164.551 31.7622 165.243 31.4442C165.94 31.1263 166.732 30.9673 167.622 30.9673C168.507 30.9673 169.286 31.1223 169.958 31.4322C170.63 31.7421 171.153 32.1647 171.528 32.6999C171.902 33.2312 172.089 33.8329 172.089 34.505C172.093 35.2012 171.866 35.7747 171.407 36.2255C170.952 36.6763 170.367 36.9539 169.65 37.0586V37.1552C170.608 37.2679 171.331 37.5778 171.818 38.0849C172.309 38.592 172.552 39.2258 172.548 39.9865C172.548 40.7029 172.337 41.3388 171.914 41.8942C171.496 42.4455 170.912 42.8802 170.163 43.1981C169.419 43.5121 168.564 43.669 167.598 43.669Z" fill="black"/>
</g>
<defs>
<filter id="filter0_d_17_3182" x="54.4" y="3.9" width="125.2" height="48.2" filterUnits="userSpaceOnUse" color-interpolation-filters="sRGB">
<feFlood flood-opacity="0" result="BackgroundImageFix"/>
<feColorMatrix in="SourceAlpha" type="matrix" values="0 0 0 0 0 0 0 0 0 0 0 0 0 0 0 0 0 0 127 0" result="hardAlpha"/>
<feOffset/>
<feGaussianBlur stdDeviation="2.8"/>
<feComposite in2="hardAlpha" operator="out"/>
<feColorMatrix type="matrix" values="0 0 0 0 0 0 0 0 0 0 0 0 0 0 0 0 0 0 0.25 0"/>
<feBlend mode="normal" in2="BackgroundImageFix" result="effect1_dropShadow_17_3182"/>
<feBlend mode="normal" in="SourceGraphic" in2="effect1_dropShadow_17_3182" result="shape"/>
</filter>
<linearGradient id="paint0_linear_17_3182" x1="93" y1="0" x2="93" y2="56" gradientUnits="userSpaceOnUse">
<stop stop-color="#EBB000"/>
<stop offset="1" stop-color="#EB5C00"/>
</linearGradient>
</defs>
</svg>
