<svg width="353" height="56" viewBox="0 0 353 56" fill="none" xmlns="http://www.w3.org/2000/svg">
<rect width="353" height="56" rx="8" fill="url(#paint0_linear_17_3422)"/>
<rect x="1.05" y="1.05" width="350.9" height="53.9" rx="6.95" stroke="white" stroke-opacity="0.15" stroke-width="2.1"/>
<path d="M24.3711 8.18346C22.3164 9.10426 21.0588 10.106 20.4577 11.2997C20.1764 11.8624 20.0187 12.5828 20.0272 13.2521C20.0357 13.7679 20.0613 13.8532 20.2148 13.8702C20.283 13.8788 20.3853 13.9214 20.4407 13.9683C20.6538 14.1345 21.2123 14.0322 21.8603 13.704C23.0326 13.1157 23.9875 11.6961 24.4948 9.78633C24.5928 9.41545 24.8401 8.14936 24.8401 8.01294C24.8401 7.97884 24.7718 8.00442 24.3711 8.18346Z" fill="black"/>
<path d="M17.7252 9.79911C16.3184 12.4379 16.1394 14.3477 17.1497 16.0529C17.3969 16.4706 17.6868 16.8117 17.8317 16.8458C17.9895 16.8884 18.2069 16.7221 18.501 16.3257C19.814 14.5779 19.7842 12.8045 18.3902 10.008C18.2026 9.62859 18.0321 9.31739 18.0151 9.31739C17.998 9.31739 17.8658 9.53481 17.7252 9.79911Z" fill="black"/>
<path d="M23.3565 13.623C22.4954 13.9001 22.035 14.0876 21.4723 14.3775C20.3085 14.9786 19.4474 15.7587 19.0211 16.607C18.744 17.157 18.5735 17.8817 18.5735 18.5041V18.7726L18.727 18.7982C18.8079 18.8153 18.9103 18.8664 18.9486 18.9133C19.0765 19.0582 19.3025 19.0923 19.7245 19.0199C20.5259 18.8792 21.0588 18.6064 21.6556 18.0266C22.5721 17.1399 23.2499 15.8738 23.7359 14.1686C23.8297 13.8319 23.915 13.5335 23.9235 13.5036C23.9491 13.4354 23.9533 13.4312 23.3565 13.623Z" fill="black"/>
<path d="M14.7454 15.7417C14.0036 18.3548 14.1102 20.0344 15.1077 21.4966C15.5639 22.1702 15.9774 22.5325 16.2843 22.5325C16.3823 22.5325 16.4335 22.4814 16.5998 22.2213C16.7106 22.0551 16.8768 21.7439 16.9664 21.535C17.738 19.7488 17.269 17.9712 15.4189 15.6479C15.1845 15.3537 14.9756 15.115 14.9585 15.115C14.9372 15.115 14.8392 15.3964 14.7454 15.7417Z" fill="black"/>
<path d="M20.5131 19.0028C19.3578 19.8298 18.3816 20.7123 17.8999 21.3602C17.6186 21.7396 17.2775 22.4174 17.1667 22.8309C16.9876 23.496 16.9834 24.2718 17.1454 25.0008C17.2093 25.2736 17.2264 25.3035 17.3159 25.3035C17.3756 25.3035 17.4864 25.3333 17.5631 25.3717C17.6953 25.4356 17.7294 25.4356 17.9383 25.3717C18.5436 25.1926 19.3067 24.6086 19.7756 23.9521C20.658 22.7286 20.965 21.4668 21.046 18.7257C21.046 18.649 20.9095 18.7215 20.5131 19.0028Z" fill="black"/>
<path d="M12.7076 21.9656C12.7801 23.351 13.0401 24.5575 13.4749 25.4953C13.8202 26.2371 14.4725 27.0683 15.0138 27.4563C15.5425 27.8357 16.1947 28.0616 16.2927 27.9039C16.3055 27.8783 16.3737 27.8612 16.4419 27.8612C16.5954 27.8612 16.6252 27.8101 16.7233 27.3497C16.8384 26.8168 16.8256 25.8704 16.702 25.41C16.3908 24.2548 15.4828 23.1677 13.9865 22.1574C13.6668 21.9443 12.7374 21.3816 12.7033 21.3816C12.6905 21.3816 12.6905 21.6459 12.7076 21.9656Z" fill="black"/>
<path d="M20.381 24.0757C19.6094 24.8687 19.1191 25.5081 18.582 26.4118C18.2367 26.9959 17.9809 27.8527 17.9468 28.5518C17.9084 29.3149 18.0534 30.0226 18.3902 30.6918L18.5351 30.9817L18.7866 30.9647C18.9742 30.9519 19.0808 30.9135 19.2172 30.8197C19.9376 30.3252 20.6495 29.332 20.9309 28.4325C21.2634 27.3753 21.2506 25.9898 20.8882 24.2676C20.8286 23.9692 20.7646 23.7262 20.7518 23.7262C20.7348 23.7262 20.5685 23.8839 20.381 24.0757Z" fill="black"/>
<path d="M12.0213 27.4946C12.0639 27.6822 12.648 28.8886 12.8824 29.2723C14.0633 31.2162 15.3251 32.1839 16.8086 32.2819C17.2477 32.3117 17.4736 32.2563 17.5759 32.1029C17.61 32.0474 17.7209 31.9835 17.836 31.9537L18.0321 31.8982L18.0022 31.6126C17.9426 30.9433 17.5802 30.0822 17.1241 29.5067C16.2587 28.4239 14.9627 27.8527 12.5286 27.4818L12 27.4051L12.0213 27.4946Z" fill="black"/>
<path d="M21.468 29.3448C19.5624 31.7874 19.0935 33.8336 20.01 35.6965C20.0953 35.8671 20.2189 36.0845 20.2829 36.174C20.3894 36.3189 20.4321 36.3445 20.56 36.3445C20.7774 36.3445 20.9053 36.2635 21.2676 35.8841C22.6062 34.4816 22.9302 32.785 22.3035 30.4233C22.1415 29.8265 21.8559 28.927 21.8218 28.927C21.8047 28.927 21.647 29.1146 21.468 29.3448Z" fill="black"/>
<path d="M23.7572 32.7722C22.5635 35.1978 22.376 36.8987 23.1348 38.4547C23.5099 39.2305 23.949 39.7549 24.1707 39.6952C24.3028 39.6611 24.5842 39.3712 24.8144 39.0344C25.8759 37.4486 25.91 35.9608 24.938 33.7441C24.7291 33.2667 24.1323 32.1242 24.0939 32.1242C24.0854 32.1242 23.9362 32.4183 23.7572 32.7722Z" fill="black"/>
<path d="M12.9037 32.1796C12.9037 32.1924 13.0145 32.3927 13.1552 32.6229C13.2916 32.8531 13.4834 33.1814 13.5815 33.3519C13.9865 34.051 14.9968 35.1679 15.632 35.6155C16.3737 36.1399 17.0558 36.3829 17.87 36.417C18.4881 36.4425 18.7056 36.3956 18.8931 36.1953C18.9613 36.1143 19.1148 36.012 19.2256 35.9651C19.3365 35.9182 19.426 35.85 19.426 35.8201C19.426 35.6965 19.2001 35.0784 19.0423 34.7587C18.6374 33.9444 18.1514 33.4286 17.3713 32.981C16.6593 32.5718 16.0583 32.3842 15.0991 32.2734C14.5279 32.2052 12.9037 32.1327 12.9037 32.1796Z" fill="black"/>
<path d="M26.6134 35.266C26.4727 35.9651 26.4045 36.6898 26.4003 37.5595C26.396 38.7829 26.5196 39.4693 26.8905 40.2963C27.1889 40.9655 27.8539 41.8011 28.3569 42.1421C28.5275 42.2615 28.6212 42.2913 28.8344 42.3041L29.0987 42.3212L29.201 42.1165C29.6912 41.1446 29.8277 39.9424 29.5506 39.0089C29.3374 38.2884 28.9751 37.6404 28.3484 36.8561C28.0713 36.5065 26.7328 35.1509 26.6688 35.1509C26.6518 35.1509 26.6262 35.202 26.6134 35.266Z" fill="black"/>
<path d="M17.2094 36.6855C16.9152 36.7282 16.4506 36.8006 16.1692 36.8518C15.8921 36.8987 15.6577 36.9413 15.6449 36.9413C15.6364 36.9413 15.7856 37.1204 15.9774 37.3378C16.1692 37.5552 16.3781 37.828 16.4421 37.9474C16.5145 38.0795 16.7149 38.2969 16.9792 38.5314C18.6289 39.9936 20.1593 40.5179 21.6215 40.13C21.9327 40.049 21.9839 40.0192 22.197 39.8018C22.3249 39.6696 22.504 39.5247 22.5935 39.4778C22.7896 39.3755 22.7853 39.3328 22.5338 38.8852C21.9242 37.8067 21.0119 37.0948 19.895 36.822C18.9657 36.5918 18.1472 36.5534 17.2094 36.6855Z" fill="black"/>
<path d="M30.2113 38.9193C30.2113 39.0216 30.7911 40.4071 30.9999 40.8078C32.0913 42.9052 33.4298 44.0221 34.9261 44.0946L35.3567 44.1116L35.4888 43.9837C35.5656 43.9112 35.6935 43.8388 35.7745 43.8217C35.8554 43.8089 35.9364 43.7791 35.945 43.7578C35.9578 43.7407 35.945 43.5446 35.9194 43.3272C35.8299 42.5812 35.557 41.8437 35.1819 41.3151C34.9474 40.9826 34.406 40.4668 34.048 40.2323C33.3531 39.7719 32.3001 39.3669 31.0213 39.0685C30.2966 38.9023 30.2113 38.8852 30.2113 38.9193Z" fill="black"/>
<path d="M22.5509 40.2664C22.0393 40.3218 21.5661 40.4241 20.9821 40.6117C20.3299 40.8206 19.4943 41.1446 19.4815 41.1915C19.4773 41.2085 19.6393 41.3492 19.8396 41.4984C20.0656 41.6689 20.2275 41.8266 20.2574 41.9034C20.3299 42.0782 20.445 42.1762 20.8585 42.432C22.0947 43.1951 23.3267 43.5872 24.3498 43.5361C25.1555 43.4935 26.055 43.1609 26.2681 42.8242C26.3236 42.7389 26.4856 42.5599 26.6348 42.4277L26.9033 42.1933L26.7243 41.9588C26.1189 41.1574 25.2536 40.5691 24.3669 40.3517C23.9491 40.2494 23.0837 40.211 22.5509 40.2664Z" fill="black"/>
<path d="M27.9733 42.9052C27.1122 43.0885 26.2468 43.4721 25.3388 44.0775C24.3583 44.734 23.9959 45.0409 24.2048 45.0409C24.2304 45.0409 24.3881 45.1049 24.5629 45.1859C24.7889 45.2882 24.8912 45.3649 24.9295 45.4502C25.0105 45.6164 25.2024 45.7017 25.8844 45.8764C27.3424 46.2431 28.472 46.2345 29.4909 45.8551C30.0195 45.6548 30.6675 45.1773 30.919 44.7979C31.0085 44.6658 31.1833 44.4143 31.3069 44.2352C31.5755 43.8643 31.5883 43.907 31.0852 43.5702C30.6845 43.3016 30.2667 43.1098 29.8063 42.9691C29.2863 42.8157 28.536 42.7901 27.9733 42.9052Z" fill="black"/>
<path d="M33.2166 44.7169C32.6113 44.8619 32.1552 45.0537 31.4305 45.4757C30.8592 45.8082 29.2649 47.0957 29.3374 47.1681C29.3544 47.1809 29.5334 47.2491 29.7338 47.3216C30.045 47.4282 30.1089 47.4665 30.1175 47.5475C30.1388 47.6925 30.386 47.7863 31.0212 47.9056C31.4731 47.9866 31.6948 48.0037 32.4919 47.9994C33.3744 47.9994 33.4554 47.9909 33.8561 47.8843C34.9602 47.5859 35.6337 47.0743 36.2646 46.064C36.4522 45.7613 36.6057 45.497 36.6057 45.48C36.6057 45.3862 35.7062 44.9301 35.1989 44.7638C34.892 44.6615 34.747 44.6445 34.2397 44.6317C33.7239 44.6189 33.5832 44.6274 33.2166 44.7169Z" fill="black"/>
<path d="M56.5326 20.8078C56.8044 20.6289 57.0762 20.45 57.3016 20.2555C57.5271 20.0609 57.7063 19.8505 57.8118 19.6472C57.9173 19.4438 57.9491 19.2473 57.9308 19.0361C57.9125 18.8249 57.8439 18.5989 57.7509 18.3236C57.658 18.0482 57.5408 17.7235 57.4893 17.4208C57.4377 17.1181 57.4521 16.8376 57.4878 16.6296C57.5235 16.4215 57.5806 16.2861 57.6301 16.1537C57.6797 16.0213 57.7218 15.8918 57.8244 15.6904C57.927 15.489 58.0901 15.2158 58.2532 14.9425" stroke="black" stroke-width="1.5" stroke-linecap="round"/>
<path d="M68.7284 20.5057C69.0002 20.3268 69.272 20.1479 69.4974 19.9534C69.7229 19.7588 69.9021 19.5484 70.0076 19.3451C70.1131 19.1417 70.1449 18.9452 70.1266 18.734C70.1083 18.5228 70.0397 18.2968 69.9467 18.0215C69.8538 17.7461 69.7366 17.4214 69.6851 17.1187C69.6335 16.8161 69.6479 16.5355 69.6836 16.3275C69.7193 16.1194 69.7764 15.984 69.8259 15.8516C69.8755 15.7192 69.9176 15.5897 70.0202 15.3883C70.1228 15.1869 70.2859 14.9137 70.449 14.6404" stroke="black" stroke-width="1.5" stroke-linecap="round"/>
<path d="M62.895 19.2935C63.1669 19.1146 63.4386 18.9357 63.664 18.7412C63.8895 18.5466 64.0687 18.3362 64.1742 18.1329C64.2798 17.9295 64.3116 17.7329 64.2932 17.5217C64.2749 17.3105 64.2063 17.0846 64.1134 16.8092C64.0204 16.5339 63.9032 16.2092 63.8517 15.9065C63.8002 15.6038 63.8145 15.3233 63.8502 15.1153C63.8859 14.9072 63.943 14.7718 63.9926 14.6394C64.0421 14.507 64.0842 14.3775 64.1868 14.1761C64.2894 13.9747 64.4525 13.7015 64.6156 13.4282" stroke="black" stroke-width="1.5" stroke-linecap="round"/>
<path d="M80.479 39.4322C80.1531 39.4339 59.2704 39.5444 53.8675 39.5233C48.4647 39.5021 48.4267 39.4024 48.4266 39.5544C48.4266 39.7063 48.4645 40.11 48.6138 40.497C48.763 40.8841 49.0232 41.2545 49.3576 41.5847C49.692 41.9149 50.086 42.1947 50.3788 42.3561C50.6716 42.5174 50.8559 42.5554 55.4373 42.5696C60.0187 42.5838 68.9969 42.5743 73.5294 42.5505C78.0618 42.5267 78.1486 42.4888 78.4034 42.3748C78.6582 42.2608 79.0811 42.0708 79.4822 41.7432C79.8833 41.4156 80.2628 40.9502 80.4743 40.5941C80.6857 40.2381 80.7163 40.0635 80.7514 39.8364C80.7865 39.6092 80.7942 39.535 80.805 39.4305C80.805 39.4305 80.805 39.4305 80.479 39.4322Z" stroke="black" stroke-width="1.4" stroke-linecap="round" stroke-linejoin="round"/>
<path d="M76.2782 26.7325C76.1913 26.1198 76.1043 25.5066 75.9264 25.1406C75.7486 24.7745 75.4796 24.6559 75.298 24.5962C75.1163 24.5365 75.0221 24.5361 71.1763 24.5526C67.3305 24.5692 59.7334 24.6028 55.9053 24.6201C52.0772 24.6375 52.0181 24.6387 51.947 24.6452C51.8759 24.6517 51.7929 24.6635 51.676 24.7248C51.5592 24.7862 51.4089 24.8969 51.2854 25.0629C51.162 25.2288 51.0685 25.4431 51.0201 25.978C50.9718 26.513 50.9698 27.3651 50.9857 27.9869C51.0015 28.6088 51.0351 29.0004 51.1627 29.651C51.2903 30.3017 51.5118 31.2112 51.8164 32.121C52.1211 33.0307 52.5087 33.9405 53.1635 34.9143C53.8183 35.8881 54.74 36.9258 55.6005 37.6958C56.4609 38.4658 57.26 38.9682 57.6753 39.2192C58.0906 39.4703 58.1223 39.4703 59.9901 39.4644C61.858 39.4584 65.5619 39.4466 67.4296 39.4346C69.2974 39.4227 69.329 39.4109 69.7303 39.1254C70.1316 38.8399 70.9026 38.2808 71.6323 37.6651C72.362 37.0493 73.0503 36.3768 73.6792 35.5303C74.3082 34.6838 74.8778 33.6632 75.2903 32.7063C75.7027 31.7493 75.9538 30.8706 76.0922 29.8896C76.2306 28.9086 76.2545 27.8168 76.2901 27.2509C76.3257 26.685 76.3732 26.6375 76.6305 26.627C76.8879 26.6165 77.3547 26.6428 77.8175 26.7154C78.2804 26.788 78.7393 26.9067 79.0873 27.1165C79.4354 27.3263 79.6727 27.6269 79.8703 27.909C80.0679 28.1911 80.2257 28.4545 80.3409 28.8435C80.4561 29.2326 80.5288 29.7473 80.5456 30.2591C80.5623 30.771 80.5231 31.2801 80.4112 31.7331C80.2993 32.1862 80.1147 32.5834 79.8266 32.9945C79.5385 33.4056 79.1469 33.8308 78.7106 34.2083C78.2743 34.5859 77.7932 34.916 77.2254 35.2209C76.6576 35.5258 76.0031 35.8055 75.3011 35.9957C74.599 36.1859 73.8494 36.2866 73.0994 36.3874" stroke="black" stroke-width="1.4" stroke-linecap="round"/>
<g filter="url(#filter0_d_17_3422)">
<path d="M103.276 12.8636V24.5H101.663L95.7478 15.9659H95.6398V24.5H93.8841V12.8636H95.5091L101.43 21.4091H101.538V12.8636H103.276ZM109.377 24.6761C108.559 24.6761 107.845 24.4886 107.235 24.1136C106.625 23.7386 106.152 23.214 105.815 22.5398C105.477 21.8655 105.309 21.0776 105.309 20.1761C105.309 19.2708 105.477 18.4792 105.815 17.8011C106.152 17.1231 106.625 16.5966 107.235 16.2216C107.845 15.8466 108.559 15.6591 109.377 15.6591C110.195 15.6591 110.909 15.8466 111.519 16.2216C112.129 16.5966 112.602 17.1231 112.94 17.8011C113.277 18.4792 113.445 19.2708 113.445 20.1761C113.445 21.0776 113.277 21.8655 112.94 22.5398C112.602 23.214 112.129 23.7386 111.519 24.1136C110.909 24.4886 110.195 24.6761 109.377 24.6761ZM109.383 23.25C109.913 23.25 110.352 23.1098 110.701 22.8295C111.049 22.5492 111.307 22.1761 111.474 21.7102C111.644 21.2443 111.729 20.7311 111.729 20.1705C111.729 19.6136 111.644 19.1023 111.474 18.6364C111.307 18.1667 111.049 17.7898 110.701 17.5057C110.352 17.2216 109.913 17.0795 109.383 17.0795C108.849 17.0795 108.405 17.2216 108.053 17.5057C107.705 17.7898 107.445 18.1667 107.275 18.6364C107.108 19.1023 107.025 19.6136 107.025 20.1705C107.025 20.7311 107.108 21.2443 107.275 21.7102C107.445 22.1761 107.705 22.5492 108.053 22.8295C108.405 23.1098 108.849 23.25 109.383 23.25ZM115.342 24.5V15.7727H116.972V17.1932H117.08C117.262 16.7121 117.559 16.3371 117.972 16.0682C118.385 15.7955 118.879 15.6591 119.455 15.6591C120.038 15.6591 120.527 15.7955 120.921 16.0682C121.319 16.3409 121.612 16.7159 121.802 17.1932H121.893C122.101 16.7273 122.432 16.3561 122.887 16.0795C123.341 15.7992 123.883 15.6591 124.512 15.6591C125.304 15.6591 125.949 15.9072 126.449 16.4034C126.953 16.8996 127.205 17.6477 127.205 18.6477V24.5H125.506V18.8068C125.506 18.2159 125.345 17.7879 125.023 17.5227C124.701 17.2576 124.317 17.125 123.87 17.125C123.317 17.125 122.887 17.2955 122.58 17.6364C122.273 17.9735 122.12 18.4072 122.12 18.9375V24.5H120.427V18.6989C120.427 18.2254 120.279 17.8447 119.984 17.5568C119.688 17.2689 119.304 17.125 118.83 17.125C118.508 17.125 118.211 17.2102 117.938 17.3807C117.669 17.5473 117.451 17.7803 117.285 18.0795C117.122 18.3788 117.04 18.7254 117.04 19.1193V24.5H115.342ZM129.482 24.5V15.7727H131.181V24.5H129.482ZM130.34 14.4261C130.045 14.4261 129.791 14.3276 129.579 14.1307C129.37 13.9299 129.266 13.6913 129.266 13.4148C129.266 13.1345 129.37 12.8958 129.579 12.6989C129.791 12.4981 130.045 12.3977 130.34 12.3977C130.636 12.3977 130.887 12.4981 131.096 12.6989C131.308 12.8958 131.414 13.1345 131.414 13.4148C131.414 13.6913 131.308 13.9299 131.096 14.1307C130.887 14.3276 130.636 14.4261 130.34 14.4261ZM135.165 19.3182V24.5H133.466V15.7727H135.097V17.1932H135.205C135.406 16.7311 135.72 16.3598 136.148 16.0795C136.58 15.7992 137.124 15.6591 137.779 15.6591C138.374 15.6591 138.895 15.7841 139.341 16.0341C139.788 16.2803 140.135 16.6477 140.381 17.1364C140.627 17.625 140.751 18.2292 140.751 18.9489V24.5H139.052V19.1534C139.052 18.5208 138.887 18.0265 138.557 17.6705C138.228 17.3106 137.775 17.1307 137.199 17.1307C136.806 17.1307 136.455 17.2159 136.148 17.3864C135.845 17.5568 135.605 17.8068 135.427 18.1364C135.252 18.4621 135.165 18.8561 135.165 19.3182ZM145.569 24.6932C145.016 24.6932 144.516 24.5909 144.069 24.3864C143.622 24.178 143.268 23.8769 143.006 23.483C142.749 23.089 142.62 22.6061 142.62 22.0341C142.62 21.5417 142.715 21.1364 142.904 20.8182C143.093 20.5 143.349 20.2481 143.671 20.0625C143.993 19.8769 144.353 19.7367 144.751 19.642C145.148 19.5473 145.554 19.4754 145.966 19.4261C146.489 19.3655 146.913 19.3163 147.239 19.2784C147.565 19.2367 147.802 19.1705 147.949 19.0795C148.097 18.9886 148.171 18.8409 148.171 18.6364V18.5966C148.171 18.1004 148.031 17.7159 147.751 17.4432C147.474 17.1705 147.061 17.0341 146.512 17.0341C145.94 17.0341 145.489 17.161 145.16 17.4148C144.834 17.6648 144.609 17.9432 144.484 18.25L142.887 17.8864C143.076 17.3561 143.353 16.928 143.716 16.6023C144.084 16.2727 144.506 16.0341 144.984 15.8864C145.461 15.7348 145.963 15.6591 146.489 15.6591C146.838 15.6591 147.207 15.7008 147.597 15.7841C147.991 15.8636 148.359 16.0114 148.699 16.2273C149.044 16.4432 149.326 16.7519 149.546 17.1534C149.766 17.5511 149.876 18.0682 149.876 18.7045V24.5H148.216V23.3068H148.148C148.038 23.5265 147.874 23.7424 147.654 23.9545C147.434 24.1667 147.152 24.3428 146.807 24.483C146.463 24.6231 146.05 24.6932 145.569 24.6932ZM145.938 23.3295C146.408 23.3295 146.809 23.2367 147.143 23.0511C147.48 22.8655 147.735 22.6231 147.91 22.3239C148.088 22.0208 148.177 21.697 148.177 21.3523V20.2273C148.116 20.2879 147.999 20.3447 147.824 20.3977C147.654 20.447 147.459 20.4905 147.239 20.5284C147.02 20.5625 146.806 20.5947 146.597 20.625C146.389 20.6515 146.215 20.6742 146.074 20.6932C145.745 20.7348 145.444 20.8049 145.171 20.9034C144.902 21.0019 144.686 21.1439 144.523 21.3295C144.364 21.5114 144.285 21.7538 144.285 22.0568C144.285 22.4773 144.44 22.7955 144.751 23.0114C145.061 23.2235 145.457 23.3295 145.938 23.3295ZM156.212 15.7727V17.1364H151.445V15.7727H156.212ZM152.724 13.6818H154.422V21.9375C154.422 22.267 154.472 22.5151 154.57 22.6818C154.669 22.8447 154.796 22.9564 154.951 23.017C155.11 23.0739 155.282 23.1023 155.468 23.1023C155.604 23.1023 155.724 23.0928 155.826 23.0739C155.928 23.0549 156.008 23.0398 156.065 23.0284L156.371 24.4318C156.273 24.4697 156.133 24.5076 155.951 24.5455C155.769 24.5871 155.542 24.6098 155.269 24.6136C154.822 24.6212 154.405 24.5417 154.019 24.375C153.633 24.2083 153.32 23.9508 153.082 23.6023C152.843 23.2538 152.724 22.8163 152.724 22.2898V13.6818ZM161.759 24.6761C160.899 24.6761 160.159 24.4924 159.538 24.125C158.92 23.7538 158.443 23.233 158.106 22.5625C157.772 21.8883 157.606 21.0985 157.606 20.1932C157.606 19.2992 157.772 18.5114 158.106 17.8295C158.443 17.1477 158.913 16.6155 159.515 16.233C160.121 15.8504 160.829 15.6591 161.64 15.6591C162.132 15.6591 162.609 15.7405 163.072 15.9034C163.534 16.0663 163.948 16.322 164.316 16.6705C164.683 17.0189 164.973 17.4716 165.185 18.0284C165.397 18.5814 165.503 19.2538 165.503 20.0455V20.6477H158.566V19.375H163.839C163.839 18.928 163.748 18.5322 163.566 18.1875C163.384 17.839 163.128 17.5644 162.799 17.3636C162.473 17.1629 162.091 17.0625 161.651 17.0625C161.174 17.0625 160.757 17.1799 160.401 17.4148C160.049 17.6458 159.776 17.9489 159.583 18.3239C159.394 18.6951 159.299 19.0985 159.299 19.5341V20.5284C159.299 21.1117 159.401 21.608 159.606 22.017C159.814 22.4261 160.104 22.7386 160.475 22.9545C160.846 23.1667 161.28 23.2727 161.776 23.2727C162.098 23.2727 162.392 23.2273 162.657 23.1364C162.922 23.0417 163.151 22.9015 163.344 22.7159C163.538 22.5303 163.685 22.3011 163.788 22.0284L165.395 22.3182C165.267 22.7917 165.036 23.2064 164.702 23.5625C164.373 23.9148 163.958 24.1894 163.458 24.3864C162.962 24.5795 162.395 24.6761 161.759 24.6761ZM170.655 24.6705C169.951 24.6705 169.322 24.4905 168.769 24.1307C168.22 23.767 167.788 23.25 167.474 22.5795C167.163 21.9053 167.008 21.0966 167.008 20.1534C167.008 19.2102 167.165 18.4034 167.479 17.733C167.797 17.0625 168.233 16.5492 168.786 16.1932C169.339 15.8371 169.966 15.6591 170.667 15.6591C171.208 15.6591 171.644 15.75 171.974 15.9318C172.307 16.1098 172.564 16.3182 172.746 16.5568C172.932 16.7955 173.076 17.0057 173.178 17.1875H173.28V12.8636H174.979V24.5H173.32V23.142H173.178C173.076 23.3276 172.928 23.5398 172.735 23.7784C172.546 24.017 172.284 24.2254 171.951 24.4034C171.618 24.5814 171.186 24.6705 170.655 24.6705ZM171.03 23.2216C171.519 23.2216 171.932 23.0928 172.269 22.8352C172.61 22.5739 172.868 22.2121 173.042 21.75C173.22 21.2879 173.309 20.75 173.309 20.1364C173.309 19.5303 173.222 19 173.047 18.5455C172.873 18.0909 172.618 17.7367 172.28 17.483C171.943 17.2292 171.527 17.1023 171.03 17.1023C170.519 17.1023 170.093 17.2348 169.752 17.5C169.411 17.7651 169.154 18.1269 168.979 18.5852C168.809 19.0436 168.724 19.5606 168.724 20.1364C168.724 20.7197 168.811 21.2443 168.985 21.7102C169.159 22.1761 169.417 22.5455 169.758 22.8182C170.102 23.0871 170.527 23.2216 171.03 23.2216ZM185.792 15.7727V17.1364H180.86V15.7727H185.792ZM182.212 24.5V14.7614C182.212 14.2159 182.332 13.7633 182.57 13.4034C182.809 13.0398 183.125 12.7689 183.519 12.5909C183.913 12.4091 184.341 12.3182 184.803 12.3182C185.144 12.3182 185.436 12.3466 185.678 12.4034C185.921 12.4564 186.1 12.5057 186.218 12.5511L185.82 13.9261C185.741 13.9034 185.638 13.8769 185.513 13.8466C185.388 13.8125 185.237 13.7955 185.059 13.7955C184.646 13.7955 184.35 13.8977 184.172 14.1023C183.998 14.3068 183.911 14.6023 183.911 14.9886V24.5H182.212ZM190.877 24.6761C190.059 24.6761 189.345 24.4886 188.735 24.1136C188.125 23.7386 187.652 23.214 187.314 22.5398C186.977 21.8655 186.809 21.0776 186.809 20.1761C186.809 19.2708 186.977 18.4792 187.314 17.8011C187.652 17.1231 188.125 16.5966 188.735 16.2216C189.345 15.8466 190.059 15.6591 190.877 15.6591C191.695 15.6591 192.409 15.8466 193.019 16.2216C193.629 16.5966 194.102 17.1231 194.439 17.8011C194.777 18.4792 194.945 19.2708 194.945 20.1761C194.945 21.0776 194.777 21.8655 194.439 22.5398C194.102 23.214 193.629 23.7386 193.019 24.1136C192.409 24.4886 191.695 24.6761 190.877 24.6761ZM190.883 23.25C191.413 23.25 191.852 23.1098 192.201 22.8295C192.549 22.5492 192.807 22.1761 192.974 21.7102C193.144 21.2443 193.229 20.7311 193.229 20.1705C193.229 19.6136 193.144 19.1023 192.974 18.6364C192.807 18.1667 192.549 17.7898 192.201 17.5057C191.852 17.2216 191.413 17.0795 190.883 17.0795C190.349 17.0795 189.905 17.2216 189.553 17.5057C189.205 17.7898 188.945 18.1667 188.775 18.6364C188.608 19.1023 188.525 19.6136 188.525 20.1705C188.525 20.7311 188.608 21.2443 188.775 21.7102C188.945 22.1761 189.205 22.5492 189.553 22.8295C189.905 23.1098 190.349 23.25 190.883 23.25ZM196.841 24.5V15.7727H198.484V17.1591H198.574C198.734 16.6894 199.014 16.3201 199.415 16.0511C199.821 15.7784 200.279 15.642 200.79 15.642C200.896 15.642 201.021 15.6458 201.165 15.6534C201.313 15.661 201.429 15.6705 201.512 15.6818V17.3068C201.444 17.2879 201.323 17.267 201.148 17.2443C200.974 17.2178 200.8 17.2045 200.626 17.2045C200.224 17.2045 199.866 17.2898 199.552 17.4602C199.241 17.6269 198.995 17.8598 198.813 18.1591C198.631 18.4545 198.54 18.7917 198.54 19.1705V24.5H196.841Z" fill="black"/>
<path d="M93.137 33.5632V31.1364H103.587V33.5632H99.838V43.5H96.8919V33.5632H93.137ZM108.036 43.6751C107.066 43.6751 106.229 43.4839 105.525 43.1016C104.824 42.7152 104.285 42.1658 103.907 41.4535C103.533 40.7371 103.345 39.8859 103.345 38.8999C103.345 37.942 103.535 37.1049 103.913 36.3885C104.291 35.6681 104.824 35.1087 105.513 34.7102C106.201 34.3078 107.012 34.1065 107.946 34.1065C108.606 34.1065 109.209 34.2092 109.757 34.4144C110.304 34.6197 110.777 34.9235 111.175 35.326C111.574 35.7285 111.884 36.2255 112.105 36.8171C112.326 37.4047 112.437 38.0788 112.437 38.8395V39.576H104.378V37.8615H109.69C109.686 37.5476 109.612 37.2679 109.467 37.0224C109.322 36.7769 109.123 36.5857 108.869 36.4489C108.62 36.308 108.332 36.2376 108.006 36.2376C107.676 36.2376 107.38 36.312 107.118 36.4609C106.857 36.6058 106.65 36.805 106.497 37.0586C106.344 37.3081 106.263 37.5919 106.255 37.9098V39.6545C106.255 40.0328 106.33 40.3648 106.479 40.6506C106.627 40.9323 106.839 41.1516 107.112 41.3086C107.386 41.4656 107.712 41.544 108.09 41.544C108.352 41.544 108.589 41.5078 108.803 41.4354C109.016 41.3629 109.199 41.2563 109.352 41.1154C109.505 40.9745 109.62 40.8015 109.696 40.5962L112.407 40.6747C112.294 41.2824 112.047 41.8117 111.664 42.2624C111.286 42.7092 110.789 43.0573 110.173 43.3068C109.557 43.5523 108.845 43.6751 108.036 43.6751ZM116.559 43.657C115.967 43.657 115.442 43.5584 114.983 43.3611C114.528 43.1599 114.168 42.8581 113.902 42.4556C113.641 42.0491 113.51 41.54 113.51 40.9283C113.51 40.4131 113.601 39.9785 113.782 39.6243C113.963 39.2701 114.212 38.9824 114.53 38.761C114.848 38.5397 115.215 38.3726 115.629 38.2599C116.044 38.1432 116.486 38.0647 116.957 38.0245C117.484 37.9762 117.909 37.9259 118.231 37.8736C118.553 37.8172 118.786 37.7388 118.931 37.6381C119.08 37.5335 119.155 37.3866 119.155 37.1974V37.1673C119.155 36.8574 119.048 36.6179 118.835 36.4489C118.621 36.2798 118.334 36.1953 117.971 36.1953C117.581 36.1953 117.267 36.2798 117.03 36.4489C116.792 36.6179 116.641 36.8513 116.577 37.1491L113.854 37.0526C113.935 36.4891 114.142 35.986 114.476 35.5433C114.814 35.0966 115.277 34.7464 115.864 34.4929C116.456 34.2353 117.166 34.1065 117.996 34.1065C118.587 34.1065 119.132 34.177 119.632 34.3178C120.131 34.4547 120.565 34.6559 120.936 34.9215C121.306 35.1831 121.592 35.5051 121.793 35.8874C121.998 36.2698 122.101 36.7064 122.101 37.1974V43.5H119.324V42.2081H119.251C119.086 42.522 118.875 42.7876 118.617 43.005C118.364 43.2223 118.064 43.3853 117.718 43.494C117.376 43.6026 116.989 43.657 116.559 43.657ZM117.47 41.7251C117.788 41.7251 118.074 41.6607 118.328 41.532C118.585 41.4032 118.79 41.2261 118.943 41.0007C119.096 40.7713 119.173 40.5057 119.173 40.2038V39.3224C119.088 39.3667 118.986 39.407 118.865 39.4432C118.748 39.4794 118.619 39.5136 118.478 39.5458C118.338 39.578 118.193 39.6062 118.044 39.6303C117.895 39.6545 117.752 39.6766 117.615 39.6967C117.338 39.741 117.1 39.8094 116.903 39.902C116.71 39.9946 116.561 40.1153 116.456 40.2642C116.355 40.4091 116.305 40.5821 116.305 40.7834C116.305 41.0892 116.414 41.3227 116.631 41.4837C116.853 41.6446 117.132 41.7251 117.47 41.7251ZM135.128 35.6158H132.11C132.07 35.3059 131.987 35.0262 131.862 34.7766C131.738 34.5271 131.573 34.3138 131.367 34.1367C131.162 33.9596 130.919 33.8248 130.637 33.7322C130.359 33.6357 130.051 33.5874 129.713 33.5874C129.114 33.5874 128.596 33.7343 128.162 34.0281C127.731 34.3218 127.399 34.7464 127.166 35.3018C126.936 35.8572 126.822 36.5294 126.822 37.3182C126.822 38.1392 126.938 38.8274 127.172 39.3828C127.409 39.9342 127.741 40.3507 128.168 40.6325C128.598 40.9102 129.108 41.049 129.695 41.049C130.025 41.049 130.325 41.0067 130.595 40.9222C130.868 40.8377 131.108 40.715 131.313 40.554C131.522 40.389 131.693 40.1897 131.826 39.9563C131.963 39.7189 132.058 39.4512 132.11 39.1534L135.128 39.1715C135.076 39.7189 134.917 40.2582 134.651 40.7894C134.39 41.3207 134.03 41.8056 133.571 42.2443C133.112 42.679 132.553 43.0251 131.893 43.2827C131.237 43.5402 130.484 43.669 129.635 43.669C128.516 43.669 127.514 43.4235 126.628 42.9325C125.747 42.4375 125.051 41.7171 124.54 40.7713C124.028 39.8255 123.773 38.6745 123.773 37.3182C123.773 35.9579 124.032 34.8048 124.552 33.859C125.071 32.9132 125.773 32.1948 126.659 31.7038C127.544 31.2128 128.536 30.9673 129.635 30.9673C130.383 30.9673 131.076 31.072 131.711 31.2812C132.347 31.4865 132.907 31.7884 133.39 32.1868C133.873 32.5812 134.265 33.0662 134.567 33.6417C134.869 34.2172 135.056 34.8752 135.128 35.6158ZM141.167 43.6751C140.193 43.6751 139.356 43.4758 138.655 43.0774C137.959 42.6749 137.422 42.1155 137.044 41.3991C136.669 40.6787 136.482 39.8436 136.482 38.8938C136.482 37.94 136.669 37.1049 137.044 36.3885C137.422 35.6681 137.959 35.1087 138.655 34.7102C139.356 34.3078 140.193 34.1065 141.167 34.1065C142.141 34.1065 142.976 34.3078 143.672 34.7102C144.372 35.1087 144.91 35.6681 145.284 36.3885C145.662 37.1049 145.851 37.94 145.851 38.8938C145.851 39.8436 145.662 40.6787 145.284 41.3991C144.91 42.1155 144.372 42.6749 143.672 43.0774C142.976 43.4758 142.141 43.6751 141.167 43.6751ZM141.185 41.4474C141.539 41.4474 141.839 41.3388 142.084 41.1214C142.33 40.9041 142.517 40.6023 142.646 40.2159C142.779 39.8295 142.845 39.3828 142.845 38.8757C142.845 38.3606 142.779 37.9098 142.646 37.5234C142.517 37.1371 142.33 36.8352 142.084 36.6179C141.839 36.4006 141.539 36.2919 141.185 36.2919C140.819 36.2919 140.509 36.4006 140.255 36.6179C140.006 36.8352 139.815 37.1371 139.682 37.5234C139.553 37.9098 139.489 38.3606 139.489 38.8757C139.489 39.3828 139.553 39.8295 139.682 40.2159C139.815 40.6023 140.006 40.9041 140.255 41.1214C140.509 41.3388 140.819 41.4474 141.185 41.4474ZM150.316 38.2116V43.5H147.364V34.2273H150.171V35.9297H150.273C150.479 35.3622 150.829 34.9175 151.324 34.5955C151.819 34.2695 152.409 34.1065 153.093 34.1065C153.745 34.1065 154.31 34.2534 154.789 34.5472C155.272 34.837 155.646 35.2435 155.912 35.7667C156.182 36.2859 156.314 36.8936 156.31 37.5898V43.5H153.358V38.1694C153.362 37.6542 153.232 37.2518 152.966 36.962C152.704 36.6722 152.34 36.5273 151.873 36.5273C151.563 36.5273 151.29 36.5958 151.052 36.7326C150.819 36.8654 150.638 37.0566 150.509 37.3061C150.384 37.5556 150.32 37.8575 150.316 38.2116ZM161.766 43.5V41.3508L166.276 37.4027C166.614 37.0968 166.902 36.8171 167.139 36.5636C167.377 36.306 167.558 36.0484 167.682 35.7908C167.807 35.5292 167.87 35.2455 167.87 34.9396C167.87 34.5975 167.795 34.3058 167.646 34.0643C167.497 33.8188 167.292 33.6296 167.03 33.4968C166.769 33.364 166.469 33.2976 166.131 33.2976C165.789 33.2976 165.489 33.368 165.231 33.5089C164.974 33.6457 164.773 33.8449 164.628 34.1065C164.487 34.3681 164.417 34.6861 164.417 35.0604H161.585C161.585 34.2192 161.774 33.4928 162.153 32.881C162.531 32.2693 163.062 31.7984 163.746 31.4684C164.435 31.1344 165.234 30.9673 166.143 30.9673C167.081 30.9673 167.896 31.1243 168.588 31.4382C169.28 31.7521 169.816 32.1908 170.194 32.7543C170.576 33.3137 170.767 33.9637 170.767 34.7042C170.767 35.1751 170.673 35.6419 170.484 36.1048C170.294 36.5676 169.954 37.0787 169.463 37.6381C168.976 38.1976 168.284 38.8677 167.387 39.6484L165.908 41.0128V41.0913H170.918V43.5H161.766ZM177.72 43.8018C176.642 43.8018 175.712 43.5463 174.931 43.0352C174.151 42.52 173.549 41.7815 173.126 40.8196C172.704 39.8537 172.494 38.6926 172.498 37.3363C172.502 35.98 172.714 34.829 173.132 33.8832C173.555 32.9334 174.155 32.2109 174.931 31.7159C175.712 31.2169 176.642 30.9673 177.72 30.9673C178.799 30.9673 179.729 31.2169 180.509 31.7159C181.294 32.2109 181.898 32.9334 182.321 33.8832C182.743 34.833 182.952 35.984 182.948 37.3363C182.948 38.6966 182.737 39.8597 182.314 40.8256C181.892 41.7915 181.29 42.5301 180.509 43.0412C179.733 43.5483 178.803 43.8018 177.72 43.8018ZM177.72 41.3569C178.364 41.3569 178.886 41.0289 179.284 40.3729C179.682 39.7128 179.88 38.7006 179.876 37.3363C179.876 36.4428 179.785 35.7063 179.604 35.1268C179.423 34.5432 179.171 34.1085 178.849 33.8228C178.527 33.537 178.151 33.3942 177.72 33.3942C177.08 33.3942 176.563 33.7182 176.169 34.3661C175.774 35.0101 175.575 36.0001 175.571 37.3363C175.567 38.2418 175.654 38.9924 175.831 39.5881C176.012 40.1837 176.265 40.6284 176.591 40.9222C176.917 41.212 177.294 41.3569 177.72 41.3569ZM184.66 43.5V41.3508L189.169 37.4027C189.507 37.0968 189.795 36.8171 190.033 36.5636C190.27 36.306 190.451 36.0484 190.576 35.7908C190.701 35.5292 190.763 35.2455 190.763 34.9396C190.763 34.5975 190.689 34.3058 190.54 34.0643C190.391 33.8188 190.186 33.6296 189.924 33.4968C189.662 33.364 189.363 33.2976 189.025 33.2976C188.682 33.2976 188.383 33.368 188.125 33.5089C187.867 33.6457 187.666 33.8449 187.521 34.1065C187.38 34.3681 187.31 34.6861 187.31 35.0604H184.479C184.479 34.2192 184.668 33.4928 185.046 32.881C185.425 32.2693 185.956 31.7984 186.64 31.4684C187.328 31.1344 188.127 30.9673 189.037 30.9673C189.974 30.9673 190.789 31.1243 191.482 31.4382C192.174 31.7521 192.709 32.1908 193.087 32.7543C193.47 33.3137 193.661 33.9637 193.661 34.7042C193.661 35.1751 193.566 35.6419 193.377 36.1048C193.188 36.5676 192.848 37.0787 192.357 37.6381C191.87 38.1976 191.178 38.8677 190.28 39.6484L188.801 41.0128V41.0913H193.812V43.5H184.66ZM200.203 43.669C199.262 43.669 198.427 43.508 197.698 43.1861C196.974 42.8601 196.402 42.4113 195.984 41.8398C195.565 41.2683 195.352 40.6103 195.344 39.8658H198.35C198.362 40.1354 198.449 40.3749 198.61 40.5842C198.771 40.7894 198.99 40.9504 199.268 41.0671C199.545 41.1838 199.861 41.2422 200.215 41.2422C200.57 41.2422 200.882 41.1798 201.151 41.055C201.425 40.9263 201.638 40.7512 201.791 40.5298C201.944 40.3044 202.019 40.0469 202.015 39.7571C202.019 39.4673 201.936 39.2098 201.767 38.9844C201.598 38.759 201.358 38.5839 201.049 38.4592C200.743 38.3344 200.381 38.272 199.962 38.272H198.761V36.147H199.962C200.328 36.147 200.65 36.0866 200.928 35.9659C201.21 35.8452 201.429 35.6761 201.586 35.4588C201.743 35.2375 201.819 34.9839 201.815 34.6982C201.819 34.4205 201.753 34.177 201.616 33.9677C201.483 33.7544 201.296 33.5894 201.055 33.4727C200.817 33.3559 200.541 33.2976 200.228 33.2976C199.898 33.2976 199.598 33.3559 199.328 33.4727C199.062 33.5894 198.851 33.7544 198.694 33.9677C198.537 34.181 198.455 34.4285 198.447 34.7102H195.591C195.599 33.9737 195.805 33.3258 196.207 32.7663C196.609 32.2029 197.157 31.7622 197.849 31.4442C198.545 31.1263 199.338 30.9673 200.228 30.9673C201.113 30.9673 201.892 31.1223 202.564 31.4322C203.236 31.7421 203.759 32.1647 204.133 32.6999C204.508 33.2312 204.695 33.8329 204.695 34.505C204.699 35.2012 204.472 35.7747 204.013 36.2255C203.558 36.6763 202.972 36.954 202.256 37.0586V37.1552C203.214 37.2679 203.936 37.5778 204.423 38.0849C204.914 38.592 205.158 39.2258 205.154 39.9865C205.154 40.7029 204.942 41.3388 204.52 41.8942C204.101 42.4455 203.518 42.8802 202.769 43.1981C202.025 43.5121 201.169 43.669 200.203 43.669ZM216.723 28.965H222.503V31.175H219.154V39.76H216.723V28.965ZM231.173 35.119H237.99V37.193H231.173V35.119ZM231.173 38.298H238.381V40.491H231.173V38.298ZM233.315 29.033H235.678V45.098H233.315V29.033ZM229.949 31.855H239.163V41.052H236.817V34.048H232.176V41.137H229.949V31.855ZM223.71 32.093H228.776V34.303H223.71V32.093ZM225.597 28.982H228.011V33.113H225.597V28.982ZM228.215 36.122C228.34 36.2013 228.504 36.326 228.708 36.496C228.923 36.666 229.15 36.853 229.388 37.057C229.637 37.2497 229.858 37.431 230.051 37.601C230.255 37.771 230.397 37.8957 230.476 37.975L229.031 39.947C228.895 39.7543 228.731 39.539 228.538 39.301C228.357 39.063 228.164 38.8193 227.96 38.57C227.756 38.3207 227.558 38.0883 227.365 37.873C227.172 37.6463 226.997 37.4537 226.838 37.295L228.215 36.122ZM227.858 32.093H228.334L228.742 32.008L230.102 32.875C229.717 34.0083 229.212 35.0963 228.589 36.139C227.966 37.1703 227.274 38.1053 226.515 38.944C225.767 39.7713 224.991 40.457 224.186 41.001C224.129 40.7743 224.033 40.508 223.897 40.202C223.761 39.8847 223.619 39.5787 223.472 39.284C223.325 38.9893 223.189 38.7683 223.064 38.621C223.778 38.213 224.447 37.686 225.07 37.04C225.705 36.394 226.266 35.68 226.753 34.898C227.24 34.116 227.609 33.3227 227.858 32.518V32.093ZM225.597 38.298L228.011 35.408V45.132H225.597V38.298ZM254.548 33.589L255.517 35.663C254.565 35.8103 253.539 35.9407 252.44 36.054C251.352 36.156 250.224 36.2353 249.057 36.292C247.89 36.3487 246.722 36.3883 245.555 36.411C244.399 36.4223 243.277 36.4223 242.189 36.411C242.178 36.105 242.115 35.7593 242.002 35.374C241.9 34.9773 241.792 34.643 241.679 34.371C242.79 34.371 243.923 34.3597 245.079 34.337C246.235 34.303 247.374 34.252 248.496 34.184C249.629 34.116 250.706 34.0367 251.726 33.946C252.757 33.844 253.698 33.725 254.548 33.589ZM246.405 35.663H248.921V41.936C248.921 42.3213 248.983 42.565 249.108 42.667C249.244 42.7577 249.539 42.803 249.992 42.803C250.083 42.803 250.207 42.803 250.366 42.803C250.536 42.803 250.717 42.803 250.91 42.803C251.114 42.803 251.318 42.803 251.522 42.803C251.737 42.803 251.93 42.803 252.1 42.803C252.27 42.803 252.406 42.803 252.508 42.803C252.769 42.803 252.967 42.7633 253.103 42.684C253.239 42.5933 253.341 42.429 253.409 42.191C253.477 41.9417 253.534 41.5847 253.579 41.12C253.84 41.3013 254.185 41.477 254.616 41.647C255.058 41.817 255.449 41.936 255.789 42.004C255.698 42.752 255.545 43.3357 255.33 43.755C255.115 44.1743 254.803 44.469 254.395 44.639C253.987 44.8203 253.437 44.911 252.746 44.911C252.633 44.911 252.468 44.911 252.253 44.911C252.049 44.911 251.822 44.911 251.573 44.911C251.335 44.911 251.091 44.911 250.842 44.911C250.593 44.911 250.366 44.911 250.162 44.911C249.969 44.911 249.816 44.911 249.703 44.911C248.842 44.911 248.167 44.8203 247.68 44.639C247.204 44.469 246.87 44.1687 246.677 43.738C246.496 43.3073 246.405 42.7123 246.405 41.953V35.663ZM241.458 37.176L254.854 36.445L255.058 38.417L241.662 39.199L241.458 37.176ZM240.659 39.93L256.01 39.046L256.231 41.103L240.88 42.055L240.659 39.93ZM242.886 30.257H248.173V32.297H242.886V30.257ZM249.839 30.257H256.282V32.297H249.839V30.257ZM242.818 28.795L245.181 29.424C244.954 30.0133 244.677 30.6027 244.348 31.192C244.031 31.7813 243.691 32.331 243.328 32.841C242.977 33.351 242.625 33.7987 242.274 34.184C242.115 34.048 241.911 33.895 241.662 33.725C241.413 33.555 241.152 33.3907 240.88 33.232C240.619 33.0733 240.393 32.943 240.2 32.841C240.744 32.3537 241.248 31.7473 241.713 31.022C242.178 30.2967 242.546 29.5543 242.818 28.795ZM249.873 28.795L252.287 29.407C251.947 30.3023 251.499 31.175 250.944 32.025C250.4 32.8637 249.845 33.555 249.278 34.099C249.119 33.963 248.91 33.81 248.649 33.64C248.4 33.4587 248.139 33.283 247.867 33.113C247.606 32.943 247.38 32.807 247.187 32.705C247.765 32.2403 248.292 31.6623 248.768 30.971C249.244 30.2683 249.612 29.543 249.873 28.795ZM243.328 31.821L245.317 31.039C245.578 31.4017 245.838 31.8097 246.099 32.263C246.371 32.705 246.569 33.0903 246.694 33.419L244.586 34.286C244.484 33.9573 244.308 33.5607 244.059 33.096C243.821 32.6313 243.577 32.2063 243.328 31.821ZM250.876 31.855L252.882 31.141C253.109 31.447 253.335 31.787 253.562 32.161C253.789 32.535 253.953 32.8693 254.055 33.164L251.93 33.946C251.851 33.6627 251.703 33.3227 251.488 32.926C251.284 32.5293 251.08 32.1723 250.876 31.855ZM270.494 36.241H273.027C273.027 36.241 273.021 36.3033 273.01 36.428C273.01 36.5527 273.004 36.6943 272.993 36.853C272.982 37.0117 272.965 37.142 272.942 37.244C272.829 38.706 272.698 39.9073 272.551 40.848C272.415 41.7887 272.256 42.531 272.075 43.075C271.905 43.6077 271.701 43.9987 271.463 44.248C271.202 44.5313 270.925 44.7297 270.63 44.843C270.335 44.9677 269.995 45.0527 269.61 45.098C269.293 45.1433 268.896 45.166 268.42 45.166C267.955 45.166 267.468 45.1603 266.958 45.149C266.947 44.7977 266.867 44.3953 266.72 43.942C266.573 43.5 266.386 43.1203 266.159 42.803C266.646 42.8483 267.111 42.8767 267.553 42.888C267.995 42.888 268.329 42.888 268.556 42.888C268.726 42.888 268.868 42.8767 268.981 42.854C269.106 42.82 269.225 42.7577 269.338 42.667C269.508 42.5197 269.661 42.2137 269.797 41.749C269.933 41.2843 270.058 40.6327 270.171 39.794C270.296 38.944 270.403 37.8843 270.494 36.615V36.241ZM258.951 29.764H268.641V32.161H258.951V29.764ZM260.311 32.722L262.81 32.875C262.765 33.5097 262.708 34.1727 262.64 34.864C262.572 35.5553 262.498 36.2183 262.419 36.853C262.351 37.4877 262.277 38.0487 262.198 38.536H259.699C259.79 38.026 259.869 37.4423 259.937 36.785C260.016 36.1163 260.09 35.4307 260.158 34.728C260.226 34.0253 260.277 33.3567 260.311 32.722ZM260.43 36.241H271.225V38.536H260.43V36.241ZM257.778 39.794H269.117V42.157H257.778V39.794ZM268.199 29.764H268.454L268.862 29.679L270.715 29.832C270.681 30.4553 270.63 31.1013 270.562 31.77C270.505 32.4387 270.443 33.1187 270.375 33.81C270.307 34.49 270.233 35.17 270.154 35.85C270.075 36.5187 269.995 37.1647 269.916 37.788L267.451 37.601C267.542 36.9663 267.621 36.3033 267.689 35.612C267.768 34.9093 267.842 34.218 267.91 33.538C267.978 32.8467 268.035 32.2007 268.08 31.6C268.137 30.988 268.176 30.461 268.199 30.019V29.764ZM278.144 33.521H286.882V35.459H278.144V33.521ZM281 28.897H283.584V31.651H281V28.897ZM274.948 42.531C275.628 42.4517 276.393 42.3553 277.243 42.242C278.093 42.1287 278.983 42.004 279.912 41.868C280.853 41.732 281.776 41.596 282.683 41.46L282.836 43.772C281.997 43.908 281.147 44.044 280.286 44.18C279.425 44.316 278.586 44.4463 277.77 44.571C276.965 44.6957 276.217 44.8147 275.526 44.928L274.948 42.531ZM283.125 37.482C283.658 38.9553 284.519 40.1453 285.709 41.052C286.899 41.9587 288.503 42.5763 290.52 42.905C290.339 43.075 290.146 43.296 289.942 43.568C289.749 43.84 289.562 44.1177 289.381 44.401C289.211 44.6843 289.069 44.9393 288.956 45.166C287.46 44.8487 286.196 44.3783 285.165 43.755C284.134 43.1317 283.267 42.344 282.564 41.392C281.873 40.44 281.283 39.3123 280.796 38.009L283.125 37.482ZM287.885 37.669L289.84 39.165C289.387 39.5163 288.899 39.8677 288.378 40.219C287.868 40.559 287.358 40.8763 286.848 41.171C286.349 41.4657 285.879 41.7263 285.437 41.953L283.788 40.559C284.219 40.3323 284.683 40.0603 285.182 39.743C285.681 39.4143 286.168 39.0687 286.644 38.706C287.12 38.3433 287.534 37.9977 287.885 37.669ZM278.042 30.512H288.463V38.57H278.042V36.428H285.913V32.654H278.042V30.512ZM276.716 30.512H279.266V43.007L276.716 43.194V30.512ZM297.133 45.115H291.353V42.905H294.702V34.32H297.133V45.115Z" fill="black"/>
</g>
<path d="M328.273 8.66923C328.546 10.2293 328.934 11.2992 329.599 12.2882C330.046 12.9574 330.541 13.4177 331.125 13.7076C331.781 14.0401 332.331 14.1381 332.548 13.9676C332.608 13.9207 332.702 13.8824 332.762 13.8824C332.958 13.8824 332.975 13.8099 332.949 13.0853C332.928 12.3265 332.851 11.9685 332.604 11.4271C332.02 10.1739 330.805 9.16369 328.751 8.23871C328.461 8.10657 328.209 8.00001 328.192 8.00001C328.175 8.00001 328.209 8.30265 328.273 8.66923Z" fill="black"/>
<path d="M334.739 9.75618C333.661 11.7852 333.316 13.4561 333.708 14.7945C333.976 15.7238 334.756 16.8661 335.114 16.8661C335.315 16.8661 335.767 16.2694 336.099 15.5661C336.389 14.9565 336.474 14.543 336.478 13.7545C336.478 12.902 336.342 12.2498 335.963 11.2737C335.788 10.8176 335.106 9.42796 335.029 9.36402C334.987 9.32992 334.918 9.4237 334.739 9.75618Z" fill="black"/>
<path d="M329.083 13.4859C329.083 13.503 329.168 13.8269 329.275 14.202C330.008 16.7809 331.334 18.5456 332.817 18.9292C333.503 19.104 333.878 19.0997 334.036 18.9164C334.074 18.8696 334.177 18.8184 334.262 18.8014C334.347 18.7886 334.428 18.7459 334.441 18.7118C334.454 18.682 334.441 18.4476 334.415 18.1918C334.271 16.7894 333.733 15.8815 332.527 14.9864C331.709 14.3768 330.878 14.006 329.181 13.4817C329.126 13.4646 329.083 13.4646 329.083 13.4859Z" fill="black"/>
<path d="M337.587 15.6513C336.628 16.8704 336.095 17.8125 335.835 18.763C335.703 19.2362 335.652 20.127 335.728 20.5405C335.839 21.133 336.116 21.815 336.449 22.318C336.594 22.5396 336.602 22.5439 336.764 22.5226C337.003 22.4885 337.224 22.3265 337.531 21.9599C338.12 21.2524 338.456 20.5746 338.64 19.7221C338.759 19.185 338.763 18.1535 338.657 17.4842C338.52 16.6402 338.124 15.1185 338.039 15.1185C338.017 15.1185 337.817 15.3572 337.587 15.6513Z" fill="black"/>
<path d="M331.956 18.8994C331.969 19.0145 331.99 19.3811 332.003 19.7221C332.08 21.5635 332.429 22.8039 333.179 23.9037C333.644 24.5814 334.415 25.191 335.046 25.3743C335.255 25.4382 335.289 25.4382 335.421 25.3743C335.498 25.3359 335.609 25.3061 335.664 25.3061C335.724 25.3061 335.78 25.272 335.797 25.2293C335.869 25.0375 335.954 24.5175 335.976 24.1125C336.048 22.7101 335.404 21.4186 334.036 20.2208C333.29 19.5686 332.118 18.6991 331.99 18.6991C331.952 18.6991 331.943 18.7545 331.956 18.8994Z" fill="black"/>
<path d="M339.816 21.6573C338.077 22.6974 337.088 23.6309 336.56 24.7306C336.261 25.3615 336.223 25.5533 336.227 26.4356C336.231 27.0452 336.248 27.2668 336.312 27.5226C336.389 27.8252 336.402 27.8423 336.521 27.8551C336.594 27.8636 336.666 27.8892 336.692 27.9105C336.837 28.0511 337.442 27.838 337.97 27.4629C338.691 26.9471 339.407 25.9241 339.774 24.8798C340.021 24.1637 340.221 23.1449 340.272 22.3222C340.285 22.1006 340.306 21.798 340.319 21.6488C340.328 21.5038 340.323 21.3845 340.306 21.3845C340.289 21.3845 340.068 21.5081 339.816 21.6573Z" fill="black"/>
<path d="M332.22 23.7758C332.173 23.9164 331.981 24.9395 331.913 25.4126C331.815 26.0946 331.815 27.237 331.909 27.7613C332.096 28.8013 332.527 29.6453 333.239 30.3572C333.733 30.8559 333.895 30.9539 334.215 30.9539H334.475L334.59 30.7408C334.79 30.3785 334.999 29.6667 335.055 29.1594C335.195 27.8636 334.641 26.4527 333.388 24.9309C332.898 24.3384 332.25 23.6905 332.22 23.7758Z" fill="black"/>
<path d="M340.345 27.5013C339.015 27.7144 337.992 28.0043 337.323 28.3495C336.368 28.844 335.669 29.5985 335.272 30.5533C335.132 30.89 334.94 31.7425 334.978 31.8491C334.991 31.8789 335.08 31.9301 335.17 31.9557C335.268 31.9812 335.37 32.0452 335.409 32.1006C335.511 32.2583 335.733 32.3137 336.176 32.2839C337.57 32.1901 338.687 31.3973 339.855 29.6709C340.289 29.023 341.108 27.3862 340.988 27.399C340.971 27.4032 340.681 27.4459 340.345 27.5013Z" fill="black"/>
<path d="M331.159 28.9548C331.112 29.0401 330.788 30.0887 330.69 30.4851C330.451 31.4271 330.426 31.6317 330.43 32.5524C330.43 33.3623 330.438 33.4561 330.545 33.844C330.741 34.5686 331.206 35.3785 331.76 35.9454C332.058 36.2524 332.216 36.3461 332.429 36.3461C332.587 36.3461 332.612 36.3291 332.744 36.1287C333.098 35.5874 333.35 34.8883 333.435 34.2191C333.593 32.9233 332.983 31.2651 331.721 29.59C331.295 29.0188 331.193 28.9037 331.159 28.9548Z" fill="black"/>
<path d="M328.567 32.7315C327.983 33.8142 327.647 34.6922 327.463 35.5831C327.34 36.1671 327.361 37.1262 327.502 37.6249C327.753 38.5115 328.554 39.7136 328.887 39.7136C329.002 39.7136 329.377 39.3001 329.633 38.8824C329.901 38.4561 330.123 37.9318 330.225 37.4885C330.332 37.0196 330.319 35.9028 330.204 35.3657C330.093 34.8755 329.893 34.2362 329.693 33.746C329.526 33.3368 329.032 32.3137 328.947 32.1986C328.895 32.1347 328.853 32.1944 328.567 32.7315Z" fill="black"/>
<path d="M338.716 32.1986C338.158 32.2327 337.344 32.3436 336.956 32.4416C335.541 32.8039 334.437 33.682 333.9 34.8755C333.797 35.1057 333.559 35.792 333.559 35.8602C333.559 35.8687 333.661 35.9241 333.785 35.9795C333.904 36.0349 334.049 36.1373 334.1 36.2055C334.232 36.393 334.509 36.4484 335.131 36.4186C336.227 36.3674 337.143 35.9156 338.124 34.9437C338.695 34.3725 339.185 33.7374 339.654 32.9488C339.876 32.5823 340.076 32.254 340.093 32.2242C340.119 32.1816 340.008 32.1688 339.539 32.1773C339.215 32.1816 338.844 32.1901 338.716 32.1986Z" fill="black"/>
<path d="M325.737 35.7153C324.143 37.2583 323.414 38.4945 323.303 39.8329C323.252 40.451 323.435 41.3419 323.746 41.9727L323.904 42.2924H324.16C324.381 42.2924 324.445 42.2711 324.629 42.1432C325.323 41.6658 326.035 40.6513 326.325 39.7349C326.56 38.9804 326.589 38.7502 326.589 37.5823C326.589 36.653 326.572 36.4015 326.487 35.8559C326.432 35.5021 326.372 35.1995 326.355 35.1824C326.338 35.1611 326.057 35.3998 325.737 35.7153Z" fill="black"/>
<path d="M333.891 36.6701C332.676 36.8576 331.994 37.156 331.329 37.7911C330.98 38.1236 330.737 38.4348 330.473 38.8866C330.2 39.3598 330.2 39.3512 330.49 39.5345C330.63 39.6198 330.758 39.7263 330.771 39.7647C330.877 40.1014 331.918 40.3401 332.77 40.2293C333.243 40.1654 333.947 39.9352 334.369 39.705C335.2 39.2532 336.236 38.4135 336.555 37.9403C336.662 37.7783 336.888 37.497 337.054 37.3095C337.22 37.1262 337.348 36.9685 337.34 36.9599C337.331 36.9514 337.054 36.896 336.73 36.8363C335.345 36.5933 334.633 36.5507 333.891 36.6701Z" fill="black"/>
<path d="M322.156 39.0273C319.88 39.5516 318.537 40.2634 317.787 41.3546C317.425 41.8832 317.127 42.7613 317.075 43.4476L317.05 43.7928L317.199 43.8227C317.284 43.8355 317.412 43.9079 317.489 43.9804L317.625 44.1168L318.06 44.0955C318.78 44.0614 319.471 43.78 320.14 43.2515C320.724 42.7911 321.508 41.7596 322.02 40.7792C322.237 40.37 322.689 39.2788 322.757 39.0145C322.791 38.8781 322.809 38.8781 322.156 39.0273Z" fill="black"/>
<path d="M329.019 40.272C328.29 40.3743 327.463 40.7707 326.888 41.3035C326.568 41.5934 326.142 42.0963 326.142 42.1773C326.142 42.2029 326.257 42.3223 326.398 42.4459C326.538 42.5695 326.666 42.7144 326.679 42.7698C326.73 42.9659 327.186 43.2259 327.791 43.405C328.832 43.7076 330.046 43.5158 331.393 42.8338C332.169 42.4416 332.54 42.1944 332.689 41.9685C332.757 41.8662 332.983 41.6488 333.188 41.4825C333.439 41.2822 333.542 41.1756 333.503 41.1543C333.473 41.1373 333.141 41.0094 332.766 40.8687C331.99 40.5831 331.406 40.4126 330.878 40.3274C330.396 40.2507 329.394 40.2208 329.019 40.272Z" fill="black"/>
<path d="M323.482 42.8934C323.094 42.9787 322.698 43.1321 322.305 43.341C321.926 43.5456 321.5 43.8525 321.496 43.9165C321.496 43.942 321.606 44.1168 321.743 44.3086C321.875 44.5004 322.033 44.7349 322.092 44.8329C322.284 45.1483 322.924 45.6215 323.448 45.8346C324.441 46.2353 325.622 46.2481 327.101 45.8772C327.783 45.7025 327.975 45.6172 328.056 45.451C328.094 45.3657 328.192 45.2975 328.397 45.208C328.55 45.1398 328.733 45.0588 328.802 45.029L328.925 44.9736L328.473 44.6454C327.139 43.6735 326.321 43.2387 325.289 42.9702C324.761 42.8295 323.917 42.7954 323.482 42.8934Z" fill="black"/>
<path d="M318.107 44.688C317.945 44.7221 317.664 44.8073 317.489 44.8755C317.173 44.9949 316.534 45.3359 316.436 45.4382C316.359 45.5149 316.986 46.5209 317.318 46.8619C317.791 47.3478 318.384 47.6846 319.13 47.8849C319.531 47.9915 319.612 48 320.494 48C321.287 48 321.513 47.9872 321.964 47.902C322.583 47.7911 322.86 47.6846 322.86 47.5652C322.86 47.4714 323.005 47.3905 323.392 47.2754C323.533 47.2327 323.661 47.1858 323.682 47.1731C323.716 47.1432 322.834 46.3717 322.314 45.9795C321.376 45.2805 320.473 44.8457 319.62 44.6837C319.185 44.5985 318.503 44.6027 318.107 44.688Z" fill="black"/>
<defs>
<filter id="filter0_d_17_3422" x="87.0057" y="3.9" width="227.023" height="48.2" filterUnits="userSpaceOnUse" color-interpolation-filters="sRGB">
<feFlood flood-opacity="0" result="BackgroundImageFix"/>
<feColorMatrix in="SourceAlpha" type="matrix" values="0 0 0 0 0 0 0 0 0 0 0 0 0 0 0 0 0 0 127 0" result="hardAlpha"/>
<feOffset/>
<feGaussianBlur stdDeviation="2.8"/>
<feComposite in2="hardAlpha" operator="out"/>
<feColorMatrix type="matrix" values="0 0 0 0 0 0 0 0 0 0 0 0 0 0 0 0 0 0 0.25 0"/>
<feBlend mode="normal" in2="BackgroundImageFix" result="effect1_dropShadow_17_3422"/>
<feBlend mode="normal" in="SourceGraphic" in2="effect1_dropShadow_17_3422" result="shape"/>
</filter>
<linearGradient id="paint0_linear_17_3422" x1="176.5" y1="0" x2="176.5" y2="56" gradientUnits="userSpaceOnUse">
<stop stop-color="#EBB000"/>
<stop offset="1" stop-color="#EB5C00"/>
</linearGradient>
</defs>
</svg>
