<svg width="331" height="56" viewBox="0 0 331 56" fill="none" xmlns="http://www.w3.org/2000/svg">
<rect width="331" height="56" rx="8" fill="url(#paint0_linear_18_232)"/>
<rect x="1.05" y="1.05" width="328.9" height="53.9" rx="6.95" stroke="white" stroke-opacity="0.15" stroke-width="2.1"/>
<path d="M19.783 8.18349C17.7283 9.10429 16.4707 10.1061 15.8696 11.2997C15.5883 11.8624 15.4305 12.5829 15.439 13.2521C15.4476 13.768 15.4732 13.8532 15.6266 13.8703C15.6948 13.8788 15.7971 13.9214 15.8526 13.9683C16.0657 14.1346 16.6241 14.0323 17.2721 13.704C18.4444 13.1157 19.3993 11.6962 19.9066 9.78636C20.0047 9.41548 20.2519 8.14939 20.2519 8.01297C20.2519 7.97887 20.1837 8.00445 19.783 8.18349Z" fill="white"/>
<path d="M13.1369 9.79914C11.7301 12.4379 11.5511 14.3477 12.5614 16.0529C12.8087 16.4707 13.0985 16.8117 13.2435 16.8458C13.4012 16.8884 13.6186 16.7222 13.9128 16.3257C15.2258 14.5779 15.1959 12.8045 13.8019 10.008C13.6144 9.62862 13.4438 9.31743 13.4268 9.31743C13.4097 9.31743 13.2776 9.53484 13.1369 9.79914Z" fill="white"/>
<path d="M18.7684 13.623C17.9073 13.9 17.4469 14.0876 16.8842 14.3775C15.7204 14.9786 14.8593 15.7587 14.433 16.607C14.1559 17.1569 13.9854 17.8816 13.9854 18.504V18.7726L14.1388 18.7982C14.2198 18.8152 14.3221 18.8664 14.3605 18.9133C14.4884 19.0582 14.7143 19.0923 15.1363 19.0198C15.9378 18.8792 16.4707 18.6063 17.0675 18.0266C17.984 17.1399 18.6618 15.8738 19.1478 14.1686C19.2416 13.8318 19.3268 13.5334 19.3354 13.5036C19.3609 13.4354 19.3652 13.4311 18.7684 13.623Z" fill="white"/>
<path d="M10.1572 15.7417C9.41548 18.3548 9.52206 20.0344 10.5196 21.4966C10.9757 22.1702 11.3892 22.5325 11.6962 22.5325C11.7942 22.5325 11.8454 22.4814 12.0116 22.2213C12.1225 22.0551 12.2887 21.7439 12.3782 21.535C13.1498 19.7488 12.6809 17.9712 10.8308 15.6479C10.5963 15.3537 10.3874 15.115 10.3704 15.115C10.3491 15.115 10.251 15.3964 10.1572 15.7417Z" fill="white"/>
<path d="M15.9251 19.0028C14.7698 19.8298 13.7936 20.7123 13.3119 21.3602C13.0305 21.7396 12.6895 22.4174 12.5787 22.8309C12.3996 23.496 12.3954 24.2718 12.5574 25.0008C12.6213 25.2736 12.6383 25.3035 12.7279 25.3035C12.7876 25.3035 12.8984 25.3333 12.9751 25.3717C13.1073 25.4356 13.1414 25.4356 13.3503 25.3717C13.9556 25.1926 14.7187 24.6086 15.1876 23.9521C16.07 22.7286 16.377 21.4668 16.458 18.7257C16.458 18.649 16.3215 18.7215 15.9251 19.0028Z" fill="white"/>
<path d="M8.11958 21.9656C8.19205 23.351 8.45209 24.5575 8.88691 25.4953C9.23221 26.2371 9.88444 27.0683 10.4258 27.4563C10.9544 27.8357 11.6067 28.0616 11.7047 27.9039C11.7175 27.8783 11.7857 27.8612 11.8539 27.8612C12.0074 27.8612 12.0372 27.8101 12.1353 27.3497C12.2504 26.8168 12.2376 25.8704 12.114 25.41C11.8028 24.2548 10.8948 23.1677 9.39846 22.1574C9.07874 21.9443 8.14942 21.3816 8.11532 21.3816C8.10253 21.3816 8.10253 21.6459 8.11958 21.9656Z" fill="white"/>
<path d="M15.7929 24.0757C15.0213 24.8686 14.5311 25.5081 13.994 26.4118C13.6487 26.9958 13.3929 27.8527 13.3588 28.5518C13.3204 29.3149 13.4654 30.0225 13.8021 30.6918L13.9471 30.9817L14.1986 30.9646C14.3862 30.9518 14.4927 30.9135 14.6292 30.8197C15.3496 30.3252 16.0615 29.3319 16.3429 28.4324C16.6754 27.3752 16.6626 25.9898 16.3002 24.2675C16.2405 23.9691 16.1766 23.7262 16.1638 23.7262C16.1468 23.7262 15.9805 23.8839 15.7929 24.0757Z" fill="white"/>
<path d="M7.43318 27.4946C7.47581 27.6822 8.05983 28.8886 8.2943 29.2723C9.47513 31.2162 10.737 32.1839 12.2205 32.2819C12.6596 32.3117 12.8855 32.2563 12.9878 32.1029C13.0219 32.0474 13.1327 31.9835 13.2478 31.9537L13.4439 31.8982L13.4141 31.6126C13.3544 30.9433 12.9921 30.0822 12.5359 29.5067C11.6706 28.4239 10.3746 27.8527 7.94047 27.4818L7.41187 27.4051L7.43318 27.4946Z" fill="white"/>
<path d="M16.8798 29.3447C14.9743 31.7874 14.5054 33.8336 15.4219 35.6965C15.5072 35.867 15.6308 36.0844 15.6947 36.174C15.8013 36.3189 15.8439 36.3445 15.9718 36.3445C16.1892 36.3445 16.3171 36.2635 16.6795 35.8841C18.018 34.4816 18.342 32.7849 17.7154 30.4232C17.5534 29.8264 17.2678 28.927 17.2337 28.927C17.2166 28.927 17.0589 29.1145 16.8798 29.3447Z" fill="white"/>
<path d="M19.1692 32.7721C17.9755 35.1977 17.788 36.8987 18.5468 38.4546C18.9219 39.2305 19.361 39.7548 19.5827 39.6951C19.7148 39.661 19.9962 39.3712 20.2264 39.0344C21.2878 37.4486 21.322 35.9608 20.35 33.7441C20.1411 33.2666 19.5443 32.1242 19.5059 32.1242C19.4974 32.1242 19.3482 32.4183 19.1692 32.7721Z" fill="white"/>
<path d="M8.31567 32.1796C8.31567 32.1924 8.42651 32.3927 8.56719 32.6229C8.7036 32.8531 8.89543 33.1814 8.99348 33.3519C9.39846 34.051 10.4088 35.1679 11.044 35.6155C11.7857 36.1399 12.4678 36.3829 13.282 36.417C13.9001 36.4425 14.1175 36.3956 14.3051 36.1953C14.3733 36.1143 14.5268 36.012 14.6376 35.9651C14.7485 35.9182 14.838 35.85 14.838 35.8201C14.838 35.6965 14.612 35.0784 14.4543 34.7587C14.0493 33.9444 13.5634 33.4286 12.7832 32.981C12.0713 32.5718 11.4703 32.3842 10.5111 32.2734C9.93986 32.2052 8.31567 32.1327 8.31567 32.1796Z" fill="white"/>
<path d="M22.0253 35.266C21.8846 35.9651 21.8164 36.6898 21.8121 37.5595C21.8079 38.7829 21.9315 39.4693 22.3024 40.2963C22.6008 40.9655 23.2658 41.8011 23.7688 42.1421C23.9393 42.2615 24.0331 42.2913 24.2463 42.3041L24.5106 42.3212L24.6129 42.1165C25.1031 41.1446 25.2395 39.9424 24.9624 39.0089C24.7493 38.2884 24.3869 37.6404 23.7603 36.8561C23.4832 36.5065 22.1446 35.1509 22.0807 35.1509C22.0636 35.1509 22.0381 35.202 22.0253 35.266Z" fill="white"/>
<path d="M12.6212 36.6855C12.3271 36.7282 11.8624 36.8006 11.5811 36.8518C11.304 36.8987 11.0695 36.9413 11.0567 36.9413C11.0482 36.9413 11.1974 37.1204 11.3893 37.3378C11.5811 37.5552 11.79 37.828 11.8539 37.9474C11.9264 38.0795 12.1267 38.2969 12.391 38.5314C14.0408 39.9936 15.5712 40.5179 17.0334 40.13C17.3446 40.049 17.3957 40.0192 17.6089 39.8018C17.7368 39.6696 17.9158 39.5247 18.0054 39.4778C18.2014 39.3755 18.1972 39.3328 17.9457 38.8852C17.3361 37.8067 16.4238 37.0948 15.3069 36.822C14.3776 36.5918 13.5591 36.5534 12.6212 36.6855Z" fill="white"/>
<path d="M25.6233 38.9193C25.6233 39.0216 26.2031 40.4071 26.4119 40.8078C27.5033 42.9052 28.8418 44.0221 30.3381 44.0945L30.7687 44.1116L30.9008 43.9837C30.9776 43.9112 31.1054 43.8387 31.1864 43.8217C31.2674 43.8089 31.3484 43.7791 31.357 43.7577C31.3697 43.7407 31.357 43.5446 31.3314 43.3272C31.2419 42.5812 30.969 41.8437 30.5939 41.3151C30.3594 40.9826 29.818 40.4668 29.4599 40.2323C28.7651 39.7719 27.7121 39.3669 26.4333 39.0685C25.7085 38.9022 25.6233 38.8852 25.6233 38.9193Z" fill="white"/>
<path d="M17.9627 40.2664C17.4512 40.3218 16.978 40.4241 16.394 40.6117C15.7417 40.8206 14.9062 41.1446 14.8934 41.1915C14.8891 41.2085 15.0511 41.3492 15.2515 41.4984C15.4774 41.6689 15.6394 41.8266 15.6692 41.9034C15.7417 42.0782 15.8568 42.1762 16.2703 42.432C17.5066 43.1951 18.7386 43.5872 19.7617 43.5361C20.5674 43.4935 21.4669 43.1609 21.68 42.8242C21.7354 42.7389 21.8974 42.5599 22.0466 42.4277L22.3152 42.1933L22.1361 41.9588C21.5308 41.1574 20.6654 40.5691 19.7787 40.3517C19.361 40.2494 18.4956 40.211 17.9627 40.2664Z" fill="white"/>
<path d="M23.385 42.9051C22.5239 43.0885 21.6585 43.4721 20.7505 44.0775C19.77 44.7339 19.4077 45.0409 19.6166 45.0409C19.6422 45.0409 19.7999 45.1048 19.9747 45.1858C20.2006 45.2881 20.3029 45.3649 20.3413 45.4501C20.4223 45.6164 20.6141 45.7016 21.2962 45.8764C22.7541 46.243 23.8838 46.2345 24.9026 45.8551C25.4312 45.6547 26.0792 45.1773 26.3307 44.7979C26.4202 44.6657 26.595 44.4142 26.7186 44.2352C26.9872 43.8643 27 43.9069 26.497 43.5702C26.0963 43.3016 25.6785 43.1098 25.2181 42.9691C24.698 42.8156 23.9477 42.79 23.385 42.9051Z" fill="white"/>
<path d="M28.6285 44.7169C28.0232 44.8619 27.567 45.0537 26.8423 45.4757C26.2711 45.8082 24.6767 47.0957 24.7492 47.1681C24.7663 47.1809 24.9453 47.2491 25.1457 47.3216C25.4569 47.4282 25.5208 47.4665 25.5293 47.5475C25.5507 47.6925 25.7979 47.7863 26.4331 47.9056C26.885 47.9866 27.1066 48.0037 27.9038 47.9994C28.7862 47.9994 28.8672 47.9909 29.2679 47.8843C30.372 47.5859 31.0456 47.0743 31.6765 46.064C31.8641 45.7613 32.0175 45.497 32.0175 45.48C32.0175 45.3862 31.1181 44.9301 30.6108 44.7638C30.3038 44.6615 30.1589 44.6445 29.6516 44.6317C29.1358 44.6189 28.9951 44.6274 28.6285 44.7169Z" fill="white"/>
<path d="M51.9443 20.8078C52.2162 20.6289 52.4879 20.45 52.7134 20.2554C52.9388 20.0609 53.118 19.8505 53.2236 19.6472C53.3291 19.4438 53.3609 19.2472 53.3426 19.036C53.3242 18.8248 53.2556 18.5989 53.1627 18.3235C53.0698 18.0482 52.9525 17.7235 52.901 17.4208C52.8495 17.1181 52.8639 16.8376 52.8996 16.6295C52.9352 16.4215 52.9923 16.2861 53.0419 16.1537C53.0915 16.0212 53.1335 15.8917 53.2361 15.6903C53.3387 15.4889 53.5018 15.2158 53.665 14.9425" stroke="white" stroke-width="1.5" stroke-linecap="round"/>
<path d="M64.1401 20.5057C64.412 20.3268 64.6837 20.1479 64.9092 19.9534C65.1346 19.7588 65.3138 19.5484 65.4194 19.3451C65.5249 19.1417 65.5567 18.9452 65.5384 18.734C65.52 18.5228 65.4514 18.2968 65.3585 18.0215C65.2656 17.7461 65.1483 17.4214 65.0968 17.1187C65.0453 16.8161 65.0597 16.5355 65.0954 16.3275C65.131 16.1194 65.1881 15.984 65.2377 15.8516C65.2873 15.7192 65.3293 15.5897 65.4319 15.3883C65.5345 15.1869 65.6976 14.9137 65.8608 14.6404" stroke="white" stroke-width="1.5" stroke-linecap="round"/>
<path d="M58.3069 19.2935C58.5787 19.1146 58.8505 18.9357 59.0759 18.7412C59.3014 18.5466 59.4806 18.3362 59.5861 18.1329C59.6916 17.9295 59.7234 17.7329 59.7051 17.5217C59.6868 17.3105 59.6182 17.0846 59.5252 16.8092C59.4323 16.5339 59.3151 16.2092 59.2635 15.9065C59.212 15.6038 59.2264 15.3233 59.2621 15.1153C59.2978 14.9072 59.3548 14.7718 59.4044 14.6394C59.454 14.507 59.4961 14.3775 59.5987 14.1761C59.7013 13.9747 59.8644 13.7015 60.0275 13.4282" stroke="white" stroke-width="1.5" stroke-linecap="round"/>
<path d="M75.891 39.4322C75.565 39.4339 54.6823 39.5444 49.2795 39.5233C43.8766 39.5021 43.8387 39.4024 43.8386 39.5544C43.8386 39.7063 43.8765 40.11 44.0257 40.497C44.175 40.8841 44.4352 41.2545 44.7696 41.5847C45.104 41.9149 45.498 42.1947 45.7908 42.3561C46.0836 42.5174 46.2679 42.5554 50.8493 42.5696C55.4307 42.5838 64.4089 42.5743 68.9414 42.5505C73.4738 42.5267 73.5606 42.4888 73.8154 42.3748C74.0702 42.2608 74.4931 42.0708 74.8942 41.7432C75.2953 41.4156 75.6748 40.9502 75.8862 40.5941C76.0977 40.2381 76.1283 40.0635 76.1634 39.8364C76.1985 39.6092 76.2062 39.535 76.217 39.4305C76.217 39.4305 76.217 39.4305 75.891 39.4322Z" stroke="white" stroke-width="1.4" stroke-linecap="round" stroke-linejoin="round"/>
<path d="M71.6901 26.7325C71.6031 26.1197 71.5161 25.5066 71.3383 25.1405C71.1605 24.7745 70.8915 24.6558 70.7099 24.5962C70.5282 24.5365 70.4339 24.536 66.5881 24.5526C62.7423 24.5692 55.1453 24.6027 51.3172 24.6201C47.489 24.6375 47.43 24.6386 47.3589 24.6451C47.2878 24.6516 47.2047 24.6635 47.0879 24.7248C46.9711 24.7861 46.8207 24.8969 46.6973 25.0628C46.5739 25.2288 46.4804 25.443 46.432 25.978C46.3836 26.5129 46.3817 27.365 46.3976 27.9869C46.4134 28.6088 46.447 29.0004 46.5746 29.651C46.7021 30.3016 46.9237 31.2112 47.2283 32.1209C47.5329 33.0307 47.9206 33.9405 48.5754 34.9143C49.2302 35.888 50.1519 36.9258 51.0123 37.6958C51.8728 38.4658 52.6718 38.9682 53.0872 39.2192C53.5025 39.4703 53.5341 39.4703 55.402 39.4643C57.2698 39.4584 60.9738 39.4465 62.8415 39.4346C64.7092 39.4227 64.7409 39.4108 65.1422 39.1254C65.5435 38.8399 66.3145 38.2808 67.0442 37.665C67.7739 37.0493 68.4622 36.3768 69.0911 35.5303C69.72 34.6838 70.2897 33.6632 70.7021 32.7063C71.1146 31.7493 71.3657 30.8705 71.5041 29.8895C71.6425 28.9085 71.6664 27.8167 71.702 27.2509C71.7376 26.685 71.7851 26.6375 72.0424 26.627C72.2997 26.6164 72.7665 26.6428 73.2294 26.7154C73.6923 26.788 74.1511 26.9066 74.4992 27.1164C74.8472 27.3263 75.0846 27.6269 75.2822 27.909C75.4797 28.191 75.6376 28.4545 75.7528 28.8435C75.868 29.2326 75.9407 29.7472 75.9574 30.2591C75.9742 30.7709 75.935 31.28 75.8231 31.7331C75.7112 32.1861 75.5266 32.5833 75.2385 32.9944C74.9504 33.4056 74.5588 33.8307 74.1225 34.2083C73.6862 34.5859 73.2051 34.916 72.6373 35.2209C72.0695 35.5257 71.415 35.8055 70.7129 35.9957C70.0109 36.1859 69.2613 36.2866 68.5113 36.3874" stroke="white" stroke-width="1.4" stroke-linecap="round"/>
<g filter="url(#filter0_d_18_232)">
<path d="M98.688 12.8636V24.5H97.0744L91.1596 15.9659H91.0517V24.5H89.296V12.8636H90.921L96.8414 21.4091H96.9494V12.8636H98.688ZM104.789 24.6761C103.971 24.6761 103.257 24.4886 102.647 24.1136C102.037 23.7386 101.564 23.214 101.226 22.5398C100.889 21.8655 100.721 21.0776 100.721 20.1761C100.721 19.2708 100.889 18.4792 101.226 17.8011C101.564 17.1231 102.037 16.5966 102.647 16.2216C103.257 15.8466 103.971 15.6591 104.789 15.6591C105.607 15.6591 106.321 15.8466 106.931 16.2216C107.541 16.5966 108.014 17.1231 108.351 17.8011C108.689 18.4792 108.857 19.2708 108.857 20.1761C108.857 21.0776 108.689 21.8655 108.351 22.5398C108.014 23.214 107.541 23.7386 106.931 24.1136C106.321 24.4886 105.607 24.6761 104.789 24.6761ZM104.795 23.25C105.325 23.25 105.764 23.1098 106.113 22.8295C106.461 22.5492 106.719 22.1761 106.885 21.7102C107.056 21.2443 107.141 20.7311 107.141 20.1705C107.141 19.6136 107.056 19.1023 106.885 18.6364C106.719 18.1667 106.461 17.7898 106.113 17.5057C105.764 17.2216 105.325 17.0795 104.795 17.0795C104.26 17.0795 103.817 17.2216 103.465 17.5057C103.117 17.7898 102.857 18.1667 102.687 18.6364C102.52 19.1023 102.437 19.6136 102.437 20.1705C102.437 20.7311 102.52 21.2443 102.687 21.7102C102.857 22.1761 103.117 22.5492 103.465 22.8295C103.817 23.1098 104.26 23.25 104.795 23.25ZM110.753 24.5V15.7727H112.384V17.1932H112.492C112.674 16.7121 112.971 16.3371 113.384 16.0682C113.797 15.7955 114.291 15.6591 114.867 15.6591C115.45 15.6591 115.939 15.7955 116.333 16.0682C116.731 16.3409 117.024 16.7159 117.214 17.1932H117.305C117.513 16.7273 117.844 16.3561 118.299 16.0795C118.753 15.7992 119.295 15.6591 119.924 15.6591C120.715 15.6591 121.361 15.9072 121.861 16.4034C122.365 16.8996 122.617 17.6477 122.617 18.6477V24.5H120.918V18.8068C120.918 18.2159 120.757 17.7879 120.435 17.5227C120.113 17.2576 119.729 17.125 119.282 17.125C118.729 17.125 118.299 17.2955 117.992 17.6364C117.685 17.9735 117.532 18.4072 117.532 18.9375V24.5H115.839V18.6989C115.839 18.2254 115.691 17.8447 115.395 17.5568C115.1 17.2689 114.715 17.125 114.242 17.125C113.92 17.125 113.623 17.2102 113.35 17.3807C113.081 17.5473 112.863 17.7803 112.697 18.0795C112.534 18.3788 112.452 18.7254 112.452 19.1193V24.5H110.753ZM124.894 24.5V15.7727H126.593V24.5H124.894ZM125.752 14.4261C125.456 14.4261 125.203 14.3276 124.991 14.1307C124.782 13.9299 124.678 13.6913 124.678 13.4148C124.678 13.1345 124.782 12.8958 124.991 12.6989C125.203 12.4981 125.456 12.3977 125.752 12.3977C126.047 12.3977 126.299 12.4981 126.508 12.6989C126.72 12.8958 126.826 13.1345 126.826 13.4148C126.826 13.6913 126.72 13.9299 126.508 14.1307C126.299 14.3276 126.047 14.4261 125.752 14.4261ZM130.577 19.3182V24.5H128.878V15.7727H130.509V17.1932H130.617C130.818 16.7311 131.132 16.3598 131.56 16.0795C131.992 15.7992 132.536 15.6591 133.191 15.6591C133.786 15.6591 134.306 15.7841 134.753 16.0341C135.2 16.2803 135.547 16.6477 135.793 17.1364C136.039 17.625 136.162 18.2292 136.162 18.9489V24.5H134.464V19.1534C134.464 18.5208 134.299 18.0265 133.969 17.6705C133.64 17.3106 133.187 17.1307 132.611 17.1307C132.217 17.1307 131.867 17.2159 131.56 17.3864C131.257 17.5568 131.017 17.8068 130.839 18.1364C130.664 18.4621 130.577 18.8561 130.577 19.3182ZM140.981 24.6932C140.428 24.6932 139.928 24.5909 139.481 24.3864C139.034 24.178 138.679 23.8769 138.418 23.483C138.161 23.089 138.032 22.6061 138.032 22.0341C138.032 21.5417 138.126 21.1364 138.316 20.8182C138.505 20.5 138.761 20.2481 139.083 20.0625C139.405 19.8769 139.765 19.7367 140.162 19.642C140.56 19.5473 140.965 19.4754 141.378 19.4261C141.901 19.3655 142.325 19.3163 142.651 19.2784C142.977 19.2367 143.214 19.1705 143.361 19.0795C143.509 18.9886 143.583 18.8409 143.583 18.6364V18.5966C143.583 18.1004 143.443 17.7159 143.162 17.4432C142.886 17.1705 142.473 17.0341 141.924 17.0341C141.352 17.0341 140.901 17.161 140.572 17.4148C140.246 17.6648 140.02 17.9432 139.895 18.25L138.299 17.8864C138.488 17.3561 138.765 16.928 139.128 16.6023C139.496 16.2727 139.918 16.0341 140.395 15.8864C140.873 15.7348 141.375 15.6591 141.901 15.6591C142.25 15.6591 142.619 15.7008 143.009 15.7841C143.403 15.8636 143.77 16.0114 144.111 16.2273C144.456 16.4432 144.738 16.7519 144.958 17.1534C145.178 17.5511 145.287 18.0682 145.287 18.7045V24.5H143.628V23.3068H143.56C143.45 23.5265 143.286 23.7424 143.066 23.9545C142.846 24.1667 142.564 24.3428 142.219 24.483C141.875 24.6231 141.462 24.6932 140.981 24.6932ZM141.35 23.3295C141.82 23.3295 142.221 23.2367 142.554 23.0511C142.892 22.8655 143.147 22.6231 143.322 22.3239C143.5 22.0208 143.589 21.697 143.589 21.3523V20.2273C143.528 20.2879 143.411 20.3447 143.236 20.3977C143.066 20.447 142.871 20.4905 142.651 20.5284C142.431 20.5625 142.217 20.5947 142.009 20.625C141.801 20.6515 141.626 20.6742 141.486 20.6932C141.157 20.7348 140.856 20.8049 140.583 20.9034C140.314 21.0019 140.098 21.1439 139.935 21.3295C139.776 21.5114 139.697 21.7538 139.697 22.0568C139.697 22.4773 139.852 22.7955 140.162 23.0114C140.473 23.2235 140.869 23.3295 141.35 23.3295ZM151.624 15.7727V17.1364H146.857V15.7727H151.624ZM148.135 13.6818H149.834V21.9375C149.834 22.267 149.884 22.5151 149.982 22.6818C150.081 22.8447 150.207 22.9564 150.363 23.017C150.522 23.0739 150.694 23.1023 150.88 23.1023C151.016 23.1023 151.135 23.0928 151.238 23.0739C151.34 23.0549 151.42 23.0398 151.476 23.0284L151.783 24.4318C151.685 24.4697 151.545 24.5076 151.363 24.5455C151.181 24.5871 150.954 24.6098 150.681 24.6136C150.234 24.6212 149.817 24.5417 149.431 24.375C149.045 24.2083 148.732 23.9508 148.493 23.6023C148.255 23.2538 148.135 22.8163 148.135 22.2898V13.6818ZM157.171 24.6761C156.311 24.6761 155.571 24.4924 154.949 24.125C154.332 23.7538 153.855 23.233 153.518 22.5625C153.184 21.8883 153.018 21.0985 153.018 20.1932C153.018 19.2992 153.184 18.5114 153.518 17.8295C153.855 17.1477 154.324 16.6155 154.927 16.233C155.533 15.8504 156.241 15.6591 157.052 15.6591C157.544 15.6591 158.021 15.7405 158.483 15.9034C158.946 16.0663 159.36 16.322 159.728 16.6705C160.095 17.0189 160.385 17.4716 160.597 18.0284C160.809 18.5814 160.915 19.2538 160.915 20.0455V20.6477H153.978V19.375H159.251C159.251 18.928 159.16 18.5322 158.978 18.1875C158.796 17.839 158.54 17.5644 158.211 17.3636C157.885 17.1629 157.502 17.0625 157.063 17.0625C156.586 17.0625 156.169 17.1799 155.813 17.4148C155.461 17.6458 155.188 17.9489 154.995 18.3239C154.805 18.6951 154.711 19.0985 154.711 19.5341V20.5284C154.711 21.1117 154.813 21.608 155.018 22.017C155.226 22.4261 155.516 22.7386 155.887 22.9545C156.258 23.1667 156.692 23.2727 157.188 23.2727C157.51 23.2727 157.804 23.2273 158.069 23.1364C158.334 23.0417 158.563 22.9015 158.756 22.7159C158.949 22.5303 159.097 22.3011 159.199 22.0284L160.807 22.3182C160.679 22.7917 160.447 23.2064 160.114 23.5625C159.785 23.9148 159.37 24.1894 158.87 24.3864C158.374 24.5795 157.807 24.6761 157.171 24.6761ZM166.067 24.6705C165.363 24.6705 164.734 24.4905 164.181 24.1307C163.632 23.767 163.2 23.25 162.885 22.5795C162.575 21.9053 162.42 21.0966 162.42 20.1534C162.42 19.2102 162.577 18.4034 162.891 17.733C163.209 17.0625 163.645 16.5492 164.198 16.1932C164.751 15.8371 165.378 15.6591 166.079 15.6591C166.62 15.6591 167.056 15.75 167.385 15.9318C167.719 16.1098 167.976 16.3182 168.158 16.5568C168.344 16.7955 168.488 17.0057 168.59 17.1875H168.692V12.8636H170.391V24.5H168.732V23.142H168.59C168.488 23.3276 168.34 23.5398 168.147 23.7784C167.957 24.017 167.696 24.2254 167.363 24.4034C167.029 24.5814 166.598 24.6705 166.067 24.6705ZM166.442 23.2216C166.931 23.2216 167.344 23.0928 167.681 22.8352C168.022 22.5739 168.279 22.2121 168.454 21.75C168.632 21.2879 168.721 20.75 168.721 20.1364C168.721 19.5303 168.634 19 168.459 18.5455C168.285 18.0909 168.029 17.7367 167.692 17.483C167.355 17.2292 166.938 17.1023 166.442 17.1023C165.931 17.1023 165.505 17.2348 165.164 17.5C164.823 17.7651 164.565 18.1269 164.391 18.5852C164.221 19.0436 164.135 19.5606 164.135 20.1364C164.135 20.7197 164.223 21.2443 164.397 21.7102C164.571 22.1761 164.829 22.5455 165.17 22.8182C165.514 23.0871 165.938 23.2216 166.442 23.2216ZM181.204 15.7727V17.1364H176.272V15.7727H181.204ZM177.624 24.5V14.7614C177.624 14.2159 177.743 13.7633 177.982 13.4034C178.221 13.0398 178.537 12.7689 178.931 12.5909C179.325 12.4091 179.753 12.3182 180.215 12.3182C180.556 12.3182 180.848 12.3466 181.09 12.4034C181.332 12.4564 181.512 12.5057 181.63 12.5511L181.232 13.9261C181.152 13.9034 181.05 13.8769 180.925 13.8466C180.8 13.8125 180.649 13.7955 180.471 13.7955C180.058 13.7955 179.762 13.8977 179.584 14.1023C179.41 14.3068 179.323 14.6023 179.323 14.9886V24.5H177.624ZM186.289 24.6761C185.471 24.6761 184.757 24.4886 184.147 24.1136C183.537 23.7386 183.063 23.214 182.726 22.5398C182.389 21.8655 182.221 21.0776 182.221 20.1761C182.221 19.2708 182.389 18.4792 182.726 17.8011C183.063 17.1231 183.537 16.5966 184.147 16.2216C184.757 15.8466 185.471 15.6591 186.289 15.6591C187.107 15.6591 187.821 15.8466 188.431 16.2216C189.041 16.5966 189.514 17.1231 189.851 17.8011C190.188 18.4792 190.357 19.2708 190.357 20.1761C190.357 21.0776 190.188 21.8655 189.851 22.5398C189.514 23.214 189.041 23.7386 188.431 24.1136C187.821 24.4886 187.107 24.6761 186.289 24.6761ZM186.295 23.25C186.825 23.25 187.264 23.1098 187.613 22.8295C187.961 22.5492 188.219 22.1761 188.385 21.7102C188.556 21.2443 188.641 20.7311 188.641 20.1705C188.641 19.6136 188.556 19.1023 188.385 18.6364C188.219 18.1667 187.961 17.7898 187.613 17.5057C187.264 17.2216 186.825 17.0795 186.295 17.0795C185.76 17.0795 185.317 17.2216 184.965 17.5057C184.617 17.7898 184.357 18.1667 184.187 18.6364C184.02 19.1023 183.937 19.6136 183.937 20.1705C183.937 20.7311 184.02 21.2443 184.187 21.7102C184.357 22.1761 184.617 22.5492 184.965 22.8295C185.317 23.1098 185.76 23.25 186.295 23.25ZM192.253 24.5V15.7727H193.895V17.1591H193.986C194.145 16.6894 194.426 16.3201 194.827 16.0511C195.233 15.7784 195.691 15.642 196.202 15.642C196.308 15.642 196.433 15.6458 196.577 15.6534C196.725 15.661 196.84 15.6705 196.924 15.6818V17.3068C196.856 17.2879 196.734 17.267 196.56 17.2443C196.386 17.2178 196.212 17.2045 196.037 17.2045C195.636 17.2045 195.278 17.2898 194.964 17.4602C194.653 17.6269 194.407 17.8598 194.225 18.1591C194.043 18.4545 193.952 18.7917 193.952 19.1705V24.5H192.253Z" fill="white"/>
<path d="M91.9276 44.5V34.368H88.5106V31.835H98.4046V34.368H94.9706V44.5H91.9276ZM102.858 44.738C101.929 44.738 101.09 44.5397 100.342 44.143C99.6054 43.735 99.016 43.1513 98.574 42.392C98.1434 41.6327 97.928 40.7203 97.928 39.655C97.928 38.873 98.0527 38.1703 98.302 37.547C98.5627 36.9237 98.9084 36.391 99.339 35.949C99.781 35.507 100.274 35.1727 100.818 34.946C101.373 34.708 101.94 34.589 102.518 34.589C103.447 34.589 104.218 34.793 104.83 35.201C105.442 35.609 105.901 36.1643 106.207 36.867C106.513 37.5697 106.666 38.363 106.666 39.247C106.666 39.519 106.649 39.774 106.615 40.012C106.592 40.25 106.564 40.4313 106.53 40.556H100.852C100.943 40.998 101.101 41.355 101.328 41.627C101.555 41.899 101.832 42.103 102.161 42.239C102.49 42.3637 102.858 42.426 103.266 42.426C103.617 42.426 103.957 42.375 104.286 42.273C104.615 42.171 104.955 42.018 105.306 41.814L106.309 43.633C105.81 43.9843 105.249 44.2563 104.626 44.449C104.014 44.6417 103.425 44.738 102.858 44.738ZM100.801 38.567H104.099C104.099 38.091 103.98 37.6943 103.742 37.377C103.515 37.0597 103.124 36.901 102.569 36.901C102.297 36.901 102.036 36.9633 101.787 37.088C101.549 37.2013 101.339 37.3827 101.158 37.632C100.988 37.87 100.869 38.1817 100.801 38.567ZM110.698 44.738C110.109 44.738 109.599 44.6077 109.168 44.347C108.738 44.075 108.403 43.718 108.165 43.276C107.939 42.8227 107.825 42.3297 107.825 41.797C107.825 40.777 108.25 39.9837 109.1 39.417C109.95 38.839 111.316 38.448 113.197 38.244C113.175 37.9833 113.112 37.7623 113.01 37.581C112.908 37.3883 112.75 37.2467 112.534 37.156C112.33 37.054 112.064 37.003 111.735 37.003C111.35 37.003 110.953 37.0767 110.545 37.224C110.137 37.3713 109.69 37.581 109.202 37.853L108.148 35.864C108.579 35.6033 109.015 35.3823 109.457 35.201C109.911 35.0083 110.375 34.861 110.851 34.759C111.327 34.6457 111.815 34.589 112.313 34.589C113.152 34.589 113.86 34.7477 114.438 35.065C115.016 35.3823 115.458 35.8697 115.764 36.527C116.07 37.173 116.223 38.0003 116.223 39.009V44.5H113.758L113.554 43.531H113.469C113.073 43.8823 112.642 44.1713 112.177 44.398C111.724 44.6247 111.231 44.738 110.698 44.738ZM111.735 42.392C112.041 42.392 112.308 42.324 112.534 42.188C112.761 42.052 112.982 41.865 113.197 41.627V40.08C112.574 40.1593 112.075 40.2727 111.701 40.42C111.339 40.5673 111.078 40.7373 110.919 40.93C110.772 41.1227 110.698 41.3323 110.698 41.559C110.698 41.8423 110.789 42.052 110.97 42.188C111.163 42.324 111.418 42.392 111.735 42.392ZM124.153 44.738C123.348 44.738 122.589 44.602 121.875 44.33C121.161 44.058 120.526 43.65 119.971 43.106C119.427 42.5507 118.996 41.8707 118.679 41.066C118.373 40.25 118.22 39.3093 118.22 38.244C118.22 37.19 118.379 36.255 118.696 35.439C119.025 34.6117 119.467 33.9147 120.022 33.348C120.589 32.7813 121.235 32.3507 121.96 32.056C122.685 31.7613 123.45 31.614 124.255 31.614C125.082 31.614 125.819 31.7783 126.465 32.107C127.122 32.4357 127.666 32.821 128.097 33.263L126.516 35.201C126.199 34.9063 125.864 34.6683 125.513 34.487C125.162 34.3057 124.759 34.215 124.306 34.215C123.762 34.215 123.263 34.3737 122.81 34.691C122.357 34.997 121.994 35.4447 121.722 36.034C121.461 36.612 121.331 37.3147 121.331 38.142C121.331 38.9807 121.45 39.7003 121.688 40.301C121.937 40.8903 122.283 41.3437 122.725 41.661C123.167 41.967 123.683 42.12 124.272 42.12C124.782 42.12 125.235 42.0067 125.632 41.78C126.04 41.5533 126.391 41.2813 126.686 40.964L128.284 42.868C127.751 43.4913 127.134 43.9617 126.431 44.279C125.74 44.585 124.98 44.738 124.153 44.738ZM134.098 44.738C133.282 44.738 132.511 44.5397 131.786 44.143C131.06 43.735 130.471 43.1513 130.018 42.392C129.576 41.6327 129.355 40.7203 129.355 39.655C129.355 38.5897 129.576 37.683 130.018 36.935C130.471 36.1757 131.06 35.5977 131.786 35.201C132.511 34.793 133.282 34.589 134.098 34.589C134.71 34.589 135.299 34.7023 135.866 34.929C136.432 35.1557 136.937 35.49 137.379 35.932C137.821 36.3627 138.172 36.8897 138.433 37.513C138.693 38.1363 138.824 38.8503 138.824 39.655C138.824 40.7203 138.597 41.6327 138.144 42.392C137.702 43.1513 137.118 43.735 136.393 44.143C135.679 44.5397 134.914 44.738 134.098 44.738ZM134.098 42.29C134.472 42.29 134.778 42.1823 135.016 41.967C135.265 41.7517 135.446 41.4457 135.56 41.049C135.673 40.6523 135.73 40.1877 135.73 39.655C135.73 39.1223 135.673 38.6633 135.56 38.278C135.446 37.8813 135.265 37.5753 135.016 37.36C134.778 37.1447 134.472 37.037 134.098 37.037C133.724 37.037 133.412 37.1447 133.163 37.36C132.925 37.5753 132.743 37.8813 132.619 38.278C132.505 38.6633 132.449 39.1223 132.449 39.655C132.449 40.1877 132.505 40.6523 132.619 41.049C132.743 41.4457 132.925 41.7517 133.163 41.967C133.412 42.1823 133.724 42.29 134.098 42.29ZM140.723 44.5V34.827H143.188L143.409 36.034H143.46C143.857 35.6373 144.304 35.2973 144.803 35.014C145.313 34.7307 145.897 34.589 146.554 34.589C147.608 34.589 148.373 34.9403 148.849 35.643C149.325 36.3457 149.563 37.3033 149.563 38.516V44.5H146.537V38.89C146.537 38.2213 146.446 37.768 146.265 37.53C146.084 37.292 145.8 37.173 145.415 37.173C145.075 37.173 144.786 37.2467 144.548 37.394C144.31 37.5413 144.044 37.7567 143.749 38.04V44.5H140.723ZM161.832 31.937H164.467V46.098H161.832V31.937ZM156.409 30.883H169.975V41.763H167.289V33.246H158.959V41.763H156.409V30.883ZM157.565 34.742H168.513V37.071H157.565V34.742ZM157.548 38.533H168.496V40.896H157.548V38.533ZM174.752 30.492H187.536V32.906H174.752V30.492ZM174.65 36.782H187.893V39.043H174.65V36.782ZM176.775 33.722H186.499V35.966H176.775V33.722ZM173.307 30.492H175.891V35.898C175.891 36.646 175.869 37.4733 175.823 38.38C175.789 39.2867 175.71 40.216 175.585 41.168C175.461 42.1087 175.279 43.021 175.041 43.905C174.815 44.7777 174.514 45.5653 174.14 46.268C173.97 46.132 173.744 45.979 173.46 45.809C173.177 45.639 172.882 45.4747 172.576 45.316C172.282 45.1687 172.027 45.0553 171.811 44.976C172.163 44.3413 172.435 43.6387 172.627 42.868C172.831 42.0973 172.979 41.304 173.069 40.488C173.171 39.672 173.234 38.873 173.256 38.091C173.29 37.2977 173.307 36.5667 173.307 35.898V30.492ZM182.13 37.649C182.595 39.077 183.332 40.318 184.34 41.372C185.349 42.4147 186.669 43.1683 188.301 43.633C188.12 43.7917 187.927 44.0013 187.723 44.262C187.519 44.5113 187.321 44.772 187.128 45.044C186.947 45.316 186.8 45.5653 186.686 45.792C185.496 45.3613 184.476 44.789 183.626 44.075C182.776 43.3497 182.051 42.494 181.45 41.508C180.861 40.522 180.362 39.4057 179.954 38.159L182.13 37.649ZM185.53 38.771L187.723 40.182C187.327 40.4767 186.919 40.7713 186.499 41.066C186.08 41.3493 185.672 41.6157 185.275 41.865C184.879 42.1143 184.51 42.3297 184.17 42.511L182.504 41.304C182.833 41.0887 183.179 40.8393 183.541 40.556C183.915 40.2613 184.278 39.961 184.629 39.655C184.981 39.3377 185.281 39.043 185.53 38.771ZM177.03 46.149L176.792 43.956L177.795 43.191L181.858 42.341C181.824 42.7037 181.807 43.1117 181.807 43.565C181.807 44.0183 181.824 44.3923 181.858 44.687C180.963 44.9023 180.226 45.0837 179.648 45.231C179.07 45.3897 178.611 45.52 178.271 45.622C177.931 45.7353 177.671 45.8317 177.489 45.911C177.308 45.9903 177.155 46.0697 177.03 46.149ZM177.03 46.149C176.962 45.9677 176.849 45.758 176.69 45.52C176.532 45.282 176.362 45.0497 176.18 44.823C176.01 44.6077 175.857 44.4377 175.721 44.313C175.948 44.1203 176.175 43.8483 176.401 43.497C176.639 43.1457 176.758 42.7263 176.758 42.239V38.363H179.308V43.463C179.308 43.463 179.229 43.5253 179.07 43.65C178.923 43.7747 178.736 43.9447 178.509 44.16C178.283 44.364 178.056 44.585 177.829 44.823C177.603 45.061 177.41 45.2933 177.251 45.52C177.104 45.758 177.03 45.9677 177.03 46.149ZM199.368 29.965H205.148V32.175H201.799V40.76H199.368V29.965ZM215.314 37.428C215.847 38.9467 216.686 40.2443 217.83 41.321C218.986 42.3863 220.494 43.1513 222.352 43.616C222.16 43.7973 221.956 44.024 221.74 44.296C221.525 44.568 221.321 44.8457 221.128 45.129C220.936 45.4237 220.777 45.69 220.652 45.928C219.304 45.4973 218.142 44.9193 217.167 44.194C216.204 43.4687 215.382 42.5903 214.702 41.559C214.034 40.5163 213.461 39.332 212.985 38.006L215.314 37.428ZM207.29 31.002H220.839V33.552H207.29V31.002ZM206.627 36.068H221.485V38.618H206.627V36.068ZM212.611 31.869H215.229V35.15C215.229 35.8527 215.178 36.6007 215.076 37.394C214.974 38.1873 214.776 38.992 214.481 39.808C214.187 40.624 213.756 41.4173 213.189 42.188C212.623 42.9587 211.88 43.6727 210.962 44.33C210.056 44.976 208.922 45.5313 207.562 45.996C207.46 45.792 207.313 45.554 207.12 45.282C206.939 45.01 206.741 44.7437 206.525 44.483C206.321 44.2223 206.129 44.0127 205.947 43.854C207.137 43.48 208.129 43.0267 208.922 42.494C209.727 41.95 210.373 41.3663 210.86 40.743C211.348 40.1083 211.716 39.4623 211.965 38.805C212.226 38.1477 212.396 37.5017 212.475 36.867C212.566 36.2323 212.611 35.6487 212.611 35.116V31.869ZM224.239 31.648H237.941V34.232H224.239V31.648ZM223.27 42.511H238.961V45.01H223.27V42.511ZM229.577 33.093H232.416V43.497H229.577V33.093ZM240.814 30.883H255.434V33.212H240.814V30.883ZM240.287 36.986H255.91V39.349H240.287V36.986ZM249.977 32.277H252.578V46.132H249.977V32.277ZM244.01 32.294H246.56V36.629C246.56 37.445 246.515 38.2893 246.424 39.162C246.334 40.0233 246.141 40.879 245.846 41.729C245.563 42.5677 245.127 43.3723 244.537 44.143C243.959 44.9023 243.183 45.588 242.208 46.2C242.061 46.0073 241.868 45.792 241.63 45.554C241.392 45.3273 241.143 45.1007 240.882 44.874C240.633 44.6587 240.401 44.483 240.185 44.347C241.047 43.837 241.732 43.2703 242.242 42.647C242.752 42.0237 243.132 41.3777 243.381 40.709C243.642 40.029 243.812 39.3433 243.891 38.652C243.971 37.9493 244.01 37.2693 244.01 36.612V32.294ZM265.175 29.965L267.402 30.39C267.198 31.342 266.943 32.2713 266.637 33.178C266.331 34.0733 265.98 34.912 265.583 35.694C265.198 36.4647 264.779 37.139 264.325 37.717C264.201 37.5923 264.019 37.445 263.781 37.275C263.555 37.0937 263.322 36.918 263.084 36.748C262.846 36.578 262.642 36.442 262.472 36.34C262.914 35.8527 263.305 35.269 263.645 34.589C263.997 33.909 264.297 33.178 264.546 32.396C264.807 31.6027 265.017 30.7923 265.175 29.965ZM270.802 32.498H273.131C273.131 32.498 273.126 32.566 273.114 32.702C273.114 32.838 273.114 32.991 273.114 33.161C273.114 33.331 273.109 33.467 273.097 33.569C273.029 35.4617 272.956 37.0767 272.876 38.414C272.797 39.7513 272.712 40.8563 272.621 41.729C272.542 42.6017 272.44 43.2873 272.315 43.786C272.202 44.2847 272.066 44.6417 271.907 44.857C271.692 45.1743 271.477 45.401 271.261 45.537C271.046 45.6843 270.791 45.792 270.496 45.86C270.247 45.9167 269.952 45.9507 269.612 45.962C269.284 45.9733 268.932 45.9733 268.558 45.962C268.536 45.6107 268.462 45.2027 268.337 44.738C268.224 44.2847 268.071 43.888 267.878 43.548C268.162 43.582 268.422 43.6047 268.66 43.616C268.91 43.616 269.114 43.616 269.272 43.616C269.397 43.616 269.499 43.5933 269.578 43.548C269.669 43.4913 269.765 43.4007 269.867 43.276C269.969 43.14 270.066 42.8623 270.156 42.443C270.247 42.0123 270.332 41.4003 270.411 40.607C270.491 39.8023 270.559 38.7823 270.615 37.547C270.683 36.3003 270.746 34.793 270.802 33.025V32.498ZM266.042 32.498H271.873V34.776H264.903L266.042 32.498ZM266.943 33.246L268.711 34.113C268.496 35.065 268.196 36.0453 267.81 37.054C267.436 38.0627 266.994 39.009 266.484 39.893C265.974 40.777 265.419 41.5137 264.818 42.103C264.592 41.8763 264.303 41.6327 263.951 41.372C263.6 41.1113 263.26 40.896 262.931 40.726C263.43 40.3407 263.889 39.8703 264.308 39.315C264.728 38.7483 265.107 38.1307 265.447 37.462C265.787 36.782 266.082 36.085 266.331 35.371C266.581 34.6457 266.785 33.9373 266.943 33.246ZM269.272 33.501L271.159 34.368C270.955 35.456 270.695 36.544 270.377 37.632C270.06 38.7087 269.68 39.7513 269.238 40.76C268.808 41.7573 268.309 42.6753 267.742 43.514C267.176 44.3527 266.541 45.0667 265.838 45.656C265.612 45.418 265.306 45.163 264.92 44.891C264.546 44.619 264.189 44.398 263.849 44.228C264.597 43.6953 265.26 43.0437 265.838 42.273C266.428 41.491 266.943 40.624 267.385 39.672C267.827 38.72 268.201 37.7227 268.507 36.68C268.825 35.626 269.08 34.5663 269.272 33.501ZM256.947 39.145C257.514 39.0203 258.154 38.873 258.868 38.703C259.594 38.5217 260.353 38.3233 261.146 38.108C261.951 37.8927 262.744 37.6773 263.526 37.462L263.849 39.638C262.784 39.9667 261.69 40.2953 260.568 40.624C259.458 40.9527 258.443 41.2473 257.525 41.508L256.947 39.145ZM259.922 29.965H262.183V46.115H259.922V29.965ZM257.61 30.934L259.65 31.274C259.582 32.022 259.492 32.7757 259.378 33.535C259.276 34.2943 259.146 35.014 258.987 35.694C258.84 36.3627 258.664 36.952 258.46 37.462C258.336 37.36 258.166 37.241 257.95 37.105C257.746 36.9577 257.531 36.816 257.304 36.68C257.089 36.5327 256.902 36.4193 256.743 36.34C256.913 35.898 257.055 35.3823 257.168 34.793C257.282 34.2037 257.372 33.5803 257.44 32.923C257.52 32.2543 257.576 31.5913 257.61 30.934ZM258.273 33.144H263.407V35.49H257.797L258.273 33.144ZM279.778 46.115H273.998V43.905H277.347V35.32H279.778V46.115Z" fill="white"/>
</g>
<path d="M310.861 8.66923C311.134 10.2293 311.522 11.2992 312.187 12.2882C312.634 12.9574 313.129 13.4177 313.713 13.7076C314.369 14.0401 314.919 14.1381 315.137 13.9676C315.196 13.9207 315.29 13.8824 315.35 13.8824C315.546 13.8824 315.563 13.8099 315.537 13.0853C315.516 12.3265 315.439 11.9685 315.192 11.4271C314.608 10.1739 313.393 9.16369 311.339 8.23871C311.049 8.10657 310.797 8.00001 310.78 8.00001C310.763 8.00001 310.797 8.30265 310.861 8.66923Z" fill="white"/>
<path d="M317.327 9.75618C316.249 11.7852 315.904 13.4561 316.296 14.7945C316.564 15.7238 317.344 16.8661 317.703 16.8661C317.903 16.8661 318.355 16.2694 318.687 15.5661C318.977 14.9565 319.062 14.543 319.067 13.7545C319.067 12.902 318.93 12.2498 318.551 11.2737C318.376 10.8176 317.694 9.42796 317.617 9.36402C317.575 9.32992 317.506 9.4237 317.327 9.75618Z" fill="white"/>
<path d="M311.671 13.4859C311.671 13.503 311.756 13.8269 311.863 14.202C312.596 16.7809 313.922 18.5456 315.405 18.9292C316.091 19.104 316.467 19.0997 316.624 18.9164C316.663 18.8696 316.765 18.8184 316.85 18.8014C316.935 18.7886 317.016 18.7459 317.029 18.7118C317.042 18.682 317.029 18.4476 317.004 18.1918C316.859 16.7894 316.322 15.8815 315.115 14.9864C314.297 14.3768 313.466 14.006 311.769 13.4817C311.714 13.4646 311.671 13.4646 311.671 13.4859Z" fill="white"/>
<path d="M320.175 15.6513C319.216 16.8704 318.683 17.8124 318.423 18.763C318.291 19.2361 318.24 20.127 318.316 20.5405C318.427 21.133 318.704 21.815 319.037 22.318C319.182 22.5396 319.19 22.5439 319.352 22.5226C319.591 22.4885 319.813 22.3265 320.119 21.9599C320.708 21.2523 321.044 20.5746 321.228 19.7221C321.347 19.185 321.351 18.1534 321.245 17.4842C321.108 16.6402 320.712 15.1185 320.627 15.1185C320.605 15.1185 320.405 15.3572 320.175 15.6513Z" fill="white"/>
<path d="M314.544 18.8994C314.557 19.0145 314.578 19.381 314.591 19.7221C314.668 21.5635 315.017 22.8039 315.767 23.9036C316.232 24.5814 317.004 25.1909 317.634 25.3742C317.843 25.4382 317.877 25.4382 318.01 25.3742C318.086 25.3359 318.197 25.306 318.253 25.306C318.312 25.306 318.368 25.2719 318.385 25.2293C318.457 25.0375 318.542 24.5174 318.564 24.1125C318.636 22.7101 317.993 21.4186 316.624 20.2208C315.878 19.5686 314.706 18.699 314.578 18.699C314.54 18.699 314.531 18.7544 314.544 18.8994Z" fill="white"/>
<path d="M322.404 21.6573C320.665 22.6974 319.676 23.6309 319.148 24.7306C318.849 25.3615 318.811 25.5533 318.815 26.4357C318.82 27.0452 318.837 27.2669 318.9 27.5226C318.977 27.8253 318.99 27.8423 319.109 27.8551C319.182 27.8636 319.254 27.8892 319.28 27.9105C319.425 28.0512 320.03 27.838 320.559 27.4629C321.279 26.9472 321.995 25.9242 322.362 24.8798C322.609 24.1637 322.809 23.145 322.86 22.3223C322.873 22.1006 322.895 21.798 322.907 21.6488C322.916 21.5039 322.912 21.3845 322.895 21.3845C322.877 21.3845 322.656 21.5081 322.404 21.6573Z" fill="white"/>
<path d="M314.808 23.7758C314.761 23.9165 314.57 24.9395 314.501 25.4126C314.403 26.0946 314.403 27.237 314.497 27.7613C314.685 28.8014 315.115 29.6454 315.827 30.3572C316.321 30.8559 316.483 30.954 316.803 30.954H317.063L317.178 30.7409C317.379 30.3785 317.587 29.6667 317.643 29.1594C317.783 27.8636 317.229 26.4527 315.976 24.931C315.486 24.3385 314.838 23.6906 314.808 23.7758Z" fill="white"/>
<path d="M322.933 27.5013C321.603 27.7144 320.58 28.0043 319.911 28.3495C318.956 28.844 318.257 29.5985 317.86 30.5533C317.72 30.89 317.528 31.7425 317.566 31.8491C317.579 31.8789 317.669 31.9301 317.758 31.9557C317.856 31.9812 317.958 32.0452 317.997 32.1006C318.099 32.2583 318.321 32.3137 318.764 32.2839C320.158 32.1901 321.275 31.3973 322.443 29.6709C322.877 29.023 323.696 27.3862 323.576 27.399C323.559 27.4032 323.27 27.4459 322.933 27.5013Z" fill="white"/>
<path d="M313.747 28.9548C313.7 29.0401 313.376 30.0887 313.278 30.4851C313.039 31.4271 313.014 31.6317 313.018 32.5524C313.018 33.3623 313.027 33.4561 313.133 33.844C313.329 34.5686 313.794 35.3785 314.348 35.9454C314.646 36.2524 314.804 36.3461 315.017 36.3461C315.175 36.3461 315.2 36.3291 315.333 36.1287C315.686 35.5874 315.938 34.8883 316.023 34.2191C316.181 32.9233 315.571 31.2651 314.31 29.59C313.883 29.0188 313.781 28.9037 313.747 28.9548Z" fill="white"/>
<path d="M311.155 32.7315C310.571 33.8142 310.235 34.6922 310.051 35.5831C309.928 36.1671 309.949 37.1262 310.09 37.6249C310.341 38.5115 311.143 39.7136 311.475 39.7136C311.59 39.7136 311.965 39.3001 312.221 38.8824C312.49 38.4561 312.711 37.9318 312.814 37.4885C312.92 37.0196 312.907 35.9028 312.792 35.3657C312.681 34.8755 312.481 34.2362 312.281 33.746C312.114 33.3368 311.62 32.3137 311.535 32.1986C311.484 32.1347 311.441 32.1944 311.155 32.7315Z" fill="white"/>
<path d="M321.304 32.1987C320.746 32.2328 319.932 32.3436 319.544 32.4416C318.129 32.8039 317.025 33.682 316.488 34.8756C316.385 35.1057 316.147 35.792 316.147 35.8602C316.147 35.8687 316.249 35.9242 316.373 35.9796C316.492 36.035 316.637 36.1373 316.688 36.2055C316.82 36.393 317.097 36.4484 317.72 36.4186C318.815 36.3675 319.732 35.9156 320.712 34.9438C321.283 34.3726 321.773 33.7375 322.242 32.9489C322.464 32.5823 322.664 32.2541 322.681 32.2242C322.707 32.1816 322.596 32.1688 322.127 32.1773C321.803 32.1816 321.432 32.1901 321.304 32.1987Z" fill="white"/>
<path d="M308.325 35.7153C306.731 37.2583 306.002 38.4945 305.891 39.8329C305.84 40.451 306.023 41.3419 306.334 41.9727L306.492 42.2924H306.748C306.97 42.2924 307.033 42.2711 307.217 42.1432C307.912 41.6658 308.623 40.6513 308.913 39.7349C309.148 38.9804 309.178 38.7502 309.178 37.5823C309.178 36.653 309.16 36.4015 309.075 35.8559C309.02 35.5021 308.96 35.1995 308.943 35.1824C308.926 35.1611 308.645 35.3998 308.325 35.7153Z" fill="white"/>
<path d="M316.479 36.6701C315.264 36.8576 314.582 37.156 313.917 37.7911C313.568 38.1236 313.325 38.4348 313.061 38.8866C312.788 39.3598 312.788 39.3512 313.078 39.5345C313.218 39.6198 313.346 39.7263 313.359 39.7647C313.466 40.1014 314.506 40.3401 315.358 40.2293C315.831 40.1654 316.535 39.9352 316.957 39.705C317.788 39.2532 318.824 38.4135 319.143 37.9403C319.25 37.7783 319.476 37.497 319.642 37.3095C319.808 37.1262 319.936 36.9685 319.928 36.9599C319.919 36.9514 319.642 36.896 319.318 36.8363C317.933 36.5933 317.221 36.5507 316.479 36.6701Z" fill="white"/>
<path d="M304.745 39.0273C302.468 39.5516 301.126 40.2635 300.375 41.3547C300.013 41.8832 299.715 42.7613 299.664 43.4476L299.638 43.7929L299.787 43.8227C299.872 43.8355 300 43.908 300.077 43.9804L300.213 44.1168L300.648 44.0955C301.369 44.0614 302.059 43.7801 302.728 43.2515C303.312 42.7912 304.097 41.7596 304.608 40.7792C304.825 40.37 305.277 39.2788 305.346 39.0145C305.38 38.8781 305.397 38.8781 304.745 39.0273Z" fill="white"/>
<path d="M311.607 40.272C310.878 40.3743 310.051 40.7707 309.476 41.3035C309.156 41.5934 308.73 42.0963 308.73 42.1773C308.73 42.2029 308.845 42.3223 308.986 42.4459C309.126 42.5695 309.254 42.7144 309.267 42.7698C309.318 42.9659 309.774 43.2259 310.38 43.405C311.42 43.7076 312.634 43.5158 313.981 42.8338C314.757 42.4416 315.128 42.1944 315.277 41.9685C315.345 41.8662 315.571 41.6488 315.776 41.4825C316.028 41.2822 316.13 41.1756 316.091 41.1543C316.062 41.1373 315.729 41.0094 315.354 40.8687C314.578 40.5831 313.994 40.4126 313.466 40.3274C312.984 40.2507 311.982 40.2208 311.607 40.272Z" fill="white"/>
<path d="M306.07 42.8934C305.682 42.9787 305.286 43.1321 304.894 43.341C304.514 43.5456 304.088 43.8525 304.084 43.9165C304.084 43.942 304.195 44.1168 304.331 44.3086C304.463 44.5004 304.621 44.7349 304.681 44.8329C304.872 45.1483 305.512 45.6215 306.036 45.8346C307.029 46.2353 308.21 46.2481 309.689 45.8772C310.371 45.7025 310.563 45.6172 310.644 45.451C310.682 45.3657 310.78 45.2975 310.985 45.208C311.138 45.1398 311.322 45.0588 311.39 45.029L311.513 44.9736L311.062 44.6454C309.727 43.6735 308.909 43.2387 307.877 42.9702C307.349 42.8295 306.505 42.7954 306.07 42.8934Z" fill="white"/>
<path d="M300.695 44.688C300.533 44.7221 300.252 44.8073 300.077 44.8755C299.761 44.9949 299.122 45.3359 299.024 45.4382C298.947 45.5149 299.574 46.5209 299.906 46.8619C300.38 47.3478 300.972 47.6846 301.718 47.8849C302.119 47.9915 302.2 48 303.082 48C303.875 48 304.101 47.9872 304.553 47.902C305.171 47.7911 305.448 47.6846 305.448 47.5652C305.448 47.4714 305.593 47.3905 305.981 47.2754C306.121 47.2327 306.249 47.1858 306.27 47.1731C306.305 47.1432 305.422 46.3717 304.902 45.9795C303.964 45.2805 303.061 44.8457 302.208 44.6837C301.773 44.5985 301.091 44.6027 300.695 44.688Z" fill="white"/>
<defs>
<filter id="filter0_d_18_232" x="82.4176" y="3.9" width="214.2" height="48.2" filterUnits="userSpaceOnUse" color-interpolation-filters="sRGB">
<feFlood flood-opacity="0" result="BackgroundImageFix"/>
<feColorMatrix in="SourceAlpha" type="matrix" values="0 0 0 0 0 0 0 0 0 0 0 0 0 0 0 0 0 0 127 0" result="hardAlpha"/>
<feOffset/>
<feGaussianBlur stdDeviation="2.8"/>
<feComposite in2="hardAlpha" operator="out"/>
<feColorMatrix type="matrix" values="0 0 0 0 0 0 0 0 0 0 0 0 0 0 0 0 0 0 0.25 0"/>
<feBlend mode="normal" in2="BackgroundImageFix" result="effect1_dropShadow_18_232"/>
<feBlend mode="normal" in="SourceGraphic" in2="effect1_dropShadow_18_232" result="shape"/>
</filter>
<linearGradient id="paint0_linear_18_232" x1="165.5" y1="0" x2="165.5" y2="56" gradientUnits="userSpaceOnUse">
<stop stop-color="#15B8A6"/>
<stop offset="1" stop-color="#0086C7"/>
</linearGradient>
</defs>
</svg>
