<svg width="317" height="56" viewBox="0 0 317 56" fill="none" xmlns="http://www.w3.org/2000/svg">
<rect width="317" height="56" rx="8" fill="url(#paint0_linear_17_494)"/>
<rect x="1.05" y="1.05" width="314.9" height="53.9" rx="6.95" stroke="white" stroke-opacity="0.15" stroke-width="2.1"/>
<path d="M26.2829 8.18349C24.2281 9.10429 22.9706 10.1061 22.3695 11.2997C22.0881 11.8624 21.9304 12.5829 21.9389 13.2521C21.9475 13.768 21.973 13.8532 22.1265 13.8703C22.1947 13.8788 22.297 13.9214 22.3524 13.9683C22.5656 14.1346 23.124 14.0323 23.772 13.704C24.9443 13.1157 25.8992 11.6962 26.4065 9.78636C26.5045 9.41548 26.7518 8.14939 26.7518 8.01297C26.7518 7.97887 26.6836 8.00445 26.2829 8.18349Z" fill="white"/>
<path d="M19.637 9.79914C18.2302 12.4379 18.0512 14.3477 19.0615 16.0529C19.3087 16.4707 19.5986 16.8117 19.7435 16.8458C19.9013 16.8884 20.1187 16.7222 20.4128 16.3257C21.7258 14.5779 21.696 12.8045 20.302 10.008C20.1144 9.62862 19.9439 9.31743 19.9269 9.31743C19.9098 9.31743 19.7777 9.53484 19.637 9.79914Z" fill="white"/>
<path d="M25.2683 13.623C24.4072 13.9 23.9468 14.0876 23.3841 14.3775C22.2203 14.9786 21.3592 15.7587 20.9329 16.607C20.6558 17.1569 20.4853 17.8816 20.4853 18.504V18.7726L20.6388 18.7982C20.7198 18.8152 20.8221 18.8664 20.8604 18.9133C20.9883 19.0582 21.2143 19.0923 21.6363 19.0198C22.4377 18.8792 22.9706 18.6063 23.5674 18.0266C24.4839 17.1399 25.1617 15.8738 25.6477 14.1686C25.7415 13.8318 25.8268 13.5334 25.8353 13.5036C25.8609 13.4354 25.8651 13.4311 25.2683 13.623Z" fill="white"/>
<path d="M16.6571 15.7417C15.9154 18.3548 16.0219 20.0344 17.0195 21.4966C17.4756 22.1702 17.8891 22.5325 18.196 22.5325C18.2941 22.5325 18.3452 22.4814 18.5115 22.2213C18.6223 22.0551 18.7886 21.7439 18.8781 21.535C19.6497 19.7488 19.1808 17.9712 17.3307 15.6479C17.0962 15.3537 16.8873 15.115 16.8703 15.115C16.8489 15.115 16.7509 15.3964 16.6571 15.7417Z" fill="white"/>
<path d="M22.4249 19.0028C21.2696 19.8298 20.2934 20.7123 19.8117 21.3602C19.5304 21.7396 19.1893 22.4174 19.0785 22.8309C18.8994 23.496 18.8952 24.2718 19.0572 25.0008C19.1211 25.2736 19.1382 25.3035 19.2277 25.3035C19.2874 25.3035 19.3982 25.3333 19.4749 25.3717C19.6071 25.4356 19.6412 25.4356 19.8501 25.3717C20.4554 25.1926 21.2185 24.6086 21.6874 23.9521C22.5698 22.7286 22.8768 21.4668 22.9578 18.7257C22.9578 18.649 22.8214 18.7215 22.4249 19.0028Z" fill="white"/>
<path d="M14.6195 21.9656C14.6919 23.351 14.952 24.5575 15.3868 25.4953C15.7321 26.2371 16.3843 27.0683 16.9257 27.4563C17.4543 27.8357 18.1065 28.0616 18.2046 27.9039C18.2174 27.8783 18.2856 27.8612 18.3538 27.8612C18.5073 27.8612 18.5371 27.8101 18.6352 27.3497C18.7503 26.8168 18.7375 25.8704 18.6138 25.41C18.3026 24.2548 17.3946 23.1677 15.8983 22.1574C15.5786 21.9443 14.6493 21.3816 14.6152 21.3816C14.6024 21.3816 14.6024 21.6459 14.6195 21.9656Z" fill="white"/>
<path d="M22.2928 24.0757C21.5212 24.8686 21.0309 25.5081 20.4938 26.4118C20.1485 26.9958 19.8927 27.8527 19.8586 28.5518C19.8202 29.3149 19.9652 30.0225 20.302 30.6918L20.4469 30.9817L20.6984 30.9646C20.886 30.9518 20.9926 30.9135 21.129 30.8197C21.8494 30.3252 22.5613 29.3319 22.8427 28.4324C23.1752 27.3752 23.1624 25.9898 22.8 24.2675C22.7404 23.9691 22.6764 23.7262 22.6636 23.7262C22.6466 23.7262 22.4803 23.8839 22.2928 24.0757Z" fill="white"/>
<path d="M13.9331 27.4946C13.9757 27.6822 14.5598 28.8886 14.7942 29.2723C15.9751 31.2162 17.2369 32.1839 18.7204 32.2819C19.1595 32.3117 19.3854 32.2563 19.4877 32.1029C19.5218 32.0474 19.6327 31.9835 19.7478 31.9537L19.9439 31.8982L19.914 31.6126C19.8544 30.9433 19.492 30.0822 19.0359 29.5067C18.1705 28.4239 16.8746 27.8527 14.4404 27.4818L13.9118 27.4051L13.9331 27.4946Z" fill="white"/>
<path d="M23.3798 29.3447C21.4743 31.7874 21.0054 33.8336 21.9219 35.6965C22.0072 35.867 22.1308 36.0844 22.1947 36.174C22.3013 36.3189 22.3439 36.3445 22.4718 36.3445C22.6892 36.3445 22.8171 36.2635 23.1795 35.8841C24.518 34.4816 24.842 32.7849 24.2154 30.4232C24.0534 29.8264 23.7678 28.927 23.7337 28.927C23.7166 28.927 23.5589 29.1145 23.3798 29.3447Z" fill="white"/>
<path d="M25.669 32.7721C24.4754 35.1977 24.2878 36.8987 25.0467 38.4546C25.4218 39.2305 25.8609 39.7548 26.0825 39.6951C26.2147 39.661 26.4961 39.3712 26.7263 39.0344C27.7877 37.4486 27.8218 35.9608 26.8499 33.7441C26.641 33.2666 26.0442 32.1242 26.0058 32.1242C25.9973 32.1242 25.8481 32.4183 25.669 32.7721Z" fill="white"/>
<path d="M14.8156 32.1796C14.8156 32.1924 14.9264 32.3927 15.0671 32.6229C15.2035 32.8531 15.3953 33.1814 15.4934 33.3519C15.8983 34.051 16.9087 35.1679 17.5438 35.6155C18.2856 36.1399 18.9677 36.3829 19.7819 36.417C20.4 36.4425 20.6174 36.3956 20.805 36.1953C20.8732 36.1143 21.0267 36.012 21.1375 35.9651C21.2483 35.9182 21.3379 35.85 21.3379 35.8201C21.3379 35.6965 21.1119 35.0784 20.9542 34.7587C20.5492 33.9444 20.0632 33.4286 19.2831 32.981C18.5712 32.5718 17.9701 32.3842 17.011 32.2734C16.4397 32.2052 14.8156 32.1327 14.8156 32.1796Z" fill="white"/>
<path d="M28.5252 35.266C28.3845 35.9651 28.3163 36.6898 28.3121 37.5595C28.3078 38.7829 28.4314 39.4693 28.8023 40.2963C29.1007 40.9655 29.7657 41.8011 30.2688 42.1421C30.4393 42.2615 30.5331 42.2913 30.7462 42.3041L31.0105 42.3212L31.1128 42.1165C31.6031 41.1446 31.7395 39.9424 31.4624 39.0089C31.2492 38.2884 30.8869 37.6404 30.2602 36.8561C29.9831 36.5065 28.6446 35.1509 28.5806 35.1509C28.5636 35.1509 28.538 35.202 28.5252 35.266Z" fill="white"/>
<path d="M19.1211 36.6855C18.827 36.7282 18.3623 36.8006 18.081 36.8518C17.8039 36.8987 17.5694 36.9413 17.5566 36.9413C17.5481 36.9413 17.6973 37.1204 17.8891 37.3378C18.081 37.5552 18.2898 37.828 18.3538 37.9474C18.4263 38.0795 18.6266 38.2969 18.8909 38.5314C20.5407 39.9936 22.0711 40.5179 23.5333 40.13C23.8445 40.049 23.8956 40.0192 24.1088 39.8018C24.2367 39.6696 24.4157 39.5247 24.5052 39.4778C24.7013 39.3755 24.6971 39.3328 24.4455 38.8852C23.8359 37.8067 22.9237 37.0948 21.8068 36.822C20.8775 36.5918 20.059 36.5534 19.1211 36.6855Z" fill="white"/>
<path d="M32.1231 38.9193C32.1231 39.0216 32.7029 40.4071 32.9118 40.8078C34.0031 42.9052 35.3416 44.0221 36.8379 44.0945L37.2685 44.1116L37.4006 43.9837C37.4774 43.9112 37.6053 43.8387 37.6863 43.8217C37.7673 43.8089 37.8482 43.7791 37.8568 43.7577C37.8696 43.7407 37.8568 43.5446 37.8312 43.3272C37.7417 42.5812 37.4688 41.8437 37.0937 41.3151C36.8592 40.9826 36.3178 40.4668 35.9598 40.2323C35.2649 39.7719 34.212 39.3669 32.9331 39.0685C32.2084 38.9022 32.1231 38.8852 32.1231 38.9193Z" fill="white"/>
<path d="M24.4626 40.2664C23.951 40.3218 23.4779 40.4241 22.8938 40.6117C22.2416 40.8206 21.4061 41.1446 21.3933 41.1915C21.389 41.2085 21.551 41.3492 21.7514 41.4984C21.9773 41.6689 22.1393 41.8266 22.1691 41.9034C22.2416 42.0782 22.3567 42.1762 22.7702 42.432C24.0065 43.1951 25.2385 43.5872 26.2616 43.5361C27.0673 43.4935 27.9667 43.1609 28.1799 42.8242C28.2353 42.7389 28.3973 42.5599 28.5465 42.4277L28.8151 42.1933L28.636 41.9588C28.0307 41.1574 27.1653 40.5691 26.2786 40.3517C25.8608 40.2494 24.9955 40.211 24.4626 40.2664Z" fill="white"/>
<path d="M29.8851 42.9051C29.024 43.0885 28.1586 43.4721 27.2506 44.0775C26.2701 44.7339 25.9078 45.0409 26.1166 45.0409C26.1422 45.0409 26.2999 45.1048 26.4747 45.1858C26.7007 45.2881 26.803 45.3649 26.8413 45.4501C26.9223 45.6164 27.1142 45.7016 27.7962 45.8764C29.2542 46.243 30.3838 46.2345 31.4027 45.8551C31.9313 45.6547 32.5793 45.1773 32.8308 44.7979C32.9203 44.6657 33.0951 44.4142 33.2187 44.2352C33.4873 43.8643 33.5001 43.9069 32.997 43.5702C32.5963 43.3016 32.1785 43.1098 31.7181 42.9691C31.1981 42.8156 30.4478 42.79 29.8851 42.9051Z" fill="white"/>
<path d="M35.1285 44.7169C34.5232 44.8619 34.067 45.0537 33.3423 45.4757C32.7711 45.8082 31.1767 47.0957 31.2492 47.1681C31.2663 47.1809 31.4453 47.2491 31.6457 47.3216C31.9569 47.4282 32.0208 47.4665 32.0293 47.5475C32.0507 47.6925 32.2979 47.7863 32.9331 47.9056C33.385 47.9866 33.6066 48.0037 34.4038 47.9994C35.2862 47.9994 35.3672 47.9909 35.7679 47.8843C36.872 47.5859 37.5456 47.0743 38.1765 46.064C38.3641 45.7613 38.5175 45.497 38.5175 45.48C38.5175 45.3862 37.6181 44.9301 37.1108 44.7638C36.8038 44.6615 36.6589 44.6445 36.1516 44.6317C35.6358 44.6189 35.4951 44.6274 35.1285 44.7169Z" fill="white"/>
<path d="M58.4445 20.8078C58.7163 20.6289 58.988 20.45 59.2135 20.2554C59.4389 20.0609 59.6182 19.8505 59.7237 19.6472C59.8292 19.4438 59.861 19.2472 59.8427 19.036C59.8244 18.8248 59.7557 18.5989 59.6628 18.3235C59.5699 18.0482 59.4526 17.7235 59.4011 17.4208C59.3496 17.1181 59.364 16.8376 59.3997 16.6295C59.4354 16.4215 59.4924 16.2861 59.542 16.1537C59.5916 16.0212 59.6337 15.8917 59.7363 15.6903C59.8389 15.4889 60.0019 15.2158 60.1651 14.9425" stroke="white" stroke-width="1.5" stroke-linecap="round"/>
<path d="M70.6403 20.5057C70.9121 20.3268 71.1838 20.1479 71.4093 19.9534C71.6347 19.7588 71.814 19.5484 71.9195 19.3451C72.025 19.1417 72.0568 18.9452 72.0385 18.734C72.0202 18.5228 71.9515 18.2968 71.8586 18.0215C71.7657 17.7461 71.6484 17.4214 71.5969 17.1187C71.5454 16.8161 71.5598 16.5355 71.5955 16.3275C71.6312 16.1194 71.6882 15.984 71.7378 15.8516C71.7874 15.7192 71.8295 15.5897 71.9321 15.3883C72.0347 15.1869 72.1977 14.9137 72.3609 14.6404" stroke="white" stroke-width="1.5" stroke-linecap="round"/>
<path d="M64.8069 19.2935C65.0788 19.1146 65.3505 18.9357 65.576 18.7412C65.8014 18.5466 65.9807 18.3362 66.0862 18.1329C66.1917 17.9295 66.2235 17.7329 66.2052 17.5217C66.1868 17.3105 66.1182 17.0846 66.0253 16.8092C65.9324 16.5339 65.8151 16.2092 65.7636 15.9065C65.7121 15.6038 65.7265 15.3233 65.7622 15.1153C65.7979 14.9072 65.8549 14.7718 65.9045 14.6394C65.9541 14.507 65.9962 14.3775 66.0987 14.1761C66.2013 13.9747 66.3644 13.7015 66.5276 13.4282" stroke="white" stroke-width="1.5" stroke-linecap="round"/>
<path d="M82.391 39.4322C82.065 39.4339 61.1823 39.5444 55.7794 39.5233C50.3766 39.5021 50.3386 39.4024 50.3386 39.5544C50.3385 39.7063 50.3765 40.11 50.5257 40.497C50.6749 40.8841 50.9351 41.2545 51.2695 41.5847C51.6039 41.9149 51.9979 42.1947 52.2907 42.3561C52.5835 42.5174 52.7678 42.5554 57.3492 42.5696C61.9307 42.5838 70.9088 42.5743 75.4413 42.5505C79.9738 42.5267 80.0605 42.4888 80.3153 42.3748C80.5701 42.2608 80.993 42.0708 81.3941 41.7432C81.7952 41.4156 82.1748 40.9502 82.3862 40.5941C82.5976 40.2381 82.6283 40.0635 82.6633 39.8364C82.6984 39.6092 82.7061 39.535 82.7169 39.4305C82.7169 39.4305 82.7169 39.4305 82.391 39.4322Z" stroke="white" stroke-width="1.4" stroke-linecap="round" stroke-linejoin="round"/>
<path d="M78.1901 26.7325C78.1031 26.1197 78.0161 25.5066 77.8383 25.1405C77.6605 24.7745 77.3915 24.6558 77.2099 24.5962C77.0282 24.5365 76.9339 24.536 73.0881 24.5526C69.2423 24.5692 61.6453 24.6027 57.8172 24.6201C53.989 24.6375 53.93 24.6386 53.8589 24.6451C53.7878 24.6516 53.7047 24.6635 53.5879 24.7248C53.4711 24.7861 53.3207 24.8969 53.1973 25.0628C53.0739 25.2288 52.9804 25.443 52.932 25.978C52.8836 26.5129 52.8817 27.365 52.8976 27.9869C52.9134 28.6088 52.947 29.0004 53.0746 29.651C53.2021 30.3016 53.4237 31.2112 53.7283 32.1209C54.0329 33.0307 54.4206 33.9405 55.0754 34.9143C55.7302 35.888 56.6519 36.9258 57.5123 37.6958C58.3728 38.4658 59.1718 38.9682 59.5872 39.2192C60.0025 39.4703 60.0341 39.4703 61.902 39.4643C63.7698 39.4584 67.4738 39.4465 69.3415 39.4346C71.2092 39.4227 71.2409 39.4108 71.6422 39.1254C72.0435 38.8399 72.8145 38.2808 73.5442 37.665C74.2739 37.0493 74.9622 36.3768 75.5911 35.5303C76.22 34.6838 76.7897 33.6632 77.2021 32.7063C77.6146 31.7493 77.8657 30.8705 78.0041 29.8895C78.1425 28.9085 78.1664 27.8167 78.202 27.2509C78.2376 26.685 78.2851 26.6375 78.5424 26.627C78.7997 26.6164 79.2665 26.6428 79.7294 26.7154C80.1923 26.788 80.6511 26.9066 80.9992 27.1164C81.3472 27.3263 81.5846 27.6269 81.7822 27.909C81.9797 28.191 82.1376 28.4545 82.2528 28.8435C82.368 29.2326 82.4407 29.7472 82.4574 30.2591C82.4742 30.7709 82.435 31.28 82.3231 31.7331C82.2112 32.1861 82.0266 32.5833 81.7385 32.9944C81.4504 33.4056 81.0588 33.8307 80.6225 34.2083C80.1862 34.5859 79.7051 34.916 79.1373 35.2209C78.5695 35.5257 77.915 35.8055 77.2129 35.9957C76.5109 36.1859 75.7613 36.2866 75.0113 36.3874" stroke="white" stroke-width="1.4" stroke-linecap="round"/>
<g filter="url(#filter0_d_17_494)">
<path d="M98.0744 24.5L94.8471 12.8636H96.6937L98.9608 21.875H99.0687L101.427 12.8636H103.256L105.614 21.8807H105.722L107.983 12.8636H109.836L106.603 24.5H104.836L102.387 15.7841H102.296L99.8471 24.5H98.0744ZM111.3 24.5V15.7727H112.999V24.5H111.3ZM112.158 14.4261C111.863 14.4261 111.609 14.3276 111.397 14.1307C111.189 13.9299 111.084 13.6913 111.084 13.4148C111.084 13.1345 111.189 12.8958 111.397 12.6989C111.609 12.4981 111.863 12.3977 112.158 12.3977C112.454 12.3977 112.706 12.4981 112.914 12.6989C113.126 12.8958 113.232 13.1345 113.232 13.4148C113.232 13.6913 113.126 13.9299 112.914 14.1307C112.706 14.3276 112.454 14.4261 112.158 14.4261ZM116.983 19.3182V24.5H115.285V15.7727H116.915V17.1932H117.023C117.224 16.7311 117.538 16.3598 117.966 16.0795C118.398 15.7992 118.942 15.6591 119.597 15.6591C120.192 15.6591 120.713 15.7841 121.16 16.0341C121.607 16.2803 121.953 16.6477 122.199 17.1364C122.446 17.625 122.569 18.2292 122.569 18.9489V24.5H120.87V19.1534C120.87 18.5208 120.705 18.0265 120.376 17.6705C120.046 17.3106 119.593 17.1307 119.018 17.1307C118.624 17.1307 118.273 17.2159 117.966 17.3864C117.663 17.5568 117.423 17.8068 117.245 18.1364C117.071 18.4621 116.983 18.8561 116.983 19.3182ZM126.546 19.3182V24.5H124.847V15.7727H126.478V17.1932H126.586C126.787 16.7311 127.101 16.3598 127.529 16.0795C127.961 15.7992 128.504 15.6591 129.16 15.6591C129.754 15.6591 130.275 15.7841 130.722 16.0341C131.169 16.2803 131.516 16.6477 131.762 17.1364C132.008 17.625 132.131 18.2292 132.131 18.9489V24.5H130.432V19.1534C130.432 18.5208 130.268 18.0265 129.938 17.6705C129.608 17.3106 129.156 17.1307 128.58 17.1307C128.186 17.1307 127.836 17.2159 127.529 17.3864C127.226 17.5568 126.985 17.8068 126.807 18.1364C126.633 18.4621 126.546 18.8561 126.546 19.3182ZM138.171 24.6761C137.311 24.6761 136.571 24.4924 135.949 24.125C135.332 23.7538 134.855 23.233 134.518 22.5625C134.184 21.8883 134.018 21.0985 134.018 20.1932C134.018 19.2992 134.184 18.5114 134.518 17.8295C134.855 17.1477 135.324 16.6155 135.927 16.233C136.533 15.8504 137.241 15.6591 138.052 15.6591C138.544 15.6591 139.021 15.7405 139.483 15.9034C139.946 16.0663 140.36 16.322 140.728 16.6705C141.095 17.0189 141.385 17.4716 141.597 18.0284C141.809 18.5814 141.915 19.2538 141.915 20.0455V20.6477H134.978V19.375H140.251C140.251 18.928 140.16 18.5322 139.978 18.1875C139.796 17.839 139.54 17.5644 139.211 17.3636C138.885 17.1629 138.502 17.0625 138.063 17.0625C137.586 17.0625 137.169 17.1799 136.813 17.4148C136.461 17.6458 136.188 17.9489 135.995 18.3239C135.805 18.6951 135.711 19.0985 135.711 19.5341V20.5284C135.711 21.1117 135.813 21.608 136.018 22.017C136.226 22.4261 136.516 22.7386 136.887 22.9545C137.258 23.1667 137.692 23.2727 138.188 23.2727C138.51 23.2727 138.804 23.2273 139.069 23.1364C139.334 23.0417 139.563 22.9015 139.756 22.7159C139.949 22.5303 140.097 22.3011 140.199 22.0284L141.807 22.3182C141.679 22.7917 141.447 23.2064 141.114 23.5625C140.785 23.9148 140.37 24.1894 139.87 24.3864C139.374 24.5795 138.807 24.6761 138.171 24.6761ZM143.8 24.5V15.7727H145.442V17.1591H145.533C145.692 16.6894 145.973 16.3201 146.374 16.0511C146.779 15.7784 147.238 15.642 147.749 15.642C147.855 15.642 147.98 15.6458 148.124 15.6534C148.272 15.661 148.387 15.6705 148.471 15.6818V17.3068C148.403 17.2879 148.281 17.267 148.107 17.2443C147.933 17.2178 147.759 17.2045 147.584 17.2045C147.183 17.2045 146.825 17.2898 146.51 17.4602C146.2 17.6269 145.954 17.8598 145.772 18.1591C145.59 18.4545 145.499 18.7917 145.499 19.1705V24.5H143.8ZM157.851 24.6761C157.033 24.6761 156.319 24.4886 155.709 24.1136C155.099 23.7386 154.626 23.214 154.289 22.5398C153.952 21.8655 153.783 21.0776 153.783 20.1761C153.783 19.2708 153.952 18.4792 154.289 17.8011C154.626 17.1231 155.099 16.5966 155.709 16.2216C156.319 15.8466 157.033 15.6591 157.851 15.6591C158.67 15.6591 159.384 15.8466 159.993 16.2216C160.603 16.5966 161.077 17.1231 161.414 17.8011C161.751 18.4792 161.92 19.2708 161.92 20.1761C161.92 21.0776 161.751 21.8655 161.414 22.5398C161.077 23.214 160.603 23.7386 159.993 24.1136C159.384 24.4886 158.67 24.6761 157.851 24.6761ZM157.857 23.25C158.387 23.25 158.827 23.1098 159.175 22.8295C159.524 22.5492 159.781 22.1761 159.948 21.7102C160.118 21.2443 160.204 20.7311 160.204 20.1705C160.204 19.6136 160.118 19.1023 159.948 18.6364C159.781 18.1667 159.524 17.7898 159.175 17.5057C158.827 17.2216 158.387 17.0795 157.857 17.0795C157.323 17.0795 156.88 17.2216 156.528 17.5057C156.179 17.7898 155.92 18.1667 155.749 18.6364C155.582 19.1023 155.499 19.6136 155.499 20.1705C155.499 20.7311 155.582 21.2443 155.749 21.7102C155.92 22.1761 156.179 22.5492 156.528 22.8295C156.88 23.1098 157.323 23.25 157.857 23.25ZM167.969 15.7727V17.1364H163.037V15.7727H167.969ZM164.39 24.5V14.7614C164.39 14.2159 164.509 13.7633 164.748 13.4034C164.986 13.0398 165.303 12.7689 165.697 12.5909C166.09 12.4091 166.519 12.3182 166.981 12.3182C167.322 12.3182 167.613 12.3466 167.856 12.4034C168.098 12.4564 168.278 12.5057 168.395 12.5511L167.998 13.9261C167.918 13.9034 167.816 13.8769 167.691 13.8466C167.566 13.8125 167.414 13.7955 167.236 13.7955C166.823 13.7955 166.528 13.8977 166.35 14.1023C166.176 14.3068 166.089 14.6023 166.089 14.9886V24.5H164.39Z" fill="white"/>
<path d="M98.4276 44.5V34.368H95.0106V31.835H104.905V34.368H101.471V44.5H98.4276ZM109.358 44.738C108.429 44.738 107.59 44.5397 106.842 44.143C106.105 43.735 105.516 43.1513 105.074 42.392C104.643 41.6327 104.428 40.7203 104.428 39.655C104.428 38.873 104.553 38.1703 104.802 37.547C105.063 36.9237 105.408 36.391 105.839 35.949C106.281 35.507 106.774 35.1727 107.318 34.946C107.873 34.708 108.44 34.589 109.018 34.589C109.947 34.589 110.718 34.793 111.33 35.201C111.942 35.609 112.401 36.1643 112.707 36.867C113.013 37.5697 113.166 38.363 113.166 39.247C113.166 39.519 113.149 39.774 113.115 40.012C113.092 40.25 113.064 40.4313 113.03 40.556H107.352C107.443 40.998 107.601 41.355 107.828 41.627C108.055 41.899 108.332 42.103 108.661 42.239C108.99 42.3637 109.358 42.426 109.766 42.426C110.117 42.426 110.457 42.375 110.786 42.273C111.115 42.171 111.455 42.018 111.806 41.814L112.809 43.633C112.31 43.9843 111.749 44.2563 111.126 44.449C110.514 44.6417 109.925 44.738 109.358 44.738ZM107.301 38.567H110.599C110.599 38.091 110.48 37.6943 110.242 37.377C110.015 37.0597 109.624 36.901 109.069 36.901C108.797 36.901 108.536 36.9633 108.287 37.088C108.049 37.2013 107.839 37.3827 107.658 37.632C107.488 37.87 107.369 38.1817 107.301 38.567ZM117.198 44.738C116.609 44.738 116.099 44.6077 115.668 44.347C115.238 44.075 114.903 43.718 114.665 43.276C114.439 42.8227 114.325 42.3297 114.325 41.797C114.325 40.777 114.75 39.9837 115.6 39.417C116.45 38.839 117.816 38.448 119.697 38.244C119.675 37.9833 119.612 37.7623 119.51 37.581C119.408 37.3883 119.25 37.2467 119.034 37.156C118.83 37.054 118.564 37.003 118.235 37.003C117.85 37.003 117.453 37.0767 117.045 37.224C116.637 37.3713 116.19 37.581 115.702 37.853L114.648 35.864C115.079 35.6033 115.515 35.3823 115.957 35.201C116.411 35.0083 116.875 34.861 117.351 34.759C117.827 34.6457 118.315 34.589 118.813 34.589C119.652 34.589 120.36 34.7477 120.938 35.065C121.516 35.3823 121.958 35.8697 122.264 36.527C122.57 37.173 122.723 38.0003 122.723 39.009V44.5H120.258L120.054 43.531H119.969C119.573 43.8823 119.142 44.1713 118.677 44.398C118.224 44.6247 117.731 44.738 117.198 44.738ZM118.235 42.392C118.541 42.392 118.808 42.324 119.034 42.188C119.261 42.052 119.482 41.865 119.697 41.627V40.08C119.074 40.1593 118.575 40.2727 118.201 40.42C117.839 40.5673 117.578 40.7373 117.419 40.93C117.272 41.1227 117.198 41.3323 117.198 41.559C117.198 41.8423 117.289 42.052 117.47 42.188C117.663 42.324 117.918 42.392 118.235 42.392ZM130.653 44.738C129.848 44.738 129.089 44.602 128.375 44.33C127.661 44.058 127.026 43.65 126.471 43.106C125.927 42.5507 125.496 41.8707 125.179 41.066C124.873 40.25 124.72 39.3093 124.72 38.244C124.72 37.19 124.879 36.255 125.196 35.439C125.525 34.6117 125.967 33.9147 126.522 33.348C127.089 32.7813 127.735 32.3507 128.46 32.056C129.185 31.7613 129.95 31.614 130.755 31.614C131.582 31.614 132.319 31.7783 132.965 32.107C133.622 32.4357 134.166 32.821 134.597 33.263L133.016 35.201C132.699 34.9063 132.364 34.6683 132.013 34.487C131.662 34.3057 131.259 34.215 130.806 34.215C130.262 34.215 129.763 34.3737 129.31 34.691C128.857 34.997 128.494 35.4447 128.222 36.034C127.961 36.612 127.831 37.3147 127.831 38.142C127.831 38.9807 127.95 39.7003 128.188 40.301C128.437 40.8903 128.783 41.3437 129.225 41.661C129.667 41.967 130.183 42.12 130.772 42.12C131.282 42.12 131.735 42.0067 132.132 41.78C132.54 41.5533 132.891 41.2813 133.186 40.964L134.784 42.868C134.251 43.4913 133.634 43.9617 132.931 44.279C132.24 44.585 131.48 44.738 130.653 44.738ZM140.598 44.738C139.782 44.738 139.011 44.5397 138.286 44.143C137.56 43.735 136.971 43.1513 136.518 42.392C136.076 41.6327 135.855 40.7203 135.855 39.655C135.855 38.5897 136.076 37.683 136.518 36.935C136.971 36.1757 137.56 35.5977 138.286 35.201C139.011 34.793 139.782 34.589 140.598 34.589C141.21 34.589 141.799 34.7023 142.366 34.929C142.932 35.1557 143.437 35.49 143.879 35.932C144.321 36.3627 144.672 36.8897 144.933 37.513C145.193 38.1363 145.324 38.8503 145.324 39.655C145.324 40.7203 145.097 41.6327 144.644 42.392C144.202 43.1513 143.618 43.735 142.893 44.143C142.179 44.5397 141.414 44.738 140.598 44.738ZM140.598 42.29C140.972 42.29 141.278 42.1823 141.516 41.967C141.765 41.7517 141.946 41.4457 142.06 41.049C142.173 40.6523 142.23 40.1877 142.23 39.655C142.23 39.1223 142.173 38.6633 142.06 38.278C141.946 37.8813 141.765 37.5753 141.516 37.36C141.278 37.1447 140.972 37.037 140.598 37.037C140.224 37.037 139.912 37.1447 139.663 37.36C139.425 37.5753 139.243 37.8813 139.119 38.278C139.005 38.6633 138.949 39.1223 138.949 39.655C138.949 40.1877 139.005 40.6523 139.119 41.049C139.243 41.4457 139.425 41.7517 139.663 41.967C139.912 42.1823 140.224 42.29 140.598 42.29ZM147.223 44.5V34.827H149.688L149.909 36.034H149.96C150.357 35.6373 150.804 35.2973 151.303 35.014C151.813 34.7307 152.397 34.589 153.054 34.589C154.108 34.589 154.873 34.9403 155.349 35.643C155.825 36.3457 156.063 37.3033 156.063 38.516V44.5H153.037V38.89C153.037 38.2213 152.946 37.768 152.765 37.53C152.584 37.292 152.3 37.173 151.915 37.173C151.575 37.173 151.286 37.2467 151.048 37.394C150.81 37.5413 150.544 37.7567 150.249 38.04V44.5H147.223ZM161.787 44.5V42.766C162.807 41.814 163.714 40.9413 164.507 40.148C165.312 39.3433 165.941 38.6067 166.394 37.938C166.848 37.2693 167.074 36.646 167.074 36.068C167.074 35.6713 167.006 35.3427 166.87 35.082C166.746 34.8213 166.559 34.623 166.309 34.487C166.06 34.351 165.765 34.283 165.425 34.283C164.995 34.283 164.604 34.4133 164.252 34.674C163.912 34.9233 163.589 35.201 163.283 35.507L161.634 33.875C162.258 33.2177 162.887 32.7303 163.521 32.413C164.167 32.0843 164.938 31.92 165.833 31.92C166.649 31.92 167.369 32.0843 167.992 32.413C168.616 32.7417 169.103 33.2063 169.454 33.807C169.806 34.3963 169.981 35.0933 169.981 35.898C169.981 36.578 169.794 37.275 169.42 37.989C169.046 38.6917 168.565 39.3943 167.975 40.097C167.397 40.7883 166.791 41.4627 166.156 42.12C166.474 42.0747 166.825 42.035 167.21 42.001C167.607 41.967 167.947 41.95 168.23 41.95H170.559V44.5H161.787ZM176.618 44.738C175.722 44.738 174.935 44.4943 174.255 44.007C173.586 43.5083 173.065 42.783 172.691 41.831C172.317 40.8677 172.13 39.6833 172.13 38.278C172.13 36.8727 172.317 35.6997 172.691 34.759C173.065 33.8183 173.586 33.11 174.255 32.634C174.935 32.158 175.722 31.92 176.618 31.92C177.513 31.92 178.295 32.158 178.964 32.634C179.632 33.11 180.154 33.8183 180.528 34.759C180.902 35.6997 181.089 36.8727 181.089 38.278C181.089 39.6833 180.902 40.8677 180.528 41.831C180.154 42.783 179.632 43.5083 178.964 44.007C178.295 44.4943 177.513 44.738 176.618 44.738ZM176.618 42.392C176.924 42.392 177.196 42.2843 177.434 42.069C177.683 41.8423 177.876 41.4343 178.012 40.845C178.159 40.2443 178.233 39.3887 178.233 38.278C178.233 37.1673 178.159 36.323 178.012 35.745C177.876 35.167 177.683 34.776 177.434 34.572C177.196 34.368 176.924 34.266 176.618 34.266C176.323 34.266 176.051 34.368 175.802 34.572C175.552 34.776 175.354 35.167 175.207 35.745C175.059 36.323 174.986 37.1673 174.986 38.278C174.986 39.3887 175.059 40.2443 175.207 40.845C175.354 41.4343 175.552 41.8423 175.802 42.069C176.051 42.2843 176.323 42.392 176.618 42.392ZM182.506 44.5V42.766C183.526 41.814 184.433 40.9413 185.226 40.148C186.031 39.3433 186.66 38.6067 187.113 37.938C187.566 37.2693 187.793 36.646 187.793 36.068C187.793 35.6713 187.725 35.3427 187.589 35.082C187.464 34.8213 187.277 34.623 187.028 34.487C186.779 34.351 186.484 34.283 186.144 34.283C185.713 34.283 185.322 34.4133 184.971 34.674C184.631 34.9233 184.308 35.201 184.002 35.507L182.353 33.875C182.976 33.2177 183.605 32.7303 184.24 32.413C184.886 32.0843 185.657 31.92 186.552 31.92C187.368 31.92 188.088 32.0843 188.711 32.413C189.334 32.7417 189.822 33.2063 190.173 33.807C190.524 34.3963 190.7 35.0933 190.7 35.898C190.7 36.578 190.513 37.275 190.139 37.989C189.765 38.6917 189.283 39.3943 188.694 40.097C188.116 40.7883 187.51 41.4627 186.875 42.12C187.192 42.0747 187.544 42.035 187.929 42.001C188.326 41.967 188.666 41.95 188.949 41.95H191.278V44.5H182.506ZM197.336 44.738C196.441 44.738 195.653 44.4943 194.973 44.007C194.305 43.5083 193.783 42.783 193.409 41.831C193.035 40.8677 192.848 39.6833 192.848 38.278C192.848 36.8727 193.035 35.6997 193.409 34.759C193.783 33.8183 194.305 33.11 194.973 32.634C195.653 32.158 196.441 31.92 197.336 31.92C198.232 31.92 199.014 32.158 199.682 32.634C200.351 33.11 200.872 33.8183 201.246 34.759C201.62 35.6997 201.807 36.8727 201.807 38.278C201.807 39.6833 201.62 40.8677 201.246 41.831C200.872 42.783 200.351 43.5083 199.682 44.007C199.014 44.4943 198.232 44.738 197.336 44.738ZM197.336 42.392C197.642 42.392 197.914 42.2843 198.152 42.069C198.402 41.8423 198.594 41.4343 198.73 40.845C198.878 40.2443 198.951 39.3887 198.951 38.278C198.951 37.1673 198.878 36.323 198.73 35.745C198.594 35.167 198.402 34.776 198.152 34.572C197.914 34.368 197.642 34.266 197.336 34.266C197.042 34.266 196.77 34.368 196.52 34.572C196.271 34.776 196.073 35.167 195.925 35.745C195.778 36.323 195.704 37.1673 195.704 38.278C195.704 39.3887 195.778 40.2443 195.925 40.845C196.073 41.4343 196.271 41.8423 196.52 42.069C196.77 42.2843 197.042 42.392 197.336 42.392ZM213.306 29.965H219.086V32.175H215.737V40.76H213.306V29.965ZM220.293 30.934H235.763V33.229H220.293V30.934ZM226.906 35.252H229.014V41.372H226.906V35.252ZM225.988 39.128V40.131H229.949V39.128H225.988ZM225.988 36.289V37.275H229.949V36.289H225.988ZM223.982 34.3H232.057V42.12H223.982V34.3ZM232.907 35.371H235.406V46.081H232.907V35.371ZM220.633 35.439L223.183 35.439V43.021H234.454V45.333H220.633V35.439ZM243.005 30.696H252.814V32.923H243.005V30.696ZM246.711 31.75H249.023V46.064H246.711V31.75ZM243.362 34.13H251.216V36.323H245.589V43.616H243.362V34.13ZM250.264 34.13H252.542V41.372C252.542 41.8367 252.496 42.222 252.406 42.528C252.315 42.8227 252.128 43.0607 251.845 43.242C251.561 43.4233 251.25 43.5367 250.91 43.582C250.581 43.616 250.201 43.633 249.771 43.633C249.737 43.3157 249.657 42.9587 249.533 42.562C249.408 42.154 249.278 41.8083 249.142 41.525C249.323 41.5363 249.504 41.542 249.686 41.542C249.867 41.542 249.992 41.542 250.06 41.542C250.139 41.542 250.19 41.525 250.213 41.491C250.247 41.457 250.264 41.4003 250.264 41.321V34.13ZM240.404 30.033H242.665V36.765C242.665 37.6263 242.631 38.482 242.563 39.332C242.495 40.182 242.359 41.0093 242.155 41.814C241.962 42.6187 241.662 43.378 241.254 44.092C240.846 44.806 240.302 45.4633 239.622 46.064C239.486 45.894 239.304 45.7013 239.078 45.486C238.862 45.282 238.636 45.0837 238.398 44.891C238.171 44.6983 237.961 44.5453 237.769 44.432C238.562 43.7633 239.14 43.021 239.503 42.205C239.877 41.3777 240.12 40.505 240.234 39.587C240.347 38.6577 240.404 37.7113 240.404 36.748V30.033ZM237.531 31.954H239.724V40.301H237.531V31.954ZM259.716 46.115H253.936V43.905H257.285V35.32H259.716V46.115Z" fill="white"/>
</g>
<path d="M290.361 8.66923C290.634 10.2293 291.022 11.2992 291.687 12.2882C292.134 12.9574 292.629 13.4177 293.213 13.7076C293.869 14.0401 294.419 14.1381 294.636 13.9676C294.696 13.9207 294.79 13.8824 294.85 13.8824C295.046 13.8824 295.063 13.8099 295.037 13.0853C295.016 12.3265 294.939 11.9685 294.692 11.4271C294.108 10.1739 292.893 9.16369 290.839 8.23871C290.549 8.10657 290.297 8.00001 290.28 8.00001C290.263 8.00001 290.297 8.30265 290.361 8.66923Z" fill="white"/>
<path d="M296.827 9.75618C295.749 11.7852 295.404 13.4561 295.796 14.7945C296.064 15.7238 296.844 16.8661 297.203 16.8661C297.403 16.8661 297.855 16.2694 298.187 15.5661C298.477 14.9565 298.562 14.543 298.567 13.7545C298.567 12.902 298.43 12.2498 298.051 11.2737C297.876 10.8176 297.194 9.42796 297.117 9.36402C297.075 9.32992 297.006 9.4237 296.827 9.75618Z" fill="white"/>
<path d="M291.171 13.4859C291.171 13.503 291.256 13.8269 291.363 14.202C292.096 16.7809 293.422 18.5456 294.905 18.9292C295.591 19.104 295.966 19.0997 296.124 18.9164C296.162 18.8696 296.265 18.8184 296.35 18.8014C296.435 18.7886 296.516 18.7459 296.529 18.7118C296.542 18.682 296.529 18.4476 296.504 18.1918C296.359 16.7894 295.821 15.8815 294.615 14.9864C293.797 14.3768 292.966 14.006 291.269 13.4817C291.214 13.4646 291.171 13.4646 291.171 13.4859Z" fill="white"/>
<path d="M299.675 15.6513C298.716 16.8704 298.183 17.8124 297.923 18.763C297.791 19.2361 297.74 20.127 297.816 20.5405C297.927 21.133 298.204 21.815 298.537 22.318C298.682 22.5396 298.69 22.5439 298.852 22.5226C299.091 22.4885 299.312 22.3265 299.619 21.9599C300.208 21.2523 300.544 20.5746 300.728 19.7221C300.847 19.185 300.851 18.1534 300.745 17.4842C300.608 16.6402 300.212 15.1185 300.127 15.1185C300.105 15.1185 299.905 15.3572 299.675 15.6513Z" fill="white"/>
<path d="M294.044 18.8994C294.057 19.0145 294.078 19.381 294.091 19.7221C294.168 21.5635 294.517 22.8039 295.267 23.9036C295.732 24.5814 296.504 25.1909 297.134 25.3742C297.343 25.4382 297.377 25.4382 297.509 25.3742C297.586 25.3359 297.697 25.306 297.752 25.306C297.812 25.306 297.868 25.2719 297.885 25.2293C297.957 25.0375 298.042 24.5174 298.064 24.1125C298.136 22.7101 297.492 21.4186 296.124 20.2208C295.378 19.5686 294.206 18.699 294.078 18.699C294.04 18.699 294.031 18.7544 294.044 18.8994Z" fill="white"/>
<path d="M301.904 21.6573C300.165 22.6974 299.176 23.6309 298.647 24.7306C298.349 25.3615 298.311 25.5533 298.315 26.4357C298.319 27.0452 298.336 27.2669 298.4 27.5226C298.477 27.8253 298.49 27.8423 298.609 27.8551C298.682 27.8636 298.754 27.8892 298.78 27.9105C298.925 28.0512 299.53 27.838 300.058 27.4629C300.779 26.9472 301.495 25.9242 301.861 24.8798C302.109 24.1637 302.309 23.145 302.36 22.3223C302.373 22.1006 302.394 21.798 302.407 21.6488C302.416 21.5039 302.411 21.3845 302.394 21.3845C302.377 21.3845 302.156 21.5081 301.904 21.6573Z" fill="white"/>
<path d="M294.308 23.7758C294.261 23.9165 294.07 24.9395 294.001 25.4126C293.903 26.0946 293.903 27.237 293.997 27.7613C294.185 28.8014 294.615 29.6454 295.327 30.3572C295.821 30.8559 295.983 30.954 296.303 30.954H296.563L296.678 30.7409C296.879 30.3785 297.087 29.6667 297.143 29.1594C297.283 27.8636 296.729 26.4527 295.476 24.931C294.986 24.3385 294.338 23.6906 294.308 23.7758Z" fill="white"/>
<path d="M302.433 27.5013C301.103 27.7144 300.08 28.0043 299.411 28.3495C298.456 28.844 297.757 29.5985 297.36 30.5533C297.22 30.89 297.028 31.7425 297.066 31.8491C297.079 31.8789 297.168 31.9301 297.258 31.9557C297.356 31.9812 297.458 32.0452 297.497 32.1006C297.599 32.2583 297.821 32.3137 298.264 32.2839C299.658 32.1901 300.775 31.3973 301.943 29.6709C302.377 29.023 303.196 27.3862 303.076 27.399C303.059 27.4032 302.769 27.4459 302.433 27.5013Z" fill="white"/>
<path d="M293.247 28.9548C293.2 29.0401 292.876 30.0887 292.778 30.4851C292.539 31.4271 292.514 31.6317 292.518 32.5524C292.518 33.3623 292.527 33.4561 292.633 33.844C292.829 34.5686 293.294 35.3785 293.848 35.9454C294.146 36.2524 294.304 36.3461 294.517 36.3461C294.675 36.3461 294.7 36.3291 294.833 36.1287C295.186 35.5874 295.438 34.8883 295.523 34.2191C295.681 32.9233 295.071 31.2651 293.81 29.59C293.383 29.0188 293.281 28.9037 293.247 28.9548Z" fill="white"/>
<path d="M290.655 32.7315C290.071 33.8142 289.734 34.6922 289.551 35.5831C289.428 36.1671 289.449 37.1262 289.59 37.6249C289.841 38.5115 290.642 39.7136 290.975 39.7136C291.09 39.7136 291.465 39.3001 291.721 38.8824C291.989 38.4561 292.211 37.9318 292.313 37.4885C292.42 37.0196 292.407 35.9028 292.292 35.3657C292.181 34.8755 291.981 34.2362 291.78 33.746C291.614 33.3368 291.12 32.3137 291.035 32.1986C290.983 32.1347 290.941 32.1944 290.655 32.7315Z" fill="white"/>
<path d="M300.804 32.1987C300.246 32.2328 299.432 32.3436 299.044 32.4416C297.629 32.8039 296.525 33.682 295.988 34.8756C295.885 35.1057 295.647 35.792 295.647 35.8602C295.647 35.8687 295.749 35.9242 295.873 35.9796C295.992 36.035 296.137 36.1373 296.188 36.2055C296.32 36.393 296.597 36.4484 297.219 36.4186C298.315 36.3675 299.231 35.9156 300.212 34.9438C300.783 34.3726 301.273 33.7375 301.742 32.9489C301.964 32.5823 302.164 32.2541 302.181 32.2242C302.207 32.1816 302.096 32.1688 301.627 32.1773C301.303 32.1816 300.932 32.1901 300.804 32.1987Z" fill="white"/>
<path d="M287.825 35.7153C286.231 37.2583 285.502 38.4945 285.391 39.8329C285.34 40.451 285.523 41.3419 285.834 41.9727L285.992 42.2924H286.248C286.469 42.2924 286.533 42.2711 286.717 42.1432C287.411 41.6658 288.123 40.6513 288.413 39.7349C288.648 38.9804 288.677 38.7502 288.677 37.5823C288.677 36.653 288.66 36.4015 288.575 35.8559C288.52 35.5021 288.46 35.1995 288.443 35.1824C288.426 35.1611 288.145 35.3998 287.825 35.7153Z" fill="white"/>
<path d="M295.979 36.6701C294.764 36.8576 294.082 37.156 293.417 37.7911C293.068 38.1236 292.825 38.4348 292.561 38.8866C292.288 39.3598 292.288 39.3512 292.578 39.5345C292.718 39.6198 292.846 39.7263 292.859 39.7647C292.965 40.1014 294.006 40.3401 294.858 40.2293C295.331 40.1654 296.035 39.9352 296.457 39.705C297.288 39.2532 298.324 38.4135 298.643 37.9403C298.75 37.7783 298.976 37.497 299.142 37.3095C299.308 37.1262 299.436 36.9685 299.428 36.9599C299.419 36.9514 299.142 36.896 298.818 36.8363C297.433 36.5933 296.721 36.5507 295.979 36.6701Z" fill="white"/>
<path d="M284.244 39.0273C281.968 39.5516 280.625 40.2635 279.875 41.3547C279.513 41.8832 279.214 42.7613 279.163 43.4476L279.138 43.7929L279.287 43.8227C279.372 43.8355 279.5 43.908 279.577 43.9804L279.713 44.1168L280.148 44.0955C280.868 44.0614 281.559 43.7801 282.228 43.2515C282.812 42.7912 283.596 41.7596 284.108 40.7792C284.325 40.37 284.777 39.2788 284.845 39.0145C284.879 38.8781 284.896 38.8781 284.244 39.0273Z" fill="white"/>
<path d="M291.107 40.272C290.378 40.3743 289.551 40.7707 288.976 41.3035C288.656 41.5934 288.23 42.0963 288.23 42.1773C288.23 42.2029 288.345 42.3223 288.485 42.4459C288.626 42.5695 288.754 42.7144 288.767 42.7698C288.818 42.9659 289.274 43.2259 289.879 43.405C290.919 43.7076 292.134 43.5158 293.481 42.8338C294.257 42.4416 294.628 42.1944 294.777 41.9685C294.845 41.8662 295.071 41.6488 295.276 41.4825C295.527 41.2822 295.63 41.1756 295.591 41.1543C295.561 41.1373 295.229 41.0094 294.854 40.8687C294.078 40.5831 293.494 40.4126 292.965 40.3274C292.484 40.2507 291.482 40.2208 291.107 40.272Z" fill="white"/>
<path d="M285.57 42.8934C285.182 42.9787 284.786 43.1321 284.394 43.341C284.014 43.5456 283.588 43.8525 283.584 43.9165C283.584 43.942 283.694 44.1168 283.831 44.3086C283.963 44.5004 284.121 44.7349 284.18 44.8329C284.372 45.1483 285.012 45.6215 285.536 45.8346C286.529 46.2353 287.71 46.2481 289.189 45.8772C289.871 45.7025 290.063 45.6172 290.144 45.451C290.182 45.3657 290.28 45.2975 290.485 45.208C290.638 45.1398 290.821 45.0588 290.89 45.029L291.013 44.9736L290.561 44.6454C289.227 43.6735 288.409 43.2387 287.377 42.9702C286.849 42.8295 286.005 42.7954 285.57 42.8934Z" fill="white"/>
<path d="M280.195 44.688C280.033 44.7221 279.752 44.8073 279.577 44.8755C279.261 44.9949 278.622 45.3359 278.524 45.4382C278.447 45.5149 279.074 46.5209 279.406 46.8619C279.879 47.3478 280.472 47.6846 281.218 47.8849C281.619 47.9915 281.7 48 282.582 48C283.375 48 283.601 47.9872 284.052 47.902C284.671 47.7911 284.948 47.6846 284.948 47.5652C284.948 47.4714 285.093 47.3905 285.48 47.2754C285.621 47.2327 285.749 47.1858 285.77 47.1731C285.804 47.1432 284.922 46.3717 284.402 45.9795C283.464 45.2805 282.561 44.8457 281.708 44.6837C281.273 44.5985 280.591 44.6027 280.195 44.688Z" fill="white"/>
<defs>
<filter id="filter0_d_17_494" x="88.9176" y="3.9" width="187.2" height="48.2" filterUnits="userSpaceOnUse" color-interpolation-filters="sRGB">
<feFlood flood-opacity="0" result="BackgroundImageFix"/>
<feColorMatrix in="SourceAlpha" type="matrix" values="0 0 0 0 0 0 0 0 0 0 0 0 0 0 0 0 0 0 127 0" result="hardAlpha"/>
<feOffset/>
<feGaussianBlur stdDeviation="2.8"/>
<feComposite in2="hardAlpha" operator="out"/>
<feColorMatrix type="matrix" values="0 0 0 0 0 0 0 0 0 0 0 0 0 0 0 0 0 0 0.25 0"/>
<feBlend mode="normal" in2="BackgroundImageFix" result="effect1_dropShadow_17_494"/>
<feBlend mode="normal" in="SourceGraphic" in2="effect1_dropShadow_17_494" result="shape"/>
</filter>
<linearGradient id="paint0_linear_17_494" x1="158.5" y1="0" x2="158.5" y2="56" gradientUnits="userSpaceOnUse">
<stop stop-color="#373737"/>
<stop offset="1"/>
</linearGradient>
</defs>
</svg>
