<svg width="353" height="56" viewBox="0 0 353 56" fill="none" xmlns="http://www.w3.org/2000/svg">
<rect width="353" height="56" rx="8" fill="url(#paint0_linear_17_3136)"/>
<rect x="1.05" y="1.05" width="350.9" height="53.9" rx="6.95" stroke="white" stroke-opacity="0.15" stroke-width="2.1"/>
<path d="M24.3711 8.18344C22.3164 9.10424 21.0588 10.106 20.4577 11.2997C20.1764 11.8624 20.0187 12.5828 20.0272 13.2521C20.0357 13.7679 20.0613 13.8532 20.2148 13.8702C20.283 13.8787 20.3853 13.9214 20.4407 13.9683C20.6538 14.1345 21.2123 14.0322 21.8603 13.704C23.0326 13.1157 23.9875 11.6961 24.4948 9.78631C24.5928 9.41544 24.8401 8.14934 24.8401 8.01293C24.8401 7.97882 24.7718 8.0044 24.3711 8.18344Z" fill="black"/>
<path d="M17.7252 9.79911C16.3184 12.4379 16.1394 14.3477 17.1497 16.0529C17.3969 16.4706 17.6868 16.8117 17.8317 16.8458C17.9895 16.8884 18.2069 16.7221 18.501 16.3257C19.814 14.5779 19.7842 12.8045 18.3902 10.008C18.2026 9.62859 18.0321 9.31739 18.0151 9.31739C17.998 9.31739 17.8658 9.53481 17.7252 9.79911Z" fill="black"/>
<path d="M23.3565 13.623C22.4954 13.9001 22.035 14.0876 21.4723 14.3775C20.3085 14.9786 19.4474 15.7587 19.0211 16.607C18.744 17.157 18.5735 17.8817 18.5735 18.504V18.7726L18.727 18.7982C18.8079 18.8152 18.9103 18.8664 18.9486 18.9133C19.0765 19.0582 19.3025 19.0923 19.7245 19.0199C20.5259 18.8792 21.0588 18.6064 21.6556 18.0266C22.5721 17.1399 23.2499 15.8738 23.7359 14.1686C23.8297 13.8319 23.915 13.5334 23.9235 13.5036C23.9491 13.4354 23.9533 13.4311 23.3565 13.623Z" fill="black"/>
<path d="M14.7454 15.7417C14.0036 18.3548 14.1102 20.0344 15.1077 21.4966C15.5639 22.1702 15.9774 22.5325 16.2843 22.5325C16.3823 22.5325 16.4335 22.4814 16.5998 22.2213C16.7106 22.0551 16.8768 21.7439 16.9664 21.535C17.738 19.7488 17.269 17.9712 15.4189 15.6479C15.1845 15.3537 14.9756 15.115 14.9585 15.115C14.9372 15.115 14.8392 15.3964 14.7454 15.7417Z" fill="black"/>
<path d="M20.5131 19.0028C19.3578 19.8298 18.3816 20.7123 17.8999 21.3602C17.6186 21.7396 17.2775 22.4174 17.1667 22.8309C16.9876 23.496 16.9834 24.2718 17.1454 25.0008C17.2093 25.2736 17.2264 25.3035 17.3159 25.3035C17.3756 25.3035 17.4864 25.3333 17.5631 25.3717C17.6953 25.4356 17.7294 25.4356 17.9383 25.3717C18.5436 25.1926 19.3067 24.6086 19.7756 23.9521C20.658 22.7286 20.965 21.4668 21.046 18.7257C21.046 18.649 20.9095 18.7215 20.5131 19.0028Z" fill="black"/>
<path d="M12.7076 21.9656C12.7801 23.351 13.0401 24.5574 13.4749 25.4953C13.8202 26.237 14.4725 27.0683 15.0138 27.4562C15.5425 27.8356 16.1947 28.0616 16.2927 27.9038C16.3055 27.8783 16.3737 27.8612 16.4419 27.8612C16.5954 27.8612 16.6252 27.8101 16.7233 27.3497C16.8384 26.8168 16.8256 25.8704 16.702 25.41C16.3908 24.2548 15.4828 23.1677 13.9865 22.1574C13.6668 21.9442 12.7374 21.3815 12.7033 21.3815C12.6905 21.3815 12.6905 21.6458 12.7076 21.9656Z" fill="black"/>
<path d="M20.381 24.0757C19.6094 24.8686 19.1191 25.5081 18.582 26.4118C18.2367 26.9958 17.9809 27.8527 17.9468 28.5518C17.9084 29.3149 18.0534 30.0225 18.3902 30.6918L18.5351 30.9817L18.7866 30.9646C18.9742 30.9519 19.0808 30.9135 19.2172 30.8197C19.9376 30.3252 20.6495 29.3319 20.9309 28.4325C21.2634 27.3752 21.2506 25.9898 20.8882 24.2676C20.8286 23.9691 20.7646 23.7262 20.7518 23.7262C20.7348 23.7262 20.5685 23.8839 20.381 24.0757Z" fill="black"/>
<path d="M12.0213 27.4946C12.0639 27.6822 12.648 28.8886 12.8824 29.2723C14.0633 31.2162 15.3251 32.1838 16.8086 32.2819C17.2477 32.3117 17.4736 32.2563 17.5759 32.1028C17.61 32.0474 17.7209 31.9835 17.836 31.9536L18.0321 31.8982L18.0022 31.6126C17.9426 30.9433 17.5802 30.0822 17.1241 29.5067C16.2587 28.4239 14.9627 27.8527 12.5286 27.4818L12 27.4051L12.0213 27.4946Z" fill="black"/>
<path d="M21.468 29.3447C19.5624 31.7874 19.0935 33.8336 20.01 35.6965C20.0953 35.867 20.2189 36.0844 20.2829 36.174C20.3894 36.3189 20.4321 36.3445 20.56 36.3445C20.7774 36.3445 20.9053 36.2635 21.2676 35.8841C22.6062 34.4816 22.9302 32.7849 22.3035 30.4232C22.1415 29.8264 21.8559 28.927 21.8218 28.927C21.8047 28.927 21.647 29.1145 21.468 29.3447Z" fill="black"/>
<path d="M23.7572 32.7721C22.5635 35.1978 22.376 36.8987 23.1348 38.4546C23.5099 39.2305 23.949 39.7548 24.1707 39.6952C24.3028 39.6611 24.5842 39.3712 24.8144 39.0344C25.8759 37.4486 25.91 35.9608 24.938 33.7441C24.7291 33.2666 24.1323 32.1242 24.0939 32.1242C24.0854 32.1242 23.9362 32.4183 23.7572 32.7721Z" fill="black"/>
<path d="M12.9037 32.1796C12.9037 32.1924 13.0145 32.3927 13.1552 32.6229C13.2916 32.8531 13.4834 33.1814 13.5815 33.3519C13.9865 34.051 14.9968 35.1679 15.632 35.6155C16.3737 36.1399 17.0558 36.3828 17.87 36.417C18.4881 36.4425 18.7056 36.3956 18.8931 36.1953C18.9613 36.1143 19.1148 36.012 19.2256 35.9651C19.3365 35.9182 19.426 35.85 19.426 35.8201C19.426 35.6965 19.2001 35.0784 19.0423 34.7587C18.6374 33.9444 18.1514 33.4286 17.3713 32.981C16.6593 32.5718 16.0583 32.3842 15.0991 32.2734C14.5279 32.2052 12.9037 32.1327 12.9037 32.1796Z" fill="black"/>
<path d="M26.6134 35.266C26.4727 35.9651 26.4045 36.6898 26.4003 37.5594C26.396 38.7829 26.5196 39.4692 26.8905 40.2962C27.1889 40.9655 27.8539 41.8011 28.3569 42.1421C28.5275 42.2615 28.6212 42.2913 28.8344 42.3041L29.0987 42.3211L29.201 42.1165C29.6912 41.1446 29.8277 39.9424 29.5506 39.0088C29.3374 38.2884 28.9751 37.6404 28.3484 36.856C28.0713 36.5065 26.7328 35.1509 26.6688 35.1509C26.6518 35.1509 26.6262 35.202 26.6134 35.266Z" fill="black"/>
<path d="M17.2094 36.6855C16.9152 36.7281 16.4506 36.8006 16.1692 36.8518C15.8921 36.8987 15.6577 36.9413 15.6449 36.9413C15.6364 36.9413 15.7856 37.1203 15.9774 37.3377C16.1692 37.5552 16.3781 37.828 16.4421 37.9474C16.5145 38.0795 16.7149 38.2969 16.9792 38.5314C18.6289 39.9936 20.1593 40.5179 21.6215 40.13C21.9327 40.049 21.9839 40.0191 22.197 39.8017C22.3249 39.6696 22.504 39.5246 22.5935 39.4777C22.7896 39.3754 22.7853 39.3328 22.5338 38.8852C21.9242 37.8067 21.0119 37.0948 19.895 36.8219C18.9657 36.5917 18.1472 36.5534 17.2094 36.6855Z" fill="black"/>
<path d="M30.2113 38.9193C30.2113 39.0216 30.7911 40.4071 30.9999 40.8078C32.0913 42.9052 33.4298 44.0221 34.9261 44.0945L35.3567 44.1116L35.4888 43.9837C35.5656 43.9112 35.6935 43.8387 35.7745 43.8217C35.8554 43.8089 35.9364 43.7791 35.945 43.7577C35.9578 43.7407 35.945 43.5446 35.9194 43.3272C35.8299 42.5812 35.557 41.8437 35.1819 41.3151C34.9474 40.9826 34.406 40.4668 34.048 40.2323C33.3531 39.7719 32.3001 39.3669 31.0213 39.0685C30.2966 38.9022 30.2113 38.8852 30.2113 38.9193Z" fill="black"/>
<path d="M22.5509 40.2664C22.0393 40.3218 21.5661 40.4241 20.9821 40.6117C20.3299 40.8206 19.4943 41.1446 19.4815 41.1915C19.4773 41.2085 19.6393 41.3492 19.8396 41.4984C20.0656 41.6689 20.2275 41.8266 20.2574 41.9034C20.3299 42.0782 20.445 42.1762 20.8585 42.432C22.0947 43.195 23.3267 43.5872 24.3498 43.5361C25.1555 43.4934 26.055 43.1609 26.2681 42.8242C26.3236 42.7389 26.4856 42.5599 26.6348 42.4277L26.9033 42.1933L26.7243 41.9588C26.1189 41.1574 25.2536 40.5691 24.3669 40.3517C23.9491 40.2493 23.0837 40.211 22.5509 40.2664Z" fill="black"/>
<path d="M27.9733 42.9052C27.1122 43.0885 26.2468 43.4721 25.3388 44.0775C24.3583 44.734 23.9959 45.0409 24.2048 45.0409C24.2304 45.0409 24.3881 45.1048 24.5629 45.1858C24.7889 45.2881 24.8912 45.3649 24.9295 45.4501C25.0105 45.6164 25.2024 45.7017 25.8844 45.8764C27.3424 46.243 28.472 46.2345 29.4909 45.8551C30.0195 45.6548 30.6675 45.1773 30.919 44.7979C31.0085 44.6658 31.1833 44.4142 31.3069 44.2352C31.5755 43.8643 31.5883 43.907 31.0852 43.5702C30.6845 43.3016 30.2667 43.1098 29.8063 42.9691C29.2863 42.8156 28.536 42.7901 27.9733 42.9052Z" fill="black"/>
<path d="M33.2166 44.7169C32.6113 44.8619 32.1552 45.0537 31.4305 45.4757C30.8592 45.8082 29.2649 47.0956 29.3374 47.1681C29.3544 47.1809 29.5334 47.2491 29.7338 47.3216C30.045 47.4281 30.1089 47.4665 30.1175 47.5475C30.1388 47.6925 30.386 47.7862 31.0212 47.9056C31.4731 47.9866 31.6948 48.0036 32.4919 47.9994C33.3744 47.9994 33.4554 47.9909 33.8561 47.8843C34.9602 47.5859 35.6337 47.0743 36.2646 46.064C36.4522 45.7613 36.6057 45.497 36.6057 45.48C36.6057 45.3862 35.7062 44.9301 35.1989 44.7638C34.892 44.6615 34.747 44.6444 34.2397 44.6317C33.7239 44.6189 33.5832 44.6274 33.2166 44.7169Z" fill="black"/>
<path d="M56.5326 20.8078C56.8044 20.6289 57.0762 20.45 57.3016 20.2555C57.5271 20.0609 57.7063 19.8505 57.8118 19.6472C57.9173 19.4438 57.9491 19.2473 57.9308 19.036C57.9125 18.8248 57.8439 18.5989 57.7509 18.3235C57.658 18.0482 57.5408 17.7235 57.4893 17.4208C57.4377 17.1181 57.4521 16.8376 57.4878 16.6296C57.5235 16.4215 57.5806 16.2861 57.6301 16.1537C57.6797 16.0213 57.7218 15.8918 57.8244 15.6904C57.927 15.489 58.0901 15.2158 58.2532 14.9425" stroke="black" stroke-width="1.5" stroke-linecap="round"/>
<path d="M68.7284 20.5057C69.0002 20.3268 69.272 20.1479 69.4974 19.9534C69.7229 19.7588 69.9021 19.5484 70.0076 19.3451C70.1131 19.1417 70.1449 18.9452 70.1266 18.734C70.1083 18.5228 70.0397 18.2968 69.9467 18.0215C69.8538 17.7461 69.7366 17.4214 69.6851 17.1187C69.6335 16.816 69.6479 16.5355 69.6836 16.3275C69.7193 16.1194 69.7764 15.984 69.8259 15.8516C69.8755 15.7192 69.9176 15.5897 70.0202 15.3883C70.1228 15.1869 70.2859 14.9137 70.449 14.6404" stroke="black" stroke-width="1.5" stroke-linecap="round"/>
<path d="M62.895 19.2935C63.1669 19.1146 63.4386 18.9357 63.664 18.7412C63.8895 18.5466 64.0687 18.3362 64.1742 18.1329C64.2798 17.9295 64.3116 17.7329 64.2932 17.5217C64.2749 17.3105 64.2063 17.0846 64.1134 16.8092C64.0204 16.5339 63.9032 16.2092 63.8517 15.9065C63.8002 15.6038 63.8145 15.3233 63.8502 15.1153C63.8859 14.9072 63.943 14.7718 63.9926 14.6394C64.0421 14.5069 64.0842 14.3774 64.1868 14.1761C64.2894 13.9747 64.4525 13.7015 64.6156 13.4282" stroke="black" stroke-width="1.5" stroke-linecap="round"/>
<path d="M80.479 39.4322C80.1531 39.4339 59.2704 39.5444 53.8675 39.5233C48.4647 39.5021 48.4267 39.4024 48.4266 39.5543C48.4266 39.7063 48.4645 40.1099 48.6138 40.497C48.763 40.8841 49.0232 41.2545 49.3576 41.5847C49.692 41.9149 50.086 42.1947 50.3788 42.356C50.6716 42.5174 50.8559 42.5554 55.4373 42.5696C60.0187 42.5838 68.9969 42.5743 73.5294 42.5505C78.0618 42.5267 78.1486 42.4887 78.4034 42.3748C78.6582 42.2608 79.0811 42.0708 79.4822 41.7432C79.8833 41.4156 80.2628 40.9502 80.4743 40.5941C80.6857 40.2381 80.7163 40.0635 80.7514 39.8363C80.7865 39.6092 80.7942 39.5349 80.805 39.4305C80.805 39.4305 80.805 39.4305 80.479 39.4322Z" stroke="black" stroke-width="1.4" stroke-linecap="round" stroke-linejoin="round"/>
<path d="M76.2782 26.7325C76.1913 26.1198 76.1043 25.5066 75.9264 25.1406C75.7486 24.7745 75.4796 24.6559 75.298 24.5962C75.1163 24.5365 75.0221 24.5361 71.1763 24.5526C67.3305 24.5692 59.7334 24.6028 55.9053 24.6201C52.0772 24.6375 52.0181 24.6387 51.947 24.6452C51.8759 24.6517 51.7929 24.6635 51.676 24.7248C51.5592 24.7862 51.4089 24.8969 51.2854 25.0629C51.162 25.2288 51.0685 25.4431 51.0201 25.978C50.9718 26.513 50.9698 27.3651 50.9857 27.9869C51.0015 28.6088 51.0351 29.0004 51.1627 29.651C51.2903 30.3017 51.5118 31.2112 51.8164 32.121C52.1211 33.0307 52.5087 33.9405 53.1635 34.9143C53.8183 35.8881 54.74 36.9258 55.6005 37.6958C56.4609 38.4658 57.26 38.9682 57.6753 39.2192C58.0906 39.4703 58.1223 39.4703 59.9901 39.4644C61.858 39.4584 65.5619 39.4466 67.4296 39.4346C69.2974 39.4227 69.329 39.4109 69.7303 39.1254C70.1316 38.8399 70.9026 38.2808 71.6323 37.6651C72.362 37.0493 73.0503 36.3768 73.6792 35.5303C74.3082 34.6838 74.8778 33.6632 75.2903 32.7063C75.7027 31.7493 75.9538 30.8706 76.0922 29.8896C76.2306 28.9086 76.2545 27.8168 76.2901 27.2509C76.3257 26.685 76.3732 26.6375 76.6305 26.627C76.8879 26.6165 77.3547 26.6428 77.8175 26.7154C78.2804 26.788 78.7393 26.9067 79.0873 27.1165C79.4354 27.3263 79.6727 27.6269 79.8703 27.909C80.0679 28.1911 80.2257 28.4545 80.3409 28.8435C80.4561 29.2326 80.5288 29.7473 80.5456 30.2591C80.5623 30.771 80.5231 31.2801 80.4112 31.7331C80.2993 32.1862 80.1147 32.5834 79.8266 32.9945C79.5385 33.4056 79.1469 33.8308 78.7106 34.2083C78.2743 34.5859 77.7932 34.916 77.2254 35.2209C76.6576 35.5258 76.0031 35.8055 75.3011 35.9957C74.599 36.1859 73.8494 36.2866 73.0994 36.3874" stroke="black" stroke-width="1.4" stroke-linecap="round"/>
<g filter="url(#filter0_d_17_3136)">
<path d="M103.276 12.8636V24.5H101.663L95.7478 15.9659H95.6398V24.5H93.8841V12.8636H95.5091L101.43 21.4091H101.538V12.8636H103.276ZM109.377 24.6761C108.559 24.6761 107.845 24.4886 107.235 24.1136C106.625 23.7386 106.152 23.214 105.815 22.5398C105.477 21.8655 105.309 21.0776 105.309 20.1761C105.309 19.2708 105.477 18.4792 105.815 17.8011C106.152 17.1231 106.625 16.5966 107.235 16.2216C107.845 15.8466 108.559 15.6591 109.377 15.6591C110.195 15.6591 110.909 15.8466 111.519 16.2216C112.129 16.5966 112.602 17.1231 112.94 17.8011C113.277 18.4792 113.445 19.2708 113.445 20.1761C113.445 21.0776 113.277 21.8655 112.94 22.5398C112.602 23.214 112.129 23.7386 111.519 24.1136C110.909 24.4886 110.195 24.6761 109.377 24.6761ZM109.383 23.25C109.913 23.25 110.352 23.1098 110.701 22.8295C111.049 22.5492 111.307 22.1761 111.474 21.7102C111.644 21.2443 111.729 20.7311 111.729 20.1705C111.729 19.6136 111.644 19.1023 111.474 18.6364C111.307 18.1667 111.049 17.7898 110.701 17.5057C110.352 17.2216 109.913 17.0795 109.383 17.0795C108.849 17.0795 108.405 17.2216 108.053 17.5057C107.705 17.7898 107.445 18.1667 107.275 18.6364C107.108 19.1023 107.025 19.6136 107.025 20.1705C107.025 20.7311 107.108 21.2443 107.275 21.7102C107.445 22.1761 107.705 22.5492 108.053 22.8295C108.405 23.1098 108.849 23.25 109.383 23.25ZM115.342 24.5V15.7727H116.972V17.1932H117.08C117.262 16.7121 117.559 16.3371 117.972 16.0682C118.385 15.7955 118.879 15.6591 119.455 15.6591C120.038 15.6591 120.527 15.7955 120.921 16.0682C121.319 16.3409 121.612 16.7159 121.802 17.1932H121.893C122.101 16.7273 122.432 16.3561 122.887 16.0795C123.341 15.7992 123.883 15.6591 124.512 15.6591C125.304 15.6591 125.949 15.9072 126.449 16.4034C126.953 16.8996 127.205 17.6477 127.205 18.6477V24.5H125.506V18.8068C125.506 18.2159 125.345 17.7879 125.023 17.5227C124.701 17.2576 124.317 17.125 123.87 17.125C123.317 17.125 122.887 17.2955 122.58 17.6364C122.273 17.9735 122.12 18.4072 122.12 18.9375V24.5H120.427V18.6989C120.427 18.2254 120.279 17.8447 119.984 17.5568C119.688 17.2689 119.304 17.125 118.83 17.125C118.508 17.125 118.211 17.2102 117.938 17.3807C117.669 17.5473 117.451 17.7803 117.285 18.0795C117.122 18.3788 117.04 18.7254 117.04 19.1193V24.5H115.342ZM129.482 24.5V15.7727H131.181V24.5H129.482ZM130.34 14.4261C130.045 14.4261 129.791 14.3276 129.579 14.1307C129.37 13.9299 129.266 13.6913 129.266 13.4148C129.266 13.1345 129.37 12.8958 129.579 12.6989C129.791 12.4981 130.045 12.3977 130.34 12.3977C130.636 12.3977 130.887 12.4981 131.096 12.6989C131.308 12.8958 131.414 13.1345 131.414 13.4148C131.414 13.6913 131.308 13.9299 131.096 14.1307C130.887 14.3276 130.636 14.4261 130.34 14.4261ZM135.165 19.3182V24.5H133.466V15.7727H135.097V17.1932H135.205C135.406 16.7311 135.72 16.3598 136.148 16.0795C136.58 15.7992 137.124 15.6591 137.779 15.6591C138.374 15.6591 138.895 15.7841 139.341 16.0341C139.788 16.2803 140.135 16.6477 140.381 17.1364C140.627 17.625 140.751 18.2292 140.751 18.9489V24.5H139.052V19.1534C139.052 18.5208 138.887 18.0265 138.557 17.6705C138.228 17.3106 137.775 17.1307 137.199 17.1307C136.806 17.1307 136.455 17.2159 136.148 17.3864C135.845 17.5568 135.605 17.8068 135.427 18.1364C135.252 18.4621 135.165 18.8561 135.165 19.3182ZM145.569 24.6932C145.016 24.6932 144.516 24.5909 144.069 24.3864C143.622 24.178 143.268 23.8769 143.006 23.483C142.749 23.089 142.62 22.6061 142.62 22.0341C142.62 21.5417 142.715 21.1364 142.904 20.8182C143.093 20.5 143.349 20.2481 143.671 20.0625C143.993 19.8769 144.353 19.7367 144.751 19.642C145.148 19.5473 145.554 19.4754 145.966 19.4261C146.489 19.3655 146.913 19.3163 147.239 19.2784C147.565 19.2367 147.802 19.1705 147.949 19.0795C148.097 18.9886 148.171 18.8409 148.171 18.6364V18.5966C148.171 18.1004 148.031 17.7159 147.751 17.4432C147.474 17.1705 147.061 17.0341 146.512 17.0341C145.94 17.0341 145.489 17.161 145.16 17.4148C144.834 17.6648 144.609 17.9432 144.484 18.25L142.887 17.8864C143.076 17.3561 143.353 16.928 143.716 16.6023C144.084 16.2727 144.506 16.0341 144.984 15.8864C145.461 15.7348 145.963 15.6591 146.489 15.6591C146.838 15.6591 147.207 15.7008 147.597 15.7841C147.991 15.8636 148.359 16.0114 148.699 16.2273C149.044 16.4432 149.326 16.7519 149.546 17.1534C149.766 17.5511 149.876 18.0682 149.876 18.7045V24.5H148.216V23.3068H148.148C148.038 23.5265 147.874 23.7424 147.654 23.9545C147.434 24.1667 147.152 24.3428 146.807 24.483C146.463 24.6231 146.05 24.6932 145.569 24.6932ZM145.938 23.3295C146.408 23.3295 146.809 23.2367 147.143 23.0511C147.48 22.8655 147.735 22.6231 147.91 22.3239C148.088 22.0208 148.177 21.697 148.177 21.3523V20.2273C148.116 20.2879 147.999 20.3447 147.824 20.3977C147.654 20.447 147.459 20.4905 147.239 20.5284C147.02 20.5625 146.806 20.5947 146.597 20.625C146.389 20.6515 146.215 20.6742 146.074 20.6932C145.745 20.7348 145.444 20.8049 145.171 20.9034C144.902 21.0019 144.686 21.1439 144.523 21.3295C144.364 21.5114 144.285 21.7538 144.285 22.0568C144.285 22.4773 144.44 22.7955 144.751 23.0114C145.061 23.2235 145.457 23.3295 145.938 23.3295ZM156.212 15.7727V17.1364H151.445V15.7727H156.212ZM152.724 13.6818H154.422V21.9375C154.422 22.267 154.472 22.5151 154.57 22.6818C154.669 22.8447 154.796 22.9564 154.951 23.017C155.11 23.0739 155.282 23.1023 155.468 23.1023C155.604 23.1023 155.724 23.0928 155.826 23.0739C155.928 23.0549 156.008 23.0398 156.065 23.0284L156.371 24.4318C156.273 24.4697 156.133 24.5076 155.951 24.5455C155.769 24.5871 155.542 24.6098 155.269 24.6136C154.822 24.6212 154.405 24.5417 154.019 24.375C153.633 24.2083 153.32 23.9508 153.082 23.6023C152.843 23.2538 152.724 22.8163 152.724 22.2898V13.6818ZM161.759 24.6761C160.899 24.6761 160.159 24.4924 159.538 24.125C158.92 23.7538 158.443 23.233 158.106 22.5625C157.772 21.8883 157.606 21.0985 157.606 20.1932C157.606 19.2992 157.772 18.5114 158.106 17.8295C158.443 17.1477 158.913 16.6155 159.515 16.233C160.121 15.8504 160.829 15.6591 161.64 15.6591C162.132 15.6591 162.609 15.7405 163.072 15.9034C163.534 16.0663 163.948 16.322 164.316 16.6705C164.683 17.0189 164.973 17.4716 165.185 18.0284C165.397 18.5814 165.503 19.2538 165.503 20.0455V20.6477H158.566V19.375H163.839C163.839 18.928 163.748 18.5322 163.566 18.1875C163.384 17.839 163.128 17.5644 162.799 17.3636C162.473 17.1629 162.091 17.0625 161.651 17.0625C161.174 17.0625 160.757 17.1799 160.401 17.4148C160.049 17.6458 159.776 17.9489 159.583 18.3239C159.394 18.6951 159.299 19.0985 159.299 19.5341V20.5284C159.299 21.1117 159.401 21.608 159.606 22.017C159.814 22.4261 160.104 22.7386 160.475 22.9545C160.846 23.1667 161.28 23.2727 161.776 23.2727C162.098 23.2727 162.392 23.2273 162.657 23.1364C162.922 23.0417 163.151 22.9015 163.344 22.7159C163.538 22.5303 163.685 22.3011 163.788 22.0284L165.395 22.3182C165.267 22.7917 165.036 23.2064 164.702 23.5625C164.373 23.9148 163.958 24.1894 163.458 24.3864C162.962 24.5795 162.395 24.6761 161.759 24.6761ZM170.655 24.6705C169.951 24.6705 169.322 24.4905 168.769 24.1307C168.22 23.767 167.788 23.25 167.474 22.5795C167.163 21.9053 167.008 21.0966 167.008 20.1534C167.008 19.2102 167.165 18.4034 167.479 17.733C167.797 17.0625 168.233 16.5492 168.786 16.1932C169.339 15.8371 169.966 15.6591 170.667 15.6591C171.208 15.6591 171.644 15.75 171.974 15.9318C172.307 16.1098 172.564 16.3182 172.746 16.5568C172.932 16.7955 173.076 17.0057 173.178 17.1875H173.28V12.8636H174.979V24.5H173.32V23.142H173.178C173.076 23.3276 172.928 23.5398 172.735 23.7784C172.546 24.017 172.284 24.2254 171.951 24.4034C171.618 24.5814 171.186 24.6705 170.655 24.6705ZM171.03 23.2216C171.519 23.2216 171.932 23.0928 172.269 22.8352C172.61 22.5739 172.868 22.2121 173.042 21.75C173.22 21.2879 173.309 20.75 173.309 20.1364C173.309 19.5303 173.222 19 173.047 18.5455C172.873 18.0909 172.618 17.7367 172.28 17.483C171.943 17.2292 171.527 17.1023 171.03 17.1023C170.519 17.1023 170.093 17.2348 169.752 17.5C169.411 17.7651 169.154 18.1269 168.979 18.5852C168.809 19.0436 168.724 19.5606 168.724 20.1364C168.724 20.7197 168.811 21.2443 168.985 21.7102C169.159 22.1761 169.417 22.5455 169.758 22.8182C170.102 23.0871 170.527 23.2216 171.03 23.2216ZM185.792 15.7727V17.1364H180.86V15.7727H185.792ZM182.212 24.5V14.7614C182.212 14.2159 182.332 13.7633 182.57 13.4034C182.809 13.0398 183.125 12.7689 183.519 12.5909C183.913 12.4091 184.341 12.3182 184.803 12.3182C185.144 12.3182 185.436 12.3466 185.678 12.4034C185.921 12.4564 186.1 12.5057 186.218 12.5511L185.82 13.9261C185.741 13.9034 185.638 13.8769 185.513 13.8466C185.388 13.8125 185.237 13.7955 185.059 13.7955C184.646 13.7955 184.35 13.8977 184.172 14.1023C183.998 14.3068 183.911 14.6023 183.911 14.9886V24.5H182.212ZM190.877 24.6761C190.059 24.6761 189.345 24.4886 188.735 24.1136C188.125 23.7386 187.652 23.214 187.314 22.5398C186.977 21.8655 186.809 21.0776 186.809 20.1761C186.809 19.2708 186.977 18.4792 187.314 17.8011C187.652 17.1231 188.125 16.5966 188.735 16.2216C189.345 15.8466 190.059 15.6591 190.877 15.6591C191.695 15.6591 192.409 15.8466 193.019 16.2216C193.629 16.5966 194.102 17.1231 194.439 17.8011C194.777 18.4792 194.945 19.2708 194.945 20.1761C194.945 21.0776 194.777 21.8655 194.439 22.5398C194.102 23.214 193.629 23.7386 193.019 24.1136C192.409 24.4886 191.695 24.6761 190.877 24.6761ZM190.883 23.25C191.413 23.25 191.852 23.1098 192.201 22.8295C192.549 22.5492 192.807 22.1761 192.974 21.7102C193.144 21.2443 193.229 20.7311 193.229 20.1705C193.229 19.6136 193.144 19.1023 192.974 18.6364C192.807 18.1667 192.549 17.7898 192.201 17.5057C191.852 17.2216 191.413 17.0795 190.883 17.0795C190.349 17.0795 189.905 17.2216 189.553 17.5057C189.205 17.7898 188.945 18.1667 188.775 18.6364C188.608 19.1023 188.525 19.6136 188.525 20.1705C188.525 20.7311 188.608 21.2443 188.775 21.7102C188.945 22.1761 189.205 22.5492 189.553 22.8295C189.905 23.1098 190.349 23.25 190.883 23.25ZM196.841 24.5V15.7727H198.484V17.1591H198.574C198.734 16.6894 199.014 16.3201 199.415 16.0511C199.821 15.7784 200.279 15.642 200.79 15.642C200.896 15.642 201.021 15.6458 201.165 15.6534C201.313 15.661 201.429 15.6705 201.512 15.6818V17.3068C201.444 17.2879 201.323 17.267 201.148 17.2443C200.974 17.2178 200.8 17.2045 200.626 17.2045C200.224 17.2045 199.866 17.2898 199.552 17.4602C199.241 17.6269 198.995 17.8598 198.813 18.1591C198.631 18.4545 198.54 18.7917 198.54 19.1705V24.5H196.841Z" fill="black"/>
<path d="M96.5157 44.5V34.368H93.0987V31.835H102.993V34.368H99.5587V44.5H96.5157ZM107.446 44.738C106.517 44.738 105.678 44.5397 104.93 44.143C104.194 43.735 103.604 43.1513 103.162 42.392C102.732 41.6327 102.516 40.7203 102.516 39.655C102.516 38.873 102.641 38.1703 102.89 37.547C103.151 36.9237 103.497 36.391 103.927 35.949C104.369 35.507 104.862 35.1727 105.406 34.946C105.962 34.708 106.528 34.589 107.106 34.589C108.036 34.589 108.806 34.793 109.418 35.201C110.03 35.609 110.489 36.1643 110.795 36.867C111.101 37.5697 111.254 38.363 111.254 39.247C111.254 39.519 111.237 39.774 111.203 40.012C111.181 40.25 111.152 40.4313 111.118 40.556H105.44C105.531 40.998 105.69 41.355 105.916 41.627C106.143 41.899 106.421 42.103 106.749 42.239C107.078 42.3637 107.446 42.426 107.854 42.426C108.206 42.426 108.546 42.375 108.874 42.273C109.203 42.171 109.543 42.018 109.894 41.814L110.897 43.633C110.399 43.9843 109.838 44.2563 109.214 44.449C108.602 44.6417 108.013 44.738 107.446 44.738ZM105.389 38.567H108.687C108.687 38.091 108.568 37.6943 108.33 37.377C108.104 37.0597 107.713 36.901 107.157 36.901C106.885 36.901 106.625 36.9633 106.375 37.088C106.137 37.2013 105.928 37.3827 105.746 37.632C105.576 37.87 105.457 38.1817 105.389 38.567ZM115.286 44.738C114.697 44.738 114.187 44.6077 113.756 44.347C113.326 44.075 112.991 43.718 112.753 43.276C112.527 42.8227 112.413 42.3297 112.413 41.797C112.413 40.777 112.838 39.9837 113.688 39.417C114.538 38.839 115.904 38.448 117.785 38.244C117.763 37.9833 117.7 37.7623 117.598 37.581C117.496 37.3883 117.338 37.2467 117.122 37.156C116.918 37.054 116.652 37.003 116.323 37.003C115.938 37.003 115.541 37.0767 115.133 37.224C114.725 37.3713 114.278 37.581 113.79 37.853L112.736 35.864C113.167 35.6033 113.603 35.3823 114.045 35.201C114.499 35.0083 114.963 34.861 115.439 34.759C115.915 34.6457 116.403 34.589 116.901 34.589C117.74 34.589 118.448 34.7477 119.026 35.065C119.604 35.3823 120.046 35.8697 120.352 36.527C120.658 37.173 120.811 38.0003 120.811 39.009V44.5H118.346L118.142 43.531H118.057C117.661 43.8823 117.23 44.1713 116.765 44.398C116.312 44.6247 115.819 44.738 115.286 44.738ZM116.323 42.392C116.629 42.392 116.896 42.324 117.122 42.188C117.349 42.052 117.57 41.865 117.785 41.627V40.08C117.162 40.1593 116.663 40.2727 116.289 40.42C115.927 40.5673 115.666 40.7373 115.507 40.93C115.36 41.1227 115.286 41.3323 115.286 41.559C115.286 41.8423 115.377 42.052 115.558 42.188C115.751 42.324 116.006 42.392 116.323 42.392ZM128.741 44.738C127.936 44.738 127.177 44.602 126.463 44.33C125.749 44.058 125.114 43.65 124.559 43.106C124.015 42.5507 123.584 41.8707 123.267 41.066C122.961 40.25 122.808 39.3093 122.808 38.244C122.808 37.19 122.967 36.255 123.284 35.439C123.613 34.6117 124.055 33.9147 124.61 33.348C125.177 32.7813 125.823 32.3507 126.548 32.056C127.273 31.7613 128.038 31.614 128.843 31.614C129.67 31.614 130.407 31.7783 131.053 32.107C131.71 32.4357 132.254 32.821 132.685 33.263L131.104 35.201C130.787 34.9063 130.452 34.6683 130.101 34.487C129.75 34.3057 129.347 34.215 128.894 34.215C128.35 34.215 127.851 34.3737 127.398 34.691C126.945 34.997 126.582 35.4447 126.31 36.034C126.049 36.612 125.919 37.3147 125.919 38.142C125.919 38.9807 126.038 39.7003 126.276 40.301C126.525 40.8903 126.871 41.3437 127.313 41.661C127.755 41.967 128.271 42.12 128.86 42.12C129.37 42.12 129.823 42.0067 130.22 41.78C130.628 41.5533 130.979 41.2813 131.274 40.964L132.872 42.868C132.339 43.4913 131.722 43.9617 131.019 44.279C130.328 44.585 129.568 44.738 128.741 44.738ZM138.686 44.738C137.87 44.738 137.099 44.5397 136.374 44.143C135.649 43.735 135.059 43.1513 134.606 42.392C134.164 41.6327 133.943 40.7203 133.943 39.655C133.943 38.5897 134.164 37.683 134.606 36.935C135.059 36.1757 135.649 35.5977 136.374 35.201C137.099 34.793 137.87 34.589 138.686 34.589C139.298 34.589 139.887 34.7023 140.454 34.929C141.021 35.1557 141.525 35.49 141.967 35.932C142.409 36.3627 142.76 36.8897 143.021 37.513C143.282 38.1363 143.412 38.8503 143.412 39.655C143.412 40.7203 143.185 41.6327 142.732 42.392C142.29 43.1513 141.706 43.735 140.981 44.143C140.267 44.5397 139.502 44.738 138.686 44.738ZM138.686 42.29C139.06 42.29 139.366 42.1823 139.604 41.967C139.853 41.7517 140.035 41.4457 140.148 41.049C140.261 40.6523 140.318 40.1877 140.318 39.655C140.318 39.1223 140.261 38.6633 140.148 38.278C140.035 37.8813 139.853 37.5753 139.604 37.36C139.366 37.1447 139.06 37.037 138.686 37.037C138.312 37.037 138 37.1447 137.751 37.36C137.513 37.5753 137.332 37.8813 137.207 38.278C137.094 38.6633 137.037 39.1223 137.037 39.655C137.037 40.1877 137.094 40.6523 137.207 41.049C137.332 41.4457 137.513 41.7517 137.751 41.967C138 42.1823 138.312 42.29 138.686 42.29ZM145.311 44.5V34.827H147.776L147.997 36.034H148.048C148.445 35.6373 148.892 35.2973 149.391 35.014C149.901 34.7307 150.485 34.589 151.142 34.589C152.196 34.589 152.961 34.9403 153.437 35.643C153.913 36.3457 154.151 37.3033 154.151 38.516V44.5H151.125V38.89C151.125 38.2213 151.034 37.768 150.853 37.53C150.672 37.292 150.388 37.173 150.003 37.173C149.663 37.173 149.374 37.2467 149.136 37.394C148.898 37.5413 148.632 37.7567 148.337 38.04V44.5H145.311ZM159.875 44.5V42.766C160.895 41.814 161.802 40.9413 162.595 40.148C163.4 39.3433 164.029 38.6067 164.482 37.938C164.936 37.2693 165.162 36.646 165.162 36.068C165.162 35.6713 165.094 35.3427 164.958 35.082C164.834 34.8213 164.647 34.623 164.397 34.487C164.148 34.351 163.853 34.283 163.513 34.283C163.083 34.283 162.692 34.4133 162.34 34.674C162 34.9233 161.677 35.201 161.371 35.507L159.722 33.875C160.346 33.2177 160.975 32.7303 161.609 32.413C162.255 32.0843 163.026 31.92 163.921 31.92C164.737 31.92 165.457 32.0843 166.08 32.413C166.704 32.7417 167.191 33.2063 167.542 33.807C167.894 34.3963 168.069 35.0933 168.069 35.898C168.069 36.578 167.882 37.275 167.508 37.989C167.134 38.6917 166.653 39.3943 166.063 40.097C165.485 40.7883 164.879 41.4627 164.244 42.12C164.562 42.0747 164.913 42.035 165.298 42.001C165.695 41.967 166.035 41.95 166.318 41.95H168.647V44.5H159.875ZM174.706 44.738C173.81 44.738 173.023 44.4943 172.343 44.007C171.674 43.5083 171.153 42.783 170.779 41.831C170.405 40.8677 170.218 39.6833 170.218 38.278C170.218 36.8727 170.405 35.6997 170.779 34.759C171.153 33.8183 171.674 33.11 172.343 32.634C173.023 32.158 173.81 31.92 174.706 31.92C175.601 31.92 176.383 32.158 177.052 32.634C177.72 33.11 178.242 33.8183 178.616 34.759C178.99 35.6997 179.177 36.8727 179.177 38.278C179.177 39.6833 178.99 40.8677 178.616 41.831C178.242 42.783 177.72 43.5083 177.052 44.007C176.383 44.4943 175.601 44.738 174.706 44.738ZM174.706 42.392C175.012 42.392 175.284 42.2843 175.522 42.069C175.771 41.8423 175.964 41.4343 176.1 40.845C176.247 40.2443 176.321 39.3887 176.321 38.278C176.321 37.1673 176.247 36.323 176.1 35.745C175.964 35.167 175.771 34.776 175.522 34.572C175.284 34.368 175.012 34.266 174.706 34.266C174.411 34.266 174.139 34.368 173.89 34.572C173.64 34.776 173.442 35.167 173.295 35.745C173.147 36.323 173.074 37.1673 173.074 38.278C173.074 39.3887 173.147 40.2443 173.295 40.845C173.442 41.4343 173.64 41.8423 173.89 42.069C174.139 42.2843 174.411 42.392 174.706 42.392ZM180.594 44.5V42.766C181.614 41.814 182.521 40.9413 183.314 40.148C184.119 39.3433 184.748 38.6067 185.201 37.938C185.654 37.2693 185.881 36.646 185.881 36.068C185.881 35.6713 185.813 35.3427 185.677 35.082C185.552 34.8213 185.365 34.623 185.116 34.487C184.867 34.351 184.572 34.283 184.232 34.283C183.801 34.283 183.41 34.4133 183.059 34.674C182.719 34.9233 182.396 35.201 182.09 35.507L180.441 33.875C181.064 33.2177 181.693 32.7303 182.328 32.413C182.974 32.0843 183.745 31.92 184.64 31.92C185.456 31.92 186.176 32.0843 186.799 32.413C187.422 32.7417 187.91 33.2063 188.261 33.807C188.612 34.3963 188.788 35.0933 188.788 35.898C188.788 36.578 188.601 37.275 188.227 37.989C187.853 38.6917 187.371 39.3943 186.782 40.097C186.204 40.7883 185.598 41.4627 184.963 42.12C185.28 42.0747 185.632 42.035 186.017 42.001C186.414 41.967 186.754 41.95 187.037 41.95H189.366V44.5H180.594ZM194.982 44.738C194.314 44.738 193.707 44.6643 193.163 44.517C192.631 44.3697 192.155 44.1657 191.735 43.905C191.316 43.633 190.953 43.3213 190.647 42.97L192.041 41.066C192.427 41.4173 192.84 41.712 193.282 41.95C193.724 42.1767 194.189 42.29 194.676 42.29C195.073 42.29 195.413 42.239 195.696 42.137C195.991 42.035 196.218 41.882 196.376 41.678C196.535 41.474 196.614 41.2247 196.614 40.93C196.614 40.5787 196.529 40.284 196.359 40.046C196.189 39.7967 195.872 39.6097 195.407 39.485C194.943 39.349 194.268 39.281 193.384 39.281V37.139C194.11 37.139 194.676 37.071 195.084 36.935C195.492 36.799 195.781 36.6177 195.951 36.391C196.133 36.153 196.223 35.881 196.223 35.575C196.223 35.1557 196.099 34.8383 195.849 34.623C195.6 34.3963 195.243 34.283 194.778 34.283C194.359 34.283 193.974 34.3793 193.622 34.572C193.271 34.7533 192.903 35.014 192.517 35.354L190.987 33.501C191.577 33.0137 192.189 32.6283 192.823 32.345C193.469 32.0617 194.166 31.92 194.914 31.92C195.787 31.92 196.546 32.056 197.192 32.328C197.85 32.5887 198.354 32.974 198.705 33.484C199.068 33.994 199.249 34.6117 199.249 35.337C199.249 35.9603 199.079 36.4987 198.739 36.952C198.399 37.4053 197.895 37.7737 197.226 38.057V38.142C197.691 38.278 198.105 38.482 198.467 38.754C198.841 39.0147 199.13 39.3433 199.334 39.74C199.55 40.1367 199.657 40.6013 199.657 41.134C199.657 41.9047 199.442 42.562 199.011 43.106C198.581 43.6387 198.008 44.0467 197.294 44.33C196.592 44.602 195.821 44.738 194.982 44.738ZM211.394 29.965H217.174V32.175H213.825V40.76H211.394V29.965ZM222.053 43.582H230.332V45.588H222.053V43.582ZM220.608 37.666H231.794V39.587H220.608V37.666ZM220.608 34.946H231.794V36.867H220.608V34.946ZM218.313 32.124H233.936V34.198L218.313 34.198V32.124ZM220.387 40.505H231.981V46.047H229.431V42.545H222.818V46.098H220.387V40.505ZM224.11 30.424L226.609 29.829C226.892 30.2143 227.164 30.645 227.425 31.121C227.686 31.597 227.873 32.022 227.986 32.396L225.317 33.025C225.238 32.685 225.079 32.2713 224.841 31.784C224.614 31.2853 224.371 30.832 224.11 30.424ZM238.441 30.033L240.77 30.764C240.407 31.7273 239.977 32.702 239.478 33.688C238.979 34.674 238.435 35.609 237.846 36.493C237.268 37.377 236.667 38.1477 236.044 38.805C235.976 38.601 235.863 38.3347 235.704 38.006C235.557 37.6773 235.392 37.3487 235.211 37.02C235.041 36.68 234.888 36.408 234.752 36.204C235.239 35.7053 235.71 35.1273 236.163 34.47C236.628 33.8127 237.053 33.1043 237.438 32.345C237.835 31.5857 238.169 30.815 238.441 30.033ZM236.775 34.912L239.172 32.515V32.532V46.098H236.775V34.912ZM242.997 38.21H249.202V40.505H242.997V38.21ZM248.369 38.21H248.777L249.151 38.091L250.868 39.196C250.369 39.74 249.831 40.318 249.253 40.93C248.675 41.542 248.085 42.154 247.485 42.766C246.884 43.3667 246.3 43.9503 245.734 44.517L243.728 43.225C244.283 42.7037 244.855 42.1483 245.445 41.559C246.034 40.9697 246.584 40.403 247.094 39.859C247.615 39.315 248.04 38.8447 248.369 38.448V38.21ZM243.711 30.203L246.176 30.509C245.972 31.359 245.756 32.2373 245.53 33.144C245.314 34.0507 245.088 34.9517 244.85 35.847C244.623 36.7423 244.396 37.5867 244.17 38.38C243.954 39.1733 243.75 39.8817 243.558 40.505H240.94C241.166 39.8363 241.404 39.0883 241.654 38.261C241.903 37.4223 242.147 36.544 242.385 35.626C242.634 34.708 242.872 33.7843 243.099 32.855C243.325 31.9257 243.529 31.0417 243.711 30.203ZM240.583 31.665H250.154V33.909H240.583V31.665ZM239.597 34.827H251.089V37.105H239.597V34.827ZM242.045 42.647L243.745 41.151C244.334 41.457 244.935 41.797 245.547 42.171C246.159 42.545 246.731 42.919 247.264 43.293C247.808 43.667 248.261 44.0127 248.624 44.33L246.89 46.183C246.561 45.8543 246.125 45.4803 245.581 45.061C245.037 44.6417 244.453 44.2223 243.83 43.803C243.218 43.3723 242.623 42.987 242.045 42.647ZM256.444 34.317H263.72V36.051H256.444V34.317ZM256.444 36.765H263.72V38.499H256.444V36.765ZM262.717 31.546H265.114V43.293C265.114 43.9163 265.04 44.4093 264.893 44.772C264.757 45.1347 264.49 45.4123 264.094 45.605C263.708 45.7977 263.238 45.9167 262.683 45.962C262.127 46.0187 261.459 46.047 260.677 46.047C260.654 45.8203 260.597 45.554 260.507 45.248C260.427 44.9533 260.331 44.6587 260.218 44.364C260.104 44.0693 259.991 43.82 259.878 43.616C260.184 43.6273 260.501 43.6387 260.83 43.65C261.158 43.6613 261.453 43.667 261.714 43.667C261.986 43.667 262.173 43.667 262.275 43.667C262.433 43.6557 262.547 43.6217 262.615 43.565C262.683 43.5083 262.717 43.4063 262.717 43.259V31.546ZM265.862 35.014L268.004 36C266.972 37.7 265.726 39.2017 264.264 40.505C262.813 41.8083 261.204 42.936 259.436 43.888C257.679 44.8287 255.815 45.605 253.843 46.217C253.741 46.0357 253.599 45.8203 253.418 45.571C253.236 45.3217 253.049 45.0723 252.857 44.823C252.664 44.585 252.494 44.3867 252.347 44.228C254.33 43.7067 256.177 43.021 257.889 42.171C259.611 41.321 261.147 40.301 262.496 39.111C263.844 37.921 264.966 36.5553 265.862 35.014ZM258.858 29.914L261.765 30.186C261.493 30.7413 261.198 31.2853 260.881 31.818C260.575 32.3393 260.297 32.7813 260.048 33.144L257.94 32.753C258.132 32.3337 258.314 31.8633 258.484 31.342C258.654 30.8207 258.778 30.3447 258.858 29.914ZM254.846 31.546H263.397V33.654H257.294V40.59H254.846V31.546ZM252.721 39.264H264.128V41.406H252.721V39.264ZM270.554 37.02H275.229V38.907H270.554V37.02ZM269.653 31.376H275.093V33.433H269.653V31.376ZM269.024 34.283H277.371V36.391H269.024V34.283ZM271.404 29.965H273.682V35.32H271.404V29.965ZM276.096 30.39L278.374 31.036C277.546 33.144 276.441 35.0083 275.059 36.629C273.687 38.2497 272.123 39.553 270.367 40.539C270.265 40.369 270.112 40.165 269.908 39.927C269.715 39.689 269.511 39.4567 269.296 39.23C269.08 38.992 268.893 38.7993 268.735 38.652C270.435 37.836 271.914 36.7197 273.172 35.303C274.441 33.875 275.416 32.2373 276.096 30.39ZM272.322 39.91H274.634V43.837C274.634 44.3357 274.577 44.7323 274.464 45.027C274.35 45.333 274.124 45.5653 273.784 45.724C273.444 45.8827 273.058 45.979 272.628 46.013C272.208 46.047 271.732 46.064 271.2 46.064C271.154 45.7467 271.064 45.3897 270.928 44.993C270.803 44.6077 270.667 44.2733 270.52 43.99C270.803 44.0013 271.098 44.007 271.404 44.007C271.721 44.007 271.931 44.007 272.033 44.007C272.146 44.007 272.22 43.99 272.254 43.956C272.299 43.922 272.322 43.8653 272.322 43.786V39.91ZM274.702 37.02H275.212L275.654 36.901L276.98 37.955C276.492 38.5103 275.931 39.0827 275.297 39.672C274.673 40.2613 274.061 40.76 273.461 41.168C273.336 40.9753 273.155 40.7543 272.917 40.505C272.679 40.2557 272.48 40.0573 272.322 39.91C272.616 39.6947 272.917 39.4397 273.223 39.145C273.54 38.839 273.829 38.533 274.09 38.227C274.35 37.921 274.554 37.649 274.702 37.411V37.02ZM268.956 40.93C269.692 40.8847 270.525 40.8337 271.455 40.777C272.384 40.7203 273.359 40.658 274.379 40.59C275.399 40.522 276.407 40.454 277.405 40.386V42.477C276.453 42.5563 275.484 42.6357 274.498 42.715C273.523 42.783 272.582 42.851 271.676 42.919C270.769 42.987 269.942 43.0493 269.194 43.106L268.956 40.93ZM278.816 33.042H285.174V35.32H278.816V33.042ZM278.935 29.948L281.434 30.339C281.241 31.5063 280.986 32.6453 280.669 33.756C280.363 34.8667 279.994 35.898 279.564 36.85C279.144 37.7907 278.657 38.6067 278.102 39.298C277.977 39.1393 277.796 38.9467 277.558 38.72C277.32 38.4933 277.07 38.2723 276.81 38.057C276.56 37.8303 276.339 37.6547 276.147 37.53C276.645 36.9633 277.076 36.2833 277.439 35.49C277.801 34.6853 278.107 33.8127 278.357 32.872C278.606 31.92 278.799 30.9453 278.935 29.948ZM281.757 34.453L284.29 34.674C284.063 36.6007 283.695 38.3007 283.185 39.774C282.686 41.236 281.983 42.4997 281.077 43.565C280.181 44.619 279.014 45.4973 277.575 46.2C277.495 46.0073 277.371 45.7637 277.201 45.469C277.042 45.1857 276.866 44.9023 276.674 44.619C276.492 44.3357 276.322 44.109 276.164 43.939C277.422 43.4063 278.436 42.7093 279.207 41.848C279.977 40.9867 280.561 39.944 280.958 38.72C281.354 37.4847 281.621 36.0623 281.757 34.453ZM280.21 34.759C280.425 36.1303 280.737 37.4167 281.145 38.618C281.553 39.8193 282.097 40.879 282.777 41.797C283.468 42.715 284.335 43.4403 285.378 43.973C285.196 44.1317 284.992 44.3357 284.766 44.585C284.55 44.8457 284.341 45.112 284.137 45.384C283.944 45.656 283.785 45.9053 283.661 46.132C282.505 45.4293 281.558 44.5453 280.822 43.48C280.085 42.4033 279.496 41.1623 279.054 39.757C278.612 38.3517 278.249 36.8047 277.966 35.116L280.21 34.759ZM291.804 46.115H286.024V43.905H289.373V35.32H291.804V46.115Z" fill="black"/>
</g>
<path d="M328.273 8.66922C328.546 10.2293 328.934 11.2992 329.599 12.2881C330.046 12.9574 330.541 13.4177 331.125 13.7076C331.781 14.0401 332.331 14.1381 332.548 13.9676C332.608 13.9207 332.702 13.8824 332.762 13.8824C332.958 13.8824 332.975 13.8099 332.949 13.0852C332.928 12.3265 332.851 11.9685 332.604 11.4271C332.02 10.1739 330.805 9.16368 328.751 8.2387C328.461 8.10656 328.209 8 328.192 8C328.175 8 328.209 8.30264 328.273 8.66922Z" fill="black"/>
<path d="M334.739 9.75618C333.661 11.7852 333.316 13.4561 333.708 14.7945C333.976 15.7238 334.756 16.8662 335.114 16.8662C335.315 16.8662 335.767 16.2694 336.099 15.5661C336.389 14.9565 336.474 14.5431 336.478 13.7545C336.478 12.902 336.342 12.2498 335.963 11.2737C335.788 10.8176 335.106 9.42797 335.029 9.36403C334.987 9.32993 334.918 9.4237 334.739 9.75618Z" fill="black"/>
<path d="M329.083 13.4859C329.083 13.503 329.168 13.8269 329.275 14.202C330.008 16.7809 331.334 18.5456 332.817 18.9292C333.503 19.104 333.878 19.0997 334.036 18.9165C334.074 18.8696 334.177 18.8184 334.262 18.8014C334.347 18.7886 334.428 18.746 334.441 18.7119C334.454 18.682 334.441 18.4476 334.415 18.1918C334.271 16.7894 333.733 15.8815 332.527 14.9864C331.709 14.3768 330.878 14.006 329.181 13.4817C329.126 13.4646 329.083 13.4646 329.083 13.4859Z" fill="black"/>
<path d="M337.587 15.6513C336.628 16.8704 336.095 17.8124 335.835 18.763C335.703 19.2361 335.652 20.127 335.728 20.5405C335.839 21.133 336.116 21.815 336.449 22.318C336.594 22.5396 336.602 22.5439 336.764 22.5226C337.003 22.4885 337.224 22.3265 337.531 21.9599C338.12 21.2523 338.456 20.5746 338.64 19.7221C338.759 19.185 338.763 18.1535 338.657 17.4842C338.52 16.6402 338.124 15.1185 338.039 15.1185C338.017 15.1185 337.817 15.3572 337.587 15.6513Z" fill="black"/>
<path d="M331.956 18.8994C331.969 19.0145 331.99 19.3811 332.003 19.7221C332.08 21.5635 332.429 22.8039 333.179 23.9037C333.644 24.5814 334.415 25.191 335.046 25.3743C335.255 25.4382 335.289 25.4382 335.421 25.3743C335.498 25.3359 335.609 25.3061 335.664 25.3061C335.724 25.3061 335.78 25.272 335.797 25.2293C335.869 25.0375 335.954 24.5175 335.976 24.1125C336.048 22.7101 335.404 21.4186 334.036 20.2208C333.29 19.5686 332.118 18.6991 331.99 18.6991C331.952 18.6991 331.943 18.7545 331.956 18.8994Z" fill="black"/>
<path d="M339.816 21.6573C338.077 22.6974 337.088 23.6309 336.56 24.7306C336.261 25.3615 336.223 25.5533 336.227 26.4356C336.231 27.0452 336.248 27.2668 336.312 27.5226C336.389 27.8252 336.402 27.8423 336.521 27.8551C336.594 27.8636 336.666 27.8892 336.692 27.9105C336.837 28.0511 337.442 27.838 337.97 27.4629C338.691 26.9471 339.407 25.9241 339.774 24.8798C340.021 24.1637 340.221 23.1449 340.272 22.3222C340.285 22.1006 340.306 21.798 340.319 21.6488C340.328 21.5038 340.323 21.3845 340.306 21.3845C340.289 21.3845 340.068 21.5081 339.816 21.6573Z" fill="black"/>
<path d="M332.22 23.7758C332.173 23.9165 331.981 24.9395 331.913 25.4126C331.815 26.0946 331.815 27.237 331.909 27.7613C332.096 28.8014 332.527 29.6454 333.239 30.3572C333.733 30.8559 333.895 30.954 334.215 30.954H334.475L334.59 30.7408C334.79 30.3785 334.999 29.6667 335.055 29.1594C335.195 27.8636 334.641 26.4527 333.388 24.9309C332.898 24.3384 332.25 23.6905 332.22 23.7758Z" fill="black"/>
<path d="M340.345 27.5013C339.015 27.7144 337.992 28.0043 337.323 28.3495C336.368 28.844 335.669 29.5985 335.272 30.5533C335.132 30.89 334.94 31.7425 334.978 31.8491C334.991 31.8789 335.08 31.9301 335.17 31.9557C335.268 31.9812 335.37 32.0452 335.409 32.1006C335.511 32.2583 335.733 32.3137 336.176 32.2839C337.57 32.1901 338.687 31.3973 339.855 29.6709C340.289 29.023 341.108 27.3862 340.988 27.399C340.971 27.4032 340.681 27.4459 340.345 27.5013Z" fill="black"/>
<path d="M331.159 28.9548C331.112 29.0401 330.788 30.0887 330.69 30.4851C330.451 31.4271 330.426 31.6317 330.43 32.5524C330.43 33.3623 330.438 33.4561 330.545 33.844C330.741 34.5686 331.206 35.3785 331.76 35.9454C332.058 36.2523 332.216 36.3461 332.429 36.3461C332.587 36.3461 332.612 36.3291 332.744 36.1287C333.098 35.5874 333.35 34.8883 333.435 34.2191C333.593 32.9233 332.983 31.2651 331.721 29.5899C331.295 29.0188 331.193 28.9037 331.159 28.9548Z" fill="black"/>
<path d="M328.567 32.7315C327.983 33.8142 327.647 34.6922 327.463 35.5831C327.34 36.1671 327.361 37.1262 327.502 37.6249C327.753 38.5115 328.554 39.7136 328.887 39.7136C329.002 39.7136 329.377 39.3001 329.633 38.8824C329.901 38.4561 330.123 37.9318 330.225 37.4885C330.332 37.0196 330.319 35.9028 330.204 35.3657C330.093 34.8755 329.893 34.2361 329.693 33.746C329.526 33.3367 329.032 32.3137 328.947 32.1986C328.895 32.1347 328.853 32.1944 328.567 32.7315Z" fill="black"/>
<path d="M338.716 32.1986C338.158 32.2327 337.344 32.3436 336.956 32.4416C335.541 32.8039 334.437 33.682 333.9 34.8755C333.797 35.1057 333.559 35.792 333.559 35.8602C333.559 35.8687 333.661 35.9241 333.785 35.9795C333.904 36.0349 334.049 36.1373 334.1 36.2055C334.232 36.393 334.509 36.4484 335.131 36.4186C336.227 36.3674 337.143 35.9156 338.124 34.9437C338.695 34.3725 339.185 33.7374 339.654 32.9488C339.876 32.5823 340.076 32.254 340.093 32.2242C340.119 32.1816 340.008 32.1688 339.539 32.1773C339.215 32.1816 338.844 32.1901 338.716 32.1986Z" fill="black"/>
<path d="M325.737 35.7153C324.143 37.2583 323.414 38.4945 323.303 39.8329C323.252 40.451 323.435 41.3419 323.746 41.9727L323.904 42.2924H324.16C324.381 42.2924 324.445 42.2711 324.629 42.1432C325.323 41.6658 326.035 40.6513 326.325 39.7349C326.56 38.9804 326.589 38.7502 326.589 37.5823C326.589 36.653 326.572 36.4015 326.487 35.8559C326.432 35.5021 326.372 35.1995 326.355 35.1824C326.338 35.1611 326.057 35.3998 325.737 35.7153Z" fill="black"/>
<path d="M333.891 36.6701C332.676 36.8576 331.994 37.156 331.329 37.7911C330.98 38.1236 330.737 38.4348 330.473 38.8866C330.2 39.3598 330.2 39.3512 330.49 39.5345C330.63 39.6198 330.758 39.7263 330.771 39.7647C330.877 40.1014 331.918 40.3401 332.77 40.2293C333.243 40.1654 333.947 39.9352 334.369 39.705C335.2 39.2532 336.236 38.4135 336.555 37.9403C336.662 37.7783 336.888 37.497 337.054 37.3095C337.22 37.1262 337.348 36.9685 337.34 36.9599C337.331 36.9514 337.054 36.896 336.73 36.8363C335.345 36.5933 334.633 36.5507 333.891 36.6701Z" fill="black"/>
<path d="M322.156 39.0273C319.88 39.5516 318.537 40.2634 317.787 41.3546C317.425 41.8832 317.127 42.7613 317.075 43.4476L317.05 43.7928L317.199 43.8227C317.284 43.8355 317.412 43.9079 317.489 43.9804L317.625 44.1168L318.06 44.0955C318.78 44.0614 319.471 43.78 320.14 43.2515C320.724 42.7911 321.508 41.7596 322.02 40.7792C322.237 40.37 322.689 39.2788 322.757 39.0145C322.791 38.8781 322.809 38.8781 322.156 39.0273Z" fill="black"/>
<path d="M329.019 40.2719C328.29 40.3742 327.463 40.7707 326.888 41.3035C326.568 41.5933 326.142 42.0963 326.142 42.1773C326.142 42.2029 326.257 42.3222 326.398 42.4459C326.538 42.5695 326.666 42.7144 326.679 42.7698C326.73 42.9659 327.186 43.2259 327.791 43.4049C328.832 43.7076 330.046 43.5158 331.393 42.8338C332.169 42.4416 332.54 42.1944 332.689 41.9685C332.757 41.8662 332.983 41.6488 333.188 41.4825C333.439 41.2822 333.542 41.1756 333.503 41.1543C333.473 41.1373 333.141 41.0094 332.766 40.8687C331.99 40.5831 331.406 40.4126 330.878 40.3274C330.396 40.2506 329.394 40.2208 329.019 40.2719Z" fill="black"/>
<path d="M323.482 42.8934C323.094 42.9787 322.698 43.1321 322.305 43.341C321.926 43.5456 321.5 43.8525 321.496 43.9164C321.496 43.942 321.606 44.1168 321.743 44.3086C321.875 44.5004 322.033 44.7349 322.092 44.8329C322.284 45.1483 322.924 45.6215 323.448 45.8346C324.441 46.2353 325.622 46.2481 327.101 45.8772C327.783 45.7025 327.975 45.6172 328.056 45.451C328.094 45.3657 328.192 45.2975 328.397 45.208C328.55 45.1398 328.733 45.0588 328.802 45.029L328.925 44.9736L328.473 44.6453C327.139 43.6735 326.321 43.2387 325.289 42.9702C324.761 42.8295 323.917 42.7954 323.482 42.8934Z" fill="black"/>
<path d="M318.107 44.688C317.945 44.7221 317.664 44.8073 317.489 44.8755C317.173 44.9949 316.534 45.3359 316.436 45.4382C316.359 45.5149 316.986 46.5209 317.318 46.8619C317.791 47.3478 318.384 47.6846 319.13 47.8849C319.531 47.9915 319.612 48 320.494 48C321.287 48 321.513 47.9872 321.964 47.902C322.583 47.7911 322.86 47.6846 322.86 47.5652C322.86 47.4714 323.005 47.3905 323.392 47.2754C323.533 47.2327 323.661 47.1858 323.682 47.1731C323.716 47.1432 322.834 46.3717 322.314 45.9795C321.376 45.2805 320.473 44.8457 319.62 44.6837C319.185 44.5985 318.503 44.6027 318.107 44.688Z" fill="black"/>
<defs>
<filter id="filter0_d_17_3136" x="87.0057" y="3.9" width="227.023" height="48.2" filterUnits="userSpaceOnUse" color-interpolation-filters="sRGB">
<feFlood flood-opacity="0" result="BackgroundImageFix"/>
<feColorMatrix in="SourceAlpha" type="matrix" values="0 0 0 0 0 0 0 0 0 0 0 0 0 0 0 0 0 0 127 0" result="hardAlpha"/>
<feOffset/>
<feGaussianBlur stdDeviation="2.8"/>
<feComposite in2="hardAlpha" operator="out"/>
<feColorMatrix type="matrix" values="0 0 0 0 0 0 0 0 0 0 0 0 0 0 0 0 0 0 0.25 0"/>
<feBlend mode="normal" in2="BackgroundImageFix" result="effect1_dropShadow_17_3136"/>
<feBlend mode="normal" in="SourceGraphic" in2="effect1_dropShadow_17_3136" result="shape"/>
</filter>
<linearGradient id="paint0_linear_17_3136" x1="176.5" y1="0" x2="176.5" y2="56" gradientUnits="userSpaceOnUse">
<stop stop-color="#EBB000"/>
<stop offset="1" stop-color="#EB5C00"/>
</linearGradient>
</defs>
</svg>
