<svg width="183" height="56" viewBox="0 0 183 56" fill="none" xmlns="http://www.w3.org/2000/svg">
<rect width="183" height="56" rx="8" fill="url(#paint0_linear_18_738)"/>
<rect x="1.05" y="1.05" width="180.9" height="53.9" rx="6.95" stroke="white" stroke-opacity="0.15" stroke-width="2.1"/>
<path d="M23.9268 20.8078C24.1986 20.6289 24.4703 20.45 24.6958 20.2555C24.9212 20.0609 25.1005 19.8505 25.206 19.6472C25.3115 19.4438 25.3433 19.2473 25.325 19.036C25.3067 18.8248 25.238 18.5989 25.1451 18.3235C25.0522 18.0482 24.9349 17.7235 24.8834 17.4208C24.8319 17.1181 24.8463 16.8376 24.882 16.6296C24.9177 16.4215 24.9747 16.2861 25.0243 16.1537C25.0739 16.0213 25.116 15.8918 25.2186 15.6904C25.3212 15.489 25.4842 15.2158 25.6474 14.9425" stroke="white" stroke-width="1.5" stroke-linecap="round"/>
<path d="M36.1226 20.5057C36.3944 20.3268 36.6661 20.1479 36.8916 19.9534C37.117 19.7588 37.2963 19.5484 37.4018 19.3451C37.5073 19.1417 37.5391 18.9452 37.5208 18.734C37.5025 18.5227 37.4338 18.2968 37.3409 18.0215C37.248 17.7461 37.1307 17.4214 37.0792 17.1187C37.0277 16.816 37.0421 16.5355 37.0778 16.3275C37.1135 16.1194 37.1705 15.984 37.2201 15.8516C37.2697 15.7192 37.3118 15.5897 37.4144 15.3883C37.517 15.1869 37.68 14.9137 37.8432 14.6404" stroke="white" stroke-width="1.5" stroke-linecap="round"/>
<path d="M30.2893 19.2935C30.5611 19.1146 30.8329 18.9357 31.0583 18.7411C31.2838 18.5466 31.463 18.3362 31.5685 18.1329C31.6741 17.9295 31.7058 17.7329 31.6875 17.5217C31.6692 17.3105 31.6006 17.0846 31.5076 16.8092C31.4147 16.5339 31.2975 16.2092 31.246 15.9065C31.1944 15.6038 31.2088 15.3233 31.2445 15.1153C31.2802 14.9072 31.3373 14.7718 31.3868 14.6394C31.4364 14.5069 31.4785 14.3774 31.5811 14.176C31.6837 13.9746 31.8468 13.7015 32.0099 13.4282" stroke="white" stroke-width="1.5" stroke-linecap="round"/>
<path d="M47.8734 39.4322C47.5475 39.4339 26.6648 39.5444 21.2619 39.5233C15.8591 39.5021 15.8211 39.4024 15.821 39.5543C15.821 39.7063 15.8589 40.1099 16.0082 40.497C16.1574 40.8841 16.4176 41.2545 16.752 41.5847C17.0864 41.9149 17.4804 42.1947 17.7732 42.356C18.066 42.5174 18.2503 42.5554 22.8317 42.5696C27.4131 42.5838 36.3913 42.5743 40.9238 42.5505C45.4562 42.5267 45.543 42.4887 45.7978 42.3748C46.0526 42.2608 46.4755 42.0708 46.8766 41.7432C47.2777 41.4156 47.6572 40.9502 47.8687 40.5941C48.0801 40.2381 48.1108 40.0635 48.1458 39.8363C48.1809 39.6092 48.1886 39.5349 48.1994 39.4305C48.1994 39.4305 48.1994 39.4305 47.8734 39.4322Z" stroke="white" stroke-width="1.4" stroke-linecap="round" stroke-linejoin="round"/>
<path d="M43.6725 26.7325C43.5856 26.1198 43.4985 25.5066 43.3207 25.1406C43.1429 24.7745 42.8739 24.6559 42.6923 24.5962C42.5106 24.5365 42.4164 24.5361 38.5706 24.5526C34.7248 24.5692 27.1277 24.6028 23.2996 24.6201C19.4715 24.6375 19.4124 24.6387 19.3413 24.6452C19.2702 24.6517 19.1872 24.6635 19.0703 24.7248C18.9535 24.7862 18.8032 24.8969 18.6797 25.0629C18.5563 25.2288 18.4628 25.4431 18.4144 25.978C18.366 26.513 18.3641 27.365 18.38 27.9869C18.3958 28.6088 18.4294 29.0004 18.557 29.651C18.6846 30.3017 18.9061 31.2112 19.2107 32.121C19.5154 33.0307 19.903 33.9405 20.5578 34.9143C21.2126 35.8881 22.1343 36.9258 22.9947 37.6958C23.8552 38.4658 24.6543 38.9682 25.0696 39.2192C25.4849 39.4703 25.5166 39.4703 27.3844 39.4644C29.2523 39.4584 32.9562 39.4466 34.8239 39.4346C36.6916 39.4227 36.7233 39.4109 37.1246 39.1254C37.5259 38.8399 38.2969 38.2808 39.0266 37.6651C39.7563 37.0493 40.4446 36.3768 41.0735 35.5303C41.7025 34.6838 42.2721 33.6632 42.6846 32.7063C43.097 31.7493 43.3481 30.8705 43.4865 29.8896C43.6249 28.9086 43.6488 27.8168 43.6844 27.2509C43.72 26.685 43.7675 26.6375 44.0248 26.627C44.2822 26.6165 44.7489 26.6428 45.2118 26.7154C45.6747 26.788 46.1335 26.9067 46.4816 27.1165C46.8297 27.3263 47.067 27.6269 47.2646 27.909C47.4622 28.1911 47.62 28.4545 47.7352 28.8435C47.8504 29.2326 47.9231 29.7473 47.9399 30.2591C47.9566 30.771 47.9174 31.2801 47.8055 31.7331C47.6936 32.1862 47.509 32.5834 47.2209 32.9945C46.9328 33.4056 46.5412 33.8308 46.1049 34.2083C45.6686 34.5859 45.1875 34.916 44.6197 35.2209C44.0519 35.5258 43.3974 35.8055 42.6953 35.9957C41.9933 36.1859 41.2437 36.2866 40.4937 36.3874" stroke="white" stroke-width="1.4" stroke-linecap="round"/>
<g filter="url(#filter0_d_18_738)">
<path d="M61.2784 24.5V12.8636H65.4261C66.3314 12.8636 67.0814 13.0284 67.6761 13.358C68.2708 13.6875 68.7159 14.1383 69.0114 14.7102C69.3068 15.2784 69.4545 15.9186 69.4545 16.6307C69.4545 17.3466 69.3049 17.9905 69.0057 18.5625C68.7102 19.1307 68.2633 19.5814 67.6648 19.9148C67.0701 20.2443 66.322 20.4091 65.4205 20.4091H62.5682V18.9205H65.2614C65.8333 18.9205 66.2973 18.822 66.6534 18.625C67.0095 18.4242 67.2708 18.1515 67.4375 17.8068C67.6042 17.4621 67.6875 17.0701 67.6875 16.6307C67.6875 16.1913 67.6042 15.8011 67.4375 15.4602C67.2708 15.1193 67.0076 14.8523 66.6477 14.6591C66.2917 14.4659 65.822 14.3693 65.2386 14.3693H63.0341V24.5H61.2784ZM73.8381 24.6932C73.285 24.6932 72.785 24.5909 72.3381 24.3864C71.8911 24.178 71.5369 23.8769 71.2756 23.483C71.018 23.089 70.8892 22.6061 70.8892 22.0341C70.8892 21.5417 70.9839 21.1364 71.1733 20.8182C71.3627 20.5 71.6184 20.2481 71.9403 20.0625C72.2623 19.8769 72.6222 19.7367 73.0199 19.642C73.4176 19.5473 73.8229 19.4754 74.2358 19.4261C74.7585 19.3655 75.1828 19.3163 75.5085 19.2784C75.8343 19.2367 76.071 19.1705 76.2187 19.0795C76.3665 18.9886 76.4403 18.8409 76.4403 18.6364V18.5966C76.4403 18.1004 76.3002 17.7159 76.0199 17.4432C75.7434 17.1705 75.3305 17.0341 74.7812 17.0341C74.2093 17.0341 73.7585 17.161 73.429 17.4148C73.1032 17.6648 72.8778 17.9432 72.7528 18.25L71.1562 17.8864C71.3456 17.3561 71.6222 16.928 71.9858 16.6023C72.3532 16.2727 72.7756 16.0341 73.2528 15.8864C73.7301 15.7348 74.232 15.6591 74.7585 15.6591C75.107 15.6591 75.4763 15.7008 75.8665 15.7841C76.2604 15.8636 76.6278 16.0114 76.9687 16.2273C77.3134 16.4432 77.5956 16.7519 77.8153 17.1534C78.035 17.5511 78.1449 18.0682 78.1449 18.7045V24.5H76.4858V23.3068H76.4176C76.3078 23.5265 76.143 23.7424 75.9233 23.9545C75.7036 24.1667 75.4214 24.3428 75.0767 24.483C74.732 24.6231 74.3191 24.6932 73.8381 24.6932ZM74.2074 23.3295C74.6771 23.3295 75.0786 23.2367 75.4119 23.0511C75.749 22.8655 76.0047 22.6231 76.179 22.3239C76.357 22.0208 76.446 21.697 76.446 21.3523V20.2273C76.3854 20.2879 76.268 20.3447 76.0937 20.3977C75.9233 20.447 75.7282 20.4905 75.5085 20.5284C75.2888 20.5625 75.0748 20.5947 74.8665 20.625C74.6581 20.6515 74.4839 20.6742 74.3437 20.6932C74.0142 20.7348 73.7131 20.8049 73.4403 20.9034C73.1714 21.0019 72.9555 21.1439 72.7926 21.3295C72.6335 21.5114 72.554 21.7538 72.554 22.0568C72.554 22.4773 72.7093 22.7955 73.0199 23.0114C73.3305 23.2235 73.7263 23.3295 74.2074 23.3295ZM80.4077 24.5V15.7727H82.0497V17.1591H82.1406C82.2997 16.6894 82.58 16.3201 82.9815 16.0511C83.3868 15.7784 83.8452 15.642 84.3565 15.642C84.4626 15.642 84.5876 15.6458 84.7315 15.6534C84.8793 15.661 84.9948 15.6705 85.0781 15.6818V17.3068C85.0099 17.2879 84.8887 17.267 84.7145 17.2443C84.5402 17.2178 84.366 17.2045 84.1918 17.2045C83.7902 17.2045 83.4323 17.2898 83.1179 17.4602C82.8073 17.6269 82.5611 17.8598 82.3793 18.1591C82.1974 18.4545 82.1065 18.7917 82.1065 19.1705V24.5H80.4077ZM91.1378 15.7727V17.1364H86.3707V15.7727H91.1378ZM87.6491 13.6818H89.348V21.9375C89.348 22.267 89.3972 22.5152 89.4957 22.6818C89.5942 22.8447 89.7211 22.9564 89.8764 23.017C90.0355 23.0739 90.2079 23.1023 90.3935 23.1023C90.5298 23.1023 90.6491 23.0928 90.7514 23.0739C90.8537 23.0549 90.9332 23.0398 90.99 23.0284L91.2969 24.4318C91.1984 24.4697 91.0582 24.5076 90.8764 24.5455C90.6946 24.5871 90.4673 24.6098 90.1946 24.6136C89.7476 24.6212 89.331 24.5417 88.9446 24.375C88.5582 24.2083 88.2457 23.9508 88.0071 23.6023C87.7685 23.2538 87.6491 22.8163 87.6491 22.2898V13.6818ZM93.017 24.5V15.7727H94.7159V24.5H93.017ZM93.875 14.4261C93.5795 14.4261 93.3257 14.3277 93.1136 14.1307C92.9053 13.9299 92.8011 13.6913 92.8011 13.4148C92.8011 13.1345 92.9053 12.8958 93.1136 12.6989C93.3257 12.4981 93.5795 12.3977 93.875 12.3977C94.1704 12.3977 94.4223 12.4981 94.6307 12.6989C94.8428 12.8958 94.9489 13.1345 94.9489 13.4148C94.9489 13.6913 94.8428 13.9299 94.6307 14.1307C94.4223 14.3277 94.1704 14.4261 93.875 14.4261ZM100.678 24.6761C99.8328 24.6761 99.1056 24.4848 98.4957 24.1023C97.8897 23.7159 97.4238 23.1837 97.098 22.5057C96.7722 21.8277 96.6094 21.0511 96.6094 20.1761C96.6094 19.2898 96.776 18.5076 97.1094 17.8295C97.4427 17.1477 97.9124 16.6155 98.5185 16.233C99.1245 15.8504 99.8385 15.6591 100.66 15.6591C101.323 15.6591 101.914 15.7822 102.433 16.0284C102.952 16.2708 103.371 16.6117 103.689 17.0511C104.011 17.4905 104.202 18.0038 104.263 18.5909H102.609C102.518 18.1818 102.31 17.8295 101.984 17.5341C101.662 17.2386 101.231 17.0909 100.689 17.0909C100.215 17.0909 99.8007 17.2159 99.4446 17.4659C99.0923 17.7121 98.8177 18.0644 98.6207 18.5227C98.4238 18.9773 98.3253 19.5152 98.3253 20.1364C98.3253 20.7727 98.4219 21.322 98.615 21.7841C98.8082 22.2462 99.081 22.6042 99.4332 22.858C99.7893 23.1117 100.208 23.2386 100.689 23.2386C101.011 23.2386 101.303 23.1799 101.564 23.0625C101.829 22.9413 102.051 22.7689 102.229 22.5455C102.41 22.322 102.537 22.053 102.609 21.7386H104.263C104.202 22.303 104.018 22.8068 103.712 23.25C103.405 23.6932 102.994 24.0417 102.479 24.2955C101.967 24.5492 101.367 24.6761 100.678 24.6761ZM106.08 24.5V15.7727H107.778V24.5H106.08ZM106.937 14.4261C106.642 14.4261 106.388 14.3277 106.176 14.1307C105.968 13.9299 105.864 13.6913 105.864 13.4148C105.864 13.1345 105.968 12.8958 106.176 12.6989C106.388 12.4981 106.642 12.3977 106.937 12.3977C107.233 12.3977 107.485 12.4981 107.693 12.6989C107.905 12.8958 108.011 13.1345 108.011 13.4148C108.011 13.6913 107.905 13.9299 107.693 14.1307C107.485 14.3277 107.233 14.4261 106.937 14.4261ZM110.064 27.7727V15.7727H111.723V17.1875H111.865C111.964 17.0057 112.106 16.7955 112.291 16.5568C112.477 16.3182 112.734 16.1098 113.064 15.9318C113.393 15.75 113.829 15.6591 114.371 15.6591C115.075 15.6591 115.704 15.8371 116.257 16.1932C116.81 16.5492 117.244 17.0625 117.558 17.733C117.876 18.4034 118.035 19.2102 118.035 20.1534C118.035 21.0966 117.878 21.9053 117.564 22.5795C117.25 23.25 116.818 23.767 116.268 24.1307C115.719 24.4905 115.092 24.6705 114.388 24.6705C113.857 24.6705 113.424 24.5814 113.087 24.4034C112.753 24.2254 112.492 24.017 112.303 23.7784C112.113 23.5398 111.967 23.3277 111.865 23.142H111.763V27.7727H110.064ZM111.729 20.1364C111.729 20.75 111.818 21.2879 111.996 21.75C112.174 22.2121 112.431 22.5739 112.768 22.8352C113.106 23.0928 113.518 23.2216 114.007 23.2216C114.515 23.2216 114.939 23.0871 115.28 22.8182C115.621 22.5455 115.878 22.1761 116.053 21.7102C116.231 21.2443 116.32 20.7197 116.32 20.1364C116.32 19.5606 116.232 19.0436 116.058 18.5852C115.888 18.1269 115.63 17.7652 115.285 17.5C114.945 17.2348 114.518 17.1023 114.007 17.1023C113.515 17.1023 113.098 17.2292 112.757 17.483C112.42 17.7367 112.164 18.0909 111.99 18.5455C111.816 19 111.729 19.5303 111.729 20.1364ZM122.479 24.6932C121.926 24.6932 121.426 24.5909 120.979 24.3864C120.532 24.178 120.178 23.8769 119.916 23.483C119.659 23.089 119.53 22.6061 119.53 22.0341C119.53 21.5417 119.625 21.1364 119.814 20.8182C120.003 20.5 120.259 20.2481 120.581 20.0625C120.903 19.8769 121.263 19.7367 121.66 19.642C122.058 19.5473 122.464 19.4754 122.876 19.4261C123.399 19.3655 123.823 19.3163 124.149 19.2784C124.475 19.2367 124.712 19.1705 124.859 19.0795C125.007 18.9886 125.081 18.8409 125.081 18.6364V18.5966C125.081 18.1004 124.941 17.7159 124.66 17.4432C124.384 17.1705 123.971 17.0341 123.422 17.0341C122.85 17.0341 122.399 17.161 122.07 17.4148C121.744 17.6648 121.518 17.9432 121.393 18.25L119.797 17.8864C119.986 17.3561 120.263 16.928 120.626 16.6023C120.994 16.2727 121.416 16.0341 121.893 15.8864C122.371 15.7348 122.873 15.6591 123.399 15.6591C123.748 15.6591 124.117 15.7008 124.507 15.7841C124.901 15.8636 125.268 16.0114 125.609 16.2273C125.954 16.4432 126.236 16.7519 126.456 17.1534C126.676 17.5511 126.785 18.0682 126.785 18.7045V24.5H125.126V23.3068H125.058C124.948 23.5265 124.784 23.7424 124.564 23.9545C124.344 24.1667 124.062 24.3428 123.717 24.483C123.373 24.6231 122.96 24.6932 122.479 24.6932ZM122.848 23.3295C123.318 23.3295 123.719 23.2367 124.053 23.0511C124.39 22.8655 124.645 22.6231 124.82 22.3239C124.998 22.0208 125.087 21.697 125.087 21.3523V20.2273C125.026 20.2879 124.909 20.3447 124.734 20.3977C124.564 20.447 124.369 20.4905 124.149 20.5284C123.929 20.5625 123.715 20.5947 123.507 20.625C123.299 20.6515 123.125 20.6742 122.984 20.6932C122.655 20.7348 122.354 20.8049 122.081 20.9034C121.812 21.0019 121.596 21.1439 121.433 21.3295C121.274 21.5114 121.195 21.7538 121.195 22.0568C121.195 22.4773 121.35 22.7955 121.66 23.0114C121.971 23.2235 122.367 23.3295 122.848 23.3295ZM133.122 15.7727V17.1364H128.355V15.7727H133.122ZM129.634 13.6818H131.332V21.9375C131.332 22.267 131.382 22.5152 131.48 22.6818C131.579 22.8447 131.705 22.9564 131.861 23.017C132.02 23.0739 132.192 23.1023 132.378 23.1023C132.514 23.1023 132.634 23.0928 132.736 23.0739C132.838 23.0549 132.918 23.0398 132.974 23.0284L133.281 24.4318C133.183 24.4697 133.043 24.5076 132.861 24.5455C132.679 24.5871 132.452 24.6098 132.179 24.6136C131.732 24.6212 131.315 24.5417 130.929 24.375C130.543 24.2083 130.23 23.9508 129.991 23.6023C129.753 23.2538 129.634 22.8163 129.634 22.2898V13.6818ZM138.669 24.6761C137.809 24.6761 137.069 24.4924 136.447 24.125C135.83 23.7538 135.353 23.233 135.016 22.5625C134.682 21.8883 134.516 21.0985 134.516 20.1932C134.516 19.2992 134.682 18.5114 135.016 17.8295C135.353 17.1477 135.822 16.6155 136.425 16.233C137.031 15.8504 137.739 15.6591 138.55 15.6591C139.042 15.6591 139.519 15.7405 139.982 15.9034C140.444 16.0663 140.858 16.322 141.226 16.6705C141.593 17.0189 141.883 17.4716 142.095 18.0284C142.307 18.5814 142.413 19.2538 142.413 20.0455V20.6477H135.476V19.375H140.749C140.749 18.928 140.658 18.5322 140.476 18.1875C140.294 17.839 140.038 17.5644 139.709 17.3636C139.383 17.1629 139 17.0625 138.561 17.0625C138.084 17.0625 137.667 17.1799 137.311 17.4148C136.959 17.6458 136.686 17.9489 136.493 18.3239C136.303 18.6951 136.209 19.0985 136.209 19.5341V20.5284C136.209 21.1117 136.311 21.608 136.516 22.017C136.724 22.4261 137.014 22.7386 137.385 22.9545C137.756 23.1667 138.19 23.2727 138.686 23.2727C139.008 23.2727 139.302 23.2273 139.567 23.1364C139.832 23.0417 140.061 22.9015 140.254 22.7159C140.447 22.5303 140.595 22.3011 140.697 22.0284L142.305 22.3182C142.177 22.7917 141.946 23.2064 141.612 23.5625C141.283 23.9148 140.868 24.1894 140.368 24.3864C139.872 24.5795 139.305 24.6761 138.669 24.6761ZM147.565 24.6705C146.861 24.6705 146.232 24.4905 145.679 24.1307C145.13 23.767 144.698 23.25 144.383 22.5795C144.073 21.9053 143.918 21.0966 143.918 20.1534C143.918 19.2102 144.075 18.4034 144.389 17.733C144.707 17.0625 145.143 16.5492 145.696 16.1932C146.249 15.8371 146.876 15.6591 147.577 15.6591C148.118 15.6591 148.554 15.75 148.883 15.9318C149.217 16.1098 149.474 16.3182 149.656 16.5568C149.842 16.7955 149.986 17.0057 150.088 17.1875H150.19V12.8636H151.889V24.5H150.23V23.142H150.088C149.986 23.3277 149.838 23.5398 149.645 23.7784C149.455 24.017 149.194 24.2254 148.861 24.4034C148.527 24.5814 148.096 24.6705 147.565 24.6705ZM147.94 23.2216C148.429 23.2216 148.842 23.0928 149.179 22.8352C149.52 22.5739 149.777 22.2121 149.952 21.75C150.13 21.2879 150.219 20.75 150.219 20.1364C150.219 19.5303 150.132 19 149.957 18.5455C149.783 18.0909 149.527 17.7367 149.19 17.483C148.853 17.2292 148.437 17.1023 147.94 17.1023C147.429 17.1023 147.003 17.2348 146.662 17.5C146.321 17.7652 146.063 18.1269 145.889 18.5852C145.719 19.0436 145.633 19.5606 145.633 20.1364C145.633 20.7197 145.721 21.2443 145.895 21.7102C146.069 22.1761 146.327 22.5455 146.668 22.8182C147.012 23.0871 147.437 23.2216 147.94 23.2216ZM158.548 24.5V15.7727H160.247V24.5H158.548ZM159.406 14.4261C159.111 14.4261 158.857 14.3277 158.645 14.1307C158.437 13.9299 158.332 13.6913 158.332 13.4148C158.332 13.1345 158.437 12.8958 158.645 12.6989C158.857 12.4981 159.111 12.3977 159.406 12.3977C159.702 12.3977 159.954 12.4981 160.162 12.6989C160.374 12.8958 160.48 13.1345 160.48 13.4148C160.48 13.6913 160.374 13.9299 160.162 14.1307C159.954 14.3277 159.702 14.4261 159.406 14.4261ZM164.232 19.3182V24.5H162.533V15.7727H164.163V17.1932H164.271C164.472 16.7311 164.786 16.3598 165.214 16.0795C165.646 15.7992 166.19 15.6591 166.845 15.6591C167.44 15.6591 167.961 15.7841 168.408 16.0341C168.855 16.2803 169.201 16.6477 169.447 17.1364C169.694 17.625 169.817 18.2292 169.817 18.9489V24.5H168.118V19.1534C168.118 18.5208 167.953 18.0265 167.624 17.6705C167.294 17.3106 166.841 17.1307 166.266 17.1307C165.872 17.1307 165.521 17.2159 165.214 17.3864C164.911 17.5568 164.671 17.8068 164.493 18.1364C164.319 18.4621 164.232 18.8561 164.232 19.3182Z" fill="white"/>
<path d="M63.91 44.5V34.368H60.493V31.835H70.387V34.368H66.953V44.5H63.91ZM74.8405 44.738C73.9111 44.738 73.0725 44.5397 72.3245 44.143C71.5878 43.735 70.9985 43.1513 70.5565 42.392C70.1258 41.6327 69.9105 40.7203 69.9105 39.655C69.9105 38.873 70.0351 38.1703 70.2845 37.547C70.5451 36.9237 70.8908 36.391 71.3215 35.949C71.7635 35.507 72.2565 35.1727 72.8005 34.946C73.3558 34.708 73.9225 34.589 74.5005 34.589C75.4298 34.589 76.2005 34.793 76.8125 35.201C77.4245 35.609 77.8835 36.1643 78.1895 36.867C78.4955 37.5697 78.6485 38.363 78.6485 39.247C78.6485 39.519 78.6315 39.774 78.5975 40.012C78.5748 40.25 78.5465 40.4313 78.5125 40.556H72.8345C72.9251 40.998 73.0838 41.355 73.3105 41.627C73.5371 41.899 73.8148 42.103 74.1435 42.239C74.4721 42.3637 74.8405 42.426 75.2485 42.426C75.5998 42.426 75.9398 42.375 76.2685 42.273C76.5971 42.171 76.9371 42.018 77.2885 41.814L78.2915 43.633C77.7928 43.9843 77.2318 44.2563 76.6085 44.449C75.9965 44.6417 75.4071 44.738 74.8405 44.738ZM72.7835 38.567H76.0815C76.0815 38.091 75.9625 37.6943 75.7245 37.377C75.4978 37.0597 75.1068 36.901 74.5515 36.901C74.2795 36.901 74.0188 36.9633 73.7695 37.088C73.5315 37.2013 73.3218 37.3827 73.1405 37.632C72.9705 37.87 72.8515 38.1817 72.7835 38.567ZM82.6808 44.738C82.0914 44.738 81.5814 44.6077 81.1508 44.347C80.7201 44.075 80.3858 43.718 80.1478 43.276C79.9211 42.8227 79.8078 42.3297 79.8078 41.797C79.8078 40.777 80.2328 39.9837 81.0828 39.417C81.9328 38.839 83.2984 38.448 85.1798 38.244C85.1571 37.9833 85.0948 37.7623 84.9928 37.581C84.8908 37.3883 84.7321 37.2467 84.5168 37.156C84.3128 37.054 84.0464 37.003 83.7178 37.003C83.3324 37.003 82.9358 37.0767 82.5278 37.224C82.1198 37.3713 81.6721 37.581 81.1848 37.853L80.1308 35.864C80.5614 35.6033 80.9978 35.3823 81.4398 35.201C81.8931 35.0083 82.3578 34.861 82.8338 34.759C83.3098 34.6457 83.7971 34.589 84.2958 34.589C85.1344 34.589 85.8428 34.7477 86.4208 35.065C86.9988 35.3823 87.4408 35.8697 87.7468 36.527C88.0528 37.173 88.2058 38.0003 88.2058 39.009V44.5H85.7408L85.5368 43.531H85.4518C85.0551 43.8823 84.6244 44.1713 84.1598 44.398C83.7064 44.6247 83.2134 44.738 82.6808 44.738ZM83.7178 42.392C84.0238 42.392 84.2901 42.324 84.5168 42.188C84.7434 42.052 84.9644 41.865 85.1798 41.627V40.08C84.5564 40.1593 84.0578 40.2727 83.6838 40.42C83.3211 40.5673 83.0604 40.7373 82.9018 40.93C82.7544 41.1227 82.6808 41.3323 82.6808 41.559C82.6808 41.8423 82.7714 42.052 82.9528 42.188C83.1454 42.324 83.4004 42.392 83.7178 42.392ZM96.1353 44.738C95.3307 44.738 94.5713 44.602 93.8573 44.33C93.1433 44.058 92.5087 43.65 91.9533 43.106C91.4094 42.5507 90.9787 41.8707 90.6614 41.066C90.3554 40.25 90.2024 39.3093 90.2024 38.244C90.2024 37.19 90.361 36.255 90.6784 35.439C91.007 34.6117 91.449 33.9147 92.0043 33.348C92.571 32.7813 93.217 32.3507 93.9423 32.056C94.6677 31.7613 95.4327 31.614 96.2373 31.614C97.0647 31.614 97.8013 31.7783 98.4473 32.107C99.1047 32.4357 99.6487 32.821 100.079 33.263L98.4983 35.201C98.181 34.9063 97.8467 34.6683 97.4953 34.487C97.144 34.3057 96.7417 34.215 96.2883 34.215C95.7443 34.215 95.2457 34.3737 94.7923 34.691C94.339 34.997 93.9763 35.4447 93.7043 36.034C93.4437 36.612 93.3133 37.3147 93.3133 38.142C93.3133 38.9807 93.4323 39.7003 93.6703 40.301C93.9197 40.8903 94.2653 41.3437 94.7073 41.661C95.1493 41.967 95.665 42.12 96.2543 42.12C96.7643 42.12 97.2177 42.0067 97.6143 41.78C98.0223 41.5533 98.3737 41.2813 98.6683 40.964L100.266 42.868C99.7337 43.4913 99.116 43.9617 98.4133 44.279C97.722 44.585 96.9627 44.738 96.1353 44.738ZM106.08 44.738C105.264 44.738 104.494 44.5397 103.768 44.143C103.043 43.735 102.454 43.1513 102 42.392C101.558 41.6327 101.337 40.7203 101.337 39.655C101.337 38.5897 101.558 37.683 102 36.935C102.454 36.1757 103.043 35.5977 103.768 35.201C104.494 34.793 105.264 34.589 106.08 34.589C106.692 34.589 107.282 34.7023 107.848 34.929C108.415 35.1557 108.919 35.49 109.361 35.932C109.803 36.3627 110.155 36.8897 110.415 37.513C110.676 38.1363 110.806 38.8503 110.806 39.655C110.806 40.7203 110.58 41.6327 110.126 42.392C109.684 43.1513 109.101 43.735 108.375 44.143C107.661 44.5397 106.896 44.738 106.08 44.738ZM106.08 42.29C106.454 42.29 106.76 42.1823 106.998 41.967C107.248 41.7517 107.429 41.4457 107.542 41.049C107.656 40.6523 107.712 40.1877 107.712 39.655C107.712 39.1223 107.656 38.6633 107.542 38.278C107.429 37.8813 107.248 37.5753 106.998 37.36C106.76 37.1447 106.454 37.037 106.08 37.037C105.706 37.037 105.395 37.1447 105.145 37.36C104.907 37.5753 104.726 37.8813 104.601 38.278C104.488 38.6633 104.431 39.1223 104.431 39.655C104.431 40.1877 104.488 40.6523 104.601 41.049C104.726 41.4457 104.907 41.7517 105.145 41.967C105.395 42.1823 105.706 42.29 106.08 42.29ZM112.705 44.5V34.827H115.17L115.391 36.034H115.442C115.839 35.6373 116.287 35.2973 116.785 35.014C117.295 34.7307 117.879 34.589 118.536 34.589C119.59 34.589 120.355 34.9403 120.831 35.643C121.307 36.3457 121.545 37.3033 121.545 38.516V44.5H118.519V38.89C118.519 38.2213 118.429 37.768 118.247 37.53C118.066 37.292 117.783 37.173 117.397 37.173C117.057 37.173 116.768 37.2467 116.53 37.394C116.292 37.5413 116.026 37.7567 115.731 38.04V44.5H112.705ZM127.27 44.5V42.766C128.29 41.814 129.196 40.9413 129.99 40.148C130.794 39.3433 131.423 38.6067 131.877 37.938C132.33 37.2693 132.557 36.646 132.557 36.068C132.557 35.6713 132.489 35.3427 132.353 35.082C132.228 34.8213 132.041 34.623 131.792 34.487C131.542 34.351 131.248 34.283 130.908 34.283C130.477 34.283 130.086 34.4133 129.735 34.674C129.395 34.9233 129.072 35.201 128.766 35.507L127.117 33.875C127.74 33.2177 128.369 32.7303 129.004 32.413C129.65 32.0843 130.42 31.92 131.316 31.92C132.132 31.92 132.851 32.0843 133.475 32.413C134.098 32.7417 134.585 33.2063 134.937 33.807C135.288 34.3963 135.464 35.0933 135.464 35.898C135.464 36.578 135.277 37.275 134.903 37.989C134.529 38.6917 134.047 39.3943 133.458 40.097C132.88 40.7883 132.273 41.4627 131.639 42.12C131.956 42.0747 132.307 42.035 132.693 42.001C133.089 41.967 133.429 41.95 133.713 41.95H136.042V44.5H127.27ZM142.1 44.738C141.205 44.738 140.417 44.4943 139.737 44.007C139.068 43.5083 138.547 42.783 138.173 41.831C137.799 40.8677 137.612 39.6833 137.612 38.278C137.612 36.8727 137.799 35.6997 138.173 34.759C138.547 33.8183 139.068 33.11 139.737 32.634C140.417 32.158 141.205 31.92 142.1 31.92C142.995 31.92 143.777 32.158 144.446 32.634C145.115 33.11 145.636 33.8183 146.01 34.759C146.384 35.6997 146.571 36.8727 146.571 38.278C146.571 39.6833 146.384 40.8677 146.01 41.831C145.636 42.783 145.115 43.5083 144.446 44.007C143.777 44.4943 142.995 44.738 142.1 44.738ZM142.1 42.392C142.406 42.392 142.678 42.2843 142.916 42.069C143.165 41.8423 143.358 41.4343 143.494 40.845C143.641 40.2443 143.715 39.3887 143.715 38.278C143.715 37.1673 143.641 36.323 143.494 35.745C143.358 35.167 143.165 34.776 142.916 34.572C142.678 34.368 142.406 34.266 142.1 34.266C141.805 34.266 141.533 34.368 141.284 34.572C141.035 34.776 140.836 35.167 140.689 35.745C140.542 36.323 140.468 37.1673 140.468 38.278C140.468 39.3887 140.542 40.2443 140.689 40.845C140.836 41.4343 141.035 41.8423 141.284 42.069C141.533 42.2843 141.805 42.392 142.1 42.392ZM147.988 44.5V42.766C149.008 41.814 149.915 40.9413 150.708 40.148C151.513 39.3433 152.142 38.6067 152.595 37.938C153.049 37.2693 153.275 36.646 153.275 36.068C153.275 35.6713 153.207 35.3427 153.071 35.082C152.947 34.8213 152.76 34.623 152.51 34.487C152.261 34.351 151.966 34.283 151.626 34.283C151.196 34.283 150.805 34.4133 150.453 34.674C150.113 34.9233 149.79 35.201 149.484 35.507L147.835 33.875C148.459 33.2177 149.088 32.7303 149.722 32.413C150.368 32.0843 151.139 31.92 152.034 31.92C152.85 31.92 153.57 32.0843 154.193 32.413C154.817 32.7417 155.304 33.2063 155.655 33.807C156.007 34.3963 156.182 35.0933 156.182 35.898C156.182 36.578 155.995 37.275 155.621 37.989C155.247 38.6917 154.766 39.3943 154.176 40.097C153.598 40.7883 152.992 41.4627 152.357 42.12C152.675 42.0747 153.026 42.035 153.411 42.001C153.808 41.967 154.148 41.95 154.431 41.95H156.76V44.5H147.988ZM163.142 44.738C162.541 44.738 161.957 44.6247 161.391 44.398C160.835 44.16 160.331 43.7973 159.878 43.31C159.436 42.8113 159.079 42.1767 158.807 41.406C158.546 40.624 158.416 39.6833 158.416 38.584C158.416 37.4393 158.552 36.4533 158.824 35.626C159.096 34.7873 159.47 34.096 159.946 33.552C160.422 32.9967 160.96 32.5887 161.561 32.328C162.161 32.056 162.785 31.92 163.431 31.92C164.269 31.92 164.995 32.073 165.607 32.379C166.23 32.685 166.74 33.0363 167.137 33.433L165.539 35.235C165.335 35.0083 165.057 34.81 164.706 34.64C164.354 34.4587 163.997 34.368 163.635 34.368C163.181 34.368 162.768 34.4983 162.394 34.759C162.02 35.0197 161.719 35.456 161.493 36.068C161.277 36.68 161.17 37.5187 161.17 38.584C161.17 39.604 161.26 40.3973 161.442 40.964C161.634 41.5307 161.872 41.9273 162.156 42.154C162.45 42.3693 162.751 42.477 163.057 42.477C163.329 42.477 163.578 42.4147 163.805 42.29C164.031 42.154 164.213 41.95 164.349 41.678C164.485 41.3947 164.553 41.0263 164.553 40.573C164.553 40.1423 164.479 39.808 164.332 39.57C164.196 39.3207 164.009 39.145 163.771 39.043C163.544 38.941 163.289 38.89 163.006 38.89C162.7 38.89 162.382 38.9863 162.054 39.179C161.736 39.3603 161.447 39.689 161.187 40.165L161.051 38.21C161.266 37.904 161.521 37.6433 161.816 37.428C162.122 37.2127 162.433 37.0483 162.751 36.935C163.068 36.8217 163.351 36.765 163.601 36.765C164.303 36.765 164.932 36.901 165.488 37.173C166.054 37.445 166.496 37.8643 166.814 38.431C167.142 38.9863 167.307 39.7003 167.307 40.573C167.307 41.4343 167.114 42.1767 166.729 42.8C166.355 43.4233 165.85 43.905 165.216 44.245C164.592 44.5737 163.901 44.738 163.142 44.738Z" fill="white"/>
</g>
<defs>
<filter id="filter0_d_18_738" x="54.4" y="3.9" width="122.2" height="48.2" filterUnits="userSpaceOnUse" color-interpolation-filters="sRGB">
<feFlood flood-opacity="0" result="BackgroundImageFix"/>
<feColorMatrix in="SourceAlpha" type="matrix" values="0 0 0 0 0 0 0 0 0 0 0 0 0 0 0 0 0 0 127 0" result="hardAlpha"/>
<feOffset/>
<feGaussianBlur stdDeviation="2.8"/>
<feComposite in2="hardAlpha" operator="out"/>
<feColorMatrix type="matrix" values="0 0 0 0 0 0 0 0 0 0 0 0 0 0 0 0 0 0 0.25 0"/>
<feBlend mode="normal" in2="BackgroundImageFix" result="effect1_dropShadow_18_738"/>
<feBlend mode="normal" in="SourceGraphic" in2="effect1_dropShadow_18_738" result="shape"/>
</filter>
<linearGradient id="paint0_linear_18_738" x1="91.5" y1="0" x2="91.5" y2="56" gradientUnits="userSpaceOnUse">
<stop stop-color="#4888FF"/>
<stop offset="1" stop-color="#0A46B4"/>
</linearGradient>
</defs>
</svg>
