<svg width="337" height="56" viewBox="0 0 337 56" fill="none" xmlns="http://www.w3.org/2000/svg">
<rect width="337" height="56" rx="8" fill="url(#paint0_linear_19_932)"/>
<rect x="1.05" y="1.05" width="334.9" height="53.9" rx="6.95" stroke="white" stroke-opacity="0.15" stroke-width="2.1"/>
<path d="M22.783 8.18349C20.7283 9.10429 19.4707 10.1061 18.8696 11.2997C18.5883 11.8624 18.4305 12.5829 18.439 13.2521C18.4476 13.768 18.4732 13.8532 18.6266 13.8703C18.6948 13.8788 18.7971 13.9214 18.8526 13.9683C19.0657 14.1346 19.6241 14.0323 20.2721 13.704C21.4444 13.1157 22.3993 11.6962 22.9066 9.78636C23.0047 9.41548 23.2519 8.14939 23.2519 8.01297C23.2519 7.97887 23.1837 8.00445 22.783 8.18349Z" fill="white"/>
<path d="M16.1369 9.79914C14.7301 12.4379 14.5511 14.3477 15.5614 16.0529C15.8087 16.4707 16.0985 16.8117 16.2435 16.8458C16.4012 16.8884 16.6186 16.7222 16.9128 16.3257C18.2258 14.5779 18.1959 12.8045 16.8019 10.008C16.6144 9.62862 16.4438 9.31743 16.4268 9.31743C16.4097 9.31743 16.2776 9.53484 16.1369 9.79914Z" fill="white"/>
<path d="M21.7684 13.623C20.9073 13.9 20.4469 14.0876 19.8842 14.3775C18.7204 14.9786 17.8593 15.7587 17.433 16.607C17.1559 17.1569 16.9854 17.8816 16.9854 18.504V18.7726L17.1388 18.7982C17.2198 18.8152 17.3221 18.8664 17.3605 18.9133C17.4884 19.0582 17.7143 19.0923 18.1363 19.0198C18.9378 18.8792 19.4707 18.6063 20.0675 18.0266C20.984 17.1399 21.6618 15.8738 22.1478 14.1686C22.2416 13.8318 22.3268 13.5334 22.3354 13.5036C22.3609 13.4354 22.3652 13.4311 21.7684 13.623Z" fill="white"/>
<path d="M13.1572 15.7417C12.4155 18.3548 12.5221 20.0344 13.5196 21.4966C13.9757 22.1702 14.3892 22.5325 14.6962 22.5325C14.7942 22.5325 14.8454 22.4814 15.0116 22.2213C15.1225 22.0551 15.2887 21.7439 15.3782 21.535C16.1498 19.7488 15.6809 17.9712 13.8308 15.6479C13.5963 15.3537 13.3874 15.115 13.3704 15.115C13.3491 15.115 13.251 15.3964 13.1572 15.7417Z" fill="white"/>
<path d="M18.9251 19.0028C17.7698 19.8298 16.7936 20.7123 16.3119 21.3602C16.0305 21.7396 15.6895 22.4174 15.5787 22.8309C15.3996 23.496 15.3954 24.2718 15.5574 25.0008C15.6213 25.2736 15.6383 25.3035 15.7279 25.3035C15.7876 25.3035 15.8984 25.3333 15.9751 25.3717C16.1073 25.4356 16.1414 25.4356 16.3503 25.3717C16.9556 25.1926 17.7187 24.6086 18.1876 23.9521C19.07 22.7286 19.377 21.4668 19.458 18.7257C19.458 18.649 19.3215 18.7215 18.9251 19.0028Z" fill="white"/>
<path d="M11.1196 21.9656C11.1921 23.351 11.4521 24.5575 11.8869 25.4953C12.2322 26.2371 12.8844 27.0683 13.4258 27.4563C13.9544 27.8357 14.6067 28.0616 14.7047 27.9039C14.7175 27.8783 14.7857 27.8612 14.8539 27.8612C15.0074 27.8612 15.0372 27.8101 15.1353 27.3497C15.2504 26.8168 15.2376 25.8704 15.114 25.41C14.8028 24.2548 13.8948 23.1677 12.3985 22.1574C12.0787 21.9443 11.1494 21.3816 11.1153 21.3816C11.1025 21.3816 11.1025 21.6459 11.1196 21.9656Z" fill="white"/>
<path d="M18.7929 24.0757C18.0213 24.8686 17.5311 25.5081 16.994 26.4118C16.6487 26.9958 16.3929 27.8527 16.3588 28.5518C16.3204 29.3149 16.4654 30.0225 16.8021 30.6918L16.9471 30.9817L17.1986 30.9646C17.3862 30.9518 17.4927 30.9135 17.6292 30.8197C18.3496 30.3252 19.0615 29.3319 19.3429 28.4324C19.6754 27.3752 19.6626 25.9898 19.3002 24.2675C19.2405 23.9691 19.1766 23.7262 19.1638 23.7262C19.1468 23.7262 18.9805 23.8839 18.7929 24.0757Z" fill="white"/>
<path d="M10.4332 27.4946C10.4758 27.6822 11.0598 28.8886 11.2943 29.2723C12.4751 31.2162 13.737 32.1839 15.2205 32.2819C15.6596 32.3117 15.8855 32.2563 15.9878 32.1029C16.0219 32.0474 16.1327 31.9835 16.2478 31.9537L16.4439 31.8982L16.4141 31.6126C16.3544 30.9433 15.9921 30.0822 15.5359 29.5067C14.6706 28.4239 13.3746 27.8527 10.9405 27.4818L10.4119 27.4051L10.4332 27.4946Z" fill="white"/>
<path d="M19.8798 29.3447C17.9743 31.7874 17.5054 33.8336 18.4219 35.6965C18.5072 35.867 18.6308 36.0844 18.6947 36.174C18.8013 36.3189 18.8439 36.3445 18.9718 36.3445C19.1892 36.3445 19.3171 36.2635 19.6795 35.8841C21.018 34.4816 21.342 32.7849 20.7154 30.4232C20.5534 29.8264 20.2678 28.927 20.2337 28.927C20.2166 28.927 20.0589 29.1145 19.8798 29.3447Z" fill="white"/>
<path d="M22.1692 32.7721C20.9755 35.1977 20.788 36.8987 21.5468 38.4546C21.9219 39.2305 22.361 39.7548 22.5827 39.6951C22.7148 39.661 22.9962 39.3712 23.2264 39.0344C24.2878 37.4486 24.322 35.9608 23.35 33.7441C23.1411 33.2666 22.5443 32.1242 22.5059 32.1242C22.4974 32.1242 22.3482 32.4183 22.1692 32.7721Z" fill="white"/>
<path d="M11.3157 32.1796C11.3157 32.1924 11.4265 32.3927 11.5672 32.6229C11.7036 32.8531 11.8954 33.1814 11.9935 33.3519C12.3985 34.051 13.4088 35.1679 14.044 35.6155C14.7857 36.1399 15.4678 36.3829 16.282 36.417C16.9001 36.4425 17.1175 36.3956 17.3051 36.1953C17.3733 36.1143 17.5268 36.012 17.6376 35.9651C17.7485 35.9182 17.838 35.85 17.838 35.8201C17.838 35.6965 17.612 35.0784 17.4543 34.7587C17.0493 33.9444 16.5634 33.4286 15.7832 32.981C15.0713 32.5718 14.4703 32.3842 13.5111 32.2734C12.9399 32.2052 11.3157 32.1327 11.3157 32.1796Z" fill="white"/>
<path d="M25.0253 35.266C24.8846 35.9651 24.8164 36.6898 24.8121 37.5595C24.8079 38.7829 24.9315 39.4693 25.3024 40.2963C25.6008 40.9655 26.2658 41.8011 26.7688 42.1421C26.9393 42.2615 27.0331 42.2913 27.2463 42.3041L27.5106 42.3212L27.6129 42.1165C28.1031 41.1446 28.2395 39.9424 27.9624 39.0089C27.7493 38.2884 27.3869 37.6404 26.7603 36.8561C26.4832 36.5065 25.1446 35.1509 25.0807 35.1509C25.0636 35.1509 25.0381 35.202 25.0253 35.266Z" fill="white"/>
<path d="M15.6212 36.6855C15.3271 36.7282 14.8624 36.8006 14.5811 36.8518C14.304 36.8987 14.0695 36.9413 14.0567 36.9413C14.0482 36.9413 14.1974 37.1204 14.3893 37.3378C14.5811 37.5552 14.79 37.828 14.8539 37.9474C14.9264 38.0795 15.1267 38.2969 15.391 38.5314C17.0408 39.9936 18.5712 40.5179 20.0334 40.13C20.3446 40.049 20.3957 40.0192 20.6089 39.8018C20.7368 39.6696 20.9158 39.5247 21.0054 39.4778C21.2014 39.3755 21.1972 39.3328 20.9457 38.8852C20.3361 37.8067 19.4238 37.0948 18.3069 36.822C17.3776 36.5918 16.5591 36.5534 15.6212 36.6855Z" fill="white"/>
<path d="M28.6233 38.9193C28.6233 39.0216 29.2031 40.4071 29.4119 40.8078C30.5033 42.9052 31.8418 44.0221 33.3381 44.0945L33.7687 44.1116L33.9008 43.9837C33.9776 43.9112 34.1054 43.8387 34.1864 43.8217C34.2674 43.8089 34.3484 43.7791 34.357 43.7577C34.3697 43.7407 34.357 43.5446 34.3314 43.3272C34.2419 42.5812 33.969 41.8437 33.5939 41.3151C33.3594 40.9826 32.818 40.4668 32.4599 40.2323C31.7651 39.7719 30.7121 39.3669 29.4333 39.0685C28.7085 38.9022 28.6233 38.8852 28.6233 38.9193Z" fill="white"/>
<path d="M20.9627 40.2664C20.4512 40.3218 19.978 40.4241 19.394 40.6117C18.7417 40.8206 17.9062 41.1446 17.8934 41.1915C17.8891 41.2085 18.0511 41.3492 18.2515 41.4984C18.4774 41.6689 18.6394 41.8266 18.6692 41.9034C18.7417 42.0782 18.8568 42.1762 19.2703 42.432C20.5066 43.1951 21.7386 43.5872 22.7617 43.5361C23.5674 43.4935 24.4669 43.1609 24.68 42.8242C24.7354 42.7389 24.8974 42.5599 25.0466 42.4277L25.3152 42.1933L25.1361 41.9588C24.5308 41.1574 23.6654 40.5691 22.7787 40.3517C22.361 40.2494 21.4956 40.211 20.9627 40.2664Z" fill="white"/>
<path d="M26.385 42.9051C25.5239 43.0885 24.6585 43.4721 23.7505 44.0775C22.77 44.7339 22.4077 45.0409 22.6166 45.0409C22.6422 45.0409 22.7999 45.1048 22.9747 45.1858C23.2006 45.2881 23.3029 45.3649 23.3413 45.4501C23.4223 45.6164 23.6141 45.7016 24.2962 45.8764C25.7541 46.243 26.8838 46.2345 27.9026 45.8551C28.4312 45.6547 29.0792 45.1773 29.3307 44.7979C29.4202 44.6657 29.595 44.4142 29.7186 44.2352C29.9872 43.8643 30 43.9069 29.497 43.5702C29.0963 43.3016 28.6785 43.1098 28.2181 42.9691C27.698 42.8156 26.9477 42.79 26.385 42.9051Z" fill="white"/>
<path d="M31.6285 44.7169C31.0232 44.8619 30.567 45.0537 29.8423 45.4757C29.2711 45.8082 27.6767 47.0957 27.7492 47.1681C27.7663 47.1809 27.9453 47.2491 28.1457 47.3216C28.4569 47.4282 28.5208 47.4665 28.5293 47.5475C28.5507 47.6925 28.7979 47.7863 29.4331 47.9056C29.885 47.9866 30.1066 48.0037 30.9038 47.9994C31.7862 47.9994 31.8672 47.9909 32.2679 47.8843C33.372 47.5859 34.0456 47.0743 34.6765 46.064C34.8641 45.7613 35.0175 45.497 35.0175 45.48C35.0175 45.3862 34.1181 44.9301 33.6108 44.7638C33.3038 44.6615 33.1589 44.6445 32.6516 44.6317C32.1358 44.6189 31.9951 44.6274 31.6285 44.7169Z" fill="white"/>
<path d="M54.9443 20.8078C55.2162 20.6289 55.4879 20.45 55.7134 20.2554C55.9388 20.0609 56.118 19.8505 56.2236 19.6472C56.3291 19.4438 56.3609 19.2472 56.3426 19.036C56.3242 18.8248 56.2556 18.5989 56.1627 18.3235C56.0698 18.0482 55.9525 17.7235 55.901 17.4208C55.8495 17.1181 55.8639 16.8376 55.8996 16.6295C55.9352 16.4215 55.9923 16.2861 56.0419 16.1537C56.0915 16.0212 56.1335 15.8917 56.2361 15.6903C56.3387 15.4889 56.5018 15.2158 56.665 14.9425" stroke="white" stroke-width="1.5" stroke-linecap="round"/>
<path d="M67.1401 20.5057C67.412 20.3268 67.6837 20.1479 67.9092 19.9534C68.1346 19.7588 68.3138 19.5484 68.4194 19.3451C68.5249 19.1417 68.5567 18.9452 68.5384 18.734C68.52 18.5228 68.4514 18.2968 68.3585 18.0215C68.2656 17.7461 68.1483 17.4214 68.0968 17.1187C68.0453 16.8161 68.0597 16.5355 68.0954 16.3275C68.131 16.1194 68.1881 15.984 68.2377 15.8516C68.2873 15.7192 68.3293 15.5897 68.4319 15.3883C68.5345 15.1869 68.6976 14.9137 68.8608 14.6404" stroke="white" stroke-width="1.5" stroke-linecap="round"/>
<path d="M61.3069 19.2935C61.5787 19.1146 61.8505 18.9357 62.0759 18.7412C62.3014 18.5466 62.4806 18.3362 62.5861 18.1329C62.6916 17.9295 62.7234 17.7329 62.7051 17.5217C62.6868 17.3105 62.6182 17.0846 62.5252 16.8092C62.4323 16.5339 62.3151 16.2092 62.2635 15.9065C62.212 15.6038 62.2264 15.3233 62.2621 15.1153C62.2978 14.9072 62.3548 14.7718 62.4044 14.6394C62.454 14.507 62.4961 14.3775 62.5987 14.1761C62.7013 13.9747 62.8644 13.7015 63.0275 13.4282" stroke="white" stroke-width="1.5" stroke-linecap="round"/>
<path d="M78.891 39.4322C78.565 39.4339 57.6823 39.5444 52.2795 39.5233C46.8766 39.5021 46.8387 39.4024 46.8386 39.5544C46.8386 39.7063 46.8765 40.11 47.0257 40.497C47.175 40.8841 47.4352 41.2545 47.7696 41.5847C48.104 41.9149 48.498 42.1947 48.7908 42.3561C49.0836 42.5174 49.2679 42.5554 53.8493 42.5696C58.4307 42.5838 67.4089 42.5743 71.9414 42.5505C76.4738 42.5267 76.5606 42.4888 76.8154 42.3748C77.0702 42.2608 77.4931 42.0708 77.8942 41.7432C78.2953 41.4156 78.6748 40.9502 78.8862 40.5941C79.0977 40.2381 79.1283 40.0635 79.1634 39.8364C79.1985 39.6092 79.2062 39.535 79.217 39.4305C79.217 39.4305 79.217 39.4305 78.891 39.4322Z" stroke="white" stroke-width="1.4" stroke-linecap="round" stroke-linejoin="round"/>
<path d="M74.6901 26.7325C74.6031 26.1197 74.5161 25.5066 74.3383 25.1405C74.1605 24.7745 73.8915 24.6558 73.7099 24.5962C73.5282 24.5365 73.4339 24.536 69.5881 24.5526C65.7423 24.5692 58.1453 24.6027 54.3172 24.6201C50.489 24.6375 50.43 24.6386 50.3589 24.6451C50.2878 24.6516 50.2047 24.6635 50.0879 24.7248C49.9711 24.7861 49.8207 24.8969 49.6973 25.0628C49.5739 25.2288 49.4804 25.443 49.432 25.978C49.3836 26.5129 49.3817 27.365 49.3976 27.9869C49.4134 28.6088 49.447 29.0004 49.5746 29.651C49.7021 30.3016 49.9237 31.2112 50.2283 32.1209C50.5329 33.0307 50.9206 33.9405 51.5754 34.9143C52.2302 35.888 53.1519 36.9258 54.0123 37.6958C54.8728 38.4658 55.6718 38.9682 56.0872 39.2192C56.5025 39.4703 56.5341 39.4703 58.402 39.4643C60.2698 39.4584 63.9738 39.4465 65.8415 39.4346C67.7092 39.4227 67.7409 39.4108 68.1422 39.1254C68.5435 38.8399 69.3145 38.2808 70.0442 37.665C70.7739 37.0493 71.4622 36.3768 72.0911 35.5303C72.72 34.6838 73.2897 33.6632 73.7021 32.7063C74.1146 31.7493 74.3657 30.8705 74.5041 29.8895C74.6425 28.9085 74.6664 27.8167 74.702 27.2509C74.7376 26.685 74.7851 26.6375 75.0424 26.627C75.2997 26.6164 75.7665 26.6428 76.2294 26.7154C76.6923 26.788 77.1511 26.9066 77.4992 27.1164C77.8472 27.3263 78.0846 27.6269 78.2822 27.909C78.4797 28.191 78.6376 28.4545 78.7528 28.8435C78.868 29.2326 78.9407 29.7472 78.9574 30.2591C78.9742 30.7709 78.935 31.28 78.8231 31.7331C78.7112 32.1861 78.5266 32.5833 78.2385 32.9944C77.9504 33.4056 77.5588 33.8307 77.1225 34.2083C76.6862 34.5859 76.2051 34.916 75.6373 35.2209C75.0695 35.5257 74.415 35.8055 73.7129 35.9957C73.0109 36.1859 72.2613 36.2866 71.5113 36.3874" stroke="white" stroke-width="1.4" stroke-linecap="round"/>
<g filter="url(#filter0_d_19_932)">
<path d="M94.5744 24.5L91.3471 12.8636H93.1937L95.4608 21.875H95.5687L97.9267 12.8636H99.7562L102.114 21.8807H102.222L104.483 12.8636H106.336L103.103 24.5H101.336L98.8869 15.7841H98.796L96.3471 24.5H94.5744ZM107.8 24.5V15.7727H109.499V24.5H107.8ZM108.658 14.4261C108.363 14.4261 108.109 14.3276 107.897 14.1307C107.689 13.9299 107.584 13.6913 107.584 13.4148C107.584 13.1345 107.689 12.8958 107.897 12.6989C108.109 12.4981 108.363 12.3977 108.658 12.3977C108.954 12.3977 109.206 12.4981 109.414 12.6989C109.626 12.8958 109.732 13.1345 109.732 13.4148C109.732 13.6913 109.626 13.9299 109.414 14.1307C109.206 14.3276 108.954 14.4261 108.658 14.4261ZM113.483 19.3182V24.5H111.785V15.7727H113.415V17.1932H113.523C113.724 16.7311 114.038 16.3598 114.466 16.0795C114.898 15.7992 115.442 15.6591 116.097 15.6591C116.692 15.6591 117.213 15.7841 117.66 16.0341C118.107 16.2803 118.453 16.6477 118.699 17.1364C118.946 17.625 119.069 18.2292 119.069 18.9489V24.5H117.37V19.1534C117.37 18.5208 117.205 18.0265 116.876 17.6705C116.546 17.3106 116.093 17.1307 115.518 17.1307C115.124 17.1307 114.773 17.2159 114.466 17.3864C114.163 17.5568 113.923 17.8068 113.745 18.1364C113.571 18.4621 113.483 18.8561 113.483 19.3182ZM123.046 19.3182V24.5H121.347V15.7727H122.978V17.1932H123.086C123.287 16.7311 123.601 16.3598 124.029 16.0795C124.461 15.7992 125.004 15.6591 125.66 15.6591C126.254 15.6591 126.775 15.7841 127.222 16.0341C127.669 16.2803 128.016 16.6477 128.262 17.1364C128.508 17.625 128.631 18.2292 128.631 18.9489V24.5H126.932V19.1534C126.932 18.5208 126.768 18.0265 126.438 17.6705C126.108 17.3106 125.656 17.1307 125.08 17.1307C124.686 17.1307 124.336 17.2159 124.029 17.3864C123.726 17.5568 123.485 17.8068 123.307 18.1364C123.133 18.4621 123.046 18.8561 123.046 19.3182ZM134.671 24.6761C133.811 24.6761 133.071 24.4924 132.449 24.125C131.832 23.7538 131.355 23.233 131.018 22.5625C130.684 21.8883 130.518 21.0985 130.518 20.1932C130.518 19.2992 130.684 18.5114 131.018 17.8295C131.355 17.1477 131.824 16.6155 132.427 16.233C133.033 15.8504 133.741 15.6591 134.552 15.6591C135.044 15.6591 135.521 15.7405 135.983 15.9034C136.446 16.0663 136.86 16.322 137.228 16.6705C137.595 17.0189 137.885 17.4716 138.097 18.0284C138.309 18.5814 138.415 19.2538 138.415 20.0455V20.6477H131.478V19.375H136.751C136.751 18.928 136.66 18.5322 136.478 18.1875C136.296 17.839 136.04 17.5644 135.711 17.3636C135.385 17.1629 135.002 17.0625 134.563 17.0625C134.086 17.0625 133.669 17.1799 133.313 17.4148C132.961 17.6458 132.688 17.9489 132.495 18.3239C132.305 18.6951 132.211 19.0985 132.211 19.5341V20.5284C132.211 21.1117 132.313 21.608 132.518 22.017C132.726 22.4261 133.016 22.7386 133.387 22.9545C133.758 23.1667 134.192 23.2727 134.688 23.2727C135.01 23.2727 135.304 23.2273 135.569 23.1364C135.834 23.0417 136.063 22.9015 136.256 22.7159C136.449 22.5303 136.597 22.3011 136.699 22.0284L138.307 22.3182C138.179 22.7917 137.947 23.2064 137.614 23.5625C137.285 23.9148 136.87 24.1894 136.37 24.3864C135.874 24.5795 135.307 24.6761 134.671 24.6761ZM140.3 24.5V15.7727H141.942V17.1591H142.033C142.192 16.6894 142.473 16.3201 142.874 16.0511C143.279 15.7784 143.738 15.642 144.249 15.642C144.355 15.642 144.48 15.6458 144.624 15.6534C144.772 15.661 144.887 15.6705 144.971 15.6818V17.3068C144.903 17.2879 144.781 17.267 144.607 17.2443C144.433 17.2178 144.259 17.2045 144.084 17.2045C143.683 17.2045 143.325 17.2898 143.01 17.4602C142.7 17.6269 142.454 17.8598 142.272 18.1591C142.09 18.4545 141.999 18.7917 141.999 19.1705V24.5H140.3ZM154.351 24.6761C153.533 24.6761 152.819 24.4886 152.209 24.1136C151.599 23.7386 151.126 23.214 150.789 22.5398C150.452 21.8655 150.283 21.0776 150.283 20.1761C150.283 19.2708 150.452 18.4792 150.789 17.8011C151.126 17.1231 151.599 16.5966 152.209 16.2216C152.819 15.8466 153.533 15.6591 154.351 15.6591C155.17 15.6591 155.884 15.8466 156.493 16.2216C157.103 16.5966 157.577 17.1231 157.914 17.8011C158.251 18.4792 158.42 19.2708 158.42 20.1761C158.42 21.0776 158.251 21.8655 157.914 22.5398C157.577 23.214 157.103 23.7386 156.493 24.1136C155.884 24.4886 155.17 24.6761 154.351 24.6761ZM154.357 23.25C154.887 23.25 155.327 23.1098 155.675 22.8295C156.024 22.5492 156.281 22.1761 156.448 21.7102C156.618 21.2443 156.704 20.7311 156.704 20.1705C156.704 19.6136 156.618 19.1023 156.448 18.6364C156.281 18.1667 156.024 17.7898 155.675 17.5057C155.327 17.2216 154.887 17.0795 154.357 17.0795C153.823 17.0795 153.38 17.2216 153.028 17.5057C152.679 17.7898 152.42 18.1667 152.249 18.6364C152.082 19.1023 151.999 19.6136 151.999 20.1705C151.999 20.7311 152.082 21.2443 152.249 21.7102C152.42 22.1761 152.679 22.5492 153.028 22.8295C153.38 23.1098 153.823 23.25 154.357 23.25ZM164.469 15.7727V17.1364H159.537V15.7727H164.469ZM160.89 24.5V14.7614C160.89 14.2159 161.009 13.7633 161.248 13.4034C161.486 13.0398 161.803 12.7689 162.197 12.5909C162.59 12.4091 163.019 12.3182 163.481 12.3182C163.822 12.3182 164.113 12.3466 164.356 12.4034C164.598 12.4564 164.778 12.5057 164.895 12.5511L164.498 13.9261C164.418 13.9034 164.316 13.8769 164.191 13.8466C164.066 13.8125 163.914 13.7955 163.736 13.7955C163.323 13.7955 163.028 13.8977 162.85 14.1023C162.676 14.3068 162.589 14.6023 162.589 14.9886V24.5H160.89Z" fill="white"/>
<path d="M94.9276 44.5V34.368H91.5106V31.835H101.405V34.368H97.9706V44.5H94.9276ZM105.858 44.738C104.929 44.738 104.09 44.5397 103.342 44.143C102.605 43.735 102.016 43.1513 101.574 42.392C101.143 41.6327 100.928 40.7203 100.928 39.655C100.928 38.873 101.053 38.1703 101.302 37.547C101.563 36.9237 101.908 36.391 102.339 35.949C102.781 35.507 103.274 35.1727 103.818 34.946C104.373 34.708 104.94 34.589 105.518 34.589C106.447 34.589 107.218 34.793 107.83 35.201C108.442 35.609 108.901 36.1643 109.207 36.867C109.513 37.5697 109.666 38.363 109.666 39.247C109.666 39.519 109.649 39.774 109.615 40.012C109.592 40.25 109.564 40.4313 109.53 40.556H103.852C103.943 40.998 104.101 41.355 104.328 41.627C104.555 41.899 104.832 42.103 105.161 42.239C105.49 42.3637 105.858 42.426 106.266 42.426C106.617 42.426 106.957 42.375 107.286 42.273C107.615 42.171 107.955 42.018 108.306 41.814L109.309 43.633C108.81 43.9843 108.249 44.2563 107.626 44.449C107.014 44.6417 106.425 44.738 105.858 44.738ZM103.801 38.567H107.099C107.099 38.091 106.98 37.6943 106.742 37.377C106.515 37.0597 106.124 36.901 105.569 36.901C105.297 36.901 105.036 36.9633 104.787 37.088C104.549 37.2013 104.339 37.3827 104.158 37.632C103.988 37.87 103.869 38.1817 103.801 38.567ZM113.698 44.738C113.109 44.738 112.599 44.6077 112.168 44.347C111.738 44.075 111.403 43.718 111.165 43.276C110.939 42.8227 110.825 42.3297 110.825 41.797C110.825 40.777 111.25 39.9837 112.1 39.417C112.95 38.839 114.316 38.448 116.197 38.244C116.175 37.9833 116.112 37.7623 116.01 37.581C115.908 37.3883 115.75 37.2467 115.534 37.156C115.33 37.054 115.064 37.003 114.735 37.003C114.35 37.003 113.953 37.0767 113.545 37.224C113.137 37.3713 112.69 37.581 112.202 37.853L111.148 35.864C111.579 35.6033 112.015 35.3823 112.457 35.201C112.911 35.0083 113.375 34.861 113.851 34.759C114.327 34.6457 114.815 34.589 115.313 34.589C116.152 34.589 116.86 34.7477 117.438 35.065C118.016 35.3823 118.458 35.8697 118.764 36.527C119.07 37.173 119.223 38.0003 119.223 39.009V44.5H116.758L116.554 43.531H116.469C116.073 43.8823 115.642 44.1713 115.177 44.398C114.724 44.6247 114.231 44.738 113.698 44.738ZM114.735 42.392C115.041 42.392 115.308 42.324 115.534 42.188C115.761 42.052 115.982 41.865 116.197 41.627V40.08C115.574 40.1593 115.075 40.2727 114.701 40.42C114.339 40.5673 114.078 40.7373 113.919 40.93C113.772 41.1227 113.698 41.3323 113.698 41.559C113.698 41.8423 113.789 42.052 113.97 42.188C114.163 42.324 114.418 42.392 114.735 42.392ZM127.153 44.738C126.348 44.738 125.589 44.602 124.875 44.33C124.161 44.058 123.526 43.65 122.971 43.106C122.427 42.5507 121.996 41.8707 121.679 41.066C121.373 40.25 121.22 39.3093 121.22 38.244C121.22 37.19 121.379 36.255 121.696 35.439C122.025 34.6117 122.467 33.9147 123.022 33.348C123.589 32.7813 124.235 32.3507 124.96 32.056C125.685 31.7613 126.45 31.614 127.255 31.614C128.082 31.614 128.819 31.7783 129.465 32.107C130.122 32.4357 130.666 32.821 131.097 33.263L129.516 35.201C129.199 34.9063 128.864 34.6683 128.513 34.487C128.162 34.3057 127.759 34.215 127.306 34.215C126.762 34.215 126.263 34.3737 125.81 34.691C125.357 34.997 124.994 35.4447 124.722 36.034C124.461 36.612 124.331 37.3147 124.331 38.142C124.331 38.9807 124.45 39.7003 124.688 40.301C124.937 40.8903 125.283 41.3437 125.725 41.661C126.167 41.967 126.683 42.12 127.272 42.12C127.782 42.12 128.235 42.0067 128.632 41.78C129.04 41.5533 129.391 41.2813 129.686 40.964L131.284 42.868C130.751 43.4913 130.134 43.9617 129.431 44.279C128.74 44.585 127.98 44.738 127.153 44.738ZM137.098 44.738C136.282 44.738 135.511 44.5397 134.786 44.143C134.06 43.735 133.471 43.1513 133.018 42.392C132.576 41.6327 132.355 40.7203 132.355 39.655C132.355 38.5897 132.576 37.683 133.018 36.935C133.471 36.1757 134.06 35.5977 134.786 35.201C135.511 34.793 136.282 34.589 137.098 34.589C137.71 34.589 138.299 34.7023 138.866 34.929C139.432 35.1557 139.937 35.49 140.379 35.932C140.821 36.3627 141.172 36.8897 141.433 37.513C141.693 38.1363 141.824 38.8503 141.824 39.655C141.824 40.7203 141.597 41.6327 141.144 42.392C140.702 43.1513 140.118 43.735 139.393 44.143C138.679 44.5397 137.914 44.738 137.098 44.738ZM137.098 42.29C137.472 42.29 137.778 42.1823 138.016 41.967C138.265 41.7517 138.446 41.4457 138.56 41.049C138.673 40.6523 138.73 40.1877 138.73 39.655C138.73 39.1223 138.673 38.6633 138.56 38.278C138.446 37.8813 138.265 37.5753 138.016 37.36C137.778 37.1447 137.472 37.037 137.098 37.037C136.724 37.037 136.412 37.1447 136.163 37.36C135.925 37.5753 135.743 37.8813 135.619 38.278C135.505 38.6633 135.449 39.1223 135.449 39.655C135.449 40.1877 135.505 40.6523 135.619 41.049C135.743 41.4457 135.925 41.7517 136.163 41.967C136.412 42.1823 136.724 42.29 137.098 42.29ZM143.723 44.5V34.827H146.188L146.409 36.034H146.46C146.857 35.6373 147.304 35.2973 147.803 35.014C148.313 34.7307 148.897 34.589 149.554 34.589C150.608 34.589 151.373 34.9403 151.849 35.643C152.325 36.3457 152.563 37.3033 152.563 38.516V44.5H149.537V38.89C149.537 38.2213 149.446 37.768 149.265 37.53C149.084 37.292 148.8 37.173 148.415 37.173C148.075 37.173 147.786 37.2467 147.548 37.394C147.31 37.5413 147.044 37.7567 146.749 38.04V44.5H143.723ZM158.287 44.5V42.766C159.307 41.814 160.214 40.9413 161.007 40.148C161.812 39.3433 162.441 38.6067 162.894 37.938C163.348 37.2693 163.574 36.646 163.574 36.068C163.574 35.6713 163.506 35.3427 163.37 35.082C163.246 34.8213 163.059 34.623 162.809 34.487C162.56 34.351 162.265 34.283 161.925 34.283C161.495 34.283 161.104 34.4133 160.752 34.674C160.412 34.9233 160.089 35.201 159.783 35.507L158.134 33.875C158.758 33.2177 159.387 32.7303 160.021 32.413C160.667 32.0843 161.438 31.92 162.333 31.92C163.149 31.92 163.869 32.0843 164.492 32.413C165.116 32.7417 165.603 33.2063 165.954 33.807C166.306 34.3963 166.481 35.0933 166.481 35.898C166.481 36.578 166.294 37.275 165.92 37.989C165.546 38.6917 165.065 39.3943 164.475 40.097C163.897 40.7883 163.291 41.4627 162.656 42.12C162.974 42.0747 163.325 42.035 163.71 42.001C164.107 41.967 164.447 41.95 164.73 41.95H167.059V44.5H158.287ZM173.118 44.738C172.222 44.738 171.435 44.4943 170.755 44.007C170.086 43.5083 169.565 42.783 169.191 41.831C168.817 40.8677 168.63 39.6833 168.63 38.278C168.63 36.8727 168.817 35.6997 169.191 34.759C169.565 33.8183 170.086 33.11 170.755 32.634C171.435 32.158 172.222 31.92 173.118 31.92C174.013 31.92 174.795 32.158 175.464 32.634C176.132 33.11 176.654 33.8183 177.028 34.759C177.402 35.6997 177.589 36.8727 177.589 38.278C177.589 39.6833 177.402 40.8677 177.028 41.831C176.654 42.783 176.132 43.5083 175.464 44.007C174.795 44.4943 174.013 44.738 173.118 44.738ZM173.118 42.392C173.424 42.392 173.696 42.2843 173.934 42.069C174.183 41.8423 174.376 41.4343 174.512 40.845C174.659 40.2443 174.733 39.3887 174.733 38.278C174.733 37.1673 174.659 36.323 174.512 35.745C174.376 35.167 174.183 34.776 173.934 34.572C173.696 34.368 173.424 34.266 173.118 34.266C172.823 34.266 172.551 34.368 172.302 34.572C172.052 34.776 171.854 35.167 171.707 35.745C171.559 36.323 171.486 37.1673 171.486 38.278C171.486 39.3887 171.559 40.2443 171.707 40.845C171.854 41.4343 172.052 41.8423 172.302 42.069C172.551 42.2843 172.823 42.392 173.118 42.392ZM179.006 44.5V42.766C180.026 41.814 180.933 40.9413 181.726 40.148C182.531 39.3433 183.16 38.6067 183.613 37.938C184.066 37.2693 184.293 36.646 184.293 36.068C184.293 35.6713 184.225 35.3427 184.089 35.082C183.964 34.8213 183.777 34.623 183.528 34.487C183.279 34.351 182.984 34.283 182.644 34.283C182.213 34.283 181.822 34.4133 181.471 34.674C181.131 34.9233 180.808 35.201 180.502 35.507L178.853 33.875C179.476 33.2177 180.105 32.7303 180.74 32.413C181.386 32.0843 182.157 31.92 183.052 31.92C183.868 31.92 184.588 32.0843 185.211 32.413C185.834 32.7417 186.322 33.2063 186.673 33.807C187.024 34.3963 187.2 35.0933 187.2 35.898C187.2 36.578 187.013 37.275 186.639 37.989C186.265 38.6917 185.783 39.3943 185.194 40.097C184.616 40.7883 184.01 41.4627 183.375 42.12C183.692 42.0747 184.044 42.035 184.429 42.001C184.826 41.967 185.166 41.95 185.449 41.95H187.778V44.5H179.006ZM194.159 44.738C193.559 44.738 192.975 44.6247 192.408 44.398C191.853 44.16 191.349 43.7973 190.895 43.31C190.453 42.8113 190.096 42.1767 189.824 41.406C189.564 40.624 189.433 39.6833 189.433 38.584C189.433 37.4393 189.569 36.4533 189.841 35.626C190.113 34.7873 190.487 34.096 190.963 33.552C191.439 32.9967 191.978 32.5887 192.578 32.328C193.179 32.056 193.802 31.92 194.448 31.92C195.287 31.92 196.012 32.073 196.624 32.379C197.248 32.685 197.758 33.0363 198.154 33.433L196.556 35.235C196.352 35.0083 196.075 34.81 195.723 34.64C195.372 34.4587 195.015 34.368 194.652 34.368C194.199 34.368 193.785 34.4983 193.411 34.759C193.037 35.0197 192.737 35.456 192.51 36.068C192.295 36.68 192.187 37.5187 192.187 38.584C192.187 39.604 192.278 40.3973 192.459 40.964C192.652 41.5307 192.89 41.9273 193.173 42.154C193.468 42.3693 193.768 42.477 194.074 42.477C194.346 42.477 194.596 42.4147 194.822 42.29C195.049 42.154 195.23 41.95 195.366 41.678C195.502 41.3947 195.57 41.0263 195.57 40.573C195.57 40.1423 195.497 39.808 195.349 39.57C195.213 39.3207 195.026 39.145 194.788 39.043C194.562 38.941 194.307 38.89 194.023 38.89C193.717 38.89 193.4 38.9863 193.071 39.179C192.754 39.3603 192.465 39.689 192.204 40.165L192.068 38.21C192.284 37.904 192.539 37.6433 192.833 37.428C193.139 37.2127 193.451 37.0483 193.768 36.935C194.086 36.8217 194.369 36.765 194.618 36.765C195.321 36.765 195.95 36.901 196.505 37.173C197.072 37.445 197.514 37.8643 197.831 38.431C198.16 38.9863 198.324 39.7003 198.324 40.573C198.324 41.4343 198.132 42.1767 197.746 42.8C197.372 43.4233 196.868 43.905 196.233 44.245C195.61 44.5737 194.919 44.738 194.159 44.738ZM209.806 29.965H215.586V32.175H212.237V40.76H209.806V29.965ZM216.708 35.439L232.331 35.439V37.734H216.708V35.439ZM218.289 31.869H227.792V34.13H218.289V31.869ZM221.876 29.965H224.46V36.697H221.876V29.965ZM228.608 38.533L230.631 40.335C229.815 40.641 228.942 40.93 228.013 41.202C227.083 41.4627 226.143 41.7007 225.191 41.916C224.25 42.1313 223.338 42.324 222.454 42.494C222.397 42.2333 222.289 41.916 222.131 41.542C221.983 41.168 221.842 40.862 221.706 40.624C222.533 40.454 223.366 40.2557 224.205 40.029C225.055 39.8023 225.859 39.5587 226.619 39.298C227.378 39.0373 228.041 38.7823 228.608 38.533ZM229.509 30.628L231.821 31.75C230.721 33.416 229.435 34.946 227.962 36.34C226.5 37.734 224.913 38.9693 223.202 40.046C221.49 41.1227 219.717 42.035 217.881 42.783C217.767 42.5903 217.603 42.3637 217.388 42.103C217.184 41.8423 216.974 41.5817 216.759 41.321C216.543 41.0603 216.351 40.845 216.181 40.675C218.028 40.029 219.785 39.2187 221.451 38.244C223.117 37.258 224.635 36.1247 226.007 34.844C227.378 33.5633 228.545 32.158 229.509 30.628ZM220.924 38.686H223.491V42.902C223.491 43.1287 223.519 43.2987 223.576 43.412C223.644 43.514 223.78 43.582 223.984 43.616C224.188 43.65 224.488 43.667 224.885 43.667C224.998 43.667 225.157 43.667 225.361 43.667C225.565 43.667 225.797 43.667 226.058 43.667C226.318 43.667 226.579 43.667 226.84 43.667C227.1 43.667 227.338 43.667 227.554 43.667C227.78 43.667 227.962 43.667 228.098 43.667C228.438 43.667 228.693 43.6217 228.863 43.531C229.044 43.429 229.169 43.2363 229.237 42.953C229.316 42.6697 229.378 42.2503 229.424 41.695C229.616 41.8197 229.849 41.9443 230.121 42.069C230.393 42.1823 230.67 42.2843 230.954 42.375C231.248 42.4657 231.509 42.5337 231.736 42.579C231.634 43.4403 231.464 44.109 231.226 44.585C230.988 45.061 230.636 45.3897 230.172 45.571C229.718 45.7637 229.089 45.86 228.285 45.86C228.16 45.86 227.973 45.86 227.724 45.86C227.486 45.86 227.214 45.86 226.908 45.86C226.613 45.86 226.318 45.86 226.024 45.86C225.729 45.86 225.457 45.86 225.208 45.86C224.97 45.86 224.788 45.86 224.664 45.86C223.689 45.86 222.93 45.7693 222.386 45.588C221.842 45.418 221.462 45.1177 221.247 44.687C221.031 44.2563 220.924 43.667 220.924 42.919V38.686ZM238.791 32.039H242.021V34.113H238.791V32.039ZM241.341 32.039H241.715L242.089 31.971L243.483 32.379C243.324 34.2377 243.069 35.9717 242.718 37.581C242.378 39.1903 241.924 40.6467 241.358 41.95C240.791 43.242 240.105 44.3583 239.301 45.299C239.119 45.0383 238.87 44.738 238.553 44.398C238.235 44.058 237.946 43.7973 237.686 43.616C238.196 43.072 238.655 42.3977 239.063 41.593C239.471 40.777 239.828 39.876 240.134 38.89C240.451 37.904 240.706 36.8727 240.899 35.796C241.103 34.708 241.25 33.62 241.341 32.532V32.039ZM238.179 36.068L239.709 34.759C240.105 35.3483 240.519 35.9773 240.95 36.646C241.392 37.3147 241.817 37.9833 242.225 38.652C242.644 39.3207 243.024 39.9667 243.364 40.59C243.715 41.202 243.993 41.7573 244.197 42.256L242.463 43.837C242.27 43.3157 242.009 42.7377 241.681 42.103C241.363 41.457 241.006 40.7883 240.61 40.097C240.213 39.3943 239.805 38.703 239.386 38.023C238.966 37.3317 238.564 36.68 238.179 36.068ZM243.551 33.365H249.518V35.558H243.551V33.365ZM246.305 30.05H248.515V43.395C248.515 43.9617 248.458 44.4093 248.345 44.738C248.231 45.078 248.016 45.3443 247.699 45.537C247.381 45.7297 246.99 45.8543 246.526 45.911C246.072 45.979 245.534 46.013 244.911 46.013C244.877 45.6957 244.797 45.3103 244.673 44.857C244.548 44.4037 244.406 44.0127 244.248 43.684C244.61 43.6953 244.956 43.7067 245.285 43.718C245.625 43.718 245.857 43.7123 245.982 43.701C246.106 43.701 246.191 43.6783 246.237 43.633C246.282 43.5877 246.305 43.5027 246.305 43.378V30.05ZM243.177 37.071L244.945 36.408C245.171 36.8273 245.392 37.2807 245.608 37.768C245.823 38.2553 246.021 38.7313 246.203 39.196C246.384 39.6493 246.526 40.0573 246.628 40.42L244.775 41.202C244.684 40.828 244.548 40.403 244.367 39.927C244.197 39.451 244.004 38.9637 243.789 38.465C243.585 37.9663 243.381 37.5017 243.177 37.071ZM233.589 33.297H238.417V35.524H233.589V33.297ZM235.051 29.965H237.193V46.115H235.051V29.965ZM235.204 34.912L236.598 35.354C236.496 36.0113 236.365 36.7083 236.207 37.445C236.059 38.1703 235.884 38.8957 235.68 39.621C235.487 40.335 235.266 41.0093 235.017 41.644C234.779 42.2787 234.524 42.834 234.252 43.31C234.138 42.9813 233.974 42.613 233.759 42.205C233.543 41.7857 233.351 41.4343 233.181 41.151C233.407 40.7543 233.623 40.301 233.827 39.791C234.042 39.281 234.24 38.7483 234.422 38.193C234.603 37.6263 234.756 37.0653 234.881 36.51C235.017 35.9433 235.124 35.4107 235.204 34.912ZM237.176 35.524C237.255 35.6487 237.374 35.8697 237.533 36.187C237.703 36.493 237.884 36.8273 238.077 37.19C238.269 37.5527 238.445 37.887 238.604 38.193C238.762 38.499 238.87 38.7143 238.927 38.839L237.737 40.879C237.657 40.5843 237.55 40.25 237.414 39.876C237.289 39.4907 237.153 39.0997 237.006 38.703C236.858 38.3063 236.717 37.938 236.581 37.598C236.456 37.2467 236.343 36.952 236.241 36.714L237.176 35.524ZM260.194 35.524H266.552V37.802H260.194V35.524ZM250.844 31.597H258.579V33.586H250.844V31.597ZM250.691 38.38H258.511V40.437H250.691V38.38ZM250.572 35.337H258.851V37.343H250.572V35.337ZM262.727 36.544H265.124V46.03H262.727V36.544ZM251.626 33.909L253.564 33.433C253.7 33.6823 253.819 33.9713 253.921 34.3C254.023 34.6287 254.091 34.9177 254.125 35.167L252.085 35.711C252.073 35.473 252.022 35.184 251.932 34.844C251.852 34.504 251.75 34.1923 251.626 33.909ZM255.74 33.416L257.967 33.824C257.785 34.2433 257.615 34.6343 257.457 34.997C257.298 35.3597 257.145 35.6713 256.998 35.932L255.009 35.524C255.099 35.32 255.19 35.099 255.281 34.861C255.371 34.6117 255.456 34.3623 255.536 34.113C255.626 33.8523 255.694 33.62 255.74 33.416ZM264.376 30.033L266.246 31.852C265.622 32.1013 264.954 32.328 264.24 32.532C263.537 32.7247 262.823 32.9003 262.098 33.059C261.372 33.2063 260.67 33.331 259.99 33.433C259.944 33.1723 259.848 32.8607 259.701 32.498C259.553 32.1353 259.412 31.8293 259.276 31.58C259.899 31.4553 260.522 31.3137 261.146 31.155C261.769 30.9963 262.358 30.8207 262.914 30.628C263.469 30.4353 263.956 30.237 264.376 30.033ZM253.139 30.356L255.332 29.846C255.49 30.22 255.649 30.6337 255.808 31.087C255.966 31.5403 256.08 31.9257 256.148 32.243L253.836 32.838C253.79 32.5093 253.7 32.1127 253.564 31.648C253.428 31.172 253.286 30.7413 253.139 30.356ZM253.683 36.629H255.91V43.701C255.91 44.177 255.859 44.5567 255.757 44.84C255.655 45.1233 255.456 45.3443 255.162 45.503C254.867 45.6617 254.533 45.758 254.159 45.792C253.785 45.8373 253.354 45.86 252.867 45.86C252.833 45.5653 252.753 45.231 252.629 44.857C252.504 44.483 252.374 44.1543 252.238 43.871C252.464 43.8823 252.697 43.888 252.935 43.888C253.184 43.888 253.354 43.888 253.445 43.888C253.603 43.888 253.683 43.8087 253.683 43.65V36.629ZM259.276 31.58H261.571V37.683C261.571 38.3063 261.548 38.9863 261.503 39.723C261.469 40.4483 261.395 41.185 261.282 41.933C261.168 42.681 261.004 43.395 260.789 44.075C260.573 44.7437 260.29 45.3443 259.939 45.877C259.814 45.7297 259.633 45.5597 259.395 45.367C259.157 45.1743 258.913 44.9873 258.664 44.806C258.414 44.636 258.205 44.5057 258.035 44.415C258.42 43.803 258.698 43.1117 258.868 42.341C259.049 41.5703 259.162 40.7827 259.208 39.978C259.253 39.162 259.276 38.397 259.276 37.683V31.58ZM255.978 41.474L257.559 40.573C257.819 40.9357 258.074 41.3323 258.324 41.763C258.573 42.1937 258.771 42.562 258.919 42.868L257.27 43.905C257.134 43.5763 256.941 43.1853 256.692 42.732C256.442 42.2673 256.204 41.848 255.978 41.474ZM251.711 40.777L253.598 41.27C253.394 41.814 253.139 42.3637 252.833 42.919C252.527 43.463 252.209 43.9163 251.881 44.279C251.699 44.1203 251.45 43.9277 251.133 43.701C250.815 43.463 250.543 43.276 250.317 43.14C250.611 42.834 250.878 42.4713 251.116 42.052C251.365 41.6213 251.563 41.1963 251.711 40.777ZM275.681 35.286H278.214V42.579C278.214 42.9643 278.253 43.208 278.333 43.31C278.423 43.4007 278.627 43.446 278.945 43.446C279.013 43.446 279.12 43.446 279.268 43.446C279.415 43.446 279.574 43.446 279.744 43.446C279.925 43.446 280.089 43.446 280.237 43.446C280.395 43.446 280.514 43.446 280.594 43.446C280.798 43.446 280.951 43.3837 281.053 43.259C281.166 43.1343 281.245 42.8963 281.291 42.545C281.347 42.1937 281.387 41.678 281.41 40.998C281.591 41.134 281.818 41.27 282.09 41.406C282.362 41.542 282.645 41.661 282.94 41.763C283.234 41.865 283.495 41.9443 283.722 42.001C283.631 42.9643 283.484 43.7237 283.28 44.279C283.076 44.8343 282.775 45.2253 282.379 45.452C281.993 45.69 281.472 45.809 280.815 45.809C280.724 45.809 280.599 45.809 280.441 45.809C280.293 45.809 280.129 45.809 279.948 45.809C279.778 45.809 279.602 45.809 279.421 45.809C279.251 45.809 279.092 45.809 278.945 45.809C278.797 45.809 278.678 45.809 278.588 45.809C277.817 45.809 277.222 45.707 276.803 45.503C276.383 45.3103 276.089 44.976 275.919 44.5C275.76 44.0353 275.681 43.395 275.681 42.579V35.286ZM281.291 35.915L282.991 37.938C282.118 38.482 281.177 39.009 280.169 39.519C279.171 40.029 278.146 40.5107 277.092 40.964C276.049 41.4173 275.012 41.8423 273.981 42.239C273.901 41.9443 273.76 41.6157 273.556 41.253C273.363 40.8903 273.182 40.5843 273.012 40.335C274.009 39.9497 275.006 39.5133 276.004 39.026C277.001 38.5387 277.953 38.0287 278.86 37.496C279.766 36.952 280.577 36.425 281.291 35.915ZM271.771 34.878L274.236 35.643C273.85 36.425 273.397 37.19 272.876 37.938C272.354 38.686 271.799 39.383 271.21 40.029C270.632 40.675 270.054 41.236 269.476 41.712C269.328 41.5533 269.13 41.3663 268.881 41.151C268.643 40.9243 268.393 40.7033 268.133 40.488C267.872 40.2727 267.645 40.097 267.453 39.961C268.031 39.5757 268.592 39.1167 269.136 38.584C269.68 38.04 270.178 37.4507 270.632 36.816C271.085 36.1813 271.465 35.5353 271.771 34.878ZM267.895 31.325H283.127V33.688H267.895V31.325ZM271.499 29.965H274.015V34.861H271.499V29.965ZM277.143 29.965H279.693V34.861H277.143V29.965ZM270.343 38.635L272.893 36.085V36.102V46.115H270.343V38.635ZM290.216 46.115H284.436V43.905H287.785V35.32H290.216V46.115Z" fill="white"/>
</g>
<path d="M313.861 8.66923C314.134 10.2293 314.522 11.2992 315.187 12.2882C315.634 12.9574 316.129 13.4177 316.713 13.7076C317.369 14.0401 317.919 14.1381 318.137 13.9676C318.196 13.9207 318.29 13.8824 318.35 13.8824C318.546 13.8824 318.563 13.8099 318.537 13.0853C318.516 12.3265 318.439 11.9685 318.192 11.4271C317.608 10.1739 316.393 9.16369 314.339 8.23871C314.049 8.10657 313.797 8.00001 313.78 8.00001C313.763 8.00001 313.797 8.30265 313.861 8.66923Z" fill="white"/>
<path d="M320.327 9.75618C319.249 11.7852 318.904 13.4561 319.296 14.7945C319.564 15.7238 320.344 16.8661 320.703 16.8661C320.903 16.8661 321.355 16.2694 321.687 15.5661C321.977 14.9565 322.062 14.543 322.067 13.7545C322.067 12.902 321.93 12.2498 321.551 11.2737C321.376 10.8176 320.694 9.42796 320.617 9.36402C320.575 9.32992 320.506 9.4237 320.327 9.75618Z" fill="white"/>
<path d="M314.671 13.4859C314.671 13.503 314.756 13.8269 314.863 14.202C315.596 16.7809 316.922 18.5456 318.405 18.9292C319.091 19.104 319.467 19.0997 319.624 18.9164C319.663 18.8696 319.765 18.8184 319.85 18.8014C319.935 18.7886 320.016 18.7459 320.029 18.7118C320.042 18.682 320.029 18.4476 320.004 18.1918C319.859 16.7894 319.322 15.8815 318.115 14.9864C317.297 14.3768 316.466 14.006 314.769 13.4817C314.714 13.4646 314.671 13.4646 314.671 13.4859Z" fill="white"/>
<path d="M323.175 15.6513C322.216 16.8704 321.683 17.8124 321.423 18.763C321.291 19.2361 321.24 20.127 321.316 20.5405C321.427 21.133 321.704 21.815 322.037 22.318C322.182 22.5396 322.19 22.5439 322.352 22.5226C322.591 22.4885 322.813 22.3265 323.119 21.9599C323.708 21.2523 324.044 20.5746 324.228 19.7221C324.347 19.185 324.351 18.1534 324.245 17.4842C324.108 16.6402 323.712 15.1185 323.627 15.1185C323.605 15.1185 323.405 15.3572 323.175 15.6513Z" fill="white"/>
<path d="M317.544 18.8994C317.557 19.0145 317.578 19.381 317.591 19.7221C317.668 21.5635 318.017 22.8039 318.767 23.9036C319.232 24.5814 320.004 25.1909 320.634 25.3742C320.843 25.4382 320.877 25.4382 321.01 25.3742C321.086 25.3359 321.197 25.306 321.253 25.306C321.312 25.306 321.368 25.2719 321.385 25.2293C321.457 25.0375 321.542 24.5174 321.564 24.1125C321.636 22.7101 320.993 21.4186 319.624 20.2208C318.878 19.5686 317.706 18.699 317.578 18.699C317.54 18.699 317.531 18.7544 317.544 18.8994Z" fill="white"/>
<path d="M325.404 21.6573C323.665 22.6974 322.676 23.6309 322.148 24.7306C321.849 25.3615 321.811 25.5533 321.815 26.4357C321.82 27.0452 321.837 27.2669 321.9 27.5226C321.977 27.8253 321.99 27.8423 322.109 27.8551C322.182 27.8636 322.254 27.8892 322.28 27.9105C322.425 28.0512 323.03 27.838 323.559 27.4629C324.279 26.9472 324.995 25.9242 325.362 24.8798C325.609 24.1637 325.809 23.145 325.86 22.3223C325.873 22.1006 325.895 21.798 325.907 21.6488C325.916 21.5039 325.912 21.3845 325.895 21.3845C325.877 21.3845 325.656 21.5081 325.404 21.6573Z" fill="white"/>
<path d="M317.808 23.7758C317.761 23.9165 317.57 24.9395 317.501 25.4126C317.403 26.0946 317.403 27.237 317.497 27.7613C317.685 28.8014 318.115 29.6454 318.827 30.3572C319.321 30.8559 319.483 30.954 319.803 30.954H320.063L320.178 30.7409C320.379 30.3785 320.587 29.6667 320.643 29.1594C320.783 27.8636 320.229 26.4527 318.976 24.931C318.486 24.3385 317.838 23.6906 317.808 23.7758Z" fill="white"/>
<path d="M325.933 27.5013C324.603 27.7144 323.58 28.0043 322.911 28.3495C321.956 28.844 321.257 29.5985 320.86 30.5533C320.72 30.89 320.528 31.7425 320.566 31.8491C320.579 31.8789 320.669 31.9301 320.758 31.9557C320.856 31.9812 320.958 32.0452 320.997 32.1006C321.099 32.2583 321.321 32.3137 321.764 32.2839C323.158 32.1901 324.275 31.3973 325.443 29.6709C325.877 29.023 326.696 27.3862 326.576 27.399C326.559 27.4032 326.27 27.4459 325.933 27.5013Z" fill="white"/>
<path d="M316.747 28.9548C316.7 29.0401 316.376 30.0887 316.278 30.4851C316.039 31.4271 316.014 31.6317 316.018 32.5524C316.018 33.3623 316.027 33.4561 316.133 33.844C316.329 34.5686 316.794 35.3785 317.348 35.9454C317.646 36.2524 317.804 36.3461 318.017 36.3461C318.175 36.3461 318.2 36.3291 318.333 36.1287C318.686 35.5874 318.938 34.8883 319.023 34.2191C319.181 32.9233 318.571 31.2651 317.31 29.59C316.883 29.0188 316.781 28.9037 316.747 28.9548Z" fill="white"/>
<path d="M314.155 32.7315C313.571 33.8142 313.235 34.6922 313.051 35.5831C312.928 36.1671 312.949 37.1262 313.09 37.6249C313.341 38.5115 314.143 39.7136 314.475 39.7136C314.59 39.7136 314.965 39.3001 315.221 38.8824C315.49 38.4561 315.711 37.9318 315.814 37.4885C315.92 37.0196 315.907 35.9028 315.792 35.3657C315.681 34.8755 315.481 34.2362 315.281 33.746C315.114 33.3368 314.62 32.3137 314.535 32.1986C314.484 32.1347 314.441 32.1944 314.155 32.7315Z" fill="white"/>
<path d="M324.304 32.1987C323.746 32.2328 322.932 32.3436 322.544 32.4416C321.129 32.8039 320.025 33.682 319.488 34.8756C319.385 35.1057 319.147 35.792 319.147 35.8602C319.147 35.8687 319.249 35.9242 319.373 35.9796C319.492 36.035 319.637 36.1373 319.688 36.2055C319.82 36.393 320.097 36.4484 320.72 36.4186C321.815 36.3675 322.732 35.9156 323.712 34.9438C324.283 34.3726 324.773 33.7375 325.242 32.9489C325.464 32.5823 325.664 32.2541 325.681 32.2242C325.707 32.1816 325.596 32.1688 325.127 32.1773C324.803 32.1816 324.432 32.1901 324.304 32.1987Z" fill="white"/>
<path d="M311.325 35.7153C309.731 37.2583 309.002 38.4945 308.891 39.8329C308.84 40.451 309.023 41.3419 309.334 41.9727L309.492 42.2924H309.748C309.97 42.2924 310.033 42.2711 310.217 42.1432C310.912 41.6658 311.623 40.6513 311.913 39.7349C312.148 38.9804 312.178 38.7502 312.178 37.5823C312.178 36.653 312.16 36.4015 312.075 35.8559C312.02 35.5021 311.96 35.1995 311.943 35.1824C311.926 35.1611 311.645 35.3998 311.325 35.7153Z" fill="white"/>
<path d="M319.479 36.6701C318.264 36.8576 317.582 37.156 316.917 37.7911C316.568 38.1236 316.325 38.4348 316.061 38.8866C315.788 39.3598 315.788 39.3512 316.078 39.5345C316.218 39.6198 316.346 39.7263 316.359 39.7647C316.466 40.1014 317.506 40.3401 318.358 40.2293C318.831 40.1654 319.535 39.9352 319.957 39.705C320.788 39.2532 321.824 38.4135 322.143 37.9403C322.25 37.7783 322.476 37.497 322.642 37.3095C322.808 37.1262 322.936 36.9685 322.928 36.9599C322.919 36.9514 322.642 36.896 322.318 36.8363C320.933 36.5933 320.221 36.5507 319.479 36.6701Z" fill="white"/>
<path d="M307.745 39.0273C305.468 39.5516 304.126 40.2635 303.375 41.3547C303.013 41.8832 302.715 42.7613 302.664 43.4476L302.638 43.7929L302.787 43.8227C302.872 43.8355 303 43.908 303.077 43.9804L303.213 44.1168L303.648 44.0955C304.369 44.0614 305.059 43.7801 305.728 43.2515C306.312 42.7912 307.097 41.7596 307.608 40.7792C307.825 40.37 308.277 39.2788 308.346 39.0145C308.38 38.8781 308.397 38.8781 307.745 39.0273Z" fill="white"/>
<path d="M314.607 40.272C313.878 40.3743 313.051 40.7707 312.476 41.3035C312.156 41.5934 311.73 42.0963 311.73 42.1773C311.73 42.2029 311.845 42.3223 311.986 42.4459C312.126 42.5695 312.254 42.7144 312.267 42.7698C312.318 42.9659 312.774 43.2259 313.38 43.405C314.42 43.7076 315.634 43.5158 316.981 42.8338C317.757 42.4416 318.128 42.1944 318.277 41.9685C318.345 41.8662 318.571 41.6488 318.776 41.4825C319.028 41.2822 319.13 41.1756 319.091 41.1543C319.062 41.1373 318.729 41.0094 318.354 40.8687C317.578 40.5831 316.994 40.4126 316.466 40.3274C315.984 40.2507 314.982 40.2208 314.607 40.272Z" fill="white"/>
<path d="M309.07 42.8934C308.682 42.9787 308.286 43.1321 307.894 43.341C307.514 43.5456 307.088 43.8525 307.084 43.9165C307.084 43.942 307.195 44.1168 307.331 44.3086C307.463 44.5004 307.621 44.7349 307.681 44.8329C307.872 45.1483 308.512 45.6215 309.036 45.8346C310.029 46.2353 311.21 46.2481 312.689 45.8772C313.371 45.7025 313.563 45.6172 313.644 45.451C313.682 45.3657 313.78 45.2975 313.985 45.208C314.138 45.1398 314.322 45.0588 314.39 45.029L314.513 44.9736L314.062 44.6454C312.727 43.6735 311.909 43.2387 310.877 42.9702C310.349 42.8295 309.505 42.7954 309.07 42.8934Z" fill="white"/>
<path d="M303.695 44.688C303.533 44.7221 303.252 44.8073 303.077 44.8755C302.761 44.9949 302.122 45.3359 302.024 45.4382C301.947 45.5149 302.574 46.5209 302.906 46.8619C303.38 47.3478 303.972 47.6846 304.718 47.8849C305.119 47.9915 305.2 48 306.082 48C306.875 48 307.101 47.9872 307.553 47.902C308.171 47.7911 308.448 47.6846 308.448 47.5652C308.448 47.4714 308.593 47.3905 308.981 47.2754C309.121 47.2327 309.249 47.1858 309.27 47.1731C309.305 47.1432 308.422 46.3717 307.902 45.9795C306.964 45.2805 306.061 44.8457 305.208 44.6837C304.773 44.5985 304.091 44.6027 303.695 44.688Z" fill="white"/>
<defs>
<filter id="filter0_d_19_932" x="85.4176" y="3.9" width="214.2" height="48.2" filterUnits="userSpaceOnUse" color-interpolation-filters="sRGB">
<feFlood flood-opacity="0" result="BackgroundImageFix"/>
<feColorMatrix in="SourceAlpha" type="matrix" values="0 0 0 0 0 0 0 0 0 0 0 0 0 0 0 0 0 0 127 0" result="hardAlpha"/>
<feOffset/>
<feGaussianBlur stdDeviation="2.8"/>
<feComposite in2="hardAlpha" operator="out"/>
<feColorMatrix type="matrix" values="0 0 0 0 0 0 0 0 0 0 0 0 0 0 0 0 0 0 0.25 0"/>
<feBlend mode="normal" in2="BackgroundImageFix" result="effect1_dropShadow_19_932"/>
<feBlend mode="normal" in="SourceGraphic" in2="effect1_dropShadow_19_932" result="shape"/>
</filter>
<linearGradient id="paint0_linear_19_932" x1="168.5" y1="0" x2="168.5" y2="56" gradientUnits="userSpaceOnUse">
<stop stop-color="#4888FF"/>
<stop offset="1" stop-color="#0A46B4"/>
</linearGradient>
</defs>
</svg>
