<svg width="331" height="56" viewBox="0 0 331 56" fill="none" xmlns="http://www.w3.org/2000/svg">
<rect width="330.176" height="56" rx="8" fill="url(#paint0_linear_17_2952)"/>
<rect x="1.05" y="1.05" width="328.076" height="53.9" rx="6.95" stroke="white" stroke-opacity="0.15" stroke-width="2.1"/>
<path d="M24.3711 8.18349C22.3164 9.10429 21.0588 10.1061 20.4577 11.2997C20.1764 11.8624 20.0187 12.5829 20.0272 13.2521C20.0357 13.768 20.0613 13.8532 20.2148 13.8703C20.283 13.8788 20.3853 13.9214 20.4407 13.9683C20.6538 14.1346 21.2123 14.0323 21.8603 13.704C23.0326 13.1157 23.9875 11.6962 24.4948 9.78636C24.5928 9.41548 24.8401 8.14939 24.8401 8.01297C24.8401 7.97887 24.7718 8.00445 24.3711 8.18349Z" fill="black"/>
<path d="M17.7252 9.79914C16.3184 12.4379 16.1394 14.3477 17.1497 16.0529C17.3969 16.4707 17.6868 16.8117 17.8317 16.8458C17.9895 16.8884 18.2069 16.7222 18.501 16.3257C19.814 14.5779 19.7842 12.8045 18.3902 10.008C18.2026 9.62862 18.0321 9.31743 18.0151 9.31743C17.998 9.31743 17.8658 9.53484 17.7252 9.79914Z" fill="black"/>
<path d="M23.3565 13.623C22.4954 13.9 22.035 14.0876 21.4723 14.3775C20.3085 14.9786 19.4474 15.7587 19.0211 16.607C18.744 17.1569 18.5735 17.8816 18.5735 18.504V18.7726L18.727 18.7982C18.8079 18.8152 18.9103 18.8664 18.9486 18.9133C19.0765 19.0582 19.3025 19.0923 19.7245 19.0198C20.5259 18.8792 21.0588 18.6063 21.6556 18.0266C22.5721 17.1399 23.2499 15.8738 23.7359 14.1686C23.8297 13.8318 23.915 13.5334 23.9235 13.5036C23.9491 13.4354 23.9533 13.4311 23.3565 13.623Z" fill="black"/>
<path d="M14.7454 15.7417C14.0036 18.3548 14.1102 20.0344 15.1077 21.4966C15.5639 22.1702 15.9774 22.5325 16.2843 22.5325C16.3823 22.5325 16.4335 22.4814 16.5998 22.2213C16.7106 22.0551 16.8768 21.7439 16.9664 21.535C17.738 19.7488 17.269 17.9712 15.4189 15.6479C15.1845 15.3537 14.9756 15.115 14.9585 15.115C14.9372 15.115 14.8392 15.3964 14.7454 15.7417Z" fill="black"/>
<path d="M20.5131 19.0028C19.3578 19.8298 18.3816 20.7123 17.8999 21.3602C17.6186 21.7396 17.2775 22.4174 17.1667 22.8309C16.9876 23.496 16.9834 24.2718 17.1454 25.0008C17.2093 25.2736 17.2264 25.3035 17.3159 25.3035C17.3756 25.3035 17.4864 25.3333 17.5631 25.3717C17.6953 25.4356 17.7294 25.4356 17.9383 25.3717C18.5436 25.1926 19.3067 24.6086 19.7756 23.9521C20.658 22.7286 20.965 21.4668 21.046 18.7257C21.046 18.649 20.9095 18.7215 20.5131 19.0028Z" fill="black"/>
<path d="M12.7076 21.9656C12.7801 23.351 13.0401 24.5575 13.4749 25.4953C13.8202 26.2371 14.4725 27.0683 15.0138 27.4563C15.5425 27.8357 16.1947 28.0616 16.2927 27.9039C16.3055 27.8783 16.3737 27.8612 16.4419 27.8612C16.5954 27.8612 16.6252 27.8101 16.7233 27.3497C16.8384 26.8168 16.8256 25.8704 16.702 25.41C16.3908 24.2548 15.4828 23.1677 13.9865 22.1574C13.6668 21.9443 12.7374 21.3816 12.7033 21.3816C12.6905 21.3816 12.6905 21.6459 12.7076 21.9656Z" fill="black"/>
<path d="M20.381 24.0757C19.6094 24.8686 19.1191 25.5081 18.582 26.4118C18.2367 26.9958 17.9809 27.8527 17.9468 28.5518C17.9084 29.3149 18.0534 30.0225 18.3902 30.6918L18.5351 30.9817L18.7866 30.9646C18.9742 30.9518 19.0808 30.9135 19.2172 30.8197C19.9376 30.3252 20.6495 29.3319 20.9309 28.4324C21.2634 27.3752 21.2506 25.9898 20.8882 24.2675C20.8286 23.9691 20.7646 23.7262 20.7518 23.7262C20.7348 23.7262 20.5685 23.8839 20.381 24.0757Z" fill="black"/>
<path d="M12.0213 27.4946C12.0639 27.6822 12.648 28.8886 12.8824 29.2723C14.0633 31.2162 15.3251 32.1839 16.8086 32.2819C17.2477 32.3117 17.4736 32.2563 17.5759 32.1029C17.61 32.0474 17.7209 31.9835 17.836 31.9537L18.0321 31.8982L18.0022 31.6126C17.9426 30.9433 17.5802 30.0822 17.1241 29.5067C16.2587 28.4239 14.9627 27.8527 12.5286 27.4818L12 27.4051L12.0213 27.4946Z" fill="black"/>
<path d="M21.468 29.3447C19.5624 31.7874 19.0935 33.8336 20.01 35.6965C20.0953 35.867 20.2189 36.0844 20.2829 36.174C20.3894 36.3189 20.4321 36.3445 20.56 36.3445C20.7774 36.3445 20.9053 36.2635 21.2676 35.8841C22.6062 34.4816 22.9302 32.7849 22.3035 30.4232C22.1415 29.8264 21.8559 28.927 21.8218 28.927C21.8047 28.927 21.647 29.1145 21.468 29.3447Z" fill="black"/>
<path d="M23.7572 32.7721C22.5635 35.1977 22.376 36.8987 23.1348 38.4546C23.5099 39.2305 23.949 39.7548 24.1707 39.6951C24.3028 39.661 24.5842 39.3712 24.8144 39.0344C25.8759 37.4486 25.91 35.9608 24.938 33.7441C24.7291 33.2666 24.1323 32.1242 24.0939 32.1242C24.0854 32.1242 23.9362 32.4183 23.7572 32.7721Z" fill="black"/>
<path d="M12.9037 32.1796C12.9037 32.1924 13.0145 32.3927 13.1552 32.6229C13.2916 32.8531 13.4834 33.1814 13.5815 33.3519C13.9865 34.051 14.9968 35.1679 15.632 35.6155C16.3737 36.1399 17.0558 36.3829 17.87 36.417C18.4881 36.4425 18.7056 36.3956 18.8931 36.1953C18.9613 36.1143 19.1148 36.012 19.2256 35.9651C19.3365 35.9182 19.426 35.85 19.426 35.8201C19.426 35.6965 19.2001 35.0784 19.0423 34.7587C18.6374 33.9444 18.1514 33.4286 17.3713 32.981C16.6593 32.5718 16.0583 32.3842 15.0991 32.2734C14.5279 32.2052 12.9037 32.1327 12.9037 32.1796Z" fill="black"/>
<path d="M26.6134 35.266C26.4727 35.9651 26.4045 36.6898 26.4003 37.5595C26.396 38.7829 26.5196 39.4693 26.8905 40.2963C27.1889 40.9655 27.8539 41.8011 28.3569 42.1421C28.5275 42.2615 28.6212 42.2913 28.8344 42.3041L29.0987 42.3212L29.201 42.1165C29.6912 41.1446 29.8277 39.9424 29.5506 39.0089C29.3374 38.2884 28.9751 37.6404 28.3484 36.8561C28.0713 36.5065 26.7328 35.1509 26.6688 35.1509C26.6518 35.1509 26.6262 35.202 26.6134 35.266Z" fill="black"/>
<path d="M17.2094 36.6855C16.9152 36.7282 16.4506 36.8006 16.1692 36.8518C15.8921 36.8987 15.6577 36.9413 15.6449 36.9413C15.6364 36.9413 15.7856 37.1204 15.9774 37.3378C16.1692 37.5552 16.3781 37.828 16.4421 37.9474C16.5145 38.0795 16.7149 38.2969 16.9792 38.5314C18.6289 39.9936 20.1593 40.5179 21.6215 40.13C21.9327 40.049 21.9839 40.0192 22.197 39.8018C22.3249 39.6696 22.504 39.5247 22.5935 39.4778C22.7896 39.3755 22.7853 39.3328 22.5338 38.8852C21.9242 37.8067 21.0119 37.0948 19.895 36.822C18.9657 36.5918 18.1472 36.5534 17.2094 36.6855Z" fill="black"/>
<path d="M30.2113 38.9193C30.2113 39.0216 30.7911 40.4071 30.9999 40.8078C32.0913 42.9052 33.4298 44.0221 34.9261 44.0945L35.3567 44.1116L35.4888 43.9837C35.5656 43.9112 35.6935 43.8387 35.7745 43.8217C35.8554 43.8089 35.9364 43.7791 35.945 43.7577C35.9578 43.7407 35.945 43.5446 35.9194 43.3272C35.8299 42.5812 35.557 41.8437 35.1819 41.3151C34.9474 40.9826 34.406 40.4668 34.048 40.2323C33.3531 39.7719 32.3001 39.3669 31.0213 39.0685C30.2966 38.9022 30.2113 38.8852 30.2113 38.9193Z" fill="black"/>
<path d="M22.5509 40.2664C22.0393 40.3218 21.5661 40.4241 20.9821 40.6117C20.3299 40.8206 19.4943 41.1446 19.4815 41.1915C19.4773 41.2085 19.6393 41.3492 19.8396 41.4984C20.0656 41.6689 20.2275 41.8266 20.2574 41.9034C20.3299 42.0782 20.445 42.1762 20.8585 42.432C22.0947 43.1951 23.3267 43.5872 24.3498 43.5361C25.1555 43.4935 26.055 43.1609 26.2681 42.8242C26.3236 42.7389 26.4856 42.5599 26.6348 42.4277L26.9033 42.1933L26.7243 41.9588C26.1189 41.1574 25.2536 40.5691 24.3669 40.3517C23.9491 40.2494 23.0837 40.211 22.5509 40.2664Z" fill="black"/>
<path d="M27.9733 42.9051C27.1122 43.0885 26.2468 43.4721 25.3388 44.0775C24.3583 44.7339 23.9959 45.0409 24.2048 45.0409C24.2304 45.0409 24.3881 45.1048 24.5629 45.1858C24.7889 45.2881 24.8912 45.3649 24.9295 45.4501C25.0105 45.6164 25.2024 45.7016 25.8844 45.8764C27.3424 46.243 28.472 46.2345 29.4909 45.8551C30.0195 45.6547 30.6675 45.1773 30.919 44.7979C31.0085 44.6657 31.1833 44.4142 31.3069 44.2352C31.5755 43.8643 31.5883 43.9069 31.0852 43.5702C30.6845 43.3016 30.2667 43.1098 29.8063 42.9691C29.2863 42.8156 28.536 42.79 27.9733 42.9051Z" fill="black"/>
<path d="M33.2166 44.7169C32.6113 44.8619 32.1552 45.0537 31.4305 45.4757C30.8592 45.8082 29.2649 47.0957 29.3374 47.1681C29.3544 47.1809 29.5334 47.2491 29.7338 47.3216C30.045 47.4282 30.1089 47.4665 30.1175 47.5475C30.1388 47.6925 30.386 47.7863 31.0212 47.9056C31.4731 47.9866 31.6948 48.0037 32.4919 47.9994C33.3744 47.9994 33.4554 47.9909 33.8561 47.8843C34.9602 47.5859 35.6337 47.0743 36.2646 46.064C36.4522 45.7613 36.6057 45.497 36.6057 45.48C36.6057 45.3862 35.7062 44.9301 35.1989 44.7638C34.892 44.6615 34.747 44.6445 34.2397 44.6317C33.7239 44.6189 33.5832 44.6274 33.2166 44.7169Z" fill="black"/>
<path d="M56.5326 20.8078C56.8044 20.6289 57.0762 20.45 57.3016 20.2554C57.5271 20.0609 57.7063 19.8505 57.8118 19.6472C57.9173 19.4438 57.9491 19.2472 57.9308 19.036C57.9125 18.8248 57.8439 18.5989 57.7509 18.3235C57.658 18.0482 57.5408 17.7235 57.4893 17.4208C57.4377 17.1181 57.4521 16.8376 57.4878 16.6295C57.5235 16.4215 57.5806 16.2861 57.6301 16.1537C57.6797 16.0212 57.7218 15.8917 57.8244 15.6903C57.927 15.4889 58.0901 15.2158 58.2532 14.9425" stroke="black" stroke-width="1.5" stroke-linecap="round"/>
<path d="M68.7284 20.5057C69.0002 20.3268 69.272 20.1479 69.4974 19.9534C69.7229 19.7588 69.9021 19.5484 70.0076 19.3451C70.1131 19.1417 70.1449 18.9452 70.1266 18.734C70.1083 18.5228 70.0397 18.2968 69.9467 18.0215C69.8538 17.7461 69.7366 17.4214 69.6851 17.1187C69.6335 16.8161 69.6479 16.5355 69.6836 16.3275C69.7193 16.1194 69.7764 15.984 69.8259 15.8516C69.8755 15.7192 69.9176 15.5897 70.0202 15.3883C70.1228 15.1869 70.2859 14.9137 70.449 14.6404" stroke="black" stroke-width="1.5" stroke-linecap="round"/>
<path d="M62.895 19.2935C63.1669 19.1146 63.4386 18.9357 63.664 18.7412C63.8895 18.5466 64.0687 18.3362 64.1742 18.1329C64.2798 17.9295 64.3116 17.7329 64.2932 17.5217C64.2749 17.3105 64.2063 17.0846 64.1134 16.8092C64.0204 16.5339 63.9032 16.2092 63.8517 15.9065C63.8002 15.6038 63.8145 15.3233 63.8502 15.1153C63.8859 14.9072 63.943 14.7718 63.9926 14.6394C64.0421 14.507 64.0842 14.3775 64.1868 14.1761C64.2894 13.9747 64.4525 13.7015 64.6156 13.4282" stroke="black" stroke-width="1.5" stroke-linecap="round"/>
<path d="M80.479 39.4322C80.1531 39.4339 59.2704 39.5444 53.8675 39.5233C48.4647 39.5021 48.4267 39.4024 48.4266 39.5544C48.4266 39.7063 48.4645 40.11 48.6138 40.497C48.763 40.8841 49.0232 41.2545 49.3576 41.5847C49.692 41.9149 50.086 42.1947 50.3788 42.3561C50.6716 42.5174 50.8559 42.5554 55.4373 42.5696C60.0187 42.5838 68.9969 42.5743 73.5294 42.5505C78.0618 42.5267 78.1486 42.4888 78.4034 42.3748C78.6582 42.2608 79.0811 42.0708 79.4822 41.7432C79.8833 41.4156 80.2628 40.9502 80.4743 40.5941C80.6857 40.2381 80.7163 40.0635 80.7514 39.8364C80.7865 39.6092 80.7942 39.535 80.805 39.4305C80.805 39.4305 80.805 39.4305 80.479 39.4322Z" stroke="black" stroke-width="1.4" stroke-linecap="round" stroke-linejoin="round"/>
<path d="M76.2782 26.7325C76.1913 26.1197 76.1043 25.5066 75.9264 25.1405C75.7486 24.7745 75.4796 24.6558 75.298 24.5962C75.1163 24.5365 75.0221 24.536 71.1763 24.5526C67.3305 24.5692 59.7334 24.6027 55.9053 24.6201C52.0772 24.6375 52.0181 24.6386 51.947 24.6451C51.8759 24.6516 51.7929 24.6635 51.676 24.7248C51.5592 24.7861 51.4089 24.8969 51.2854 25.0628C51.162 25.2288 51.0685 25.443 51.0201 25.978C50.9718 26.5129 50.9698 27.365 50.9857 27.9869C51.0015 28.6088 51.0351 29.0004 51.1627 29.651C51.2903 30.3016 51.5118 31.2112 51.8164 32.1209C52.1211 33.0307 52.5087 33.9405 53.1635 34.9143C53.8183 35.888 54.74 36.9258 55.6005 37.6958C56.4609 38.4658 57.26 38.9682 57.6753 39.2192C58.0906 39.4703 58.1223 39.4703 59.9901 39.4643C61.858 39.4584 65.5619 39.4465 67.4296 39.4346C69.2974 39.4227 69.329 39.4108 69.7303 39.1254C70.1316 38.8399 70.9026 38.2808 71.6323 37.665C72.362 37.0493 73.0503 36.3768 73.6792 35.5303C74.3082 34.6838 74.8778 33.6632 75.2903 32.7063C75.7027 31.7493 75.9538 30.8705 76.0922 29.8895C76.2306 28.9085 76.2545 27.8167 76.2901 27.2509C76.3257 26.685 76.3732 26.6375 76.6305 26.627C76.8879 26.6164 77.3547 26.6428 77.8175 26.7154C78.2804 26.788 78.7393 26.9066 79.0873 27.1164C79.4354 27.3263 79.6727 27.6269 79.8703 27.909C80.0679 28.191 80.2257 28.4545 80.3409 28.8435C80.4561 29.2326 80.5288 29.7472 80.5456 30.2591C80.5623 30.7709 80.5231 31.28 80.4112 31.7331C80.2993 32.1861 80.1147 32.5833 79.8266 32.9944C79.5385 33.4056 79.1469 33.8307 78.7106 34.2083C78.2743 34.5859 77.7932 34.916 77.2254 35.2209C76.6576 35.5257 76.0031 35.8055 75.3011 35.9957C74.599 36.1859 73.8494 36.2866 73.0994 36.3874" stroke="black" stroke-width="1.4" stroke-linecap="round"/>
<g filter="url(#filter0_d_17_2952)">
<path d="M103.276 12.8636V24.5H101.663L95.7478 15.9659H95.6398V24.5H93.8841V12.8636H95.5091L101.43 21.4091H101.538V12.8636H103.276ZM109.377 24.6761C108.559 24.6761 107.845 24.4886 107.235 24.1136C106.625 23.7386 106.152 23.214 105.815 22.5398C105.477 21.8655 105.309 21.0776 105.309 20.1761C105.309 19.2708 105.477 18.4792 105.815 17.8011C106.152 17.1231 106.625 16.5966 107.235 16.2216C107.845 15.8466 108.559 15.6591 109.377 15.6591C110.195 15.6591 110.909 15.8466 111.519 16.2216C112.129 16.5966 112.602 17.1231 112.94 17.8011C113.277 18.4792 113.445 19.2708 113.445 20.1761C113.445 21.0776 113.277 21.8655 112.94 22.5398C112.602 23.214 112.129 23.7386 111.519 24.1136C110.909 24.4886 110.195 24.6761 109.377 24.6761ZM109.383 23.25C109.913 23.25 110.352 23.1098 110.701 22.8295C111.049 22.5492 111.307 22.1761 111.474 21.7102C111.644 21.2443 111.729 20.7311 111.729 20.1705C111.729 19.6136 111.644 19.1023 111.474 18.6364C111.307 18.1667 111.049 17.7898 110.701 17.5057C110.352 17.2216 109.913 17.0795 109.383 17.0795C108.849 17.0795 108.405 17.2216 108.053 17.5057C107.705 17.7898 107.445 18.1667 107.275 18.6364C107.108 19.1023 107.025 19.6136 107.025 20.1705C107.025 20.7311 107.108 21.2443 107.275 21.7102C107.445 22.1761 107.705 22.5492 108.053 22.8295C108.405 23.1098 108.849 23.25 109.383 23.25ZM115.342 24.5V15.7727H116.972V17.1932H117.08C117.262 16.7121 117.559 16.3371 117.972 16.0682C118.385 15.7955 118.879 15.6591 119.455 15.6591C120.038 15.6591 120.527 15.7955 120.921 16.0682C121.319 16.3409 121.612 16.7159 121.802 17.1932H121.893C122.101 16.7273 122.432 16.3561 122.887 16.0795C123.341 15.7992 123.883 15.6591 124.512 15.6591C125.304 15.6591 125.949 15.9072 126.449 16.4034C126.953 16.8996 127.205 17.6477 127.205 18.6477V24.5H125.506V18.8068C125.506 18.2159 125.345 17.7879 125.023 17.5227C124.701 17.2576 124.317 17.125 123.87 17.125C123.317 17.125 122.887 17.2955 122.58 17.6364C122.273 17.9735 122.12 18.4072 122.12 18.9375V24.5H120.427V18.6989C120.427 18.2254 120.279 17.8447 119.984 17.5568C119.688 17.2689 119.304 17.125 118.83 17.125C118.508 17.125 118.211 17.2102 117.938 17.3807C117.669 17.5473 117.451 17.7803 117.285 18.0795C117.122 18.3788 117.04 18.7254 117.04 19.1193V24.5H115.342ZM129.482 24.5V15.7727H131.181V24.5H129.482ZM130.34 14.4261C130.045 14.4261 129.791 14.3276 129.579 14.1307C129.37 13.9299 129.266 13.6913 129.266 13.4148C129.266 13.1345 129.37 12.8958 129.579 12.6989C129.791 12.4981 130.045 12.3977 130.34 12.3977C130.636 12.3977 130.887 12.4981 131.096 12.6989C131.308 12.8958 131.414 13.1345 131.414 13.4148C131.414 13.6913 131.308 13.9299 131.096 14.1307C130.887 14.3276 130.636 14.4261 130.34 14.4261ZM135.165 19.3182V24.5H133.466V15.7727H135.097V17.1932H135.205C135.406 16.7311 135.72 16.3598 136.148 16.0795C136.58 15.7992 137.124 15.6591 137.779 15.6591C138.374 15.6591 138.895 15.7841 139.341 16.0341C139.788 16.2803 140.135 16.6477 140.381 17.1364C140.627 17.625 140.751 18.2292 140.751 18.9489V24.5H139.052V19.1534C139.052 18.5208 138.887 18.0265 138.557 17.6705C138.228 17.3106 137.775 17.1307 137.199 17.1307C136.806 17.1307 136.455 17.2159 136.148 17.3864C135.845 17.5568 135.605 17.8068 135.427 18.1364C135.252 18.4621 135.165 18.8561 135.165 19.3182ZM145.569 24.6932C145.016 24.6932 144.516 24.5909 144.069 24.3864C143.622 24.178 143.268 23.8769 143.006 23.483C142.749 23.089 142.62 22.6061 142.62 22.0341C142.62 21.5417 142.715 21.1364 142.904 20.8182C143.093 20.5 143.349 20.2481 143.671 20.0625C143.993 19.8769 144.353 19.7367 144.751 19.642C145.148 19.5473 145.554 19.4754 145.966 19.4261C146.489 19.3655 146.913 19.3163 147.239 19.2784C147.565 19.2367 147.802 19.1705 147.949 19.0795C148.097 18.9886 148.171 18.8409 148.171 18.6364V18.5966C148.171 18.1004 148.031 17.7159 147.751 17.4432C147.474 17.1705 147.061 17.0341 146.512 17.0341C145.94 17.0341 145.489 17.161 145.16 17.4148C144.834 17.6648 144.609 17.9432 144.484 18.25L142.887 17.8864C143.076 17.3561 143.353 16.928 143.716 16.6023C144.084 16.2727 144.506 16.0341 144.984 15.8864C145.461 15.7348 145.963 15.6591 146.489 15.6591C146.838 15.6591 147.207 15.7008 147.597 15.7841C147.991 15.8636 148.359 16.0114 148.699 16.2273C149.044 16.4432 149.326 16.7519 149.546 17.1534C149.766 17.5511 149.876 18.0682 149.876 18.7045V24.5H148.216V23.3068H148.148C148.038 23.5265 147.874 23.7424 147.654 23.9545C147.434 24.1667 147.152 24.3428 146.807 24.483C146.463 24.6231 146.05 24.6932 145.569 24.6932ZM145.938 23.3295C146.408 23.3295 146.809 23.2367 147.143 23.0511C147.48 22.8655 147.735 22.6231 147.91 22.3239C148.088 22.0208 148.177 21.697 148.177 21.3523V20.2273C148.116 20.2879 147.999 20.3447 147.824 20.3977C147.654 20.447 147.459 20.4905 147.239 20.5284C147.02 20.5625 146.806 20.5947 146.597 20.625C146.389 20.6515 146.215 20.6742 146.074 20.6932C145.745 20.7348 145.444 20.8049 145.171 20.9034C144.902 21.0019 144.686 21.1439 144.523 21.3295C144.364 21.5114 144.285 21.7538 144.285 22.0568C144.285 22.4773 144.44 22.7955 144.751 23.0114C145.061 23.2235 145.457 23.3295 145.938 23.3295ZM156.212 15.7727V17.1364H151.445V15.7727H156.212ZM152.724 13.6818H154.422V21.9375C154.422 22.267 154.472 22.5151 154.57 22.6818C154.669 22.8447 154.796 22.9564 154.951 23.017C155.11 23.0739 155.282 23.1023 155.468 23.1023C155.604 23.1023 155.724 23.0928 155.826 23.0739C155.928 23.0549 156.008 23.0398 156.065 23.0284L156.371 24.4318C156.273 24.4697 156.133 24.5076 155.951 24.5455C155.769 24.5871 155.542 24.6098 155.269 24.6136C154.822 24.6212 154.405 24.5417 154.019 24.375C153.633 24.2083 153.32 23.9508 153.082 23.6023C152.843 23.2538 152.724 22.8163 152.724 22.2898V13.6818ZM161.759 24.6761C160.899 24.6761 160.159 24.4924 159.538 24.125C158.92 23.7538 158.443 23.233 158.106 22.5625C157.772 21.8883 157.606 21.0985 157.606 20.1932C157.606 19.2992 157.772 18.5114 158.106 17.8295C158.443 17.1477 158.913 16.6155 159.515 16.233C160.121 15.8504 160.829 15.6591 161.64 15.6591C162.132 15.6591 162.609 15.7405 163.072 15.9034C163.534 16.0663 163.948 16.322 164.316 16.6705C164.683 17.0189 164.973 17.4716 165.185 18.0284C165.397 18.5814 165.503 19.2538 165.503 20.0455V20.6477H158.566V19.375H163.839C163.839 18.928 163.748 18.5322 163.566 18.1875C163.384 17.839 163.128 17.5644 162.799 17.3636C162.473 17.1629 162.091 17.0625 161.651 17.0625C161.174 17.0625 160.757 17.1799 160.401 17.4148C160.049 17.6458 159.776 17.9489 159.583 18.3239C159.394 18.6951 159.299 19.0985 159.299 19.5341V20.5284C159.299 21.1117 159.401 21.608 159.606 22.017C159.814 22.4261 160.104 22.7386 160.475 22.9545C160.846 23.1667 161.28 23.2727 161.776 23.2727C162.098 23.2727 162.392 23.2273 162.657 23.1364C162.922 23.0417 163.151 22.9015 163.344 22.7159C163.538 22.5303 163.685 22.3011 163.788 22.0284L165.395 22.3182C165.267 22.7917 165.036 23.2064 164.702 23.5625C164.373 23.9148 163.958 24.1894 163.458 24.3864C162.962 24.5795 162.395 24.6761 161.759 24.6761ZM170.655 24.6705C169.951 24.6705 169.322 24.4905 168.769 24.1307C168.22 23.767 167.788 23.25 167.474 22.5795C167.163 21.9053 167.008 21.0966 167.008 20.1534C167.008 19.2102 167.165 18.4034 167.479 17.733C167.797 17.0625 168.233 16.5492 168.786 16.1932C169.339 15.8371 169.966 15.6591 170.667 15.6591C171.208 15.6591 171.644 15.75 171.974 15.9318C172.307 16.1098 172.564 16.3182 172.746 16.5568C172.932 16.7955 173.076 17.0057 173.178 17.1875H173.28V12.8636H174.979V24.5H173.32V23.142H173.178C173.076 23.3276 172.928 23.5398 172.735 23.7784C172.546 24.017 172.284 24.2254 171.951 24.4034C171.618 24.5814 171.186 24.6705 170.655 24.6705ZM171.03 23.2216C171.519 23.2216 171.932 23.0928 172.269 22.8352C172.61 22.5739 172.868 22.2121 173.042 21.75C173.22 21.2879 173.309 20.75 173.309 20.1364C173.309 19.5303 173.222 19 173.047 18.5455C172.873 18.0909 172.618 17.7367 172.28 17.483C171.943 17.2292 171.527 17.1023 171.03 17.1023C170.519 17.1023 170.093 17.2348 169.752 17.5C169.411 17.7651 169.154 18.1269 168.979 18.5852C168.809 19.0436 168.724 19.5606 168.724 20.1364C168.724 20.7197 168.811 21.2443 168.985 21.7102C169.159 22.1761 169.417 22.5455 169.758 22.8182C170.102 23.0871 170.527 23.2216 171.03 23.2216ZM185.792 15.7727V17.1364H180.86V15.7727H185.792ZM182.212 24.5V14.7614C182.212 14.2159 182.332 13.7633 182.57 13.4034C182.809 13.0398 183.125 12.7689 183.519 12.5909C183.913 12.4091 184.341 12.3182 184.803 12.3182C185.144 12.3182 185.436 12.3466 185.678 12.4034C185.921 12.4564 186.1 12.5057 186.218 12.5511L185.82 13.9261C185.741 13.9034 185.638 13.8769 185.513 13.8466C185.388 13.8125 185.237 13.7955 185.059 13.7955C184.646 13.7955 184.35 13.8977 184.172 14.1023C183.998 14.3068 183.911 14.6023 183.911 14.9886V24.5H182.212ZM190.877 24.6761C190.059 24.6761 189.345 24.4886 188.735 24.1136C188.125 23.7386 187.652 23.214 187.314 22.5398C186.977 21.8655 186.809 21.0776 186.809 20.1761C186.809 19.2708 186.977 18.4792 187.314 17.8011C187.652 17.1231 188.125 16.5966 188.735 16.2216C189.345 15.8466 190.059 15.6591 190.877 15.6591C191.695 15.6591 192.409 15.8466 193.019 16.2216C193.629 16.5966 194.102 17.1231 194.439 17.8011C194.777 18.4792 194.945 19.2708 194.945 20.1761C194.945 21.0776 194.777 21.8655 194.439 22.5398C194.102 23.214 193.629 23.7386 193.019 24.1136C192.409 24.4886 191.695 24.6761 190.877 24.6761ZM190.883 23.25C191.413 23.25 191.852 23.1098 192.201 22.8295C192.549 22.5492 192.807 22.1761 192.974 21.7102C193.144 21.2443 193.229 20.7311 193.229 20.1705C193.229 19.6136 193.144 19.1023 192.974 18.6364C192.807 18.1667 192.549 17.7898 192.201 17.5057C191.852 17.2216 191.413 17.0795 190.883 17.0795C190.349 17.0795 189.905 17.2216 189.553 17.5057C189.205 17.7898 188.945 18.1667 188.775 18.6364C188.608 19.1023 188.525 19.6136 188.525 20.1705C188.525 20.7311 188.608 21.2443 188.775 21.7102C188.945 22.1761 189.205 22.5492 189.553 22.8295C189.905 23.1098 190.349 23.25 190.883 23.25ZM196.841 24.5V15.7727H198.484V17.1591H198.574C198.734 16.6894 199.014 16.3201 199.415 16.0511C199.821 15.7784 200.279 15.642 200.79 15.642C200.896 15.642 201.021 15.6458 201.165 15.6534C201.313 15.661 201.429 15.6705 201.512 15.6818V17.3068C201.444 17.2879 201.323 17.267 201.148 17.2443C200.974 17.2178 200.8 17.2045 200.626 17.2045C200.224 17.2045 199.866 17.2898 199.552 17.4602C199.241 17.6269 198.995 17.8598 198.813 18.1591C198.631 18.4545 198.54 18.7917 198.54 19.1705V24.5H196.841Z" fill="black"/>
<path d="M96.5157 44.5V34.368H93.0987V31.835H102.993V34.368H99.5587V44.5H96.5157ZM107.446 44.738C106.517 44.738 105.678 44.5397 104.93 44.143C104.194 43.735 103.604 43.1513 103.162 42.392C102.732 41.6327 102.516 40.7203 102.516 39.655C102.516 38.873 102.641 38.1703 102.89 37.547C103.151 36.9237 103.497 36.391 103.927 35.949C104.369 35.507 104.862 35.1727 105.406 34.946C105.962 34.708 106.528 34.589 107.106 34.589C108.036 34.589 108.806 34.793 109.418 35.201C110.03 35.609 110.489 36.1643 110.795 36.867C111.101 37.5697 111.254 38.363 111.254 39.247C111.254 39.519 111.237 39.774 111.203 40.012C111.181 40.25 111.152 40.4313 111.118 40.556H105.44C105.531 40.998 105.69 41.355 105.916 41.627C106.143 41.899 106.421 42.103 106.749 42.239C107.078 42.3637 107.446 42.426 107.854 42.426C108.206 42.426 108.546 42.375 108.874 42.273C109.203 42.171 109.543 42.018 109.894 41.814L110.897 43.633C110.399 43.9843 109.838 44.2563 109.214 44.449C108.602 44.6417 108.013 44.738 107.446 44.738ZM105.389 38.567H108.687C108.687 38.091 108.568 37.6943 108.33 37.377C108.104 37.0597 107.713 36.901 107.157 36.901C106.885 36.901 106.625 36.9633 106.375 37.088C106.137 37.2013 105.928 37.3827 105.746 37.632C105.576 37.87 105.457 38.1817 105.389 38.567ZM115.286 44.738C114.697 44.738 114.187 44.6077 113.756 44.347C113.326 44.075 112.991 43.718 112.753 43.276C112.527 42.8227 112.413 42.3297 112.413 41.797C112.413 40.777 112.838 39.9837 113.688 39.417C114.538 38.839 115.904 38.448 117.785 38.244C117.763 37.9833 117.7 37.7623 117.598 37.581C117.496 37.3883 117.338 37.2467 117.122 37.156C116.918 37.054 116.652 37.003 116.323 37.003C115.938 37.003 115.541 37.0767 115.133 37.224C114.725 37.3713 114.278 37.581 113.79 37.853L112.736 35.864C113.167 35.6033 113.603 35.3823 114.045 35.201C114.499 35.0083 114.963 34.861 115.439 34.759C115.915 34.6457 116.403 34.589 116.901 34.589C117.74 34.589 118.448 34.7477 119.026 35.065C119.604 35.3823 120.046 35.8697 120.352 36.527C120.658 37.173 120.811 38.0003 120.811 39.009V44.5H118.346L118.142 43.531H118.057C117.661 43.8823 117.23 44.1713 116.765 44.398C116.312 44.6247 115.819 44.738 115.286 44.738ZM116.323 42.392C116.629 42.392 116.896 42.324 117.122 42.188C117.349 42.052 117.57 41.865 117.785 41.627V40.08C117.162 40.1593 116.663 40.2727 116.289 40.42C115.927 40.5673 115.666 40.7373 115.507 40.93C115.36 41.1227 115.286 41.3323 115.286 41.559C115.286 41.8423 115.377 42.052 115.558 42.188C115.751 42.324 116.006 42.392 116.323 42.392ZM128.741 44.738C127.936 44.738 127.177 44.602 126.463 44.33C125.749 44.058 125.114 43.65 124.559 43.106C124.015 42.5507 123.584 41.8707 123.267 41.066C122.961 40.25 122.808 39.3093 122.808 38.244C122.808 37.19 122.967 36.255 123.284 35.439C123.613 34.6117 124.055 33.9147 124.61 33.348C125.177 32.7813 125.823 32.3507 126.548 32.056C127.273 31.7613 128.038 31.614 128.843 31.614C129.67 31.614 130.407 31.7783 131.053 32.107C131.71 32.4357 132.254 32.821 132.685 33.263L131.104 35.201C130.787 34.9063 130.452 34.6683 130.101 34.487C129.75 34.3057 129.347 34.215 128.894 34.215C128.35 34.215 127.851 34.3737 127.398 34.691C126.945 34.997 126.582 35.4447 126.31 36.034C126.049 36.612 125.919 37.3147 125.919 38.142C125.919 38.9807 126.038 39.7003 126.276 40.301C126.525 40.8903 126.871 41.3437 127.313 41.661C127.755 41.967 128.271 42.12 128.86 42.12C129.37 42.12 129.823 42.0067 130.22 41.78C130.628 41.5533 130.979 41.2813 131.274 40.964L132.872 42.868C132.339 43.4913 131.722 43.9617 131.019 44.279C130.328 44.585 129.568 44.738 128.741 44.738ZM138.686 44.738C137.87 44.738 137.099 44.5397 136.374 44.143C135.649 43.735 135.059 43.1513 134.606 42.392C134.164 41.6327 133.943 40.7203 133.943 39.655C133.943 38.5897 134.164 37.683 134.606 36.935C135.059 36.1757 135.649 35.5977 136.374 35.201C137.099 34.793 137.87 34.589 138.686 34.589C139.298 34.589 139.887 34.7023 140.454 34.929C141.021 35.1557 141.525 35.49 141.967 35.932C142.409 36.3627 142.76 36.8897 143.021 37.513C143.282 38.1363 143.412 38.8503 143.412 39.655C143.412 40.7203 143.185 41.6327 142.732 42.392C142.29 43.1513 141.706 43.735 140.981 44.143C140.267 44.5397 139.502 44.738 138.686 44.738ZM138.686 42.29C139.06 42.29 139.366 42.1823 139.604 41.967C139.853 41.7517 140.035 41.4457 140.148 41.049C140.261 40.6523 140.318 40.1877 140.318 39.655C140.318 39.1223 140.261 38.6633 140.148 38.278C140.035 37.8813 139.853 37.5753 139.604 37.36C139.366 37.1447 139.06 37.037 138.686 37.037C138.312 37.037 138 37.1447 137.751 37.36C137.513 37.5753 137.332 37.8813 137.207 38.278C137.094 38.6633 137.037 39.1223 137.037 39.655C137.037 40.1877 137.094 40.6523 137.207 41.049C137.332 41.4457 137.513 41.7517 137.751 41.967C138 42.1823 138.312 42.29 138.686 42.29ZM145.311 44.5V34.827H147.776L147.997 36.034H148.048C148.445 35.6373 148.892 35.2973 149.391 35.014C149.901 34.7307 150.485 34.589 151.142 34.589C152.196 34.589 152.961 34.9403 153.437 35.643C153.913 36.3457 154.151 37.3033 154.151 38.516V44.5H151.125V38.89C151.125 38.2213 151.034 37.768 150.853 37.53C150.672 37.292 150.388 37.173 150.003 37.173C149.663 37.173 149.374 37.2467 149.136 37.394C148.898 37.5413 148.632 37.7567 148.337 38.04V44.5H145.311ZM159.875 44.5V42.766C160.895 41.814 161.802 40.9413 162.595 40.148C163.4 39.3433 164.029 38.6067 164.482 37.938C164.936 37.2693 165.162 36.646 165.162 36.068C165.162 35.6713 165.094 35.3427 164.958 35.082C164.834 34.8213 164.647 34.623 164.397 34.487C164.148 34.351 163.853 34.283 163.513 34.283C163.083 34.283 162.692 34.4133 162.34 34.674C162 34.9233 161.677 35.201 161.371 35.507L159.722 33.875C160.346 33.2177 160.975 32.7303 161.609 32.413C162.255 32.0843 163.026 31.92 163.921 31.92C164.737 31.92 165.457 32.0843 166.08 32.413C166.704 32.7417 167.191 33.2063 167.542 33.807C167.894 34.3963 168.069 35.0933 168.069 35.898C168.069 36.578 167.882 37.275 167.508 37.989C167.134 38.6917 166.653 39.3943 166.063 40.097C165.485 40.7883 164.879 41.4627 164.244 42.12C164.562 42.0747 164.913 42.035 165.298 42.001C165.695 41.967 166.035 41.95 166.318 41.95H168.647V44.5H159.875ZM174.706 44.738C173.81 44.738 173.023 44.4943 172.343 44.007C171.674 43.5083 171.153 42.783 170.779 41.831C170.405 40.8677 170.218 39.6833 170.218 38.278C170.218 36.8727 170.405 35.6997 170.779 34.759C171.153 33.8183 171.674 33.11 172.343 32.634C173.023 32.158 173.81 31.92 174.706 31.92C175.601 31.92 176.383 32.158 177.052 32.634C177.72 33.11 178.242 33.8183 178.616 34.759C178.99 35.6997 179.177 36.8727 179.177 38.278C179.177 39.6833 178.99 40.8677 178.616 41.831C178.242 42.783 177.72 43.5083 177.052 44.007C176.383 44.4943 175.601 44.738 174.706 44.738ZM174.706 42.392C175.012 42.392 175.284 42.2843 175.522 42.069C175.771 41.8423 175.964 41.4343 176.1 40.845C176.247 40.2443 176.321 39.3887 176.321 38.278C176.321 37.1673 176.247 36.323 176.1 35.745C175.964 35.167 175.771 34.776 175.522 34.572C175.284 34.368 175.012 34.266 174.706 34.266C174.411 34.266 174.139 34.368 173.89 34.572C173.64 34.776 173.442 35.167 173.295 35.745C173.147 36.323 173.074 37.1673 173.074 38.278C173.074 39.3887 173.147 40.2443 173.295 40.845C173.442 41.4343 173.64 41.8423 173.89 42.069C174.139 42.2843 174.411 42.392 174.706 42.392ZM180.594 44.5V42.766C181.614 41.814 182.521 40.9413 183.314 40.148C184.119 39.3433 184.748 38.6067 185.201 37.938C185.654 37.2693 185.881 36.646 185.881 36.068C185.881 35.6713 185.813 35.3427 185.677 35.082C185.552 34.8213 185.365 34.623 185.116 34.487C184.867 34.351 184.572 34.283 184.232 34.283C183.801 34.283 183.41 34.4133 183.059 34.674C182.719 34.9233 182.396 35.201 182.09 35.507L180.441 33.875C181.064 33.2177 181.693 32.7303 182.328 32.413C182.974 32.0843 183.745 31.92 184.64 31.92C185.456 31.92 186.176 32.0843 186.799 32.413C187.422 32.7417 187.91 33.2063 188.261 33.807C188.612 34.3963 188.788 35.0933 188.788 35.898C188.788 36.578 188.601 37.275 188.227 37.989C187.853 38.6917 187.371 39.3943 186.782 40.097C186.204 40.7883 185.598 41.4627 184.963 42.12C185.28 42.0747 185.632 42.035 186.017 42.001C186.414 41.967 186.754 41.95 187.037 41.95H189.366V44.5H180.594ZM190.953 44.5V42.766C191.973 41.814 192.88 40.9413 193.673 40.148C194.478 39.3433 195.107 38.6067 195.56 37.938C196.014 37.2693 196.24 36.646 196.24 36.068C196.24 35.6713 196.172 35.3427 196.036 35.082C195.912 34.8213 195.725 34.623 195.475 34.487C195.226 34.351 194.931 34.283 194.591 34.283C194.161 34.283 193.77 34.4133 193.418 34.674C193.078 34.9233 192.755 35.201 192.449 35.507L190.8 33.875C191.424 33.2177 192.053 32.7303 192.687 32.413C193.333 32.0843 194.104 31.92 194.999 31.92C195.815 31.92 196.535 32.0843 197.158 32.413C197.782 32.7417 198.269 33.2063 198.62 33.807C198.972 34.3963 199.147 35.0933 199.147 35.898C199.147 36.578 198.96 37.275 198.586 37.989C198.212 38.6917 197.731 39.3943 197.141 40.097C196.563 40.7883 195.957 41.4627 195.322 42.12C195.64 42.0747 195.991 42.035 196.376 42.001C196.773 41.967 197.113 41.95 197.396 41.95H199.725V44.5H190.953ZM211.394 29.965H217.174V32.175H213.825V40.76H211.394V29.965ZM219.86 29.965L221.951 30.492C221.747 31.4553 221.492 32.447 221.186 33.467C220.891 34.4757 220.557 35.4447 220.183 36.374C219.809 37.292 219.407 38.1023 218.976 38.805C218.919 38.6237 218.823 38.38 218.687 38.074C218.562 37.7567 218.421 37.4393 218.262 37.122C218.115 36.8047 217.979 36.5497 217.854 36.357C218.16 35.813 218.438 35.1953 218.687 34.504C218.936 33.8127 219.157 33.0817 219.35 32.311C219.554 31.529 219.724 30.747 219.86 29.965ZM219.367 34.657L221.271 32.753L221.322 32.787V46.064H219.367V34.657ZM225.47 43.208L226.898 42.273C227.159 42.5563 227.431 42.868 227.714 43.208C227.997 43.5367 228.264 43.8597 228.513 44.177C228.762 44.4943 228.955 44.7833 229.091 45.044L227.578 46.098C227.453 45.8373 227.272 45.537 227.034 45.197C226.796 44.8683 226.541 44.5283 226.269 44.177C225.997 43.8257 225.731 43.5027 225.47 43.208ZM222.087 30.934H228.632V42.154H226.677V32.634H223.957V42.273H222.087V30.934ZM231.59 30.22H233.579V43.735C233.579 44.2337 233.528 44.636 233.426 44.942C233.335 45.248 233.154 45.486 232.882 45.656C232.599 45.8373 232.259 45.9507 231.862 45.996C231.465 46.0527 230.995 46.081 230.451 46.081C230.417 45.7977 230.343 45.452 230.23 45.044C230.117 44.6473 229.998 44.3017 229.873 44.007C230.179 44.0183 230.468 44.024 230.74 44.024C231.012 44.024 231.205 44.024 231.318 44.024C231.42 44.024 231.488 44.007 231.522 43.973C231.567 43.9277 231.59 43.8483 231.59 43.735V30.22ZM229.21 31.546H231.046V42.188H229.21V31.546ZM224.433 33.297H226.184V39.927C226.184 40.4937 226.144 41.0773 226.065 41.678C225.986 42.2673 225.827 42.8397 225.589 43.395C225.362 43.9503 225.028 44.466 224.586 44.942C224.144 45.4293 223.566 45.843 222.852 46.183C222.784 46.047 222.676 45.8883 222.529 45.707C222.393 45.5257 222.246 45.3443 222.087 45.163C221.94 44.993 221.809 44.8627 221.696 44.772C222.319 44.4773 222.812 44.1487 223.175 43.786C223.549 43.412 223.821 43.0153 223.991 42.596C224.172 42.1767 224.291 41.7403 224.348 41.287C224.405 40.8337 224.433 40.3747 224.433 39.91V33.297ZM235.585 30.679H250.613V34.827H248.029V32.957H238.05V34.827H235.585V30.679ZM240.515 34.436H248.25V36.544H240.515V34.436ZM239.886 37.564H247.4V39.706H239.886V37.564ZM236.01 40.505H245.36V42.766H236.01V40.505ZM246.737 37.564H249.219C249.219 37.564 249.213 37.6263 249.202 37.751C249.202 37.8643 249.196 38.0003 249.185 38.159C249.173 38.3177 249.156 38.448 249.134 38.55C249.02 39.91 248.896 41.0377 248.76 41.933C248.635 42.817 248.488 43.514 248.318 44.024C248.148 44.534 247.944 44.9137 247.706 45.163C247.434 45.4463 247.145 45.6447 246.839 45.758C246.533 45.8827 246.17 45.962 245.751 45.996C245.433 46.0413 245.02 46.0583 244.51 46.047C244 46.047 243.473 46.0413 242.929 46.03C242.906 45.69 242.815 45.299 242.657 44.857C242.509 44.4263 242.322 44.0523 242.096 43.735C242.64 43.7803 243.167 43.8087 243.677 43.82C244.187 43.8313 244.566 43.837 244.816 43.837C244.997 43.837 245.15 43.8257 245.275 43.803C245.399 43.769 245.518 43.7067 245.632 43.616C245.802 43.48 245.949 43.191 246.074 42.749C246.21 42.307 246.329 41.6893 246.431 40.896C246.544 40.0913 246.64 39.094 246.72 37.904L246.737 37.564ZM239.24 33.093L241.722 33.314C241.597 34.028 241.461 34.776 241.314 35.558C241.166 36.34 241.019 37.0937 240.872 37.819C240.736 38.533 240.6 39.162 240.464 39.706H237.914C238.073 39.128 238.231 38.465 238.39 37.717C238.549 36.9577 238.702 36.1757 238.849 35.371C239.007 34.5663 239.138 33.807 239.24 33.093ZM258.093 30.696H267.902V32.923H258.093V30.696ZM261.799 31.75H264.111V46.064H261.799V31.75ZM258.45 34.13H266.304V36.323H260.677V43.616H258.45V34.13ZM265.352 34.13H267.63V41.372C267.63 41.8367 267.584 42.222 267.494 42.528C267.403 42.8227 267.216 43.0607 266.933 43.242C266.649 43.4233 266.338 43.5367 265.998 43.582C265.669 43.616 265.289 43.633 264.859 43.633C264.825 43.3157 264.745 42.9587 264.621 42.562C264.496 42.154 264.366 41.8083 264.23 41.525C264.411 41.5363 264.592 41.542 264.774 41.542C264.955 41.542 265.08 41.542 265.148 41.542C265.227 41.542 265.278 41.525 265.301 41.491C265.335 41.457 265.352 41.4003 265.352 41.321V34.13ZM255.492 30.033H257.753V36.765C257.753 37.6263 257.719 38.482 257.651 39.332C257.583 40.182 257.447 41.0093 257.243 41.814C257.05 42.6187 256.75 43.378 256.342 44.092C255.934 44.806 255.39 45.4633 254.71 46.064C254.574 45.894 254.392 45.7013 254.166 45.486C253.95 45.282 253.724 45.0837 253.486 44.891C253.259 44.6983 253.049 44.5453 252.857 44.432C253.65 43.7633 254.228 43.021 254.591 42.205C254.965 41.3777 255.208 40.505 255.322 39.587C255.435 38.6577 255.492 37.7113 255.492 36.748V30.033ZM252.619 31.954H254.812V40.301H252.619V31.954ZM274.804 46.115H269.024V43.905H272.373V35.32H274.804V46.115Z" fill="black"/>
</g>
<path d="M305.449 8.66923C305.722 10.2293 306.11 11.2992 306.775 12.2882C307.223 12.9574 307.717 13.4177 308.301 13.7076C308.957 14.0401 309.507 14.1381 309.725 13.9676C309.784 13.9207 309.878 13.8824 309.938 13.8824C310.134 13.8824 310.151 13.8099 310.125 13.0853C310.104 12.3265 310.027 11.9685 309.78 11.4271C309.196 10.1739 307.981 9.16369 305.927 8.23871C305.637 8.10657 305.385 8.00001 305.368 8.00001C305.351 8.00001 305.385 8.30265 305.449 8.66923Z" fill="black"/>
<path d="M311.916 9.75618C310.837 11.7852 310.492 13.4561 310.884 14.7945C311.153 15.7238 311.933 16.8661 312.291 16.8661C312.491 16.8661 312.943 16.2694 313.275 15.5661C313.565 14.9565 313.651 14.543 313.655 13.7545C313.655 12.902 313.518 12.2498 313.139 11.2737C312.964 10.8176 312.282 9.42796 312.206 9.36402C312.163 9.32992 312.095 9.4237 311.916 9.75618Z" fill="black"/>
<path d="M306.259 13.4859C306.259 13.503 306.345 13.8269 306.451 14.202C307.184 16.7809 308.51 18.5456 309.993 18.9292C310.68 19.104 311.055 19.0997 311.212 18.9164C311.251 18.8696 311.353 18.8184 311.438 18.8014C311.524 18.7886 311.605 18.7459 311.617 18.7118C311.63 18.682 311.617 18.4476 311.592 18.1918C311.447 16.7894 310.91 15.8815 309.703 14.9864C308.885 14.3768 308.054 14.006 306.357 13.4817C306.302 13.4646 306.259 13.4646 306.259 13.4859Z" fill="black"/>
<path d="M314.763 15.6513C313.804 16.8704 313.271 17.8124 313.011 18.763C312.879 19.2361 312.828 20.127 312.905 20.5405C313.015 21.133 313.292 21.815 313.625 22.318C313.77 22.5396 313.778 22.5439 313.94 22.5226C314.179 22.4885 314.401 22.3265 314.708 21.9599C315.296 21.2523 315.633 20.5746 315.816 19.7221C315.935 19.185 315.94 18.1534 315.833 17.4842C315.697 16.6402 315.3 15.1185 315.215 15.1185C315.194 15.1185 314.993 15.3572 314.763 15.6513Z" fill="black"/>
<path d="M309.132 18.8994C309.145 19.0145 309.166 19.381 309.179 19.7221C309.256 21.5635 309.605 22.8039 310.356 23.9036C310.82 24.5814 311.592 25.1909 312.223 25.3742C312.431 25.4382 312.466 25.4382 312.598 25.3742C312.674 25.3359 312.785 25.306 312.841 25.306C312.9 25.306 312.956 25.2719 312.973 25.2293C313.045 25.0375 313.131 24.5174 313.152 24.1125C313.224 22.7101 312.581 21.4186 311.212 20.2208C310.466 19.5686 309.294 18.699 309.166 18.699C309.128 18.699 309.119 18.7544 309.132 18.8994Z" fill="black"/>
<path d="M316.992 21.6573C315.253 22.6974 314.264 23.6309 313.736 24.7306C313.437 25.3615 313.399 25.5533 313.403 26.4357C313.408 27.0452 313.425 27.2669 313.489 27.5226C313.565 27.8253 313.578 27.8423 313.697 27.8551C313.77 27.8636 313.842 27.8892 313.868 27.9105C314.013 28.0512 314.618 27.838 315.147 27.4629C315.867 26.9472 316.583 25.9242 316.95 24.8798C317.197 24.1637 317.397 23.145 317.448 22.3223C317.461 22.1006 317.483 21.798 317.495 21.6488C317.504 21.5039 317.5 21.3845 317.483 21.3845C317.465 21.3845 317.244 21.5081 316.992 21.6573Z" fill="black"/>
<path d="M309.396 23.7758C309.35 23.9165 309.158 24.9395 309.09 25.4126C308.992 26.0946 308.992 27.237 309.085 27.7613C309.273 28.8014 309.703 29.6454 310.415 30.3572C310.91 30.8559 311.072 30.954 311.391 30.954H311.651L311.766 30.7409C311.967 30.3785 312.176 29.6667 312.231 29.1594C312.372 27.8636 311.818 26.4527 310.564 24.931C310.074 24.3385 309.426 23.6906 309.396 23.7758Z" fill="black"/>
<path d="M317.521 27.5013C316.191 27.7144 315.168 28.0043 314.499 28.3495C313.544 28.844 312.845 29.5985 312.449 30.5533C312.308 30.89 312.116 31.7425 312.154 31.8491C312.167 31.8789 312.257 31.9301 312.346 31.9557C312.444 31.9812 312.547 32.0452 312.585 32.1006C312.687 32.2583 312.909 32.3137 313.352 32.2839C314.746 32.1901 315.863 31.3973 317.031 29.6709C317.466 29.023 318.284 27.3862 318.165 27.399C318.148 27.4032 317.858 27.4459 317.521 27.5013Z" fill="black"/>
<path d="M308.335 28.9548C308.288 29.0401 307.964 30.0887 307.866 30.4851C307.628 31.4271 307.602 31.6317 307.606 32.5524C307.606 33.3623 307.615 33.4561 307.721 33.844C307.917 34.5686 308.382 35.3785 308.936 35.9454C309.235 36.2524 309.392 36.3461 309.605 36.3461C309.763 36.3461 309.789 36.3291 309.921 36.1287C310.275 35.5874 310.526 34.8883 310.611 34.2191C310.769 32.9233 310.16 31.2651 308.898 29.59C308.472 29.0188 308.369 28.9037 308.335 28.9548Z" fill="black"/>
<path d="M305.743 32.7315C305.159 33.8142 304.823 34.6922 304.639 35.5831C304.516 36.1671 304.537 37.1262 304.678 37.6249C304.929 38.5115 305.731 39.7136 306.063 39.7136C306.178 39.7136 306.553 39.3001 306.809 38.8824C307.078 38.4561 307.299 37.9318 307.402 37.4885C307.508 37.0196 307.495 35.9028 307.38 35.3657C307.269 34.8755 307.069 34.2362 306.869 33.746C306.702 33.3368 306.208 32.3137 306.123 32.1986C306.072 32.1347 306.029 32.1944 305.743 32.7315Z" fill="black"/>
<path d="M315.893 32.1987C315.334 32.2328 314.52 32.3436 314.132 32.4416C312.717 32.8039 311.613 33.682 311.076 34.8756C310.974 35.1057 310.735 35.792 310.735 35.8602C310.735 35.8687 310.837 35.9242 310.961 35.9796C311.08 36.035 311.225 36.1373 311.276 36.2055C311.408 36.393 311.685 36.4484 312.308 36.4186C313.403 36.3675 314.32 35.9156 315.3 34.9438C315.871 34.3726 316.361 33.7375 316.83 32.9489C317.052 32.5823 317.252 32.2541 317.269 32.2242C317.295 32.1816 317.184 32.1688 316.715 32.1773C316.391 32.1816 316.02 32.1901 315.893 32.1987Z" fill="black"/>
<path d="M302.913 35.7153C301.319 37.2583 300.59 38.4945 300.479 39.8329C300.428 40.451 300.611 41.3419 300.923 41.9727L301.08 42.2924H301.336C301.558 42.2924 301.622 42.2711 301.805 42.1432C302.5 41.6658 303.212 40.6513 303.501 39.7349C303.736 38.9804 303.766 38.7502 303.766 37.5823C303.766 36.653 303.749 36.4015 303.663 35.8559C303.608 35.5021 303.548 35.1995 303.531 35.1824C303.514 35.1611 303.233 35.3998 302.913 35.7153Z" fill="black"/>
<path d="M311.067 36.6701C309.853 36.8576 309.171 37.156 308.506 37.7911C308.156 38.1236 307.913 38.4348 307.649 38.8866C307.376 39.3598 307.376 39.3512 307.666 39.5345C307.807 39.6198 307.934 39.7263 307.947 39.7647C308.054 40.1014 309.094 40.3401 309.946 40.2293C310.419 40.1654 311.123 39.9352 311.545 39.705C312.376 39.2532 313.412 38.4135 313.732 37.9403C313.838 37.7783 314.064 37.497 314.23 37.3095C314.396 37.1262 314.524 36.9685 314.516 36.9599C314.507 36.9514 314.23 36.896 313.906 36.8363C312.521 36.5933 311.809 36.5507 311.067 36.6701Z" fill="black"/>
<path d="M299.333 39.0273C297.056 39.5516 295.714 40.2635 294.963 41.3547C294.601 41.8832 294.303 42.7613 294.252 43.4476L294.226 43.7929L294.375 43.8227C294.46 43.8355 294.588 43.908 294.665 43.9804L294.801 44.1168L295.236 44.0955C295.957 44.0614 296.647 43.7801 297.316 43.2515C297.9 42.7912 298.685 41.7596 299.196 40.7792C299.414 40.37 299.865 39.2788 299.934 39.0145C299.968 38.8781 299.985 38.8781 299.333 39.0273Z" fill="black"/>
<path d="M306.195 40.272C305.466 40.3743 304.639 40.7707 304.064 41.3035C303.744 41.5934 303.318 42.0963 303.318 42.1773C303.318 42.2029 303.433 42.3223 303.574 42.4459C303.714 42.5695 303.842 42.7144 303.855 42.7698C303.906 42.9659 304.362 43.2259 304.968 43.405C306.008 43.7076 307.223 43.5158 308.569 42.8338C309.345 42.4416 309.716 42.1944 309.865 41.9685C309.934 41.8662 310.159 41.6488 310.364 41.4825C310.616 41.2822 310.718 41.1756 310.679 41.1543C310.65 41.1373 310.317 41.0094 309.942 40.8687C309.166 40.5831 308.582 40.4126 308.054 40.3274C307.572 40.2507 306.57 40.2208 306.195 40.272Z" fill="black"/>
<path d="M300.658 42.8934C300.27 42.9787 299.874 43.1321 299.482 43.341C299.102 43.5456 298.676 43.8525 298.672 43.9165C298.672 43.942 298.783 44.1168 298.919 44.3086C299.051 44.5004 299.209 44.7349 299.269 44.8329C299.46 45.1483 300.1 45.6215 300.624 45.8346C301.617 46.2353 302.798 46.2481 304.277 45.8772C304.959 45.7025 305.151 45.6172 305.232 45.451C305.27 45.3657 305.368 45.2975 305.573 45.208C305.726 45.1398 305.91 45.0588 305.978 45.029L306.102 44.9736L305.65 44.6454C304.316 43.6735 303.497 43.2387 302.466 42.9702C301.937 42.8295 301.093 42.7954 300.658 42.8934Z" fill="black"/>
<path d="M295.283 44.688C295.121 44.7221 294.84 44.8073 294.665 44.8755C294.35 44.9949 293.71 45.3359 293.612 45.4382C293.535 45.5149 294.162 46.5209 294.495 46.8619C294.968 47.3478 295.56 47.6846 296.306 47.8849C296.707 47.9915 296.788 48 297.67 48C298.463 48 298.689 47.9872 299.141 47.902C299.759 47.7911 300.036 47.6846 300.036 47.5652C300.036 47.4714 300.181 47.3905 300.569 47.2754C300.709 47.2327 300.837 47.1858 300.859 47.1731C300.893 47.1432 300.01 46.3717 299.49 45.9795C298.552 45.2805 297.649 44.8457 296.796 44.6837C296.362 44.5985 295.68 44.6027 295.283 44.688Z" fill="black"/>
<defs>
<filter id="filter0_d_17_2952" x="87.0057" y="3.9" width="204.2" height="48.2" filterUnits="userSpaceOnUse" color-interpolation-filters="sRGB">
<feFlood flood-opacity="0" result="BackgroundImageFix"/>
<feColorMatrix in="SourceAlpha" type="matrix" values="0 0 0 0 0 0 0 0 0 0 0 0 0 0 0 0 0 0 127 0" result="hardAlpha"/>
<feOffset/>
<feGaussianBlur stdDeviation="2.8"/>
<feComposite in2="hardAlpha" operator="out"/>
<feColorMatrix type="matrix" values="0 0 0 0 0 0 0 0 0 0 0 0 0 0 0 0 0 0 0.25 0"/>
<feBlend mode="normal" in2="BackgroundImageFix" result="effect1_dropShadow_17_2952"/>
<feBlend mode="normal" in="SourceGraphic" in2="effect1_dropShadow_17_2952" result="shape"/>
</filter>
<linearGradient id="paint0_linear_17_2952" x1="165.088" y1="0" x2="165.088" y2="56" gradientUnits="userSpaceOnUse">
<stop stop-color="#F87070"/>
<stop offset="1" stop-color="#EF4444"/>
</linearGradient>
</defs>
</svg>
