<svg width="337" height="56" viewBox="0 0 337 56" fill="none" xmlns="http://www.w3.org/2000/svg">
<rect width="337" height="56" rx="8" fill="url(#paint0_linear_18_794)"/>
<rect x="1.05" y="1.05" width="334.9" height="53.9" rx="6.95" stroke="white" stroke-opacity="0.15" stroke-width="2.1"/>
<path d="M22.783 8.18349C20.7283 9.10429 19.4707 10.1061 18.8696 11.2997C18.5883 11.8624 18.4305 12.5829 18.439 13.2521C18.4476 13.768 18.4732 13.8532 18.6266 13.8703C18.6948 13.8788 18.7971 13.9214 18.8526 13.9683C19.0657 14.1346 19.6241 14.0323 20.2721 13.704C21.4444 13.1157 22.3993 11.6962 22.9066 9.78636C23.0047 9.41548 23.2519 8.14939 23.2519 8.01297C23.2519 7.97887 23.1837 8.00445 22.783 8.18349Z" fill="white"/>
<path d="M16.1369 9.79914C14.7301 12.4379 14.5511 14.3477 15.5614 16.0529C15.8087 16.4707 16.0985 16.8117 16.2435 16.8458C16.4012 16.8884 16.6186 16.7222 16.9128 16.3257C18.2258 14.5779 18.1959 12.8045 16.8019 10.008C16.6144 9.62862 16.4438 9.31743 16.4268 9.31743C16.4097 9.31743 16.2776 9.53484 16.1369 9.79914Z" fill="white"/>
<path d="M21.7684 13.623C20.9073 13.9 20.4469 14.0876 19.8842 14.3775C18.7204 14.9786 17.8593 15.7587 17.433 16.607C17.1559 17.1569 16.9854 17.8816 16.9854 18.504V18.7726L17.1388 18.7982C17.2198 18.8152 17.3221 18.8664 17.3605 18.9133C17.4884 19.0582 17.7143 19.0923 18.1363 19.0198C18.9378 18.8792 19.4707 18.6063 20.0675 18.0266C20.984 17.1399 21.6618 15.8738 22.1478 14.1686C22.2416 13.8318 22.3268 13.5334 22.3354 13.5036C22.3609 13.4354 22.3652 13.4311 21.7684 13.623Z" fill="white"/>
<path d="M13.1572 15.7417C12.4155 18.3548 12.5221 20.0344 13.5196 21.4966C13.9757 22.1702 14.3892 22.5325 14.6962 22.5325C14.7942 22.5325 14.8454 22.4814 15.0116 22.2213C15.1225 22.0551 15.2887 21.7439 15.3782 21.535C16.1498 19.7488 15.6809 17.9712 13.8308 15.6479C13.5963 15.3537 13.3874 15.115 13.3704 15.115C13.3491 15.115 13.251 15.3964 13.1572 15.7417Z" fill="white"/>
<path d="M18.9251 19.0028C17.7698 19.8298 16.7936 20.7123 16.3119 21.3602C16.0305 21.7396 15.6895 22.4174 15.5787 22.8309C15.3996 23.496 15.3954 24.2718 15.5574 25.0008C15.6213 25.2736 15.6383 25.3035 15.7279 25.3035C15.7876 25.3035 15.8984 25.3333 15.9751 25.3717C16.1073 25.4356 16.1414 25.4356 16.3503 25.3717C16.9556 25.1926 17.7187 24.6086 18.1876 23.9521C19.07 22.7286 19.377 21.4668 19.458 18.7257C19.458 18.649 19.3215 18.7215 18.9251 19.0028Z" fill="white"/>
<path d="M11.1196 21.9656C11.1921 23.351 11.4521 24.5575 11.8869 25.4953C12.2322 26.2371 12.8844 27.0683 13.4258 27.4563C13.9544 27.8357 14.6067 28.0616 14.7047 27.9039C14.7175 27.8783 14.7857 27.8612 14.8539 27.8612C15.0074 27.8612 15.0372 27.8101 15.1353 27.3497C15.2504 26.8168 15.2376 25.8704 15.114 25.41C14.8028 24.2548 13.8948 23.1677 12.3985 22.1574C12.0787 21.9443 11.1494 21.3816 11.1153 21.3816C11.1025 21.3816 11.1025 21.6459 11.1196 21.9656Z" fill="white"/>
<path d="M18.7929 24.0757C18.0213 24.8686 17.5311 25.5081 16.994 26.4118C16.6487 26.9958 16.3929 27.8527 16.3588 28.5518C16.3204 29.3149 16.4654 30.0225 16.8021 30.6918L16.9471 30.9817L17.1986 30.9646C17.3862 30.9518 17.4927 30.9135 17.6292 30.8197C18.3496 30.3252 19.0615 29.3319 19.3429 28.4324C19.6754 27.3752 19.6626 25.9898 19.3002 24.2675C19.2405 23.9691 19.1766 23.7262 19.1638 23.7262C19.1468 23.7262 18.9805 23.8839 18.7929 24.0757Z" fill="white"/>
<path d="M10.4332 27.4946C10.4758 27.6822 11.0598 28.8886 11.2943 29.2723C12.4751 31.2162 13.737 32.1839 15.2205 32.2819C15.6596 32.3117 15.8855 32.2563 15.9878 32.1029C16.0219 32.0474 16.1327 31.9835 16.2478 31.9537L16.4439 31.8982L16.4141 31.6126C16.3544 30.9433 15.9921 30.0822 15.5359 29.5067C14.6706 28.4239 13.3746 27.8527 10.9405 27.4818L10.4119 27.4051L10.4332 27.4946Z" fill="white"/>
<path d="M19.8798 29.3447C17.9743 31.7874 17.5054 33.8336 18.4219 35.6965C18.5072 35.867 18.6308 36.0844 18.6947 36.174C18.8013 36.3189 18.8439 36.3445 18.9718 36.3445C19.1892 36.3445 19.3171 36.2635 19.6795 35.8841C21.018 34.4816 21.342 32.7849 20.7154 30.4232C20.5534 29.8264 20.2678 28.927 20.2337 28.927C20.2166 28.927 20.0589 29.1145 19.8798 29.3447Z" fill="white"/>
<path d="M22.1692 32.7721C20.9755 35.1977 20.788 36.8987 21.5468 38.4546C21.9219 39.2305 22.361 39.7548 22.5827 39.6951C22.7148 39.661 22.9962 39.3712 23.2264 39.0344C24.2878 37.4486 24.322 35.9608 23.35 33.7441C23.1411 33.2666 22.5443 32.1242 22.5059 32.1242C22.4974 32.1242 22.3482 32.4183 22.1692 32.7721Z" fill="white"/>
<path d="M11.3157 32.1796C11.3157 32.1924 11.4265 32.3927 11.5672 32.6229C11.7036 32.8531 11.8954 33.1814 11.9935 33.3519C12.3985 34.051 13.4088 35.1679 14.044 35.6155C14.7857 36.1399 15.4678 36.3829 16.282 36.417C16.9001 36.4425 17.1175 36.3956 17.3051 36.1953C17.3733 36.1143 17.5268 36.012 17.6376 35.9651C17.7485 35.9182 17.838 35.85 17.838 35.8201C17.838 35.6965 17.612 35.0784 17.4543 34.7587C17.0493 33.9444 16.5634 33.4286 15.7832 32.981C15.0713 32.5718 14.4703 32.3842 13.5111 32.2734C12.9399 32.2052 11.3157 32.1327 11.3157 32.1796Z" fill="white"/>
<path d="M25.0253 35.266C24.8846 35.9651 24.8164 36.6898 24.8121 37.5595C24.8079 38.7829 24.9315 39.4693 25.3024 40.2963C25.6008 40.9655 26.2658 41.8011 26.7688 42.1421C26.9393 42.2615 27.0331 42.2913 27.2463 42.3041L27.5106 42.3212L27.6129 42.1165C28.1031 41.1446 28.2395 39.9424 27.9624 39.0089C27.7493 38.2884 27.3869 37.6404 26.7603 36.8561C26.4832 36.5065 25.1446 35.1509 25.0807 35.1509C25.0636 35.1509 25.0381 35.202 25.0253 35.266Z" fill="white"/>
<path d="M15.6212 36.6855C15.3271 36.7282 14.8624 36.8006 14.5811 36.8518C14.304 36.8987 14.0695 36.9413 14.0567 36.9413C14.0482 36.9413 14.1974 37.1204 14.3893 37.3378C14.5811 37.5552 14.79 37.828 14.8539 37.9474C14.9264 38.0795 15.1267 38.2969 15.391 38.5314C17.0408 39.9936 18.5712 40.5179 20.0334 40.13C20.3446 40.049 20.3957 40.0192 20.6089 39.8018C20.7368 39.6696 20.9158 39.5247 21.0054 39.4778C21.2014 39.3755 21.1972 39.3328 20.9457 38.8852C20.3361 37.8067 19.4238 37.0948 18.3069 36.822C17.3776 36.5918 16.5591 36.5534 15.6212 36.6855Z" fill="white"/>
<path d="M28.6233 38.9193C28.6233 39.0216 29.2031 40.4071 29.4119 40.8078C30.5033 42.9052 31.8418 44.0221 33.3381 44.0945L33.7687 44.1116L33.9008 43.9837C33.9776 43.9112 34.1054 43.8387 34.1864 43.8217C34.2674 43.8089 34.3484 43.7791 34.357 43.7577C34.3697 43.7407 34.357 43.5446 34.3314 43.3272C34.2419 42.5812 33.969 41.8437 33.5939 41.3151C33.3594 40.9826 32.818 40.4668 32.4599 40.2323C31.7651 39.7719 30.7121 39.3669 29.4333 39.0685C28.7085 38.9022 28.6233 38.8852 28.6233 38.9193Z" fill="white"/>
<path d="M20.9627 40.2664C20.4512 40.3218 19.978 40.4241 19.394 40.6117C18.7417 40.8206 17.9062 41.1446 17.8934 41.1915C17.8891 41.2085 18.0511 41.3492 18.2515 41.4984C18.4774 41.6689 18.6394 41.8266 18.6692 41.9034C18.7417 42.0782 18.8568 42.1762 19.2703 42.432C20.5066 43.1951 21.7386 43.5872 22.7617 43.5361C23.5674 43.4935 24.4669 43.1609 24.68 42.8242C24.7354 42.7389 24.8974 42.5599 25.0466 42.4277L25.3152 42.1933L25.1361 41.9588C24.5308 41.1574 23.6654 40.5691 22.7787 40.3517C22.361 40.2494 21.4956 40.211 20.9627 40.2664Z" fill="white"/>
<path d="M26.385 42.9051C25.5239 43.0885 24.6585 43.4721 23.7505 44.0775C22.77 44.7339 22.4077 45.0409 22.6166 45.0409C22.6422 45.0409 22.7999 45.1048 22.9747 45.1858C23.2006 45.2881 23.3029 45.3649 23.3413 45.4501C23.4223 45.6164 23.6141 45.7016 24.2962 45.8764C25.7541 46.243 26.8838 46.2345 27.9026 45.8551C28.4312 45.6547 29.0792 45.1773 29.3307 44.7979C29.4202 44.6657 29.595 44.4142 29.7186 44.2352C29.9872 43.8643 30 43.9069 29.497 43.5702C29.0963 43.3016 28.6785 43.1098 28.2181 42.9691C27.698 42.8156 26.9477 42.79 26.385 42.9051Z" fill="white"/>
<path d="M31.6285 44.7169C31.0232 44.8619 30.567 45.0537 29.8423 45.4757C29.2711 45.8082 27.6767 47.0957 27.7492 47.1681C27.7663 47.1809 27.9453 47.2491 28.1457 47.3216C28.4569 47.4282 28.5208 47.4665 28.5293 47.5475C28.5507 47.6925 28.7979 47.7863 29.4331 47.9056C29.885 47.9866 30.1066 48.0037 30.9038 47.9994C31.7862 47.9994 31.8672 47.9909 32.2679 47.8843C33.372 47.5859 34.0456 47.0743 34.6765 46.064C34.8641 45.7613 35.0175 45.497 35.0175 45.48C35.0175 45.3862 34.1181 44.9301 33.6108 44.7638C33.3038 44.6615 33.1589 44.6445 32.6516 44.6317C32.1358 44.6189 31.9951 44.6274 31.6285 44.7169Z" fill="white"/>
<path d="M68.7271 10.5422V14.3812L70.7333 15.6453V14.6031L69.3739 13.7656V11.9641L70.813 12.8172V11.6375L68.7271 10.5422Z" fill="white"/>
<path d="M71.3333 11.9797V15.8515L73.3879 17.1625V13.275L71.3333 11.9797ZM72.9145 15.9297L71.9192 15.4406V13.0937L72.9145 13.7656V15.9297Z" fill="white"/>
<path d="M74.0034 13.5594V17.4938L74.7144 18.0156V15.5672L75.6003 18.3797L76.3425 18.9172V15.0453L75.6784 14.5719L75.6315 16.4672L74.7472 14.0344L74.0034 13.5594Z" fill="white"/>
<path d="M48.9019 15.1141L51.2878 13.6922V14.9344L50.5456 15.3672V18.1L49.7394 18.5422V15.7453L48.9019 16.2359V15.1141Z" fill="white"/>
<path d="M51.905 13.4391L53.9582 12.2703V13.1703L52.4894 14.0703V14.7188L53.9582 13.8969V14.7188L52.4894 15.6188V16.1172L53.9582 15.2406V16.1172L51.9832 17.3422L51.905 13.4391Z" fill="white"/>
<path d="M56.4082 10.9109L54.7488 11.8109V15.7609L55.4128 15.3812V14.1484L56.0925 13.764L56.2347 14.8047L56.8347 14.4969L56.4082 10.9094V10.9109ZM55.4285 13.2328V12.5687L55.9175 12.2687L55.98 12.9L55.4269 13.2312L55.4285 13.2328Z" fill="white"/>
<path d="M57.0347 32.4734L62.7378 36.1703L68.4425 32.4734L62.6862 35.2234L57.0347 32.4734Z" fill="white"/>
<path d="M53.3362 20.1172L60.5096 24.0047L55.2112 20.0391L60.5096 16.0719L53.3362 20.1172Z" fill="white"/>
<path d="M62.7378 14.9344V25.0156L71.6659 19.975L62.7378 14.9344Z" fill="white"/>
<path d="M62.7862 11.6375L49.0347 19.7688V28.7016L50.0269 29.2734L50.0472 36.1703L62.7878 43.575L71.6675 38.35L72.4206 38.8563L76.1706 36.6234V28.9547L76.5081 28.7016V19.7688L62.7862 11.6375ZM62.7378 13.7656L74.0034 20.1813L62.7847 26.7234L51.5659 20.1813L62.7362 13.7656H62.7378ZM62.7019 41.4594L51.6894 35.0766L51.8315 30.3047L52.7159 30.7469L50.6612 28.9141V21.6453L62.7644 28.6609L74.7097 21.7406V28.2828L71.2972 26.1656L67.8909 28.1813L67.8847 30.7156L70.6284 32.2094L67.8206 33.4641L67.8503 36.1391L69.78 37.3828L62.7019 41.4594ZM75.4269 36.1703L72.33 37.9719L68.4425 35.6328V33.8953L71.2862 35.5063V31.7141L68.7581 30.2609V28.4906L71.1597 27.1313L75.4253 29.7219V36.1688L75.4269 36.1703Z" fill="white"/>
<path d="M49.5816 34.7594L46.3582 36.3391L62.7707 45.9453L79.2019 36.361L76.6738 35.0969L76.6316 36.8453L72.4394 39.4782L71.5128 38.9735L62.7863 44.0922L49.6035 36.4031L49.5816 34.7594Z" fill="white"/>
<g filter="url(#filter0_d_18_794)">
<path d="M101.688 12.8636V24.5H100.074L94.1596 15.9659H94.0517V24.5H92.296V12.8636H93.921L99.8414 21.4091H99.9494V12.8636H101.688ZM107.789 24.6761C106.971 24.6761 106.257 24.4886 105.647 24.1136C105.037 23.7386 104.564 23.214 104.226 22.5398C103.889 21.8655 103.721 21.0776 103.721 20.1761C103.721 19.2708 103.889 18.4792 104.226 17.8011C104.564 17.1231 105.037 16.5966 105.647 16.2216C106.257 15.8466 106.971 15.6591 107.789 15.6591C108.607 15.6591 109.321 15.8466 109.931 16.2216C110.541 16.5966 111.014 17.1231 111.351 17.8011C111.689 18.4792 111.857 19.2708 111.857 20.1761C111.857 21.0776 111.689 21.8655 111.351 22.5398C111.014 23.214 110.541 23.7386 109.931 24.1136C109.321 24.4886 108.607 24.6761 107.789 24.6761ZM107.795 23.25C108.325 23.25 108.764 23.1098 109.113 22.8295C109.461 22.5492 109.719 22.1761 109.885 21.7102C110.056 21.2443 110.141 20.7311 110.141 20.1705C110.141 19.6136 110.056 19.1023 109.885 18.6364C109.719 18.1667 109.461 17.7898 109.113 17.5057C108.764 17.2216 108.325 17.0795 107.795 17.0795C107.26 17.0795 106.817 17.2216 106.465 17.5057C106.117 17.7898 105.857 18.1667 105.687 18.6364C105.52 19.1023 105.437 19.6136 105.437 20.1705C105.437 20.7311 105.52 21.2443 105.687 21.7102C105.857 22.1761 106.117 22.5492 106.465 22.8295C106.817 23.1098 107.26 23.25 107.795 23.25ZM113.753 24.5V15.7727H115.384V17.1932H115.492C115.674 16.7121 115.971 16.3371 116.384 16.0682C116.797 15.7955 117.291 15.6591 117.867 15.6591C118.45 15.6591 118.939 15.7955 119.333 16.0682C119.731 16.3409 120.024 16.7159 120.214 17.1932H120.305C120.513 16.7273 120.844 16.3561 121.299 16.0795C121.753 15.7992 122.295 15.6591 122.924 15.6591C123.715 15.6591 124.361 15.9072 124.861 16.4034C125.365 16.8996 125.617 17.6477 125.617 18.6477V24.5H123.918V18.8068C123.918 18.2159 123.757 17.7879 123.435 17.5227C123.113 17.2576 122.729 17.125 122.282 17.125C121.729 17.125 121.299 17.2955 120.992 17.6364C120.685 17.9735 120.532 18.4072 120.532 18.9375V24.5H118.839V18.6989C118.839 18.2254 118.691 17.8447 118.395 17.5568C118.1 17.2689 117.715 17.125 117.242 17.125C116.92 17.125 116.623 17.2102 116.35 17.3807C116.081 17.5473 115.863 17.7803 115.697 18.0795C115.534 18.3788 115.452 18.7254 115.452 19.1193V24.5H113.753ZM127.894 24.5V15.7727H129.593V24.5H127.894ZM128.752 14.4261C128.456 14.4261 128.203 14.3276 127.991 14.1307C127.782 13.9299 127.678 13.6913 127.678 13.4148C127.678 13.1345 127.782 12.8958 127.991 12.6989C128.203 12.4981 128.456 12.3977 128.752 12.3977C129.047 12.3977 129.299 12.4981 129.508 12.6989C129.72 12.8958 129.826 13.1345 129.826 13.4148C129.826 13.6913 129.72 13.9299 129.508 14.1307C129.299 14.3276 129.047 14.4261 128.752 14.4261ZM133.577 19.3182V24.5H131.878V15.7727H133.509V17.1932H133.617C133.818 16.7311 134.132 16.3598 134.56 16.0795C134.992 15.7992 135.536 15.6591 136.191 15.6591C136.786 15.6591 137.306 15.7841 137.753 16.0341C138.2 16.2803 138.547 16.6477 138.793 17.1364C139.039 17.625 139.162 18.2292 139.162 18.9489V24.5H137.464V19.1534C137.464 18.5208 137.299 18.0265 136.969 17.6705C136.64 17.3106 136.187 17.1307 135.611 17.1307C135.217 17.1307 134.867 17.2159 134.56 17.3864C134.257 17.5568 134.017 17.8068 133.839 18.1364C133.664 18.4621 133.577 18.8561 133.577 19.3182ZM143.981 24.6932C143.428 24.6932 142.928 24.5909 142.481 24.3864C142.034 24.178 141.679 23.8769 141.418 23.483C141.161 23.089 141.032 22.6061 141.032 22.0341C141.032 21.5417 141.126 21.1364 141.316 20.8182C141.505 20.5 141.761 20.2481 142.083 20.0625C142.405 19.8769 142.765 19.7367 143.162 19.642C143.56 19.5473 143.965 19.4754 144.378 19.4261C144.901 19.3655 145.325 19.3163 145.651 19.2784C145.977 19.2367 146.214 19.1705 146.361 19.0795C146.509 18.9886 146.583 18.8409 146.583 18.6364V18.5966C146.583 18.1004 146.443 17.7159 146.162 17.4432C145.886 17.1705 145.473 17.0341 144.924 17.0341C144.352 17.0341 143.901 17.161 143.572 17.4148C143.246 17.6648 143.02 17.9432 142.895 18.25L141.299 17.8864C141.488 17.3561 141.765 16.928 142.128 16.6023C142.496 16.2727 142.918 16.0341 143.395 15.8864C143.873 15.7348 144.375 15.6591 144.901 15.6591C145.25 15.6591 145.619 15.7008 146.009 15.7841C146.403 15.8636 146.77 16.0114 147.111 16.2273C147.456 16.4432 147.738 16.7519 147.958 17.1534C148.178 17.5511 148.287 18.0682 148.287 18.7045V24.5H146.628V23.3068H146.56C146.45 23.5265 146.286 23.7424 146.066 23.9545C145.846 24.1667 145.564 24.3428 145.219 24.483C144.875 24.6231 144.462 24.6932 143.981 24.6932ZM144.35 23.3295C144.82 23.3295 145.221 23.2367 145.554 23.0511C145.892 22.8655 146.147 22.6231 146.322 22.3239C146.5 22.0208 146.589 21.697 146.589 21.3523V20.2273C146.528 20.2879 146.411 20.3447 146.236 20.3977C146.066 20.447 145.871 20.4905 145.651 20.5284C145.431 20.5625 145.217 20.5947 145.009 20.625C144.801 20.6515 144.626 20.6742 144.486 20.6932C144.157 20.7348 143.856 20.8049 143.583 20.9034C143.314 21.0019 143.098 21.1439 142.935 21.3295C142.776 21.5114 142.697 21.7538 142.697 22.0568C142.697 22.4773 142.852 22.7955 143.162 23.0114C143.473 23.2235 143.869 23.3295 144.35 23.3295ZM154.624 15.7727V17.1364H149.857V15.7727H154.624ZM151.135 13.6818H152.834V21.9375C152.834 22.267 152.884 22.5151 152.982 22.6818C153.081 22.8447 153.207 22.9564 153.363 23.017C153.522 23.0739 153.694 23.1023 153.88 23.1023C154.016 23.1023 154.135 23.0928 154.238 23.0739C154.34 23.0549 154.42 23.0398 154.476 23.0284L154.783 24.4318C154.685 24.4697 154.545 24.5076 154.363 24.5455C154.181 24.5871 153.954 24.6098 153.681 24.6136C153.234 24.6212 152.817 24.5417 152.431 24.375C152.045 24.2083 151.732 23.9508 151.493 23.6023C151.255 23.2538 151.135 22.8163 151.135 22.2898V13.6818ZM160.171 24.6761C159.311 24.6761 158.571 24.4924 157.949 24.125C157.332 23.7538 156.855 23.233 156.518 22.5625C156.184 21.8883 156.018 21.0985 156.018 20.1932C156.018 19.2992 156.184 18.5114 156.518 17.8295C156.855 17.1477 157.324 16.6155 157.927 16.233C158.533 15.8504 159.241 15.6591 160.052 15.6591C160.544 15.6591 161.021 15.7405 161.483 15.9034C161.946 16.0663 162.36 16.322 162.728 16.6705C163.095 17.0189 163.385 17.4716 163.597 18.0284C163.809 18.5814 163.915 19.2538 163.915 20.0455V20.6477H156.978V19.375H162.251C162.251 18.928 162.16 18.5322 161.978 18.1875C161.796 17.839 161.54 17.5644 161.211 17.3636C160.885 17.1629 160.502 17.0625 160.063 17.0625C159.586 17.0625 159.169 17.1799 158.813 17.4148C158.461 17.6458 158.188 17.9489 157.995 18.3239C157.805 18.6951 157.711 19.0985 157.711 19.5341V20.5284C157.711 21.1117 157.813 21.608 158.018 22.017C158.226 22.4261 158.516 22.7386 158.887 22.9545C159.258 23.1667 159.692 23.2727 160.188 23.2727C160.51 23.2727 160.804 23.2273 161.069 23.1364C161.334 23.0417 161.563 22.9015 161.756 22.7159C161.949 22.5303 162.097 22.3011 162.199 22.0284L163.807 22.3182C163.679 22.7917 163.447 23.2064 163.114 23.5625C162.785 23.9148 162.37 24.1894 161.87 24.3864C161.374 24.5795 160.807 24.6761 160.171 24.6761ZM169.067 24.6705C168.363 24.6705 167.734 24.4905 167.181 24.1307C166.632 23.767 166.2 23.25 165.885 22.5795C165.575 21.9053 165.42 21.0966 165.42 20.1534C165.42 19.2102 165.577 18.4034 165.891 17.733C166.209 17.0625 166.645 16.5492 167.198 16.1932C167.751 15.8371 168.378 15.6591 169.079 15.6591C169.62 15.6591 170.056 15.75 170.385 15.9318C170.719 16.1098 170.976 16.3182 171.158 16.5568C171.344 16.7955 171.488 17.0057 171.59 17.1875H171.692V12.8636H173.391V24.5H171.732V23.142H171.59C171.488 23.3276 171.34 23.5398 171.147 23.7784C170.957 24.017 170.696 24.2254 170.363 24.4034C170.029 24.5814 169.598 24.6705 169.067 24.6705ZM169.442 23.2216C169.931 23.2216 170.344 23.0928 170.681 22.8352C171.022 22.5739 171.279 22.2121 171.454 21.75C171.632 21.2879 171.721 20.75 171.721 20.1364C171.721 19.5303 171.634 19 171.459 18.5455C171.285 18.0909 171.029 17.7367 170.692 17.483C170.355 17.2292 169.938 17.1023 169.442 17.1023C168.931 17.1023 168.505 17.2348 168.164 17.5C167.823 17.7651 167.565 18.1269 167.391 18.5852C167.221 19.0436 167.135 19.5606 167.135 20.1364C167.135 20.7197 167.223 21.2443 167.397 21.7102C167.571 22.1761 167.829 22.5455 168.17 22.8182C168.514 23.0871 168.938 23.2216 169.442 23.2216ZM184.204 15.7727V17.1364H179.272V15.7727H184.204ZM180.624 24.5V14.7614C180.624 14.2159 180.743 13.7633 180.982 13.4034C181.221 13.0398 181.537 12.7689 181.931 12.5909C182.325 12.4091 182.753 12.3182 183.215 12.3182C183.556 12.3182 183.848 12.3466 184.09 12.4034C184.332 12.4564 184.512 12.5057 184.63 12.5511L184.232 13.9261C184.152 13.9034 184.05 13.8769 183.925 13.8466C183.8 13.8125 183.649 13.7955 183.471 13.7955C183.058 13.7955 182.762 13.8977 182.584 14.1023C182.41 14.3068 182.323 14.6023 182.323 14.9886V24.5H180.624ZM189.289 24.6761C188.471 24.6761 187.757 24.4886 187.147 24.1136C186.537 23.7386 186.063 23.214 185.726 22.5398C185.389 21.8655 185.221 21.0776 185.221 20.1761C185.221 19.2708 185.389 18.4792 185.726 17.8011C186.063 17.1231 186.537 16.5966 187.147 16.2216C187.757 15.8466 188.471 15.6591 189.289 15.6591C190.107 15.6591 190.821 15.8466 191.431 16.2216C192.041 16.5966 192.514 17.1231 192.851 17.8011C193.188 18.4792 193.357 19.2708 193.357 20.1761C193.357 21.0776 193.188 21.8655 192.851 22.5398C192.514 23.214 192.041 23.7386 191.431 24.1136C190.821 24.4886 190.107 24.6761 189.289 24.6761ZM189.295 23.25C189.825 23.25 190.264 23.1098 190.613 22.8295C190.961 22.5492 191.219 22.1761 191.385 21.7102C191.556 21.2443 191.641 20.7311 191.641 20.1705C191.641 19.6136 191.556 19.1023 191.385 18.6364C191.219 18.1667 190.961 17.7898 190.613 17.5057C190.264 17.2216 189.825 17.0795 189.295 17.0795C188.76 17.0795 188.317 17.2216 187.965 17.5057C187.617 17.7898 187.357 18.1667 187.187 18.6364C187.02 19.1023 186.937 19.6136 186.937 20.1705C186.937 20.7311 187.02 21.2443 187.187 21.7102C187.357 22.1761 187.617 22.5492 187.965 22.8295C188.317 23.1098 188.76 23.25 189.295 23.25ZM195.253 24.5V15.7727H196.895V17.1591H196.986C197.145 16.6894 197.426 16.3201 197.827 16.0511C198.233 15.7784 198.691 15.642 199.202 15.642C199.308 15.642 199.433 15.6458 199.577 15.6534C199.725 15.661 199.84 15.6705 199.924 15.6818V17.3068C199.856 17.2879 199.734 17.267 199.56 17.2443C199.386 17.2178 199.212 17.2045 199.037 17.2045C198.636 17.2045 198.278 17.2898 197.964 17.4602C197.653 17.6269 197.407 17.8598 197.225 18.1591C197.043 18.4545 196.952 18.7917 196.952 19.1705V24.5H195.253Z" fill="white"/>
<path d="M94.9276 44.5V34.368H91.5106V31.835H101.405V34.368H97.9706V44.5H94.9276ZM105.858 44.738C104.929 44.738 104.09 44.5397 103.342 44.143C102.605 43.735 102.016 43.1513 101.574 42.392C101.143 41.6327 100.928 40.7203 100.928 39.655C100.928 38.873 101.053 38.1703 101.302 37.547C101.563 36.9237 101.908 36.391 102.339 35.949C102.781 35.507 103.274 35.1727 103.818 34.946C104.373 34.708 104.94 34.589 105.518 34.589C106.447 34.589 107.218 34.793 107.83 35.201C108.442 35.609 108.901 36.1643 109.207 36.867C109.513 37.5697 109.666 38.363 109.666 39.247C109.666 39.519 109.649 39.774 109.615 40.012C109.592 40.25 109.564 40.4313 109.53 40.556H103.852C103.943 40.998 104.101 41.355 104.328 41.627C104.555 41.899 104.832 42.103 105.161 42.239C105.49 42.3637 105.858 42.426 106.266 42.426C106.617 42.426 106.957 42.375 107.286 42.273C107.615 42.171 107.955 42.018 108.306 41.814L109.309 43.633C108.81 43.9843 108.249 44.2563 107.626 44.449C107.014 44.6417 106.425 44.738 105.858 44.738ZM103.801 38.567H107.099C107.099 38.091 106.98 37.6943 106.742 37.377C106.515 37.0597 106.124 36.901 105.569 36.901C105.297 36.901 105.036 36.9633 104.787 37.088C104.549 37.2013 104.339 37.3827 104.158 37.632C103.988 37.87 103.869 38.1817 103.801 38.567ZM113.698 44.738C113.109 44.738 112.599 44.6077 112.168 44.347C111.738 44.075 111.403 43.718 111.165 43.276C110.939 42.8227 110.825 42.3297 110.825 41.797C110.825 40.777 111.25 39.9837 112.1 39.417C112.95 38.839 114.316 38.448 116.197 38.244C116.175 37.9833 116.112 37.7623 116.01 37.581C115.908 37.3883 115.75 37.2467 115.534 37.156C115.33 37.054 115.064 37.003 114.735 37.003C114.35 37.003 113.953 37.0767 113.545 37.224C113.137 37.3713 112.69 37.581 112.202 37.853L111.148 35.864C111.579 35.6033 112.015 35.3823 112.457 35.201C112.911 35.0083 113.375 34.861 113.851 34.759C114.327 34.6457 114.815 34.589 115.313 34.589C116.152 34.589 116.86 34.7477 117.438 35.065C118.016 35.3823 118.458 35.8697 118.764 36.527C119.07 37.173 119.223 38.0003 119.223 39.009V44.5H116.758L116.554 43.531H116.469C116.073 43.8823 115.642 44.1713 115.177 44.398C114.724 44.6247 114.231 44.738 113.698 44.738ZM114.735 42.392C115.041 42.392 115.308 42.324 115.534 42.188C115.761 42.052 115.982 41.865 116.197 41.627V40.08C115.574 40.1593 115.075 40.2727 114.701 40.42C114.339 40.5673 114.078 40.7373 113.919 40.93C113.772 41.1227 113.698 41.3323 113.698 41.559C113.698 41.8423 113.789 42.052 113.97 42.188C114.163 42.324 114.418 42.392 114.735 42.392ZM127.153 44.738C126.348 44.738 125.589 44.602 124.875 44.33C124.161 44.058 123.526 43.65 122.971 43.106C122.427 42.5507 121.996 41.8707 121.679 41.066C121.373 40.25 121.22 39.3093 121.22 38.244C121.22 37.19 121.379 36.255 121.696 35.439C122.025 34.6117 122.467 33.9147 123.022 33.348C123.589 32.7813 124.235 32.3507 124.96 32.056C125.685 31.7613 126.45 31.614 127.255 31.614C128.082 31.614 128.819 31.7783 129.465 32.107C130.122 32.4357 130.666 32.821 131.097 33.263L129.516 35.201C129.199 34.9063 128.864 34.6683 128.513 34.487C128.162 34.3057 127.759 34.215 127.306 34.215C126.762 34.215 126.263 34.3737 125.81 34.691C125.357 34.997 124.994 35.4447 124.722 36.034C124.461 36.612 124.331 37.3147 124.331 38.142C124.331 38.9807 124.45 39.7003 124.688 40.301C124.937 40.8903 125.283 41.3437 125.725 41.661C126.167 41.967 126.683 42.12 127.272 42.12C127.782 42.12 128.235 42.0067 128.632 41.78C129.04 41.5533 129.391 41.2813 129.686 40.964L131.284 42.868C130.751 43.4913 130.134 43.9617 129.431 44.279C128.74 44.585 127.98 44.738 127.153 44.738ZM137.098 44.738C136.282 44.738 135.511 44.5397 134.786 44.143C134.06 43.735 133.471 43.1513 133.018 42.392C132.576 41.6327 132.355 40.7203 132.355 39.655C132.355 38.5897 132.576 37.683 133.018 36.935C133.471 36.1757 134.06 35.5977 134.786 35.201C135.511 34.793 136.282 34.589 137.098 34.589C137.71 34.589 138.299 34.7023 138.866 34.929C139.432 35.1557 139.937 35.49 140.379 35.932C140.821 36.3627 141.172 36.8897 141.433 37.513C141.693 38.1363 141.824 38.8503 141.824 39.655C141.824 40.7203 141.597 41.6327 141.144 42.392C140.702 43.1513 140.118 43.735 139.393 44.143C138.679 44.5397 137.914 44.738 137.098 44.738ZM137.098 42.29C137.472 42.29 137.778 42.1823 138.016 41.967C138.265 41.7517 138.446 41.4457 138.56 41.049C138.673 40.6523 138.73 40.1877 138.73 39.655C138.73 39.1223 138.673 38.6633 138.56 38.278C138.446 37.8813 138.265 37.5753 138.016 37.36C137.778 37.1447 137.472 37.037 137.098 37.037C136.724 37.037 136.412 37.1447 136.163 37.36C135.925 37.5753 135.743 37.8813 135.619 38.278C135.505 38.6633 135.449 39.1223 135.449 39.655C135.449 40.1877 135.505 40.6523 135.619 41.049C135.743 41.4457 135.925 41.7517 136.163 41.967C136.412 42.1823 136.724 42.29 137.098 42.29ZM143.723 44.5V34.827H146.188L146.409 36.034H146.46C146.857 35.6373 147.304 35.2973 147.803 35.014C148.313 34.7307 148.897 34.589 149.554 34.589C150.608 34.589 151.373 34.9403 151.849 35.643C152.325 36.3457 152.563 37.3033 152.563 38.516V44.5H149.537V38.89C149.537 38.2213 149.446 37.768 149.265 37.53C149.084 37.292 148.8 37.173 148.415 37.173C148.075 37.173 147.786 37.2467 147.548 37.394C147.31 37.5413 147.044 37.7567 146.749 38.04V44.5H143.723ZM158.287 44.5V42.766C159.307 41.814 160.214 40.9413 161.007 40.148C161.812 39.3433 162.441 38.6067 162.894 37.938C163.348 37.2693 163.574 36.646 163.574 36.068C163.574 35.6713 163.506 35.3427 163.37 35.082C163.246 34.8213 163.059 34.623 162.809 34.487C162.56 34.351 162.265 34.283 161.925 34.283C161.495 34.283 161.104 34.4133 160.752 34.674C160.412 34.9233 160.089 35.201 159.783 35.507L158.134 33.875C158.758 33.2177 159.387 32.7303 160.021 32.413C160.667 32.0843 161.438 31.92 162.333 31.92C163.149 31.92 163.869 32.0843 164.492 32.413C165.116 32.7417 165.603 33.2063 165.954 33.807C166.306 34.3963 166.481 35.0933 166.481 35.898C166.481 36.578 166.294 37.275 165.92 37.989C165.546 38.6917 165.065 39.3943 164.475 40.097C163.897 40.7883 163.291 41.4627 162.656 42.12C162.974 42.0747 163.325 42.035 163.71 42.001C164.107 41.967 164.447 41.95 164.73 41.95H167.059V44.5H158.287ZM173.118 44.738C172.222 44.738 171.435 44.4943 170.755 44.007C170.086 43.5083 169.565 42.783 169.191 41.831C168.817 40.8677 168.63 39.6833 168.63 38.278C168.63 36.8727 168.817 35.6997 169.191 34.759C169.565 33.8183 170.086 33.11 170.755 32.634C171.435 32.158 172.222 31.92 173.118 31.92C174.013 31.92 174.795 32.158 175.464 32.634C176.132 33.11 176.654 33.8183 177.028 34.759C177.402 35.6997 177.589 36.8727 177.589 38.278C177.589 39.6833 177.402 40.8677 177.028 41.831C176.654 42.783 176.132 43.5083 175.464 44.007C174.795 44.4943 174.013 44.738 173.118 44.738ZM173.118 42.392C173.424 42.392 173.696 42.2843 173.934 42.069C174.183 41.8423 174.376 41.4343 174.512 40.845C174.659 40.2443 174.733 39.3887 174.733 38.278C174.733 37.1673 174.659 36.323 174.512 35.745C174.376 35.167 174.183 34.776 173.934 34.572C173.696 34.368 173.424 34.266 173.118 34.266C172.823 34.266 172.551 34.368 172.302 34.572C172.052 34.776 171.854 35.167 171.707 35.745C171.559 36.323 171.486 37.1673 171.486 38.278C171.486 39.3887 171.559 40.2443 171.707 40.845C171.854 41.4343 172.052 41.8423 172.302 42.069C172.551 42.2843 172.823 42.392 173.118 42.392ZM179.006 44.5V42.766C180.026 41.814 180.933 40.9413 181.726 40.148C182.531 39.3433 183.16 38.6067 183.613 37.938C184.066 37.2693 184.293 36.646 184.293 36.068C184.293 35.6713 184.225 35.3427 184.089 35.082C183.964 34.8213 183.777 34.623 183.528 34.487C183.279 34.351 182.984 34.283 182.644 34.283C182.213 34.283 181.822 34.4133 181.471 34.674C181.131 34.9233 180.808 35.201 180.502 35.507L178.853 33.875C179.476 33.2177 180.105 32.7303 180.74 32.413C181.386 32.0843 182.157 31.92 183.052 31.92C183.868 31.92 184.588 32.0843 185.211 32.413C185.834 32.7417 186.322 33.2063 186.673 33.807C187.024 34.3963 187.2 35.0933 187.2 35.898C187.2 36.578 187.013 37.275 186.639 37.989C186.265 38.6917 185.783 39.3943 185.194 40.097C184.616 40.7883 184.01 41.4627 183.375 42.12C183.692 42.0747 184.044 42.035 184.429 42.001C184.826 41.967 185.166 41.95 185.449 41.95H187.778V44.5H179.006ZM194.159 44.738C193.559 44.738 192.975 44.6247 192.408 44.398C191.853 44.16 191.349 43.7973 190.895 43.31C190.453 42.8113 190.096 42.1767 189.824 41.406C189.564 40.624 189.433 39.6833 189.433 38.584C189.433 37.4393 189.569 36.4533 189.841 35.626C190.113 34.7873 190.487 34.096 190.963 33.552C191.439 32.9967 191.978 32.5887 192.578 32.328C193.179 32.056 193.802 31.92 194.448 31.92C195.287 31.92 196.012 32.073 196.624 32.379C197.248 32.685 197.758 33.0363 198.154 33.433L196.556 35.235C196.352 35.0083 196.075 34.81 195.723 34.64C195.372 34.4587 195.015 34.368 194.652 34.368C194.199 34.368 193.785 34.4983 193.411 34.759C193.037 35.0197 192.737 35.456 192.51 36.068C192.295 36.68 192.187 37.5187 192.187 38.584C192.187 39.604 192.278 40.3973 192.459 40.964C192.652 41.5307 192.89 41.9273 193.173 42.154C193.468 42.3693 193.768 42.477 194.074 42.477C194.346 42.477 194.596 42.4147 194.822 42.29C195.049 42.154 195.23 41.95 195.366 41.678C195.502 41.3947 195.57 41.0263 195.57 40.573C195.57 40.1423 195.497 39.808 195.349 39.57C195.213 39.3207 195.026 39.145 194.788 39.043C194.562 38.941 194.307 38.89 194.023 38.89C193.717 38.89 193.4 38.9863 193.071 39.179C192.754 39.3603 192.465 39.689 192.204 40.165L192.068 38.21C192.284 37.904 192.539 37.6433 192.833 37.428C193.139 37.2127 193.451 37.0483 193.768 36.935C194.086 36.8217 194.369 36.765 194.618 36.765C195.321 36.765 195.95 36.901 196.505 37.173C197.072 37.445 197.514 37.8643 197.831 38.431C198.16 38.9863 198.324 39.7003 198.324 40.573C198.324 41.4343 198.132 42.1767 197.746 42.8C197.372 43.4233 196.868 43.905 196.233 44.245C195.61 44.5737 194.919 44.738 194.159 44.738ZM209.806 29.965H215.586V32.175H212.237V40.76H209.806V29.965ZM225.769 36.085H228.251V46.115H225.769V36.085ZM221.57 38.006H232.45V40.233H221.57V38.006ZM228.659 39.026C228.953 39.604 229.327 40.1763 229.781 40.743C230.245 41.3097 230.75 41.8423 231.294 42.341C231.849 42.8283 232.41 43.242 232.977 43.582C232.795 43.7293 232.591 43.922 232.365 44.16C232.138 44.3867 231.923 44.6247 231.719 44.874C231.526 45.1233 231.362 45.35 231.226 45.554C230.648 45.112 230.087 44.5793 229.543 43.956C228.999 43.3213 228.494 42.6413 228.03 41.916C227.565 41.1793 227.163 40.4313 226.823 39.672L228.659 39.026ZM225.497 38.822L227.435 39.485C227.072 40.2897 226.641 41.0717 226.143 41.831C225.644 42.579 225.094 43.2703 224.494 43.905C223.893 44.5283 223.258 45.061 222.59 45.503C222.465 45.299 222.301 45.0723 222.097 44.823C221.904 44.585 221.7 44.3527 221.485 44.126C221.269 43.888 221.071 43.6897 220.89 43.531C221.524 43.191 222.136 42.7717 222.726 42.273C223.315 41.7743 223.848 41.2303 224.324 40.641C224.8 40.0403 225.191 39.434 225.497 38.822ZM224.953 32.838V34.64H229.203V32.838H224.953ZM222.624 30.679H231.685V36.799H222.624V30.679ZM220.125 29.999L222.42 30.747C222.046 31.7103 221.598 32.685 221.077 33.671C220.567 34.6457 220.011 35.5693 219.411 36.442C218.81 37.3147 218.192 38.0797 217.558 38.737C217.49 38.533 217.382 38.2723 217.235 37.955C217.087 37.6263 216.923 37.2977 216.742 36.969C216.572 36.6403 216.419 36.374 216.283 36.17C216.793 35.6713 217.286 35.0933 217.762 34.436C218.238 33.7787 218.68 33.0703 219.088 32.311C219.496 31.5517 219.841 30.781 220.125 29.999ZM218.561 34.878L220.907 32.532V32.549V46.064H218.561V34.878ZM241.817 35.048V35.66H245.727V35.048H241.817ZM241.817 32.6V33.212H245.727V32.6H241.817ZM239.505 30.611H248.158V37.649H239.505V30.611ZM238.961 38.414H248.753V44.585H246.424V40.471H245.863V44.585H244.061V40.471H243.5V44.585H241.715V40.471H241.154V44.585H238.961V38.414ZM237.754 43.497H249.62V45.622H237.754V43.497ZM234.473 31.937L235.799 30.169C236.139 30.305 236.513 30.475 236.921 30.679C237.329 30.8717 237.72 31.0757 238.094 31.291C238.479 31.495 238.791 31.6877 239.029 31.869L237.618 33.841C237.402 33.6483 237.113 33.4387 236.751 33.212C236.388 32.974 236.003 32.7473 235.595 32.532C235.198 32.3053 234.824 32.107 234.473 31.937ZM233.385 36.561L234.626 34.776C234.977 34.9007 235.362 35.0593 235.782 35.252C236.201 35.4447 236.598 35.643 236.972 35.847C237.357 36.0397 237.674 36.2267 237.924 36.408L236.598 38.397C236.371 38.2157 236.071 38.0173 235.697 37.802C235.334 37.5753 234.949 37.3543 234.541 37.139C234.133 36.9123 233.747 36.7197 233.385 36.561ZM233.657 44.262C233.917 43.8313 234.206 43.3327 234.524 42.766C234.841 42.188 235.164 41.576 235.493 40.93C235.821 40.2727 236.127 39.6153 236.411 38.958L238.281 40.437C238.031 41.0263 237.765 41.6213 237.482 42.222C237.21 42.8227 236.926 43.4177 236.632 44.007C236.348 44.5963 236.059 45.1743 235.765 45.741L233.657 44.262ZM252.969 39.111H264.07V41.406H252.969V39.111ZM254.176 41.576L256.641 42.273C256.278 42.9757 255.802 43.65 255.213 44.296C254.635 44.9307 254.051 45.4577 253.462 45.877C253.303 45.7297 253.093 45.554 252.833 45.35C252.583 45.1573 252.323 44.9703 252.051 44.789C251.79 44.6077 251.563 44.4603 251.371 44.347C251.96 44.0297 252.504 43.6217 253.003 43.123C253.501 42.6243 253.892 42.1087 254.176 41.576ZM260.551 42.664L262.523 41.457C262.897 41.7403 263.293 42.0577 263.713 42.409C264.132 42.7603 264.534 43.1173 264.92 43.48C265.305 43.8313 265.617 44.16 265.855 44.466L263.73 45.826C263.526 45.5313 263.242 45.197 262.88 44.823C262.528 44.449 262.143 44.075 261.724 43.701C261.316 43.3157 260.925 42.97 260.551 42.664ZM250.912 31.342H266.144V33.62H250.912V31.342ZM253.802 29.965H256.352V34.793H253.802V29.965ZM260.619 29.965H263.203V34.793H260.619V29.965ZM257.372 37.615H259.939V43.803C259.939 44.3583 259.876 44.7947 259.752 45.112C259.627 45.4293 259.378 45.6673 259.004 45.826C258.641 45.996 258.222 46.098 257.746 46.132C257.27 46.166 256.731 46.1773 256.131 46.166C256.085 45.8373 256.006 45.4633 255.893 45.044C255.779 44.636 255.655 44.2733 255.519 43.956C255.791 43.9673 256.091 43.9787 256.42 43.99C256.748 43.99 256.964 43.99 257.066 43.99C257.19 43.99 257.27 43.973 257.304 43.939C257.349 43.8937 257.372 43.8257 257.372 43.735V37.615ZM259.463 34.402C259.825 34.7533 260.267 35.0877 260.789 35.405C261.321 35.711 261.905 36 262.54 36.272C263.174 36.544 263.843 36.782 264.546 36.986C265.248 37.19 265.962 37.36 266.688 37.496C266.506 37.666 266.314 37.8813 266.11 38.142C265.906 38.3913 265.713 38.6463 265.532 38.907C265.35 39.1677 265.203 39.4057 265.09 39.621C264.353 39.4283 263.628 39.1903 262.914 38.907C262.2 38.6237 261.514 38.3007 260.857 37.938C260.199 37.564 259.582 37.1617 259.004 36.731C258.437 36.289 257.921 35.8187 257.457 35.32L259.463 34.402ZM257.967 33.467L260.245 34.402C259.327 35.7393 258.137 36.8387 256.675 37.7C255.224 38.55 253.615 39.213 251.847 39.689C251.745 39.485 251.603 39.247 251.422 38.975C251.252 38.6917 251.065 38.4197 250.861 38.159C250.668 37.8983 250.492 37.6887 250.334 37.53C251.422 37.3033 252.453 36.9973 253.428 36.612C254.414 36.2267 255.298 35.7677 256.08 35.235C256.862 34.7023 257.491 34.113 257.967 33.467ZM273.913 31.223H283.416V33.552H273.913V31.223ZM278.078 32.634L280.543 33.28C279.919 34.9347 279.086 36.442 278.044 37.802C277.012 39.162 275.839 40.2613 274.525 41.1C274.423 40.9187 274.27 40.6977 274.066 40.437C273.862 40.165 273.652 39.8987 273.437 39.638C273.221 39.366 273.029 39.1507 272.859 38.992C274.06 38.3347 275.108 37.4563 276.004 36.357C276.91 35.2463 277.602 34.0053 278.078 32.634ZM278.826 36.782L280.441 35.269C280.837 35.609 281.251 35.9887 281.682 36.408C282.124 36.816 282.537 37.2297 282.923 37.649C283.308 38.0683 283.608 38.4593 283.824 38.822L282.056 40.539C281.863 40.1763 281.585 39.7797 281.223 39.349C280.871 38.907 280.48 38.465 280.05 38.023C279.63 37.5697 279.222 37.156 278.826 36.782ZM267.708 33.399H274.066V35.728H267.708V33.399ZM269.867 29.965H272.23V46.115H269.867V29.965ZM269.765 35.014L271.176 35.507C271.051 36.1983 270.892 36.9067 270.7 37.632C270.518 38.3573 270.309 39.0713 270.071 39.774C269.833 40.4767 269.572 41.134 269.289 41.746C269.005 42.3467 268.699 42.868 268.371 43.31C268.257 42.9587 268.087 42.562 267.861 42.12C267.634 41.678 267.424 41.2983 267.232 40.981C267.526 40.6183 267.804 40.199 268.065 39.723C268.325 39.247 268.563 38.7427 268.779 38.21C268.994 37.6773 269.187 37.139 269.357 36.595C269.527 36.051 269.663 35.524 269.765 35.014ZM272.06 35.592C272.162 35.6713 272.315 35.8017 272.519 35.983C272.723 36.1643 272.938 36.3627 273.165 36.578C273.391 36.7933 273.601 36.9917 273.794 37.173C273.986 37.3543 274.122 37.4847 274.202 37.564L272.927 39.468C272.813 39.264 272.672 39.0373 272.502 38.788C272.343 38.5273 272.173 38.2667 271.992 38.006C271.81 37.734 271.629 37.479 271.448 37.241C271.278 36.9917 271.125 36.782 270.989 36.612L272.06 35.592ZM277.398 35.66L279.353 33.705L279.846 33.875V46.166H277.398V35.66ZM290.216 46.115H284.436V43.905H287.785V35.32H290.216V46.115Z" fill="white"/>
</g>
<path d="M313.861 8.66923C314.134 10.2293 314.522 11.2992 315.187 12.2882C315.634 12.9574 316.129 13.4177 316.713 13.7076C317.369 14.0401 317.919 14.1381 318.137 13.9676C318.196 13.9207 318.29 13.8824 318.35 13.8824C318.546 13.8824 318.563 13.8099 318.537 13.0853C318.516 12.3265 318.439 11.9685 318.192 11.4271C317.608 10.1739 316.393 9.16369 314.339 8.23871C314.049 8.10657 313.797 8.00001 313.78 8.00001C313.763 8.00001 313.797 8.30265 313.861 8.66923Z" fill="white"/>
<path d="M320.327 9.75618C319.249 11.7852 318.904 13.4561 319.296 14.7945C319.564 15.7238 320.344 16.8661 320.703 16.8661C320.903 16.8661 321.355 16.2694 321.687 15.5661C321.977 14.9565 322.062 14.543 322.067 13.7545C322.067 12.902 321.93 12.2498 321.551 11.2737C321.376 10.8176 320.694 9.42796 320.617 9.36402C320.575 9.32992 320.506 9.4237 320.327 9.75618Z" fill="white"/>
<path d="M314.671 13.4859C314.671 13.503 314.756 13.8269 314.863 14.202C315.596 16.7809 316.922 18.5456 318.405 18.9292C319.091 19.104 319.467 19.0997 319.624 18.9164C319.663 18.8696 319.765 18.8184 319.85 18.8014C319.935 18.7886 320.016 18.7459 320.029 18.7118C320.042 18.682 320.029 18.4476 320.004 18.1918C319.859 16.7894 319.322 15.8815 318.115 14.9864C317.297 14.3768 316.466 14.006 314.769 13.4817C314.714 13.4646 314.671 13.4646 314.671 13.4859Z" fill="white"/>
<path d="M323.175 15.6513C322.216 16.8704 321.683 17.8124 321.423 18.763C321.291 19.2361 321.24 20.127 321.316 20.5405C321.427 21.133 321.704 21.815 322.037 22.318C322.182 22.5396 322.19 22.5439 322.352 22.5226C322.591 22.4885 322.813 22.3265 323.119 21.9599C323.708 21.2523 324.044 20.5746 324.228 19.7221C324.347 19.185 324.351 18.1534 324.245 17.4842C324.108 16.6402 323.712 15.1185 323.627 15.1185C323.605 15.1185 323.405 15.3572 323.175 15.6513Z" fill="white"/>
<path d="M317.544 18.8994C317.557 19.0145 317.578 19.381 317.591 19.7221C317.668 21.5635 318.017 22.8039 318.767 23.9036C319.232 24.5814 320.004 25.1909 320.634 25.3742C320.843 25.4382 320.877 25.4382 321.01 25.3742C321.086 25.3359 321.197 25.306 321.253 25.306C321.312 25.306 321.368 25.2719 321.385 25.2293C321.457 25.0375 321.542 24.5174 321.564 24.1125C321.636 22.7101 320.993 21.4186 319.624 20.2208C318.878 19.5686 317.706 18.699 317.578 18.699C317.54 18.699 317.531 18.7544 317.544 18.8994Z" fill="white"/>
<path d="M325.404 21.6573C323.665 22.6974 322.676 23.6309 322.148 24.7306C321.849 25.3615 321.811 25.5533 321.815 26.4357C321.82 27.0452 321.837 27.2669 321.9 27.5226C321.977 27.8253 321.99 27.8423 322.109 27.8551C322.182 27.8636 322.254 27.8892 322.28 27.9105C322.425 28.0512 323.03 27.838 323.559 27.4629C324.279 26.9472 324.995 25.9242 325.362 24.8798C325.609 24.1637 325.809 23.145 325.86 22.3223C325.873 22.1006 325.895 21.798 325.907 21.6488C325.916 21.5039 325.912 21.3845 325.895 21.3845C325.877 21.3845 325.656 21.5081 325.404 21.6573Z" fill="white"/>
<path d="M317.808 23.7758C317.761 23.9165 317.57 24.9395 317.501 25.4126C317.403 26.0946 317.403 27.237 317.497 27.7613C317.685 28.8014 318.115 29.6454 318.827 30.3572C319.321 30.8559 319.483 30.954 319.803 30.954H320.063L320.178 30.7409C320.379 30.3785 320.587 29.6667 320.643 29.1594C320.783 27.8636 320.229 26.4527 318.976 24.931C318.486 24.3385 317.838 23.6906 317.808 23.7758Z" fill="white"/>
<path d="M325.933 27.5013C324.603 27.7144 323.58 28.0043 322.911 28.3495C321.956 28.844 321.257 29.5985 320.86 30.5533C320.72 30.89 320.528 31.7425 320.566 31.8491C320.579 31.8789 320.669 31.9301 320.758 31.9557C320.856 31.9812 320.958 32.0452 320.997 32.1006C321.099 32.2583 321.321 32.3137 321.764 32.2839C323.158 32.1901 324.275 31.3973 325.443 29.6709C325.877 29.023 326.696 27.3862 326.576 27.399C326.559 27.4032 326.27 27.4459 325.933 27.5013Z" fill="white"/>
<path d="M316.747 28.9548C316.7 29.0401 316.376 30.0887 316.278 30.4851C316.039 31.4271 316.014 31.6317 316.018 32.5524C316.018 33.3623 316.027 33.4561 316.133 33.844C316.329 34.5686 316.794 35.3785 317.348 35.9454C317.646 36.2524 317.804 36.3461 318.017 36.3461C318.175 36.3461 318.2 36.3291 318.333 36.1287C318.686 35.5874 318.938 34.8883 319.023 34.2191C319.181 32.9233 318.571 31.2651 317.31 29.59C316.883 29.0188 316.781 28.9037 316.747 28.9548Z" fill="white"/>
<path d="M314.155 32.7315C313.571 33.8142 313.235 34.6922 313.051 35.5831C312.928 36.1671 312.949 37.1262 313.09 37.6249C313.341 38.5115 314.143 39.7136 314.475 39.7136C314.59 39.7136 314.965 39.3001 315.221 38.8824C315.49 38.4561 315.711 37.9318 315.814 37.4885C315.92 37.0196 315.907 35.9028 315.792 35.3657C315.681 34.8755 315.481 34.2362 315.281 33.746C315.114 33.3368 314.62 32.3137 314.535 32.1986C314.484 32.1347 314.441 32.1944 314.155 32.7315Z" fill="white"/>
<path d="M324.304 32.1987C323.746 32.2328 322.932 32.3436 322.544 32.4416C321.129 32.8039 320.025 33.682 319.488 34.8756C319.385 35.1057 319.147 35.792 319.147 35.8602C319.147 35.8687 319.249 35.9242 319.373 35.9796C319.492 36.035 319.637 36.1373 319.688 36.2055C319.82 36.393 320.097 36.4484 320.72 36.4186C321.815 36.3675 322.732 35.9156 323.712 34.9438C324.283 34.3726 324.773 33.7375 325.242 32.9489C325.464 32.5823 325.664 32.2541 325.681 32.2242C325.707 32.1816 325.596 32.1688 325.127 32.1773C324.803 32.1816 324.432 32.1901 324.304 32.1987Z" fill="white"/>
<path d="M311.325 35.7153C309.731 37.2583 309.002 38.4945 308.891 39.8329C308.84 40.451 309.023 41.3419 309.334 41.9727L309.492 42.2924H309.748C309.97 42.2924 310.033 42.2711 310.217 42.1432C310.912 41.6658 311.623 40.6513 311.913 39.7349C312.148 38.9804 312.178 38.7502 312.178 37.5823C312.178 36.653 312.16 36.4015 312.075 35.8559C312.02 35.5021 311.96 35.1995 311.943 35.1824C311.926 35.1611 311.645 35.3998 311.325 35.7153Z" fill="white"/>
<path d="M319.479 36.6701C318.264 36.8576 317.582 37.156 316.917 37.7911C316.568 38.1236 316.325 38.4348 316.061 38.8866C315.788 39.3598 315.788 39.3512 316.078 39.5345C316.218 39.6198 316.346 39.7263 316.359 39.7647C316.466 40.1014 317.506 40.3401 318.358 40.2293C318.831 40.1654 319.535 39.9352 319.957 39.705C320.788 39.2532 321.824 38.4135 322.143 37.9403C322.25 37.7783 322.476 37.497 322.642 37.3095C322.808 37.1262 322.936 36.9685 322.928 36.9599C322.919 36.9514 322.642 36.896 322.318 36.8363C320.933 36.5933 320.221 36.5507 319.479 36.6701Z" fill="white"/>
<path d="M307.745 39.0273C305.468 39.5516 304.126 40.2635 303.375 41.3547C303.013 41.8832 302.715 42.7613 302.664 43.4476L302.638 43.7929L302.787 43.8227C302.872 43.8355 303 43.908 303.077 43.9804L303.213 44.1168L303.648 44.0955C304.369 44.0614 305.059 43.7801 305.728 43.2515C306.312 42.7912 307.097 41.7596 307.608 40.7792C307.825 40.37 308.277 39.2788 308.346 39.0145C308.38 38.8781 308.397 38.8781 307.745 39.0273Z" fill="white"/>
<path d="M314.607 40.272C313.878 40.3743 313.051 40.7707 312.476 41.3035C312.156 41.5934 311.73 42.0963 311.73 42.1773C311.73 42.2029 311.845 42.3223 311.986 42.4459C312.126 42.5695 312.254 42.7144 312.267 42.7698C312.318 42.9659 312.774 43.2259 313.38 43.405C314.42 43.7076 315.634 43.5158 316.981 42.8338C317.757 42.4416 318.128 42.1944 318.277 41.9685C318.345 41.8662 318.571 41.6488 318.776 41.4825C319.028 41.2822 319.13 41.1756 319.091 41.1543C319.062 41.1373 318.729 41.0094 318.354 40.8687C317.578 40.5831 316.994 40.4126 316.466 40.3274C315.984 40.2507 314.982 40.2208 314.607 40.272Z" fill="white"/>
<path d="M309.07 42.8934C308.682 42.9787 308.286 43.1321 307.894 43.341C307.514 43.5456 307.088 43.8525 307.084 43.9165C307.084 43.942 307.195 44.1168 307.331 44.3086C307.463 44.5004 307.621 44.7349 307.681 44.8329C307.872 45.1483 308.512 45.6215 309.036 45.8346C310.029 46.2353 311.21 46.2481 312.689 45.8772C313.371 45.7025 313.563 45.6172 313.644 45.451C313.682 45.3657 313.78 45.2975 313.985 45.208C314.138 45.1398 314.322 45.0588 314.39 45.029L314.513 44.9736L314.062 44.6454C312.727 43.6735 311.909 43.2387 310.877 42.9702C310.349 42.8295 309.505 42.7954 309.07 42.8934Z" fill="white"/>
<path d="M303.695 44.688C303.533 44.7221 303.252 44.8073 303.077 44.8755C302.761 44.9949 302.122 45.3359 302.024 45.4382C301.947 45.5149 302.574 46.5209 302.906 46.8619C303.38 47.3478 303.972 47.6846 304.718 47.8849C305.119 47.9915 305.2 48 306.082 48C306.875 48 307.101 47.9872 307.553 47.902C308.171 47.7911 308.448 47.6846 308.448 47.5652C308.448 47.4714 308.593 47.3905 308.981 47.2754C309.121 47.2327 309.249 47.1858 309.27 47.1731C309.305 47.1432 308.422 46.3717 307.902 45.9795C306.964 45.2805 306.061 44.8457 305.208 44.6837C304.773 44.5985 304.091 44.6027 303.695 44.688Z" fill="white"/>
<defs>
<filter id="filter0_d_18_794" x="85.4176" y="3.9" width="214.2" height="48.2" filterUnits="userSpaceOnUse" color-interpolation-filters="sRGB">
<feFlood flood-opacity="0" result="BackgroundImageFix"/>
<feColorMatrix in="SourceAlpha" type="matrix" values="0 0 0 0 0 0 0 0 0 0 0 0 0 0 0 0 0 0 127 0" result="hardAlpha"/>
<feOffset/>
<feGaussianBlur stdDeviation="2.8"/>
<feComposite in2="hardAlpha" operator="out"/>
<feColorMatrix type="matrix" values="0 0 0 0 0 0 0 0 0 0 0 0 0 0 0 0 0 0 0.25 0"/>
<feBlend mode="normal" in2="BackgroundImageFix" result="effect1_dropShadow_18_794"/>
<feBlend mode="normal" in="SourceGraphic" in2="effect1_dropShadow_18_794" result="shape"/>
</filter>
<linearGradient id="paint0_linear_18_794" x1="168.5" y1="0" x2="168.5" y2="56" gradientUnits="userSpaceOnUse">
<stop stop-color="#4888FF"/>
<stop offset="1" stop-color="#0A46B4"/>
</linearGradient>
</defs>
</svg>
