<svg width="331" height="56" viewBox="0 0 331 56" fill="none" xmlns="http://www.w3.org/2000/svg">
<rect width="331" height="56" rx="8" fill="url(#paint0_linear_18_2)"/>
<rect x="1.05" y="1.05" width="328.9" height="53.9" rx="6.95" stroke="white" stroke-opacity="0.15" stroke-width="2.1"/>
<path d="M19.783 8.18346C17.7283 9.10426 16.4707 10.106 15.8696 11.2997C15.5883 11.8624 15.4305 12.5828 15.439 13.2521C15.4476 13.7679 15.4732 13.8532 15.6266 13.8702C15.6948 13.8788 15.7971 13.9214 15.8526 13.9683C16.0657 14.1345 16.6241 14.0322 17.2721 13.704C18.4444 13.1157 19.3993 11.6961 19.9066 9.78633C20.0047 9.41545 20.2519 8.14936 20.2519 8.01294C20.2519 7.97884 20.1837 8.00442 19.783 8.18346Z" fill="white"/>
<path d="M13.1369 9.79911C11.7301 12.4379 11.5511 14.3477 12.5614 16.0529C12.8087 16.4706 13.0985 16.8117 13.2435 16.8458C13.4012 16.8884 13.6186 16.7221 13.9128 16.3257C15.2258 14.5779 15.1959 12.8045 13.8019 10.008C13.6144 9.62859 13.4438 9.31739 13.4268 9.31739C13.4097 9.31739 13.2776 9.53481 13.1369 9.79911Z" fill="white"/>
<path d="M18.7684 13.623C17.9073 13.9001 17.4469 14.0876 16.8842 14.3775C15.7204 14.9786 14.8593 15.7587 14.433 16.607C14.1559 17.157 13.9854 17.8817 13.9854 18.5041V18.7726L14.1388 18.7982C14.2198 18.8153 14.3221 18.8664 14.3605 18.9133C14.4884 19.0582 14.7143 19.0923 15.1363 19.0199C15.9378 18.8792 16.4707 18.6064 17.0675 18.0266C17.984 17.1399 18.6618 15.8738 19.1478 14.1686C19.2416 13.8319 19.3268 13.5335 19.3354 13.5036C19.3609 13.4354 19.3652 13.4312 18.7684 13.623Z" fill="white"/>
<path d="M10.1572 15.7417C9.41548 18.3548 9.52206 20.0344 10.5196 21.4966C10.9757 22.1702 11.3892 22.5325 11.6962 22.5325C11.7942 22.5325 11.8454 22.4814 12.0116 22.2213C12.1225 22.0551 12.2887 21.7439 12.3782 21.535C13.1498 19.7488 12.6809 17.9712 10.8308 15.6479C10.5963 15.3537 10.3874 15.115 10.3704 15.115C10.3491 15.115 10.251 15.3964 10.1572 15.7417Z" fill="white"/>
<path d="M15.9251 19.0028C14.7698 19.8298 13.7936 20.7123 13.3119 21.3602C13.0305 21.7396 12.6895 22.4174 12.5787 22.8309C12.3996 23.496 12.3954 24.2718 12.5574 25.0008C12.6213 25.2736 12.6383 25.3035 12.7279 25.3035C12.7876 25.3035 12.8984 25.3333 12.9751 25.3717C13.1073 25.4356 13.1414 25.4356 13.3503 25.3717C13.9556 25.1926 14.7187 24.6086 15.1876 23.9521C16.07 22.7286 16.377 21.4668 16.458 18.7257C16.458 18.649 16.3215 18.7215 15.9251 19.0028Z" fill="white"/>
<path d="M8.11958 21.9656C8.19205 23.351 8.45209 24.5575 8.88691 25.4953C9.23221 26.2371 9.88444 27.0683 10.4258 27.4563C10.9544 27.8357 11.6067 28.0616 11.7047 27.9039C11.7175 27.8783 11.7857 27.8612 11.8539 27.8612C12.0074 27.8612 12.0372 27.8101 12.1353 27.3497C12.2504 26.8168 12.2376 25.8704 12.114 25.41C11.8028 24.2548 10.8948 23.1677 9.39846 22.1574C9.07874 21.9443 8.14942 21.3816 8.11532 21.3816C8.10253 21.3816 8.10253 21.6459 8.11958 21.9656Z" fill="white"/>
<path d="M15.7929 24.0757C15.0213 24.8687 14.5311 25.5081 13.994 26.4118C13.6487 26.9959 13.3929 27.8527 13.3588 28.5518C13.3204 29.3149 13.4654 30.0226 13.8021 30.6918L13.9471 30.9817L14.1986 30.9647C14.3862 30.9519 14.4927 30.9135 14.6292 30.8197C15.3496 30.3252 16.0615 29.332 16.3429 28.4325C16.6754 27.3753 16.6626 25.9898 16.3002 24.2676C16.2405 23.9692 16.1766 23.7262 16.1638 23.7262C16.1468 23.7262 15.9805 23.8839 15.7929 24.0757Z" fill="white"/>
<path d="M7.43318 27.4946C7.47581 27.6822 8.05983 28.8886 8.2943 29.2723C9.47513 31.2162 10.737 32.1839 12.2205 32.2819C12.6596 32.3117 12.8855 32.2563 12.9878 32.1029C13.0219 32.0474 13.1327 31.9835 13.2478 31.9537L13.4439 31.8982L13.4141 31.6126C13.3544 30.9433 12.9921 30.0822 12.5359 29.5067C11.6706 28.4239 10.3746 27.8527 7.94047 27.4818L7.41187 27.4051L7.43318 27.4946Z" fill="white"/>
<path d="M16.8798 29.3448C14.9743 31.7874 14.5054 33.8336 15.4219 35.6965C15.5072 35.8671 15.6308 36.0845 15.6947 36.174C15.8013 36.3189 15.8439 36.3445 15.9718 36.3445C16.1892 36.3445 16.3171 36.2635 16.6795 35.8841C18.018 34.4816 18.342 32.785 17.7154 30.4233C17.5534 29.8265 17.2678 28.927 17.2337 28.927C17.2166 28.927 17.0589 29.1146 16.8798 29.3448Z" fill="white"/>
<path d="M19.1692 32.7722C17.9755 35.1978 17.788 36.8987 18.5468 38.4547C18.9219 39.2305 19.361 39.7549 19.5827 39.6952C19.7148 39.6611 19.9962 39.3712 20.2264 39.0344C21.2878 37.4486 21.322 35.9608 20.35 33.7441C20.1411 33.2667 19.5443 32.1242 19.5059 32.1242C19.4974 32.1242 19.3482 32.4183 19.1692 32.7722Z" fill="white"/>
<path d="M8.31567 32.1796C8.31567 32.1924 8.42651 32.3927 8.56719 32.6229C8.7036 32.8531 8.89543 33.1814 8.99348 33.3519C9.39846 34.051 10.4088 35.1679 11.044 35.6155C11.7857 36.1399 12.4678 36.3829 13.282 36.417C13.9001 36.4425 14.1175 36.3956 14.3051 36.1953C14.3733 36.1143 14.5268 36.012 14.6376 35.9651C14.7485 35.9182 14.838 35.85 14.838 35.8201C14.838 35.6965 14.612 35.0784 14.4543 34.7587C14.0493 33.9444 13.5634 33.4286 12.7832 32.981C12.0713 32.5718 11.4703 32.3842 10.5111 32.2734C9.93986 32.2052 8.31567 32.1327 8.31567 32.1796Z" fill="white"/>
<path d="M22.0253 35.266C21.8846 35.9651 21.8164 36.6898 21.8121 37.5595C21.8079 38.7829 21.9315 39.4693 22.3024 40.2963C22.6008 40.9655 23.2658 41.8011 23.7688 42.1421C23.9393 42.2615 24.0331 42.2913 24.2463 42.3041L24.5106 42.3212L24.6129 42.1165C25.1031 41.1446 25.2395 39.9424 24.9624 39.0089C24.7493 38.2884 24.3869 37.6404 23.7603 36.8561C23.4832 36.5065 22.1446 35.1509 22.0807 35.1509C22.0636 35.1509 22.0381 35.202 22.0253 35.266Z" fill="white"/>
<path d="M12.6212 36.6855C12.3271 36.7282 11.8624 36.8006 11.5811 36.8518C11.304 36.8987 11.0695 36.9413 11.0567 36.9413C11.0482 36.9413 11.1974 37.1204 11.3893 37.3378C11.5811 37.5552 11.79 37.828 11.8539 37.9474C11.9264 38.0795 12.1267 38.2969 12.391 38.5314C14.0408 39.9936 15.5712 40.5179 17.0334 40.13C17.3446 40.049 17.3957 40.0192 17.6089 39.8018C17.7368 39.6696 17.9158 39.5247 18.0054 39.4778C18.2014 39.3755 18.1972 39.3328 17.9457 38.8852C17.3361 37.8067 16.4238 37.0948 15.3069 36.822C14.3776 36.5918 13.5591 36.5534 12.6212 36.6855Z" fill="white"/>
<path d="M25.6233 38.9193C25.6233 39.0216 26.2031 40.4071 26.4119 40.8078C27.5033 42.9052 28.8418 44.0221 30.3381 44.0946L30.7687 44.1116L30.9008 43.9837C30.9776 43.9112 31.1054 43.8388 31.1864 43.8217C31.2674 43.8089 31.3484 43.7791 31.357 43.7578C31.3697 43.7407 31.357 43.5446 31.3314 43.3272C31.2419 42.5812 30.969 41.8437 30.5939 41.3151C30.3594 40.9826 29.818 40.4668 29.4599 40.2323C28.7651 39.7719 27.7121 39.3669 26.4333 39.0685C25.7085 38.9023 25.6233 38.8852 25.6233 38.9193Z" fill="white"/>
<path d="M17.9627 40.2664C17.4512 40.3218 16.978 40.4241 16.394 40.6117C15.7417 40.8206 14.9062 41.1446 14.8934 41.1915C14.8891 41.2085 15.0511 41.3492 15.2515 41.4984C15.4774 41.6689 15.6394 41.8266 15.6692 41.9034C15.7417 42.0782 15.8568 42.1762 16.2703 42.432C17.5066 43.1951 18.7386 43.5872 19.7617 43.5361C20.5674 43.4935 21.4669 43.1609 21.68 42.8242C21.7354 42.7389 21.8974 42.5599 22.0466 42.4277L22.3152 42.1933L22.1361 41.9588C21.5308 41.1574 20.6654 40.5691 19.7787 40.3517C19.361 40.2494 18.4956 40.211 17.9627 40.2664Z" fill="white"/>
<path d="M23.385 42.9052C22.5239 43.0885 21.6585 43.4721 20.7505 44.0775C19.77 44.734 19.4077 45.0409 19.6166 45.0409C19.6422 45.0409 19.7999 45.1049 19.9747 45.1859C20.2006 45.2882 20.3029 45.3649 20.3413 45.4502C20.4223 45.6164 20.6141 45.7017 21.2962 45.8764C22.7541 46.2431 23.8838 46.2345 24.9026 45.8551C25.4312 45.6548 26.0792 45.1773 26.3307 44.7979C26.4202 44.6658 26.595 44.4143 26.7186 44.2352C26.9872 43.8643 27 43.907 26.497 43.5702C26.0963 43.3016 25.6785 43.1098 25.2181 42.9691C24.698 42.8157 23.9477 42.7901 23.385 42.9052Z" fill="white"/>
<path d="M28.6285 44.7169C28.0232 44.8619 27.567 45.0537 26.8423 45.4757C26.2711 45.8082 24.6767 47.0957 24.7492 47.1681C24.7663 47.1809 24.9453 47.2491 25.1457 47.3216C25.4569 47.4282 25.5208 47.4665 25.5293 47.5475C25.5507 47.6925 25.7979 47.7863 26.4331 47.9056C26.885 47.9866 27.1066 48.0037 27.9038 47.9994C28.7862 47.9994 28.8672 47.9909 29.2679 47.8843C30.372 47.5859 31.0456 47.0743 31.6765 46.064C31.8641 45.7613 32.0175 45.497 32.0175 45.48C32.0175 45.3862 31.1181 44.9301 30.6108 44.7638C30.3038 44.6615 30.1589 44.6445 29.6516 44.6317C29.1358 44.6189 28.9951 44.6274 28.6285 44.7169Z" fill="white"/>
<path d="M51.9443 20.8078C52.2162 20.6289 52.4879 20.45 52.7134 20.2555C52.9388 20.0609 53.118 19.8505 53.2236 19.6472C53.3291 19.4438 53.3609 19.2473 53.3426 19.0361C53.3242 18.8249 53.2556 18.5989 53.1627 18.3236C53.0698 18.0482 52.9525 17.7235 52.901 17.4208C52.8495 17.1181 52.8639 16.8376 52.8996 16.6296C52.9352 16.4215 52.9923 16.2861 53.0419 16.1537C53.0915 16.0213 53.1335 15.8918 53.2361 15.6904C53.3387 15.489 53.5018 15.2158 53.665 14.9425" stroke="white" stroke-width="1.5" stroke-linecap="round"/>
<path d="M64.1401 20.5057C64.412 20.3268 64.6837 20.1479 64.9092 19.9534C65.1346 19.7588 65.3138 19.5484 65.4194 19.3451C65.5249 19.1417 65.5567 18.9452 65.5384 18.734C65.52 18.5228 65.4514 18.2968 65.3585 18.0215C65.2656 17.7461 65.1483 17.4214 65.0968 17.1187C65.0453 16.8161 65.0597 16.5355 65.0954 16.3275C65.131 16.1194 65.1881 15.984 65.2377 15.8516C65.2873 15.7192 65.3293 15.5897 65.4319 15.3883C65.5345 15.1869 65.6976 14.9137 65.8608 14.6404" stroke="white" stroke-width="1.5" stroke-linecap="round"/>
<path d="M58.3069 19.2935C58.5787 19.1146 58.8505 18.9357 59.0759 18.7412C59.3014 18.5466 59.4806 18.3362 59.5861 18.1329C59.6916 17.9295 59.7234 17.7329 59.7051 17.5217C59.6868 17.3105 59.6182 17.0846 59.5252 16.8092C59.4323 16.5339 59.3151 16.2092 59.2635 15.9065C59.212 15.6038 59.2264 15.3233 59.2621 15.1153C59.2978 14.9072 59.3548 14.7718 59.4044 14.6394C59.454 14.507 59.4961 14.3775 59.5987 14.1761C59.7013 13.9747 59.8644 13.7015 60.0275 13.4282" stroke="white" stroke-width="1.5" stroke-linecap="round"/>
<path d="M75.891 39.4322C75.565 39.4339 54.6823 39.5444 49.2795 39.5233C43.8766 39.5021 43.8387 39.4024 43.8386 39.5544C43.8386 39.7063 43.8765 40.11 44.0257 40.497C44.175 40.8841 44.4352 41.2545 44.7696 41.5847C45.104 41.9149 45.498 42.1947 45.7908 42.3561C46.0836 42.5174 46.2679 42.5554 50.8493 42.5696C55.4307 42.5838 64.4089 42.5743 68.9414 42.5505C73.4738 42.5267 73.5606 42.4888 73.8154 42.3748C74.0702 42.2608 74.4931 42.0708 74.8942 41.7432C75.2953 41.4156 75.6748 40.9502 75.8862 40.5941C76.0977 40.2381 76.1283 40.0635 76.1634 39.8364C76.1985 39.6092 76.2062 39.535 76.217 39.4305C76.217 39.4305 76.217 39.4305 75.891 39.4322Z" stroke="white" stroke-width="1.4" stroke-linecap="round" stroke-linejoin="round"/>
<path d="M71.6901 26.7325C71.6031 26.1198 71.5161 25.5066 71.3383 25.1406C71.1605 24.7745 70.8915 24.6559 70.7099 24.5962C70.5282 24.5365 70.4339 24.5361 66.5881 24.5526C62.7423 24.5692 55.1453 24.6028 51.3172 24.6201C47.489 24.6375 47.43 24.6387 47.3589 24.6452C47.2878 24.6517 47.2047 24.6635 47.0879 24.7248C46.9711 24.7862 46.8207 24.8969 46.6973 25.0629C46.5739 25.2288 46.4804 25.4431 46.432 25.978C46.3836 26.513 46.3817 27.3651 46.3976 27.9869C46.4134 28.6088 46.447 29.0004 46.5746 29.651C46.7021 30.3017 46.9237 31.2112 47.2283 32.121C47.5329 33.0307 47.9206 33.9405 48.5754 34.9143C49.2302 35.8881 50.1519 36.9258 51.0123 37.6958C51.8728 38.4658 52.6718 38.9682 53.0872 39.2192C53.5025 39.4703 53.5341 39.4703 55.402 39.4644C57.2698 39.4584 60.9738 39.4466 62.8415 39.4346C64.7092 39.4227 64.7409 39.4109 65.1422 39.1254C65.5435 38.8399 66.3145 38.2808 67.0442 37.6651C67.7739 37.0493 68.4622 36.3768 69.0911 35.5303C69.72 34.6838 70.2897 33.6632 70.7021 32.7063C71.1146 31.7493 71.3657 30.8706 71.5041 29.8896C71.6425 28.9086 71.6664 27.8168 71.702 27.2509C71.7376 26.685 71.7851 26.6375 72.0424 26.627C72.2997 26.6165 72.7665 26.6428 73.2294 26.7154C73.6923 26.788 74.1511 26.9067 74.4992 27.1165C74.8472 27.3263 75.0846 27.6269 75.2822 27.909C75.4797 28.1911 75.6376 28.4545 75.7528 28.8435C75.868 29.2326 75.9407 29.7473 75.9574 30.2591C75.9742 30.771 75.935 31.2801 75.8231 31.7331C75.7112 32.1862 75.5266 32.5834 75.2385 32.9945C74.9504 33.4056 74.5588 33.8308 74.1225 34.2083C73.6862 34.5859 73.2051 34.916 72.6373 35.2209C72.0695 35.5258 71.415 35.8055 70.7129 35.9957C70.0109 36.1859 69.2613 36.2866 68.5113 36.3874" stroke="white" stroke-width="1.4" stroke-linecap="round"/>
<g filter="url(#filter0_d_18_2)">
<path d="M91.5744 24.5L88.3471 12.8636H90.1937L92.4608 21.875H92.5687L94.9267 12.8636H96.7562L99.1142 21.8807H99.2221L101.483 12.8636H103.336L100.103 24.5H98.3358L95.8869 15.7841H95.796L93.3471 24.5H91.5744ZM104.8 24.5V15.7727H106.499V24.5H104.8ZM105.658 14.4261C105.363 14.4261 105.109 14.3276 104.897 14.1307C104.689 13.9299 104.584 13.6913 104.584 13.4148C104.584 13.1345 104.689 12.8958 104.897 12.6989C105.109 12.4981 105.363 12.3977 105.658 12.3977C105.954 12.3977 106.206 12.4981 106.414 12.6989C106.626 12.8958 106.732 13.1345 106.732 13.4148C106.732 13.6913 106.626 13.9299 106.414 14.1307C106.206 14.3276 105.954 14.4261 105.658 14.4261ZM110.483 19.3182V24.5H108.785V15.7727H110.415V17.1932H110.523C110.724 16.7311 111.038 16.3598 111.466 16.0795C111.898 15.7992 112.442 15.6591 113.097 15.6591C113.692 15.6591 114.213 15.7841 114.66 16.0341C115.107 16.2803 115.453 16.6477 115.699 17.1364C115.946 17.625 116.069 18.2292 116.069 18.9489V24.5H114.37V19.1534C114.37 18.5208 114.205 18.0265 113.876 17.6705C113.546 17.3106 113.093 17.1307 112.518 17.1307C112.124 17.1307 111.773 17.2159 111.466 17.3864C111.163 17.5568 110.923 17.8068 110.745 18.1364C110.571 18.4621 110.483 18.8561 110.483 19.3182ZM120.046 19.3182V24.5H118.347V15.7727H119.978V17.1932H120.086C120.287 16.7311 120.601 16.3598 121.029 16.0795C121.461 15.7992 122.004 15.6591 122.66 15.6591C123.254 15.6591 123.775 15.7841 124.222 16.0341C124.669 16.2803 125.016 16.6477 125.262 17.1364C125.508 17.625 125.631 18.2292 125.631 18.9489V24.5H123.932V19.1534C123.932 18.5208 123.768 18.0265 123.438 17.6705C123.108 17.3106 122.656 17.1307 122.08 17.1307C121.686 17.1307 121.336 17.2159 121.029 17.3864C120.726 17.5568 120.485 17.8068 120.307 18.1364C120.133 18.4621 120.046 18.8561 120.046 19.3182ZM131.671 24.6761C130.811 24.6761 130.071 24.4924 129.449 24.125C128.832 23.7538 128.355 23.233 128.018 22.5625C127.684 21.8883 127.518 21.0985 127.518 20.1932C127.518 19.2992 127.684 18.5114 128.018 17.8295C128.355 17.1477 128.824 16.6155 129.427 16.233C130.033 15.8504 130.741 15.6591 131.552 15.6591C132.044 15.6591 132.521 15.7405 132.983 15.9034C133.446 16.0663 133.86 16.322 134.228 16.6705C134.595 17.0189 134.885 17.4716 135.097 18.0284C135.309 18.5814 135.415 19.2538 135.415 20.0455V20.6477H128.478V19.375H133.751C133.751 18.928 133.66 18.5322 133.478 18.1875C133.296 17.839 133.04 17.5644 132.711 17.3636C132.385 17.1629 132.002 17.0625 131.563 17.0625C131.086 17.0625 130.669 17.1799 130.313 17.4148C129.961 17.6458 129.688 17.9489 129.495 18.3239C129.305 18.6951 129.211 19.0985 129.211 19.5341V20.5284C129.211 21.1117 129.313 21.608 129.518 22.017C129.726 22.4261 130.016 22.7386 130.387 22.9545C130.758 23.1667 131.192 23.2727 131.688 23.2727C132.01 23.2727 132.304 23.2273 132.569 23.1364C132.834 23.0417 133.063 22.9015 133.256 22.7159C133.449 22.5303 133.597 22.3011 133.699 22.0284L135.307 22.3182C135.179 22.7917 134.947 23.2064 134.614 23.5625C134.285 23.9148 133.87 24.1894 133.37 24.3864C132.874 24.5795 132.307 24.6761 131.671 24.6761ZM137.3 24.5V15.7727H138.942V17.1591H139.033C139.192 16.6894 139.473 16.3201 139.874 16.0511C140.279 15.7784 140.738 15.642 141.249 15.642C141.355 15.642 141.48 15.6458 141.624 15.6534C141.772 15.661 141.887 15.6705 141.971 15.6818V17.3068C141.903 17.2879 141.781 17.267 141.607 17.2443C141.433 17.2178 141.259 17.2045 141.084 17.2045C140.683 17.2045 140.325 17.2898 140.01 17.4602C139.7 17.6269 139.454 17.8598 139.272 18.1591C139.09 18.4545 138.999 18.7917 138.999 19.1705V24.5H137.3ZM151.351 24.6761C150.533 24.6761 149.819 24.4886 149.209 24.1136C148.599 23.7386 148.126 23.214 147.789 22.5398C147.452 21.8655 147.283 21.0776 147.283 20.1761C147.283 19.2708 147.452 18.4792 147.789 17.8011C148.126 17.1231 148.599 16.5966 149.209 16.2216C149.819 15.8466 150.533 15.6591 151.351 15.6591C152.17 15.6591 152.884 15.8466 153.493 16.2216C154.103 16.5966 154.577 17.1231 154.914 17.8011C155.251 18.4792 155.42 19.2708 155.42 20.1761C155.42 21.0776 155.251 21.8655 154.914 22.5398C154.577 23.214 154.103 23.7386 153.493 24.1136C152.884 24.4886 152.17 24.6761 151.351 24.6761ZM151.357 23.25C151.887 23.25 152.327 23.1098 152.675 22.8295C153.024 22.5492 153.281 22.1761 153.448 21.7102C153.618 21.2443 153.704 20.7311 153.704 20.1705C153.704 19.6136 153.618 19.1023 153.448 18.6364C153.281 18.1667 153.024 17.7898 152.675 17.5057C152.327 17.2216 151.887 17.0795 151.357 17.0795C150.823 17.0795 150.38 17.2216 150.028 17.5057C149.679 17.7898 149.42 18.1667 149.249 18.6364C149.082 19.1023 148.999 19.6136 148.999 20.1705C148.999 20.7311 149.082 21.2443 149.249 21.7102C149.42 22.1761 149.679 22.5492 150.028 22.8295C150.38 23.1098 150.823 23.25 151.357 23.25ZM161.469 15.7727V17.1364H156.537V15.7727H161.469ZM157.89 24.5V14.7614C157.89 14.2159 158.009 13.7633 158.248 13.4034C158.486 13.0398 158.803 12.7689 159.197 12.5909C159.59 12.4091 160.019 12.3182 160.481 12.3182C160.822 12.3182 161.113 12.3466 161.356 12.4034C161.598 12.4564 161.778 12.5057 161.895 12.5511L161.498 13.9261C161.418 13.9034 161.316 13.8769 161.191 13.8466C161.066 13.8125 160.914 13.7955 160.736 13.7955C160.323 13.7955 160.028 13.8977 159.85 14.1023C159.676 14.3068 159.589 14.6023 159.589 14.9886V24.5H157.89Z" fill="white"/>
<path d="M91.9276 44.5V34.368H88.5106V31.835H98.4046V34.368H94.9706V44.5H91.9276ZM102.858 44.738C101.929 44.738 101.09 44.5397 100.342 44.143C99.6054 43.735 99.016 43.1513 98.574 42.392C98.1434 41.6327 97.928 40.7203 97.928 39.655C97.928 38.873 98.0527 38.1703 98.302 37.547C98.5627 36.9237 98.9084 36.391 99.339 35.949C99.781 35.507 100.274 35.1727 100.818 34.946C101.373 34.708 101.94 34.589 102.518 34.589C103.447 34.589 104.218 34.793 104.83 35.201C105.442 35.609 105.901 36.1643 106.207 36.867C106.513 37.5697 106.666 38.363 106.666 39.247C106.666 39.519 106.649 39.774 106.615 40.012C106.592 40.25 106.564 40.4313 106.53 40.556H100.852C100.943 40.998 101.101 41.355 101.328 41.627C101.555 41.899 101.832 42.103 102.161 42.239C102.49 42.3637 102.858 42.426 103.266 42.426C103.617 42.426 103.957 42.375 104.286 42.273C104.615 42.171 104.955 42.018 105.306 41.814L106.309 43.633C105.81 43.9843 105.249 44.2563 104.626 44.449C104.014 44.6417 103.425 44.738 102.858 44.738ZM100.801 38.567H104.099C104.099 38.091 103.98 37.6943 103.742 37.377C103.515 37.0597 103.124 36.901 102.569 36.901C102.297 36.901 102.036 36.9633 101.787 37.088C101.549 37.2013 101.339 37.3827 101.158 37.632C100.988 37.87 100.869 38.1817 100.801 38.567ZM110.698 44.738C110.109 44.738 109.599 44.6077 109.168 44.347C108.738 44.075 108.403 43.718 108.165 43.276C107.939 42.8227 107.825 42.3297 107.825 41.797C107.825 40.777 108.25 39.9837 109.1 39.417C109.95 38.839 111.316 38.448 113.197 38.244C113.175 37.9833 113.112 37.7623 113.01 37.581C112.908 37.3883 112.75 37.2467 112.534 37.156C112.33 37.054 112.064 37.003 111.735 37.003C111.35 37.003 110.953 37.0767 110.545 37.224C110.137 37.3713 109.69 37.581 109.202 37.853L108.148 35.864C108.579 35.6033 109.015 35.3823 109.457 35.201C109.911 35.0083 110.375 34.861 110.851 34.759C111.327 34.6457 111.815 34.589 112.313 34.589C113.152 34.589 113.86 34.7477 114.438 35.065C115.016 35.3823 115.458 35.8697 115.764 36.527C116.07 37.173 116.223 38.0003 116.223 39.009V44.5H113.758L113.554 43.531H113.469C113.073 43.8823 112.642 44.1713 112.177 44.398C111.724 44.6247 111.231 44.738 110.698 44.738ZM111.735 42.392C112.041 42.392 112.308 42.324 112.534 42.188C112.761 42.052 112.982 41.865 113.197 41.627V40.08C112.574 40.1593 112.075 40.2727 111.701 40.42C111.339 40.5673 111.078 40.7373 110.919 40.93C110.772 41.1227 110.698 41.3323 110.698 41.559C110.698 41.8423 110.789 42.052 110.97 42.188C111.163 42.324 111.418 42.392 111.735 42.392ZM124.153 44.738C123.348 44.738 122.589 44.602 121.875 44.33C121.161 44.058 120.526 43.65 119.971 43.106C119.427 42.5507 118.996 41.8707 118.679 41.066C118.373 40.25 118.22 39.3093 118.22 38.244C118.22 37.19 118.379 36.255 118.696 35.439C119.025 34.6117 119.467 33.9147 120.022 33.348C120.589 32.7813 121.235 32.3507 121.96 32.056C122.685 31.7613 123.45 31.614 124.255 31.614C125.082 31.614 125.819 31.7783 126.465 32.107C127.122 32.4357 127.666 32.821 128.097 33.263L126.516 35.201C126.199 34.9063 125.864 34.6683 125.513 34.487C125.162 34.3057 124.759 34.215 124.306 34.215C123.762 34.215 123.263 34.3737 122.81 34.691C122.357 34.997 121.994 35.4447 121.722 36.034C121.461 36.612 121.331 37.3147 121.331 38.142C121.331 38.9807 121.45 39.7003 121.688 40.301C121.937 40.8903 122.283 41.3437 122.725 41.661C123.167 41.967 123.683 42.12 124.272 42.12C124.782 42.12 125.235 42.0067 125.632 41.78C126.04 41.5533 126.391 41.2813 126.686 40.964L128.284 42.868C127.751 43.4913 127.134 43.9617 126.431 44.279C125.74 44.585 124.98 44.738 124.153 44.738ZM134.098 44.738C133.282 44.738 132.511 44.5397 131.786 44.143C131.06 43.735 130.471 43.1513 130.018 42.392C129.576 41.6327 129.355 40.7203 129.355 39.655C129.355 38.5897 129.576 37.683 130.018 36.935C130.471 36.1757 131.06 35.5977 131.786 35.201C132.511 34.793 133.282 34.589 134.098 34.589C134.71 34.589 135.299 34.7023 135.866 34.929C136.432 35.1557 136.937 35.49 137.379 35.932C137.821 36.3627 138.172 36.8897 138.433 37.513C138.693 38.1363 138.824 38.8503 138.824 39.655C138.824 40.7203 138.597 41.6327 138.144 42.392C137.702 43.1513 137.118 43.735 136.393 44.143C135.679 44.5397 134.914 44.738 134.098 44.738ZM134.098 42.29C134.472 42.29 134.778 42.1823 135.016 41.967C135.265 41.7517 135.446 41.4457 135.56 41.049C135.673 40.6523 135.73 40.1877 135.73 39.655C135.73 39.1223 135.673 38.6633 135.56 38.278C135.446 37.8813 135.265 37.5753 135.016 37.36C134.778 37.1447 134.472 37.037 134.098 37.037C133.724 37.037 133.412 37.1447 133.163 37.36C132.925 37.5753 132.743 37.8813 132.619 38.278C132.505 38.6633 132.449 39.1223 132.449 39.655C132.449 40.1877 132.505 40.6523 132.619 41.049C132.743 41.4457 132.925 41.7517 133.163 41.967C133.412 42.1823 133.724 42.29 134.098 42.29ZM140.723 44.5V34.827H143.188L143.409 36.034H143.46C143.857 35.6373 144.304 35.2973 144.803 35.014C145.313 34.7307 145.897 34.589 146.554 34.589C147.608 34.589 148.373 34.9403 148.849 35.643C149.325 36.3457 149.563 37.3033 149.563 38.516V44.5H146.537V38.89C146.537 38.2213 146.446 37.768 146.265 37.53C146.084 37.292 145.8 37.173 145.415 37.173C145.075 37.173 144.786 37.2467 144.548 37.394C144.31 37.5413 144.044 37.7567 143.749 38.04V44.5H140.723ZM161.832 31.937H164.467V46.098H161.832V31.937ZM156.409 30.883H169.975V41.763H167.289V33.246H158.959V41.763H156.409V30.883ZM157.565 34.742H168.513V37.071H157.565V34.742ZM157.548 38.533H168.496V40.896H157.548V38.533ZM174.752 30.492H187.536V32.906H174.752V30.492ZM174.65 36.782H187.893V39.043H174.65V36.782ZM176.775 33.722H186.499V35.966H176.775V33.722ZM173.307 30.492H175.891V35.898C175.891 36.646 175.869 37.4733 175.823 38.38C175.789 39.2867 175.71 40.216 175.585 41.168C175.461 42.1087 175.279 43.021 175.041 43.905C174.815 44.7777 174.514 45.5653 174.14 46.268C173.97 46.132 173.744 45.979 173.46 45.809C173.177 45.639 172.882 45.4747 172.576 45.316C172.282 45.1687 172.027 45.0553 171.811 44.976C172.163 44.3413 172.435 43.6387 172.627 42.868C172.831 42.0973 172.979 41.304 173.069 40.488C173.171 39.672 173.234 38.873 173.256 38.091C173.29 37.2977 173.307 36.5667 173.307 35.898V30.492ZM182.13 37.649C182.595 39.077 183.332 40.318 184.34 41.372C185.349 42.4147 186.669 43.1683 188.301 43.633C188.12 43.7917 187.927 44.0013 187.723 44.262C187.519 44.5113 187.321 44.772 187.128 45.044C186.947 45.316 186.8 45.5653 186.686 45.792C185.496 45.3613 184.476 44.789 183.626 44.075C182.776 43.3497 182.051 42.494 181.45 41.508C180.861 40.522 180.362 39.4057 179.954 38.159L182.13 37.649ZM185.53 38.771L187.723 40.182C187.327 40.4767 186.919 40.7713 186.499 41.066C186.08 41.3493 185.672 41.6157 185.275 41.865C184.879 42.1143 184.51 42.3297 184.17 42.511L182.504 41.304C182.833 41.0887 183.179 40.8393 183.541 40.556C183.915 40.2613 184.278 39.961 184.629 39.655C184.981 39.3377 185.281 39.043 185.53 38.771ZM177.03 46.149L176.792 43.956L177.795 43.191L181.858 42.341C181.824 42.7037 181.807 43.1117 181.807 43.565C181.807 44.0183 181.824 44.3923 181.858 44.687C180.963 44.9023 180.226 45.0837 179.648 45.231C179.07 45.3897 178.611 45.52 178.271 45.622C177.931 45.7353 177.671 45.8317 177.489 45.911C177.308 45.9903 177.155 46.0697 177.03 46.149ZM177.03 46.149C176.962 45.9677 176.849 45.758 176.69 45.52C176.532 45.282 176.362 45.0497 176.18 44.823C176.01 44.6077 175.857 44.4377 175.721 44.313C175.948 44.1203 176.175 43.8483 176.401 43.497C176.639 43.1457 176.758 42.7263 176.758 42.239V38.363H179.308V43.463C179.308 43.463 179.229 43.5253 179.07 43.65C178.923 43.7747 178.736 43.9447 178.509 44.16C178.283 44.364 178.056 44.585 177.829 44.823C177.603 45.061 177.41 45.2933 177.251 45.52C177.104 45.758 177.03 45.9677 177.03 46.149ZM199.368 29.965H205.148V32.175H201.799V40.76H199.368V29.965ZM206.117 31.206H212.016V33.484H206.117V31.206ZM206.253 36.068H211.931V38.329H206.253V36.068ZM205.76 41.865C206.316 41.763 206.945 41.644 207.647 41.508C208.361 41.3607 209.109 41.202 209.891 41.032C210.685 40.8507 211.472 40.675 212.254 40.505L212.509 42.63C211.433 42.9133 210.345 43.1967 209.245 43.48C208.146 43.752 207.143 44.0013 206.236 44.228L205.76 41.865ZM212.883 31.189H221.162V33.535L212.883 33.535V31.189ZM212.237 35.898H222.046V38.261H212.237V35.898ZM213.971 37.615H216.351C216.317 38.6803 216.238 39.655 216.113 40.539C216 41.4117 215.785 42.1993 215.467 42.902C215.15 43.6047 214.674 44.2223 214.039 44.755C213.416 45.2877 212.577 45.741 211.523 46.115C211.444 45.9223 211.325 45.7013 211.166 45.452C211.019 45.214 210.855 44.9817 210.673 44.755C210.503 44.5283 210.333 44.3413 210.163 44.194C211.059 43.8993 211.756 43.5537 212.254 43.157C212.764 42.7603 213.133 42.2957 213.359 41.763C213.597 41.2303 213.75 40.624 213.818 39.944C213.898 39.2527 213.949 38.4763 213.971 37.615ZM217.065 37.564H219.513V43.072C219.513 43.378 219.525 43.5707 219.547 43.65C219.57 43.718 219.621 43.752 219.7 43.752C219.723 43.752 219.751 43.752 219.785 43.752C219.819 43.752 219.853 43.752 219.887 43.752C219.933 43.752 219.961 43.752 219.972 43.752C220.052 43.752 220.108 43.701 220.142 43.599C220.188 43.4857 220.222 43.259 220.244 42.919C220.267 42.579 220.284 42.0747 220.295 41.406C220.454 41.542 220.664 41.678 220.924 41.814C221.185 41.95 221.451 42.069 221.723 42.171C222.007 42.273 222.256 42.3523 222.471 42.409C222.403 43.3383 222.284 44.0693 222.114 44.602C221.956 45.1347 221.723 45.5087 221.417 45.724C221.111 45.9393 220.72 46.047 220.244 46.047C220.165 46.047 220.08 46.047 219.989 46.047C219.91 46.047 219.825 46.047 219.734 46.047C219.644 46.047 219.559 46.047 219.479 46.047C219.4 46.047 219.321 46.047 219.241 46.047C218.652 46.047 218.199 45.9507 217.881 45.758C217.564 45.5767 217.349 45.265 217.235 44.823C217.122 44.3923 217.065 43.8143 217.065 43.089V37.564ZM208.021 32.107H210.401V42.086L208.021 42.426V32.107ZM223.61 31.223H238.604V35.303H236.071V33.45H226.024V35.303H223.61V31.223ZM226.33 33.994H235.748V36.068H226.33V33.994ZM228.829 37.309L230.733 36.289C231.413 36.8217 231.963 37.428 232.382 38.108C232.802 38.788 233.102 39.485 233.283 40.199C233.476 40.913 233.567 41.6043 233.555 42.273C233.544 42.9303 233.448 43.5197 233.266 44.041C233.096 44.551 232.858 44.942 232.552 45.214C232.235 45.554 231.912 45.7863 231.583 45.911C231.255 46.0357 230.852 46.1037 230.376 46.115C230.184 46.1263 229.968 46.1263 229.73 46.115C229.504 46.115 229.271 46.1093 229.033 46.098C229.022 45.758 228.96 45.367 228.846 44.925C228.744 44.4943 228.58 44.109 228.353 43.769C228.659 43.803 228.937 43.8257 229.186 43.837C229.447 43.8483 229.685 43.854 229.9 43.854C230.093 43.854 230.252 43.8257 230.376 43.769C230.512 43.7123 230.631 43.5933 230.733 43.412C230.858 43.2647 230.954 43.0267 231.022 42.698C231.102 42.3693 231.124 41.9897 231.09 41.559C231.068 41.117 230.977 40.6467 230.818 40.148C230.671 39.6493 230.433 39.1563 230.104 38.669C229.787 38.1817 229.362 37.7283 228.829 37.309ZM230.699 34.725L232.739 35.575C232.127 36.2097 231.391 36.782 230.529 37.292C229.668 37.7907 228.744 38.227 227.758 38.601C226.784 38.975 225.809 39.2867 224.834 39.536C224.755 39.3773 224.642 39.179 224.494 38.941C224.347 38.6917 224.194 38.448 224.035 38.21C223.877 37.9607 223.729 37.7623 223.593 37.615C224.523 37.445 225.441 37.2297 226.347 36.969C227.254 36.697 228.087 36.374 228.846 36C229.606 35.6147 230.223 35.1897 230.699 34.725ZM229.9 38.057L231.447 39.213C231.028 39.5077 230.541 39.808 229.985 40.114C229.441 40.42 228.858 40.7147 228.234 40.998C227.611 41.2813 226.988 41.542 226.364 41.78C225.752 42.018 225.169 42.222 224.613 42.392C224.477 42.12 224.296 41.8027 224.069 41.44C223.854 41.066 223.633 40.7543 223.406 40.505C223.95 40.403 224.523 40.267 225.123 40.097C225.735 39.9157 226.336 39.7117 226.925 39.485C227.526 39.2583 228.081 39.026 228.591 38.788C229.113 38.5387 229.549 38.295 229.9 38.057ZM230.937 39.961L232.62 41.236C232.133 41.6553 231.566 42.069 230.92 42.477C230.274 42.885 229.583 43.276 228.846 43.65C228.121 44.0127 227.379 44.347 226.619 44.653C225.871 44.9703 225.152 45.2367 224.46 45.452C224.324 45.146 224.137 44.8003 223.899 44.415C223.661 44.0183 223.423 43.684 223.185 43.412C223.877 43.2647 224.585 43.072 225.31 42.834C226.047 42.5847 226.767 42.307 227.469 42.001C228.172 41.6837 228.824 41.355 229.424 41.015C230.025 40.6637 230.529 40.3123 230.937 39.961ZM235.646 39.06C235.85 39.6833 236.117 40.2727 236.445 40.828C236.785 41.3833 237.193 41.8763 237.669 42.307C238.157 42.7377 238.712 43.0833 239.335 43.344C239.154 43.4913 238.961 43.684 238.757 43.922C238.553 44.16 238.355 44.4037 238.162 44.653C237.981 44.9137 237.834 45.1517 237.72 45.367C236.984 44.993 236.343 44.5227 235.799 43.956C235.267 43.3893 234.808 42.7377 234.422 42.001C234.037 41.253 233.714 40.437 233.453 39.553L235.646 39.06ZM235.595 36.119L237.635 37.751C237.114 38.1477 236.559 38.55 235.969 38.958C235.391 39.3547 234.819 39.7343 234.252 40.097C233.686 40.4483 233.153 40.7543 232.654 41.015L231.056 39.587C231.544 39.3037 232.059 38.9693 232.603 38.584C233.159 38.1873 233.697 37.7793 234.218 37.36C234.751 36.9293 235.21 36.5157 235.595 36.119ZM229.373 30.492L232.008 29.744C232.19 30.0613 232.365 30.4183 232.535 30.815C232.705 31.2117 232.819 31.5573 232.875 31.852L230.087 32.685C230.042 32.3903 229.951 32.039 229.815 31.631C229.679 31.2117 229.532 30.832 229.373 30.492ZM241.052 33.008H253.309V35.422H241.052V33.008ZM252.34 33.008H252.901L253.377 32.889L255.281 34.13C254.669 35.048 253.967 35.966 253.173 36.884C252.38 37.7907 251.524 38.669 250.606 39.519C249.7 40.3577 248.765 41.1453 247.801 41.882C246.838 42.6187 245.875 43.276 244.911 43.854C244.719 43.582 244.452 43.276 244.112 42.936C243.784 42.5847 243.472 42.2957 243.177 42.069C244.084 41.559 244.991 40.964 245.897 40.284C246.815 39.5927 247.688 38.8617 248.515 38.091C249.343 37.309 250.085 36.5327 250.742 35.762C251.4 34.98 251.932 34.249 252.34 33.569V33.008ZM246.05 30.9L248.277 29.693C248.493 29.965 248.725 30.271 248.974 30.611C249.224 30.9397 249.462 31.2683 249.688 31.597C249.926 31.9143 250.113 32.1977 250.249 32.447L247.869 33.807C247.756 33.5463 247.592 33.2517 247.376 32.923C247.172 32.583 246.951 32.2373 246.713 31.886C246.475 31.5233 246.254 31.1947 246.05 30.9ZM243.942 41.61C244.226 41.61 244.503 41.7177 244.775 41.933C245.059 42.1483 245.433 42.3977 245.897 42.681C246.441 43.0323 247.082 43.259 247.818 43.361C248.566 43.463 249.405 43.514 250.334 43.514C250.867 43.514 251.485 43.497 252.187 43.463C252.901 43.429 253.61 43.378 254.312 43.31C255.026 43.242 255.655 43.1627 256.199 43.072C256.12 43.2873 256.024 43.5593 255.91 43.888C255.808 44.2167 255.718 44.5397 255.638 44.857C255.559 45.1857 255.514 45.4633 255.502 45.69C255.208 45.7127 254.845 45.7353 254.414 45.758C253.995 45.7807 253.542 45.7977 253.054 45.809C252.578 45.8317 252.097 45.8487 251.609 45.86C251.122 45.8713 250.663 45.877 250.232 45.877C249.167 45.877 248.277 45.8033 247.563 45.656C246.849 45.52 246.192 45.282 245.591 44.942C245.206 44.7153 244.872 44.4887 244.588 44.262C244.305 44.0353 244.067 43.922 243.874 43.922C243.704 43.922 243.512 44.041 243.296 44.279C243.081 44.5057 242.86 44.7947 242.633 45.146C242.407 45.4973 242.186 45.8487 241.97 46.2L240.202 43.871C240.837 43.191 241.494 42.647 242.174 42.239C242.854 41.8197 243.444 41.61 243.942 41.61ZM261.928 35.728H272.961V37.836H261.928V35.728ZM263.985 31.971H272.264V34.028H263.985V31.971ZM266.484 30.067H268.932V36.493H266.484V30.067ZM263.509 30.492L265.838 31.002C265.589 31.8973 265.249 32.7587 264.818 33.586C264.399 34.4133 263.951 35.1047 263.475 35.66C263.328 35.524 263.13 35.3767 262.88 35.218C262.631 35.048 262.382 34.8837 262.132 34.725C261.883 34.555 261.662 34.4247 261.469 34.334C261.934 33.8807 262.342 33.3083 262.693 32.617C263.056 31.9257 263.328 31.2173 263.509 30.492ZM267.81 37.02H270.241V40.284C270.241 40.5333 270.253 40.692 270.275 40.76C270.298 40.8167 270.36 40.845 270.462 40.845C270.485 40.845 270.508 40.845 270.53 40.845C270.564 40.845 270.598 40.845 270.632 40.845C270.666 40.845 270.695 40.845 270.717 40.845C270.751 40.845 270.78 40.845 270.802 40.845C270.87 40.845 270.921 40.811 270.955 40.743C271.001 40.6637 271.035 40.5107 271.057 40.284C271.091 40.046 271.114 39.689 271.125 39.213C271.273 39.3377 271.471 39.4623 271.72 39.587C271.981 39.7117 272.247 39.825 272.519 39.927C272.803 40.0177 273.052 40.0913 273.267 40.148C273.188 40.93 273.063 41.5363 272.893 41.967C272.723 42.3863 272.491 42.681 272.196 42.851C271.902 43.021 271.528 43.106 271.074 43.106C270.984 43.106 270.893 43.106 270.802 43.106C270.712 43.106 270.621 43.106 270.53 43.106C270.44 43.106 270.349 43.106 270.258 43.106C270.179 43.106 270.094 43.106 270.003 43.106C269.391 43.106 268.927 43.0153 268.609 42.834C268.303 42.6527 268.094 42.358 267.98 41.95C267.867 41.542 267.81 40.9923 267.81 40.301V37.02ZM264.699 36.901H267.181C267.113 37.5697 267.011 38.21 266.875 38.822C266.751 39.434 266.547 40.0063 266.263 40.539C265.98 41.0717 265.583 41.5647 265.073 42.018C264.575 42.4713 263.923 42.868 263.118 43.208C263.028 42.9927 262.897 42.7603 262.727 42.511C262.569 42.2503 262.393 42.001 262.2 41.763C262.008 41.5137 261.821 41.3097 261.639 41.151C262.285 40.913 262.801 40.6467 263.186 40.352C263.572 40.046 263.866 39.7117 264.07 39.349C264.274 38.9863 264.416 38.601 264.495 38.193C264.586 37.7737 264.654 37.343 264.699 36.901ZM257.151 31.801L259.038 30.407C259.356 30.6563 259.684 30.9397 260.024 31.257C260.364 31.563 260.682 31.8747 260.976 32.192C261.271 32.498 261.509 32.787 261.69 33.059L259.65 34.623C259.503 34.351 259.288 34.0507 259.004 33.722C258.732 33.382 258.432 33.0477 258.103 32.719C257.775 32.379 257.457 32.073 257.151 31.801ZM261.384 36.544V42.953H259.021V38.822H257.253V36.544H261.384ZM261.146 42.052C261.418 42.052 261.685 42.1483 261.945 42.341C262.217 42.5337 262.569 42.7603 262.999 43.021C263.532 43.3497 264.161 43.5593 264.886 43.65C265.623 43.7293 266.428 43.769 267.3 43.769C267.822 43.769 268.434 43.752 269.136 43.718C269.85 43.684 270.564 43.6387 271.278 43.582C271.992 43.514 272.621 43.4347 273.165 43.344C273.086 43.5593 272.995 43.8257 272.893 44.143C272.791 44.4603 272.701 44.772 272.621 45.078C272.553 45.3953 272.514 45.6617 272.502 45.877C272.196 45.8997 271.828 45.9223 271.397 45.945C270.978 45.9677 270.525 45.9847 270.037 45.996C269.55 46.0187 269.063 46.0357 268.575 46.047C268.099 46.0583 267.652 46.064 267.232 46.064C266.212 46.064 265.351 45.996 264.648 45.86C263.946 45.724 263.305 45.4973 262.727 45.18C262.376 44.9647 262.064 44.755 261.792 44.551C261.52 44.3583 261.288 44.262 261.095 44.262C260.891 44.262 260.653 44.364 260.381 44.568C260.109 44.772 259.82 45.0327 259.514 45.35C259.22 45.6787 258.925 46.0243 258.63 46.387L256.998 44.228C257.452 43.82 257.922 43.4517 258.409 43.123C258.908 42.7943 259.39 42.5337 259.854 42.341C260.33 42.1483 260.761 42.052 261.146 42.052ZM279.778 46.115H273.998V43.905H277.347V35.32H279.778V46.115Z" fill="white"/>
</g>
<path d="M310.861 8.66923C311.134 10.2293 311.522 11.2992 312.187 12.2882C312.634 12.9574 313.129 13.4177 313.713 13.7076C314.369 14.0401 314.919 14.1381 315.137 13.9676C315.196 13.9207 315.29 13.8824 315.35 13.8824C315.546 13.8824 315.563 13.8099 315.537 13.0853C315.516 12.3265 315.439 11.9685 315.192 11.4271C314.608 10.1739 313.393 9.16369 311.339 8.23871C311.049 8.10657 310.797 8.00001 310.78 8.00001C310.763 8.00001 310.797 8.30265 310.861 8.66923Z" fill="white"/>
<path d="M317.327 9.75618C316.249 11.7852 315.904 13.4561 316.296 14.7945C316.564 15.7238 317.344 16.8661 317.703 16.8661C317.903 16.8661 318.355 16.2694 318.687 15.5661C318.977 14.9565 319.062 14.543 319.067 13.7545C319.067 12.902 318.93 12.2498 318.551 11.2737C318.376 10.8176 317.694 9.42796 317.617 9.36402C317.575 9.32992 317.506 9.4237 317.327 9.75618Z" fill="white"/>
<path d="M311.671 13.4859C311.671 13.503 311.756 13.8269 311.863 14.202C312.596 16.7809 313.922 18.5456 315.405 18.9292C316.091 19.104 316.467 19.0997 316.624 18.9164C316.663 18.8696 316.765 18.8184 316.85 18.8014C316.935 18.7886 317.016 18.7459 317.029 18.7118C317.042 18.682 317.029 18.4476 317.004 18.1918C316.859 16.7894 316.322 15.8815 315.115 14.9864C314.297 14.3768 313.466 14.006 311.769 13.4817C311.714 13.4646 311.671 13.4646 311.671 13.4859Z" fill="white"/>
<path d="M320.175 15.6513C319.216 16.8704 318.683 17.8125 318.423 18.763C318.291 19.2362 318.24 20.127 318.316 20.5405C318.427 21.133 318.704 21.815 319.037 22.318C319.182 22.5396 319.19 22.5439 319.352 22.5226C319.591 22.4885 319.813 22.3265 320.119 21.9599C320.708 21.2524 321.044 20.5746 321.228 19.7221C321.347 19.185 321.351 18.1535 321.245 17.4842C321.108 16.6402 320.712 15.1185 320.627 15.1185C320.605 15.1185 320.405 15.3572 320.175 15.6513Z" fill="white"/>
<path d="M314.544 18.8994C314.557 19.0145 314.578 19.3811 314.591 19.7221C314.668 21.5635 315.017 22.8039 315.767 23.9037C316.232 24.5814 317.004 25.191 317.634 25.3743C317.843 25.4382 317.877 25.4382 318.01 25.3743C318.086 25.3359 318.197 25.3061 318.253 25.3061C318.312 25.3061 318.368 25.272 318.385 25.2293C318.457 25.0375 318.542 24.5175 318.564 24.1125C318.636 22.7101 317.993 21.4186 316.624 20.2208C315.878 19.5686 314.706 18.6991 314.578 18.6991C314.54 18.6991 314.531 18.7545 314.544 18.8994Z" fill="white"/>
<path d="M322.404 21.6573C320.665 22.6974 319.676 23.6309 319.148 24.7306C318.849 25.3615 318.811 25.5533 318.815 26.4356C318.82 27.0452 318.837 27.2668 318.9 27.5226C318.977 27.8252 318.99 27.8423 319.109 27.8551C319.182 27.8636 319.254 27.8892 319.28 27.9105C319.425 28.0511 320.03 27.838 320.559 27.4629C321.279 26.9471 321.995 25.9241 322.362 24.8798C322.609 24.1637 322.809 23.1449 322.86 22.3222C322.873 22.1006 322.895 21.798 322.907 21.6488C322.916 21.5038 322.912 21.3845 322.895 21.3845C322.877 21.3845 322.656 21.5081 322.404 21.6573Z" fill="white"/>
<path d="M314.808 23.7758C314.761 23.9164 314.57 24.9395 314.501 25.4126C314.403 26.0946 314.403 27.237 314.497 27.7613C314.685 28.8013 315.115 29.6453 315.827 30.3572C316.321 30.8559 316.483 30.9539 316.803 30.9539H317.063L317.178 30.7408C317.379 30.3785 317.587 29.6667 317.643 29.1594C317.783 27.8636 317.229 26.4527 315.976 24.9309C315.486 24.3384 314.838 23.6905 314.808 23.7758Z" fill="white"/>
<path d="M322.933 27.5013C321.603 27.7144 320.58 28.0043 319.911 28.3495C318.956 28.844 318.257 29.5985 317.86 30.5533C317.72 30.89 317.528 31.7425 317.566 31.8491C317.579 31.8789 317.669 31.9301 317.758 31.9557C317.856 31.9812 317.958 32.0452 317.997 32.1006C318.099 32.2583 318.321 32.3137 318.764 32.2839C320.158 32.1901 321.275 31.3973 322.443 29.6709C322.877 29.023 323.696 27.3862 323.576 27.399C323.559 27.4032 323.27 27.4459 322.933 27.5013Z" fill="white"/>
<path d="M313.747 28.9548C313.7 29.0401 313.376 30.0887 313.278 30.4851C313.039 31.4271 313.014 31.6317 313.018 32.5524C313.018 33.3623 313.027 33.4561 313.133 33.844C313.329 34.5686 313.794 35.3785 314.348 35.9454C314.646 36.2524 314.804 36.3461 315.017 36.3461C315.175 36.3461 315.2 36.3291 315.333 36.1287C315.686 35.5874 315.938 34.8883 316.023 34.2191C316.181 32.9233 315.571 31.2651 314.31 29.59C313.883 29.0188 313.781 28.9037 313.747 28.9548Z" fill="white"/>
<path d="M311.155 32.7315C310.571 33.8142 310.235 34.6922 310.051 35.5831C309.928 36.1671 309.949 37.1262 310.09 37.6249C310.341 38.5115 311.143 39.7136 311.475 39.7136C311.59 39.7136 311.965 39.3001 312.221 38.8824C312.49 38.4561 312.711 37.9318 312.814 37.4885C312.92 37.0196 312.907 35.9028 312.792 35.3657C312.681 34.8755 312.481 34.2362 312.281 33.746C312.114 33.3368 311.62 32.3137 311.535 32.1986C311.484 32.1347 311.441 32.1944 311.155 32.7315Z" fill="white"/>
<path d="M321.304 32.1986C320.746 32.2327 319.932 32.3436 319.544 32.4416C318.129 32.8039 317.025 33.682 316.488 34.8755C316.385 35.1057 316.147 35.792 316.147 35.8602C316.147 35.8687 316.249 35.9241 316.373 35.9795C316.492 36.0349 316.637 36.1373 316.688 36.2055C316.82 36.393 317.097 36.4484 317.72 36.4186C318.815 36.3674 319.732 35.9156 320.712 34.9437C321.283 34.3725 321.773 33.7374 322.242 32.9488C322.464 32.5823 322.664 32.254 322.681 32.2242C322.707 32.1816 322.596 32.1688 322.127 32.1773C321.803 32.1816 321.432 32.1901 321.304 32.1986Z" fill="white"/>
<path d="M308.325 35.7153C306.731 37.2583 306.002 38.4945 305.891 39.8329C305.84 40.451 306.023 41.3419 306.334 41.9727L306.492 42.2924H306.748C306.97 42.2924 307.033 42.2711 307.217 42.1432C307.912 41.6658 308.623 40.6513 308.913 39.7349C309.148 38.9804 309.178 38.7502 309.178 37.5823C309.178 36.653 309.16 36.4015 309.075 35.8559C309.02 35.5021 308.96 35.1995 308.943 35.1824C308.926 35.1611 308.645 35.3998 308.325 35.7153Z" fill="white"/>
<path d="M316.479 36.6701C315.264 36.8576 314.582 37.156 313.917 37.7911C313.568 38.1236 313.325 38.4348 313.061 38.8866C312.788 39.3598 312.788 39.3512 313.078 39.5345C313.218 39.6198 313.346 39.7263 313.359 39.7647C313.466 40.1014 314.506 40.3401 315.358 40.2293C315.831 40.1654 316.535 39.9352 316.957 39.705C317.788 39.2532 318.824 38.4135 319.143 37.9403C319.25 37.7783 319.476 37.497 319.642 37.3095C319.808 37.1262 319.936 36.9685 319.928 36.9599C319.919 36.9514 319.642 36.896 319.318 36.8363C317.933 36.5933 317.221 36.5507 316.479 36.6701Z" fill="white"/>
<path d="M304.745 39.0273C302.468 39.5516 301.126 40.2634 300.375 41.3546C300.013 41.8832 299.715 42.7613 299.664 43.4476L299.638 43.7928L299.787 43.8227C299.872 43.8355 300 43.9079 300.077 43.9804L300.213 44.1168L300.648 44.0955C301.369 44.0614 302.059 43.78 302.728 43.2515C303.312 42.7911 304.097 41.7596 304.608 40.7792C304.825 40.37 305.277 39.2788 305.346 39.0145C305.38 38.8781 305.397 38.8781 304.745 39.0273Z" fill="white"/>
<path d="M311.607 40.272C310.878 40.3743 310.051 40.7707 309.476 41.3035C309.156 41.5934 308.73 42.0963 308.73 42.1773C308.73 42.2029 308.845 42.3223 308.986 42.4459C309.126 42.5695 309.254 42.7144 309.267 42.7698C309.318 42.9659 309.774 43.2259 310.38 43.405C311.42 43.7076 312.634 43.5158 313.981 42.8338C314.757 42.4416 315.128 42.1944 315.277 41.9685C315.345 41.8662 315.571 41.6488 315.776 41.4825C316.028 41.2822 316.13 41.1756 316.091 41.1543C316.062 41.1373 315.729 41.0094 315.354 40.8687C314.578 40.5831 313.994 40.4126 313.466 40.3274C312.984 40.2507 311.982 40.2208 311.607 40.272Z" fill="white"/>
<path d="M306.07 42.8934C305.682 42.9787 305.286 43.1321 304.894 43.341C304.514 43.5456 304.088 43.8525 304.084 43.9165C304.084 43.942 304.195 44.1168 304.331 44.3086C304.463 44.5004 304.621 44.7349 304.681 44.8329C304.872 45.1483 305.512 45.6215 306.036 45.8346C307.029 46.2353 308.21 46.2481 309.689 45.8772C310.371 45.7025 310.563 45.6172 310.644 45.451C310.682 45.3657 310.78 45.2975 310.985 45.208C311.138 45.1398 311.322 45.0588 311.39 45.029L311.513 44.9736L311.062 44.6454C309.727 43.6735 308.909 43.2387 307.877 42.9702C307.349 42.8295 306.505 42.7954 306.07 42.8934Z" fill="white"/>
<path d="M300.695 44.688C300.533 44.7221 300.252 44.8073 300.077 44.8755C299.761 44.9949 299.122 45.3359 299.024 45.4382C298.947 45.5149 299.574 46.5209 299.906 46.8619C300.38 47.3478 300.972 47.6846 301.718 47.8849C302.119 47.9915 302.2 48 303.082 48C303.875 48 304.101 47.9872 304.553 47.902C305.171 47.7911 305.448 47.6846 305.448 47.5652C305.448 47.4714 305.593 47.3905 305.981 47.2754C306.121 47.2327 306.249 47.1858 306.27 47.1731C306.305 47.1432 305.422 46.3717 304.902 45.9795C303.964 45.2805 303.061 44.8457 302.208 44.6837C301.773 44.5985 301.091 44.6027 300.695 44.688Z" fill="white"/>
<defs>
<filter id="filter0_d_18_2" x="82.4176" y="3.9" width="214.2" height="48.2" filterUnits="userSpaceOnUse" color-interpolation-filters="sRGB">
<feFlood flood-opacity="0" result="BackgroundImageFix"/>
<feColorMatrix in="SourceAlpha" type="matrix" values="0 0 0 0 0 0 0 0 0 0 0 0 0 0 0 0 0 0 127 0" result="hardAlpha"/>
<feOffset/>
<feGaussianBlur stdDeviation="2.8"/>
<feComposite in2="hardAlpha" operator="out"/>
<feColorMatrix type="matrix" values="0 0 0 0 0 0 0 0 0 0 0 0 0 0 0 0 0 0 0.25 0"/>
<feBlend mode="normal" in2="BackgroundImageFix" result="effect1_dropShadow_18_2"/>
<feBlend mode="normal" in="SourceGraphic" in2="effect1_dropShadow_18_2" result="shape"/>
</filter>
<linearGradient id="paint0_linear_18_2" x1="165.5" y1="0" x2="165.5" y2="56" gradientUnits="userSpaceOnUse">
<stop stop-color="#15B8A6"/>
<stop offset="1" stop-color="#0086C7"/>
</linearGradient>
</defs>
</svg>
