<svg width="353" height="56" viewBox="0 0 353 56" fill="none" xmlns="http://www.w3.org/2000/svg">
<rect width="352.176" height="56" rx="8" fill="url(#paint0_linear_17_2722)"/>
<rect x="1.05" y="1.05" width="350.076" height="53.9" rx="6.95" stroke="white" stroke-opacity="0.15" stroke-width="2.1"/>
<path d="M24.3711 8.18349C22.3164 9.10429 21.0588 10.1061 20.4577 11.2997C20.1764 11.8624 20.0187 12.5829 20.0272 13.2521C20.0357 13.768 20.0613 13.8532 20.2148 13.8703C20.283 13.8788 20.3853 13.9214 20.4407 13.9683C20.6538 14.1346 21.2123 14.0323 21.8603 13.704C23.0326 13.1157 23.9875 11.6962 24.4948 9.78636C24.5928 9.41548 24.8401 8.14939 24.8401 8.01297C24.8401 7.97887 24.7718 8.00445 24.3711 8.18349Z" fill="black"/>
<path d="M17.7252 9.79914C16.3184 12.4379 16.1394 14.3477 17.1497 16.0529C17.3969 16.4707 17.6868 16.8117 17.8317 16.8458C17.9895 16.8884 18.2069 16.7222 18.501 16.3257C19.814 14.5779 19.7842 12.8045 18.3902 10.008C18.2026 9.62862 18.0321 9.31743 18.0151 9.31743C17.998 9.31743 17.8658 9.53484 17.7252 9.79914Z" fill="black"/>
<path d="M23.3565 13.623C22.4954 13.9 22.035 14.0876 21.4723 14.3775C20.3085 14.9786 19.4474 15.7587 19.0211 16.607C18.744 17.1569 18.5735 17.8816 18.5735 18.504V18.7726L18.727 18.7982C18.8079 18.8152 18.9103 18.8664 18.9486 18.9133C19.0765 19.0582 19.3025 19.0923 19.7245 19.0198C20.5259 18.8792 21.0588 18.6063 21.6556 18.0266C22.5721 17.1399 23.2499 15.8738 23.7359 14.1686C23.8297 13.8318 23.915 13.5334 23.9235 13.5036C23.9491 13.4354 23.9533 13.4311 23.3565 13.623Z" fill="black"/>
<path d="M14.7454 15.7417C14.0036 18.3548 14.1102 20.0344 15.1077 21.4966C15.5639 22.1702 15.9774 22.5325 16.2843 22.5325C16.3823 22.5325 16.4335 22.4814 16.5998 22.2213C16.7106 22.0551 16.8768 21.7439 16.9664 21.535C17.738 19.7488 17.269 17.9712 15.4189 15.6479C15.1845 15.3537 14.9756 15.115 14.9585 15.115C14.9372 15.115 14.8392 15.3964 14.7454 15.7417Z" fill="black"/>
<path d="M20.5131 19.0028C19.3578 19.8298 18.3816 20.7123 17.8999 21.3602C17.6186 21.7396 17.2775 22.4174 17.1667 22.8309C16.9876 23.496 16.9834 24.2718 17.1454 25.0008C17.2093 25.2736 17.2264 25.3035 17.3159 25.3035C17.3756 25.3035 17.4864 25.3333 17.5631 25.3717C17.6953 25.4356 17.7294 25.4356 17.9383 25.3717C18.5436 25.1926 19.3067 24.6086 19.7756 23.9521C20.658 22.7286 20.965 21.4668 21.046 18.7257C21.046 18.649 20.9095 18.7215 20.5131 19.0028Z" fill="black"/>
<path d="M12.7076 21.9656C12.7801 23.351 13.0401 24.5575 13.4749 25.4953C13.8202 26.2371 14.4725 27.0683 15.0138 27.4563C15.5425 27.8357 16.1947 28.0616 16.2927 27.9039C16.3055 27.8783 16.3737 27.8612 16.4419 27.8612C16.5954 27.8612 16.6252 27.8101 16.7233 27.3497C16.8384 26.8168 16.8256 25.8704 16.702 25.41C16.3908 24.2548 15.4828 23.1677 13.9865 22.1574C13.6668 21.9443 12.7374 21.3816 12.7033 21.3816C12.6905 21.3816 12.6905 21.6459 12.7076 21.9656Z" fill="black"/>
<path d="M20.381 24.0757C19.6094 24.8686 19.1191 25.5081 18.582 26.4118C18.2367 26.9958 17.9809 27.8527 17.9468 28.5518C17.9084 29.3149 18.0534 30.0225 18.3902 30.6918L18.5351 30.9817L18.7866 30.9646C18.9742 30.9518 19.0808 30.9135 19.2172 30.8197C19.9376 30.3252 20.6495 29.3319 20.9309 28.4324C21.2634 27.3752 21.2506 25.9898 20.8882 24.2675C20.8286 23.9691 20.7646 23.7262 20.7518 23.7262C20.7348 23.7262 20.5685 23.8839 20.381 24.0757Z" fill="black"/>
<path d="M12.0213 27.4946C12.0639 27.6822 12.648 28.8886 12.8824 29.2723C14.0633 31.2162 15.3251 32.1839 16.8086 32.2819C17.2477 32.3117 17.4736 32.2563 17.5759 32.1029C17.61 32.0474 17.7209 31.9835 17.836 31.9537L18.0321 31.8982L18.0022 31.6126C17.9426 30.9433 17.5802 30.0822 17.1241 29.5067C16.2587 28.4239 14.9627 27.8527 12.5286 27.4818L12 27.4051L12.0213 27.4946Z" fill="black"/>
<path d="M21.468 29.3447C19.5624 31.7874 19.0935 33.8336 20.01 35.6965C20.0953 35.867 20.2189 36.0844 20.2829 36.174C20.3894 36.3189 20.4321 36.3445 20.56 36.3445C20.7774 36.3445 20.9053 36.2635 21.2676 35.8841C22.6062 34.4816 22.9302 32.7849 22.3035 30.4232C22.1415 29.8264 21.8559 28.927 21.8218 28.927C21.8047 28.927 21.647 29.1145 21.468 29.3447Z" fill="black"/>
<path d="M23.7572 32.7721C22.5635 35.1977 22.376 36.8987 23.1348 38.4546C23.5099 39.2305 23.949 39.7548 24.1707 39.6951C24.3028 39.661 24.5842 39.3712 24.8144 39.0344C25.8759 37.4486 25.91 35.9608 24.938 33.7441C24.7291 33.2666 24.1323 32.1242 24.0939 32.1242C24.0854 32.1242 23.9362 32.4183 23.7572 32.7721Z" fill="black"/>
<path d="M12.9037 32.1796C12.9037 32.1924 13.0145 32.3927 13.1552 32.6229C13.2916 32.8531 13.4834 33.1814 13.5815 33.3519C13.9865 34.051 14.9968 35.1679 15.632 35.6155C16.3737 36.1399 17.0558 36.3829 17.87 36.417C18.4881 36.4425 18.7056 36.3956 18.8931 36.1953C18.9613 36.1143 19.1148 36.012 19.2256 35.9651C19.3365 35.9182 19.426 35.85 19.426 35.8201C19.426 35.6965 19.2001 35.0784 19.0423 34.7587C18.6374 33.9444 18.1514 33.4286 17.3713 32.981C16.6593 32.5718 16.0583 32.3842 15.0991 32.2734C14.5279 32.2052 12.9037 32.1327 12.9037 32.1796Z" fill="black"/>
<path d="M26.6134 35.266C26.4727 35.9651 26.4045 36.6898 26.4003 37.5595C26.396 38.7829 26.5196 39.4693 26.8905 40.2963C27.1889 40.9655 27.8539 41.8011 28.3569 42.1421C28.5275 42.2615 28.6212 42.2913 28.8344 42.3041L29.0987 42.3212L29.201 42.1165C29.6912 41.1446 29.8277 39.9424 29.5506 39.0089C29.3374 38.2884 28.9751 37.6404 28.3484 36.8561C28.0713 36.5065 26.7328 35.1509 26.6688 35.1509C26.6518 35.1509 26.6262 35.202 26.6134 35.266Z" fill="black"/>
<path d="M17.2094 36.6855C16.9152 36.7282 16.4506 36.8006 16.1692 36.8518C15.8921 36.8987 15.6577 36.9413 15.6449 36.9413C15.6364 36.9413 15.7856 37.1204 15.9774 37.3378C16.1692 37.5552 16.3781 37.828 16.4421 37.9474C16.5145 38.0795 16.7149 38.2969 16.9792 38.5314C18.6289 39.9936 20.1593 40.5179 21.6215 40.13C21.9327 40.049 21.9839 40.0192 22.197 39.8018C22.3249 39.6696 22.504 39.5247 22.5935 39.4778C22.7896 39.3755 22.7853 39.3328 22.5338 38.8852C21.9242 37.8067 21.0119 37.0948 19.895 36.822C18.9657 36.5918 18.1472 36.5534 17.2094 36.6855Z" fill="black"/>
<path d="M30.2113 38.9193C30.2113 39.0216 30.7911 40.4071 30.9999 40.8078C32.0913 42.9052 33.4298 44.0221 34.9261 44.0945L35.3567 44.1116L35.4888 43.9837C35.5656 43.9112 35.6935 43.8387 35.7745 43.8217C35.8554 43.8089 35.9364 43.7791 35.945 43.7577C35.9578 43.7407 35.945 43.5446 35.9194 43.3272C35.8299 42.5812 35.557 41.8437 35.1819 41.3151C34.9474 40.9826 34.406 40.4668 34.048 40.2323C33.3531 39.7719 32.3001 39.3669 31.0213 39.0685C30.2966 38.9022 30.2113 38.8852 30.2113 38.9193Z" fill="black"/>
<path d="M22.5509 40.2664C22.0393 40.3218 21.5661 40.4241 20.9821 40.6117C20.3299 40.8206 19.4943 41.1446 19.4815 41.1915C19.4773 41.2085 19.6393 41.3492 19.8396 41.4984C20.0656 41.6689 20.2275 41.8266 20.2574 41.9034C20.3299 42.0782 20.445 42.1762 20.8585 42.432C22.0947 43.1951 23.3267 43.5872 24.3498 43.5361C25.1555 43.4935 26.055 43.1609 26.2681 42.8242C26.3236 42.7389 26.4856 42.5599 26.6348 42.4277L26.9033 42.1933L26.7243 41.9588C26.1189 41.1574 25.2536 40.5691 24.3669 40.3517C23.9491 40.2494 23.0837 40.211 22.5509 40.2664Z" fill="black"/>
<path d="M27.9733 42.9051C27.1122 43.0885 26.2468 43.4721 25.3388 44.0775C24.3583 44.7339 23.9959 45.0409 24.2048 45.0409C24.2304 45.0409 24.3881 45.1048 24.5629 45.1858C24.7889 45.2881 24.8912 45.3649 24.9295 45.4501C25.0105 45.6164 25.2024 45.7016 25.8844 45.8764C27.3424 46.243 28.472 46.2345 29.4909 45.8551C30.0195 45.6547 30.6675 45.1773 30.919 44.7979C31.0085 44.6657 31.1833 44.4142 31.3069 44.2352C31.5755 43.8643 31.5883 43.9069 31.0852 43.5702C30.6845 43.3016 30.2667 43.1098 29.8063 42.9691C29.2863 42.8156 28.536 42.79 27.9733 42.9051Z" fill="black"/>
<path d="M33.2166 44.7169C32.6113 44.8619 32.1552 45.0537 31.4305 45.4757C30.8592 45.8082 29.2649 47.0957 29.3374 47.1681C29.3544 47.1809 29.5334 47.2491 29.7338 47.3216C30.045 47.4282 30.1089 47.4665 30.1175 47.5475C30.1388 47.6925 30.386 47.7863 31.0212 47.9056C31.4731 47.9866 31.6948 48.0037 32.4919 47.9994C33.3744 47.9994 33.4554 47.9909 33.8561 47.8843C34.9602 47.5859 35.6337 47.0743 36.2646 46.064C36.4522 45.7613 36.6057 45.497 36.6057 45.48C36.6057 45.3862 35.7062 44.9301 35.1989 44.7638C34.892 44.6615 34.747 44.6445 34.2397 44.6317C33.7239 44.6189 33.5832 44.6274 33.2166 44.7169Z" fill="black"/>
<path d="M56.5326 20.8078C56.8044 20.6289 57.0762 20.45 57.3016 20.2554C57.5271 20.0609 57.7063 19.8505 57.8118 19.6472C57.9173 19.4438 57.9491 19.2472 57.9308 19.036C57.9125 18.8248 57.8439 18.5989 57.7509 18.3235C57.658 18.0482 57.5408 17.7235 57.4893 17.4208C57.4377 17.1181 57.4521 16.8376 57.4878 16.6295C57.5235 16.4215 57.5806 16.2861 57.6301 16.1537C57.6797 16.0212 57.7218 15.8917 57.8244 15.6903C57.927 15.4889 58.0901 15.2158 58.2532 14.9425" stroke="black" stroke-width="1.5" stroke-linecap="round"/>
<path d="M68.7284 20.5057C69.0002 20.3268 69.272 20.1479 69.4974 19.9534C69.7229 19.7588 69.9021 19.5484 70.0076 19.3451C70.1131 19.1417 70.1449 18.9452 70.1266 18.734C70.1083 18.5228 70.0397 18.2968 69.9467 18.0215C69.8538 17.7461 69.7366 17.4214 69.6851 17.1187C69.6335 16.8161 69.6479 16.5355 69.6836 16.3275C69.7193 16.1194 69.7764 15.984 69.8259 15.8516C69.8755 15.7192 69.9176 15.5897 70.0202 15.3883C70.1228 15.1869 70.2859 14.9137 70.449 14.6404" stroke="black" stroke-width="1.5" stroke-linecap="round"/>
<path d="M62.895 19.2935C63.1669 19.1146 63.4386 18.9357 63.664 18.7412C63.8895 18.5466 64.0687 18.3362 64.1742 18.1329C64.2798 17.9295 64.3116 17.7329 64.2932 17.5217C64.2749 17.3105 64.2063 17.0846 64.1134 16.8092C64.0204 16.5339 63.9032 16.2092 63.8517 15.9065C63.8002 15.6038 63.8145 15.3233 63.8502 15.1153C63.8859 14.9072 63.943 14.7718 63.9926 14.6394C64.0421 14.507 64.0842 14.3775 64.1868 14.1761C64.2894 13.9747 64.4525 13.7015 64.6156 13.4282" stroke="black" stroke-width="1.5" stroke-linecap="round"/>
<path d="M80.479 39.4322C80.1531 39.4339 59.2704 39.5444 53.8675 39.5233C48.4647 39.5021 48.4267 39.4024 48.4266 39.5544C48.4266 39.7063 48.4645 40.11 48.6138 40.497C48.763 40.8841 49.0232 41.2545 49.3576 41.5847C49.692 41.9149 50.086 42.1947 50.3788 42.3561C50.6716 42.5174 50.8559 42.5554 55.4373 42.5696C60.0187 42.5838 68.9969 42.5743 73.5294 42.5505C78.0618 42.5267 78.1486 42.4888 78.4034 42.3748C78.6582 42.2608 79.0811 42.0708 79.4822 41.7432C79.8833 41.4156 80.2628 40.9502 80.4743 40.5941C80.6857 40.2381 80.7163 40.0635 80.7514 39.8364C80.7865 39.6092 80.7942 39.535 80.805 39.4305C80.805 39.4305 80.805 39.4305 80.479 39.4322Z" stroke="black" stroke-width="1.4" stroke-linecap="round" stroke-linejoin="round"/>
<path d="M76.2782 26.7325C76.1913 26.1197 76.1043 25.5066 75.9264 25.1405C75.7486 24.7745 75.4796 24.6558 75.298 24.5962C75.1163 24.5365 75.0221 24.536 71.1763 24.5526C67.3305 24.5692 59.7334 24.6027 55.9053 24.6201C52.0772 24.6375 52.0181 24.6386 51.947 24.6451C51.8759 24.6516 51.7929 24.6635 51.676 24.7248C51.5592 24.7861 51.4089 24.8969 51.2854 25.0628C51.162 25.2288 51.0685 25.443 51.0201 25.978C50.9718 26.5129 50.9698 27.365 50.9857 27.9869C51.0015 28.6088 51.0351 29.0004 51.1627 29.651C51.2903 30.3016 51.5118 31.2112 51.8164 32.1209C52.1211 33.0307 52.5087 33.9405 53.1635 34.9143C53.8183 35.888 54.74 36.9258 55.6005 37.6958C56.4609 38.4658 57.26 38.9682 57.6753 39.2192C58.0906 39.4703 58.1223 39.4703 59.9901 39.4643C61.858 39.4584 65.5619 39.4465 67.4296 39.4346C69.2974 39.4227 69.329 39.4108 69.7303 39.1254C70.1316 38.8399 70.9026 38.2808 71.6323 37.665C72.362 37.0493 73.0503 36.3768 73.6792 35.5303C74.3082 34.6838 74.8778 33.6632 75.2903 32.7063C75.7027 31.7493 75.9538 30.8705 76.0922 29.8895C76.2306 28.9085 76.2545 27.8167 76.2901 27.2509C76.3257 26.685 76.3732 26.6375 76.6305 26.627C76.8879 26.6164 77.3547 26.6428 77.8175 26.7154C78.2804 26.788 78.7393 26.9066 79.0873 27.1164C79.4354 27.3263 79.6727 27.6269 79.8703 27.909C80.0679 28.191 80.2257 28.4545 80.3409 28.8435C80.4561 29.2326 80.5288 29.7472 80.5456 30.2591C80.5623 30.7709 80.5231 31.28 80.4112 31.7331C80.2993 32.1861 80.1147 32.5833 79.8266 32.9944C79.5385 33.4056 79.1469 33.8307 78.7106 34.2083C78.2743 34.5859 77.7932 34.916 77.2254 35.2209C76.6576 35.5257 76.0031 35.8055 75.3011 35.9957C74.599 36.1859 73.8494 36.2866 73.0994 36.3874" stroke="black" stroke-width="1.4" stroke-linecap="round"/>
<g filter="url(#filter0_d_17_2722)">
<path d="M96.1625 24.5L92.9353 12.8636H94.7818L97.0489 21.875H97.1568L99.5148 12.8636H101.344L103.702 21.8807H103.81L106.072 12.8636H107.924L104.691 24.5H102.924L100.475 15.7841H100.384L97.9353 24.5H96.1625ZM109.388 24.5V15.7727H111.087V24.5H109.388ZM110.246 14.4261C109.951 14.4261 109.697 14.3276 109.485 14.1307C109.277 13.9299 109.172 13.6913 109.172 13.4148C109.172 13.1345 109.277 12.8958 109.485 12.6989C109.697 12.4981 109.951 12.3977 110.246 12.3977C110.542 12.3977 110.794 12.4981 111.002 12.6989C111.214 12.8958 111.32 13.1345 111.32 13.4148C111.32 13.6913 111.214 13.9299 111.002 14.1307C110.794 14.3276 110.542 14.4261 110.246 14.4261ZM115.072 19.3182V24.5H113.373V15.7727H115.003V17.1932H115.111C115.312 16.7311 115.627 16.3598 116.055 16.0795C116.486 15.7992 117.03 15.6591 117.685 15.6591C118.28 15.6591 118.801 15.7841 119.248 16.0341C119.695 16.2803 120.041 16.6477 120.288 17.1364C120.534 17.625 120.657 18.2292 120.657 18.9489V24.5H118.958V19.1534C118.958 18.5208 118.793 18.0265 118.464 17.6705C118.134 17.3106 117.681 17.1307 117.106 17.1307C116.712 17.1307 116.361 17.2159 116.055 17.3864C115.752 17.5568 115.511 17.8068 115.333 18.1364C115.159 18.4621 115.072 18.8561 115.072 19.3182ZM124.634 19.3182V24.5H122.935V15.7727H124.566V17.1932H124.674C124.875 16.7311 125.189 16.3598 125.617 16.0795C126.049 15.7992 126.592 15.6591 127.248 15.6591C127.842 15.6591 128.363 15.7841 128.81 16.0341C129.257 16.2803 129.604 16.6477 129.85 17.1364C130.096 17.625 130.219 18.2292 130.219 18.9489V24.5H128.52V19.1534C128.52 18.5208 128.356 18.0265 128.026 17.6705C127.697 17.3106 127.244 17.1307 126.668 17.1307C126.274 17.1307 125.924 17.2159 125.617 17.3864C125.314 17.5568 125.074 17.8068 124.895 18.1364C124.721 18.4621 124.634 18.8561 124.634 19.3182ZM136.259 24.6761C135.399 24.6761 134.659 24.4924 134.038 24.125C133.42 23.7538 132.943 23.233 132.606 22.5625C132.272 21.8883 132.106 21.0985 132.106 20.1932C132.106 19.2992 132.272 18.5114 132.606 17.8295C132.943 17.1477 133.413 16.6155 134.015 16.233C134.621 15.8504 135.329 15.6591 136.14 15.6591C136.632 15.6591 137.109 15.7405 137.572 15.9034C138.034 16.0663 138.449 16.322 138.816 16.6705C139.183 17.0189 139.473 17.4716 139.685 18.0284C139.897 18.5814 140.003 19.2538 140.003 20.0455V20.6477H133.066V19.375H138.339C138.339 18.928 138.248 18.5322 138.066 18.1875C137.884 17.839 137.628 17.5644 137.299 17.3636C136.973 17.1629 136.591 17.0625 136.151 17.0625C135.674 17.0625 135.257 17.1799 134.901 17.4148C134.549 17.6458 134.276 17.9489 134.083 18.3239C133.894 18.6951 133.799 19.0985 133.799 19.5341V20.5284C133.799 21.1117 133.901 21.608 134.106 22.017C134.314 22.4261 134.604 22.7386 134.975 22.9545C135.346 23.1667 135.78 23.2727 136.276 23.2727C136.598 23.2727 136.892 23.2273 137.157 23.1364C137.422 23.0417 137.651 22.9015 137.844 22.7159C138.038 22.5303 138.185 22.3011 138.288 22.0284L139.895 22.3182C139.767 22.7917 139.536 23.2064 139.202 23.5625C138.873 23.9148 138.458 24.1894 137.958 24.3864C137.462 24.5795 136.895 24.6761 136.259 24.6761ZM141.888 24.5V15.7727H143.53V17.1591H143.621C143.78 16.6894 144.061 16.3201 144.462 16.0511C144.868 15.7784 145.326 15.642 145.837 15.642C145.943 15.642 146.068 15.6458 146.212 15.6534C146.36 15.661 146.475 15.6705 146.559 15.6818V17.3068C146.491 17.2879 146.369 17.267 146.195 17.2443C146.021 17.2178 145.847 17.2045 145.672 17.2045C145.271 17.2045 144.913 17.2898 144.599 17.4602C144.288 17.6269 144.042 17.8598 143.86 18.1591C143.678 18.4545 143.587 18.7917 143.587 19.1705V24.5H141.888ZM155.94 24.6761C155.121 24.6761 154.407 24.4886 153.797 24.1136C153.188 23.7386 152.714 23.214 152.377 22.5398C152.04 21.8655 151.871 21.0776 151.871 20.1761C151.871 19.2708 152.04 18.4792 152.377 17.8011C152.714 17.1231 153.188 16.5966 153.797 16.2216C154.407 15.8466 155.121 15.6591 155.94 15.6591C156.758 15.6591 157.472 15.8466 158.082 16.2216C158.691 16.5966 159.165 17.1231 159.502 17.8011C159.839 18.4792 160.008 19.2708 160.008 20.1761C160.008 21.0776 159.839 21.8655 159.502 22.5398C159.165 23.214 158.691 23.7386 158.082 24.1136C157.472 24.4886 156.758 24.6761 155.94 24.6761ZM155.945 23.25C156.475 23.25 156.915 23.1098 157.263 22.8295C157.612 22.5492 157.869 22.1761 158.036 21.7102C158.207 21.2443 158.292 20.7311 158.292 20.1705C158.292 19.6136 158.207 19.1023 158.036 18.6364C157.869 18.1667 157.612 17.7898 157.263 17.5057C156.915 17.2216 156.475 17.0795 155.945 17.0795C155.411 17.0795 154.968 17.2216 154.616 17.5057C154.267 17.7898 154.008 18.1667 153.837 18.6364C153.671 19.1023 153.587 19.6136 153.587 20.1705C153.587 20.7311 153.671 21.2443 153.837 21.7102C154.008 22.1761 154.267 22.5492 154.616 22.8295C154.968 23.1098 155.411 23.25 155.945 23.25ZM166.057 15.7727V17.1364H161.126V15.7727H166.057ZM162.478 24.5V14.7614C162.478 14.2159 162.597 13.7633 162.836 13.4034C163.074 13.0398 163.391 12.7689 163.785 12.5909C164.179 12.4091 164.607 12.3182 165.069 12.3182C165.41 12.3182 165.701 12.3466 165.944 12.4034C166.186 12.4564 166.366 12.5057 166.484 12.5511L166.086 13.9261C166.006 13.9034 165.904 13.8769 165.779 13.8466C165.654 13.8125 165.502 13.7955 165.324 13.7955C164.912 13.7955 164.616 13.8977 164.438 14.1023C164.264 14.3068 164.177 14.6023 164.177 14.9886V24.5H162.478Z" fill="black"/>
<path d="M93.137 33.5632V31.1364H103.587V33.5632H99.838V43.5H96.8919V33.5632H93.137ZM108.036 43.6751C107.066 43.6751 106.229 43.4839 105.525 43.1016C104.824 42.7152 104.285 42.1658 103.907 41.4535C103.533 40.7371 103.345 39.8859 103.345 38.8999C103.345 37.942 103.535 37.1049 103.913 36.3885C104.291 35.6681 104.824 35.1087 105.513 34.7102C106.201 34.3078 107.012 34.1065 107.946 34.1065C108.606 34.1065 109.209 34.2092 109.757 34.4144C110.304 34.6197 110.777 34.9235 111.175 35.326C111.574 35.7285 111.884 36.2255 112.105 36.8171C112.326 37.4047 112.437 38.0788 112.437 38.8395V39.576H104.378V37.8615H109.69C109.686 37.5476 109.612 37.2679 109.467 37.0224C109.322 36.7769 109.123 36.5857 108.869 36.4489C108.62 36.308 108.332 36.2376 108.006 36.2376C107.676 36.2376 107.38 36.312 107.118 36.4609C106.857 36.6058 106.65 36.805 106.497 37.0586C106.344 37.3081 106.263 37.5919 106.255 37.9098V39.6545C106.255 40.0328 106.33 40.3648 106.479 40.6506C106.627 40.9323 106.839 41.1516 107.112 41.3086C107.386 41.4656 107.712 41.544 108.09 41.544C108.352 41.544 108.589 41.5078 108.803 41.4354C109.016 41.3629 109.199 41.2563 109.352 41.1154C109.505 40.9745 109.62 40.8015 109.696 40.5962L112.407 40.6747C112.294 41.2824 112.047 41.8117 111.664 42.2624C111.286 42.7092 110.789 43.0573 110.173 43.3068C109.557 43.5523 108.845 43.6751 108.036 43.6751ZM116.559 43.657C115.967 43.657 115.442 43.5584 114.983 43.3611C114.528 43.1599 114.168 42.8581 113.902 42.4556C113.641 42.0491 113.51 41.54 113.51 40.9283C113.51 40.4131 113.601 39.9785 113.782 39.6243C113.963 39.2701 114.212 38.9824 114.53 38.761C114.848 38.5397 115.215 38.3726 115.629 38.2599C116.044 38.1432 116.486 38.0647 116.957 38.0245C117.484 37.9762 117.909 37.9259 118.231 37.8736C118.553 37.8172 118.786 37.7388 118.931 37.6381C119.08 37.5335 119.155 37.3866 119.155 37.1974V37.1673C119.155 36.8574 119.048 36.6179 118.835 36.4489C118.621 36.2798 118.334 36.1953 117.971 36.1953C117.581 36.1953 117.267 36.2798 117.03 36.4489C116.792 36.6179 116.641 36.8513 116.577 37.1491L113.854 37.0526C113.935 36.4891 114.142 35.986 114.476 35.5433C114.814 35.0966 115.277 34.7464 115.864 34.4929C116.456 34.2353 117.166 34.1065 117.996 34.1065C118.587 34.1065 119.132 34.177 119.632 34.3178C120.131 34.4547 120.565 34.6559 120.936 34.9215C121.306 35.1831 121.592 35.5051 121.793 35.8874C121.998 36.2698 122.101 36.7064 122.101 37.1974V43.5H119.324V42.2081H119.251C119.086 42.522 118.875 42.7876 118.617 43.005C118.364 43.2223 118.064 43.3853 117.718 43.494C117.376 43.6026 116.989 43.657 116.559 43.657ZM117.47 41.7251C117.788 41.7251 118.074 41.6607 118.328 41.532C118.585 41.4032 118.79 41.2261 118.943 41.0007C119.096 40.7713 119.173 40.5057 119.173 40.2038V39.3224C119.088 39.3667 118.986 39.407 118.865 39.4432C118.748 39.4794 118.619 39.5136 118.478 39.5458C118.338 39.578 118.193 39.6062 118.044 39.6303C117.895 39.6545 117.752 39.6766 117.615 39.6967C117.338 39.741 117.1 39.8094 116.903 39.902C116.71 39.9946 116.561 40.1153 116.456 40.2642C116.355 40.4091 116.305 40.5821 116.305 40.7834C116.305 41.0892 116.414 41.3227 116.631 41.4837C116.853 41.6446 117.132 41.7251 117.47 41.7251ZM135.128 35.6158H132.11C132.07 35.3059 131.987 35.0262 131.862 34.7766C131.738 34.5271 131.573 34.3138 131.367 34.1367C131.162 33.9596 130.919 33.8248 130.637 33.7322C130.359 33.6357 130.051 33.5874 129.713 33.5874C129.114 33.5874 128.596 33.7343 128.162 34.0281C127.731 34.3218 127.399 34.7464 127.166 35.3018C126.936 35.8572 126.822 36.5294 126.822 37.3182C126.822 38.1392 126.938 38.8274 127.172 39.3828C127.409 39.9342 127.741 40.3507 128.168 40.6325C128.598 40.9102 129.108 41.049 129.695 41.049C130.025 41.049 130.325 41.0067 130.595 40.9222C130.868 40.8377 131.108 40.715 131.313 40.554C131.522 40.389 131.693 40.1897 131.826 39.9563C131.963 39.7189 132.058 39.4512 132.11 39.1534L135.128 39.1715C135.076 39.7189 134.917 40.2582 134.651 40.7894C134.39 41.3207 134.03 41.8056 133.571 42.2443C133.112 42.679 132.553 43.0251 131.893 43.2827C131.237 43.5402 130.484 43.669 129.635 43.669C128.516 43.669 127.514 43.4235 126.628 42.9325C125.747 42.4375 125.051 41.7171 124.54 40.7713C124.028 39.8255 123.773 38.6745 123.773 37.3182C123.773 35.9579 124.032 34.8048 124.552 33.859C125.071 32.9132 125.773 32.1948 126.659 31.7038C127.544 31.2128 128.536 30.9673 129.635 30.9673C130.383 30.9673 131.076 31.072 131.711 31.2812C132.347 31.4865 132.907 31.7884 133.39 32.1868C133.873 32.5812 134.265 33.0662 134.567 33.6417C134.869 34.2172 135.056 34.8752 135.128 35.6158ZM141.167 43.6751C140.193 43.6751 139.356 43.4758 138.655 43.0774C137.959 42.6749 137.422 42.1155 137.044 41.3991C136.669 40.6787 136.482 39.8436 136.482 38.8938C136.482 37.94 136.669 37.1049 137.044 36.3885C137.422 35.6681 137.959 35.1087 138.655 34.7102C139.356 34.3078 140.193 34.1065 141.167 34.1065C142.141 34.1065 142.976 34.3078 143.672 34.7102C144.372 35.1087 144.91 35.6681 145.284 36.3885C145.662 37.1049 145.851 37.94 145.851 38.8938C145.851 39.8436 145.662 40.6787 145.284 41.3991C144.91 42.1155 144.372 42.6749 143.672 43.0774C142.976 43.4758 142.141 43.6751 141.167 43.6751ZM141.185 41.4474C141.539 41.4474 141.839 41.3388 142.084 41.1214C142.33 40.9041 142.517 40.6023 142.646 40.2159C142.779 39.8295 142.845 39.3828 142.845 38.8757C142.845 38.3606 142.779 37.9098 142.646 37.5234C142.517 37.1371 142.33 36.8352 142.084 36.6179C141.839 36.4006 141.539 36.2919 141.185 36.2919C140.819 36.2919 140.509 36.4006 140.255 36.6179C140.006 36.8352 139.815 37.1371 139.682 37.5234C139.553 37.9098 139.489 38.3606 139.489 38.8757C139.489 39.3828 139.553 39.8295 139.682 40.2159C139.815 40.6023 140.006 40.9041 140.255 41.1214C140.509 41.3388 140.819 41.4474 141.185 41.4474ZM150.316 38.2116V43.5H147.364V34.2273H150.171V35.9297H150.273C150.479 35.3622 150.829 34.9175 151.324 34.5955C151.819 34.2695 152.409 34.1065 153.093 34.1065C153.745 34.1065 154.31 34.2534 154.789 34.5472C155.272 34.837 155.646 35.2435 155.912 35.7667C156.182 36.2859 156.314 36.8936 156.31 37.5898V43.5H153.358V38.1694C153.362 37.6542 153.232 37.2518 152.966 36.962C152.704 36.6722 152.34 36.5273 151.873 36.5273C151.563 36.5273 151.29 36.5958 151.052 36.7326C150.819 36.8654 150.638 37.0566 150.509 37.3061C150.384 37.5556 150.32 37.8575 150.316 38.2116ZM161.766 43.5V41.3508L166.276 37.4027C166.614 37.0968 166.902 36.8171 167.139 36.5636C167.377 36.306 167.558 36.0484 167.682 35.7908C167.807 35.5292 167.87 35.2455 167.87 34.9396C167.87 34.5975 167.795 34.3058 167.646 34.0643C167.497 33.8188 167.292 33.6296 167.03 33.4968C166.769 33.364 166.469 33.2976 166.131 33.2976C165.789 33.2976 165.489 33.368 165.231 33.5089C164.974 33.6457 164.773 33.8449 164.628 34.1065C164.487 34.3681 164.417 34.6861 164.417 35.0604H161.585C161.585 34.2192 161.774 33.4928 162.153 32.881C162.531 32.2693 163.062 31.7984 163.746 31.4684C164.435 31.1344 165.234 30.9673 166.143 30.9673C167.081 30.9673 167.896 31.1243 168.588 31.4382C169.28 31.7521 169.816 32.1908 170.194 32.7543C170.576 33.3137 170.767 33.9637 170.767 34.7042C170.767 35.1751 170.673 35.6419 170.484 36.1048C170.294 36.5676 169.954 37.0787 169.463 37.6381C168.976 38.1976 168.284 38.8677 167.387 39.6484L165.908 41.0128V41.0913H170.918V43.5H161.766ZM177.72 43.8018C176.642 43.8018 175.712 43.5463 174.931 43.0352C174.151 42.52 173.549 41.7815 173.126 40.8196C172.704 39.8537 172.494 38.6926 172.498 37.3363C172.502 35.98 172.714 34.829 173.132 33.8832C173.555 32.9334 174.155 32.2109 174.931 31.7159C175.712 31.2169 176.642 30.9673 177.72 30.9673C178.799 30.9673 179.729 31.2169 180.509 31.7159C181.294 32.2109 181.898 32.9334 182.321 33.8832C182.743 34.833 182.952 35.984 182.948 37.3363C182.948 38.6966 182.737 39.8597 182.314 40.8256C181.892 41.7915 181.29 42.5301 180.509 43.0412C179.733 43.5483 178.803 43.8018 177.72 43.8018ZM177.72 41.3569C178.364 41.3569 178.886 41.0289 179.284 40.3729C179.682 39.7128 179.88 38.7006 179.876 37.3363C179.876 36.4428 179.785 35.7063 179.604 35.1268C179.423 34.5432 179.171 34.1085 178.849 33.8228C178.527 33.537 178.151 33.3942 177.72 33.3942C177.08 33.3942 176.563 33.7182 176.169 34.3661C175.774 35.0101 175.575 36.0001 175.571 37.3363C175.567 38.2418 175.654 38.9924 175.831 39.5881C176.012 40.1837 176.265 40.6284 176.591 40.9222C176.917 41.212 177.294 41.3569 177.72 41.3569ZM184.66 43.5V41.3508L189.169 37.4027C189.507 37.0968 189.795 36.8171 190.033 36.5636C190.27 36.306 190.451 36.0484 190.576 35.7908C190.701 35.5292 190.763 35.2455 190.763 34.9396C190.763 34.5975 190.689 34.3058 190.54 34.0643C190.391 33.8188 190.186 33.6296 189.924 33.4968C189.662 33.364 189.363 33.2976 189.025 33.2976C188.682 33.2976 188.383 33.368 188.125 33.5089C187.867 33.6457 187.666 33.8449 187.521 34.1065C187.38 34.3681 187.31 34.6861 187.31 35.0604H184.479C184.479 34.2192 184.668 33.4928 185.046 32.881C185.425 32.2693 185.956 31.7984 186.64 31.4684C187.328 31.1344 188.127 30.9673 189.037 30.9673C189.974 30.9673 190.789 31.1243 191.482 31.4382C192.174 31.7521 192.709 32.1908 193.087 32.7543C193.47 33.3137 193.661 33.9637 193.661 34.7042C193.661 35.1751 193.566 35.6419 193.377 36.1048C193.188 36.5676 192.848 37.0787 192.357 37.6381C191.87 38.1976 191.178 38.8677 190.28 39.6484L188.801 41.0128V41.0913H193.812V43.5H184.66ZM195.501 43.5V41.3508L200.01 37.4027C200.348 37.0968 200.636 36.8171 200.874 36.5636C201.111 36.306 201.292 36.0484 201.417 35.7908C201.542 35.5292 201.604 35.2455 201.604 34.9396C201.604 34.5975 201.53 34.3058 201.381 34.0643C201.232 33.8188 201.026 33.6296 200.765 33.4968C200.503 33.364 200.203 33.2976 199.865 33.2976C199.523 33.2976 199.223 33.368 198.966 33.5089C198.708 33.6457 198.507 33.8449 198.362 34.1065C198.221 34.3681 198.151 34.6861 198.151 35.0604H195.32C195.32 34.2192 195.509 33.4928 195.887 32.881C196.265 32.2693 196.797 31.7984 197.481 31.4684C198.169 31.1344 198.968 30.9673 199.877 30.9673C200.815 30.9673 201.63 31.1243 202.322 31.4382C203.015 31.7521 203.55 32.1908 203.928 32.7543C204.311 33.3137 204.502 33.9637 204.502 34.7042C204.502 35.1751 204.407 35.6419 204.218 36.1048C204.029 36.5676 203.689 37.0787 203.198 37.6381C202.711 38.1976 202.019 38.8677 201.121 39.6484L199.642 41.0128V41.0913H204.653V43.5H195.501ZM216.225 28.965H222.005V31.175H218.656V39.76H216.225V28.965ZM228.89 29.985H238.614V31.991H228.89V29.985ZM228.601 39.658H238.716V41.664H228.601V39.658ZM230.607 28.965H232.936V32.79H230.607V28.965ZM234.551 28.965H236.948V32.79H234.551V28.965ZM231.508 36.768V37.227H235.503V36.768H231.508ZM231.508 34.745V35.204H235.503V34.745H231.508ZM229.23 33.062H237.883V38.91H229.23V33.062ZM232.409 38.689H234.823C234.755 39.4937 234.636 40.2303 234.466 40.899C234.296 41.5563 234.013 42.157 233.616 42.701C233.231 43.2337 232.675 43.6983 231.95 44.095C231.236 44.503 230.29 44.843 229.111 45.115C229.009 44.8203 228.833 44.4747 228.584 44.078C228.335 43.6927 228.097 43.381 227.87 43.143C228.867 42.9503 229.655 42.7237 230.233 42.463C230.822 42.191 231.264 41.8737 231.559 41.511C231.854 41.137 232.058 40.7177 232.171 40.253C232.284 39.7883 232.364 39.267 232.409 38.689ZM235.384 40.372C235.69 41.0407 236.16 41.6073 236.795 42.072C237.43 42.5253 238.234 42.8483 239.209 43.041C239.039 43.1997 238.858 43.398 238.665 43.636C238.472 43.874 238.291 44.1177 238.121 44.367C237.951 44.6277 237.815 44.8657 237.713 45.081C236.557 44.7523 235.633 44.2253 234.942 43.5C234.262 42.7633 233.724 41.8567 233.327 40.78L235.384 40.372ZM223.076 32.076H228.516V34.354H223.076V32.076ZM224.759 28.965H227.088V45.115H224.759V28.965ZM225.031 33.827L226.306 34.354C226.193 35.068 226.051 35.799 225.881 36.547C225.711 37.2837 225.518 38.009 225.303 38.723C225.088 39.4257 224.85 40.083 224.589 40.695C224.328 41.307 224.051 41.834 223.756 42.276C223.688 42.038 223.586 41.766 223.45 41.46C223.325 41.154 223.189 40.848 223.042 40.542C222.895 40.236 222.753 39.9697 222.617 39.743C222.889 39.403 223.15 39.0007 223.399 38.536C223.648 38.06 223.875 37.5557 224.079 37.023C224.294 36.4903 224.481 35.952 224.64 35.408C224.799 34.8527 224.929 34.3257 225.031 33.827ZM226.969 34.728C227.071 34.8527 227.23 35.0623 227.445 35.357C227.66 35.6403 227.887 35.952 228.125 36.292C228.363 36.632 228.578 36.9493 228.771 37.244C228.975 37.5387 229.117 37.754 229.196 37.89L227.751 39.59C227.649 39.3067 227.519 38.9893 227.36 38.638C227.201 38.2753 227.031 37.907 226.85 37.533C226.68 37.159 226.504 36.8077 226.323 36.479C226.153 36.139 226 35.85 225.864 35.612L226.969 34.728ZM243.527 34.167H252.333V36.36H243.527V34.167ZM246.689 32.229H248.984C248.961 33.4417 248.899 34.5467 248.797 35.544C248.706 36.5413 248.514 37.4367 248.219 38.23C247.936 39.0233 247.499 39.726 246.91 40.338C246.321 40.9387 245.522 41.4543 244.513 41.885C244.388 41.5903 244.19 41.256 243.918 40.882C243.646 40.508 243.385 40.2133 243.136 39.998C243.986 39.658 244.649 39.2557 245.125 38.791C245.601 38.315 245.947 37.7653 246.162 37.142C246.377 36.5187 246.513 35.8047 246.57 35C246.627 34.184 246.666 33.2603 246.689 32.229ZM249.001 35.544C249.239 36.5753 249.63 37.4763 250.174 38.247C250.729 39.0177 251.523 39.573 252.554 39.913C252.395 40.0603 252.22 40.253 252.027 40.491C251.834 40.7177 251.653 40.9613 251.483 41.222C251.324 41.4713 251.194 41.698 251.092 41.902C250.299 41.562 249.641 41.103 249.12 40.525C248.599 39.947 248.174 39.2613 247.845 38.468C247.528 37.6747 247.267 36.7907 247.063 35.816L249.001 35.544ZM240.569 29.662H255.342V45.081H252.758V32.025H243.034V45.081H240.569V29.662ZM242.014 42.072H253.727V44.435H242.014V42.072ZM262.074 33.555H272.954V35.884H262.074V33.555ZM263.06 29.696H271.866V32.025H263.06V29.696ZM264.981 37.635H270.353V39.964H264.981V37.635ZM264.233 35.017H266.732C266.63 35.5837 266.517 36.1673 266.392 36.768C266.279 37.3573 266.16 37.9297 266.035 38.485C265.91 39.0403 265.791 39.5333 265.678 39.964H263.128C263.264 39.5107 263.394 39.0063 263.519 38.451C263.655 37.8957 263.785 37.3233 263.91 36.734C264.035 36.1333 264.142 35.561 264.233 35.017ZM269.622 37.635H272.155C272.155 37.635 272.149 37.6973 272.138 37.822C272.138 37.9353 272.132 38.0713 272.121 38.23C272.11 38.3773 272.098 38.502 272.087 38.604C272.03 39.6467 271.951 40.5137 271.849 41.205C271.758 41.8963 271.645 42.4517 271.509 42.871C271.373 43.2903 271.197 43.6077 270.982 43.823C270.676 44.129 270.342 44.3387 269.979 44.452C269.616 44.5653 269.191 44.6333 268.704 44.656C268.319 44.69 267.82 44.7013 267.208 44.69C266.596 44.69 265.967 44.6843 265.321 44.673C265.298 44.3103 265.191 43.908 264.998 43.466C264.817 43.024 264.596 42.6443 264.335 42.327C264.8 42.361 265.264 42.3893 265.729 42.412C266.194 42.4233 266.619 42.4347 267.004 42.446C267.389 42.446 267.69 42.446 267.905 42.446C268.109 42.446 268.279 42.4403 268.415 42.429C268.562 42.4063 268.698 42.3553 268.823 42.276C268.97 42.174 269.095 41.9473 269.197 41.596C269.299 41.2447 269.378 40.763 269.435 40.151C269.503 39.539 269.56 38.8023 269.605 37.941L269.622 37.635ZM257.705 30.971L259.099 29.169C259.416 29.3163 259.773 29.492 260.17 29.696C260.578 29.9 260.969 30.104 261.343 30.308C261.728 30.512 262.046 30.6933 262.295 30.852L260.85 32.875C260.623 32.6937 260.323 32.4897 259.949 32.263C259.586 32.0363 259.201 31.8097 258.793 31.583C258.396 31.3563 258.034 31.1523 257.705 30.971ZM256.957 35.697L258.283 33.861C258.6 33.997 258.963 34.167 259.371 34.371C259.779 34.5637 260.181 34.7563 260.578 34.949C260.975 35.1417 261.298 35.3173 261.547 35.476L260.17 37.533C259.943 37.363 259.637 37.1703 259.252 36.955C258.878 36.7397 258.487 36.5187 258.079 36.292C257.671 36.0653 257.297 35.867 256.957 35.697ZM257.569 43.262C257.875 42.8427 258.209 42.3497 258.572 41.783C258.946 41.205 259.326 40.5873 259.711 39.93C260.096 39.2727 260.459 38.6153 260.799 37.958L262.618 39.607C262.323 40.1963 262.012 40.797 261.683 41.409C261.354 42.0097 261.02 42.6047 260.68 43.194C260.351 43.7833 260.011 44.3613 259.66 44.928L257.569 43.262ZM274.331 38.417H289.563V40.576H274.331V38.417ZM279.346 30.716H286.163V32.875H279.346V30.716ZM280.655 36.989H283.171V45.098H280.655V36.989ZM280.043 39.539L281.947 40.338C281.448 41.018 280.853 41.6583 280.162 42.259C279.471 42.8483 278.723 43.3753 277.918 43.84C277.113 44.3047 276.286 44.69 275.436 44.996C275.323 44.792 275.17 44.5653 274.977 44.316C274.796 44.0667 274.603 43.823 274.399 43.585C274.206 43.3583 274.019 43.16 273.838 42.99C274.665 42.7747 275.47 42.4913 276.252 42.14C277.045 41.7887 277.771 41.392 278.428 40.95C279.085 40.4967 279.624 40.0263 280.043 39.539ZM283.783 39.454C284.214 39.93 284.763 40.3833 285.432 40.814C286.101 41.2447 286.832 41.6357 287.625 41.987C288.43 42.327 289.24 42.6047 290.056 42.82C289.875 42.9787 289.676 43.1827 289.461 43.432C289.257 43.6813 289.064 43.9363 288.883 44.197C288.702 44.4577 288.549 44.69 288.424 44.894C287.585 44.5993 286.758 44.2197 285.942 43.755C285.137 43.2903 284.384 42.7633 283.681 42.174C282.978 41.5847 282.361 40.9613 281.828 40.304L283.783 39.454ZM273.838 32.926L274.79 31.328C275.107 31.4073 275.453 31.5093 275.827 31.634C276.201 31.7473 276.564 31.872 276.915 32.008C277.266 32.1327 277.561 32.2573 277.799 32.382L276.796 34.15C276.581 34.0253 276.303 33.8893 275.963 33.742C275.623 33.5833 275.266 33.436 274.892 33.3C274.518 33.1527 274.167 33.028 273.838 32.926ZM275.181 30.597L276.065 29.016C276.394 29.084 276.745 29.1803 277.119 29.305C277.504 29.4183 277.878 29.5373 278.241 29.662C278.604 29.7867 278.904 29.9057 279.142 30.019L278.224 31.753C277.997 31.6283 277.708 31.498 277.357 31.362C277.006 31.2147 276.637 31.073 276.252 30.937C275.867 30.801 275.51 30.6877 275.181 30.597ZM274.178 36.649C274.631 36.309 275.153 35.8727 275.742 35.34C276.343 34.796 276.932 34.235 277.51 33.657L279.006 35.119C278.507 35.6517 278.003 36.1787 277.493 36.7C276.983 37.2213 276.479 37.7257 275.98 38.213L274.178 36.649ZM284.871 30.716H287.285V34.762C287.285 35.0227 287.291 35.1757 287.302 35.221C287.336 35.2777 287.381 35.306 287.438 35.306C287.461 35.306 287.489 35.306 287.523 35.306C287.568 35.306 287.602 35.306 287.625 35.306C287.648 35.306 287.67 35.3003 287.693 35.289C287.727 35.2777 287.755 35.2663 287.778 35.255C287.801 35.2323 287.823 35.1927 287.846 35.136C287.869 35.0793 287.886 34.983 287.897 34.847C287.908 34.7223 287.914 34.524 287.914 34.252C287.925 33.9687 287.937 33.6513 287.948 33.3C288.175 33.5153 288.492 33.725 288.9 33.929C289.319 34.133 289.693 34.2973 290.022 34.422C289.999 34.7847 289.965 35.1473 289.92 35.51C289.875 35.8613 289.812 36.1333 289.733 36.326C289.654 36.5187 289.552 36.683 289.427 36.819C289.302 36.955 289.149 37.0683 288.968 37.159C288.821 37.227 288.639 37.278 288.424 37.312C288.22 37.346 288.039 37.363 287.88 37.363C287.755 37.363 287.625 37.363 287.489 37.363C287.364 37.363 287.24 37.363 287.115 37.363C287.002 37.363 286.888 37.363 286.775 37.363C286.537 37.363 286.288 37.3233 286.027 37.244C285.766 37.1533 285.551 37.023 285.381 36.853C285.211 36.6717 285.081 36.4393 284.99 36.156C284.911 35.8727 284.871 35.4307 284.871 34.83V30.716ZM281.794 28.982L284.259 28.931C284.214 30.4723 284.049 31.8153 283.766 32.96C283.494 34.0933 283.052 35.0623 282.44 35.867C281.839 36.6603 281.018 37.3233 279.975 37.856C279.884 37.6973 279.731 37.499 279.516 37.261C279.312 37.023 279.097 36.7907 278.87 36.564C278.643 36.326 278.445 36.1447 278.275 36.02C279.216 35.646 279.941 35.1473 280.451 34.524C280.961 33.8893 281.312 33.113 281.505 32.195C281.709 31.277 281.805 30.206 281.794 28.982ZM296.635 45.115H290.855V42.905H294.204V34.32H296.635V45.115Z" fill="black"/>
</g>
<path d="M327.449 8.66923C327.722 10.2293 328.11 11.2992 328.775 12.2882C329.223 12.9574 329.717 13.4177 330.301 13.7076C330.957 14.0401 331.507 14.1381 331.725 13.9676C331.784 13.9207 331.878 13.8824 331.938 13.8824C332.134 13.8824 332.151 13.8099 332.125 13.0853C332.104 12.3265 332.027 11.9685 331.78 11.4271C331.196 10.1739 329.981 9.16369 327.927 8.23871C327.637 8.10657 327.385 8.00001 327.368 8.00001C327.351 8.00001 327.385 8.30265 327.449 8.66923Z" fill="black"/>
<path d="M333.916 9.75618C332.837 11.7852 332.492 13.4561 332.884 14.7945C333.153 15.7238 333.933 16.8661 334.291 16.8661C334.491 16.8661 334.943 16.2694 335.275 15.5661C335.565 14.9565 335.651 14.543 335.655 13.7545C335.655 12.902 335.518 12.2498 335.139 11.2737C334.964 10.8176 334.282 9.42796 334.206 9.36402C334.163 9.32992 334.095 9.4237 333.916 9.75618Z" fill="black"/>
<path d="M328.259 13.4859C328.259 13.503 328.345 13.8269 328.451 14.202C329.184 16.7809 330.51 18.5456 331.993 18.9292C332.68 19.104 333.055 19.0997 333.212 18.9164C333.251 18.8696 333.353 18.8184 333.438 18.8014C333.524 18.7886 333.605 18.7459 333.617 18.7118C333.63 18.682 333.617 18.4476 333.592 18.1918C333.447 16.7894 332.91 15.8815 331.703 14.9864C330.885 14.3768 330.054 14.006 328.357 13.4817C328.302 13.4646 328.259 13.4646 328.259 13.4859Z" fill="black"/>
<path d="M336.763 15.6513C335.804 16.8704 335.271 17.8124 335.011 18.763C334.879 19.2361 334.828 20.127 334.905 20.5405C335.015 21.133 335.292 21.815 335.625 22.318C335.77 22.5396 335.778 22.5439 335.94 22.5226C336.179 22.4885 336.401 22.3265 336.708 21.9599C337.296 21.2523 337.633 20.5746 337.816 19.7221C337.935 19.185 337.94 18.1534 337.833 17.4842C337.697 16.6402 337.3 15.1185 337.215 15.1185C337.194 15.1185 336.993 15.3572 336.763 15.6513Z" fill="black"/>
<path d="M331.132 18.8994C331.145 19.0145 331.166 19.381 331.179 19.7221C331.256 21.5635 331.605 22.8039 332.356 23.9036C332.82 24.5814 333.592 25.1909 334.223 25.3742C334.431 25.4382 334.466 25.4382 334.598 25.3742C334.674 25.3359 334.785 25.306 334.841 25.306C334.9 25.306 334.956 25.2719 334.973 25.2293C335.045 25.0375 335.131 24.5174 335.152 24.1125C335.224 22.7101 334.581 21.4186 333.212 20.2208C332.466 19.5686 331.294 18.699 331.166 18.699C331.128 18.699 331.119 18.7544 331.132 18.8994Z" fill="black"/>
<path d="M338.992 21.6573C337.253 22.6974 336.264 23.6309 335.736 24.7306C335.437 25.3615 335.399 25.5533 335.403 26.4357C335.408 27.0452 335.425 27.2669 335.489 27.5226C335.565 27.8253 335.578 27.8423 335.697 27.8551C335.77 27.8636 335.842 27.8892 335.868 27.9105C336.013 28.0512 336.618 27.838 337.147 27.4629C337.867 26.9472 338.583 25.9242 338.95 24.8798C339.197 24.1637 339.397 23.145 339.448 22.3223C339.461 22.1006 339.483 21.798 339.495 21.6488C339.504 21.5039 339.5 21.3845 339.483 21.3845C339.465 21.3845 339.244 21.5081 338.992 21.6573Z" fill="black"/>
<path d="M331.396 23.7758C331.35 23.9165 331.158 24.9395 331.09 25.4126C330.992 26.0946 330.992 27.237 331.085 27.7613C331.273 28.8014 331.703 29.6454 332.415 30.3572C332.91 30.8559 333.072 30.954 333.391 30.954H333.651L333.766 30.7409C333.967 30.3785 334.176 29.6667 334.231 29.1594C334.372 27.8636 333.818 26.4527 332.564 24.931C332.074 24.3385 331.426 23.6906 331.396 23.7758Z" fill="black"/>
<path d="M339.521 27.5013C338.191 27.7144 337.168 28.0043 336.499 28.3495C335.544 28.844 334.845 29.5985 334.449 30.5533C334.308 30.89 334.116 31.7425 334.154 31.8491C334.167 31.8789 334.257 31.9301 334.346 31.9557C334.444 31.9812 334.547 32.0452 334.585 32.1006C334.687 32.2583 334.909 32.3137 335.352 32.2839C336.746 32.1901 337.863 31.3973 339.031 29.6709C339.466 29.023 340.284 27.3862 340.165 27.399C340.148 27.4032 339.858 27.4459 339.521 27.5013Z" fill="black"/>
<path d="M330.335 28.9548C330.288 29.0401 329.964 30.0887 329.866 30.4851C329.628 31.4271 329.602 31.6317 329.606 32.5524C329.606 33.3623 329.615 33.4561 329.721 33.844C329.917 34.5686 330.382 35.3785 330.936 35.9454C331.235 36.2524 331.392 36.3461 331.605 36.3461C331.763 36.3461 331.789 36.3291 331.921 36.1287C332.275 35.5874 332.526 34.8883 332.611 34.2191C332.769 32.9233 332.16 31.2651 330.898 29.59C330.472 29.0188 330.369 28.9037 330.335 28.9548Z" fill="black"/>
<path d="M327.743 32.7315C327.159 33.8142 326.823 34.6922 326.639 35.5831C326.516 36.1671 326.537 37.1262 326.678 37.6249C326.929 38.5115 327.731 39.7136 328.063 39.7136C328.178 39.7136 328.553 39.3001 328.809 38.8824C329.078 38.4561 329.299 37.9318 329.402 37.4885C329.508 37.0196 329.495 35.9028 329.38 35.3657C329.269 34.8755 329.069 34.2362 328.869 33.746C328.702 33.3368 328.208 32.3137 328.123 32.1986C328.072 32.1347 328.029 32.1944 327.743 32.7315Z" fill="black"/>
<path d="M337.893 32.1987C337.334 32.2328 336.52 32.3436 336.132 32.4416C334.717 32.8039 333.613 33.682 333.076 34.8756C332.974 35.1057 332.735 35.792 332.735 35.8602C332.735 35.8687 332.837 35.9242 332.961 35.9796C333.08 36.035 333.225 36.1373 333.276 36.2055C333.408 36.393 333.685 36.4484 334.308 36.4186C335.403 36.3675 336.32 35.9156 337.3 34.9438C337.871 34.3726 338.361 33.7375 338.83 32.9489C339.052 32.5823 339.252 32.2541 339.269 32.2242C339.295 32.1816 339.184 32.1688 338.715 32.1773C338.391 32.1816 338.02 32.1901 337.893 32.1987Z" fill="black"/>
<path d="M324.913 35.7153C323.319 37.2583 322.59 38.4945 322.479 39.8329C322.428 40.451 322.611 41.3419 322.923 41.9727L323.08 42.2924H323.336C323.558 42.2924 323.622 42.2711 323.805 42.1432C324.5 41.6658 325.212 40.6513 325.501 39.7349C325.736 38.9804 325.766 38.7502 325.766 37.5823C325.766 36.653 325.749 36.4015 325.663 35.8559C325.608 35.5021 325.548 35.1995 325.531 35.1824C325.514 35.1611 325.233 35.3998 324.913 35.7153Z" fill="black"/>
<path d="M333.067 36.6701C331.853 36.8576 331.171 37.156 330.506 37.7911C330.156 38.1236 329.913 38.4348 329.649 38.8866C329.376 39.3598 329.376 39.3512 329.666 39.5345C329.807 39.6198 329.934 39.7263 329.947 39.7647C330.054 40.1014 331.094 40.3401 331.946 40.2293C332.419 40.1654 333.123 39.9352 333.545 39.705C334.376 39.2532 335.412 38.4135 335.732 37.9403C335.838 37.7783 336.064 37.497 336.23 37.3095C336.396 37.1262 336.524 36.9685 336.516 36.9599C336.507 36.9514 336.23 36.896 335.906 36.8363C334.521 36.5933 333.809 36.5507 333.067 36.6701Z" fill="black"/>
<path d="M321.333 39.0273C319.056 39.5516 317.714 40.2635 316.963 41.3547C316.601 41.8832 316.303 42.7613 316.252 43.4476L316.226 43.7929L316.375 43.8227C316.46 43.8355 316.588 43.908 316.665 43.9804L316.801 44.1168L317.236 44.0955C317.957 44.0614 318.647 43.7801 319.316 43.2515C319.9 42.7912 320.685 41.7596 321.196 40.7792C321.414 40.37 321.865 39.2788 321.934 39.0145C321.968 38.8781 321.985 38.8781 321.333 39.0273Z" fill="black"/>
<path d="M328.195 40.272C327.466 40.3743 326.639 40.7707 326.064 41.3035C325.744 41.5934 325.318 42.0963 325.318 42.1773C325.318 42.2029 325.433 42.3223 325.574 42.4459C325.714 42.5695 325.842 42.7144 325.855 42.7698C325.906 42.9659 326.362 43.2259 326.968 43.405C328.008 43.7076 329.223 43.5158 330.569 42.8338C331.345 42.4416 331.716 42.1944 331.865 41.9685C331.934 41.8662 332.159 41.6488 332.364 41.4825C332.616 41.2822 332.718 41.1756 332.679 41.1543C332.65 41.1373 332.317 41.0094 331.942 40.8687C331.166 40.5831 330.582 40.4126 330.054 40.3274C329.572 40.2507 328.57 40.2208 328.195 40.272Z" fill="black"/>
<path d="M322.658 42.8934C322.27 42.9787 321.874 43.1321 321.482 43.341C321.102 43.5456 320.676 43.8525 320.672 43.9165C320.672 43.942 320.783 44.1168 320.919 44.3086C321.051 44.5004 321.209 44.7349 321.269 44.8329C321.46 45.1483 322.1 45.6215 322.624 45.8346C323.617 46.2353 324.798 46.2481 326.277 45.8772C326.959 45.7025 327.151 45.6172 327.232 45.451C327.27 45.3657 327.368 45.2975 327.573 45.208C327.726 45.1398 327.91 45.0588 327.978 45.029L328.102 44.9736L327.65 44.6454C326.316 43.6735 325.497 43.2387 324.466 42.9702C323.937 42.8295 323.093 42.7954 322.658 42.8934Z" fill="black"/>
<path d="M317.283 44.688C317.121 44.7221 316.84 44.8073 316.665 44.8755C316.35 44.9949 315.71 45.3359 315.612 45.4382C315.535 45.5149 316.162 46.5209 316.495 46.8619C316.968 47.3478 317.56 47.6846 318.306 47.8849C318.707 47.9915 318.788 48 319.67 48C320.463 48 320.689 47.9872 321.141 47.902C321.759 47.7911 322.036 47.6846 322.036 47.5652C322.036 47.4714 322.181 47.3905 322.569 47.2754C322.709 47.2327 322.837 47.1858 322.859 47.1731C322.893 47.1432 322.01 46.3717 321.49 45.9795C320.552 45.2805 319.649 44.8457 318.796 44.6837C318.362 44.5985 317.68 44.6027 317.283 44.688Z" fill="black"/>
<defs>
<filter id="filter0_d_17_2722" x="87.0057" y="3.9" width="226.2" height="48.2" filterUnits="userSpaceOnUse" color-interpolation-filters="sRGB">
<feFlood flood-opacity="0" result="BackgroundImageFix"/>
<feColorMatrix in="SourceAlpha" type="matrix" values="0 0 0 0 0 0 0 0 0 0 0 0 0 0 0 0 0 0 127 0" result="hardAlpha"/>
<feOffset/>
<feGaussianBlur stdDeviation="2.8"/>
<feComposite in2="hardAlpha" operator="out"/>
<feColorMatrix type="matrix" values="0 0 0 0 0 0 0 0 0 0 0 0 0 0 0 0 0 0 0.25 0"/>
<feBlend mode="normal" in2="BackgroundImageFix" result="effect1_dropShadow_17_2722"/>
<feBlend mode="normal" in="SourceGraphic" in2="effect1_dropShadow_17_2722" result="shape"/>
</filter>
<linearGradient id="paint0_linear_17_2722" x1="176.088" y1="0" x2="176.088" y2="56" gradientUnits="userSpaceOnUse">
<stop stop-color="#F87070"/>
<stop offset="1" stop-color="#EF4444"/>
</linearGradient>
</defs>
</svg>
