<svg width="165" height="56" viewBox="0 0 165 56" fill="none" xmlns="http://www.w3.org/2000/svg">
<rect width="165" height="56" rx="8" fill="url(#paint0_linear_30_605)"/>
<rect x="1.05" y="1.05" width="162.9" height="53.9" rx="6.95" stroke="white" stroke-opacity="0.15" stroke-width="2.1"/>
<path d="M43 10.5H23V11.75H43V10.5Z" fill="#00FFEE" fill-opacity="0.502"/>
<path d="M23 11.75H21.75V13H23V11.75Z" fill="#00FFEE" fill-opacity="0.502"/>
<path d="M43 11.75H23V13H43V11.75Z" fill="#00FFEE"/>
<path d="M44.25 11.75H43V13H44.25V11.75Z" fill="#00FFEE" fill-opacity="0.502"/>
<path d="M21.75 13H20.5V21.75H21.75V13Z" fill="#00FFEE" fill-opacity="0.502"/>
<path d="M23 13H21.75V21.75H23V13Z" fill="#00FFEE"/>
<path d="M43 13H23V14.25H43V13Z" fill="#3F4144"/>
<path d="M44.25 13H43V21.75H44.25V13Z" fill="#00FFEE"/>
<path d="M45.5 13H44.25V21.75H45.5V13Z" fill="#00FFEE" fill-opacity="0.502"/>
<path d="M24.25 14.25H23V16.75H24.25V14.25Z" fill="#3F4144"/>
<path d="M25.5 14.25H24.25V18H25.5V14.25Z" fill="#37393C"/>
<path d="M26.75 14.25H25.5V15.5H26.75V14.25Z" fill="#3F4144"/>
<path d="M38 14.25H26.75V15.5H38V14.25Z" fill="#37393C"/>
<path d="M39.25 14.25H38V15.5H39.25V14.25Z" fill="#3F4144"/>
<path d="M41.75 14.25H39.25V16.75H41.75V14.25Z" fill="#37393C"/>
<path d="M43 14.25H41.75V15.5H43V14.25Z" fill="#3F4144"/>
<path d="M28 15.5H25.5V16.75H28V15.5Z" fill="#37393C"/>
<path d="M29.25 15.5H28V21.75H29.25V15.5Z" fill="#303235"/>
<path d="M30.5 15.5H29.25V18H30.5V15.5Z" fill="#37393C"/>
<path d="M35.5 15.5H30.5V21.75H35.5V15.5Z" fill="#303235"/>
<path d="M36.75 15.5H35.5V18H36.75V15.5Z" fill="#37393C"/>
<path d="M38 15.5H36.75V21.75H38V15.5Z" fill="#303235"/>
<path d="M39.25 15.5H38V18H39.25V15.5Z" fill="#37393C"/>
<path d="M43 15.5H41.75V19.25H43V15.5Z" fill="#37393C"/>
<path d="M24.25 16.75H23V19.25H24.25V16.75Z" fill="#37393C"/>
<path d="M26.75 16.75H25.5V20.5H26.75V16.75Z" fill="#37393C"/>
<path d="M28 16.75H26.75V21.75H28V16.75Z" fill="#303235"/>
<path d="M40.5 16.75H39.25V21.75H40.5V16.75Z" fill="#303235"/>
<path d="M41.75 16.75H40.5V20.5H41.75V16.75Z" fill="#37393C"/>
<path d="M25.5 18H24.25V21.75H25.5V18Z" fill="#303235"/>
<path d="M30.5 18H29.25V21.75H30.5V18Z" fill="#303235"/>
<path d="M36.75 18H35.5V21.75H36.75V18Z" fill="#303235"/>
<path d="M39.25 18H38V21.75H39.25V18Z" fill="#303235"/>
<path d="M24.25 19.25H23V21.75H24.25V19.25Z" fill="#303235"/>
<path d="M43 19.25H41.75V21.75H43V19.25Z" fill="#303235"/>
<path d="M26.75 20.5H25.5V21.75H26.75V20.5Z" fill="#303235"/>
<path d="M41.75 20.5H40.5V21.75H41.75V20.5Z" fill="#303235"/>
<path d="M23 21.75H21.75V23H23V21.75Z" fill="#00FFEE" fill-opacity="0.502"/>
<path d="M29.25 21.75H23V23H29.25V21.75Z" fill="#00FFEE"/>
<path d="M36.75 21.75H29.25V23H36.75V21.75Z" fill="#18191C"/>
<path d="M43 21.75H36.75V23H43V21.75Z" fill="#00FFEE"/>
<path d="M44.25 21.75H43V23H44.25V21.75Z" fill="#00FFEE" fill-opacity="0.502"/>
<path d="M28 23H23V24.25H28V23Z" fill="#00FFEE" fill-opacity="0.502"/>
<path d="M29.25 23H28V26.75H29.25V23Z" fill="#00FFEE"/>
<path d="M30.5 23H29.25V24.25H30.5V23Z" fill="#18191C"/>
<path d="M35.5 23H30.5V24.25H35.5V23Z" fill="#202225"/>
<path d="M36.75 23H35.5V24.25H36.75V23Z" fill="#18191C"/>
<path d="M38 23H36.75V26.75H38V23Z" fill="#00FFEE"/>
<path d="M43 23H38V24.25H43V23Z" fill="#00FFEE" fill-opacity="0.502"/>
<path d="M28 24.25H26.75V25.5H28V24.25Z" fill="#00FFEE" fill-opacity="0.502"/>
<path d="M30.5 24.25H29.25V25.5H30.5V24.25Z" fill="#202225"/>
<path d="M35.5 24.25H30.5V26.75H35.5V24.25Z" fill="#282A2E"/>
<path d="M36.75 24.25H35.5V25.5H36.75V24.25Z" fill="#202225"/>
<path d="M39.25 24.25H38V25.5H39.25V24.25Z" fill="#00FFEE" fill-opacity="0.502"/>
<path d="M26.75 25.5H25.5V26.75H26.75V25.5Z" fill="#00FFEE" fill-opacity="0.502"/>
<path d="M28 25.5H26.75V26.75H28V25.5Z" fill="#00FFEE"/>
<path d="M30.5 25.5H29.25V26.75H30.5V25.5Z" fill="#282A2E"/>
<path d="M36.75 25.5H35.5V26.75H36.75V25.5Z" fill="#282A2E"/>
<path d="M39.25 25.5H38V26.75H39.25V25.5Z" fill="#00FFEE"/>
<path d="M40.5 25.5H39.25V26.75H40.5V25.5Z" fill="#00FFEE" fill-opacity="0.502"/>
<path d="M25.5 26.75H24.25V28H25.5V26.75Z" fill="#00FFEE" fill-opacity="0.502"/>
<path d="M26.75 26.75H25.5V28H26.75V26.75Z" fill="#00FFEE"/>
<path d="M29.25 26.75H26.75V28H29.25V26.75Z" fill="#303235"/>
<path d="M36.75 26.75H29.25V28H36.75V26.75Z" fill="#37393C"/>
<path d="M39.25 26.75H36.75V28H39.25V26.75Z" fill="#303235"/>
<path d="M40.5 26.75H39.25V28H40.5V26.75Z" fill="#00FFEE"/>
<path d="M41.75 26.75H40.5V28H41.75V26.75Z" fill="#00FFEE" fill-opacity="0.502"/>
<path d="M24.25 28H23V31.75H24.25V28Z" fill="#00FFEE" fill-opacity="0.502"/>
<path d="M25.5 28H24.25V31.75H25.5V28Z" fill="#00FFEE"/>
<path d="M28 28H25.5V29.25H28V28Z" fill="#37393C"/>
<path d="M38 28H28V29.25H38V28Z" fill="#3F4144"/>
<path d="M40.5 28H38V29.25H40.5V28Z" fill="#37393C"/>
<path d="M41.75 28H40.5V31.75H41.75V28Z" fill="#00FFEE"/>
<path d="M43 28H41.75V31.75H43V28Z" fill="#00FFEE" fill-opacity="0.502"/>
<path d="M26.75 29.25H25.5V30.5H26.75V29.25Z" fill="#37393C"/>
<path d="M39.25 29.25H26.75V31.75H39.25V29.25Z" fill="#303235"/>
<path d="M40.5 29.25H39.25V30.5H40.5V29.25Z" fill="#37393C"/>
<path d="M26.75 30.5H25.5V31.75H26.75V30.5Z" fill="#303235"/>
<path d="M40.5 30.5H39.25V31.75H40.5V30.5Z" fill="#303235"/>
<path d="M35.5 31.75H24.25V33H35.5V31.75Z" fill="#3585CB"/>
<path d="M41.75 31.75H35.5V33H41.75V31.75Z" fill="#1D5CBB"/>
<path d="M34.25 33H25.5V34.25H34.25V33Z" fill="#E0E0E0"/>
<path d="M35.5 33H34.25V34.25H35.5V33Z" fill="#3585CB"/>
<path d="M40.5 33H35.5V35.5H40.5V33Z" fill="#1632A6"/>
<path d="M41.75 33H40.5V35.5H41.75V33Z" fill="#142392"/>
<path d="M34.25 34.25H24.25V35.5H34.25V34.25Z" fill="#1D5CBB"/>
<path d="M35.5 34.25H34.25V35.5H35.5V34.25Z" fill="#2970C3"/>
<path d="M30.5 35.5H24.25V36.75H30.5V35.5Z" fill="#F4D95A"/>
<path d="M41.75 35.5H30.5V36.75H41.75V35.5Z" fill="#EBBE4C"/>
<path d="M29.25 36.75H24.25V39.25H29.25V36.75Z" fill="#EBBE4C"/>
<path d="M30.5 36.75H29.25V38H30.5V36.75Z" fill="#F4D95A"/>
<path d="M31.75 36.75H30.5V39.25H31.75V36.75Z" fill="#E4A135"/>
<path d="M40.5 36.75H31.75V38H40.5V36.75Z" fill="#E0E0E0"/>
<path d="M30.5 38H29.25V39.25H30.5V38Z" fill="#EFCB53"/>
<path d="M41.75 38H31.75V39.25H41.75V38Z" fill="#E4A135"/>
<path d="M35.5 39.25H24.25V40.5H35.5V39.25Z" fill="#AF634E"/>
<path d="M41.75 39.25H35.5V40.5H41.75V39.25Z" fill="#8E2E27"/>
<path d="M34.25 40.5H25.5V41.75H34.25V40.5Z" fill="#E0E0E0"/>
<path d="M35.5 40.5H34.25V41.75H35.5V40.5Z" fill="#AF634E"/>
<path d="M40.5 40.5H35.5V43H40.5V40.5Z" fill="#6C162E"/>
<path d="M41.75 40.5H40.5V43H41.75V40.5Z" fill="#5A0C36"/>
<path d="M34.25 41.75H24.25V43H34.25V41.75Z" fill="#8E2E27"/>
<path d="M35.5 41.75H34.25V43H35.5V41.75Z" fill="#9E483A"/>
<g filter="url(#filter0_d_30_605)">
<path d="M62.2784 24.5V12.8636H66.4261C67.3314 12.8636 68.0814 13.0284 68.6761 13.358C69.2708 13.6875 69.7159 14.1383 70.0114 14.7102C70.3068 15.2784 70.4545 15.9186 70.4545 16.6307C70.4545 17.3466 70.3049 17.9905 70.0057 18.5625C69.7102 19.1307 69.2633 19.5814 68.6648 19.9148C68.0701 20.2443 67.322 20.4091 66.4205 20.4091H63.5682V18.9205H66.2614C66.8333 18.9205 67.2973 18.822 67.6534 18.625C68.0095 18.4242 68.2708 18.1515 68.4375 17.8068C68.6042 17.4621 68.6875 17.0701 68.6875 16.6307C68.6875 16.1913 68.6042 15.8011 68.4375 15.4602C68.2708 15.1193 68.0076 14.8523 67.6477 14.6591C67.2917 14.4659 66.822 14.3693 66.2386 14.3693H64.0341V24.5H62.2784ZM75.9432 24.6761C75.125 24.6761 74.411 24.4886 73.8011 24.1136C73.1913 23.7386 72.7178 23.214 72.3807 22.5398C72.0436 21.8655 71.875 21.0777 71.875 20.1761C71.875 19.2708 72.0436 18.4792 72.3807 17.8011C72.7178 17.1231 73.1913 16.5966 73.8011 16.2216C74.411 15.8466 75.125 15.6591 75.9432 15.6591C76.7614 15.6591 77.4754 15.8466 78.0852 16.2216C78.6951 16.5966 79.1686 17.1231 79.5057 17.8011C79.8428 18.4792 80.0114 19.2708 80.0114 20.1761C80.0114 21.0777 79.8428 21.8655 79.5057 22.5398C79.1686 23.214 78.6951 23.7386 78.0852 24.1136C77.4754 24.4886 76.7614 24.6761 75.9432 24.6761ZM75.9489 23.25C76.4792 23.25 76.9186 23.1098 77.267 22.8295C77.6155 22.5492 77.8731 22.1761 78.0398 21.7102C78.2102 21.2443 78.2954 20.7311 78.2954 20.1705C78.2954 19.6136 78.2102 19.1023 78.0398 18.6364C77.8731 18.1667 77.6155 17.7898 77.267 17.5057C76.9186 17.2216 76.4792 17.0795 75.9489 17.0795C75.4148 17.0795 74.9716 17.2216 74.6193 17.5057C74.2708 17.7898 74.0114 18.1667 73.8409 18.6364C73.6742 19.1023 73.5909 19.6136 73.5909 20.1705C73.5909 20.7311 73.6742 21.2443 73.8409 21.7102C74.0114 22.1761 74.2708 22.5492 74.6193 22.8295C74.9716 23.1098 75.4148 23.25 75.9489 23.25ZM83.5341 24.5L80.9659 15.7727H82.7216L84.4318 22.1818H84.517L86.2329 15.7727H87.9886L89.6932 22.1534H89.7784L91.4773 15.7727H93.2329L90.6704 24.5H88.9375L87.1648 18.1989H87.0341L85.2614 24.5H83.5341ZM98.3409 24.6761C97.481 24.6761 96.7405 24.4924 96.1193 24.125C95.5019 23.7538 95.0246 23.233 94.6875 22.5625C94.3542 21.8883 94.1875 21.0985 94.1875 20.1932C94.1875 19.2992 94.3542 18.5114 94.6875 17.8295C95.0246 17.1477 95.4943 16.6155 96.0966 16.233C96.7026 15.8504 97.411 15.6591 98.2216 15.6591C98.714 15.6591 99.1913 15.7405 99.6534 15.9034C100.116 16.0663 100.53 16.322 100.898 16.6705C101.265 17.0189 101.555 17.4716 101.767 18.0284C101.979 18.5814 102.085 19.2538 102.085 20.0455V20.6477H95.1477V19.375H100.42C100.42 18.928 100.33 18.5322 100.148 18.1875C99.9659 17.839 99.7102 17.5644 99.3807 17.3636C99.0549 17.1629 98.6723 17.0625 98.2329 17.0625C97.7557 17.0625 97.339 17.1799 96.9829 17.4148C96.6307 17.6458 96.3579 17.9489 96.1648 18.3239C95.9754 18.6951 95.8807 19.0985 95.8807 19.5341V20.5284C95.8807 21.1117 95.9829 21.608 96.1875 22.017C96.3958 22.4261 96.6856 22.7386 97.0568 22.9545C97.428 23.1667 97.8617 23.2727 98.3579 23.2727C98.6799 23.2727 98.9735 23.2273 99.2386 23.1364C99.5038 23.0417 99.7329 22.9015 99.9261 22.7159C100.119 22.5303 100.267 22.3011 100.369 22.0284L101.977 22.3182C101.848 22.7917 101.617 23.2064 101.284 23.5625C100.955 23.9148 100.54 24.1894 100.04 24.3864C99.5435 24.5795 98.9773 24.6761 98.3409 24.6761ZM103.97 24.5V15.7727H105.612V17.1591H105.703C105.862 16.6894 106.143 16.3201 106.544 16.0511C106.949 15.7784 107.408 15.642 107.919 15.642C108.025 15.642 108.15 15.6458 108.294 15.6534C108.442 15.661 108.557 15.6705 108.641 15.6818V17.3068C108.572 17.2879 108.451 17.267 108.277 17.2443C108.103 17.2178 107.928 17.2045 107.754 17.2045C107.353 17.2045 106.995 17.2898 106.68 17.4602C106.37 17.6269 106.124 17.8599 105.942 18.1591C105.76 18.4545 105.669 18.7917 105.669 19.1705V24.5H103.97ZM113.56 24.6761C112.7 24.6761 111.959 24.4924 111.338 24.125C110.721 23.7538 110.243 23.233 109.906 22.5625C109.573 21.8883 109.406 21.0985 109.406 20.1932C109.406 19.2992 109.573 18.5114 109.906 17.8295C110.243 17.1477 110.713 16.6155 111.315 16.233C111.921 15.8504 112.63 15.6591 113.44 15.6591C113.933 15.6591 114.41 15.7405 114.872 15.9034C115.334 16.0663 115.749 16.322 116.116 16.6705C116.484 17.0189 116.774 17.4716 116.986 18.0284C117.198 18.5814 117.304 19.2538 117.304 20.0455V20.6477H110.366V19.375H115.639C115.639 18.928 115.548 18.5322 115.366 18.1875C115.185 17.839 114.929 17.5644 114.599 17.3636C114.274 17.1629 113.891 17.0625 113.452 17.0625C112.974 17.0625 112.558 17.1799 112.202 17.4148C111.849 17.6458 111.577 17.9489 111.384 18.3239C111.194 18.6951 111.099 19.0985 111.099 19.5341V20.5284C111.099 21.1117 111.202 21.608 111.406 22.017C111.615 22.4261 111.904 22.7386 112.276 22.9545C112.647 23.1667 113.08 23.2727 113.577 23.2727C113.899 23.2727 114.192 23.2273 114.457 23.1364C114.723 23.0417 114.952 22.9015 115.145 22.7159C115.338 22.5303 115.486 22.3011 115.588 22.0284L117.196 22.3182C117.067 22.7917 116.836 23.2064 116.503 23.5625C116.173 23.9148 115.759 24.1894 115.259 24.3864C114.762 24.5795 114.196 24.6761 113.56 24.6761ZM122.456 24.6705C121.751 24.6705 121.123 24.4905 120.57 24.1307C120.02 23.767 119.589 23.25 119.274 22.5795C118.964 21.9053 118.808 21.0966 118.808 20.1534C118.808 19.2102 118.965 18.4034 119.28 17.733C119.598 17.0625 120.034 16.5492 120.587 16.1932C121.14 15.8371 121.767 15.6591 122.467 15.6591C123.009 15.6591 123.445 15.75 123.774 15.9318C124.107 16.1099 124.365 16.3182 124.547 16.5568C124.732 16.7955 124.876 17.0057 124.979 17.1875H125.081V12.8636H126.78V24.5H125.121V23.142H124.979C124.876 23.3277 124.729 23.5398 124.535 23.7784C124.346 24.017 124.085 24.2254 123.751 24.4034C123.418 24.5814 122.986 24.6705 122.456 24.6705ZM122.831 23.2216C123.32 23.2216 123.732 23.0928 124.07 22.8352C124.41 22.5739 124.668 22.2121 124.842 21.75C125.02 21.2879 125.109 20.75 125.109 20.1364C125.109 19.5303 125.022 19 124.848 18.5455C124.674 18.0909 124.418 17.7367 124.081 17.483C123.744 17.2292 123.327 17.1023 122.831 17.1023C122.32 17.1023 121.893 17.2349 121.553 17.5C121.212 17.7652 120.954 18.1269 120.78 18.5852C120.609 19.0436 120.524 19.5606 120.524 20.1364C120.524 20.7197 120.611 21.2443 120.785 21.7102C120.96 22.1761 121.217 22.5455 121.558 22.8182C121.903 23.0871 122.327 23.2216 122.831 23.2216ZM133.575 24.5V12.8636H135.274V17.1875H135.376C135.475 17.0057 135.617 16.7955 135.803 16.5568C135.988 16.3182 136.246 16.1099 136.575 15.9318C136.905 15.75 137.34 15.6591 137.882 15.6591C138.587 15.6591 139.215 15.8371 139.768 16.1932C140.321 16.5492 140.755 17.0625 141.07 17.733C141.388 18.4034 141.547 19.2102 141.547 20.1534C141.547 21.0966 141.39 21.9053 141.075 22.5795C140.761 23.25 140.329 23.767 139.78 24.1307C139.231 24.4905 138.604 24.6705 137.899 24.6705C137.369 24.6705 136.935 24.5814 136.598 24.4034C136.265 24.2254 136.003 24.017 135.814 23.7784C135.625 23.5398 135.479 23.3277 135.376 23.142H135.234V24.5H133.575ZM135.24 20.1364C135.24 20.75 135.329 21.2879 135.507 21.75C135.685 22.2121 135.943 22.5739 136.28 22.8352C136.617 23.0928 137.03 23.2216 137.518 23.2216C138.026 23.2216 138.45 23.0871 138.791 22.8182C139.132 22.5455 139.39 22.1761 139.564 21.7102C139.742 21.2443 139.831 20.7197 139.831 20.1364C139.831 19.5606 139.744 19.0436 139.57 18.5852C139.399 18.1269 139.142 17.7652 138.797 17.5C138.456 17.2349 138.03 17.1023 137.518 17.1023C137.026 17.1023 136.609 17.2292 136.268 17.483C135.931 17.7367 135.676 18.0909 135.501 18.5455C135.327 19 135.24 19.5303 135.24 20.1364ZM144.232 27.7727C143.978 27.7727 143.747 27.7519 143.538 27.7102C143.33 27.6723 143.175 27.6307 143.072 27.5852L143.482 26.1932C143.792 26.2765 144.069 26.3125 144.311 26.3011C144.553 26.2898 144.767 26.1989 144.953 26.0284C145.142 25.858 145.309 25.5795 145.453 25.1932L145.663 24.6136L142.47 15.7727H144.288L146.499 22.5455H146.589L148.8 15.7727H150.624L147.027 25.6648C146.86 26.1193 146.648 26.5038 146.391 26.8182C146.133 27.1364 145.826 27.375 145.47 27.5341C145.114 27.6932 144.701 27.7727 144.232 27.7727Z" fill="white"/>
<path d="M60.864 44.5L64.791 31.835H68.429L72.356 44.5H69.16L67.579 38.176C67.409 37.5413 67.239 36.867 67.069 36.153C66.9103 35.439 66.746 34.759 66.576 34.113H66.508C66.3607 34.7703 66.202 35.456 66.032 36.17C65.862 36.8727 65.6977 37.5413 65.539 38.176L63.958 44.5H60.864ZM63.533 41.593V39.247H69.653V41.593H63.533ZM73.4467 44.5V34.827H75.9117L76.1327 36.034H76.1837C76.5803 35.6373 77.028 35.2973 77.5267 35.014C78.0367 34.7307 78.6203 34.589 79.2777 34.589C80.3317 34.589 81.0967 34.9403 81.5727 35.643C82.0487 36.3457 82.2867 37.3033 82.2867 38.516V44.5H79.2607V38.89C79.2607 38.2213 79.17 37.768 78.9887 37.53C78.8073 37.292 78.524 37.173 78.1387 37.173C77.7987 37.173 77.5097 37.2467 77.2717 37.394C77.0337 37.5413 76.7673 37.7567 76.4727 38.04V44.5H73.4467ZM86.8631 44.5L83.6501 34.827H86.6931L87.8661 39.281C87.9908 39.757 88.1098 40.2443 88.2231 40.743C88.3478 41.2417 88.4724 41.746 88.5971 42.256H88.6821C88.8068 41.746 88.9258 41.2417 89.0391 40.743C89.1638 40.2443 89.2828 39.757 89.3961 39.281L90.5861 34.827H93.4931L90.3651 44.5H86.8631ZM94.9623 44.5V34.827H97.9883V44.5H94.9623ZM96.4753 33.484C95.9653 33.484 95.5573 33.3423 95.2513 33.059C94.9453 32.7757 94.7923 32.396 94.7923 31.92C94.7923 31.4553 94.9453 31.0813 95.2513 30.798C95.5573 30.5147 95.9653 30.373 96.4753 30.373C96.9739 30.373 97.3763 30.5147 97.6823 30.798C97.9996 31.0813 98.1583 31.4553 98.1583 31.92C98.1583 32.396 97.9996 32.7757 97.6823 33.059C97.3763 33.3423 96.9739 33.484 96.4753 33.484ZM103.178 44.738C102.487 44.738 101.937 44.5963 101.529 44.313C101.133 44.0297 100.849 43.633 100.679 43.123C100.509 42.613 100.424 42.0237 100.424 41.355V30.917H103.45V41.457C103.45 41.7743 103.507 41.9953 103.62 42.12C103.745 42.2333 103.864 42.29 103.977 42.29C104.034 42.29 104.085 42.29 104.13 42.29C104.176 42.2787 104.238 42.2673 104.317 42.256L104.674 44.483C104.516 44.551 104.312 44.6077 104.062 44.653C103.813 44.7097 103.518 44.738 103.178 44.738ZM106.307 44.5V31.835H109.35V41.95H114.28V44.5H106.307ZM116.229 44.5V34.827H119.255V44.5H116.229ZM117.742 33.484C117.232 33.484 116.824 33.3423 116.518 33.059C116.212 32.7757 116.059 32.396 116.059 31.92C116.059 31.4553 116.212 31.0813 116.518 30.798C116.824 30.5147 117.232 30.373 117.742 30.373C118.241 30.373 118.643 30.5147 118.949 30.798C119.266 31.0813 119.425 31.4553 119.425 31.92C119.425 32.396 119.266 32.7757 118.949 33.059C118.643 33.3423 118.241 33.484 117.742 33.484ZM126.859 44.738C126.439 44.738 126.014 44.6303 125.584 44.415C125.153 44.1997 124.751 43.8823 124.377 43.463H124.292L124.054 44.5H121.691V30.917H124.717V34.181L124.632 35.626C124.994 35.2973 125.391 35.0423 125.822 34.861C126.252 34.6797 126.689 34.589 127.131 34.589C127.901 34.589 128.57 34.793 129.137 35.201C129.703 35.5977 130.14 36.1643 130.446 36.901C130.763 37.6377 130.922 38.499 130.922 39.485C130.922 40.5957 130.723 41.5477 130.327 42.341C129.941 43.123 129.437 43.718 128.814 44.126C128.202 44.534 127.55 44.738 126.859 44.738ZM126.145 42.256C126.451 42.256 126.728 42.1653 126.978 41.984C127.238 41.8027 127.442 41.5137 127.59 41.117C127.737 40.7203 127.811 40.199 127.811 39.553C127.811 38.9863 127.754 38.5217 127.641 38.159C127.527 37.785 127.357 37.5073 127.131 37.326C126.904 37.1447 126.609 37.054 126.247 37.054C125.963 37.054 125.703 37.122 125.465 37.258C125.227 37.3827 124.977 37.5867 124.717 37.87V41.695C124.943 41.9103 125.181 42.0577 125.431 42.137C125.68 42.2163 125.918 42.256 126.145 42.256Z" fill="white"/>
</g>
<defs>
<filter id="filter0_d_30_605" x="55.264" y="3.9" width="102.336" height="48.2" filterUnits="userSpaceOnUse" color-interpolation-filters="sRGB">
<feFlood flood-opacity="0" result="BackgroundImageFix"/>
<feColorMatrix in="SourceAlpha" type="matrix" values="0 0 0 0 0 0 0 0 0 0 0 0 0 0 0 0 0 0 127 0" result="hardAlpha"/>
<feOffset/>
<feGaussianBlur stdDeviation="2.8"/>
<feComposite in2="hardAlpha" operator="out"/>
<feColorMatrix type="matrix" values="0 0 0 0 0 0 0 0 0 0 0 0 0 0 0 0 0 0 0.25 0"/>
<feBlend mode="normal" in2="BackgroundImageFix" result="effect1_dropShadow_30_605"/>
<feBlend mode="normal" in="SourceGraphic" in2="effect1_dropShadow_30_605" result="shape"/>
</filter>
<linearGradient id="paint0_linear_30_605" x1="82.5" y1="0" x2="82.5" y2="56" gradientUnits="userSpaceOnUse">
<stop stop-color="#886389"/>
<stop offset="1" stop-color="#583E59"/>
</linearGradient>
</defs>
</svg>
