<svg width="147" height="56" viewBox="0 0 147 56" fill="none" xmlns="http://www.w3.org/2000/svg">
<rect width="147" height="56" rx="8" fill="url(#paint0_linear_30_605)"/>
<rect x="1.05" y="1.05" width="144.9" height="53.9" rx="6.95" stroke="white" stroke-opacity="0.15" stroke-width="2.1"/>
<path d="M43.5 10.5H23.5V11.75H43.5V10.5Z" fill="#00FFEE" fill-opacity="0.502"/>
<path d="M23.5 11.75H22.25V13H23.5V11.75Z" fill="#00FFEE" fill-opacity="0.502"/>
<path d="M43.5 11.75H23.5V13H43.5V11.75Z" fill="#00FFEE"/>
<path d="M44.75 11.75H43.5V13H44.75V11.75Z" fill="#00FFEE" fill-opacity="0.502"/>
<path d="M22.25 13H21V21.75H22.25V13Z" fill="#00FFEE" fill-opacity="0.502"/>
<path d="M23.5 13H22.25V21.75H23.5V13Z" fill="#00FFEE"/>
<path d="M43.5 13H23.5V14.25H43.5V13Z" fill="#3F4144"/>
<path d="M44.75 13H43.5V21.75H44.75V13Z" fill="#00FFEE"/>
<path d="M46 13H44.75V21.75H46V13Z" fill="#00FFEE" fill-opacity="0.502"/>
<path d="M24.75 14.25H23.5V16.75H24.75V14.25Z" fill="#3F4144"/>
<path d="M26 14.25H24.75V18H26V14.25Z" fill="#37393C"/>
<path d="M27.25 14.25H26V15.5H27.25V14.25Z" fill="#3F4144"/>
<path d="M38.5 14.25H27.25V15.5H38.5V14.25Z" fill="#37393C"/>
<path d="M39.75 14.25H38.5V15.5H39.75V14.25Z" fill="#3F4144"/>
<path d="M42.25 14.25H39.75V16.75H42.25V14.25Z" fill="#37393C"/>
<path d="M43.5 14.25H42.25V15.5H43.5V14.25Z" fill="#3F4144"/>
<path d="M28.5 15.5H26V16.75H28.5V15.5Z" fill="#37393C"/>
<path d="M29.75 15.5H28.5V21.75H29.75V15.5Z" fill="#303235"/>
<path d="M31 15.5H29.75V18H31V15.5Z" fill="#37393C"/>
<path d="M36 15.5H31V21.75H36V15.5Z" fill="#303235"/>
<path d="M37.25 15.5H36V18H37.25V15.5Z" fill="#37393C"/>
<path d="M38.5 15.5H37.25V21.75H38.5V15.5Z" fill="#303235"/>
<path d="M39.75 15.5H38.5V18H39.75V15.5Z" fill="#37393C"/>
<path d="M43.5 15.5H42.25V19.25H43.5V15.5Z" fill="#37393C"/>
<path d="M24.75 16.75H23.5V19.25H24.75V16.75Z" fill="#37393C"/>
<path d="M27.25 16.75H26V20.5H27.25V16.75Z" fill="#37393C"/>
<path d="M28.5 16.75H27.25V21.75H28.5V16.75Z" fill="#303235"/>
<path d="M41 16.75H39.75V21.75H41V16.75Z" fill="#303235"/>
<path d="M42.25 16.75H41V20.5H42.25V16.75Z" fill="#37393C"/>
<path d="M26 18H24.75V21.75H26V18Z" fill="#303235"/>
<path d="M31 18H29.75V21.75H31V18Z" fill="#303235"/>
<path d="M37.25 18H36V21.75H37.25V18Z" fill="#303235"/>
<path d="M39.75 18H38.5V21.75H39.75V18Z" fill="#303235"/>
<path d="M24.75 19.25H23.5V21.75H24.75V19.25Z" fill="#303235"/>
<path d="M43.5 19.25H42.25V21.75H43.5V19.25Z" fill="#303235"/>
<path d="M27.25 20.5H26V21.75H27.25V20.5Z" fill="#303235"/>
<path d="M42.25 20.5H41V21.75H42.25V20.5Z" fill="#303235"/>
<path d="M23.5 21.75H22.25V23H23.5V21.75Z" fill="#00FFEE" fill-opacity="0.502"/>
<path d="M29.75 21.75H23.5V23H29.75V21.75Z" fill="#00FFEE"/>
<path d="M37.25 21.75H29.75V23H37.25V21.75Z" fill="#18191C"/>
<path d="M43.5 21.75H37.25V23H43.5V21.75Z" fill="#00FFEE"/>
<path d="M44.75 21.75H43.5V23H44.75V21.75Z" fill="#00FFEE" fill-opacity="0.502"/>
<path d="M28.5 23H23.5V24.25H28.5V23Z" fill="#00FFEE" fill-opacity="0.502"/>
<path d="M29.75 23H28.5V26.75H29.75V23Z" fill="#00FFEE"/>
<path d="M31 23H29.75V24.25H31V23Z" fill="#18191C"/>
<path d="M36 23H31V24.25H36V23Z" fill="#202225"/>
<path d="M37.25 23H36V24.25H37.25V23Z" fill="#18191C"/>
<path d="M38.5 23H37.25V26.75H38.5V23Z" fill="#00FFEE"/>
<path d="M43.5 23H38.5V24.25H43.5V23Z" fill="#00FFEE" fill-opacity="0.502"/>
<path d="M28.5 24.25H27.25V25.5H28.5V24.25Z" fill="#00FFEE" fill-opacity="0.502"/>
<path d="M31 24.25H29.75V25.5H31V24.25Z" fill="#202225"/>
<path d="M36 24.25H31V26.75H36V24.25Z" fill="#282A2E"/>
<path d="M37.25 24.25H36V25.5H37.25V24.25Z" fill="#202225"/>
<path d="M39.75 24.25H38.5V25.5H39.75V24.25Z" fill="#00FFEE" fill-opacity="0.502"/>
<path d="M27.25 25.5H26V26.75H27.25V25.5Z" fill="#00FFEE" fill-opacity="0.502"/>
<path d="M28.5 25.5H27.25V26.75H28.5V25.5Z" fill="#00FFEE"/>
<path d="M31 25.5H29.75V26.75H31V25.5Z" fill="#282A2E"/>
<path d="M37.25 25.5H36V26.75H37.25V25.5Z" fill="#282A2E"/>
<path d="M39.75 25.5H38.5V26.75H39.75V25.5Z" fill="#00FFEE"/>
<path d="M41 25.5H39.75V26.75H41V25.5Z" fill="#00FFEE" fill-opacity="0.502"/>
<path d="M26 26.75H24.75V28H26V26.75Z" fill="#00FFEE" fill-opacity="0.502"/>
<path d="M27.25 26.75H26V28H27.25V26.75Z" fill="#00FFEE"/>
<path d="M29.75 26.75H27.25V28H29.75V26.75Z" fill="#303235"/>
<path d="M37.25 26.75H29.75V28H37.25V26.75Z" fill="#37393C"/>
<path d="M39.75 26.75H37.25V28H39.75V26.75Z" fill="#303235"/>
<path d="M41 26.75H39.75V28H41V26.75Z" fill="#00FFEE"/>
<path d="M42.25 26.75H41V28H42.25V26.75Z" fill="#00FFEE" fill-opacity="0.502"/>
<path d="M24.75 28H23.5V31.75H24.75V28Z" fill="#00FFEE" fill-opacity="0.502"/>
<path d="M26 28H24.75V31.75H26V28Z" fill="#00FFEE"/>
<path d="M28.5 28H26V29.25H28.5V28Z" fill="#37393C"/>
<path d="M38.5 28H28.5V29.25H38.5V28Z" fill="#3F4144"/>
<path d="M41 28H38.5V29.25H41V28Z" fill="#37393C"/>
<path d="M42.25 28H41V31.75H42.25V28Z" fill="#00FFEE"/>
<path d="M43.5 28H42.25V31.75H43.5V28Z" fill="#00FFEE" fill-opacity="0.502"/>
<path d="M27.25 29.25H26V30.5H27.25V29.25Z" fill="#37393C"/>
<path d="M39.75 29.25H27.25V31.75H39.75V29.25Z" fill="#303235"/>
<path d="M41 29.25H39.75V30.5H41V29.25Z" fill="#37393C"/>
<path d="M27.25 30.5H26V31.75H27.25V30.5Z" fill="#303235"/>
<path d="M41 30.5H39.75V31.75H41V30.5Z" fill="#303235"/>
<path d="M36 31.75H24.75V33H36V31.75Z" fill="#3585CB"/>
<path d="M42.25 31.75H36V33H42.25V31.75Z" fill="#1D5CBB"/>
<path d="M34.75 33H26V34.25H34.75V33Z" fill="#E0E0E0"/>
<path d="M36 33H34.75V34.25H36V33Z" fill="#3585CB"/>
<path d="M41 33H36V35.5H41V33Z" fill="#1632A6"/>
<path d="M42.25 33H41V35.5H42.25V33Z" fill="#142392"/>
<path d="M34.75 34.25H24.75V35.5H34.75V34.25Z" fill="#1D5CBB"/>
<path d="M36 34.25H34.75V35.5H36V34.25Z" fill="#2970C3"/>
<path d="M31 35.5H24.75V36.75H31V35.5Z" fill="#F4D95A"/>
<path d="M42.25 35.5H31V36.75H42.25V35.5Z" fill="#EBBE4C"/>
<path d="M29.75 36.75H24.75V39.25H29.75V36.75Z" fill="#EBBE4C"/>
<path d="M31 36.75H29.75V38H31V36.75Z" fill="#F4D95A"/>
<path d="M32.25 36.75H31V39.25H32.25V36.75Z" fill="#E4A135"/>
<path d="M41 36.75H32.25V38H41V36.75Z" fill="#E0E0E0"/>
<path d="M31 38H29.75V39.25H31V38Z" fill="#EFCB53"/>
<path d="M42.25 38H32.25V39.25H42.25V38Z" fill="#E4A135"/>
<path d="M36 39.25H24.75V40.5H36V39.25Z" fill="#AF634E"/>
<path d="M42.25 39.25H36V40.5H42.25V39.25Z" fill="#8E2E27"/>
<path d="M34.75 40.5H26V41.75H34.75V40.5Z" fill="#E0E0E0"/>
<path d="M36 40.5H34.75V41.75H36V40.5Z" fill="#AF634E"/>
<path d="M41 40.5H36V43H41V40.5Z" fill="#6C162E"/>
<path d="M42.25 40.5H41V43H42.25V40.5Z" fill="#5A0C36"/>
<path d="M34.75 41.75H24.75V43H34.75V41.75Z" fill="#8E2E27"/>
<path d="M36 41.75H34.75V43H36V41.75Z" fill="#9E483A"/>
<g filter="url(#filter0_d_30_605)">
<path d="M62.7784 24.5V12.8636H66.9261C67.8314 12.8636 68.5814 13.0284 69.1761 13.358C69.7708 13.6875 70.2159 14.1383 70.5114 14.7102C70.8068 15.2784 70.9545 15.9186 70.9545 16.6307C70.9545 17.3466 70.8049 17.9905 70.5057 18.5625C70.2102 19.1307 69.7633 19.5814 69.1648 19.9148C68.5701 20.2443 67.822 20.4091 66.9205 20.4091H64.0682V18.9205H66.7614C67.3333 18.9205 67.7973 18.822 68.1534 18.625C68.5095 18.4242 68.7708 18.1515 68.9375 17.8068C69.1042 17.4621 69.1875 17.0701 69.1875 16.6307C69.1875 16.1913 69.1042 15.8011 68.9375 15.4602C68.7708 15.1193 68.5076 14.8523 68.1477 14.6591C67.7917 14.4659 67.322 14.3693 66.7386 14.3693H64.5341V24.5H62.7784ZM76.4432 24.6761C75.625 24.6761 74.911 24.4886 74.3011 24.1136C73.6913 23.7386 73.2178 23.214 72.8807 22.5398C72.5436 21.8655 72.375 21.0777 72.375 20.1761C72.375 19.2708 72.5436 18.4792 72.8807 17.8011C73.2178 17.1231 73.6913 16.5966 74.3011 16.2216C74.911 15.8466 75.625 15.6591 76.4432 15.6591C77.2614 15.6591 77.9754 15.8466 78.5852 16.2216C79.1951 16.5966 79.6686 17.1231 80.0057 17.8011C80.3428 18.4792 80.5114 19.2708 80.5114 20.1761C80.5114 21.0777 80.3428 21.8655 80.0057 22.5398C79.6686 23.214 79.1951 23.7386 78.5852 24.1136C77.9754 24.4886 77.2614 24.6761 76.4432 24.6761ZM76.4489 23.25C76.9792 23.25 77.4186 23.1098 77.767 22.8295C78.1155 22.5492 78.3731 22.1761 78.5398 21.7102C78.7102 21.2443 78.7954 20.7311 78.7954 20.1705C78.7954 19.6136 78.7102 19.1023 78.5398 18.6364C78.3731 18.1667 78.1155 17.7898 77.767 17.5057C77.4186 17.2216 76.9792 17.0795 76.4489 17.0795C75.9148 17.0795 75.4716 17.2216 75.1193 17.5057C74.7708 17.7898 74.5114 18.1667 74.3409 18.6364C74.1742 19.1023 74.0909 19.6136 74.0909 20.1705C74.0909 20.7311 74.1742 21.2443 74.3409 21.7102C74.5114 22.1761 74.7708 22.5492 75.1193 22.8295C75.4716 23.1098 75.9148 23.25 76.4489 23.25ZM84.0341 24.5L81.4659 15.7727H83.2216L84.9318 22.1818H85.017L86.7329 15.7727H88.4886L90.1932 22.1534H90.2784L91.9773 15.7727H93.7329L91.1704 24.5H89.4375L87.6648 18.1989H87.5341L85.7614 24.5H84.0341ZM98.8409 24.6761C97.981 24.6761 97.2405 24.4924 96.6193 24.125C96.0019 23.7538 95.5246 23.233 95.1875 22.5625C94.8542 21.8883 94.6875 21.0985 94.6875 20.1932C94.6875 19.2992 94.8542 18.5114 95.1875 17.8295C95.5246 17.1477 95.9943 16.6155 96.5966 16.233C97.2026 15.8504 97.911 15.6591 98.7216 15.6591C99.214 15.6591 99.6913 15.7405 100.153 15.9034C100.616 16.0663 101.03 16.322 101.398 16.6705C101.765 17.0189 102.055 17.4716 102.267 18.0284C102.479 18.5814 102.585 19.2538 102.585 20.0455V20.6477H95.6477V19.375H100.92C100.92 18.928 100.83 18.5322 100.648 18.1875C100.466 17.839 100.21 17.5644 99.8807 17.3636C99.5549 17.1629 99.1723 17.0625 98.7329 17.0625C98.2557 17.0625 97.839 17.1799 97.4829 17.4148C97.1307 17.6458 96.8579 17.9489 96.6648 18.3239C96.4754 18.6951 96.3807 19.0985 96.3807 19.5341V20.5284C96.3807 21.1117 96.4829 21.608 96.6875 22.017C96.8958 22.4261 97.1856 22.7386 97.5568 22.9545C97.928 23.1667 98.3617 23.2727 98.8579 23.2727C99.1799 23.2727 99.4735 23.2273 99.7386 23.1364C100.004 23.0417 100.233 22.9015 100.426 22.7159C100.619 22.5303 100.767 22.3011 100.869 22.0284L102.477 22.3182C102.348 22.7917 102.117 23.2064 101.784 23.5625C101.455 23.9148 101.04 24.1894 100.54 24.3864C100.044 24.5795 99.4773 24.6761 98.8409 24.6761ZM104.47 24.5V15.7727H106.112V17.1591H106.203C106.362 16.6894 106.643 16.3201 107.044 16.0511C107.449 15.7784 107.908 15.642 108.419 15.642C108.525 15.642 108.65 15.6458 108.794 15.6534C108.942 15.661 109.057 15.6705 109.141 15.6818V17.3068C109.072 17.2879 108.951 17.267 108.777 17.2443C108.603 17.2178 108.428 17.2045 108.254 17.2045C107.853 17.2045 107.495 17.2898 107.18 17.4602C106.87 17.6269 106.624 17.8599 106.442 18.1591C106.26 18.4545 106.169 18.7917 106.169 19.1705V24.5H104.47ZM114.982 24.5V12.8636H116.68V17.1875H116.783C116.881 17.0057 117.023 16.7955 117.209 16.5568C117.394 16.3182 117.652 16.1099 117.982 15.9318C118.311 15.75 118.747 15.6591 119.288 15.6591C119.993 15.6591 120.622 15.8371 121.175 16.1932C121.728 16.5492 122.161 17.0625 122.476 17.733C122.794 18.4034 122.953 19.2102 122.953 20.1534C122.953 21.0966 122.796 21.9053 122.482 22.5795C122.167 23.25 121.735 23.767 121.186 24.1307C120.637 24.4905 120.01 24.6705 119.305 24.6705C118.775 24.6705 118.341 24.5814 118.004 24.4034C117.671 24.2254 117.41 24.017 117.22 23.7784C117.031 23.5398 116.885 23.3277 116.783 23.142H116.641V24.5H114.982ZM116.646 20.1364C116.646 20.75 116.735 21.2879 116.913 21.75C117.091 22.2121 117.349 22.5739 117.686 22.8352C118.023 23.0928 118.436 23.2216 118.925 23.2216C119.432 23.2216 119.857 23.0871 120.197 22.8182C120.538 22.5455 120.796 22.1761 120.97 21.7102C121.148 21.2443 121.237 20.7197 121.237 20.1364C121.237 19.5606 121.15 19.0436 120.976 18.5852C120.805 18.1269 120.548 17.7652 120.203 17.5C119.862 17.2349 119.436 17.1023 118.925 17.1023C118.432 17.1023 118.016 17.2292 117.675 17.483C117.338 17.7367 117.082 18.0909 116.908 18.5455C116.733 19 116.646 19.5303 116.646 20.1364ZM125.638 27.7727C125.384 27.7727 125.153 27.7519 124.945 27.7102C124.736 27.6723 124.581 27.6307 124.479 27.5852L124.888 26.1932C125.198 26.2765 125.475 26.3125 125.717 26.3011C125.96 26.2898 126.174 26.1989 126.359 26.0284C126.549 25.858 126.715 25.5795 126.859 25.1932L127.07 24.6136L123.876 15.7727H125.695L127.905 22.5455H127.996L130.206 15.7727H132.03L128.433 25.6648C128.267 26.1193 128.054 26.5038 127.797 26.8182C127.539 27.1364 127.232 27.375 126.876 27.5341C126.52 27.6932 126.107 27.7727 125.638 27.7727Z" fill="white"/>
<path d="M61.364 44.5L65.291 31.835H68.929L72.856 44.5H69.66L68.079 38.176C67.909 37.5413 67.739 36.867 67.569 36.153C67.4103 35.439 67.246 34.759 67.076 34.113H67.008C66.8607 34.7703 66.702 35.456 66.532 36.17C66.362 36.8727 66.1977 37.5413 66.039 38.176L64.458 44.5H61.364ZM64.033 41.593V39.247H70.153V41.593H64.033ZM73.9467 44.5V34.827H76.4117L76.6327 36.034H76.6837C77.0803 35.6373 77.528 35.2973 78.0267 35.014C78.5367 34.7307 79.1203 34.589 79.7777 34.589C80.8317 34.589 81.5967 34.9403 82.0727 35.643C82.5487 36.3457 82.7867 37.3033 82.7867 38.516V44.5H79.7607V38.89C79.7607 38.2213 79.67 37.768 79.4887 37.53C79.3073 37.292 79.024 37.173 78.6387 37.173C78.2987 37.173 78.0097 37.2467 77.7717 37.394C77.5337 37.5413 77.2673 37.7567 76.9727 38.04V44.5H73.9467ZM87.3631 44.5L84.1501 34.827H87.1931L88.3661 39.281C88.4908 39.757 88.6098 40.2443 88.7231 40.743C88.8478 41.2417 88.9724 41.746 89.0971 42.256H89.1821C89.3068 41.746 89.4258 41.2417 89.5391 40.743C89.6638 40.2443 89.7828 39.757 89.8961 39.281L91.0861 34.827H93.9931L90.8651 44.5H87.3631ZM95.4623 44.5V34.827H98.4883V44.5H95.4623ZM96.9753 33.484C96.4653 33.484 96.0573 33.3423 95.7513 33.059C95.4453 32.7757 95.2923 32.396 95.2923 31.92C95.2923 31.4553 95.4453 31.0813 95.7513 30.798C96.0573 30.5147 96.4653 30.373 96.9753 30.373C97.4739 30.373 97.8763 30.5147 98.1823 30.798C98.4996 31.0813 98.6583 31.4553 98.6583 31.92C98.6583 32.396 98.4996 32.7757 98.1823 33.059C97.8763 33.3423 97.4739 33.484 96.9753 33.484ZM103.678 44.738C102.987 44.738 102.437 44.5963 102.029 44.313C101.633 44.0297 101.349 43.633 101.179 43.123C101.009 42.613 100.924 42.0237 100.924 41.355V30.917H103.95V41.457C103.95 41.7743 104.007 41.9953 104.12 42.12C104.245 42.2333 104.364 42.29 104.477 42.29C104.534 42.29 104.585 42.29 104.63 42.29C104.676 42.2787 104.738 42.2673 104.817 42.256L105.174 44.483C105.016 44.551 104.812 44.6077 104.562 44.653C104.313 44.7097 104.018 44.738 103.678 44.738ZM106.807 44.5V31.835H109.85V41.95H114.78V44.5H106.807ZM116.967 44.5V31.835H120.01V44.5H116.967ZM127.84 44.738C127.421 44.738 126.996 44.6303 126.565 44.415C126.135 44.1997 125.732 43.8823 125.358 43.463H125.273L125.035 44.5H122.672V30.917H125.698V34.181L125.613 35.626C125.976 35.2973 126.373 35.0423 126.803 34.861C127.234 34.6797 127.67 34.589 128.112 34.589C128.883 34.589 129.552 34.793 130.118 35.201C130.685 35.5977 131.121 36.1643 131.427 36.901C131.745 37.6377 131.903 38.499 131.903 39.485C131.903 40.5957 131.705 41.5477 131.308 42.341C130.923 43.123 130.419 43.718 129.795 44.126C129.183 44.534 128.532 44.738 127.84 44.738ZM127.126 42.256C127.432 42.256 127.71 42.1653 127.959 41.984C128.22 41.8027 128.424 41.5137 128.571 41.117C128.719 40.7203 128.792 40.199 128.792 39.553C128.792 38.9863 128.736 38.5217 128.622 38.159C128.509 37.785 128.339 37.5073 128.112 37.326C127.886 37.1447 127.591 37.054 127.228 37.054C126.945 37.054 126.684 37.122 126.446 37.258C126.208 37.3827 125.959 37.5867 125.698 37.87V41.695C125.925 41.9103 126.163 42.0577 126.412 42.137C126.662 42.2163 126.9 42.256 127.126 42.256Z" fill="white"/>
</g>
<defs>
<filter id="filter0_d_30_605" x="55.764" y="3.9" width="83.336" height="48.2" filterUnits="userSpaceOnUse" color-interpolation-filters="sRGB">
<feFlood flood-opacity="0" result="BackgroundImageFix"/>
<feColorMatrix in="SourceAlpha" type="matrix" values="0 0 0 0 0 0 0 0 0 0 0 0 0 0 0 0 0 0 127 0" result="hardAlpha"/>
<feOffset/>
<feGaussianBlur stdDeviation="2.8"/>
<feComposite in2="hardAlpha" operator="out"/>
<feColorMatrix type="matrix" values="0 0 0 0 0 0 0 0 0 0 0 0 0 0 0 0 0 0 0.25 0"/>
<feBlend mode="normal" in2="BackgroundImageFix" result="effect1_dropShadow_30_605"/>
<feBlend mode="normal" in="SourceGraphic" in2="effect1_dropShadow_30_605" result="shape"/>
</filter>
<linearGradient id="paint0_linear_30_605" x1="73.5" y1="0" x2="73.5" y2="56" gradientUnits="userSpaceOnUse">
<stop stop-color="#886389"/>
<stop offset="1" stop-color="#583E59"/>
</linearGradient>
</defs>
</svg>
