<svg width="165" height="56" viewBox="0 0 165 56" fill="none" xmlns="http://www.w3.org/2000/svg">
<rect width="165" height="56" rx="8" fill="url(#paint0_linear_30_4654)"/>
<rect x="1.05" y="1.05" width="162.9" height="53.9" rx="6.95" stroke="white" stroke-opacity="0.15" stroke-width="2.1"/>
<path d="M33.25 10.5H31.375V11.125H33.25V10.5Z" fill="#00FFEE" fill-opacity="0.502"/>
<path d="M31.375 11.125H29.5V11.75H31.375V11.125Z" fill="#00FFEE" fill-opacity="0.502"/>
<path d="M33.25 11.125H31.375V11.75H33.25V11.125Z" fill="#00FFEE" fill-opacity="0.749"/>
<path d="M34.5 11.125H33.25V11.75H34.5V11.125Z" fill="#00FFEE" fill-opacity="0.502"/>
<path d="M29.5 11.75H27.625V12.375H29.5V11.75Z" fill="#00FFEE" fill-opacity="0.502"/>
<path d="M31.375 11.75H29.5V12.375H31.375V11.75Z" fill="#00FFEE" fill-opacity="0.749"/>
<path d="M33.25 11.75H31.375V12.375H33.25V11.75Z" fill="#00FFEE"/>
<path d="M34.5 11.75H33.25V12.375H34.5V11.75Z" fill="#00FFEE" fill-opacity="0.749"/>
<path d="M35.75 11.75H34.5V12.375H35.75V11.75Z" fill="#00FFEE" fill-opacity="0.502"/>
<path d="M48.25 11.75H47V13H48.25V11.75Z" fill="#00FFEE" fill-opacity="0.251"/>
<path d="M27.625 12.375H25.75V13H27.625V12.375Z" fill="#00FFEE" fill-opacity="0.502"/>
<path d="M29.5 12.375H27.625V13H29.5V12.375Z" fill="#00FFEE" fill-opacity="0.749"/>
<path d="M31.375 12.375H29.5V13H31.375V12.375Z" fill="#00FFEE"/>
<path d="M32 12.375H31.375V19.25H32V12.375Z" fill="#595B5C"/>
<path d="M33.25 12.375H32V19.875H33.25V12.375Z" fill="#767776"/>
<path d="M34.5 12.375H33.25V13H34.5V12.375Z" fill="#00FFEE"/>
<path d="M35.75 12.375H34.5V13H35.75V12.375Z" fill="#00FFEE" fill-opacity="0.749"/>
<path d="M37 12.375H35.75V13H37V12.375Z" fill="#00FFEE" fill-opacity="0.502"/>
<path d="M25.75 13H24.5V13.625H25.75V13Z" fill="#00FFEE" fill-opacity="0.502"/>
<path d="M27.625 13H25.75V13.625H27.625V13Z" fill="#00FFEE" fill-opacity="0.749"/>
<path d="M29.5 13H27.625V13.625H29.5V13Z" fill="#00FFEE"/>
<path d="M30.75 13H29.5V18H30.75V13Z" fill="#676968"/>
<path d="M31.375 13H30.75V18.625H31.375V13Z" fill="#4C4E50"/>
<path d="M33.875 13H33.25V20.5H33.875V13Z" fill="#676968"/>
<path d="M34.5 13H33.875V21.125H34.5V13Z" fill="#4C4E50"/>
<path d="M35.75 13H34.5V13.625H35.75V13Z" fill="#00FFEE"/>
<path d="M37 13H35.75V13.625H37V13Z" fill="#00FFEE" fill-opacity="0.749"/>
<path d="M38.25 13H37V13.625H38.25V13Z" fill="#00FFEE" fill-opacity="0.502"/>
<path d="M25.125 13.625H24.5V14.25H25.125V13.625Z" fill="#00FFEE" fill-opacity="0.502"/>
<path d="M25.75 13.625H25.125V14.25H25.75V13.625Z" fill="#00FFEE" fill-opacity="0.749"/>
<path d="M27.625 13.625H25.75V14.25H27.625V13.625Z" fill="#00FFEE"/>
<path d="M28.875 13.625H27.625V16.125H28.875V13.625Z" fill="#4C4E50"/>
<path d="M29.5 13.625H28.875V17.375H29.5V13.625Z" fill="#595B5C"/>
<path d="M35.125 13.625H34.5V21.75H35.125V13.625Z" fill="#4C4E50"/>
<path d="M35.75 13.625H35.125V22.375H35.75V13.625Z" fill="#595B5C"/>
<path d="M37 13.625H35.75V14.25H37V13.625Z" fill="#00FFEE"/>
<path d="M38.25 13.625H37V14.25H38.25V13.625Z" fill="#00FFEE" fill-opacity="0.749"/>
<path d="M39.5 13.625H38.25V14.25H39.5V13.625Z" fill="#00FFEE" fill-opacity="0.502"/>
<path d="M24.5 14.25H23.875V19.25H24.5V14.25Z" fill="#00FFEE" fill-opacity="0.502"/>
<path d="M25.125 14.25H24.5V19.25H25.125V14.25Z" fill="#00FFEE" fill-opacity="0.749"/>
<path d="M25.75 14.25H25.125V19.25H25.75V14.25Z" fill="#00FFEE"/>
<path d="M27.625 14.25H25.75V14.875H27.625V14.25Z" fill="#3F4144"/>
<path d="M37 14.25H35.75V23H37V14.25Z" fill="#595B5C"/>
<path d="M38.25 14.25H37V14.875H38.25V14.25Z" fill="#00FFEE"/>
<path d="M39.5 14.25H38.25V14.875H39.5V14.25Z" fill="#00FFEE" fill-opacity="0.749"/>
<path d="M40.75 14.25H39.5V14.875H40.75V14.25Z" fill="#00FFEE" fill-opacity="0.502"/>
<path d="M48.25 14.25H47V15.5H48.25V14.25Z" fill="#00FFEE" fill-opacity="0.251"/>
<path d="M26.375 14.875H25.75V15.5H26.375V14.875Z" fill="#848484"/>
<path d="M27.625 14.875H26.375V15.5H27.625V14.875Z" fill="#3F4144"/>
<path d="M38.25 14.875H37V23.625H38.25V14.875Z" fill="#3F4144"/>
<path d="M39.5 14.875H38.25V15.5H39.5V14.875Z" fill="#00FFEE"/>
<path d="M40.75 14.875H39.5V15.5H40.75V14.875Z" fill="#00FFEE" fill-opacity="0.749"/>
<path d="M42 14.875H40.75V15.5H42V14.875Z" fill="#00FFEE" fill-opacity="0.502"/>
<path d="M26.375 15.5H25.75V16.125H26.375V15.5Z" fill="#767776"/>
<path d="M27.625 15.5H26.375V16.125H27.625V15.5Z" fill="#848484"/>
<path d="M39.5 15.5H38.25V23H39.5V15.5Z" fill="#3F4144"/>
<path d="M40.75 15.5H39.5V16.125H40.75V15.5Z" fill="#00FFEE"/>
<path d="M42 15.5H40.75V16.125H42V15.5Z" fill="#00FFEE" fill-opacity="0.749"/>
<path d="M43.25 15.5H42V16.125H43.25V15.5Z" fill="#00FFEE" fill-opacity="0.502"/>
<path d="M26.375 16.125H25.75V19.25H26.375V16.125Z" fill="#676968"/>
<path d="M27.625 16.125H26.375V19.875H27.625V16.125Z" fill="#767776"/>
<path d="M28.25 16.125H27.625V16.75H28.25V16.125Z" fill="#848484"/>
<path d="M28.875 16.125H28.25V16.75H28.875V16.125Z" fill="#4C4E50"/>
<path d="M40.125 16.125H39.5V22.375H40.125V16.125Z" fill="#3F4144"/>
<path d="M40.75 16.125H40.125V21.75H40.75V16.125Z" fill="#4C4E50"/>
<path d="M42 16.125H40.75V16.75H42V16.125Z" fill="#00FFEE"/>
<path d="M43.25 16.125H42V16.75H43.25V16.125Z" fill="#00FFEE" fill-opacity="0.749"/>
<path d="M44.5 16.125H43.25V16.75H44.5V16.125Z" fill="#00FFEE" fill-opacity="0.502"/>
<path d="M28.25 16.75H27.625V17.375H28.25V16.75Z" fill="#767776"/>
<path d="M28.875 16.75H28.25V17.375H28.875V16.75Z" fill="#848484"/>
<path d="M42 16.75H40.75V21.125H42V16.75Z" fill="#676968"/>
<path d="M43.25 16.75H42V17.375H43.25V16.75Z" fill="#00FFEE"/>
<path d="M44.5 16.75H43.25V17.375H44.5V16.75Z" fill="#00FFEE" fill-opacity="0.749"/>
<path d="M45.75 16.75H44.5V17.375H45.75V16.75Z" fill="#00FFEE" fill-opacity="0.502"/>
<path d="M48.25 16.75H47V19.25H48.25V16.75Z" fill="#00FFEE" fill-opacity="0.502"/>
<path d="M28.25 17.375H27.625V21.125H28.25V17.375Z" fill="#676968"/>
<path d="M28.875 17.375H28.25V18H28.875V17.375Z" fill="#767776"/>
<path d="M29.5 17.375H28.875V18H29.5V17.375Z" fill="#848484"/>
<path d="M43.25 17.375H42V19.25H43.25V17.375Z" fill="#595B5C"/>
<path d="M44.5 17.375H43.25V18H44.5V17.375Z" fill="#00FFEE"/>
<path d="M45.125 17.375H44.5V18H45.125V17.375Z" fill="#00FFEE" fill-opacity="0.749"/>
<path d="M45.75 17.375H45.125V18H45.75V17.375Z" fill="#00FFEE" fill-opacity="0.502"/>
<path d="M28.875 18H28.25V21.75H28.875V18Z" fill="#595B5C"/>
<path d="M29.5 18H28.875V18.625H29.5V18Z" fill="#767776"/>
<path d="M30.75 18H29.5V18.625H30.75V18Z" fill="#848484"/>
<path d="M43.875 18H43.25V18.625H43.875V18Z" fill="#595B5C"/>
<path d="M44.5 18H43.875V18.625H44.5V18Z" fill="#676968"/>
<path d="M45.125 18H44.5V23.625H45.125V18Z" fill="#00FFEE"/>
<path d="M45.75 18H45.125V23.625H45.75V18Z" fill="#00FFEE" fill-opacity="0.749"/>
<path d="M46.375 18H45.75V23.625H46.375V18Z" fill="#00FFEE" fill-opacity="0.502"/>
<path d="M23.25 18.625H22V19.875H23.25V18.625Z" fill="#00FFEE" fill-opacity="0.251"/>
<path d="M29.5 18.625H28.875V22.375H29.5V18.625Z" fill="#676968"/>
<path d="M30.75 18.625H29.5V19.25H30.75V18.625Z" fill="#767776"/>
<path d="M31.375 18.625H30.75V19.25H31.375V18.625Z" fill="#848484"/>
<path d="M43.875 18.625H43.25V19.25H43.875V18.625Z" fill="#676968"/>
<path d="M44.5 18.625H43.875V23H44.5V18.625Z" fill="#303235"/>
<path d="M25.125 19.25H24.5V19.875H25.125V19.25Z" fill="#00FFEE" fill-opacity="0.502"/>
<path d="M25.75 19.25H25.125V19.875H25.75V19.25Z" fill="#00FFEE" fill-opacity="0.749"/>
<path d="M26.375 19.25H25.75V19.875H26.375V19.25Z" fill="#00FFEE"/>
<path d="M30.125 19.25H29.5V23H30.125V19.25Z" fill="#767776"/>
<path d="M30.75 19.25H30.125V23.625H30.75V19.25Z" fill="#676968"/>
<path d="M31.375 19.25H30.75V19.875H31.375V19.25Z" fill="#767776"/>
<path d="M32 19.25H31.375V19.875H32V19.25Z" fill="#848484"/>
<path d="M42.625 19.25H42V19.875H42.625V19.25Z" fill="#595B5C"/>
<path d="M43.25 19.25H42.625V19.875H43.25V19.25Z" fill="#676968"/>
<path d="M43.875 19.25H43.25V20.5H43.875V19.25Z" fill="#37393C"/>
<path d="M48.25 19.25H47V21.75H48.25V19.25Z" fill="#00FFEE" fill-opacity="0.749"/>
<path d="M25.75 19.875H25.125V20.5H25.75V19.875Z" fill="#00FFEE" fill-opacity="0.502"/>
<path d="M26.375 19.875H25.75V20.5H26.375V19.875Z" fill="#00FFEE" fill-opacity="0.749"/>
<path d="M27 19.875H26.375V20.5H27V19.875Z" fill="#00FFEE"/>
<path d="M27.625 19.875H27V20.5H27.625V19.875Z" fill="#767776"/>
<path d="M31.375 19.875H30.75V24.25H31.375V19.875Z" fill="#676968"/>
<path d="M32 19.875H31.375V20.5H32V19.875Z" fill="#767776"/>
<path d="M32.625 19.875H32V20.5H32.625V19.875Z" fill="#848484"/>
<path d="M33.25 19.875H32.625V20.5H33.25V19.875Z" fill="#767776"/>
<path d="M42.625 19.875H42V20.5H42.625V19.875Z" fill="#676968"/>
<path d="M43.25 19.875H42.625V20.5H43.25V19.875Z" fill="#37393C"/>
<path d="M26.375 20.5H25.75V21.125H26.375V20.5Z" fill="#00FFEE" fill-opacity="0.502"/>
<path d="M27 20.5H26.375V21.125H27V20.5Z" fill="#00FFEE" fill-opacity="0.749"/>
<path d="M27.625 20.5H27V21.125H27.625V20.5Z" fill="#00FFEE"/>
<path d="M32 20.5H31.375V24.875H32V20.5Z" fill="#676968"/>
<path d="M32.625 20.5H32V21.125H32.625V20.5Z" fill="#767776"/>
<path d="M33.875 20.5H32.625V21.125H33.875V20.5Z" fill="#848484"/>
<path d="M43.25 20.5H42V21.125H43.25V20.5Z" fill="#303235"/>
<path d="M43.875 20.5H43.25V24.25H43.875V20.5Z" fill="#3F4144"/>
<path d="M23.25 21.125H22V22.375H23.25V21.125Z" fill="#00FFEE" fill-opacity="0.251"/>
<path d="M27 21.125H26.375V21.75H27V21.125Z" fill="#00FFEE" fill-opacity="0.502"/>
<path d="M27.625 21.125H27V21.75H27.625V21.125Z" fill="#00FFEE" fill-opacity="0.749"/>
<path d="M28.25 21.125H27.625V21.75H28.25V21.125Z" fill="#00FFEE"/>
<path d="M32.625 21.125H32V25.5H32.625V21.125Z" fill="#676968"/>
<path d="M33.875 21.125H32.625V21.75H33.875V21.125Z" fill="#767776"/>
<path d="M34.5 21.125H33.875V21.75H34.5V21.125Z" fill="#848484"/>
<path d="M41.375 21.125H40.75V21.75H41.375V21.125Z" fill="#676968"/>
<path d="M42.625 21.125H41.375V21.75H42.625V21.125Z" fill="#303235"/>
<path d="M43.25 21.125H42.625V24.25H43.25V21.125Z" fill="#37393C"/>
<path d="M27.625 21.75H27V22.375H27.625V21.75Z" fill="#00FFEE" fill-opacity="0.502"/>
<path d="M28.25 21.75H27.625V22.375H28.25V21.75Z" fill="#00FFEE" fill-opacity="0.749"/>
<path d="M28.875 21.75H28.25V22.375H28.875V21.75Z" fill="#00FFEE"/>
<path d="M33.25 21.75H32.625V26.125H33.25V21.75Z" fill="#767776"/>
<path d="M33.875 21.75H33.25V26.75H33.875V21.75Z" fill="#676968"/>
<path d="M34.5 21.75H33.875V27.375H34.5V21.75Z" fill="#767776"/>
<path d="M35.125 21.75H34.5V22.375H35.125V21.75Z" fill="#848484"/>
<path d="M40.75 21.75H40.125V22.375H40.75V21.75Z" fill="#676968"/>
<path d="M41.375 21.75H40.75V26.75H41.375V21.75Z" fill="#303235"/>
<path d="M42.625 21.75H41.375V23H42.625V21.75Z" fill="#37393C"/>
<path d="M48.25 21.75H47V23H48.25V21.75Z" fill="#00FFEE"/>
<path d="M28.25 22.375H27.625V23H28.25V22.375Z" fill="#00FFEE" fill-opacity="0.502"/>
<path d="M28.875 22.375H28.25V23H28.875V22.375Z" fill="#00FFEE" fill-opacity="0.749"/>
<path d="M29.5 22.375H28.875V23H29.5V22.375Z" fill="#00FFEE"/>
<path d="M35.125 22.375H34.5V28H35.125V22.375Z" fill="#767776"/>
<path d="M35.75 22.375H35.125V23H35.75V22.375Z" fill="#848484"/>
<path d="M40.125 22.375H39.5V23H40.125V22.375Z" fill="#676968"/>
<path d="M40.75 22.375H40.125V23H40.75V22.375Z" fill="#303235"/>
<path d="M28.875 23H28.25V24.875H28.875V23Z" fill="#00FFEE" fill-opacity="0.502"/>
<path d="M29.5 23H28.875V24.875H29.5V23Z" fill="#00FFEE" fill-opacity="0.749"/>
<path d="M30.125 23H29.5V24.875H30.125V23Z" fill="#00FFEE"/>
<path d="M35.75 23H35.125V23.625H35.75V23Z" fill="#767776"/>
<path d="M37 23H35.75V23.625H37V23Z" fill="#848484"/>
<path d="M38.875 23H38.25V23.625H38.875V23Z" fill="#3F4144"/>
<path d="M39.5 23H38.875V23.625H39.5V23Z" fill="#676968"/>
<path d="M40.125 23H39.5V24.25H40.125V23Z" fill="#303235"/>
<path d="M40.75 23H40.125V24.25H40.75V23Z" fill="#37393C"/>
<path d="M42 23H41.375V26.75H42V23Z" fill="#3F4144"/>
<path d="M42.625 23H42V25.5H42.625V23Z" fill="#37393C"/>
<path d="M44.5 23H43.875V23.625H44.5V23Z" fill="#3F4144"/>
<path d="M23.25 23.625H22V26.125H23.25V23.625Z" fill="#00FFEE" fill-opacity="0.502"/>
<path d="M30.75 23.625H30.125V28H30.75V23.625Z" fill="#2FA9A2"/>
<path d="M35.75 23.625H35.125V28.625H35.75V23.625Z" fill="#595B5C"/>
<path d="M37 23.625H35.75V24.25H37V23.625Z" fill="#767776"/>
<path d="M37.625 23.625H37V24.25H37.625V23.625Z" fill="#848484"/>
<path d="M38.25 23.625H37.625V24.25H38.25V23.625Z" fill="#3F4144"/>
<path d="M38.875 23.625H38.25V24.25H38.875V23.625Z" fill="#676968"/>
<path d="M39.5 23.625H38.875V24.875H39.5V23.625Z" fill="#303235"/>
<path d="M44.5 23.625H43.875V24.25H44.5V23.625Z" fill="#00FFEE"/>
<path d="M45.125 23.625H44.5V24.25H45.125V23.625Z" fill="#00FFEE" fill-opacity="0.749"/>
<path d="M45.75 23.625H45.125V24.25H45.75V23.625Z" fill="#00FFEE" fill-opacity="0.502"/>
<path d="M28.25 24.25H27.625V24.875H28.25V24.25Z" fill="#00FFEE" fill-opacity="0.502"/>
<path d="M31.375 24.25H30.75V24.875H31.375V24.25Z" fill="#2FA9A2"/>
<path d="M37 24.25H35.75V29.25H37V24.25Z" fill="#676968"/>
<path d="M37.625 24.25H37V30.5H37.625V24.25Z" fill="#767776"/>
<path d="M38.25 24.25H37.625V31.125H38.25V24.25Z" fill="#848484"/>
<path d="M38.875 24.25H38.25V27.375H38.875V24.25Z" fill="#303235"/>
<path d="M40.125 24.25H39.5V28.625H40.125V24.25Z" fill="#37393C"/>
<path d="M40.75 24.25H40.125V28H40.75V24.25Z" fill="#3F4144"/>
<path d="M43.25 24.25H42.625V24.875H43.25V24.25Z" fill="#3F4144"/>
<path d="M43.875 24.25H43.25V24.875H43.875V24.25Z" fill="#00FFEE"/>
<path d="M44.5 24.25H43.875V24.875H44.5V24.25Z" fill="#00FFEE" fill-opacity="0.749"/>
<path d="M45.125 24.25H44.5V24.875H45.125V24.25Z" fill="#00FFEE" fill-opacity="0.502"/>
<path d="M27.625 24.875H27V25.5H27.625V24.875Z" fill="#00FFEE" fill-opacity="0.502"/>
<path d="M28.875 24.875H27.625V25.5H28.875V24.875Z" fill="#00FFEE" fill-opacity="0.749"/>
<path d="M29.5 24.875H28.875V25.5H29.5V24.875Z" fill="#00FFEE"/>
<path d="M30.125 24.875H29.5V28H30.125V24.875Z" fill="#487A78"/>
<path d="M31.375 24.875H30.75V25.5H31.375V24.875Z" fill="#487A78"/>
<path d="M32 24.875H31.375V25.5H32V24.875Z" fill="#2FA9A2"/>
<path d="M39.5 24.875H38.875V29.25H39.5V24.875Z" fill="#37393C"/>
<path d="M43.25 24.875H42.625V26.125H43.25V24.875Z" fill="#00FFEE"/>
<path d="M43.875 24.875H43.25V26.125H43.875V24.875Z" fill="#00FFEE" fill-opacity="0.749"/>
<path d="M44.5 24.875H43.875V26.125H44.5V24.875Z" fill="#00FFEE" fill-opacity="0.502"/>
<path d="M27 25.5H25.75V26.125H27V25.5Z" fill="#00FFEE" fill-opacity="0.502"/>
<path d="M27.625 25.5H27V26.125H27.625V25.5Z" fill="#00FFEE" fill-opacity="0.749"/>
<path d="M28.875 25.5H27.625V26.125H28.875V25.5Z" fill="#00FFEE"/>
<path d="M29.5 25.5H28.875V29.875H29.5V25.5Z" fill="#3F4144"/>
<path d="M31.375 25.5H30.75V27.375H31.375V25.5Z" fill="#595B5C"/>
<path d="M32 25.5H31.375V26.125H32V25.5Z" fill="#487A78"/>
<path d="M32.625 25.5H32V26.125H32.625V25.5Z" fill="#2FA9A2"/>
<path d="M42.625 25.5H42V26.125H42.625V25.5Z" fill="#3F4144"/>
<path d="M23.25 26.125H22V28.625H23.25V26.125Z" fill="#00FFEE" fill-opacity="0.749"/>
<path d="M26.375 26.125H25.75V26.75H26.375V26.125Z" fill="#00FFEE" fill-opacity="0.502"/>
<path d="M27 26.125H26.375V26.75H27V26.125Z" fill="#00FFEE" fill-opacity="0.749"/>
<path d="M27.625 26.125H27V26.75H27.625V26.125Z" fill="#00FFEE"/>
<path d="M28.875 26.125H27.625V28H28.875V26.125Z" fill="#3F4144"/>
<path d="M32 26.125H31.375V28H32V26.125Z" fill="#4C4E50"/>
<path d="M32.625 26.125H32V26.75H32.625V26.125Z" fill="#487A78"/>
<path d="M33.25 26.125H32.625V26.75H33.25V26.125Z" fill="#2FA9A2"/>
<path d="M42.625 26.125H42V29.875H42.625V26.125Z" fill="#00FFEE"/>
<path d="M43.25 26.125H42.625V29.875H43.25V26.125Z" fill="#00FFEE" fill-opacity="0.749"/>
<path d="M43.875 26.125H43.25V29.875H43.875V26.125Z" fill="#00FFEE" fill-opacity="0.502"/>
<path d="M25.75 26.75H25.125V29.875H25.75V26.75Z" fill="#00FFEE" fill-opacity="0.502"/>
<path d="M26.375 26.75H25.75V29.875H26.375V26.75Z" fill="#00FFEE" fill-opacity="0.749"/>
<path d="M27 26.75H26.375V29.875H27V26.75Z" fill="#00FFEE"/>
<path d="M27.625 26.75H27V27.375H27.625V26.75Z" fill="#3F4144"/>
<path d="M32.625 26.75H32V28.625H32.625V26.75Z" fill="#4C4E50"/>
<path d="M33.25 26.75H32.625V27.375H33.25V26.75Z" fill="#487A78"/>
<path d="M33.875 26.75H33.25V27.375H33.875V26.75Z" fill="#2FA9A2"/>
<path d="M41.375 26.75H40.75V27.375H41.375V26.75Z" fill="#3F4144"/>
<path d="M42 26.75H41.375V27.375H42V26.75Z" fill="#2FA9A2"/>
<path d="M27.625 27.375H27V28H27.625V27.375Z" fill="#676968"/>
<path d="M31.375 27.375H30.75V28H31.375V27.375Z" fill="#3F4144"/>
<path d="M33.25 27.375H32.625V29.875H33.25V27.375Z" fill="#595B5C"/>
<path d="M33.875 27.375H33.25V28H33.875V27.375Z" fill="#487A78"/>
<path d="M34.5 27.375H33.875V28H34.5V27.375Z" fill="#2FA9A2"/>
<path d="M38.875 27.375H38.25V30.5H38.875V27.375Z" fill="#3F4144"/>
<path d="M41.375 27.375H40.75V28H41.375V27.375Z" fill="#2FA9A2"/>
<path d="M42 27.375H41.375V28H42V27.375Z" fill="#487A78"/>
<path d="M27.625 28H27V28.625H27.625V28Z" fill="#282A2E"/>
<path d="M28.25 28H27.625V28.625H28.25V28Z" fill="#676968"/>
<path d="M28.875 28H28.25V28.625H28.875V28Z" fill="#3F4144"/>
<path d="M30.125 28H29.5V30.5H30.125V28Z" fill="#4C4E50"/>
<path d="M30.75 28H30.125V28.625H30.75V28Z" fill="#487A78"/>
<path d="M31.375 28H30.75V28.625H31.375V28Z" fill="#282A2E"/>
<path d="M32 28H31.375V28.625H32V28Z" fill="#3F4144"/>
<path d="M33.875 28H33.25V30.5H33.875V28Z" fill="#4C4E50"/>
<path d="M34.5 28H33.875V28.625H34.5V28Z" fill="#487A78"/>
<path d="M35.125 28H34.5V28.625H35.125V28Z" fill="#2FA9A2"/>
<path d="M40.75 28H40.125V29.25H40.75V28Z" fill="#2FA9A2"/>
<path d="M41.375 28H40.75V29.25H41.375V28Z" fill="#487A78"/>
<path d="M42 28H41.375V28.625H42V28Z" fill="#18191C"/>
<path d="M23.25 28.625H22V29.875H23.25V28.625Z" fill="#00FFEE"/>
<path d="M27.625 28.625H27V29.875H27.625V28.625Z" fill="#303235"/>
<path d="M28.25 28.625H27.625V29.25H28.25V28.625Z" fill="#282A2E"/>
<path d="M28.875 28.625H28.25V29.875H28.875V28.625Z" fill="#676968"/>
<path d="M31.375 28.625H30.125V31.125H31.375V28.625Z" fill="#4C4E50"/>
<path d="M32 28.625H31.375V29.25H32V28.625Z" fill="#282A2E"/>
<path d="M32.625 28.625H32V29.25H32.625V28.625Z" fill="#3F4144"/>
<path d="M34.5 28.625H33.875V31.125H34.5V28.625Z" fill="#4C4E50"/>
<path d="M35.125 28.625H34.5V29.25H35.125V28.625Z" fill="#487A78"/>
<path d="M35.75 28.625H35.125V29.25H35.75V28.625Z" fill="#2FA9A2"/>
<path d="M40.125 28.625H39.5V29.25H40.125V28.625Z" fill="#3F4144"/>
<path d="M42 28.625H41.375V29.875H42V28.625Z" fill="#282A2E"/>
<path d="M28.25 29.25H27.625V31.125H28.25V29.25Z" fill="#37393C"/>
<path d="M32 29.25H31.375V33H32V29.25Z" fill="#595B5C"/>
<path d="M32.625 29.25H32V30.5H32.625V29.25Z" fill="#282A2E"/>
<path d="M35.125 29.25H34.5V31.75H35.125V29.25Z" fill="#595B5C"/>
<path d="M35.75 29.25H35.125V29.875H35.75V29.25Z" fill="#487A78"/>
<path d="M36.375 29.25H35.75V29.875H36.375V29.25Z" fill="#2FA9A2"/>
<path d="M37 29.25H36.375V29.875H37V29.25Z" fill="#676968"/>
<path d="M39.5 29.25H38.875V29.875H39.5V29.25Z" fill="#3F4144"/>
<path d="M40.125 29.25H39.5V29.875H40.125V29.25Z" fill="#2FA9A2"/>
<path d="M40.75 29.25H40.125V29.875H40.75V29.25Z" fill="#487A78"/>
<path d="M41.375 29.25H40.75V29.875H41.375V29.25Z" fill="#18191C"/>
<path d="M26.375 29.875H25.75V31.125H26.375V29.875Z" fill="#00FFEE" fill-opacity="0.502"/>
<path d="M27 29.875H26.375V31.125H27V29.875Z" fill="#00FFEE" fill-opacity="0.749"/>
<path d="M27.625 29.875H27V31.125H27.625V29.875Z" fill="#00FFEE"/>
<path d="M28.875 29.875H28.25V30.5H28.875V29.875Z" fill="#282A2E"/>
<path d="M29.5 29.875H28.875V30.5H29.5V29.875Z" fill="#676968"/>
<path d="M33.25 29.875H32.625V30.5H33.25V29.875Z" fill="#3F4144"/>
<path d="M35.75 29.875H35.125V33H35.75V29.875Z" fill="#282A2E"/>
<path d="M36.375 29.875H35.75V30.5H36.375V29.875Z" fill="#487A78"/>
<path d="M37 29.875H36.375V30.5H37V29.875Z" fill="#2FA9A2"/>
<path d="M39.5 29.875H38.875V30.5H39.5V29.875Z" fill="#2FA9A2"/>
<path d="M40.125 29.875H39.5V30.5H40.125V29.875Z" fill="#487A78"/>
<path d="M40.75 29.875H40.125V30.5H40.75V29.875Z" fill="#18191C"/>
<path d="M41.375 29.875H40.75V31.125H41.375V29.875Z" fill="#282A2E"/>
<path d="M42 29.875H41.375V31.125H42V29.875Z" fill="#00FFEE"/>
<path d="M42.625 29.875H42V31.125H42.625V29.875Z" fill="#00FFEE" fill-opacity="0.749"/>
<path d="M43.25 29.875H42.625V31.125H43.25V29.875Z" fill="#00FFEE" fill-opacity="0.502"/>
<path d="M49.5 29.875H45.75V30.5H49.5V29.875Z" fill="#00FFEE" fill-opacity="0.502"/>
<path d="M51.375 29.875H50.75V30.5H51.375V29.875Z" fill="#00FFEE" fill-opacity="0.251"/>
<path d="M28.875 30.5H28.25V31.75H28.875V30.5Z" fill="#303235"/>
<path d="M29.5 30.5H28.875V31.125H29.5V30.5Z" fill="#282A2E"/>
<path d="M30.125 30.5H29.5V31.125H30.125V30.5Z" fill="#676968"/>
<path d="M32.625 30.5H32V33.625H32.625V30.5Z" fill="#595B5C"/>
<path d="M33.25 30.5H32.625V31.125H33.25V30.5Z" fill="#282A2E"/>
<path d="M33.875 30.5H33.25V31.125H33.875V30.5Z" fill="#3F4144"/>
<path d="M36.375 30.5H35.75V31.75H36.375V30.5Z" fill="#303235"/>
<path d="M37 30.5H36.375V31.125H37V30.5Z" fill="#487A78"/>
<path d="M37.625 30.5H37V31.125H37.625V30.5Z" fill="#2FA9A2"/>
<path d="M38.875 30.5H38.25V31.125H38.875V30.5Z" fill="#2FA9A2"/>
<path d="M39.5 30.5H38.875V31.125H39.5V30.5Z" fill="#487A78"/>
<path d="M40.125 30.5H39.5V31.75H40.125V30.5Z" fill="#18191C"/>
<path d="M40.75 30.5H40.125V31.75H40.75V30.5Z" fill="#282A2E"/>
<path d="M46.375 30.5H45.75V32.375H46.375V30.5Z" fill="#00FFEE" fill-opacity="0.502"/>
<path d="M27 31.125H26.375V31.75H27V31.125Z" fill="#00FFEE" fill-opacity="0.502"/>
<path d="M27.625 31.125H27V31.75H27.625V31.125Z" fill="#00FFEE" fill-opacity="0.749"/>
<path d="M28.25 31.125H27.625V31.75H28.25V31.125Z" fill="#00FFEE"/>
<path d="M29.5 31.125H28.875V32.375H29.5V31.125Z" fill="#37393C"/>
<path d="M30.125 31.125H29.5V31.75H30.125V31.125Z" fill="#282A2E"/>
<path d="M30.75 31.125H30.125V31.75H30.75V31.125Z" fill="#676968"/>
<path d="M31.375 31.125H30.75V31.75H31.375V31.125Z" fill="#4C4E50"/>
<path d="M33.25 31.125H32.625V34.25H33.25V31.125Z" fill="#3F4144"/>
<path d="M33.875 31.125H33.25V31.75H33.875V31.125Z" fill="#282A2E"/>
<path d="M34.5 31.125H33.875V31.75H34.5V31.125Z" fill="#3F4144"/>
<path d="M37 31.125H36.375V31.75H37V31.125Z" fill="#282A2E"/>
<path d="M37.625 31.125H37V31.75H37.625V31.125Z" fill="#487A78"/>
<path d="M38.25 31.125H37.625V31.75H38.25V31.125Z" fill="#2FA9A2"/>
<path d="M38.875 31.125H38.25V31.75H38.875V31.125Z" fill="#487A78"/>
<path d="M39.5 31.125H38.875V32.375H39.5V31.125Z" fill="#18191C"/>
<path d="M41.375 31.125H40.75V31.75H41.375V31.125Z" fill="#00FFEE"/>
<path d="M42 31.125H41.375V31.75H42V31.125Z" fill="#00FFEE" fill-opacity="0.749"/>
<path d="M42.625 31.125H42V31.75H42.625V31.125Z" fill="#00FFEE" fill-opacity="0.502"/>
<path d="M19.5 31.75H18.875V32.375H19.5V31.75Z" fill="#00FFEE" fill-opacity="0.251"/>
<path d="M25.125 31.75H20.125V32.375H25.125V31.75Z" fill="#00FFEE" fill-opacity="0.502"/>
<path d="M27.625 31.75H27V32.375H27.625V31.75Z" fill="#00FFEE" fill-opacity="0.502"/>
<path d="M28.25 31.75H27.625V32.375H28.25V31.75Z" fill="#00FFEE" fill-opacity="0.749"/>
<path d="M28.875 31.75H28.25V32.375H28.875V31.75Z" fill="#00FFEE"/>
<path d="M30.125 31.75H29.5V33.625H30.125V31.75Z" fill="#303235"/>
<path d="M30.75 31.75H30.125V33H30.75V31.75Z" fill="#282A2E"/>
<path d="M31.375 31.75H30.75V33H31.375V31.75Z" fill="#676968"/>
<path d="M33.875 31.75H33.25V35.5H33.875V31.75Z" fill="#3F4144"/>
<path d="M34.5 31.75H33.875V33H34.5V31.75Z" fill="#282A2E"/>
<path d="M35.125 31.75H34.5V33H35.125V31.75Z" fill="#3F4144"/>
<path d="M36.375 31.75H35.75V32.375H36.375V31.75Z" fill="#282A2E"/>
<path d="M37.625 31.75H36.375V33.625H37.625V31.75Z" fill="#3F4144"/>
<path d="M38.25 31.75H37.625V32.375H38.25V31.75Z" fill="#487A78"/>
<path d="M38.875 31.75H38.25V33.625H38.875V31.75Z" fill="#18191C"/>
<path d="M40.125 31.75H39.5V32.375H40.125V31.75Z" fill="#282A2E"/>
<path d="M40.75 31.75H40.125V32.375H40.75V31.75Z" fill="#00FFEE"/>
<path d="M41.375 31.75H40.75V32.375H41.375V31.75Z" fill="#00FFEE" fill-opacity="0.749"/>
<path d="M42 31.75H41.375V32.375H42V31.75Z" fill="#00FFEE" fill-opacity="0.502"/>
<path d="M45.75 31.75H43.875V32.375H45.75V31.75Z" fill="#00FFEE" fill-opacity="0.502"/>
<path d="M47.625 31.75H46.375V32.375H47.625V31.75Z" fill="#00FFEE" fill-opacity="0.502"/>
<path d="M48.875 31.75H48.25V32.375H48.875V31.75Z" fill="#00FFEE" fill-opacity="0.251"/>
<path d="M25.125 32.375H24.5V33.625H25.125V32.375Z" fill="#00FFEE" fill-opacity="0.749"/>
<path d="M28.25 32.375H27.625V33.625H28.25V32.375Z" fill="#00FFEE" fill-opacity="0.502"/>
<path d="M28.875 32.375H28.25V33.625H28.875V32.375Z" fill="#00FFEE" fill-opacity="0.749"/>
<path d="M29.5 32.375H28.875V33.625H29.5V32.375Z" fill="#00FFEE"/>
<path d="M36.375 32.375H35.75V34.25H36.375V32.375Z" fill="#303235"/>
<path d="M38.25 32.375H37.625V33H38.25V32.375Z" fill="#3F4144"/>
<path d="M39.5 32.375H38.875V33.625H39.5V32.375Z" fill="#282A2E"/>
<path d="M40.125 32.375H39.5V33.625H40.125V32.375Z" fill="#00FFEE"/>
<path d="M40.75 32.375H40.125V33.625H40.75V32.375Z" fill="#00FFEE" fill-opacity="0.749"/>
<path d="M41.375 32.375H40.75V33.625H41.375V32.375Z" fill="#00FFEE" fill-opacity="0.502"/>
<path d="M44.5 32.375H43.875V34.25H44.5V32.375Z" fill="#00FFEE" fill-opacity="0.502"/>
<path d="M25.75 33H25.125V33.625H25.75V33Z" fill="#00FFEE"/>
<path d="M30.75 33H30.125V34.25H30.75V33Z" fill="#303235"/>
<path d="M31.375 33H30.75V33.625H31.375V33Z" fill="#282A2E"/>
<path d="M32 33H31.375V33.625H32V33Z" fill="#676968"/>
<path d="M34.5 33H33.875V36.125H34.5V33Z" fill="#303235"/>
<path d="M35.125 33H34.5V33.625H35.125V33Z" fill="#282A2E"/>
<path d="M35.75 33H35.125V35.5H35.75V33Z" fill="#303235"/>
<path d="M38.25 33H37.625V34.25H38.25V33Z" fill="#18191C"/>
<path d="M28.875 33.625H28.25V34.25H28.875V33.625Z" fill="#00FFEE" fill-opacity="0.502"/>
<path d="M29.5 33.625H28.875V34.25H29.5V33.625Z" fill="#00FFEE" fill-opacity="0.749"/>
<path d="M30.125 33.625H29.5V34.25H30.125V33.625Z" fill="#00FFEE"/>
<path d="M31.375 33.625H30.75V34.25H31.375V33.625Z" fill="#303235"/>
<path d="M32 33.625H31.375V34.25H32V33.625Z" fill="#282A2E"/>
<path d="M32.625 33.625H32V34.25H32.625V33.625Z" fill="#676968"/>
<path d="M35.125 33.625H34.5V36.125H35.125V33.625Z" fill="#303235"/>
<path d="M37 33.625H36.375V34.25H37V33.625Z" fill="#4C4E50"/>
<path d="M37.625 33.625H37V34.875H37.625V33.625Z" fill="#18191C"/>
<path d="M38.875 33.625H38.25V34.25H38.875V33.625Z" fill="#282A2E"/>
<path d="M39.5 33.625H38.875V34.25H39.5V33.625Z" fill="#00FFEE"/>
<path d="M40.125 33.625H39.5V34.25H40.125V33.625Z" fill="#00FFEE" fill-opacity="0.749"/>
<path d="M40.75 33.625H40.125V34.25H40.75V33.625Z" fill="#00FFEE" fill-opacity="0.502"/>
<path d="M42.625 33.625H42V34.25H42.625V33.625Z" fill="#00FFEE"/>
<path d="M43.875 33.625H42.625V34.25H43.875V33.625Z" fill="#00FFEE" fill-opacity="0.749"/>
<path d="M29.5 34.25H28.875V35.5H29.5V34.25Z" fill="#00FFEE" fill-opacity="0.502"/>
<path d="M30.125 34.25H29.5V35.5H30.125V34.25Z" fill="#00FFEE" fill-opacity="0.749"/>
<path d="M30.75 34.25H30.125V35.5H30.75V34.25Z" fill="#00FFEE"/>
<path d="M31.375 34.25H30.75V35.5H31.375V34.25Z" fill="#37393C"/>
<path d="M32 34.25H31.375V34.875H32V34.25Z" fill="#303235"/>
<path d="M32.625 34.25H32V35.5H32.625V34.25Z" fill="#282A2E"/>
<path d="M33.25 34.25H32.625V35.5H33.25V34.25Z" fill="#676968"/>
<path d="M36.375 34.25H35.75V35.5H36.375V34.25Z" fill="#4C4E50"/>
<path d="M37 34.25H36.375V36.125H37V34.25Z" fill="#18191C"/>
<path d="M38.25 34.25H37.625V35.5H38.25V34.25Z" fill="#282A2E"/>
<path d="M38.875 34.25H38.25V35.5H38.875V34.25Z" fill="#00FFEE"/>
<path d="M39.5 34.25H38.875V35.5H39.5V34.25Z" fill="#00FFEE" fill-opacity="0.749"/>
<path d="M40.125 34.25H39.5V35.5H40.125V34.25Z" fill="#00FFEE" fill-opacity="0.502"/>
<path d="M32 34.875H31.375V36.125H32V34.875Z" fill="#37393C"/>
<path d="M37.625 34.875H37V36.125H37.625V34.875Z" fill="#282A2E"/>
<path d="M30.125 35.5H29.5V36.125H30.125V35.5Z" fill="#00FFEE" fill-opacity="0.502"/>
<path d="M30.75 35.5H30.125V36.125H30.75V35.5Z" fill="#00FFEE" fill-opacity="0.749"/>
<path d="M31.375 35.5H30.75V36.125H31.375V35.5Z" fill="#00FFEE"/>
<path d="M32.625 35.5H32V36.75H32.625V35.5Z" fill="#303235"/>
<path d="M33.25 35.5H32.625V36.125H33.25V35.5Z" fill="#282A2E"/>
<path d="M33.875 35.5H33.25V36.125H33.875V35.5Z" fill="#676968"/>
<path d="M35.75 35.5H35.125V36.125H35.75V35.5Z" fill="#4C4E50"/>
<path d="M36.375 35.5H35.75V36.75H36.375V35.5Z" fill="#18191C"/>
<path d="M38.25 35.5H37.625V36.125H38.25V35.5Z" fill="#00FFEE"/>
<path d="M38.875 35.5H38.25V36.125H38.875V35.5Z" fill="#00FFEE" fill-opacity="0.749"/>
<path d="M39.5 35.5H38.875V36.125H39.5V35.5Z" fill="#00FFEE" fill-opacity="0.502"/>
<path d="M20.125 36.125H19.5V36.75H20.125V36.125Z" fill="#00FFEE" fill-opacity="0.251"/>
<path d="M22.625 36.125H22V36.75H22.625V36.125Z" fill="#00FFEE" fill-opacity="0.251"/>
<path d="M25.75 36.125H23.25V36.75H25.75V36.125Z" fill="#00FFEE" fill-opacity="0.502"/>
<path d="M27 36.125H25.75V36.75H27V36.125Z" fill="#00FFEE" fill-opacity="0.749"/>
<path d="M27.625 36.125H27V36.75H27.625V36.125Z" fill="#00FFEE"/>
<path d="M30.75 36.125H30.125V37.375H30.75V36.125Z" fill="#00FFEE" fill-opacity="0.502"/>
<path d="M31.375 36.125H30.75V37.375H31.375V36.125Z" fill="#00FFEE" fill-opacity="0.749"/>
<path d="M32 36.125H31.375V37.375H32V36.125Z" fill="#00FFEE"/>
<path d="M33.25 36.125H32.625V37.375H33.25V36.125Z" fill="#303235"/>
<path d="M33.875 36.125H33.25V36.75H33.875V36.125Z" fill="#282A2E"/>
<path d="M34.5 36.125H33.875V39.875H34.5V36.125Z" fill="#676968"/>
<path d="M35.125 36.125H34.5V36.75H35.125V36.125Z" fill="#4C4E50"/>
<path d="M35.75 36.125H35.125V38H35.75V36.125Z" fill="#18191C"/>
<path d="M37 36.125H36.375V37.375H37V36.125Z" fill="#282A2E"/>
<path d="M37.625 36.125H37V37.375H37.625V36.125Z" fill="#00FFEE"/>
<path d="M38.25 36.125H37.625V37.375H38.25V36.125Z" fill="#00FFEE" fill-opacity="0.749"/>
<path d="M38.875 36.125H38.25V37.375H38.875V36.125Z" fill="#00FFEE" fill-opacity="0.502"/>
<path d="M45.75 36.125H42.625V36.75H45.75V36.125Z" fill="#00FFEE" fill-opacity="0.502"/>
<path d="M47 36.125H46.375V36.75H47V36.125Z" fill="#00FFEE" fill-opacity="0.251"/>
<path d="M24.5 36.75H23.875V38.625H24.5V36.75Z" fill="#00FFEE" fill-opacity="0.502"/>
<path d="M32.625 36.75H32V37.375H32.625V36.75Z" fill="#37393C"/>
<path d="M33.875 36.75H33.25V38.625H33.875V36.75Z" fill="#303235"/>
<path d="M35.125 36.75H34.5V39.875H35.125V36.75Z" fill="#303235"/>
<path d="M36.375 36.75H35.75V38H36.375V36.75Z" fill="#282A2E"/>
<path d="M43.25 36.75H42.625V38H43.25V36.75Z" fill="#00FFEE" fill-opacity="0.502"/>
<path d="M31.375 37.375H30.75V38H31.375V37.375Z" fill="#00FFEE" fill-opacity="0.502"/>
<path d="M32 37.375H31.375V38H32V37.375Z" fill="#00FFEE" fill-opacity="0.749"/>
<path d="M32.625 37.375H32V38H32.625V37.375Z" fill="#00FFEE"/>
<path d="M33.25 37.375H32.625V38H33.25V37.375Z" fill="#37393C"/>
<path d="M37 37.375H36.375V38H37V37.375Z" fill="#00FFEE"/>
<path d="M37.625 37.375H37V38H37.625V37.375Z" fill="#00FFEE" fill-opacity="0.749"/>
<path d="M38.25 37.375H37.625V38H38.25V37.375Z" fill="#00FFEE" fill-opacity="0.502"/>
<path d="M40.75 37.375H40.125V38H40.75V37.375Z" fill="#00FFEE"/>
<path d="M42 37.375H40.75V38H42V37.375Z" fill="#00FFEE" fill-opacity="0.749"/>
<path d="M42.625 37.375H42V38H42.625V37.375Z" fill="#00FFEE" fill-opacity="0.502"/>
<path d="M44.5 37.375H43.25V38H44.5V37.375Z" fill="#00FFEE" fill-opacity="0.502"/>
<path d="M45.75 37.375H45.125V38H45.75V37.375Z" fill="#00FFEE" fill-opacity="0.251"/>
<path d="M48.25 37.375H47.625V38H48.25V37.375Z" fill="#00FFEE" fill-opacity="0.251"/>
<path d="M23.875 38H21.375V38.625H23.875V38Z" fill="#00FFEE" fill-opacity="0.502"/>
<path d="M32 38H31.375V38.625H32V38Z" fill="#00FFEE" fill-opacity="0.502"/>
<path d="M32.625 38H32V38.625H32.625V38Z" fill="#00FFEE" fill-opacity="0.749"/>
<path d="M33.25 38H32.625V38.625H33.25V38Z" fill="#00FFEE"/>
<path d="M35.75 38H35.125V38.625H35.75V38Z" fill="#282A2E"/>
<path d="M36.375 38H35.75V38.625H36.375V38Z" fill="#00FFEE"/>
<path d="M37 38H36.375V38.625H37V38Z" fill="#00FFEE" fill-opacity="0.749"/>
<path d="M37.625 38H37V38.625H37.625V38Z" fill="#00FFEE" fill-opacity="0.502"/>
<path d="M32.625 38.625H32V39.875H32.625V38.625Z" fill="#00FFEE" fill-opacity="0.502"/>
<path d="M33.25 38.625H32.625V39.875H33.25V38.625Z" fill="#00FFEE" fill-opacity="0.749"/>
<path d="M33.875 38.625H33.25V39.875H33.875V38.625Z" fill="#00FFEE"/>
<path d="M35.75 38.625H35.125V39.875H35.75V38.625Z" fill="#00FFEE"/>
<path d="M36.375 38.625H35.75V39.875H36.375V38.625Z" fill="#00FFEE" fill-opacity="0.749"/>
<path d="M37 38.625H36.375V39.875H37V38.625Z" fill="#00FFEE" fill-opacity="0.502"/>
<path d="M28.875 39.25H27.625V39.875H28.875V39.25Z" fill="#00FFEE" fill-opacity="0.502"/>
<path d="M30.125 39.25H28.875V39.875H30.125V39.25Z" fill="#00FFEE" fill-opacity="0.749"/>
<path d="M30.75 39.25H30.125V39.875H30.75V39.25Z" fill="#00FFEE"/>
<path d="M28.25 39.875H27.625V41.125H28.25V39.875Z" fill="#00FFEE" fill-opacity="0.502"/>
<path d="M33.25 39.875H32.625V40.5H33.25V39.875Z" fill="#00FFEE" fill-opacity="0.502"/>
<path d="M33.875 39.875H33.25V40.5H33.875V39.875Z" fill="#00FFEE" fill-opacity="0.749"/>
<path d="M35.125 39.875H33.875V40.5H35.125V39.875Z" fill="#00FFEE"/>
<path d="M35.75 39.875H35.125V40.5H35.75V39.875Z" fill="#00FFEE" fill-opacity="0.749"/>
<path d="M36.375 39.875H35.75V40.5H36.375V39.875Z" fill="#00FFEE" fill-opacity="0.502"/>
<path d="M38.875 39.875H38.25V40.5H38.875V39.875Z" fill="#00FFEE"/>
<path d="M23.25 40.5H22.625V41.125H23.25V40.5Z" fill="#00FFEE" fill-opacity="0.251"/>
<path d="M27.625 40.5H24.5V41.125H27.625V40.5Z" fill="#00FFEE" fill-opacity="0.502"/>
<path d="M33.875 40.5H33.25V41.125H33.875V40.5Z" fill="#00FFEE" fill-opacity="0.502"/>
<path d="M35.125 40.5H33.875V41.125H35.125V40.5Z" fill="#00FFEE" fill-opacity="0.749"/>
<path d="M35.75 40.5H35.125V41.125H35.75V40.5Z" fill="#00FFEE" fill-opacity="0.502"/>
<path d="M38.875 40.5H38.25V41.75H38.875V40.5Z" fill="#00FFEE" fill-opacity="0.749"/>
<path d="M35.125 41.125H33.875V41.75H35.125V41.125Z" fill="#00FFEE" fill-opacity="0.502"/>
<path d="M44.5 41.125H38.875V41.75H44.5V41.125Z" fill="#00FFEE" fill-opacity="0.502"/>
<path d="M45.75 41.125H45.125V41.75H45.75V41.125Z" fill="#00FFEE" fill-opacity="0.251"/>
<path d="M33.25 41.75H32.625V42.375H33.25V41.75Z" fill="#00FFEE"/>
<path d="M42 41.75H41.375V43H42V41.75Z" fill="#00FFEE" fill-opacity="0.502"/>
<path d="M33.25 42.375H32.625V43.625H33.25V42.375Z" fill="#00FFEE" fill-opacity="0.749"/>
<path d="M45.75 42.375H42V43H45.75V42.375Z" fill="#00FFEE" fill-opacity="0.502"/>
<path d="M48.25 42.375H47.625V43H48.25V42.375Z" fill="#00FFEE" fill-opacity="0.251"/>
<path d="M30.125 43H29.5V43.625H30.125V43Z" fill="#00FFEE" fill-opacity="0.251"/>
<path d="M32.625 43H30.75V43.625H32.625V43Z" fill="#00FFEE" fill-opacity="0.502"/>
<g filter="url(#filter0_d_30_4654)">
<path d="M63.7784 24.5V12.8636H68.0398C68.8655 12.8636 69.5492 13 70.0909 13.2727C70.6326 13.5417 71.0379 13.9072 71.3068 14.3693C71.5758 14.8277 71.7102 15.3447 71.7102 15.9205C71.7102 16.4053 71.6212 16.8144 71.4432 17.1477C71.2651 17.4773 71.0265 17.7424 70.7273 17.9432C70.4318 18.1402 70.1061 18.2841 69.75 18.375V18.4886C70.1364 18.5076 70.5133 18.6326 70.8807 18.8636C71.2519 19.0909 71.5587 19.4148 71.8011 19.8352C72.0436 20.2557 72.1648 20.767 72.1648 21.3693C72.1648 21.964 72.0246 22.4981 71.7443 22.9716C71.4678 23.4413 71.0398 23.8144 70.4602 24.0909C69.8807 24.3636 69.1401 24.5 68.2386 24.5H63.7784ZM65.5341 22.9943H68.0682C68.9091 22.9943 69.5114 22.8314 69.875 22.5057C70.2386 22.1799 70.4205 21.7727 70.4205 21.2841C70.4205 20.9167 70.3276 20.5795 70.142 20.2727C69.9564 19.9659 69.6913 19.7216 69.3466 19.5398C69.0057 19.358 68.6004 19.2671 68.1307 19.2671H65.5341V22.9943ZM65.5341 17.8977H67.8864C68.2803 17.8977 68.6345 17.822 68.9489 17.6705C69.267 17.5189 69.5189 17.3068 69.7045 17.0341C69.8939 16.7576 69.9886 16.4318 69.9886 16.0568C69.9886 15.5758 69.8201 15.1724 69.483 14.8466C69.1458 14.5208 68.6288 14.358 67.9318 14.358H65.5341V17.8977ZM76.6506 24.6932C76.0975 24.6932 75.5975 24.5909 75.1506 24.3864C74.7036 24.178 74.3494 23.8769 74.0881 23.483C73.8305 23.089 73.7017 22.6061 73.7017 22.0341C73.7017 21.5417 73.7964 21.1364 73.9858 20.8182C74.1752 20.5 74.4309 20.2481 74.7528 20.0625C75.0748 19.8769 75.4347 19.7367 75.8324 19.6421C76.2301 19.5474 76.6354 19.4754 77.0483 19.4261C77.571 19.3655 77.9953 19.3163 78.321 19.2784C78.6468 19.2367 78.8835 19.1705 79.0312 19.0796C79.179 18.9886 79.2528 18.8409 79.2528 18.6364V18.5966C79.2528 18.1004 79.1127 17.7159 78.8324 17.4432C78.5559 17.1705 78.143 17.0341 77.5937 17.0341C77.0218 17.0341 76.571 17.161 76.2415 17.4148C75.9157 17.6648 75.6903 17.9432 75.5653 18.25L73.9687 17.8864C74.1581 17.3561 74.4347 16.928 74.7983 16.6023C75.1657 16.2727 75.5881 16.0341 76.0653 15.8864C76.5426 15.7349 77.0445 15.6591 77.571 15.6591C77.9195 15.6591 78.2888 15.7008 78.679 15.7841C79.0729 15.8636 79.4403 16.0114 79.7812 16.2273C80.1259 16.4432 80.4081 16.7519 80.6278 17.1534C80.8475 17.5511 80.9574 18.0682 80.9574 18.7046V24.5H79.2983V23.3068H79.2301C79.1203 23.5265 78.9555 23.7424 78.7358 23.9545C78.5161 24.1667 78.2339 24.3428 77.8892 24.483C77.5445 24.6231 77.1316 24.6932 76.6506 24.6932ZM77.0199 23.3295C77.4896 23.3295 77.8911 23.2367 78.2244 23.0511C78.5615 22.8655 78.8172 22.6231 78.9915 22.3239C79.1695 22.0208 79.2585 21.697 79.2585 21.3523V20.2273C79.1979 20.2879 79.0805 20.3447 78.9062 20.3977C78.7358 20.447 78.5407 20.4905 78.321 20.5284C78.1013 20.5625 77.8873 20.5947 77.679 20.625C77.4706 20.6515 77.2964 20.6742 77.1562 20.6932C76.8267 20.7349 76.5256 20.8049 76.2528 20.9034C75.9839 21.0019 75.768 21.1439 75.6051 21.3295C75.446 21.5114 75.3665 21.7538 75.3665 22.0568C75.3665 22.4773 75.5218 22.7955 75.8324 23.0114C76.143 23.2235 76.5388 23.3295 77.0199 23.3295ZM89.7599 17.9034L88.2202 18.1761C88.1558 17.9792 88.0535 17.7917 87.9133 17.6136C87.777 17.4356 87.5914 17.2898 87.3565 17.1761C87.1217 17.0625 86.8281 17.0057 86.4758 17.0057C85.9948 17.0057 85.5933 17.1136 85.2713 17.3296C84.9493 17.5417 84.7883 17.8163 84.7883 18.1534C84.7883 18.4451 84.8963 18.6799 85.1122 18.858C85.3281 19.036 85.6766 19.1818 86.1577 19.2955L87.544 19.6136C88.3471 19.7992 88.9455 20.0852 89.3395 20.4716C89.7334 20.858 89.9304 21.3599 89.9304 21.9773C89.9304 22.5 89.7789 22.9659 89.4758 23.375C89.1766 23.7803 88.758 24.0985 88.2202 24.3295C87.6861 24.5606 87.0668 24.6761 86.3622 24.6761C85.3849 24.6761 84.5876 24.4678 83.9702 24.0511C83.3527 23.6307 82.974 23.0341 82.8338 22.2614L84.4758 22.0114C84.5781 22.4394 84.7883 22.7633 85.1065 22.983C85.4247 23.1989 85.8395 23.3068 86.3508 23.3068C86.9077 23.3068 87.3527 23.1913 87.6861 22.9602C88.0194 22.7254 88.1861 22.4394 88.1861 22.1023C88.1861 21.8295 88.0838 21.6004 87.8793 21.4148C87.6785 21.2292 87.3698 21.089 86.9531 20.9943L85.4758 20.6705C84.6615 20.4849 84.0592 20.1894 83.669 19.7841C83.2827 19.3788 83.0895 18.8655 83.0895 18.2443C83.0895 17.7292 83.2334 17.2784 83.5213 16.8921C83.8092 16.5057 84.2069 16.2046 84.7145 15.9886C85.2221 15.7689 85.8035 15.6591 86.4588 15.6591C87.402 15.6591 88.1444 15.8636 88.6861 16.2727C89.2277 16.678 89.5857 17.2216 89.7599 17.9034ZM95.5596 24.6761C94.6998 24.6761 93.9593 24.4924 93.3381 24.125C92.7206 23.7538 92.2434 23.233 91.9062 22.5625C91.5729 21.8883 91.4062 21.0985 91.4062 20.1932C91.4062 19.2992 91.5729 18.5114 91.9062 17.8296C92.2434 17.1477 92.7131 16.6155 93.3153 16.233C93.9214 15.8504 94.6297 15.6591 95.4403 15.6591C95.9328 15.6591 96.41 15.7405 96.8721 15.9034C97.3343 16.0663 97.749 16.322 98.1165 16.6705C98.4839 17.0189 98.7737 17.4716 98.9858 18.0284C99.1979 18.5814 99.304 19.2538 99.304 20.0455V20.6477H92.3665V19.375H97.6392C97.6392 18.928 97.5483 18.5322 97.3665 18.1875C97.1846 17.839 96.929 17.5644 96.5994 17.3636C96.2737 17.1629 95.8911 17.0625 95.4517 17.0625C94.9744 17.0625 94.5578 17.1799 94.2017 17.4148C93.8494 17.6458 93.5767 17.9489 93.3835 18.3239C93.1941 18.6951 93.0994 19.0985 93.0994 19.5341V20.5284C93.0994 21.1117 93.2017 21.608 93.4062 22.017C93.6146 22.4261 93.9043 22.7386 94.2756 22.9545C94.6468 23.1667 95.0805 23.2727 95.5767 23.2727C95.8987 23.2727 96.1922 23.2273 96.4574 23.1364C96.7225 23.0417 96.9517 22.9015 97.1449 22.7159C97.3381 22.5303 97.4858 22.3011 97.5881 22.0284L99.196 22.3182C99.0672 22.7917 98.8362 23.2064 98.5028 23.5625C98.1733 23.9148 97.7585 24.1894 97.2585 24.3864C96.7623 24.5795 96.196 24.6761 95.5596 24.6761ZM104.456 24.6705C103.751 24.6705 103.123 24.4905 102.57 24.1307C102.02 23.767 101.589 23.25 101.274 22.5795C100.964 21.9053 100.808 21.0966 100.808 20.1534C100.808 19.2102 100.965 18.4034 101.28 17.733C101.598 17.0625 102.034 16.5492 102.587 16.1932C103.14 15.8371 103.767 15.6591 104.467 15.6591C105.009 15.6591 105.445 15.75 105.774 15.9318C106.107 16.1099 106.365 16.3182 106.547 16.5568C106.732 16.7955 106.876 17.0057 106.979 17.1875H107.081V12.8636H108.78V24.5H107.121V23.142H106.979C106.876 23.3277 106.729 23.5398 106.535 23.7784C106.346 24.017 106.085 24.2254 105.751 24.4034C105.418 24.5814 104.986 24.6705 104.456 24.6705ZM104.831 23.2216C105.32 23.2216 105.732 23.0928 106.07 22.8352C106.41 22.5739 106.668 22.2121 106.842 21.75C107.02 21.2879 107.109 20.75 107.109 20.1364C107.109 19.5303 107.022 19 106.848 18.5455C106.674 18.0909 106.418 17.7367 106.081 17.483C105.744 17.2292 105.327 17.1023 104.831 17.1023C104.32 17.1023 103.893 17.2349 103.553 17.5C103.212 17.7652 102.954 18.1269 102.78 18.5852C102.609 19.0436 102.524 19.5606 102.524 20.1364C102.524 20.7197 102.611 21.2443 102.785 21.7102C102.96 22.1761 103.217 22.5455 103.558 22.8182C103.903 23.0871 104.327 23.2216 104.831 23.2216ZM119.115 24.6761C118.297 24.6761 117.583 24.4886 116.973 24.1136C116.363 23.7386 115.89 23.214 115.553 22.5398C115.215 21.8655 115.047 21.0777 115.047 20.1761C115.047 19.2708 115.215 18.4792 115.553 17.8011C115.89 17.1231 116.363 16.5966 116.973 16.2216C117.583 15.8466 118.297 15.6591 119.115 15.6591C119.933 15.6591 120.647 15.8466 121.257 16.2216C121.867 16.5966 122.34 17.1231 122.678 17.8011C123.015 18.4792 123.183 19.2708 123.183 20.1761C123.183 21.0777 123.015 21.8655 122.678 22.5398C122.34 23.214 121.867 23.7386 121.257 24.1136C120.647 24.4886 119.933 24.6761 119.115 24.6761ZM119.121 23.25C119.651 23.25 120.09 23.1099 120.439 22.8295C120.787 22.5492 121.045 22.1761 121.212 21.7102C121.382 21.2443 121.467 20.7311 121.467 20.1705C121.467 19.6136 121.382 19.1023 121.212 18.6364C121.045 18.1667 120.787 17.7898 120.439 17.5057C120.09 17.2216 119.651 17.0796 119.121 17.0796C118.587 17.0796 118.143 17.2216 117.791 17.5057C117.443 17.7898 117.183 18.1667 117.013 18.6364C116.846 19.1023 116.763 19.6136 116.763 20.1705C116.763 20.7311 116.846 21.2443 117.013 21.7102C117.183 22.1761 117.443 22.5492 117.791 22.8295C118.143 23.1099 118.587 23.25 119.121 23.25ZM126.778 19.3182V24.5H125.08V15.7727H126.71V17.1932H126.818C127.019 16.7311 127.333 16.3599 127.761 16.0796C128.193 15.7992 128.737 15.6591 129.392 15.6591C129.987 15.6591 130.508 15.7841 130.955 16.0341C131.401 16.2803 131.748 16.6477 131.994 17.1364C132.241 17.625 132.364 18.2292 132.364 18.9489V24.5H130.665V19.1534C130.665 18.5208 130.5 18.0265 130.17 17.6705C129.841 17.3106 129.388 17.1307 128.812 17.1307C128.419 17.1307 128.068 17.2159 127.761 17.3864C127.458 17.5568 127.218 17.8068 127.04 18.1364C126.866 18.4621 126.778 18.8561 126.778 19.3182Z" fill="white"/>
<path d="M62.364 44.5L66.291 31.835H69.929L73.856 44.5H70.66L69.079 38.176C68.909 37.5413 68.739 36.867 68.569 36.153C68.4103 35.439 68.246 34.759 68.076 34.113H68.008C67.8607 34.7703 67.702 35.456 67.532 36.17C67.362 36.8727 67.1977 37.5413 67.039 38.176L65.458 44.5H62.364ZM65.033 41.593V39.247H71.153V41.593H65.033ZM74.9467 44.5V34.827H77.4117L77.6327 36.034H77.6837C78.0803 35.6373 78.528 35.2973 79.0267 35.014C79.5367 34.7307 80.1203 34.589 80.7777 34.589C81.8317 34.589 82.5967 34.9403 83.0727 35.643C83.5487 36.3457 83.7867 37.3033 83.7867 38.516V44.5H80.7607V38.89C80.7607 38.2213 80.67 37.768 80.4887 37.53C80.3073 37.292 80.024 37.173 79.6387 37.173C79.2987 37.173 79.0097 37.2467 78.7717 37.394C78.5337 37.5413 78.2673 37.7567 77.9727 38.04V44.5H74.9467ZM88.3631 44.5L85.1501 34.827H88.1931L89.3661 39.281C89.4908 39.757 89.6098 40.2443 89.7231 40.743C89.8478 41.2417 89.9724 41.746 90.0971 42.256H90.1821C90.3068 41.746 90.4258 41.2417 90.5391 40.743C90.6638 40.2443 90.7828 39.757 90.8961 39.281L92.0861 34.827H94.9931L91.8651 44.5H88.3631ZM96.4623 44.5V34.827H99.4883V44.5H96.4623ZM97.9753 33.484C97.4653 33.484 97.0573 33.3423 96.7513 33.059C96.4453 32.7757 96.2923 32.396 96.2923 31.92C96.2923 31.4553 96.4453 31.0813 96.7513 30.798C97.0573 30.5147 97.4653 30.373 97.9753 30.373C98.4739 30.373 98.8763 30.5147 99.1823 30.798C99.4996 31.0813 99.6583 31.4553 99.6583 31.92C99.6583 32.396 99.4996 32.7757 99.1823 33.059C98.8763 33.3423 98.4739 33.484 97.9753 33.484ZM104.678 44.738C103.987 44.738 103.437 44.5963 103.029 44.313C102.633 44.0297 102.349 43.633 102.179 43.123C102.009 42.613 101.924 42.0237 101.924 41.355V30.917H104.95V41.457C104.95 41.7743 105.007 41.9953 105.12 42.12C105.245 42.2333 105.364 42.29 105.477 42.29C105.534 42.29 105.585 42.29 105.63 42.29C105.676 42.2787 105.738 42.2673 105.817 42.256L106.174 44.483C106.016 44.551 105.812 44.6077 105.562 44.653C105.313 44.7097 105.018 44.738 104.678 44.738ZM113.162 44.738C112.357 44.738 111.598 44.602 110.884 44.33C110.17 44.058 109.535 43.65 108.98 43.106C108.436 42.5507 108.005 41.8707 107.688 41.066C107.382 40.25 107.229 39.3093 107.229 38.244C107.229 37.19 107.387 36.255 107.705 35.439C108.033 34.6117 108.475 33.9147 109.031 33.348C109.597 32.7813 110.243 32.3507 110.969 32.056C111.694 31.7613 112.459 31.614 113.264 31.614C114.091 31.614 114.828 31.7783 115.474 32.107C116.131 32.4357 116.675 32.821 117.106 33.263L115.525 35.201C115.207 34.9063 114.873 34.6683 114.522 34.487C114.17 34.3057 113.768 34.215 113.315 34.215C112.771 34.215 112.272 34.3737 111.819 34.691C111.365 34.997 111.003 35.4447 110.731 36.034C110.47 36.612 110.34 37.3147 110.34 38.142C110.34 38.9807 110.459 39.7003 110.697 40.301C110.946 40.8903 111.292 41.3437 111.734 41.661C112.176 41.967 112.691 42.12 113.281 42.12C113.791 42.12 114.244 42.0067 114.641 41.78C115.049 41.5533 115.4 41.2813 115.695 40.964L117.293 42.868C116.76 43.4913 116.142 43.9617 115.44 44.279C114.748 44.585 113.989 44.738 113.162 44.738ZM118.908 44.5V34.827H121.373L121.594 36.51H121.645C122.007 35.864 122.432 35.3823 122.92 35.065C123.418 34.7477 123.911 34.589 124.399 34.589C124.693 34.589 124.926 34.6117 125.096 34.657C125.277 34.691 125.436 34.7363 125.572 34.793L125.079 37.394C124.897 37.3487 124.727 37.3147 124.569 37.292C124.41 37.258 124.223 37.241 124.008 37.241C123.656 37.241 123.282 37.3713 122.886 37.632C122.5 37.8927 122.183 38.3403 121.934 38.975V44.5H118.908ZM128.561 44.738C127.971 44.738 127.461 44.6077 127.031 44.347C126.6 44.075 126.266 43.718 126.028 43.276C125.801 42.8227 125.688 42.3297 125.688 41.797C125.688 40.777 126.113 39.9837 126.963 39.417C127.813 38.839 129.178 38.448 131.06 38.244C131.037 37.9833 130.975 37.7623 130.873 37.581C130.771 37.3883 130.612 37.2467 130.397 37.156C130.193 37.054 129.926 37.003 129.598 37.003C129.212 37.003 128.816 37.0767 128.408 37.224C128 37.3713 127.552 37.581 127.065 37.853L126.011 35.864C126.441 35.6033 126.878 35.3823 127.32 35.201C127.773 35.0083 128.238 34.861 128.714 34.759C129.19 34.6457 129.677 34.589 130.176 34.589C131.014 34.589 131.723 34.7477 132.301 35.065C132.879 35.3823 133.321 35.8697 133.627 36.527C133.933 37.173 134.086 38.0003 134.086 39.009V44.5H131.621L131.417 43.531H131.332C130.935 43.8823 130.504 44.1713 130.04 44.398C129.586 44.6247 129.093 44.738 128.561 44.738ZM129.598 42.392C129.904 42.392 130.17 42.324 130.397 42.188C130.623 42.052 130.844 41.865 131.06 41.627V40.08C130.436 40.1593 129.938 40.2727 129.564 40.42C129.201 40.5673 128.94 40.7373 128.782 40.93C128.634 41.1227 128.561 41.3323 128.561 41.559C128.561 41.8423 128.651 42.052 128.833 42.188C129.025 42.324 129.28 42.392 129.598 42.392ZM136.932 44.5V34.453C136.932 33.773 137.051 33.1497 137.289 32.583C137.527 32.005 137.913 31.546 138.445 31.206C138.978 30.8547 139.692 30.679 140.587 30.679C141.018 30.679 141.398 30.713 141.726 30.781C142.066 30.849 142.344 30.9227 142.559 31.002L142.015 33.246C141.709 33.11 141.381 33.042 141.029 33.042C140.701 33.042 140.44 33.144 140.247 33.348C140.055 33.5407 139.958 33.8807 139.958 34.368V44.5H136.932ZM135.64 37.19V34.946L137.119 34.827H141.675V37.19H135.64ZM147.004 44.738C146.199 44.738 145.542 44.5793 145.032 44.262C144.533 43.9333 144.165 43.4857 143.927 42.919C143.7 42.341 143.587 41.6723 143.587 40.913V37.19H142.278V34.946L143.774 34.827L144.114 32.26H146.613V34.827H148.891V37.19H146.613V40.879C146.613 41.4117 146.726 41.797 146.953 42.035C147.191 42.2617 147.485 42.375 147.837 42.375C147.995 42.375 148.154 42.358 148.313 42.324C148.471 42.2787 148.607 42.2333 148.721 42.188L149.197 44.381C148.947 44.4603 148.641 44.5397 148.279 44.619C147.927 44.6983 147.502 44.738 147.004 44.738Z" fill="white"/>
</g>
<defs>
<filter id="filter0_d_30_4654" x="56.764" y="3.90001" width="99.336" height="48.2" filterUnits="userSpaceOnUse" color-interpolation-filters="sRGB">
<feFlood flood-opacity="0" result="BackgroundImageFix"/>
<feColorMatrix in="SourceAlpha" type="matrix" values="0 0 0 0 0 0 0 0 0 0 0 0 0 0 0 0 0 0 127 0" result="hardAlpha"/>
<feOffset/>
<feGaussianBlur stdDeviation="2.8"/>
<feComposite in2="hardAlpha" operator="out"/>
<feColorMatrix type="matrix" values="0 0 0 0 0 0 0 0 0 0 0 0 0 0 0 0 0 0 0.25 0"/>
<feBlend mode="normal" in2="BackgroundImageFix" result="effect1_dropShadow_30_4654"/>
<feBlend mode="normal" in="SourceGraphic" in2="effect1_dropShadow_30_4654" result="shape"/>
</filter>
<linearGradient id="paint0_linear_30_4654" x1="82.5" y1="0" x2="82.5" y2="56" gradientUnits="userSpaceOnUse">
<stop stop-color="#886389"/>
<stop offset="1" stop-color="#583E59"/>
</linearGradient>
</defs>
</svg>
